<?xml version="1.0" standalone="no"?>
<!DOCTYPE svg PUBLIC "-//W3C//DTD SVG 1.1//EN" "http://www.w3.org/Graphics/SVG/1.1/DTD/svg11.dtd" >
<svg>
<metadata>
Created by FontForge 20090914 at Sat Apr  4 15:23:35 2020
 By www-data
Copyright (c) 2000, 2002, 2005 Parachute&#194;&#168;, www.parachute.gr.  All rights reserved.
</metadata>
<defs>
<font id="PFIsotextPro-Light" horiz-adv-x="1818" >
  <font-face 
    font-family="PF Isotext Pro Light"
    font-weight="300"
    font-stretch="normal"
    units-per-em="1000"
    panose-1="2 0 5 6 0 0 0 2 0 3"
    ascent="750"
    descent="-250"
    x-height="459"
    cap-height="667"
    bbox="-161 -231 1760 913.002"
    underline-thickness="60"
    underline-position="-50"
    unicode-range="U+0020-U+FB05"
  />
<missing-glyph horiz-adv-x="440" 
d="M0 700h440v-700h-440v700zM360 650h-280l140 -255zM390 95v510l-140 -255zM360 50l-140 255l-140 -255h280zM50 95l140 255l-140 255v-510z" />
    <glyph glyph-name="fj" unicode="fj" horiz-adv-x="481" 
d="M237 636c-14.667 0 -28.5 -1.5 -41.5 -4.5s-24.167 -8.5 -33.5 -16.5s-16.833 -18.833 -22.5 -32.5s-8.5 -30.834 -8.5 -51.501v-71h264c10 0 16.833 -2.16699 20.5 -6.5s5.5 -10.5 5.5 -18.5v-477c0 -54 -14.167 -94.833 -42.5 -122.5s-70.166 -41.5 -125.499 -41.5h-51
c-5.33301 0 -10.333 2 -15 6s-7 11 -7 21c0 8.66699 2.33301 14.834 7 18.501s9.66699 5.5 15 5.5h50c33.333 0 61 8.66699 83 26s33 46.333 33 87v451h-238v-393c0 -5.33301 -2.16699 -10.166 -6.5 -14.499s-11.166 -6.5 -20.499 -6.5s-16 2.16699 -20 6.5
s-6 9.16602 -6 14.499v393h-50c-4 0 -8.33301 1.83301 -13 5.5s-7 10.5 -7 20.5c0 9.33301 2 15.833 6 19.5s8.66699 5.5 14 5.5h50v71c0 28 4.16699 52 12.5 72s20 36.333 35 49s32.667 22 53 28s42.833 9 67.5 9h133c5.33301 0 10.166 -2 14.499 -6s6.5 -11 6.5 -21
c0 -9.33301 -2.33301 -16 -7 -20s-9.33398 -6 -14.001 -6h-141z" />
    <glyph glyph-name="ffj" unicode="ffj" horiz-adv-x="753" 
d="M237 636c-14.667 0 -28.499 -1.49902 -41.499 -4.49902s-24.167 -8.5 -33.5 -16.5s-16.833 -18.833 -22.5 -32.5s-8.5 -30.834 -8.5 -51.501v-71h229v91c0 28 4.16699 52 12.5 72s20 36.333 35 49s32.667 22 53 28s42.833 9 67.5 9h122c5.33301 0 10.166 -2 14.499 -6
s6.5 -11 6.5 -21c0 -9.33301 -2.33301 -16 -7 -20s-9.33398 -6 -14.001 -6h-130c-14.667 0 -28.5 -1.5 -41.5 -4.5s-24.167 -8.5 -33.5 -16.5s-16.833 -18.833 -22.5 -32.5s-8.5 -30.834 -8.5 -51.501v-91h253c10 0 16.833 -2.16699 20.5 -6.5s5.5 -10.5 5.5 -18.5v-477
c0 -54 -14.167 -94.833 -42.5 -122.5s-70.166 -41.5 -125.499 -41.5h-51c-5.33301 0 -10.333 2 -15 6s-7 11 -7 21c0 8.66699 2.33301 14.834 7 18.501s9.66699 5.5 15 5.5h50c33.333 0 61 8.66699 83 26s33 46.333 33 87v451h-227v-393
c0 -5.33301 -2.16699 -10.166 -6.5 -14.499s-11.166 -6.5 -20.499 -6.5s-16 2.16699 -20 6.5s-6 9.16602 -6 14.499v393h-230v-393c0 -5.33301 -2.16699 -10.166 -6.5 -14.499s-11.166 -6.5 -20.499 -6.5s-16 2.16699 -20 6.5s-6 9.16602 -6 14.499v393h-50
c-4 0 -8.33301 1.83301 -13 5.5s-7 10.5 -7 20.5c0 9.33301 2 15.833 6 19.5s8.66699 5.5 14 5.5h50v71c0 28 4.16699 52 12.5 72s20 36.333 35 49s32.667 22 53 28s42.833 9 67.5 9h73c5.33301 0 10.166 -2 14.499 -6s6.5 -11 6.5 -21c0 -9.33301 -2.33301 -16 -7 -20
s-9.33398 -6 -14.001 -6h-81z" />
    <glyph glyph-name="ff" unicode="ff" horiz-adv-x="582" 
d="M520 656c-14.667 0 -28.498 -1.49805 -41.498 -4.49805s-24.167 -8.5 -33.5 -16.5s-16.833 -18.833 -22.5 -32.5s-8.5 -30.834 -8.5 -51.501v-91h142c5.33301 0 10 -1.83301 14 -5.5s6 -10.167 6 -19.5s-2.16699 -16 -6.5 -20s-8.83301 -6 -13.5 -6h-143v-393
c0 -5.33301 -2.16699 -10.166 -6.5 -14.499s-11.166 -6.5 -20.499 -6.5s-16 2.16699 -20 6.5s-6 9.16602 -6 14.499v393h-230v-393c0 -5.33301 -2.16699 -10.166 -6.5 -14.499s-11.166 -6.5 -20.499 -6.5s-16 2.16699 -20 6.5s-6 9.16602 -6 14.499v393h-50
c-4 0 -8.33301 1.83301 -13 5.5s-7 10.5 -7 20.5c0 9.33301 2 15.833 6 19.5s8.66699 5.5 14 5.5h50v71c0 28 4.16699 52 12.5 72s20 36.333 35 49s32.667 22 53 28s42.833 9 67.5 9h73c5.33301 0 10.166 -2 14.499 -6s6.5 -11 6.5 -21c0 -9.33301 -2.33301 -16 -7 -20
s-9.33398 -6 -14.001 -6h-81c-14.667 0 -28.5 -1.5 -41.5 -4.5s-24.167 -8.5 -33.5 -16.5s-16.833 -18.833 -22.5 -32.5s-8.5 -30.834 -8.5 -51.501v-71h229v91c0 28 4.16699 52 12.5 72s20 36.333 35 49s32.667 22 53 28s42.833 9 67.5 9h53c5.33301 0 10.166 -2 14.499 -6
s6.5 -11 6.5 -21c0 -9.33301 -2.33301 -16 -7 -20s-9.33398 -6 -14.001 -6h-61z" />
    <glyph glyph-name="fi" unicode="fi" horiz-adv-x="481" 
d="M368 409l-237.999 0.000976562v-393c0 -5.33301 -2.16699 -10.166 -6.5 -14.499s-11.166 -6.5 -20.499 -6.5s-16 2.16699 -20 6.5s-6 9.16602 -6 14.499v393h-50c-4 0 -8.33301 1.83301 -13 5.5s-7 10.5 -7 20.5c0 9.33301 2 15.833 6 19.5s8.66699 5.5 14 5.5h50v71
c0 28 4.16699 52 12.5 72s20 36.333 35 49s32.667 22 53 28s42.833 9 67.5 9h133c5.33301 0 10.166 -2 14.499 -6s6.5 -11 6.5 -21c0 -9.33301 -2.33301 -16 -7 -20s-9.33398 -6 -14.001 -6h-141c-14.667 0 -28.5 -1.5 -41.5 -4.5s-24.167 -8.5 -33.5 -16.5
s-16.833 -18.833 -22.5 -32.5s-8.5 -30.834 -8.5 -51.501v-71h264c10 0 16.833 -2.16699 20.5 -6.5s5.5 -10.5 5.5 -18.5v-419c0 -5.33301 -2 -10.166 -6 -14.499s-10.667 -6.5 -20 -6.5c-10 0 -17 2.16699 -21 6.5s-6 9.16602 -6 14.499v393z" />
    <glyph glyph-name="fl" unicode="fl" horiz-adv-x="549" 
d="M237 636c-14.667 0 -28.502 -1.50098 -41.502 -4.50098s-24.167 -8.5 -33.5 -16.5s-16.833 -18.833 -22.5 -32.5s-8.5 -30.834 -8.5 -51.501v-71h162c5.33301 0 10 -1.83301 14 -5.5s6 -10.167 6 -19.5s-2.16699 -16 -6.5 -20s-8.83301 -6 -13.5 -6h-163v-393
c0 -5.33301 -2.16699 -10.166 -6.5 -14.499s-11.166 -6.5 -20.499 -6.5s-16 2.16699 -20 6.5s-6 9.16602 -6 14.499v393h-50c-4 0 -8.33301 1.83301 -13 5.5s-7 10.5 -7 20.5c0 9.33301 2 15.833 6 19.5s8.66699 5.5 14 5.5h50v71c0 28 4.16699 52 12.5 72s20 36.333 35 49
s32.667 22 53 28s42.833 9 67.5 9h127c4.66699 6 12.334 9 23.001 9c9.33301 0 16 -2.16699 20 -6.5s6 -9.16602 6 -14.499v-533c0 -30 6 -53.667 18 -71s32.667 -26 62 -26h15c4.66699 0 9.16699 -1.66699 13.5 -5s6.5 -9.66602 6.5 -18.999c0 -10 -2 -17.167 -6 -21.5
s-8.66699 -6.5 -14 -6.5h-11c-46 0 -80.333 11.5 -103 34.5s-34 61.167 -34 114.5v492h-131z" />
    <glyph glyph-name="ffi" unicode="ffi" horiz-adv-x="764" 
d="M650 409l-236.998 0.00195312v-393c0 -5.33301 -2.16699 -10.166 -6.5 -14.499s-11.166 -6.5 -20.499 -6.5s-16 2.16699 -20 6.5s-6 9.16602 -6 14.499v393h-230v-393c0 -5.33301 -2.16699 -10.166 -6.5 -14.499s-11.166 -6.5 -20.499 -6.5s-16 2.16699 -20 6.5
s-6 9.16602 -6 14.499v393h-50c-4 0 -8.33301 1.83301 -13 5.5s-7 10.5 -7 20.5c0 9.33301 2 15.833 6 19.5s8.66699 5.5 14 5.5h50v71c0 28 4.16699 52 12.5 72s20 36.333 35 49s32.667 22 53 28s42.833 9 67.5 9h73c5.33301 0 10.166 -2 14.499 -6s6.5 -11 6.5 -21
c0 -9.33301 -2.33301 -16 -7 -20s-9.33398 -6 -14.001 -6h-81c-14.667 0 -28.5 -1.5 -41.5 -4.5s-24.167 -8.5 -33.5 -16.5s-16.833 -18.833 -22.5 -32.5s-8.5 -30.834 -8.5 -51.501v-71h229v91c0 28 4.16699 52 12.5 72s20 36.333 35 49s32.667 22 53 28s42.833 9 67.5 9
h133c5.33301 0 10.166 -2 14.499 -6s6.5 -11 6.5 -21c0 -9.33301 -2.33301 -16 -7 -20s-9.33398 -6 -14.001 -6h-141c-14.667 0 -28.5 -1.5 -41.5 -4.5s-24.167 -8.5 -33.5 -16.5s-16.833 -18.833 -22.5 -32.5s-8.5 -30.834 -8.5 -51.501v-91h264
c10 0 16.833 -2.16699 20.5 -6.5s5.5 -10.5 5.5 -18.5v-419c-0.666992 -5.33301 -3 -10.166 -7 -14.499s-10.667 -6.5 -20 -6.5c-10 0 -17 2.16699 -21 6.5s-6 9.16602 -6 14.499v393z" />
    <glyph glyph-name="ffl" unicode="ffl" horiz-adv-x="832" 
d="M520 656c-14.667 0 -28.501 -1.5 -41.501 -4.5s-24.167 -8.5 -33.5 -16.5s-16.833 -18.833 -22.5 -32.5s-8.5 -30.834 -8.5 -51.501v-91h162c5.33301 0 10 -1.83301 14 -5.5s6 -10.167 6 -19.5s-2.16699 -16 -6.5 -20s-8.83301 -6 -13.5 -6h-163v-393
c0 -5.33301 -2.16699 -10.166 -6.5 -14.499s-11.166 -6.5 -20.499 -6.5s-16 2.16699 -20 6.5s-6 9.16602 -6 14.499v393h-230v-393c0 -5.33301 -2.16699 -10.166 -6.5 -14.499s-11.166 -6.5 -20.499 -6.5s-16 2.16699 -20 6.5s-6 9.16602 -6 14.499v393h-50
c-4 0 -8.33301 1.83301 -13 5.5s-7 10.5 -7 20.5c0 9.33301 2 15.833 6 19.5s8.66699 5.5 14 5.5h50v71c0 28 4.16699 52 12.5 72s20 36.333 35 49s32.667 22 53 28s42.833 9 67.5 9h73c5.33301 0 10.166 -2 14.499 -6s6.5 -11 6.5 -21c0 -9.33301 -2.33301 -16 -7 -20
s-9.33398 -6 -14.001 -6h-81c-14.667 0 -28.5 -1.5 -41.5 -4.5s-24.167 -8.5 -33.5 -16.5s-16.833 -18.833 -22.5 -32.5s-8.5 -30.834 -8.5 -51.501v-71h229v91c0 28 4.16699 52 12.5 72s20 36.333 35 49s32.667 22 53 28s42.833 9 67.5 9h127c4.66699 6 12.334 9 23.001 9
c9.33301 0 16 -2.16699 20 -6.5s6 -9.16602 6 -14.499v-553c0 -30 6 -53.667 18 -71s32.667 -26 62 -26h15c4.66699 0 9.16699 -1.66699 13.5 -5s6.5 -9.66602 6.5 -18.999c0 -10 -2 -17.167 -6 -21.5s-8.66699 -6.5 -14 -6.5h-11c-46 0 -80.333 11.5 -103 34.5
s-34 61.167 -34 114.5v512h-131z" />
    <glyph glyph-name="ft" unicode="ft" horiz-adv-x="621" 
d="M548 0c-52 0 -91.6631 12.168 -118.996 36.501s-41 64.833 -41 121.5v251h-245v-393c0 -5.33301 -2.16699 -10.166 -6.5 -14.499s-11.166 -6.5 -20.499 -6.5s-16 2.16699 -20 6.5s-6 9.16602 -6 14.499v393h-50c-4 0 -8.33301 1.83301 -13 5.5s-7 10.5 -7 20.5
c0 9.33301 2 15.833 6 19.5s8.66699 5.5 14 5.5h50v70c0 28 4 52 12 72s19.333 36.333 34 49s32.167 22 52.5 28s42.833 9 67.5 9h65c5.33301 0 10.166 -2 14.499 -6s6.5 -11 6.5 -21c0 -9.33301 -2.33301 -16 -7 -20s-9.33398 -6 -14.001 -6h-71
c-14.667 0 -28.5 -1.5 -41.5 -4.5s-24.167 -8.5 -33.5 -16.5s-16.833 -18.833 -22.5 -32.5s-8.5 -30.834 -8.5 -51.501v-70h244v155c0 5.33301 1.83301 10 5.5 14s10.167 6 19.5 6s16.166 -2 20.499 -6s6.5 -8.66699 6.5 -14v-155h118c4 0 8.33301 -1.83301 13 -5.5
s7 -10.167 7 -19.5c0 -10 -2.16699 -16.833 -6.5 -20.5s-8.83301 -5.5 -13.5 -5.5h-117v-248c0 -20.667 2.5 -37.834 7.5 -51.501s12.167 -24.667 21.5 -33s20.166 -14.333 32.499 -18s26.166 -5.5 41.499 -5.5h52c5.33301 0 10 -2.16699 14 -6.5s6 -11.166 6 -20.499
s-2 -16 -6 -20s-8.66699 -6 -14 -6h-48z" />
    <glyph glyph-name=".notdef" horiz-adv-x="440" 
d="M0 700h440v-700h-440v700zM360 650h-280l140 -255zM390 95v510l-140 -255zM360 50l-140 255l-140 -255h280zM50 95l140 255l-140 255v-510z" />
    <glyph glyph-name="space" unicode=" " horiz-adv-x="280" 
 />
    <glyph glyph-name="exclam" unicode="!" horiz-adv-x="187" 
d="M94 177c-18 0 -27 10.333 -27 31v427c0 21.333 9 32 27 32c17.333 0 26 -10.667 26 -32v-427c0 -11.333 -2 -19.333 -6 -24s-10.667 -7 -20 -7zM95 0c-9.33301 0 -17.333 3.49902 -24 10.499s-10 15.167 -10 24.5c0 11.333 3.16699 19.833 9.5 25.5
s13.833 8.83398 22.5 9.50098c8.66699 0 16.5 -2.83301 23.5 -8.5s10.5 -14.5 10.5 -26.5c0 -9.33301 -3.16699 -17.5 -9.5 -24.5s-13.833 -10.5 -22.5 -10.5z" />
    <glyph glyph-name="quotedbl" unicode="&#x22;" horiz-adv-x="240" 
d="M173 483c-10.667 0 -17.6689 2.83105 -21.002 8.49805s-5 12.834 -5 21.501v136c0 1.33301 0.166992 3.33301 0.5 6s1.33301 5.16699 3 7.5s4.33398 4.5 8.00098 6.5s8.83398 3 15.501 3c7.33301 0 13.5 -2.16699 18.5 -6.5s7.5 -11.166 7.5 -20.499v-135
c0 -18 -9 -27 -27 -27zM65.998 482.998c-11.333 0 -18.5 2.66797 -21.5 8.00098s-4.5 12.666 -4.5 21.999v135c0 3.33301 1.5 8.16602 4.5 14.499s10.5 9.5 22.5 9.5c17.333 0 26 -9 26 -27v-135c0 -9.33301 -2.5 -16.166 -7.5 -20.499s-11.5 -6.5 -19.5 -6.5z" />
    <glyph glyph-name="numbersign" unicode="#" horiz-adv-x="460" 
d="M353 399l-34.001 -127.002h66c12.667 0 19 -8.33301 19 -25c0 -14.667 -5.66699 -22 -17 -22h-82l-55 -196c-2 -9.33301 -8.33301 -14 -19 -14c-7.33301 0 -13.5 1.66699 -18.5 5s-7.5 8.33301 -7.5 15c0 2.66699 0.666992 6.66699 2 12l50 178h-120l-54 -192
c-1.33301 -5.33301 -4 -9.16602 -8 -11.499s-8.66699 -3.5 -14 -3.5c-8 0 -13.667 1.83301 -17 5.5s-5 7.83398 -5 12.501c0 4 0.333008 7 1 9l50 180h-44c-7.33301 0 -12.666 2.33301 -15.999 7s-5 10 -5 16c0 16 7 24 21 24h57l34 127h-61c-8 0 -13.333 2.5 -16 7.5
s-4 11.5 -4 19.5c0.666992 5.33301 2.5 10 5.5 14s7.5 6 13.5 6h76l48 176c1.33301 5.33301 3.83301 9 7.5 11s7.5 3 11.5 3c9.33301 0 16.166 -2 20.499 -6s6.5 -8.66699 6.5 -14c0 -1.33301 -0.666992 -4.66602 -2 -9.99902l-44 -160h120l49 175
c1.33301 4.66699 3.83301 8 7.5 10s7.83398 3 12.501 3c10 0 16.667 -2.33301 20 -7s5 -9 5 -13c0 -2.66699 -0.333008 -4.33398 -1 -5.00098l-45 -163h50c7.33301 0 12.333 -2.5 15 -7.5s4 -10.5 4 -16.5s-1.5 -11.333 -4.5 -16s-7.16699 -7 -12.5 -7h-66zM150.999 271.998
h120l34 127h-120z" />
    <glyph glyph-name="dollar" unicode="$" horiz-adv-x="460" 
d="M253 0l-0.0078125 -45.999c0 -5.33301 -1.83301 -10 -5.5 -14s-10.167 -6 -19.5 -6s-15.5 2.16699 -18.5 6.5s-4.5 8.83301 -4.5 13.5v46h-139c-3.33301 0 -7.16602 1.83301 -11.499 5.5s-6.5 10.5 -6.5 20.5s2.33301 17 7 21s8.33398 6 11.001 6h139v267l-45 23
l-51.5 27c-16.333 8.66699 -30.666 18.834 -42.999 30.501s-22.166 25.834 -29.499 42.501s-11 37.667 -11 63c0 22 3.5 42.833 10.5 62.5s17.167 36.667 30.5 51s29.833 25.666 49.5 33.999s42.167 12.5 67.5 12.5h22v48c0 5.33301 1.5 10 4.5 14s9.16699 6 18.5 6
s15.833 -1.66699 19.5 -5s5.5 -8.33301 5.5 -15v-48h127c2.66699 0 6.33398 -2.16699 11.001 -6.5s7 -11.5 7 -21.5s-2.16699 -16.667 -6.5 -20s-8.16602 -5 -11.499 -5h-127v-256l25 -12l56.5 -28c19 -9.33301 35.833 -20.333 50.5 -33s26.667 -28 36 -46
s14 -40.333 14 -67c0 -22.667 -3.5 -44.334 -10.5 -65.001s-17.167 -38.834 -30.5 -54.501s-29.666 -28.167 -48.999 -37.5s-41.666 -14 -66.999 -14h-25zM275.992 53.001c14 0 27.168 2.33203 39.501 6.99902s23.166 11.834 32.499 21.501s16.833 21.5 22.5 35.5
s8.5 30.333 8.5 49c0 28.667 -8.66699 51.5 -26 68.5s-41.333 33.167 -72 48.5l-28 14v-244h23zM78.9932 507c0 -14.667 1.83496 -27.167 5.50195 -37.5s9.16699 -19.5 16.5 -27.5s16.166 -15.167 26.499 -21.5s22.166 -12.833 35.499 -19.5l42 -21v233h-23
c-28 0 -52.167 -8.83301 -72.5 -26.5s-30.5 -44.167 -30.5 -79.5z" />
    <glyph glyph-name="percent" unicode="%" horiz-adv-x="745" 
d="M546 704c10 -5.33301 15 -11.666 15 -18.999c0 -2 -0.666992 -5 -2 -9l-351 -702c-4.66699 -8.66699 -10.667 -13 -18 -13s-14 2.33301 -20 7s-9 10.667 -9 18c0 3.33301 1 6.66602 3 9.99902l351 701c4 6.66699 10.333 10 19 10c4 0 8 -1 12 -3zM184 668
c34.667 0 62.833 -9.83301 84.5 -29.5s32.5 -49.5 32.5 -89.5v-162c0 -40 -11.5 -69.833 -34.5 -89.5s-50.5 -29.5 -82.5 -29.5h-19c-32 0 -59.5 9.83301 -82.5 29.5s-34.5 49.5 -34.5 89.5v162c0 40 11.5 69.833 34.5 89.5s50.5 29.5 82.5 29.5h19zM252.999 551
c0 21.333 -6.33301 38.666 -19 51.999s-30.667 20 -54 20h-11c-23.333 0 -41.333 -6.66699 -54 -20s-19 -30.666 -19 -51.999v-166c0 -21.333 6.66699 -38.833 20 -52.5s31 -20.5 53 -20.5h11c22 0 39.667 6.83301 53 20.5s20 31.167 20 52.5v166zM579.999 400
c34.667 0 62.833 -9.83301 84.5 -29.5s32.5 -49.5 32.5 -89.5v-162c0 -40 -11.5 -69.833 -34.5 -89.5s-50.5 -29.5 -82.5 -29.5h-19c-32 -0 -59.5 9.83301 -82.5 29.5s-34.5 49.5 -34.5 89.5v162c0 40 11.5 69.833 34.5 89.5s50.5 29.5 82.5 29.5h19zM648.998 283
c0 21.333 -6.33301 38.666 -19 51.999s-30.667 20 -54 20h-11c-23.333 0 -41.333 -6.66699 -54 -20s-19 -30.666 -19 -51.999v-166c0 -21.333 6.66699 -38.833 20 -52.5s31 -20.5 53 -20.5h11c22 0 39.667 6.83301 53 20.5s20 31.167 20 52.5v166z" />
    <glyph glyph-name="ampersand" unicode="&#x26;" horiz-adv-x="599" 
d="M462 211c0 -34 -5.3291 -64.001 -15.9961 -90.001s-25 -48 -43 -66s-38.833 -31.667 -62.5 -41s-48.5 -14 -74.5 -14h-40c-24 0 -45.833 4 -65.5 12s-36.834 20 -51.501 36s-26 36.167 -34 60.5s-12 52.5 -12 84.5v206c0 32.667 4.66699 61 14 85s21.666 44 36.999 60
s32.666 28 51.999 36s39.333 12 60 12h160c16.667 0 25 -9.33301 25 -28c0 -16.667 -8.33301 -25 -25 -25h-149c-38 0 -67.667 -12.667 -89 -38s-32 -58.333 -32 -99v-213c0 -40.667 9.83301 -73.667 29.5 -99s48.5 -38 86.5 -38h28c26 0 48.333 4.33301 67 13
s34.167 20.167 46.5 34.5s21.333 30.833 27 49.5s8.5 38 8.5 58v112h-168c-16 0 -24 8.66699 -24 26s8 26 24 26h234c15.333 0 30.5 2.5 45.5 7.5s28.167 12.167 39.5 21.5c2.66699 2.66699 6 4 10 4c7.33301 0 14 -3.66699 20 -11s9 -14 9 -20
c0 -9.33301 -4.83301 -17.333 -14.5 -24s-21.167 -12.167 -34.5 -16.5s-26.833 -7.66602 -40.5 -9.99902s-24.834 -3.5 -33.501 -3.5h-14v-108z" />
    <glyph glyph-name="quotesingle" unicode="'" horiz-adv-x="133" 
d="M66 483c-11.333 0 -18.5 2.66797 -21.5 8.00098s-4.5 12.666 -4.5 21.999v135c0 3.33301 1.5 8.16602 4.5 14.499s10.5 9.5 22.5 9.5c17.333 0 26 -9 26 -27v-135c0 -9.33301 -2.5 -16.166 -7.5 -20.499s-11.5 -6.5 -19.5 -6.5z" />
    <glyph glyph-name="parenleft" unicode="(" horiz-adv-x="225" 
d="M94 313c0 -36 3.33398 -72.1689 10.001 -108.502s15.5 -71 26.5 -104s23.5 -64.167 37.5 -93.5s28.667 -55 44 -77c2 -4 3 -7 3 -9c0 -5.33301 -3 -10.333 -9 -15s-10.667 -7 -14 -7c-5.33301 0 -9.33301 2 -12 6c-18 22.667 -35.333 49.334 -52 80.001
s-31.667 63.667 -45 99s-24 72.333 -32 111s-12 78 -12 118c0 40.667 4.5 81.5 13.5 122.5s20.5 80.167 34.5 117.5s29.667 71.333 47 102s34 56 50 76c4 6 9 9 15 9s11 -2.5 15 -7.5s6 -9.16699 6 -12.5c0 -2.66699 -1 -6 -3 -10
c-38.667 -58.667 -68.834 -122.167 -90.501 -190.5s-32.5 -137.166 -32.5 -206.499z" />
    <glyph glyph-name="parenright" unicode=")" horiz-adv-x="225" 
d="M166 313c0 69.333 -10.833 138.168 -32.5 206.501s-51.834 131.833 -90.501 190.5c-2 4 -3 7.33301 -3 10c0 3.33301 2 7.5 6 12.5s9 7.5 15 7.5s11 -3 15 -9c16 -20 32.667 -45.333 50 -76s33 -64.667 47 -102s25.5 -76.5 34.5 -117.5s13.5 -81.833 13.5 -122.5
c0 -40 -4 -79.333 -12 -118s-18.667 -75.667 -32 -111s-28.333 -68.333 -45 -99s-34 -57.334 -52 -80.001c-3.33301 -4 -7 -6 -11 -6c-3.33301 0 -8.16602 2.33301 -14.499 7s-9.5 9.66699 -9.5 15c0 2 1 5 3 9c15.333 22 30 47.667 44 77s26.5 60.5 37.5 93.5
s19.833 67.667 26.5 104s10 72.5 10 108.5z" />
    <glyph glyph-name="asterisk" unicode="*" horiz-adv-x="380" 
d="M192 690c8.66699 0 15.333 -2.49902 20 -7.49902s7 -10.167 7 -15.5l-5 -127l114 59c2 1.33301 5 2 9 2c5.33301 0 11 -3 17 -9s9 -12.667 9 -20c0 -12.667 -4.33301 -20.334 -13 -23.001l-125 -50l84 -102c3.33301 -4.66699 5 -9 5 -13
c0 -6 -3.16699 -12.167 -9.5 -18.5s-13.166 -9.5 -20.499 -9.5c-8.66699 0 -15.334 3 -20.001 9l-72 108l-69 -107c-5.33301 -6 -11.333 -9 -18 -9c-8 0 -15 2.83301 -21 8.5s-9 12.5 -9 20.5c0 4.66699 1 8.66699 3 12l80 101l-120 46c-8.66699 4 -13 11.333 -13 22
c0 10 3.16699 17.5 9.5 22.5s12.5 7.5 18.5 7.5c2 0 4.33301 -0.666992 7 -2l112 -55l-8 127c-0.666992 6.66699 1.83301 12 7.5 16s12.5 6.33301 20.5 7z" />
    <glyph glyph-name="plus" unicode="+" horiz-adv-x="460" 
d="M256 306l0.00195312 -156c0 -10.667 -2 -18 -6 -22s-11 -6 -21 -6s-16.833 1.83301 -20.5 5.5s-5.5 11.167 -5.5 22.5v156h-148c-10.667 0 -17.834 1.83301 -21.501 5.5s-5.5 10.834 -5.5 21.501s2 18 6 22s11 6 21 6h148v156c0 11.333 1.66699 18.833 5 22.5
s10.333 5.5 21 5.5c10 0 17 -2 21 -6s6 -11.333 6 -22v-156h148c10 0 17 -2 21 -6s6 -11.333 6 -22s-1.83301 -17.834 -5.5 -21.501s-10.834 -5.5 -21.501 -5.5h-148z" />
    <glyph glyph-name="comma" unicode="," horiz-adv-x="130" 
d="M55 -92c-2 -4 -5.16895 -7.83398 -9.50195 -11.501s-9.16602 -5.5 -14.499 -5.5c-8 0 -13.5 2.16699 -16.5 6.5s-4.5 8.83301 -4.5 13.5s0.333008 8 1 10l36 139c1.33301 6.66699 4.83301 11.667 10.5 15s11.834 5 18.501 5c10 0 18.333 -3.33301 25 -10
s10 -13.667 10 -21c0 -3.33301 -0.333008 -5.66602 -1 -6.99902z" />
    <glyph glyph-name="hyphen" unicode="-" horiz-adv-x="311" 
d="M61 206c-10 0 -18.667 2.16797 -26 6.50098s-11 12.5 -11 24.5c0 11.333 3.5 19.166 10.5 23.499s15.833 6.5 26.5 6.5h190c10 0 18.5 -2 25.5 -6s10.5 -12 10.5 -24s-3.5 -20.167 -10.5 -24.5s-15.5 -6.5 -25.5 -6.5h-190z" />
    <glyph glyph-name="period" unicode="." horiz-adv-x="147" 
d="M72 -3c-10.667 0 -19.834 3.83301 -27.501 11.5s-11.5 17.167 -11.5 28.5c0 13.333 3.83301 23.333 11.5 30s16.834 10 27.501 10c10 0 18.833 -3.33301 26.5 -10s11.5 -16.667 11.5 -30c0 -11.333 -3.66699 -20.833 -11 -28.5s-16.333 -11.5 -27 -11.5z" />
    <glyph glyph-name="slash" unicode="/" horiz-adv-x="443" 
d="M406 704c10 -5.33301 15 -11.667 15 -19c0 -2 -0.666992 -5 -2 -9l-351 -702c-4 -8.66699 -10 -13 -18 -13c-7.33301 0 -13.833 2.33301 -19.5 7s-8.5 10.667 -8.5 18c0 4.66699 0.666992 8 2 10l351 701c4 6.66699 10.333 10 19 10c4 0 8 -1 12 -3z" />
    <glyph glyph-name="zero" unicode="0" horiz-adv-x="460" 
d="M247 667c51.333 0 93.167 -16 125.5 -48s48.5 -80.333 48.5 -145v-281c0 -32 -4.66699 -60.167 -14 -84.5s-21.833 -44.5 -37.5 -60.5s-34 -28 -55 -36s-43.5 -12 -67.5 -12h-28c-24 0 -46.5 4 -67.5 12s-39.333 20 -55 36s-28.167 36.167 -37.5 60.5s-14 52.5 -14 84.5
v281c0 32 4.66699 60.167 14 84.5s21.833 44.5 37.5 60.5s34 28 55 36s43.5 12 67.5 12h28zM368.001 478c0 40.667 -11.167 73.5 -33.5 98.5s-53.5 37.5 -93.5 37.5h-16c-40 0 -71.167 -12.5 -93.5 -37.5s-33.5 -57.833 -33.5 -98.5v-289c0 -40.667 11.667 -73.5 35 -98.5
s54 -37.5 92 -37.5h16c38 0 68.667 12.5 92 37.5s35 57.833 35 98.5v289z" />
    <glyph glyph-name="one" unicode="1" horiz-adv-x="460" 
d="M257 -5c-10.667 0 -17.499 2.16895 -20.499 6.50195s-4.5 9.16602 -4.5 14.499v580l-101 -77c-4.66699 -3.33301 -9.33398 -5 -14.001 -5c-5.33301 0 -11.166 2.5 -17.499 7.5s-9.5 12.167 -9.5 21.5c0 7.33301 2.66699 13 8 17l127 97
c6.66699 5.33301 12.334 8.5 17.001 9.5s9.66699 1.16699 15 0.5c9.33301 0 16.166 -2.16699 20.499 -6.5s6.5 -12.5 6.5 -24.5v-620c0 -4.66699 -1.83301 -9.33398 -5.5 -14.001s-10.834 -7 -21.501 -7z" />
    <glyph glyph-name="two" unicode="2" horiz-adv-x="460" 
d="M83 611c-14.667 0 -22.001 9.33301 -22.001 28c0 18 7.33301 27 22 27h189c51.333 0 90.5 -13.833 117.5 -41.5s40.5 -63.834 40.5 -108.501c0 -25.333 -3.66699 -47.5 -11 -66.5s-17.166 -35.833 -29.499 -50.5s-26.666 -27.667 -42.999 -39
s-33.5 -21.666 -51.5 -30.999l-122 -64c-34 -17.333 -57.667 -36.833 -71 -58.5s-20 -47.5 -20 -77.5v-74h322c14.667 0 22 -9 22 -27c0 -18.667 -7.33301 -28 -22 -28h-346c-10.667 -0 -18.334 2.33301 -23.001 7s-7 10.334 -7 17.001v101c0 22 2 41.833 6 59.5
s10.667 33.667 20 48s21.666 27.666 36.999 39.999s34.333 24.5 57 36.5l144 75c26.667 14 47.334 32.333 62.001 55s22 46.667 22 72c0 17.333 -3 32.333 -9 45s-13.833 23 -23.5 31s-20.667 14 -33 18s-24.833 6 -37.5 6h-190z" />
    <glyph glyph-name="three" unicode="3" horiz-adv-x="460" 
d="M236 667c18 0 36.667 -2.16895 56 -6.50195s36.666 -12.5 51.999 -24.5s28 -28.333 38 -49s15 -47.334 15 -80.001c0 -35.333 -8.66699 -65.166 -26 -89.499s-37.333 -40.5 -60 -48.5c32.667 -11.333 56.334 -30.666 71.001 -57.999s22 -61.333 22 -102v-13
c0 -32 -4.66699 -60.333 -14 -85s-21.833 -45.167 -37.5 -61.5s-34 -28.666 -55 -36.999s-43.5 -12.5 -67.5 -12.5h-180c-3.33301 0 -7.5 2.16699 -12.5 6.5s-7.5 11.5 -7.5 21.5s2.33301 16.667 7 20s9 5 13 5h174c40 0 71.167 13 93.5 39s33.5 59.333 33.5 100v21
c0 40.667 -10.167 72 -30.5 94s-51.5 33 -93.5 33h-105c-4.66699 0 -9.33398 2.33301 -14.001 7s-7 11.667 -7 21c0 10 2.33301 16.833 7 20.5s9 5.5 13 5.5h99c16 0 31.333 2 46 6s27.834 10.5 39.501 19.5s21 20.667 28 35s10.5 31.5 10.5 51.5c0 40 -11 68 -33 84
s-51 24 -87 24h-160c-4.66699 0 -9.16699 1.66699 -13.5 5s-6.5 10 -6.5 20s2.5 17.167 7.5 21.5s9.16699 6.5 12.5 6.5h172z" />
    <glyph glyph-name="four" unicode="4" horiz-adv-x="460" 
d="M331 134l-0.00195312 -119.998c0 -4.66699 -2.16699 -9.16699 -6.5 -13.5s-11.166 -6.5 -20.499 -6.5s-16 2.16699 -20 6.5s-6 8.83301 -6 13.5v120h-234c-8.66699 0 -16.334 2 -23.001 6s-10 12 -10 24c0 2 0.833008 5.83301 2.5 11.5s3.16699 10.167 4.5 13.5l193 461
c4.66699 12 12.334 18 23.001 18c4 0 10.167 -1.33301 18.5 -4s12.5 -9.33398 12.5 -20.001c0 -2 -0.666992 -5 -2 -9l-190 -446h205v143c0 5.33301 2 10.166 6 14.499s10.667 6.5 20 6.5s16.166 -2.33301 20.499 -7s6.5 -9.33398 6.5 -14.001v-143h99
c4.66699 0 9.33398 -2.16699 14.001 -6.5s7 -11.166 7 -20.499c0 -8 -1.66699 -14.667 -5 -20s-8.66602 -8 -15.999 -8h-99z" />
    <glyph glyph-name="five" unicode="5" horiz-adv-x="460" 
d="M63 0c-2.66699 0 -6.66699 2.16699 -12 6.5s-8 11.5 -8 21.5s2.5 16.667 7.5 20s9.16699 5 12.5 5h181c40 0 69.5 12.333 88.5 37s28.5 57.334 28.5 98.001v29c0 40.667 -9.5 72 -28.5 94s-47.5 33 -85.5 33h-173c-12 0 -20.167 3.83301 -24.5 11.5s-6.5 14.5 -6.5 20.5
v259c0 7.33301 2.16699 14.666 6.5 21.999s12.5 11 24.5 11h303c5.33301 0 10 -2.16699 14 -6.5s6 -11.5 6 -21.5s-2.5 -16.667 -7.5 -20s-9.16699 -5 -12.5 -5h-281v-217h154c24 0 46 -3.66699 66 -11s37.167 -18.5 51.5 -33.5s25.666 -34.167 33.999 -57.5
s12.5 -51 12.5 -83v-21c0 -32 -4.16699 -60 -12.5 -84s-19.666 -44 -33.999 -60s-31.5 -28 -51.5 -36s-42 -12 -66 -12h-187z" />
    <glyph glyph-name="six" unicode="6" horiz-adv-x="460" 
d="M255 53c40 0 69.499 12.332 88.499 36.999s28.5 57.334 28.5 98.001v25c0 40.667 -9.5 72 -28.5 94s-47.5 33 -85.5 33h-158v-177c0 -11.333 1.33301 -23.333 4 -36s7.83398 -24.5 15.501 -35.5s18.5 -20.167 32.5 -27.5s32.333 -11 55 -11h48zM193.999 0.999023
c-29.333 0 -53.5 4.99902 -72.5 14.999s-34 22.833 -45 38.5s-18.667 33.167 -23 52.5s-6.5 38 -6.5 56v312c0 34.667 5 64.334 15 89.001s23 44.667 39 60s33.667 26.5 53 33.5s38 10.5 56 10.5h144c16.667 0 25 -9.33301 25 -28c0 -16.667 -8.66699 -25 -26 -25h-125
c-38 0 -68.833 -11 -92.5 -33s-35.5 -56.667 -35.5 -104v-85h161c24 0 46 -3.5 66 -10.5s37.167 -18 51.5 -33s25.666 -34.167 33.999 -57.5s12.5 -51 12.5 -83v-17c0 -32 -4.16699 -60 -12.5 -84s-19.666 -44 -33.999 -60s-31.5 -27.833 -51.5 -35.5s-42 -11.5 -66 -11.5
h-67z" />
    <glyph glyph-name="seven" unicode="7" horiz-adv-x="460" 
d="M390 667c8 0 14.499 -1.99902 19.499 -5.99902s7.5 -10.667 7.5 -20c0 -5.33301 -0.833008 -10.333 -2.5 -15s-3.16699 -9.33398 -4.5 -14.001l-247 -602c-3.33301 -10.667 -10.666 -16 -21.999 -16c-9.33301 0 -16.833 2.16699 -22.5 6.5s-8.5 9.5 -8.5 15.5
c0 2.66699 0.666992 6.66699 2 12l244 584h-296c-6.66699 0 -11.834 2 -15.501 6s-5.5 11 -5.5 21s2.33301 17.167 7 21.5s9.33398 6.5 14.001 6.5h330z" />
    <glyph glyph-name="eight" unicode="8" horiz-adv-x="460" 
d="M43 206c0 42 6.8291 76.332 20.4961 102.999s32.834 46.667 57.501 60c-22.667 10 -40 26.667 -52 50s-18 50 -18 80c0 26.667 4.16699 50.5 12.5 71.5s20 38.667 35 53s32.667 25.333 53 33s42.5 11.5 66.5 11.5h27c24 0 46.167 -3.66699 66.5 -11
s38 -18.166 53 -32.499s26.667 -32 35 -53s12.5 -44.833 12.5 -71.5c0 -29.333 -6.16699 -55.666 -18.5 -78.999s-30.166 -40.333 -53.499 -51c26 -11.333 46 -30.833 60 -58.5s21 -62.834 21 -105.501v-15c0 -32 -4.33301 -60 -13 -84s-20.667 -44 -36 -60
s-33.166 -27.833 -53.499 -35.5s-42.5 -11.5 -66.5 -11.5h-40c-24 -0 -46.167 3.83301 -66.5 11.5s-38.166 19.5 -53.499 35.5s-27.333 36 -36 60s-13 52 -13 84v15zM245.996 51.999c40 0 70.333 12.333 91 37s31 57.334 31 98.001v23c0 40.667 -9.5 73.334 -28.5 98.001
s-48.5 37 -88.5 37h-38c-40 0 -69.5 -12.333 -88.5 -37s-28.5 -57.334 -28.5 -98.001v-23c0 -40.667 10.333 -73.334 31 -98.001s51 -37 91 -37h28zM223.996 615.999c-40 0 -70.334 -10.667 -91.001 -32s-31 -49 -31 -83c0 -32 8.33301 -58.333 25 -79
s42.334 -31 77.001 -31h54c34.667 0 60.5 10.667 77.5 32s25.5 47 25.5 77c0 32 -10.333 59.333 -31 82s-51 34 -91 34h-15z" />
    <glyph glyph-name="nine" unicode="9" horiz-adv-x="460" 
d="M209 615c-40 0 -69.499 -12.332 -88.499 -36.999s-28.5 -57.334 -28.5 -98.001v-25c0 -40.667 9.5 -72 28.5 -94s47.5 -33 85.5 -33h158v177c0 10.667 -1.33301 22.5 -4 35.5s-7.83398 25 -15.501 36s-18.5 20.167 -32.5 27.5s-32.333 11 -55 11h-48zM270.001 667.001
c29.333 0 53.5 -5.00195 72.5 -15.002s34 -22.833 45 -38.5s18.667 -33.167 23 -52.5s6.5 -38 6.5 -56v-312c0 -35.333 -5 -65.166 -15 -89.499s-23 -44.166 -39 -59.499s-33.667 -26.5 -53 -33.5s-38 -10.5 -56 -10.5h-144c-16.667 0 -25 9.33301 -25 28
c0 16.667 8.66699 25 26 25h125c38 0 68.833 11 92.5 33s35.5 56.667 35.5 104v85h-161c-24 0 -46 3.5 -66 10.5s-37.167 18 -51.5 33s-25.666 34.167 -33.999 57.5s-12.5 51 -12.5 83v17c0 32 4.16699 60 12.5 84s19.666 44 33.999 60s31.5 27.833 51.5 35.5
s42 11.5 66 11.5h67z" />
    <glyph glyph-name="colon" unicode=":" horiz-adv-x="147" 
d="M72 251c-10.667 0 -19.834 3.83301 -27.501 11.5s-11.5 17.167 -11.5 28.5c0 13.333 3.83301 23.333 11.5 30s16.834 10 27.501 10c10 0 18.833 -3.33301 26.5 -10s11.5 -16.667 11.5 -30c0 -11.333 -3.66699 -20.833 -11 -28.5s-16.333 -11.5 -27 -11.5zM72 -1
c-10.667 0 -19.834 3.83301 -27.501 11.5s-11.5 17.167 -11.5 28.5c0 13.333 3.83301 23.333 11.5 30s16.834 10 27.501 10c10 0 18.833 -3.33301 26.5 -10s11.5 -16.667 11.5 -30c0 -11.333 -3.66699 -20.833 -11 -28.5s-16.333 -11.5 -27 -11.5z" />
    <glyph glyph-name="semicolon" unicode=";" horiz-adv-x="177" 
d="M98 251c-10.667 0 -19.834 3.83301 -27.501 11.5s-11.5 17.167 -11.5 28.5c0 13.333 3.83301 23.333 11.5 30s16.834 10 27.501 10c10 0 18.833 -3.33301 26.5 -10s11.5 -16.667 11.5 -30c0 -11.333 -3.66699 -20.833 -11 -28.5s-16.333 -11.5 -27 -11.5zM75 -92
c-2 -4 -5.16895 -7.83398 -9.50195 -11.501s-9.16602 -5.5 -14.499 -5.5c-8 0 -13.5 2.16699 -16.5 6.5s-4.5 8.83301 -4.5 13.5s0.333008 8 1 10l36 139c1.33301 6.66699 4.83301 11.667 10.5 15s11.834 5 18.501 5c10 0 18.333 -3.33301 25 -10s10 -13.667 10 -21
c0 -3.33301 -0.333008 -5.66602 -1 -6.99902z" />
    <glyph glyph-name="less" unicode="&#x3c;" horiz-adv-x="460" 
d="M6 315c0 8.66699 1.66602 14.501 4.99902 17.501s11 7.16699 23 12.5l386 186c2.66699 2 6 3 10 3c5.33301 0 10.5 -2.5 15.5 -7.5s7.5 -11.833 7.5 -20.5c0 -10.667 -6 -18.667 -18 -24l-342 -164l343 -134c11.333 -4.66699 17 -12.334 17 -23.001
c0 -9.33301 -2.33301 -16.5 -7 -21.5s-10 -7.5 -16 -7.5c-2 0 -5 0.666992 -9 2l-388 151c-11.333 4.66699 -18.666 8.5 -21.999 11.5s-5 9.16699 -5 18.5z" />
    <glyph glyph-name="equal" unicode="=" horiz-adv-x="460" 
d="M55 391c-10 0 -17.002 2.16699 -21.002 6.5s-6 12.166 -6 23.499s1.83301 18.833 5.5 22.5s10.834 5.5 21.501 5.5h349c10.667 0 17.834 -1.83301 21.501 -5.5s5.5 -11.167 5.5 -22.5s-2 -19.166 -6 -23.499s-11 -6.5 -21 -6.5h-349zM54.998 218
c-10.667 0 -17.832 1.83301 -21.499 5.5s-5.5 11.167 -5.5 22.5s2 19.166 6 23.499s11 6.5 21 6.5h349c10 0 17 -2.16699 21 -6.5s6 -12.166 6 -23.499s-1.83301 -18.833 -5.5 -22.5s-10.834 -5.5 -21.501 -5.5h-349z" />
    <glyph glyph-name="greater" unicode="&#x3e;" horiz-adv-x="460" 
d="M453 315c0 -9.33301 -1.66602 -15.501 -4.99902 -18.501s-10.666 -6.83301 -21.999 -11.5l-388 -151c-4 -1.33301 -7 -2 -9 -2c-5.33301 0 -10.5 2.5 -15.5 7.5s-7.5 12.167 -7.5 21.5c0 10.667 5.66699 18.334 17 23.001l343 134l-342 164
c-12.667 6 -18.334 14 -17.001 24c0 8.66699 2.5 15.5 7.5 20.5s9.83301 7.5 14.5 7.5c3.33301 0 6.66602 -1 9.99902 -3l386 -186c12 -5.33301 19.667 -9.5 23 -12.5s5 -8.83301 5 -17.5z" />
    <glyph glyph-name="question" unicode="?" horiz-adv-x="410" 
d="M241 352c-5.33301 -7.33301 -9.50195 -16 -12.502 -26s-4.5 -20 -4.5 -30v-94c0 -6 -1.66699 -11.5 -5 -16.5s-11 -7.5 -23 -7.5c-5.33301 0 -10.833 1.66699 -16.5 5s-8.5 9.66602 -8.5 18.999v114c0 6 1 13.333 3 22s5.66699 16.667 11 24l93 124
c10.667 14.667 16 30.667 16 48c0 21.333 -8 39.833 -24 55.5s-40.667 23.5 -74 23.5c-15.333 0 -29.5 -1.33301 -42.5 -4s-24.333 -5.5 -34 -8.5s-17.5 -6.16699 -23.5 -9.5s-10 -5.33301 -12 -6c-2.66699 -1.33301 -5.33398 -2 -8.00098 -2c-8 0 -14.333 3.16699 -19 9.5
s-7 12.5 -7 18.5c0 9.33301 3.66699 16 11 20l10 6c6.66699 4 15.834 8.16699 27.501 12.5s25.834 8.33301 42.501 12s35 5.5 55 5.5c22 0 42.333 -2.66699 61 -8s34.834 -13.166 48.501 -23.499s24.5 -23.5 32.5 -39.5s12 -35 12 -57c0 -14 -1.83301 -27.833 -5.5 -41.5
s-9.5 -25.5 -17.5 -35.5zM196.998 0c-9.33301 0 -17.168 3.5 -23.501 10.5s-9.5 15.167 -9.5 24.5c0 11.333 3.16699 20 9.5 26s13.833 9 22.5 9s16.5 -2.83301 23.5 -8.5s10.5 -14.5 10.5 -26.5c0 -9.33301 -3.16699 -17.5 -9.5 -24.5s-14.166 -10.5 -23.499 -10.5z" />
    <glyph glyph-name="at" unicode="@" horiz-adv-x="894" 
d="M614 223c0 -17.333 4.67383 -31.168 14.0068 -41.501s24.666 -15.5 45.999 -15.5c20.667 0 38.167 4.83301 52.5 14.5s26 23 35 40s15.667 36.667 20 59s6.5 46.5 6.5 72.5c0 46.667 -8.33301 89.334 -25 128.001s-39.834 71.834 -69.501 99.501
s-64.834 49.167 -105.501 64.5s-85 23 -133 23s-93 -8.5 -135 -25.5s-78.833 -41.833 -110.5 -74.5s-56.5 -72.334 -74.5 -119.001s-27 -99.667 -27 -159c0 -51.333 7.83301 -98 23.5 -140s38.167 -78.167 67.5 -108.5s64.666 -53.833 105.999 -70.5s88 -25 140 -25
c28.667 0 57.667 3 87 9s56.666 16 81.999 30c1.33301 0.666992 3.33301 1 6 1c6.66699 0 12.167 -2.66699 16.5 -8s6.5 -11 6.5 -17c0 -7.33301 -3.66699 -12.666 -11 -15.999c-30.667 -16 -61.834 -27.167 -93.501 -33.5s-65.5 -9.5 -101.5 -9.5
c-56 0 -107.167 9.5 -153.5 28.5s-86 45.667 -119 80s-58.667 75.166 -77 122.499s-27.5 99.333 -27.5 156c0 58.667 9.16699 113.834 27.5 165.501s44.833 96.834 79.5 135.501s76.667 69 126 91s105 33 167 33c52.667 0 101.834 -8.83301 147.501 -26.5
s85.167 -42.334 118.5 -74.001s59.666 -69.667 78.999 -114s29 -93.166 29 -146.499c0 -41.333 -4.33301 -76.5 -13 -105.5s-20.334 -52.667 -35.001 -71s-31.667 -31.833 -51 -40.5s-39.666 -13 -60.999 -13c-13.333 0 -26.5 1.83301 -39.5 5.5s-24.833 9.16699 -35.5 16.5
s-19.167 17 -25.5 29s-9.5 26.333 -9.5 43v93h-206c-17.333 0 -31.833 -5.66699 -43.5 -17s-17.5 -26 -17.5 -44v-4c0 -15.333 4.83301 -30 14.5 -44s25.167 -21 46.5 -21h148c4 0 8.33301 -2 13 -6s7 -10.667 7 -20s-2.33301 -15.833 -7 -19.5s-9 -5.5 -13 -5.5h-157
c-29.333 0 -54 10.167 -74 30.5s-30 48.5 -30 84.5v7c0 13.333 2.33301 26.666 7 39.999s11.667 25.166 21 35.499s21 18.833 35 25.5s30.667 10 50 10h206v11c0 34 -9.16699 58.333 -27.5 73s-41.5 22 -69.5 22h-140c-4 0 -8.33301 1.83301 -13 5.5s-7 10.167 -7 19.5
s2.33301 16 7 20s9 6 13 6h140c49.333 0 86.166 -12.667 110.499 -38s36.5 -61.333 36.5 -108v-149z" />
    <glyph glyph-name="A" unicode="A" horiz-adv-x="532" 
d="M408 156l-284.002 -0.000976562l-47 -143c-4 -11.333 -11 -17 -21 -17c-12.667 0 -21.5 2.83301 -26.5 8.5s-7.5 10.834 -7.5 15.501c0 2 0.166992 3.83301 0.5 5.5s0.833008 3.5 1.5 5.5l198 607c4 12 7.83301 19.833 11.5 23.5s10.167 5.5 19.5 5.5h29
c8.66699 0 14.834 -1.83301 18.501 -5.5s7.5 -11.5 11.5 -23.5l198 -607c1.33301 -5.33301 2 -9 2 -11c0 -4 -2.16699 -8.83301 -6.5 -14.5s-12.166 -8.5 -23.499 -8.5c-5.33301 0 -10.5 1.33301 -15.5 4s-8.5 6.66699 -10.5 12zM142.998 209.999h248l-125 396z" />
    <glyph glyph-name="B" unicode="B" horiz-adv-x="553" 
d="M87 0c-10 0 -17.0029 1.99902 -21.0029 5.99902s-6 11.333 -6 22v611c0 10.667 2 18 6 22s11 6 21 6h245c20.667 0 40.334 -3.66699 59.001 -11s34.834 -18 48.501 -32s24.5 -31.167 32.5 -51.5s12 -43.5 12 -69.5c0 -12 -1.33301 -24.833 -4 -38.5s-7 -27 -13 -40
s-13.833 -25.167 -23.5 -36.5s-21.5 -20.333 -35.5 -27c28.667 -14 51.834 -34.167 69.501 -60.5s26.5 -62.166 26.5 -107.499c0 -32 -4.66699 -60.167 -14 -84.5s-21.833 -44.5 -37.5 -60.5s-33.667 -28 -54 -36s-41.833 -12 -64.5 -12h-247zM112.997 613.999v-226h221
c28 0 51.167 10.667 69.5 32s27.5 49 27.5 83s-9.5 61 -28.5 81s-46.833 30 -83.5 30h-206zM112.997 332.999l0.000976562 -280h221c34.667 0 63.167 11.167 85.5 33.5s33.5 57.833 33.5 106.5c0 14.667 -2.5 30.167 -7.5 46.5s-12.5 31.5 -22.5 45.5
s-22.833 25.5 -38.5 34.5s-33.834 13.5 -54.501 13.5h-217z" />
    <glyph glyph-name="C" unicode="C" horiz-adv-x="478" 
d="M213 0c-24 0 -45.8301 4 -65.4971 12s-36.834 20 -51.501 36s-26 36.167 -34 60.5s-12 52.5 -12 84.5v281c0 32.667 4.66699 61 14 85s21.666 44 36.999 60s32.666 28 51.999 36s39.333 12 60 12h210c16.667 0 25 -9.33301 25 -28c0 -16.667 -8.33301 -25 -25 -25h-199
c-38 0 -67.667 -12.667 -89 -38s-32 -58.333 -32 -99v-288c0 -40.667 9.83301 -73.5 29.5 -98.5s48.5 -37.5 86.5 -37.5h204c16.667 0 25 -8.33301 25 -25c0 -18.667 -8.33301 -28 -25 -28h-210z" />
    <glyph glyph-name="D" unicode="D" horiz-adv-x="566" 
d="M87 0c-10 0 -16.9971 2 -20.9971 6s-6 11.333 -6 22v611c0 10.667 2 18 6 22s11 6 21 6h266c50.667 0 90.5 -14.5 119.5 -43.5s43.5 -76.167 43.5 -141.5v-289c0 -32 -4.33301 -60.167 -13 -84.5s-20.334 -44.5 -35.001 -60.5s-31.834 -28 -51.501 -36
s-40.834 -12 -63.501 -12h-266zM463.003 485c0 40.667 -10 72.5 -30 95.5s-49 34.5 -87 34.5h-233v-562h222c45.333 0 78 12.5 98 37.5s30 57.833 30 98.5v296z" />
    <glyph glyph-name="E" unicode="E" horiz-adv-x="464" 
d="M87 0c-10 0 -17 2 -21 6s-6 11.333 -6 22v611c0 10.667 2 18 6 22s11 6 21 6h336c16.667 0 25 -9.33301 25 -28c0 -16.667 -8.33301 -25 -25 -25h-310v-234h266c16 0 24 -8.66699 24 -26c0 -10 -2 -16.833 -6 -20.5s-10 -5.5 -18 -5.5h-266v-275h310
c16.667 0 25 -8.33301 25 -25c0 -18.667 -8.33301 -28 -25 -28h-336z" />
    <glyph glyph-name="F" unicode="F" horiz-adv-x="460" 
d="M113 614v-234h266c16 0 24 -8.66699 24 -26c0 -10 -2 -16.833 -6 -20.5s-10 -5.5 -18 -5.5h-266v-305c0 -11.333 -1.83301 -18.833 -5.5 -22.5s-10.5 -5.5 -20.5 -5.5s-17 2 -21 6s-6 11.333 -6 22v616c0 10.667 2 18 6 22s11 6 21 6h336c16.667 0 25 -9.33301 25 -28
c0 -16.667 -8.33301 -25 -25 -25h-310z" />
    <glyph glyph-name="G" unicode="G" horiz-adv-x="531" 
d="M433 53l0.00195312 274h-118c-16 0 -24 9.33301 -24 28c0 17.333 8 26 24 26h144c10.667 0 17.834 -1.5 21.501 -4.5s5.5 -10.167 5.5 -21.5v-327c0 -10.667 -1.83301 -18 -5.5 -22s-10.167 -6 -19.5 -6h-248c-24 0 -45.833 4 -65.5 12s-36.834 20 -51.501 36
s-26 36.167 -34 60.5s-12 52.5 -12 84.5v281c0 32.667 4.66699 61 14 85s21.666 44 36.999 60s32.666 28 51.999 36s39.333 12 60 12h230c16.667 0 25 -9.33301 25 -28c0 -16.667 -8.33301 -25 -25 -25h-219c-38 0 -67.667 -12.667 -89 -38s-32 -58.333 -32 -99v-288
c0 -40.667 9.83301 -73.5 29.5 -98.5s48.5 -37.5 86.5 -37.5h214z" />
    <glyph glyph-name="H" unicode="H" horiz-adv-x="546" 
d="M459 -5c-10 0 -16.833 1.83301 -20.5 5.5s-5.5 11.167 -5.5 22.5v307h-320v-307c0 -11.333 -1.83301 -18.833 -5.5 -22.5s-10.5 -5.5 -20.5 -5.5s-17 2 -21 6s-6 11.333 -6 22v620c0 10.667 2 18 6 22s11 6 21 6s16.833 -1.83301 20.5 -5.5s5.5 -11.167 5.5 -22.5v-265
h320v265c0 11.333 1.83301 18.833 5.5 22.5s10.5 5.5 20.5 5.5s17 -2 21 -6s6 -11.333 6 -22v-620c0 -10.667 -2 -18 -6 -22s-11 -6 -21 -6z" />
    <glyph glyph-name="I" unicode="I" horiz-adv-x="233" 
d="M117 -5c-10 0 -17 2 -21 6s-6 11.333 -6 22v620c0 10.667 2 18 6 22s11 6 21 6s16.833 -1.83301 20.5 -5.5s5.5 -11.167 5.5 -22.5v-620c0 -11.333 -1.83301 -18.833 -5.5 -22.5s-10.5 -5.5 -20.5 -5.5z" />
    <glyph glyph-name="J" unicode="J" horiz-adv-x="380" 
d="M17 0c-5.33301 0 -10 2.16699 -14 6.5s-6 11.5 -6 21.5c0 9.33301 2.5 15.5 7.5 18.5s9.16699 4.5 12.5 4.5h88c36 0 64.333 8.66699 85 26s31 46.333 31 87v453h-127c-4.66699 0 -9.16699 1.66699 -13.5 5s-6.5 10 -6.5 20s2.16699 16.833 6.5 20.5
s8.83301 5.5 13.5 5.5h156c16 0 24 -8.66699 24 -26v-478c0 -54 -14.833 -94.833 -44.5 -122.5s-72.167 -41.5 -127.5 -41.5h-85z" />
    <glyph glyph-name="K" unicode="K" horiz-adv-x="497" 
d="M239 390l242.002 -351.999c4 -4 6 -9.33301 6 -16c0 -9.33301 -4 -16 -12 -20s-14 -6 -18 -6c-4.66699 0 -8.83398 1.33301 -12.501 4s-6.83398 5.66699 -9.50098 9l-234 346l-88 -88v-244c0 -11.333 -1.83301 -18.833 -5.5 -22.5s-10.5 -5.5 -20.5 -5.5s-17 2 -21 6
s-6 11.333 -6 22v620c0 10.667 2 18 6 22s11 6 21 6s16.833 -1.83301 20.5 -5.5s5.5 -11.167 5.5 -22.5v-302l324 317c8 8 15.667 12 23 12c5.33301 0 11 -2.5 17 -7.5s9 -11.167 9 -18.5c0 -6.66699 -2.33301 -12.334 -7 -17.001z" />
    <glyph glyph-name="L" unicode="L" horiz-adv-x="464" 
d="M87 0c-10 0 -17 2 -21 6s-6 11.333 -6 22v616c0 10.667 2 18 6 22s11 6 21 6s16.833 -1.83301 20.5 -5.5s5.5 -11.167 5.5 -22.5v-591h309c16.667 0 25 -8.33301 25 -25c0 -18.667 -8.33301 -28 -25 -28h-335z" />
    <glyph glyph-name="M" unicode="M" horiz-adv-x="640" 
d="M553 -5c-10 0 -16.8291 1.83203 -20.4961 5.49902s-5.5 11.167 -5.5 22.5v589l-160 -351c-4 -8 -8.16699 -14.333 -12.5 -19s-10.5 -7 -18.5 -7h-33c-8 0 -14.167 2.33301 -18.5 7s-8.5 11 -12.5 19l-159 351v-589c0 -11.333 -1.83301 -18.833 -5.5 -22.5
s-10.5 -5.5 -20.5 -5.5s-17 2 -21 6s-6 11.333 -6 22v608c0 14.667 2 24.334 6 29.001s11 7 21 7h38c7.33301 0 12.666 -1.16699 15.999 -3.5s6.66602 -6.5 9.99902 -12.5l169 -378l169 378c3.33301 6 6.66602 10.167 9.99902 12.5s8.66602 3.5 15.999 3.5h36
c19.333 0 29 -11 29 -33v-611c0 -10.667 -2 -18 -6 -22s-11 -6 -21 -6z" />
    <glyph glyph-name="N" unicode="N" horiz-adv-x="563" 
d="M446 0c-7.33301 0 -12.5 1.16797 -15.5 3.50098s-6.16699 6.16602 -9.5 11.499c-0.666992 0.666992 -1.66699 2.5 -3 5.5s-5 10.333 -11 22l-28 53l-53 100l-86 162l-127 239.5v-573c0 -11.333 -1.83301 -18.833 -5.5 -22.5s-10.5 -5.5 -20.5 -5.5s-17 2 -21 6
s-6 11.333 -6 22v615c0 10.667 2 18 6 22s11 6 21 6h33c7.33301 0 12.5 -1.16699 15.5 -3.5s6.16699 -6.5 9.5 -12.5l305 -581v573c0 11.333 1.83301 18.833 5.5 22.5s10.5 5.5 20.5 5.5s17 -2 21 -6s6 -11.333 6 -22v-615c0 -10.667 -2 -18 -6 -22s-11 -6 -21 -6h-30z" />
    <glyph glyph-name="O" unicode="O" horiz-adv-x="536" 
d="M311 667c26 0 49.668 -4 71.001 -12s39.666 -20 54.999 -36s27.333 -36.167 36 -60.5s13 -52.5 13 -84.5v-281c0 -32 -4.66699 -60.167 -14 -84.5s-21.833 -44.5 -37.5 -60.5s-34 -28 -55 -36s-43.5 -12 -67.5 -12h-88c-24 -0 -46.5 3.83301 -67.5 11.5
s-39.333 19.167 -55 34.5s-28.167 35 -37.5 59s-14 52 -14 84v285c0 32 4.66699 60.167 14 84.5s22 44.5 38 60.5s34.5 28 55.5 36s43.5 12 67.5 12h86zM433.001 478c0 40.667 -11.167 73.5 -33.5 98.5s-53.5 37.5 -93.5 37.5h-76c-40 0 -71.167 -12.5 -93.5 -37.5
s-33.5 -57.833 -33.5 -98.5v-289c0 -40.667 11.333 -73.5 34 -98.5s53.667 -37.5 93 -37.5h76c39.333 0 70.333 12.5 93 37.5s34 57.833 34 98.5v289z" />
    <glyph glyph-name="P" unicode="P" horiz-adv-x="528" 
d="M113 275v-252c0 -11.333 -2 -18.833 -6 -22.5s-11 -5.5 -21 -5.5s-16.833 2 -20.5 6s-5.5 11.333 -5.5 22v616c0 10.667 2 18 6 22s11 6 21 6h214c60 0 106.167 -17 138.5 -51s48.5 -81.333 48.5 -142c0 -62.667 -15.667 -111.5 -47 -146.5s-76.333 -52.5 -135 -52.5
h-193zM113 614l-0.000976562 -285h200c22.667 0 41.834 4.33301 57.501 13s28.167 20 37.5 34s16 29.5 20 46.5s6 34.167 6 51.5c0 48.667 -11.667 84.167 -35 106.5s-52 33.5 -86 33.5h-200z" />
    <glyph glyph-name="Q" unicode="Q" horiz-adv-x="531" 
d="M311 667c26 0 49.6689 -4.00098 71.002 -12.001s39.666 -20 54.999 -36s27.333 -36.167 36 -60.5s13 -52.5 13 -84.5v-281c0 -26 -3 -49.5 -9 -70.5s-14.667 -39.167 -26 -54.5l60 -63c6.66699 -7.33301 10 -14 10 -20c0 -7.33301 -3.16699 -13.666 -9.5 -18.999
s-12.5 -8 -18.5 -8c-6.66699 0 -13.334 3.66699 -20.001 11l-59 62c-28.667 -20.667 -62.667 -31 -102 -31h-88c-24 -0 -46.5 3.83301 -67.5 11.5s-39.333 19.167 -55 34.5s-28.167 35 -37.5 59s-14 52 -14 84v285c0 32 4.66699 60.167 14 84.5s22 44.5 38 60.5
s34.5 28 55.5 36s43.5 12 67.5 12h86zM433.002 477.999c0 40.667 -11.166 73.499 -33.499 98.499s-53.5 37.5 -93.5 37.5h-76c-40 0 -71.167 -12.5 -93.5 -37.5s-33.5 -57.833 -33.5 -98.5v-289c0 -40.667 11.333 -73.5 34 -98.5s53.667 -37.5 93 -37.5h76
c25.333 0 48.666 6.33301 69.999 19l-66 70c-7.33301 8.66699 -11 16 -11 22c0 5.33301 3.16699 11.333 9.5 18s12.166 10 17.499 10c6.66699 0 14.334 -4.66699 23.001 -14l64 -69c13.333 22.667 20 49.334 20 80.001v289z" />
    <glyph glyph-name="R" unicode="R" horiz-adv-x="527" 
d="M113 275v-252.003c0 -11.333 -2.16699 -18.833 -6.5 -22.5s-11.5 -5.5 -21.5 -5.5s-16.833 2 -20.5 6s-5.5 11.333 -5.5 22v616c0 10.667 2.16699 18 6.5 22s11.5 6 21.5 6h214c60 0 106.167 -17 138.5 -51s48.5 -81.333 48.5 -142
c0 -55.333 -12.5 -100.166 -37.5 -134.499s-60.833 -55.166 -107.5 -62.499l128 -239c3.33301 -5.33301 5 -10.666 5 -15.999c0 -7.33301 -3.33301 -13.5 -10 -18.5s-13.667 -7.5 -21 -7.5c-9.33301 0 -17 5.33301 -23 16l-138 263h-171zM113 613.997l-0.000976562 -285h200
c22.667 0 41.834 4.33301 57.501 13s28.167 20 37.5 34s16 29.5 20 46.5s6 34.167 6 51.5c0 48.667 -11.667 84.167 -35 106.5s-52 33.5 -86 33.5h-200z" />
    <glyph glyph-name="S" unicode="S" horiz-adv-x="520" 
d="M80 0c-3.33301 0 -7.17188 1.83398 -11.5049 5.50098s-6.5 10.5 -6.5 20.5s2.33301 17 7 21s8.33398 6 11.001 6h236c14 0 27.167 2.33301 39.5 7s23.166 11.834 32.499 21.501s16.833 21.5 22.5 35.5s8.5 30.333 8.5 49c0 29.333 -8.33301 52.833 -25 70.5
s-41 33.167 -73 46.5l-141 60c-18.667 8 -36.167 16.333 -52.5 25s-30.666 19 -42.999 31s-22 26.5 -29 43.5s-10.5 38.167 -10.5 63.5c0 22 3.5 42.833 10.5 62.5s17.167 36.667 30.5 51s29.833 25.666 49.5 33.999s42.167 12.5 67.5 12.5h217
c2.66699 0 6.33398 -2.16699 11.001 -6.5s7 -11.5 7 -21.5s-2.16699 -16.667 -6.5 -20s-8.16602 -5 -11.499 -5h-218c-28 0 -52.167 -8.83301 -72.5 -26.5s-30.5 -44.167 -30.5 -79.5c0 -28.667 7 -50.667 21 -66s35 -28.666 63 -39.999l135 -56
c19.333 -8 38.5 -16.667 57.5 -26s35.833 -20.5 50.5 -33.5s26.5 -28.667 35.5 -47s13.5 -40.833 13.5 -67.5c0 -22.667 -3.5 -44.334 -10.5 -65.001s-17.167 -38.834 -30.5 -54.501s-29.666 -28.167 -48.999 -37.5s-41.666 -14 -66.999 -14h-238z" />
    <glyph glyph-name="T" unicode="T" horiz-adv-x="466" 
d="M259 614l0.000976562 -591c0 -10.667 -1.83301 -18 -5.5 -22s-10.834 -6 -21.501 -6c-10 0 -16.833 1.83301 -20.5 5.5s-5.5 11.167 -5.5 22.5v591h-175c-16.667 0 -25 8.33301 -25 25c0 18.667 8.33301 28 25 28h403c16.667 0 25 -9.33301 25 -28
c0 -16.667 -8.33301 -25 -25 -25h-175z" />
    <glyph glyph-name="U" unicode="U" horiz-adv-x="536" 
d="M50 640c0 12.667 3.33203 20.3359 9.99902 23.0029s12.334 4 17.001 4c3.33301 0 8.5 -1.33301 15.5 -4s10.5 -10.334 10.5 -23.001v-451c0 -40.667 11.333 -73.5 34 -98.5s53.667 -37.5 93 -37.5h76c39.333 0 70.333 12.5 93 37.5s34 57.833 34 98.5v451
c0 13.333 3.33301 21.166 10 23.499s12 3.5 16 3.5s9.5 -1.33301 16.5 -4s10.5 -10.334 10.5 -23.001v-447c0 -32 -4.66699 -60.167 -14 -84.5s-21.833 -44.5 -37.5 -60.5s-34 -28 -55 -36s-43.5 -12 -67.5 -12h-88c-24 -0 -46.5 3.83301 -67.5 11.5
s-39.333 19.167 -55 34.5s-28.167 35 -37.5 59s-14 52 -14 84v451z" />
    <glyph glyph-name="V" unicode="V" horiz-adv-x="527" 
d="M493 665c11.333 -2.66699 17.001 -9.33301 17.001 -20c0 -2 -0.666992 -5.66699 -2 -11l-202 -606c-4 -11.333 -7.66699 -18.833 -11 -22.5s-9.33301 -5.5 -18 -5.5h-34c-8.66699 -0 -14.834 1.83301 -18.501 5.5s-7.5 11.167 -11.5 22.5l-202 606
c-1.33301 4 -2 7.66699 -2 11c0 6.66699 3.5 12.167 10.5 16.5s14.5 6.5 22.5 6.5c8.66699 0 14.667 -5.66699 18 -17l201 -603l199 603c3.33301 10.667 10 16 20 16c2 0 4 -0.166992 6 -0.5s4.33301 -0.833008 7 -1.5z" />
    <glyph glyph-name="W" unicode="W" horiz-adv-x="737" 
d="M326 581c2.66699 11.333 6.33594 19.5 11.0029 24.5s11.667 7.5 21 7.5h23c17.333 0 28 -10.667 32 -32l113 -535l149 609c3.33301 10.667 10 16 20 16c11.333 0 19.333 -2.33301 24 -7s7 -9.66699 7 -15c0 -2 -0.166992 -3.83301 -0.5 -5.5s-0.833008 -3.5 -1.5 -5.5
l-153 -610c-4 -11.333 -7.66699 -18.833 -11 -22.5s-9.33301 -5.5 -18 -5.5h-34c-8.66699 -0 -14.834 1.83301 -18.501 5.5s-7.5 11.167 -11.5 22.5l-109 520l-109 -520c-4 -11.333 -7.66699 -18.833 -11 -22.5s-9.33301 -5.5 -18 -5.5h-34
c-8.66699 -0 -14.834 1.83301 -18.501 5.5s-7.5 11.167 -11.5 22.5l-159 610c-1.33301 4 -2 7.66699 -2 11c0 6 3.5 11.333 10.5 16s14.5 7 22.5 7c9.33301 0 15.666 -5.66699 18.999 -17l157 -609z" />
    <glyph glyph-name="X" unicode="X" horiz-adv-x="503" 
d="M67 9c-3.33301 -5.33301 -6.99902 -9.00098 -10.999 -11.001s-8 -3 -12 -3c-6 0 -12.333 2 -19 6s-10 10.667 -10 20c0 4.66699 1.33301 8.66699 4 12l205 313l-190 289c-2 2.66699 -3 6 -3 10c0 8 3.33301 14.667 10 20s13.667 8 21 8c10 0 17.333 -4.33301 22 -13
l171 -273l171 273c5.33301 8.66699 12.666 13 21.999 13c4.66699 0 11 -2 19 -6s12 -10.333 12 -19c0 -2.66699 -1 -6 -3 -10l-190 -292l203 -311c2 -3.33301 3 -7.33301 3 -12c0 -7.33301 -3 -13.666 -9 -18.999s-12.667 -8 -20 -8c-8.66699 0 -15.667 4.33301 -21 13
l-187 296z" />
    <glyph glyph-name="Y" unicode="Y" horiz-adv-x="475" 
d="M240 346l181 310c4.66699 7.33301 11.667 11 21 11c10.667 0 18.334 -3.16699 23.001 -9.5s7 -11.166 7 -14.499s-1.33301 -7 -4 -11l-201 -343v-268c0 -10.667 -2 -17.667 -6 -21s-11 -5 -21 -5c-17.333 0 -26 8.66699 -26 26v268l-206 342c-2 2.66699 -3 6 -3 10
c0 5.33301 2.83301 11.166 8.5 17.499s12.5 9.5 20.5 9.5c7.33301 0 13.666 -4 18.999 -12z" />
    <glyph glyph-name="Z" unicode="Z" horiz-adv-x="461" 
d="M49 0c-10 0 -17.334 2.66797 -22.001 8.00098s-7 10.666 -7 15.999c0 6.66699 1.16699 13 3.5 19s4.83301 11.333 7.5 16l340 555h-321c-16.667 0 -25 8.33301 -25 25c0 18.667 8.33301 28 25 28h366c6.66699 0 12.167 -2.5 16.5 -7.5s6.5 -10.167 6.5 -15.5
c0 -7.33301 -1.16699 -13.833 -3.5 -19.5s-5.16602 -11.5 -8.49902 -17.5l-340 -554h334c14.667 0 22 -8.33301 22 -25c0 -18.667 -7.33301 -28 -22 -28h-372z" />
    <glyph glyph-name="bracketleft" unicode="[" horiz-adv-x="246" 
d="M68 -82c-12 0 -20.167 3.33301 -24.5 10s-6.5 13.667 -6.5 21v742c0 7.33301 2.16699 14.333 6.5 21s12.5 10 24.5 10h152c3.33301 0 7.5 -1.83301 12.5 -5.5s7.5 -10.5 7.5 -20.5s-2.66699 -16.5 -8 -19.5s-9.33301 -4.5 -12 -4.5h-133v-704h133
c2.66699 0 6.66699 -1.5 12 -4.5s8 -9.5 8 -19.5s-2.5 -16.833 -7.5 -20.5s-9.16699 -5.5 -12.5 -5.5h-152z" />
    <glyph glyph-name="backslash" unicode="\" horiz-adv-x="443" 
d="M38 704c4 2 8.33301 3 13 3c8 0 14 -3.33301 18 -10l351 -701c2 -3.33301 3 -6.66602 3 -9.99902c0 -7.33301 -3 -13.333 -9 -18s-12.667 -7 -20 -7s-13.333 4.33301 -18 13l-351 702c-1.33301 4 -2 7 -2 9c0 7.33301 5 13.666 15 18.999z" />
    <glyph glyph-name="bracketright" unicode="]" horiz-adv-x="261" 
d="M58 -72c-3.33301 0 -7.5 1.83301 -12.5 5.5s-7.5 10.5 -7.5 20.5s2.66699 16.5 8 19.5s9.33301 4.5 12 4.5h133v684h-133c-2.66699 0 -6.66699 1.5 -12 4.5s-8 9.5 -8 19.5s2.5 16.833 7.5 20.5s9.16699 5.5 12.5 5.5h152c12 0 20.167 -3.33301 24.5 -10
s6.5 -13.667 6.5 -21v-722c0 -7.33301 -2.16699 -14.333 -6.5 -21s-12.5 -10 -24.5 -10h-152z" />
    <glyph glyph-name="asciicircum" unicode="^" horiz-adv-x="399" 
d="M200 669c5.33301 0 11.666 -3.00098 18.999 -9.00098l148 -131c4.66699 -4.66699 7 -10.667 7 -18s-2.66699 -14.166 -8 -20.499s-12.666 -9.5 -21.999 -9.5c-6 0 -10.667 1.66699 -14 5l-130 114l-130 -112c-5.33301 -4 -11 -6 -17 -6
c-8.66699 0 -15.667 2.83301 -21 8.5s-8 13.167 -8 22.5c0 6.66699 2.33301 12 7 16l150 131c6.66699 6 13 9 19 9z" />
    <glyph glyph-name="underscore" unicode="_" horiz-adv-x="500" 
d="M0 -107c-10.667 0 -18.002 2.16699 -22.002 6.5s-6 11.166 -6 20.499s2 16.166 6 20.499s11.333 6.5 22 6.5h500c10.667 0 17.334 -2.16699 20.001 -6.5s4 -11.166 4 -20.499s-1.16699 -16.166 -3.5 -20.499s-9.16602 -6.5 -20.499 -6.5h-500z" />
    <glyph glyph-name="grave" unicode="`" horiz-adv-x="489" 
d="M178 657c-2.66699 4 -4 8 -4 12c0 8 3.16699 15.667 9.5 23s14.5 11 24.5 11s17 -3.33301 21 -10l75 -133l4 -8c1.33301 -2.66699 2 -5.66699 2 -9s-1.83301 -7 -5.5 -11s-8.5 -6 -14.5 -6c-4 0 -7.83301 1 -11.5 3s-7.16699 4.66699 -10.5 8z" />
    <glyph glyph-name="a" unicode="a" horiz-adv-x="483" 
d="M431 32c0 -10.667 -2.5 -18.667 -7.5 -24s-10.5 -8 -16.5 -8h-249c-16.667 0 -32.167 3 -46.5 9s-26.833 14.667 -37.5 26s-19 25 -25 41s-9 34 -9 54v14c0 15.333 2.66699 30.5 8 45.5s13.333 28.333 24 40s24 21.167 40 28.5s34.667 11 56 11h211v24
c0 41.333 -10.833 70.5 -32.5 87.5s-49.5 25.5 -83.5 25.5h-131c-3.33301 0 -7.5 1.66699 -12.5 5s-7.5 9.66602 -7.5 18.999c0 10 2.5 17.167 7.5 21.5s9.16699 6.5 12.5 6.5h132c54 0 95.333 -14.167 124 -42.5s43 -69.166 43 -122.499v-261zM168 217
c-21.333 0 -39.166 -7.16699 -53.499 -21.5s-21.5 -32.166 -21.5 -53.499v-11c0 -9.33301 1.33301 -18.5 4 -27.5s7 -17.333 13 -25s13.667 -13.834 23 -18.501s20.666 -7 33.999 -7h211v164h-210z" />
    <glyph glyph-name="b" unicode="b" horiz-adv-x="479" 
d="M73 0c-6.66699 0 -12.332 3.49707 -16.999 10.4971s-7 14.167 -7 21.5v644c0 4.66699 2.16699 9.33398 6.5 14.001s11.166 7 20.499 7s16 -2.16699 20 -6.5s6 -9.16602 6 -14.499v-216h162c24 0 46.5 -3.5 67.5 -10.5s39 -17.5 54 -31.5s26.833 -31.5 35.5 -52.5
s13 -45.5 13 -73.5v-127c0 -27.333 -4.66699 -51.166 -14 -71.499s-21.833 -37.5 -37.5 -51.5s-34 -24.5 -55 -31.5s-42.833 -10.5 -65.5 -10.5h-189zM381.002 291.997c0 20.667 -3.33301 38.333 -10 53s-15.5 26.667 -26.5 36s-23.667 16 -38 20s-28.833 6 -43.5 6h-161
v-354h161c14.667 0 29 2 43 6s26.5 10.5 37.5 19.5s20 20.5 27 34.5s10.5 31.333 10.5 52v127z" />
    <glyph glyph-name="c" unicode="c" horiz-adv-x="390" 
d="M217 0c-50 0 -91.167 14.167 -123.5 42.5s-48.5 69.833 -48.5 124.5v122c0 28 4.5 52.667 13.5 74s21.333 39 37 53s33.667 24.667 54 32s42.166 11 65.499 11h130c2.66699 0 6.33398 -2.16699 11.001 -6.5s7 -11.5 7 -21.5s-2.16699 -16.833 -6.5 -20.5
s-8.16602 -5.5 -11.499 -5.5h-129c-15.333 0 -30 -2.5 -44 -7.5s-26.5 -12.333 -37.5 -22s-19.833 -21.834 -26.5 -36.501s-10 -31.334 -10 -50.001v-122c0 -20 3.5 -37.167 10.5 -51.5s16 -26.166 27 -35.499s23.5 -16.166 37.5 -20.499s28.333 -6.5 43 -6.5h134
c3.33301 0 7.16602 -1.66699 11.499 -5s6.5 -10 6.5 -20c0 -9.33301 -2.33301 -16.333 -7 -21s-8.66699 -7 -12 -7h-132z" />
    <glyph glyph-name="d" unicode="d" horiz-adv-x="483" 
d="M217 0c-24.667 0 -47.499 3.50098 -68.499 10.501s-39.167 17.5 -54.5 31.5s-27.333 31.167 -36 51.5s-13 44.166 -13 71.499v127c0 28 4.5 52.5 13.5 73.5s21.167 38.5 36.5 52.5s33.333 24.5 54 31.5s42.667 10.5 66 10.5h162v215c0 4.66699 1.66699 9.5 5 14.5
s10.333 7.5 21 7.5c10 0 17 -2.33301 21 -7s6 -9.66699 6 -15v-643c0 -7.33301 -2.33301 -14.5 -7 -21.5s-10.334 -10.5 -17.001 -10.5h-189zM216.001 406.001c-15.333 0 -30 -1.99902 -44 -5.99902s-26.5 -10.5 -37.5 -19.5s-19.833 -20.833 -26.5 -35.5
s-10 -32.334 -10 -53.001v-127c0 -20.667 3.5 -38 10.5 -52s16 -25.5 27 -34.5s23.5 -15.5 37.5 -19.5s28.333 -6 43 -6h161v353h-161z" />
    <glyph glyph-name="e" unicode="e" horiz-adv-x="460" 
d="M98 198l0.000976562 -30.999c0 -20.667 3.33301 -38.334 10 -53.001s15.5 -26.5 26.5 -35.5s23.333 -15.5 37 -19.5s27.834 -6 42.501 -6h145c5.33301 0 10.166 -1.66699 14.499 -5s6.5 -10 6.5 -20s-2.5 -17.167 -7.5 -21.5s-9.5 -6.5 -13.5 -6.5h-146
c-23.333 0 -45.333 3.66699 -66 11s-38.5 18.166 -53.5 32.499s-26.833 31.833 -35.5 52.5s-13 44.334 -13 71.001v122c0 27.333 4.66699 51.5 14 72.5s22.166 38.833 38.499 53.5s35.5 25.667 57.5 33s45.333 11 70 11h25c22 0 43.167 -3.66699 63.5 -11s38.5 -18 54.5 -32
s28.667 -31.667 38 -53s14 -46 14 -74v-59c0 -6.66699 -2.16699 -13.667 -6.5 -21s-12.5 -11 -24.5 -11h-291zM367.001 289.001c0 21.333 -3.33203 39.3359 -9.99902 54.0029s-15.5 26.667 -26.5 36s-23.667 16.166 -38 20.499s-28.833 6.5 -43.5 6.5h-35
c-14.667 0 -29 -2.16699 -43 -6.5s-26.333 -11.333 -37 -21s-19.334 -21.834 -26.001 -36.501s-10 -32.334 -10 -53.001v-40h269v40z" />
    <glyph glyph-name="f" unicode="f" horiz-adv-x="299" 
d="M237 636c-14.667 0 -28.499 -1.49902 -41.499 -4.49902s-24.167 -8.5 -33.5 -16.5s-16.833 -18.833 -22.5 -32.5s-8.5 -30.834 -8.5 -51.501v-71h142c5.33301 0 10 -1.83301 14 -5.5s6 -10.167 6 -19.5s-2.16699 -16 -6.5 -20s-8.83301 -6 -13.5 -6h-143v-393
c0 -5.33301 -2.16699 -10.166 -6.5 -14.499s-11.166 -6.5 -20.499 -6.5s-16 2.16699 -20 6.5s-6 9.16602 -6 14.499v393h-50c-4 0 -8.33301 1.83301 -13 5.5s-7 10.5 -7 20.5c0 9.33301 2 15.833 6 19.5s8.66699 5.5 14 5.5h50l1 71c0.666992 28 5.16699 52 13.5 72
s19.833 36.333 34.5 49s32.167 22 52.5 28s42.5 9 66.5 9h53c5.33301 0 10.166 -2 14.499 -6s6.5 -11 6.5 -21c0 -9.33301 -2.33301 -16 -7 -20s-9.33398 -6 -14.001 -6h-61z" />
    <glyph glyph-name="g" unicode="g" horiz-adv-x="482" 
d="M430 -41c0 -26.667 -4.33691 -50.168 -13.0039 -70.501s-20.5 -37.5 -35.5 -51.5s-32.667 -24.667 -53 -32s-42.166 -11 -65.499 -11h-147c-3.33301 0 -7.5 2 -12.5 6s-7.5 11 -7.5 21c0 9.33301 2.5 15.833 7.5 19.5s9.16699 5.5 12.5 5.5h146
c14.667 0 28.834 2 42.501 6s25.834 10.5 36.501 19.5s19.334 20.667 26.001 35s10 31.833 10 52.5v41h-162c-23.333 0 -45.333 3.5 -66 10.5s-38.667 17.5 -54 31.5s-27.5 31.5 -36.5 52.5s-13.5 45.5 -13.5 73.5v126c0 26.667 4.5 50.334 13.5 71.001s21.333 38 37 52
s33.834 24.5 54.501 31.5s43 10.5 67 10.5h187c7.33301 0 13.666 -3.5 18.999 -10.5s8 -14.167 8 -21.5zM215.996 407.999c-14.667 0 -29 -2.16895 -43 -6.50195s-26.5 -11 -37.5 -20s-20 -20.667 -27 -35s-10.5 -31.833 -10.5 -52.5v-126
c0 -21.333 3.33301 -39.166 10 -53.499s15.5 -26.166 26.5 -35.499s23.5 -16 37.5 -20s28.667 -6 44 -6h161v355h-161z" />
    <glyph glyph-name="h" unicode="h" horiz-adv-x="489" 
d="M412 -5c-9.33301 0 -16.166 2.16699 -20.499 6.5s-6.5 9.16602 -6.5 14.499v275c0 20.667 -3.33301 38.334 -10 53.001s-15.5 26.667 -26.5 36s-23.667 16 -38 20s-28.833 6 -43.5 6h-161v-390c0 -5.33301 -2 -10.166 -6 -14.499s-10.667 -6.5 -20 -6.5
c-10 0 -17 2.16699 -21 6.5s-6 9.16602 -6 14.499v660c0 5.33301 2.16699 10.166 6.5 14.499s11.166 6.5 20.499 6.5s16 -2.16699 20 -6.5s6 -9.16602 6 -14.499v-217h162c52.667 0 94.167 -13.833 124.5 -41.5s45.5 -69.834 45.5 -126.501v-275
c0 -5.33301 -2 -10.166 -6 -14.499s-10.667 -6.5 -20 -6.5z" />
    <glyph glyph-name="i" unicode="i" horiz-adv-x="280" 
d="M169 -5c-10 0 -17 2.16699 -21 6.5s-6 9.16602 -6 14.499v390h-101c-4 0 -8.33301 1.83301 -13 5.5s-7 10.834 -7 21.501c0 9.33301 2 16 6 20s8.66699 6 14 6h128c10 0 16.833 -2.33301 20.5 -7s5.5 -9.33398 5.5 -14.001v-422c0 -5.33301 -2 -10.166 -6 -14.499
s-10.667 -6.5 -20 -6.5zM156 564c-9.33301 0 -17.333 3.5 -24 10.5s-10 15.167 -10 24.5c0 12 3.66699 20.833 11 26.5s15 8.5 23 8.5c9.33301 0 17.166 -3 23.499 -9s9.5 -14.667 9.5 -26c0 -9.33301 -3.16699 -17.5 -9.5 -24.5s-14.166 -10.5 -23.499 -10.5z" />
    <glyph glyph-name="j" unicode="j" horiz-adv-x="287" 
d="M-24 -206c-5.33301 0 -10 2.16699 -14 6.5s-6 11.5 -6 21.5c0 9.33301 2.5 15.5 7.5 18.5s9.16699 4.5 12.5 4.5h52c33.333 0 61 8.66699 83 26s33 46.333 33 87v450h-121c-4.66699 0 -9.16699 1.66699 -13.5 5s-6.5 10 -6.5 20s2.16699 16.833 6.5 20.5
s8.83301 5.5 13.5 5.5h148c16 0 24 -8.66699 24 -26v-475c0 -54 -13.833 -94.833 -41.5 -122.5s-69.167 -41.5 -124.5 -41.5h-53zM159 564c-9.33301 0 -17.333 3.5 -24 10.5s-10 15.167 -10 24.5c0 12 3.66699 20.833 11 26.5s15 8.5 23 8.5c9.33301 0 17.166 -3 23.499 -9
s9.5 -14.667 9.5 -26c0 -9.33301 -3.16699 -17.5 -9.5 -24.5s-14.166 -10.5 -23.499 -10.5z" />
    <glyph glyph-name="k" unicode="k" horiz-adv-x="419" 
d="M388 4c-6 -4 -12.332 -6 -18.999 -6c-8.66699 0 -15 3.66699 -19 11l-146 273l-104 -76v-190c0 -6 -2 -11 -6 -15s-10.667 -6 -20 -6c-18 0 -27 7 -27 21v660c0 6 2.16699 11 6.5 15s11.166 6 20.499 6c17.333 0 26 -7 26 -21v-409l241 181
c5.33301 4.66699 11.333 7 18 7s12.667 -2.83301 18 -8.5s8 -11.834 8 -18.501s-2.66699 -12 -8 -16l-129 -99l147 -278c2 -3.33301 3 -6.66602 3 -9.99902c0 -8.66699 -3.33301 -15.667 -10 -21z" />
    <glyph glyph-name="l" unicode="l" horiz-adv-x="239" 
d="M202 -5c-46 0 -80.332 11.499 -102.999 34.499s-34 61.167 -34 114.5v533c0 5.33301 2.16699 10.166 6.5 14.499s11.166 6.5 20.499 6.5s16 -2.16699 20 -6.5s6 -9.16602 6 -14.499v-533c0 -30 6 -53.667 18 -71s32.667 -26 62 -26h15
c4.66699 0 9.16699 -1.66699 13.5 -5s6.5 -9.66602 6.5 -18.999c0 -10 -2 -17.167 -6 -21.5s-8.66699 -6.5 -14 -6.5h-11z" />
    <glyph glyph-name="m" unicode="m" horiz-adv-x="668" 
d="M617 16c0 -5.33301 -2.16992 -10.165 -6.50293 -14.498s-11.166 -6.5 -20.499 -6.5s-16 2.16699 -20 6.5s-6 9.16602 -6 14.499v273c0 21.333 -3.33301 39.333 -10 54s-15.5 26.667 -26.5 36s-23.667 16.166 -38 20.499s-28.833 6.5 -43.5 6.5h-91v-390
c0 -5.33301 -2.16699 -10.166 -6.5 -14.499s-11.166 -6.5 -20.499 -6.5s-16 2 -20 6s-6 9 -6 15v390h-196v-390c0 -14 -8.66699 -21 -26 -21c-9.33301 0 -16.166 2.16699 -20.499 6.5s-6.5 9.16602 -6.5 14.499v411c0 6.66699 2.16699 13.667 6.5 21s12.5 11 24.5 11h363
c52.667 0 94.167 -14.167 124.5 -42.5s45.5 -70.833 45.5 -127.5v-273z" />
    <glyph glyph-name="n" unicode="n" horiz-adv-x="489" 
d="M412 -5c-10 0 -17.001 2 -21.001 6s-6 9 -6 15v273c0 21.333 -3.33301 39.333 -10 54s-15.5 26.667 -26.5 36s-23.667 16.166 -38 20.499s-28.833 6.5 -43.5 6.5h-161v-390c0 -5.33301 -2 -10.166 -6 -14.499s-10.667 -6.5 -20 -6.5s-16.166 2.16699 -20.499 6.5
s-6.5 9.16602 -6.5 14.499v411c0 6.66699 2.16699 13.667 6.5 21s12.5 11 24.5 11h184c52.667 0 94.167 -14.167 124.5 -42.5s45.5 -70.833 45.5 -127.5v-273c0 -5.33301 -2 -10.166 -6 -14.499s-10.667 -6.5 -20 -6.5z" />
    <glyph glyph-name="o" unicode="o" horiz-adv-x="472" 
d="M213 0c-22 0 -43.168 3.66699 -63.501 11s-38.333 18 -54 32s-28 31.333 -37 52s-13.5 44.667 -13.5 72v122c0 27.333 4.5 51.5 13.5 72.5s21.333 38.833 37 53.5s34.334 25.667 56.001 33s45.5 11 71.5 11h32c24.667 0 47.5 -3.66699 68.5 -11s39.167 -18 54.5 -32
s27.333 -31.667 36 -53s13 -46 13 -74v-122c0 -27.333 -4.66699 -51.333 -14 -72s-21.833 -38 -37.5 -52s-34 -24.667 -55 -32s-42.833 -11 -65.5 -11h-42zM373.999 289c0 21.333 -3.33301 39.501 -10 54.501s-15.5 27.167 -26.5 36.5s-23.667 16.166 -38 20.499
s-28.833 6.5 -43.5 6.5h-42c-14.667 0 -29 -2.33301 -43 -7s-26.333 -11.667 -37 -21s-19.334 -21.5 -26.001 -36.5s-10 -32.833 -10 -53.5v-122c0 -20.667 3.33301 -38.334 10 -53.001s15.5 -26.5 26.5 -35.5s23.333 -15.667 37 -20s27.834 -6.5 42.501 -6.5h42
c14.667 0 29 2.16699 43 6.5s26.5 11 37.5 20s20 20.833 27 35.5s10.5 32.334 10.5 53.001v122z" />
    <glyph glyph-name="p" unicode="p" horiz-adv-x="474" 
d="M98 0v-201c0 -8 -1.83301 -13.667 -5.5 -17s-10.5 -5 -20.5 -5c-18 0 -27 7 -27 21v629c0 7.33301 2.33301 14.5 7 21.5s10.334 10.5 17.001 10.5h188c53.333 0 95.333 -14 126 -42s46 -69 46 -123v-125c0 -28 -4.5 -52.5 -13.5 -73.5s-21.167 -38.667 -36.5 -53
s-33.333 -25 -54 -32s-42.334 -10.5 -65.001 -10.5h-162zM376 294c0 20.667 -3.33301 38.167 -10 52.5s-15.5 26 -26.5 35s-23.5 15.667 -37.5 20s-28.333 6.5 -43 6.5h-161v-355h161c14.667 0 29 2.16699 43 6.5s26.5 11 37.5 20s19.833 20.833 26.5 35.5s10 32.667 10 54
v125z" />
    <glyph glyph-name="q" unicode="q" horiz-adv-x="470" 
d="M204 0c-23.333 0 -45.1689 3.5 -65.502 10.5s-38.166 17.667 -53.499 32s-27.5 32 -36.5 53s-13.5 45.5 -13.5 73.5v125c0 54 15.333 95 46 123s72.667 42 126 42h188c6.66699 0 12.334 -3.5 17.001 -10.5s7 -14.167 7 -21.5v-629c0 -14 -9 -21 -27 -21
c-10 0 -16.833 1.66699 -20.5 5s-5.5 9 -5.5 17v201h-162zM87.9971 169c0 -21.333 3.33301 -39.333 10 -54s15.5 -26.5 26.5 -35.5s23.5 -15.667 37.5 -20s28.333 -6.5 43 -6.5h161v355h-161c-14.667 0 -29 -2.16699 -43 -6.5s-26.5 -11 -37.5 -20
s-19.833 -20.667 -26.5 -35s-10 -31.833 -10 -52.5v-125z" />
    <glyph glyph-name="r" unicode="r" horiz-adv-x="360" 
d="M113 404l-0.000976562 -387.998c0 -4.66699 -2 -9.33398 -6 -14.001s-10.667 -7 -20 -7s-16.166 2.16699 -20.499 6.5s-6.5 9.16602 -6.5 14.499v411c0 6.66699 2.16699 13.667 6.5 21s12.5 11 24.5 11h127c20.667 0 39.5 -3.16699 56.5 -9.5s31.5 -14.333 43.5 -24
s21.333 -20 28 -31s10 -21.167 10 -30.5c0 -6.66699 -3.16699 -13.167 -9.5 -19.5s-13.833 -9.5 -22.5 -9.5c-7.33301 0 -14 5.33301 -20 16c-7.33301 15.333 -18.833 28 -34.5 38s-35.5 15 -59.5 15h-97z" />
    <glyph glyph-name="s" unicode="s" horiz-adv-x="460" 
d="M70 0c-3.33301 0 -7.17188 1.83203 -11.5049 5.49902s-6.5 10.5 -6.5 20.5s2.33301 17 7 21s8.33398 6 11.001 6h217c21.333 0 39.166 5.83301 53.499 17.5s21.5 28.167 21.5 49.5c0 18 -6 32.333 -18 43s-30.667 19.667 -56 27l-125 37
c-17.333 4.66699 -33.166 10 -47.499 16s-26.666 13.167 -36.999 21.5s-18.5 18.833 -24.5 31.5s-9 28.334 -9 47.001c0 32 10.5 59.333 31.5 82s53.167 34 96.5 34h197c2.66699 0 6.33398 -2.16699 11.001 -6.5s7 -11.5 7 -21.5s-2.16699 -16.833 -6.5 -20.5
s-8.16602 -5.5 -11.499 -5.5l-197 1c-21.333 0 -39.166 -5 -53.499 -15s-21.5 -25.667 -21.5 -47c0 -18 6.16699 -31.5 18.5 -40.5s30.833 -17.167 55.5 -24.5l125 -35c34.667 -9.33301 63 -22.833 85 -40.5s33 -45.167 33 -82.5c0 -16 -2.66699 -31.333 -8 -46
s-13.333 -27.5 -24 -38.5s-24 -19.833 -40 -26.5s-34.667 -10 -56 -10h-217z" />
    <glyph glyph-name="t" unicode="t" horiz-adv-x="333" 
d="M260 0c-52 0 -91.6641 12.167 -118.997 36.5s-41 64.833 -41 121.5v251h-60c-4.66699 0 -9.16699 1.66699 -13.5 5s-6.5 10 -6.5 20s2.33301 16.833 7 20.5s9 5.5 13 5.5h60v155c0 5.33301 1.83301 10 5.5 14s10.167 6 19.5 6s16.166 -2 20.499 -6s6.5 -8.66699 6.5 -14
v-155h118c4 0 8.33301 -2 13 -6s7 -10.667 7 -20c0 -10 -2.16699 -16.667 -6.5 -20s-8.83301 -5 -13.5 -5h-117v-248c0 -20.667 2.5 -37.834 7.5 -51.501s12.167 -24.667 21.5 -33s20.166 -14.333 32.499 -18s26.166 -5.5 41.499 -5.5h52c5.33301 0 10 -2.16699 14 -6.5
s6 -11.166 6 -20.499s-2 -16 -6 -20s-8.66699 -6 -14 -6h-48z" />
    <glyph glyph-name="u" unicode="u" horiz-adv-x="488" 
d="M222 0c-52.667 0 -94.332 14.168 -124.999 42.501s-46 70.833 -46 127.5v274c0 5.33301 2 10.166 6 14.499s10.667 6.5 20 6.5c10 0 17.167 -2.33301 21.5 -7s6.5 -9.33398 6.5 -14.001v-274c0 -21.333 3.33301 -39.333 10 -54s15.5 -26.667 26.5 -36
s23.5 -16.166 37.5 -20.499s28.667 -6.5 44 -6.5h159v388c0 5.33301 2 10.166 6 14.499s10.667 6.5 20 6.5s16.166 -2.16699 20.499 -6.5s6.5 -9.16602 6.5 -14.499v-409c0 -6.66699 -2.16699 -13.667 -6.5 -21s-12.5 -11 -24.5 -11h-182z" />
    <glyph glyph-name="v" unicode="v" horiz-adv-x="415" 
d="M211 42l135 404c4 13.333 12.667 20 26 20c8 0 14.667 -2.5 20 -7.5s8 -10.833 8 -17.5c0 -2 -0.666992 -5 -2 -9l-137 -403c-6 -19.333 -17 -29 -33 -29h-40c-14.667 0 -25.667 9.66699 -33 29l-137 403c-1.33301 5.33301 -2 8.66602 -2 9.99902
c0 6.66699 2.5 12.334 7.5 17.001s11.833 7 20.5 7c5.33301 -0.666992 10.5 -2.66699 15.5 -6s8.5 -8 10.5 -14l137 -404h4z" />
    <glyph glyph-name="w" unicode="w" horiz-adv-x="619" 
d="M442 43l108 402c4 13.333 12.667 20 26 20c8 0 14.667 -2.5 20 -7.5s8 -10.833 8 -17.5c0 -2 -0.666992 -5 -2 -9l-110 -402c-7.33301 -19.333 -18.333 -29 -33 -29h-37c-7.33301 0 -13.833 2.5 -19.5 7.5s-10.167 12.167 -13.5 21.5l-75 231l-73 -231
c-3.33301 -9.33301 -7.83301 -16.5 -13.5 -21.5s-12.167 -7.5 -19.5 -7.5h-34c-14.667 0 -25.667 9.66699 -33 29l-123 402c-1.33301 5.33301 -2 8.66602 -2 9.99902c0 6.66699 2.5 12.334 7.5 17.001s11.833 7 20.5 7c12 0 20.667 -6.66699 26 -20l123 -402h4l94 298
l-25 90c-2 4 -3 8 -3 12c0 6 2.16699 11.167 6.5 15.5s10.833 6.5 19.5 6.5c12 0 20.667 -6.66699 26 -20l123 -402h4z" />
    <glyph glyph-name="x" unicode="x" horiz-adv-x="401" 
d="M31 422c-4.66699 6 -6.99902 11.665 -6.99902 16.998c0 6 3.33301 11.833 10 17.5s13.334 8.5 20.001 8.5s12.667 -3.33301 18 -10l130 -177l131 176c4.66699 6 10.667 9 18 9c8 0 14.833 -3 20.5 -9s8.5 -11.667 8.5 -17c0 -6 -2 -11 -6 -15l-138 -187l151 -201
c3.33301 -3.33301 5 -7.33301 5 -12c0 -4 -2.83301 -9.5 -8.5 -16.5s-13.167 -10.5 -22.5 -10.5c-7.33301 0 -13.333 3 -18 9l-141 189l-139 -186c-2.66699 -3.33301 -5.83398 -6.16602 -9.50098 -8.49902s-7.83398 -3.5 -12.501 -3.5c-8.66699 0 -15.5 3.33301 -20.5 10
s-7.5 12.334 -7.5 17.001s2 9.66699 6 15l149 198z" />
    <glyph glyph-name="y" unicode="y" horiz-adv-x="490" 
d="M433 -41c0 -53.333 -15.667 -94.167 -47 -122.5s-71.333 -42.5 -120 -42.5h-147c-4.66699 0 -9.16699 2.16699 -13.5 6.5s-6.5 11.5 -6.5 21.5c0 9.33301 2.16699 15.666 6.5 18.999s9.16602 5 14.499 5h145c14.667 0 28.834 2 42.501 6s25.834 10.5 36.501 19.5
s19.334 20.667 26.001 35s10 31.833 10 52.5v41h-162c-23.333 0 -45.333 3.5 -66 10.5s-38.667 17.667 -54 32s-27.5 32 -36.5 53s-13.5 45.5 -13.5 73.5v275c0 6 2 11 6 15s10.667 6 20 6s16.166 -2.16699 20.499 -6.5s6.5 -9.16602 6.5 -14.499v-275
c0 -21.333 3.33301 -39.333 10 -54s15.5 -26.5 26.5 -35.5s23.5 -15.667 37.5 -20s28.667 -6.5 44 -6.5h162v391c0 5.33301 2 10.166 6 14.499s10.667 6.5 20 6.5s16.166 -2.16699 20.499 -6.5s6.5 -9.16602 6.5 -14.499v-120.5v-91.5c0 -26.667 -0.166992 -50.667 -0.5 -72
s-0.5 -42.333 -0.5 -63v-64v-74z" />
    <glyph glyph-name="z" unicode="z" horiz-adv-x="395" 
d="M46 0c-8.66699 0 -15.666 2.83301 -20.999 8.5s-8 12.834 -8 21.501c0 4 1 8.16699 3 12.5s4 7.83301 6 10.5l278 353h-263c-3.33301 0 -7.5 1.66699 -12.5 5s-7.5 10 -7.5 20s2.33301 17.167 7 21.5s9 6.5 13 6.5h303c9.33301 0 17.166 -2.83301 23.499 -8.5
s9.5 -12.834 9.5 -21.501c0 -4 -1 -8.16699 -3 -12.5l-5 -10.5l-277 -353h265c13.333 0 20 -8.33301 20 -25c0 -8 -1.66699 -14.667 -5 -20s-8.33301 -8 -15 -8h-311z" />
    <glyph glyph-name="braceleft" unicode="{" horiz-adv-x="296" 
d="M155 437c0 -23.333 -6.16602 -45.8369 -18.499 -67.5039s-30.833 -39.5 -55.5 -53.5c26.667 -12 45.667 -30.333 57 -55s17 -49.334 17 -74.001l1 -125c0.666992 -31.333 8.83398 -56.166 24.501 -74.499s38.5 -27.5 68.5 -27.5h22
c2.66699 0 6.33398 -1.16699 11.001 -3.5s7 -9.16602 7 -20.499s-2.33301 -18.333 -7 -21s-8.33398 -4 -11.001 -4h-16c-46 0 -83 13.833 -111 41.5s-42 66.834 -42 117.501v106c0 25.333 -4.83301 47 -14.5 65s-26.167 31.667 -49.5 41
c-7.33301 3.33301 -12.5 6.33301 -15.5 9s-4.5 10.334 -4.5 23.001c0 14 1.66699 22.5 5 25.5s7.66602 5.83301 12.999 8.5c24 10 41 23.667 51 41s15 39.333 15 66v95c0 50.667 14 89.667 42 117s65 41 111 41h16c2.66699 0 6.33398 -1.33301 11.001 -4
s7 -9.33398 7 -20.001c0 -11.333 -2.33301 -18.166 -7 -20.499s-8.33398 -3.5 -11.001 -3.5h-22c-30 0 -52.833 -9.16699 -68.5 -27.5s-23.834 -43.166 -24.501 -74.499l-1 -121v0z" />
    <glyph glyph-name="bar" unicode="|" horiz-adv-x="443" 
d="M217 -112c-10 0 -17 2 -21 6s-6 11.333 -6 22v831c0 10.667 2 18 6 22s11 6 21 6s16.833 -1.83301 20.5 -5.5s5.5 -11.167 5.5 -22.5v-831c0 -11.333 -1.83301 -18.833 -5.5 -22.5s-10.5 -5.5 -20.5 -5.5z" />
    <glyph glyph-name="braceright" unicode="}" horiz-adv-x="296" 
d="M140 558c0 31.333 -7.99902 56.1699 -23.999 74.5029s-39 27.5 -69 27.5h-22c-2.66699 0 -6.33398 1.16699 -11.001 3.5s-7 9.16602 -7 20.499c0 10.667 2.33301 17.334 7 20.001s8.33398 4 11.001 4h16c46 0 83 -13.667 111 -41s42 -66.333 42 -117v-95
c0 -26.667 5 -48.667 15 -66s27 -31 51 -41c5.33301 -2.66699 9.66602 -5.5 12.999 -8.5s5 -11.5 5 -25.5c0 -12.667 -1.5 -20.334 -4.5 -23.001s-8.16699 -5.66699 -15.5 -9c-23.333 -9.33301 -39.833 -23 -49.5 -41s-14.5 -39.667 -14.5 -65v-106
c0 -50.667 -14 -89.834 -42 -117.501s-65 -41.5 -111 -41.5h-16c-2.66699 0 -6.33398 1.33301 -11.001 4s-7 9.66699 -7 21s2.33301 18.166 7 20.499s8.33398 3.5 11.001 3.5h22c30 0 53 9.16699 69 27.5s24 43.166 24 74.499l1 125c0.666992 24.667 6.5 49.334 17.5 74.001
s29.833 43 56.5 55c-24.667 14 -43.167 31.833 -55.5 53.5s-18.5 44.167 -18.5 67.5z" />
    <glyph glyph-name="asciitilde" unicode="~" horiz-adv-x="460" 
d="M437 302c-14 -20 -29.6641 -33.6689 -46.9971 -41.002s-36.666 -11 -57.999 -11c-19.333 0 -38.833 2.83301 -58.5 8.5s-38.5 12.834 -56.5 21.501l-43 22c-14.667 7.33301 -28.667 11 -42 11c-14.667 0 -27.834 -2.5 -39.501 -7.5s-23.834 -14.833 -36.501 -29.5l-5 -5
c-2 -2 -4.66699 -3 -8 -3c-4 0 -9 2.5 -15 7.5s-9 10.833 -9 17.5c0 4 0.666992 7.33301 2 10s2.66602 4.66699 3.99902 6c17.333 23.333 35.333 37.833 54 43.5s36 8.5 52 8.5c18 0 35.333 -3.33301 52 -10s33.167 -13.834 49.5 -21.501s32.5 -14.834 48.5 -21.501
s32.333 -10 49 -10c15.333 0 27.5 2.33301 36.5 7s18.167 12.334 27.5 23.001l8 8c3.33301 3.33301 7.66602 5 12.999 5c8 0 14.5 -3.33301 19.5 -10s7.5 -11.667 7.5 -15s-0.5 -6.16602 -1.5 -8.49902s-2.16699 -4.16602 -3.5 -5.49902z" />
    <glyph glyph-name="exclamdown" unicode="&#xa1;" horiz-adv-x="187" 
d="M94 294c18 0 27 -10.333 27 -31v-427c0 -21.333 -9 -32 -27 -32c-17.333 0 -26 10.667 -26 32v427c0 11.333 2 19.333 6 24s10.667 7 20 7zM93 471c9.33301 0 17.333 -3.49902 24 -10.499s10 -15.167 10 -24.5c0 -11.333 -3.16699 -19.833 -9.5 -25.5
s-13.833 -8.83398 -22.5 -9.50098c-8.66699 0 -16.5 2.83301 -23.5 8.5s-10.5 14.5 -10.5 26.5c0 9.33301 3.16699 17.5 9.5 24.5s13.833 10.5 22.5 10.5z" />
    <glyph glyph-name="cent" unicode="&#xa2;" horiz-adv-x="460" 
d="M225 552c0 9.33301 1.83203 15.668 5.49902 19.001s9.16699 5 16.5 5c8 0 14 -1.66699 18 -5s6 -9.66602 6 -18.999v-93h97c2.66699 0 6.33398 -2.16699 11.001 -6.5s7 -11.5 7 -21.5s-2.16699 -16.833 -6.5 -20.5s-8.16602 -5.5 -11.499 -5.5h-97v-352h102
c3.33301 0 7.16602 -1.66699 11.499 -5s6.5 -10 6.5 -20c0 -9.33301 -2.33301 -16.333 -7 -21s-8.66699 -7 -12 -7h-101v-99c0 -16 -8 -24 -24 -24c-8.66699 0 -14.5 2.16699 -17.5 6.5s-4.5 10.166 -4.5 17.499v99c-46 3.33301 -83.667 19 -113 47s-44 68 -44 120v122
c0 26.667 4.16699 50.167 12.5 70.5s19.5 37.666 33.5 51.999s30.5 25.333 49.5 33s39.5 12.167 61.5 13.5v94zM120.999 167.002c0 -18.667 2.83203 -34.8311 8.49902 -48.498s13.334 -25.167 23.001 -34.5s20.834 -16.5 33.501 -21.5s25.667 -8.16699 39 -9.5v351
c-14 -1.33301 -27.167 -4.83301 -39.5 -10.5s-23.333 -13.334 -33 -23.001s-17.334 -21.334 -23.001 -35.001s-8.5 -29.167 -8.5 -46.5v-122z" />
    <glyph glyph-name="sterling" unicode="&#xa3;" horiz-adv-x="460" 
d="M246 615c-42 0 -72.501 -12.833 -91.501 -38.5s-28.833 -58.834 -29.5 -99.501v-139h206c4 0 8.33301 -1.83301 13 -5.5s7 -10.5 7 -20.5s-2.16699 -16.833 -6.5 -20.5s-9.16602 -5.5 -14.499 -5.5h-205v-233h299c4.66699 0 9.16699 -1.66699 13.5 -5s6.5 -10 6.5 -20
s-2.33301 -17.167 -7 -21.5s-9 -6.5 -13 -6.5h-322c-12 0 -20 3.5 -24 10.5s-6 14.167 -6 21.5v254h-37c-4.66699 0 -9.16699 1.66699 -13.5 5s-6.5 10 -6.5 20s2.16699 17 6.5 21s8.83301 6 13.5 6h37v136c0 32.667 4.16699 61 12.5 85s19.833 44 34.5 60s32 28 52 36
s41.333 12 64 12h168c16.667 0 25 -9.33301 25 -28c0 -9.33301 -2 -15.666 -6 -18.999s-10.333 -5 -19 -5h-157z" />
    <glyph glyph-name="currency" unicode="&#xa4;" horiz-adv-x="460" 
d="M227 74c-19.333 0 -37.1689 2.66895 -53.502 8.00195s-32.166 13 -47.499 23l-50 -51c-7.33301 -6.66699 -13.666 -10 -18.999 -10c-6 0 -12.5 3.5 -19.5 10.5s-10.5 13.5 -10.5 19.5s3.33301 12.333 10 19l50 50c-23.333 30.667 -35 66.667 -35 108
c0 38.667 11 72.667 33 102l-54 54c-8.66699 8.66699 -13 15.667 -13 21c0 2 1.16699 4.5 3.5 7.5s5 6 8 9s6.16699 5.66699 9.5 8s6.33301 3.5 9 3.5c6.66699 0 13.334 -3.66699 20.001 -11l54 -54c14.667 11.333 30.834 20 48.501 26s36.5 9 56.5 9c20.667 0 40 -3 58 -9
s34.333 -14.667 49 -26l48 48c7.33301 7.33301 13.666 11 18.999 11c2.66699 0 5.66699 -1 9 -3s6.66602 -4.5 9.99902 -7.5s6.16602 -6.33301 8.49902 -10s3.5 -6.83398 3.5 -9.50098c0 -6 -3.66699 -12.667 -11 -20l-48 -49c9.33301 -14 16.833 -29.667 22.5 -47
s8.5 -35 8.5 -53c0 -20 -3.16699 -39.167 -9.5 -57.5s-15.166 -34.833 -26.499 -49.5l58 -58c8 -8 12 -14.667 12 -20s-3.33301 -11.5 -10 -18.5s-12.667 -10.5 -18 -10.5c-6 0 -13 4 -21 12l-58 58c-15.333 -10.667 -31.5 -18.834 -48.5 -24.501s-35.5 -8.5 -55.5 -8.5z
M227.997 125.002c17.333 0 33.5 3.16699 48.5 9.5s28.167 15.166 39.5 26.499s20.333 24.5 27 39.5s10 31.167 10 48.5c0 18 -3.33301 34.667 -10 50s-15.667 28.666 -27 39.999s-24.5 20.333 -39.5 27s-31.167 10 -48.5 10s-33.666 -3.33301 -48.999 -10
s-28.666 -15.667 -39.999 -27s-20.333 -24.666 -27 -39.999s-10 -31.666 -10 -48.999s3.33301 -33.5 10 -48.5s15.667 -28.167 27 -39.5s24.666 -20.333 39.999 -27s31.666 -10 48.999 -10z" />
    <glyph glyph-name="yen" unicode="&#xa5;" horiz-adv-x="460" 
d="M66 315c-8.66699 0 -15.833 1 -21.5 3s-8.5 9.33301 -8.5 22c0 15.333 10 23 30 23h99l-146 268c-2 2.66699 -3 6 -3 10c0 5.33301 2.83301 11.166 8.5 17.499s12.5 9.5 20.5 9.5c7.33301 0 13.666 -4 18.999 -12l167 -316l161 316c4.66699 7.33301 11.667 11 21 11
c10.667 0 18.334 -3.16699 23.001 -9.5s7 -11.166 7 -14.499s-1.33301 -7 -4 -11l-142 -269h115c10.667 0 17.834 -1.66699 21.501 -5s5.5 -9.33301 5.5 -18c0 -10.667 -2.33301 -17.5 -7 -20.5s-11.334 -4.5 -20.001 -4.5h-346zM412.001 254
c8.66699 0 15.334 -1.83301 20.001 -5.5s7 -10.167 7 -19.5s-2.33301 -15.5 -7 -18.5s-11.334 -4.5 -20.001 -4.5h-154v-180c0 -10.667 -2 -17.667 -6 -21s-11 -5 -21 -5c-17.333 0 -26 8.66699 -26 26v180h-139c-10.667 0 -18.334 1 -23.001 3s-7 8.66699 -7 20
c0 10 2.83301 16.667 8.5 20s12.834 5 21.501 5h346z" />
    <glyph glyph-name="brokenbar" unicode="&#xa6;" horiz-adv-x="443" 
d="M217 -112c-10 0 -17 2 -21 6s-6 11.333 -6 22v361c0 10.667 2 18 6 22s11 6 21 6s16.833 -1.83301 20.5 -5.5s5.5 -11.167 5.5 -22.5v-361c0 -11.333 -1.83301 -18.833 -5.5 -22.5s-10.5 -5.5 -20.5 -5.5zM217 358c-10 0 -17 2 -21 6s-6 11.333 -6 22v361
c0 10.667 2 18 6 22s11 6 21 6s16.833 -1.83301 20.5 -5.5s5.5 -11.167 5.5 -22.5v-361c0 -11.333 -1.83301 -18.833 -5.5 -22.5s-10.5 -5.5 -20.5 -5.5z" />
    <glyph glyph-name="section" unicode="&#xa7;" horiz-adv-x="454" 
d="M327 341c0 18.667 -6.50195 33.6689 -19.502 45.002s-32.167 22.666 -57.5 33.999l-65 30l-46.5 22c-15 7.33301 -28 15.833 -39 25.5s-19.833 20.667 -26.5 33s-10 27.5 -10 45.5c0 16.667 2.66699 32.5 8 47.5s13.5 28.167 24.5 39.5s24.833 20.5 41.5 27.5
s36 10.5 58 10.5h175c2.66699 0 6.33398 -2 11.001 -6s7 -11 7 -21c0 -10.667 -2.16699 -17.834 -6.5 -21.501s-8.16602 -5.5 -11.499 -5.5h-175c-21.333 0 -39.5 -6.16699 -54.5 -18.5s-22.5 -29.5 -22.5 -51.5c0 -15.333 6.66699 -28.5 20 -39.5s32 -22.167 56 -33.5
l66 -30c16.667 -7.33301 32.334 -14.833 47.001 -22.5s27.5 -16.167 38.5 -25.5s19.667 -20.166 26 -32.499s9.5 -27.166 9.5 -44.499v-140c0 -2.66699 -2 -6.33398 -6 -11.001s-11 -7 -21 -7c-10.667 0 -17.834 2.16699 -21.501 6.5s-5.5 8.16602 -5.5 11.499v132z
M135.998 261.002c0 -18.667 6.50098 -32.999 19.501 -42.999s32.167 -19.667 57.5 -29l69 -26c16.667 -6.66699 32.5 -13.334 47.5 -20.001s28 -14.667 39 -24s19.667 -20.5 26 -33.5s9.5 -29.167 9.5 -48.5c0 -16.667 -2.66699 -32.5 -8 -47.5s-13.5 -28.333 -24.5 -40
s-24.833 -20.834 -41.5 -27.501s-36 -10 -58 -10h-186c-2.66699 0 -6.33398 2.16699 -11.001 6.5s-7 11.5 -7 21.5c0 10.667 2.16699 17.667 6.5 21s8.16602 5 11.499 5h186c21.333 0 39.5 6.16699 54.5 18.5s22.5 29.5 22.5 51.5c0 17.333 -6.33301 31.5 -19 42.5
s-31.667 21.167 -57 30.5l-69 26c-17.333 6.66699 -33.333 13.167 -48 19.5s-27.5 14.166 -38.5 23.499s-19.667 20.5 -26 33.5s-9.5 29.167 -9.5 48.5v143c0 2.66699 2 6.33398 6 11.001s11 7 21 7c10.667 0 17.834 -2.16699 21.501 -6.5s5.5 -8.16602 5.5 -11.499v-142z
" />
    <glyph glyph-name="dieresis" unicode="&#xa8;" horiz-adv-x="483" 
d="M330 547c-9.33301 0 -17 3.33398 -23 10.001s-9 14.667 -9 24c0 11.333 3 19.666 9 24.999s13 8.33301 21 9c9.33301 0 17.333 -2.66699 24 -8s10 -14 10 -26c0 -10 -3.16699 -18.167 -9.5 -24.5s-13.833 -9.5 -22.5 -9.5zM157 547.001
c-8.66699 0 -16.332 3.33398 -22.999 10.001s-10 14.667 -10 24c0 11.333 3.16699 19.666 9.5 24.999s13.5 8.33301 21.5 9c9.33301 0 17.166 -2.66699 23.499 -8s9.5 -14 9.5 -26c0 -10 -2.83301 -18.167 -8.5 -24.5s-13.167 -9.5 -22.5 -9.5z" />
    <glyph glyph-name="copyright" unicode="&#xa9;" horiz-adv-x="764" 
d="M397 617c-43.333 0 -82.835 -7.83203 -118.502 -23.499s-66.5 -36.667 -92.5 -63s-46.167 -56.833 -60.5 -91.5s-21.5 -71.334 -21.5 -110.001c0 -39.333 6.83301 -76.166 20.5 -110.499s33 -64.5 58 -90.5s55 -46.5 90 -61.5s74.167 -22.5 117.5 -22.5
c34 0 67.833 7.33301 101.5 22s63.834 35 90.501 61s48.167 56.833 64.5 92.5s24.5 74.5 24.5 116.5c0 40 -7.66699 77 -23 111s-35.666 63.667 -60.999 89s-54.5 45.166 -87.5 59.499s-67.167 21.5 -102.5 21.5zM353.998 114.001c-36 0 -62.998 11.166 -80.998 33.499
s-27 49.833 -27 82.5v193c0 15.333 2.5 30 7.5 44s12 26.333 21 37s20.167 19.167 33.5 25.5s28.666 9.5 45.999 9.5h130c6.66699 0 12 -1.83301 16 -5.5s6 -10.167 6 -19.5s-2.33301 -15.833 -7 -19.5s-9.66699 -5.5 -15 -5.5h-122c-12 0 -22.333 -2.16699 -31 -6.5
s-15.5 -9.66602 -20.5 -15.999s-8.66699 -13.5 -11 -21.5s-3.5 -15.333 -3.5 -22v-193c0 -20.667 5.66699 -36.834 17 -48.501s27.666 -17.5 48.999 -17.5h128c6 0 11 -1.66699 15 -5s6 -9.66602 6 -18.999s-2.16699 -16 -6.5 -20s-9.5 -6 -15.5 -6h-135zM398 660
c40.667 0 79.999 -8.16797 117.999 -24.501s71.5 -39 100.5 -68s52.333 -63.167 70 -102.5s26.5 -82 26.5 -128c0 -48 -9.5 -92.5 -28.5 -133.5s-43.667 -76.5 -74 -106.5s-64.833 -53.5 -103.5 -70.5s-77.667 -25.5 -117 -25.5c-49.333 0 -94.166 8.66699 -134.499 26
s-75 40.833 -104 70.5s-51.333 64.334 -67 104.001s-23.5 82.167 -23.5 127.5c0 44 8.33301 86 25 126s39.834 75.167 69.501 105.5s65.167 54.5 106.5 72.5s86.666 27 135.999 27z" />
    <glyph glyph-name="ordfeminine" unicode="&#xaa;" horiz-adv-x="333" 
d="M117 407c-13.333 0 -24.167 -4 -32.5 -12s-12.5 -18.333 -12.5 -31v-7c0 -9.33301 3.33301 -19 10 -29s18 -15 34 -15h137v94h-136zM300.999 295c0 -9.33301 -2.33398 -16.167 -7.00098 -20.5s-9.66699 -6.5 -15 -6.5h-169c-24 0 -44.333 7.66699 -61 23s-25 37 -25 65
v10c0 10.667 2 21.167 6 31.5s9.83301 19.5 17.5 27.5s17.334 14.5 29.001 19.5s25.167 7.5 40.5 7.5h137v9c0 24.667 -6.83301 42 -20.5 52s-31.167 15 -52.5 15h-89c-3.33301 0 -7.5 1.5 -12.5 4.5s-7.5 8.83301 -7.5 17.5s2.5 14.667 7.5 18s9.16699 5 12.5 5h90
c38 0 67.333 -9.66699 88 -29s31 -47 31 -83v-166z" />
    <glyph glyph-name="guillemotleft" unicode="&#xab;" horiz-adv-x="411" 
d="M56 214c-4.66699 4.66699 -7.00098 10.667 -7.00098 18c0 8 2.33301 14.333 7 19l117 132c2.66699 2.66699 6.33398 4 11.001 4c6.66699 0 13.5 -2.5 20.5 -7.5s10.5 -11.167 10.5 -18.5c0 -3.33301 -1.66699 -7.33301 -5 -12l-103 -116l102 -116
c3.33301 -3.33301 5 -8 5 -14c0 -9.33301 -3.5 -16 -10.5 -20s-12.833 -6 -17.5 -6c-5.33301 0 -9.33301 1.33301 -12 4zM188.999 214c-4.66699 4.66699 -7.00098 10.667 -7.00098 18c0 8 2.33301 14.333 7 19l117 132c2.66699 2.66699 6.33398 4 11.001 4
c6.66699 0 13.5 -2.5 20.5 -7.5s10.5 -11.167 10.5 -18.5c0 -3.33301 -1.66699 -7.33301 -5 -12l-103 -116l102 -116c3.33301 -3.33301 5 -8 5 -14c0 -9.33301 -3.5 -16 -10.5 -20s-12.833 -6 -17.5 -6c-5.33301 0 -9.33301 1.33301 -12 4z" />
    <glyph glyph-name="logicalnot" unicode="&#xac;" horiz-adv-x="460" 
d="M431 150c0 -10.667 -2.00098 -18.001 -6.00098 -22.001s-11 -6 -21 -6s-16.833 1.83301 -20.5 5.5s-5.5 11.167 -5.5 22.5v156h-323c-9.33301 0 -16.166 1.83301 -20.499 5.5s-6.5 10.834 -6.5 21.501s2.33301 18 7 22s11.667 6 21 6h348c10 0 17 -2 21 -6
s6 -11.333 6 -22v-183z" />
    <glyph glyph-name="sfthyphen" unicode="&#xad;" horiz-adv-x="311" 
d="M61 206c-10 0 -18.667 2.16797 -26 6.50098s-11 12.5 -11 24.5c0 11.333 3.5 19.166 10.5 23.499s15.833 6.5 26.5 6.5h190c10 0 18.5 -2 25.5 -6s10.5 -12 10.5 -24s-3.5 -20.167 -10.5 -24.5s-15.5 -6.5 -25.5 -6.5h-190z" />
    <glyph glyph-name="registered" unicode="&#xae;" horiz-adv-x="600" 
d="M302 640c-27.333 0 -53.667 -5.33301 -79 -16s-47.833 -25.834 -67.5 -45.501s-35.334 -43.167 -47.001 -70.5s-17.5 -57.666 -17.5 -90.999c0 -26.667 5 -53 15 -79s24.667 -49.167 44 -69.5s42.833 -36.833 70.5 -49.5s59.5 -19 95.5 -19
c24.667 0 49.334 5.33301 74.001 16s46.667 26 66 46s35 44 47 72s18 59.333 18 94c0 24.667 -5.16699 49.5 -15.5 74.5s-25 47.667 -44 68s-42 37 -69 50s-57.167 19.5 -90.5 19.5zM408.999 278c1.33301 -4 2 -6.33301 2 -7c0 -5.33301 -2.33301 -10 -7 -14
s-9.66699 -6 -15 -6c-6 0 -11 3 -15 9l-57 126h-74v-116c0 -12 -6.33301 -18 -19 -18s-19 6 -19 18v298c0 13.333 6.33301 20 19 20h104c34 0 59.833 -8.66699 77.5 -26s26.5 -42 26.5 -74c0 -30 -6.83301 -53 -20.5 -69s-31.167 -26 -52.5 -30zM242.999 550
l-0.000976562 -127h96c14.667 0 27.167 5.5 37.5 16.5s15.5 27.167 15.5 48.5s-5.66699 37 -17 47s-23.666 15 -36.999 15h-95zM300.998 677c38.667 0 73.835 -7.49902 105.502 -22.499s58.834 -34.5 81.501 -58.5s40 -50.667 52 -80s18 -58.333 18 -87
c0 -40.667 -7 -77.334 -21 -110.001s-32.333 -60.5 -55 -83.5s-48.334 -40.833 -77.001 -53.5s-57.667 -19 -87 -19c-42 0 -79.333 7.33301 -112 22s-60.334 33.834 -83.001 57.501s-39.834 50.667 -51.501 81s-17.5 61.166 -17.5 92.499c0 39.333 6.83301 75 20.5 107
s32 59.5 55 82.5s49.333 40.667 79 53s60.5 18.5 92.5 18.5z" />
    <glyph glyph-name="macron" unicode="&#xaf;" horiz-adv-x="483" 
d="M141 536c-8.66699 0 -16 1.83301 -22 5.5s-9 10.834 -9 21.501c0 9.33301 2.83301 15.833 8.5 19.5s13.167 5.5 22.5 5.5h191c8.66699 0 16 -1.66699 22 -5s9 -10 9 -20c0 -10.667 -3 -17.834 -9 -21.501s-13.333 -5.5 -22 -5.5h-191z" />
    <glyph glyph-name="degree" unicode="&#xb0;" horiz-adv-x="299" 
d="M67 585c0 -22.667 8 -41.834 24 -57.501s35.333 -23.5 58 -23.5c22 0 41 7.83301 57 23.5s24 34.834 24 57.501s-8 41.834 -24 57.501s-35 23.5 -57 23.5c-22.667 0 -42 -7.83301 -58 -23.5s-24 -34.834 -24 -57.501zM28 585c0 16.667 3.16699 32.334 9.5 47.001
s14.833 27.5 25.5 38.5s23.334 19.667 38.001 26s30.667 9.5 48 9.5c16.667 0 32.334 -3.16699 47.001 -9.5s27.5 -15 38.5 -26s19.667 -23.833 26 -38.5s9.5 -30.334 9.5 -47.001s-3.16699 -32.334 -9.5 -47.001s-15 -27.5 -26 -38.5s-23.833 -19.667 -38.5 -26
s-30.334 -9.5 -47.001 -9.5c-17.333 0 -33.333 3.16699 -48 9.5s-27.334 15 -38.001 26s-19.167 23.833 -25.5 38.5s-9.5 30.334 -9.5 47.001z" />
    <glyph glyph-name="plusminus" unicode="&#xb1;" horiz-adv-x="460" 
d="M256 306l0.00195312 -156c0 -10.667 -2 -18 -6 -22s-11 -6 -21 -6s-16.833 1.83301 -20.5 5.5s-5.5 11.167 -5.5 22.5v156h-148c-10.667 0 -17.834 1.83301 -21.501 5.5s-5.5 10.834 -5.5 21.501s2 18 6 22s11 6 21 6h148v156c0 11.333 1.66699 18.833 5 22.5
s10.333 5.5 21 5.5c10 0 17 -2 21 -6s6 -11.333 6 -22v-156h148c10 0 17 -2 21 -6s6 -11.333 6 -22s-1.83301 -17.834 -5.5 -21.501s-10.834 -5.5 -21.501 -5.5h-148zM400.002 55c10 0 17.668 -2 23.001 -6s8 -11.333 8 -22s-2.5 -17.834 -7.5 -21.501
s-12.833 -5.5 -23.5 -5.5h-342c-10.667 0 -18.334 1.83301 -23.001 5.5s-7 10.834 -7 21.501s2.5 18 7.5 22s12.5 6 22.5 6h342z" />
    <glyph glyph-name="twosuperior" unicode="&#xb2;" horiz-adv-x="310" 
d="M65 711c-14.667 0 -22.001 7.66406 -22.001 22.9971s7.33301 23 22 23h120c34.667 0 61.334 -8.83301 80.001 -26.5s28 -40.5 28 -68.5c0 -15.333 -2.5 -28.666 -7.5 -39.999s-11.667 -21.5 -20 -30.5s-17.833 -16.833 -28.5 -23.5s-22 -13 -34 -19l-77 -37
c-19.333 -9.33301 -33.333 -19.833 -42 -31.5s-13 -25.5 -13 -41.5v-36h199c13.333 0 20 -7 20 -21c0 -16 -6.66699 -24 -20 -24h-221c-9.33301 0 -16 2 -20 6s-6 9 -6 15v58c0 26.667 5.83301 48.334 17.5 65.001s32.5 32.334 62.5 47.001l92 44
c16 7.33301 28.167 17 36.5 29s12.5 24.667 12.5 38c0 18 -5.83301 31 -17.5 39s-25.167 12 -40.5 12h-121v0z" />
    <glyph glyph-name="threesuperior" unicode="&#xb3;" horiz-adv-x="310" 
d="M179 758c12.667 0 25.501 -1.33301 38.501 -4s24.833 -7.83398 35.5 -15.501s19.334 -18 26.001 -31s10 -29.5 10 -49.5c0 -17.333 -4.33301 -32.833 -13 -46.5s-19 -24.167 -31 -31.5c16 -8.66699 27.833 -21.167 35.5 -37.5s11.5 -35.5 11.5 -57.5v-6
c0 -40 -11.333 -70.167 -34 -90.5s-50.334 -30.5 -83.001 -30.5h-115c-3.33301 0 -7.33301 1.83301 -12 5.5s-7 9.83398 -7 18.501c0 8 2.16699 13.333 6.5 16s8.5 4 12.5 4h111c23.333 0 41.5 7 54.5 21s19.5 31.667 19.5 53v12c0 44.667 -24 67 -72 67h-67
c-4.66699 0 -9.33398 1.66699 -14.001 5s-7 9 -7 17c0 8.66699 2.33301 14.5 7 17.5s9 4.5 13 4.5h64c18 0 34.5 4.5 49.5 13.5s22.5 24.167 22.5 45.5c0 20.667 -6.33301 35 -19 43s-29.667 12 -51 12h-102c-5.33301 0 -10 1.5 -14 4.5s-6 8.83301 -6 17.5s2 14.667 6 18
s8.66699 5 14 5h110z" />
    <glyph glyph-name="acute" unicode="&#xb4;" horiz-adv-x="489" 
d="M223 537c-3.33301 -3.33301 -6.66699 -6 -10 -8s-7.33301 -3 -12 -3c-6 0 -10.833 2 -14.5 6s-5.5 7.66699 -5.5 11s0.666992 6.33301 2 9l4 8l75 133c4 6.66699 11 10 21 10s18.167 -3.66699 24.5 -11s9.5 -15 9.5 -23c0 -5.33301 -1.33301 -9.33301 -4 -12z" />
    <glyph glyph-name="mu" unicode="&#xb5;" horiz-adv-x="483" 
d="M210 0c-10 0 -19.833 0.166992 -29.5 0.5s-18.834 2 -27.501 5s-17.167 7.5 -25.5 13.5s-16.5 14.667 -24.5 26v-232c0 -6 -1.83301 -11 -5.5 -15s-10.5 -6 -20.5 -6c-9.33301 0 -16.166 2 -20.499 6s-6.5 9 -6.5 15v629c0 3.33301 1.83301 7.5 5.5 12.5
s10.167 7.5 19.5 7.5c10 0 17.167 -2 21.5 -6s6.5 -8.66699 6.5 -14v-274c0 -40.667 10.333 -70 31 -88s46.334 -27 77.001 -27h169v385c0 5.33301 2 10.166 6 14.499s10.667 6.5 20 6.5s16.166 -2.16699 20.499 -6.5s6.5 -9.16602 6.5 -14.499v-406
c0 -6 -2.16699 -12.833 -6.5 -20.5s-12.5 -11.5 -24.5 -11.5h-192z" />
    <glyph glyph-name="mu" unicode="&#x3bc;" horiz-adv-x="483" 
d="M210 0c-10 0 -19.833 0.166992 -29.5 0.5s-18.834 2 -27.501 5s-17.167 7.5 -25.5 13.5s-16.5 14.667 -24.5 26v-232c0 -6 -1.83301 -11 -5.5 -15s-10.5 -6 -20.5 -6c-9.33301 0 -16.166 2 -20.499 6s-6.5 9 -6.5 15v629c0 3.33301 1.83301 7.5 5.5 12.5
s10.167 7.5 19.5 7.5c10 0 17.167 -2 21.5 -6s6.5 -8.66699 6.5 -14v-274c0 -40.667 10.333 -70 31 -88s46.334 -27 77.001 -27h169v385c0 5.33301 2 10.166 6 14.499s10.667 6.5 20 6.5s16.166 -2.16699 20.499 -6.5s6.5 -9.16602 6.5 -14.499v-406
c0 -6 -2.16699 -12.833 -6.5 -20.5s-12.5 -11.5 -24.5 -11.5h-192z" />
    <glyph glyph-name="paragraph" unicode="&#xb6;" horiz-adv-x="475" 
d="M272 621v-620.001c0 -10.667 -1.83301 -18 -5.5 -22s-10.5 -6 -20.5 -6s-17 1.83301 -21 5.5s-6 11.167 -6 22.5v380h-42c-14.667 0 -29.5 3.16699 -44.5 9.5s-28.5 15.5 -40.5 27.5s-21.667 26.833 -29 44.5s-11 37.834 -11 60.501c0 22 3.66699 41.833 11 59.5
s17 32.667 29 45s25.667 22 41 29s31 10.5 47 10.5h195c10 0 17 -2 21 -6s6 -11.333 6 -22v-638c0 -10.667 -1.83301 -18 -5.5 -22s-10.5 -6 -20.5 -6s-17 1.83301 -21 5.5s-6 11.167 -6 22.5v620h-77z" />
    <glyph glyph-name="periodcentered" unicode="&#xb7;" horiz-adv-x="147" 
d="M73 199c-11.333 0 -21 4.16699 -29 12.5s-12 18.166 -12 29.499c0 14 4 24.5 12 31.5s17.667 10.5 29 10.5c10.667 0 20 -3.5 28 -10.5s12 -17.5 12 -31.5c0 -11.333 -3.83301 -21.166 -11.5 -29.499s-17.167 -12.5 -28.5 -12.5z" />
    <glyph glyph-name="cedilla" unicode="&#xb8;" horiz-adv-x="474" 
d="M284 -165c16.667 0 28.8301 3.83301 36.4971 11.5s11.5 16.5 11.5 26.5c0 6.66699 -2.5 14.5 -7.5 23.5s-15.167 13.5 -30.5 13.5h-37c-15.333 0 -23 5.66699 -23 17c0 2.66699 0.333008 5.33398 1 8.00098s1.66699 5.66699 3 9l27 72h34l-26 -71h26
c22.667 0 40.5 -6.16699 53.5 -18.5s19.5 -29.5 19.5 -51.5c0 -8.66699 -1.66699 -17.5 -5 -26.5s-8.66602 -17.167 -15.999 -24.5s-16.666 -13.333 -27.999 -18s-24.666 -7 -39.999 -7c-4 0 -10.167 0.5 -18.5 1.5s-17 2.66699 -26 5s-16.833 5.66602 -23.5 9.99902
s-10 9.83301 -10 16.5c0 7.33301 2.5 12.5 7.5 15.5s8.83301 4.5 11.5 4.5c3.33301 0 5.33301 -0.333008 6 -1c12.667 -7.33301 23.167 -11.833 31.5 -13.5s15.833 -2.5 22.5 -2.5z" />
    <glyph glyph-name="onesuperior" unicode="&#xb9;" horiz-adv-x="277" 
d="M166 355c-9.33301 0 -15.334 2.16797 -18.001 6.50098s-4 8.5 -4 12.5v323l-55 -39c-4 -2 -8.33301 -3 -13 -3c-5.33301 0 -10.5 2 -15.5 6s-7.5 9.66699 -7.5 17s2.66699 12.666 8 15.999l82 57c4.66699 3.33301 8.83398 5.33301 12.501 6s7.16699 1 10.5 1
c16.667 0 25 -8.33301 25 -25v-359c0 -4 -1.83301 -8.16699 -5.5 -12.5s-10.167 -6.5 -19.5 -6.5z" />
    <glyph glyph-name="ordmasculine" unicode="&#xba;" horiz-adv-x="326" 
d="M246 459c0 25.333 -7.66699 43.333 -23 54s-32.333 16 -51 16h-24c-18.667 0 -35.5 -5.5 -50.5 -16.5s-22.5 -28.833 -22.5 -53.5v-78c0 -24.667 7.66699 -42.167 23 -52.5s32 -15.5 50 -15.5h24c18 0 34.833 5.16699 50.5 15.5s23.5 27.833 23.5 52.5v78zM147 268
c-16 0 -31.166 2.33203 -45.499 6.99902s-27 11.834 -38 21.501s-19.833 21.5 -26.5 35.5s-10 30.333 -10 49v78c0 36.667 12 64.834 36 84.501s54.333 29.5 91 29.5h17c35.333 0 64.666 -9.5 87.999 -28.5s35 -47.5 35 -85.5v-78c0 -18.667 -3.33301 -35 -10 -49
s-15.667 -25.833 -27 -35.5s-24.5 -16.834 -39.5 -21.501s-30.5 -7 -46.5 -7h-24z" />
    <glyph glyph-name="guillemotright" unicode="&#xbb;" horiz-adv-x="411" 
d="M222 81c-2.66699 -2.66699 -6.66797 -4.00195 -12.001 -4.00195c-4 0 -9.66699 2 -17 6s-11 10.667 -11 20c0 4.66699 1.66699 9.33398 5 14.001l102 116l-103 116c-2.66699 3.33301 -4 7.33301 -4 12c0 7.33301 3.33301 13.5 10 18.5s13.334 7.5 20.001 7.5
c5.33301 0 9 -1.33301 11 -4l117 -132c5.33301 -5.33301 8 -11.666 8 -18.999c0 -6.66699 -2.66699 -12.667 -8 -18zM88.999 80.998c-2.66699 -2.66699 -6.66797 -4.00195 -12.001 -4.00195c-4 0 -9.66699 2 -17 6s-11 10.667 -11 20c0 4.66699 1.66699 9.33398 5 14.001
l102 116l-103 116c-2.66699 3.33301 -4 7.33301 -4 12c0 7.33301 3.33301 13.5 10 18.5s13.334 7.5 20.001 7.5c5.33301 0 9 -1.33301 11 -4l117 -132c5.33301 -5.33301 8 -11.666 8 -18.999c0 -6.66699 -2.66699 -12.667 -8 -18z" />
    <glyph glyph-name="onequarter" unicode="&#xbc;" horiz-adv-x="745" 
d="M196 265c-9.33301 0 -15.334 2.16797 -18.001 6.50098s-4 8.5 -4 12.5v323l-55 -39c-4 -2 -8.33301 -3 -13 -3c-5.33301 0 -10.5 2 -15.5 6s-7.5 9.66699 -7.5 17s2.66699 12.666 8 15.999l82 57c4.66699 3.33301 8.83398 5.33301 12.501 6s7.16699 1 10.5 1
c16.667 0 25 -8.33301 25 -25v-359c0 -4 -1.83301 -8.16699 -5.5 -12.5s-10.167 -6.5 -19.5 -6.5zM542.999 704.001c10 -5.33301 15 -11.666 15 -18.999c0 -2 -0.666992 -5 -2 -9l-351 -702c-4.66699 -8.66699 -10.667 -13 -18 -13s-14 2.33301 -20 7s-9 10.667 -9 18
c0 3.33301 1 6.66602 3 9.99902l351 701c4 6.66699 10.333 10 19 10c4 0 8 -1 12 -3zM608.999 77.001l-0.00195312 -62.001c0 -12.667 -8 -19 -24 -19c-9.33301 0 -15.5 2 -18.5 6s-4.5 8.66699 -4.5 14v61h-143c-7.33301 0 -13.833 1.33301 -19.5 4s-8.5 8.66699 -8.5 18
c0 4 0.666992 7.66699 2 11l4 10l122 266c4.66699 10 12 15 22 15c3.33301 0 8.33301 -1.5 15 -4.5s10 -8.5 10 -16.5c0 -1.33301 -0.666992 -4 -2 -8l-115 -248h113v74c0 5.33301 1.5 10 4.5 14s9.16699 6 18.5 6c8.66699 0 14.834 -2 18.501 -6s5.5 -8.66699 5.5 -14v-74
h56c14 0 21 -7.66699 21 -23c0 -7.33301 -1.66699 -13.166 -5 -17.499s-8.66602 -6.5 -15.999 -6.5h-56z" />
    <glyph glyph-name="onehalf" unicode="&#xbd;" horiz-adv-x="745" 
d="M185 265c-9.33301 0 -15.334 2.16797 -18.001 6.50098s-4 8.5 -4 12.5v323l-55 -39c-4 -2 -8.33301 -3 -13 -3c-5.33301 0 -10.5 2 -15.5 6s-7.5 9.66699 -7.5 17s2.66699 12.666 8 15.999l82 57c4.66699 3.33301 8.83398 5.33301 12.501 6s7.16699 1 10.5 1
c16.667 0 25 -8.33301 25 -25v-359c0 -4 -1.83301 -8.16699 -5.5 -12.5s-10.167 -6.5 -19.5 -6.5zM492.999 704.001c10 -5.33301 15 -11.666 15 -18.999c0 -2 -0.666992 -5 -2 -9l-351 -702c-4.66699 -8.66699 -10.667 -13 -18 -13s-14 2.33301 -20 7s-9 10.667 -9 18
c0 3.33301 1 6.66602 3 9.99902l351 701c4 6.66699 10.333 10 19 10c4 0 8 -1 12 -3zM421.999 353.001c-14.667 0 -22.001 7.66406 -22.001 22.9971s7.33301 23 22 23h120c34.667 0 61.334 -8.83301 80.001 -26.5s28 -40.5 28 -68.5c0 -15.333 -2.5 -28.666 -7.5 -39.999
s-11.667 -21.5 -20 -30.5s-17.833 -16.833 -28.5 -23.5s-22 -13 -34 -19l-77 -37c-19.333 -9.33301 -33.333 -19.833 -42 -31.5s-13 -25.5 -13 -41.5v-36h199c13.333 0 20 -7 20 -21c0 -16 -6.66699 -24 -20 -24h-221c-9.33301 0 -16 2 -20 6s-6 9 -6 15v58
c0 26.667 5.83301 48.334 17.5 65.001s32.5 32.334 62.5 47.001l92 44c16 7.33301 28.167 17 36.5 29s12.5 24.667 12.5 38c0 18 -5.83301 31 -17.5 39s-25.167 12 -40.5 12h-121z" />
    <glyph glyph-name="threequarters" unicode="&#xbe;" horiz-adv-x="745" 
d="M633 77l-0.00195312 -62.001c0 -12.667 -8 -19 -24 -19c-9.33301 0 -15.5 2 -18.5 6s-4.5 8.66699 -4.5 14v61h-143c-7.33301 0 -13.833 1.33301 -19.5 4s-8.5 8.66699 -8.5 18c0 4 0.666992 7.66699 2 11l4 10l122 266c4.66699 10 12 15 22 15
c3.33301 0 8.33301 -1.5 15 -4.5s10 -8.5 10 -16.5c0 -1.33301 -0.666992 -4 -2 -8l-115 -248h113v74c0 5.33301 1.5 10 4.5 14s9.16699 6 18.5 6c8.66699 0 14.834 -2 18.501 -6s5.5 -8.66699 5.5 -14v-74h56c14 0 21 -7.66699 21 -23
c0 -7.33301 -1.66699 -13.166 -5 -17.499s-8.66602 -6.5 -15.999 -6.5h-56zM165.998 667.999c12.667 0 25.501 -1.33301 38.501 -4s24.833 -7.83398 35.5 -15.501s19.334 -18 26.001 -31s10 -29.5 10 -49.5c0 -17.333 -4.33301 -32.833 -13 -46.5s-19 -24.167 -31 -31.5
c16 -8.66699 27.833 -21.167 35.5 -37.5s11.5 -35.5 11.5 -57.5v-6c0 -40 -11.333 -70.167 -34 -90.5s-50.334 -30.5 -83.001 -30.5h-115c-3.33301 0 -7.33301 1.83301 -12 5.5s-7 9.83398 -7 18.501c0 8 2.16699 13.333 6.5 16s8.5 4 12.5 4h111c23.333 0 41.5 7 54.5 21
s19.5 31.667 19.5 53v12c0 44.667 -24 67 -72 67h-67c-4.66699 0 -9.33398 1.66699 -14.001 5s-7 9 -7 17c0 8.66699 2.33301 14.5 7 17.5s9 4.5 13 4.5h64c18 0 34.5 4.5 49.5 13.5s22.5 24.167 22.5 45.5c0 20.667 -6.33301 35 -19 43s-29.667 12 -51 12h-102
c-5.33301 0 -10 1.5 -14 4.5s-6 8.83301 -6 17.5s2 14.667 6 18s8.66699 5 14 5h110zM563.999 703.999c10 -5.33301 15 -11.666 15 -18.999c0 -2 -0.666992 -5 -2 -9l-351 -702c-4.66699 -8.66699 -10.667 -13 -18 -13s-14 2.33301 -20 7s-9 10.667 -9 18
c0 3.33301 1 6.66602 3 9.99902l351 701c4 6.66699 10.333 10 19 10c4 0 8 -1 12 -3z" />
    <glyph glyph-name="questiondown" unicode="&#xbf;" horiz-adv-x="410" 
d="M161 120c5.33301 7.33301 9.50195 16 12.502 26s4.5 20 4.5 30v94c0 6 1.66699 11.5 5 16.5s11 7.5 23 7.5c5.33301 0 10.833 -1.66699 16.5 -5s8.5 -9.66602 8.5 -18.999v-114c0 -6 -1 -13.333 -3 -22s-5.66699 -16.667 -11 -24l-93 -124
c-10.667 -14.667 -16 -30.667 -16 -48c0 -21.333 8 -39.833 24 -55.5s40.667 -23.5 74 -23.5c15.333 0 29.5 1.33301 42.5 4s24.333 5.5 34 8.5s17.5 6 23.5 9s10 5.16699 12 6.5c4 1.33301 6.66699 2 8 2c8 0 14.333 -3.16699 19 -9.5s7 -12.5 7 -18.5
c0 -9.33301 -3.66699 -16 -11 -20l-10 -6c-6.66699 -4 -15.834 -8.16699 -27.501 -12.5s-25.834 -8.33301 -42.501 -12s-35 -5.5 -55 -5.5c-21.333 0 -41.333 2.66699 -60 8s-35 13.166 -49 23.499s-25 23.5 -33 39.5s-12 35 -12 57c0 14 2 27.833 6 41.5
s9.66699 25.5 17 35.5zM205.002 472c9.33301 0 17.168 -3.5 23.501 -10.5s9.5 -15.167 9.5 -24.5c0 -11.333 -3.16699 -20 -9.5 -26s-13.833 -9 -22.5 -9s-16.5 2.83301 -23.5 8.5s-10.5 14.5 -10.5 26.5c0 9.33301 3.16699 17.5 9.5 24.5s14.166 10.5 23.499 10.5z" />
    <glyph glyph-name="Agrave" unicode="&#xc0;" horiz-adv-x="532" 
d="M408 156l-284.002 -0.000976562l-47 -143c-4 -11.333 -11 -17 -21 -17c-12.667 0 -21.5 2.83301 -26.5 8.5s-7.5 10.834 -7.5 15.501c0 2 0.166992 3.83301 0.5 5.5s0.833008 3.5 1.5 5.5l198 607c4 12 7.83301 19.833 11.5 23.5s10.167 5.5 19.5 5.5h29
c8.66699 0 14.834 -1.83301 18.501 -5.5s7.5 -11.5 11.5 -23.5l198 -607c1.33301 -5.33301 2 -9 2 -11c0 -4 -2.16699 -8.83301 -6.5 -14.5s-12.166 -8.5 -23.499 -8.5c-5.33301 0 -10.5 1.33301 -15.5 4s-8.5 6.66699 -10.5 12zM142.998 209.999h248l-125 396z
M160.998 755.999c-3.33301 1.33301 -6.50098 4.5 -9.50098 9.5s-4.5 10.5 -4.5 16.5c0 9.33301 3.33301 17.166 10 23.499s13.667 9.5 21 9.5c2 0 5 -0.666992 9 -2l118 -69c4 -2 7.66699 -4.5 11 -7.5s5 -6.83301 5 -11.5c0 -7.33301 -2.66699 -12.666 -8 -15.999
s-10.333 -5 -15 -5c-3.33301 0 -7.66602 0.666992 -12.999 2z" />
    <glyph glyph-name="Aacute" unicode="&#xc1;" horiz-adv-x="532" 
d="M408 156l-284.002 -0.000976562l-47 -143c-4 -11.333 -11 -17 -21 -17c-12.667 0 -21.5 2.83301 -26.5 8.5s-7.5 10.834 -7.5 15.501c0 2 0.166992 3.83301 0.5 5.5s0.833008 3.5 1.5 5.5l198 607c4 12 7.83301 19.833 11.5 23.5s10.167 5.5 19.5 5.5h29
c8.66699 0 14.834 -1.83301 18.501 -5.5s7.5 -11.5 11.5 -23.5l198 -607c1.33301 -5.33301 2 -9 2 -11c0 -4 -2.16699 -8.83301 -6.5 -14.5s-12.166 -8.5 -23.499 -8.5c-5.33301 0 -10.5 1.33301 -15.5 4s-8.5 6.66699 -10.5 12zM142.998 209.999h248l-125 396z
M250.998 705.999c-5.33301 -1.33301 -9.66699 -2 -13 -2c-4.66699 0 -9.66699 1.66699 -15 5s-8 8.66602 -8 15.999c0 4.66699 1.66699 8.5 5 11.5s7 5.5 11 7.5l118 69c4 1.33301 7 2 9 2c8 0 15.167 -3.16699 21.5 -9.5s9.5 -14.166 9.5 -23.499
c0 -6 -1.5 -11.5 -4.5 -16.5s-6.16699 -8.16699 -9.5 -9.5z" />
    <glyph glyph-name="Acircumflex" unicode="&#xc2;" horiz-adv-x="532" 
d="M408 156l-284.002 -0.000976562l-47 -143c-4 -11.333 -11 -17 -21 -17c-12.667 0 -21.5 2.83301 -26.5 8.5s-7.5 10.834 -7.5 15.501c0 2 0.166992 3.83301 0.5 5.5s0.833008 3.5 1.5 5.5l198 607c4 12 7.83301 19.833 11.5 23.5s10.167 5.5 19.5 5.5h29
c8.66699 0 14.834 -1.83301 18.501 -5.5s7.5 -11.5 11.5 -23.5l198 -607c1.33301 -5.33301 2 -9 2 -11c0 -4 -2.16699 -8.83301 -6.5 -14.5s-12.166 -8.5 -23.499 -8.5c-5.33301 0 -10.5 1.33301 -15.5 4s-8.5 6.66699 -10.5 12zM142.998 209.999h248l-125 396z
M263.998 788.999l-116.999 -89c-3.33301 -2.66699 -7.33301 -4 -12 -4c-6.66699 0 -12.5 2.83301 -17.5 8.5s-7.5 11.5 -7.5 17.5s2.33301 11 7 15l121 99l9 5.5c2.66699 1.66699 5.66699 2.5 9 2.5h17c5.33301 0 10.666 -2.33301 15.999 -7l121 -99c5.33301 -4 8 -9 8 -15
s-2.5 -11.833 -7.5 -17.5s-11.167 -8.5 -18.5 -8.5c-4.66699 0 -8.66699 1.33301 -12 4z" />
    <glyph glyph-name="Atilde" unicode="&#xc3;" horiz-adv-x="532" 
d="M408 156l-284.002 -0.000976562l-47 -143c-4 -11.333 -11 -17 -21 -17c-12.667 0 -21.5 2.83301 -26.5 8.5s-7.5 10.834 -7.5 15.501c0 2 0.166992 3.83301 0.5 5.5s0.833008 3.5 1.5 5.5l198 607c4 12 7.83301 19.833 11.5 23.5s10.167 5.5 19.5 5.5h29
c8.66699 0 14.834 -1.83301 18.501 -5.5s7.5 -11.5 11.5 -23.5l198 -607c1.33301 -5.33301 2 -9 2 -11c0 -4 -2.16699 -8.83301 -6.5 -14.5s-12.166 -8.5 -23.499 -8.5c-5.33301 0 -10.5 1.33301 -15.5 4s-8.5 6.66699 -10.5 12zM142.998 209.999h248l-125 396z
M406.998 791.999c-10 -20.667 -22.6631 -34.6689 -37.9961 -42.002s-29 -11 -41 -11c-10.667 0 -21.834 1.83301 -33.501 5.5s-23 7.83398 -34 12.501s-21.833 8.83398 -32.5 12.501s-20.334 5.5 -29.001 5.5c-6 0 -11.333 -1.83301 -16 -5.5s-9.16699 -7.66699 -13.5 -12
l-12 -12c-3.66699 -3.66699 -7.5 -5.5 -11.5 -5.5c-9.33301 0 -15.833 3 -19.5 9s-5.5 10.667 -5.5 14c0 1.33301 0.166992 2.5 0.5 3.5s0.5 1.83301 0.5 2.5c8.66699 15.333 19 28 31 38s26 15 42 15c10 0 20.833 -2 32.5 -6l35 -12.5l34 -12.5c11 -4 20.5 -6 28.5 -6
c7.33301 0 13.666 2 18.999 6s10.166 8.5 14.499 13.5s8.66602 9.5 12.999 13.5s8.83301 6 13.5 6c8.66699 0 14.834 -2.83301 18.501 -8.5s5.5 -10.167 5.5 -13.5c0 -2.66699 -0.666992 -6 -2 -10z" />
    <glyph glyph-name="Adieresis" unicode="&#xc4;" horiz-adv-x="532" 
d="M408 156l-284.002 -0.000976562l-47 -143c-4 -11.333 -11 -17 -21 -17c-12.667 0 -21.5 2.83301 -26.5 8.5s-7.5 10.834 -7.5 15.501c0 2 0.166992 3.83301 0.5 5.5s0.833008 3.5 1.5 5.5l198 607c4 12 7.83301 19.833 11.5 23.5s10.167 5.5 19.5 5.5h29
c8.66699 0 14.834 -1.83301 18.501 -5.5s7.5 -11.5 11.5 -23.5l198 -607c1.33301 -5.33301 2 -9 2 -11c0 -4 -2.16699 -8.83301 -6.5 -14.5s-12.166 -8.5 -23.499 -8.5c-5.33301 0 -10.5 1.33301 -15.5 4s-8.5 6.66699 -10.5 12zM142.998 209.999h248l-125 396z
M357.998 702.999c-9.33301 0 -17 3.33398 -23 10.001s-9 14.667 -9 24c0 11.333 3 19.666 9 24.999s13 8.33301 21 9c9.33301 0 17.333 -2.66699 24 -8s10 -14 10 -26c0 -10 -3.16699 -18.167 -9.5 -24.5s-13.833 -9.5 -22.5 -9.5zM184.998 703
c-8.66699 0 -16.332 3.33398 -22.999 10.001s-10 14.667 -10 24c0 11.333 3.16699 19.666 9.5 24.999s13.5 8.33301 21.5 9c9.33301 0 17.166 -2.66699 23.499 -8s9.5 -14 9.5 -26c0 -10 -2.83301 -18.167 -8.5 -24.5s-13.167 -9.5 -22.5 -9.5z" />
    <glyph glyph-name="Aring" unicode="&#xc5;" horiz-adv-x="532" 
d="M408 156l-284.002 -0.000976562l-47 -143c-4 -11.333 -11 -17 -21 -17c-12.667 0 -21.5 2.83301 -26.5 8.5s-7.5 10.834 -7.5 15.501c0 2 0.166992 3.83301 0.5 5.5s0.833008 3.5 1.5 5.5l198 607c4 12 7.83301 19.833 11.5 23.5s10.167 5.5 19.5 5.5h29
c8.66699 0 14.834 -1.83301 18.501 -5.5s7.5 -11.5 11.5 -23.5l198 -607c1.33301 -5.33301 2 -9 2 -11c0 -4 -2.16699 -8.83301 -6.5 -14.5s-12.166 -8.5 -23.499 -8.5c-5.33301 0 -10.5 1.33301 -15.5 4s-8.5 6.66699 -10.5 12zM142.998 209.999h248l-125 396z
M189.998 770.999c0 25.333 8 44.5 24 57.5s33.667 19.5 53 19.5c18.667 0 36 -6.5 52 -19.5s24 -32.167 24 -57.5c0 -26 -8 -45.5 -24 -58.5s-33.333 -19.5 -52 -19.5c-19.333 0 -37 6.5 -53 19.5s-24 32.5 -24 58.5zM220.998 770.999c0 -15.333 4.83301 -26.833 14.5 -34.5
s20.167 -11.5 31.5 -11.5s21.666 3.83301 30.999 11.5s14 19.167 14 34.5c0 16 -4.66699 27.667 -14 35s-19.666 11 -30.999 11s-21.833 -3.66699 -31.5 -11s-14.5 -19 -14.5 -35z" />
    <glyph glyph-name="AE" unicode="&#xc6;" horiz-adv-x="802" 
d="M425 0c-10 0 -16.9971 1.99902 -20.9971 5.99902s-6 11.333 -6 22v175h-232l-91 -190c-3.33301 -6 -7 -10.167 -11 -12.5s-8 -3.83301 -12 -4.5c-10.667 0 -18.334 2.5 -23.001 7.5s-7 9.5 -7 13.5c0 2.66699 1.33301 7.33398 4 14.001l286 607
c5.33301 12 10.166 19.833 14.499 23.5s11.166 5.5 20.499 5.5h414c16.667 0 25 -9.33301 25 -28c0 -16.667 -8.33301 -25 -25 -25h-310v-234h266c16 0 24 -8.66699 24 -26c0 -10 -2 -16.833 -6 -20.5s-10 -5.5 -18 -5.5h-266v-275h310c16.667 0 25 -8.33301 25 -25
c0 -18.667 -8.33301 -28 -25 -28h-336zM193.003 257.999h205v355h-44z" />
    <glyph glyph-name="Ccedilla" unicode="&#xc7;" horiz-adv-x="478" 
d="M284 -165c16.667 0 28.833 3.83301 36.5 11.5s11.5 16.5 11.5 26.5c0 6.66699 -2.5 14.5 -7.5 23.5s-15.167 13.5 -30.5 13.5h-37c-15.333 0 -23 5.66699 -23 17c0 2.66699 0.333008 5.33398 1 8.00098s1.66699 5.66699 3 9l21 56h-46c-24 0 -45.833 4 -65.5 12
s-36.834 20 -51.501 36s-26 36.167 -34 60.5s-12 52.5 -12 84.5v281c0 32.667 4.66699 61 14 85s21.666 44 36.999 60s32.666 28 51.999 36s39.333 12 60 12h210c16.667 0 25 -9.33301 25 -28c0 -16.667 -8.33301 -25 -25 -25h-199c-38 0 -67.667 -12.667 -89 -38
s-32 -58.333 -32 -99v-288c0 -40.667 9.83301 -73.5 29.5 -98.5s48.5 -37.5 86.5 -37.5h204c16.667 0 25 -8.33301 25 -25c0 -18.667 -8.33301 -28 -25 -28h-130l-20 -55h26c22.667 0 40.5 -6.16699 53.5 -18.5s19.5 -29.5 19.5 -51.5c0 -8.66699 -1.66699 -17.5 -5 -26.5
s-8.66602 -17.167 -15.999 -24.5s-16.666 -13.333 -27.999 -18s-24.666 -7 -39.999 -7c-4 0 -10.167 0.5 -18.5 1.5s-17 2.66699 -26 5s-16.833 5.66602 -23.5 9.99902s-10 9.83301 -10 16.5c0 7.33301 2.5 12.5 7.5 15.5s8.83301 4.5 11.5 4.5
c3.33301 0 5.33301 -0.333008 6 -1c12.667 -7.33301 23.167 -11.833 31.5 -13.5s15.833 -2.5 22.5 -2.5z" />
    <glyph glyph-name="Egrave" unicode="&#xc8;" horiz-adv-x="464" 
d="M87 0c-10 0 -17 2 -21 6s-6 11.333 -6 22v611c0 10.667 2 18 6 22s11 6 21 6h336c16.667 0 25 -9.33301 25 -28c0 -16.667 -8.33301 -25 -25 -25h-310v-234h266c16 0 24 -8.66699 24 -26c0 -10 -2 -16.833 -6 -20.5s-10 -5.5 -18 -5.5h-266v-275h310
c16.667 0 25 -8.33301 25 -25c0 -18.667 -8.33301 -28 -25 -28h-336zM175 756c-3.33301 1.33301 -6.50098 4.5 -9.50098 9.5s-4.5 10.5 -4.5 16.5c0 9.33301 3.33301 17.166 10 23.499s13.667 9.5 21 9.5c2 0 5 -0.666992 9 -2l118 -69c4 -2 7.66699 -4.5 11 -7.5
s5 -6.83301 5 -11.5c0 -7.33301 -2.66699 -12.666 -8 -15.999s-10.333 -5 -15 -5c-3.33301 0 -7.66602 0.666992 -12.999 2z" />
    <glyph glyph-name="Eacute" unicode="&#xc9;" horiz-adv-x="464" 
d="M87 0c-10 0 -17 2 -21 6s-6 11.333 -6 22v611c0 10.667 2 18 6 22s11 6 21 6h336c16.667 0 25 -9.33301 25 -28c0 -16.667 -8.33301 -25 -25 -25h-310v-234h266c16 0 24 -8.66699 24 -26c0 -10 -2 -16.833 -6 -20.5s-10 -5.5 -18 -5.5h-266v-275h310
c16.667 0 25 -8.33301 25 -25c0 -18.667 -8.33301 -28 -25 -28h-336zM225 706c-5.33301 -1.33301 -9.66699 -2 -13 -2c-4.66699 0 -9.66699 1.66699 -15 5s-8 8.66602 -8 15.999c0 4.66699 1.66699 8.5 5 11.5s7 5.5 11 7.5l118 69c4 1.33301 7 2 9 2
c8 0 15.167 -3.16699 21.5 -9.5s9.5 -14.166 9.5 -23.499c0 -6 -1.5 -11.5 -4.5 -16.5s-6.16699 -8.16699 -9.5 -9.5z" />
    <glyph glyph-name="Ecircumflex" unicode="&#xca;" horiz-adv-x="464" 
d="M87 0c-10 0 -17 2 -21 6s-6 11.333 -6 22v611c0 10.667 2 18 6 22s11 6 21 6h336c16.667 0 25 -9.33301 25 -28c0 -16.667 -8.33301 -25 -25 -25h-310v-234h266c16 0 24 -8.66699 24 -26c0 -10 -2 -16.833 -6 -20.5s-10 -5.5 -18 -5.5h-266v-275h310
c16.667 0 25 -8.33301 25 -25c0 -18.667 -8.33301 -28 -25 -28h-336zM257 789l-116.999 -89c-3.33301 -2.66699 -7.33301 -4 -12 -4c-6.66699 0 -12.5 2.83301 -17.5 8.5s-7.5 11.5 -7.5 17.5s2.33301 11 7 15l121 99l9 5.5c2.66699 1.66699 5.66699 2.5 9 2.5h17
c5.33301 0 10.666 -2.33301 15.999 -7l121 -99c5.33301 -4 8 -9 8 -15s-2.5 -11.833 -7.5 -17.5s-11.167 -8.5 -18.5 -8.5c-4.66699 0 -8.66699 1.33301 -12 4z" />
    <glyph glyph-name="Edieresis" unicode="&#xcb;" horiz-adv-x="464" 
d="M87 0c-10 0 -17 2 -21 6s-6 11.333 -6 22v611c0 10.667 2 18 6 22s11 6 21 6h336c16.667 0 25 -9.33301 25 -28c0 -16.667 -8.33301 -25 -25 -25h-310v-234h266c16 0 24 -8.66699 24 -26c0 -10 -2 -16.833 -6 -20.5s-10 -5.5 -18 -5.5h-266v-275h310
c16.667 0 25 -8.33301 25 -25c0 -18.667 -8.33301 -28 -25 -28h-336zM345 701c-9.33301 0 -17 3.33301 -23 10s-9 14.667 -9 24c0 10.667 3 19 9 25s13 9 21 9c9.33301 0 17.333 -2.66699 24 -8s10 -14 10 -26c0 -10 -3.16699 -18.167 -9.5 -24.5s-13.833 -9.5 -22.5 -9.5z
M172 701c-8.66699 0 -16.332 3.33301 -22.999 10s-10 14.667 -10 24c0 10.667 3.16699 19 9.5 25s13.5 9 21.5 9c9.33301 0 17.166 -2.66699 23.499 -8s9.5 -14 9.5 -26c0 -10 -2.83301 -18.167 -8.5 -24.5s-13.167 -9.5 -22.5 -9.5z" />
    <glyph glyph-name="Igrave" unicode="&#xcc;" horiz-adv-x="233" 
d="M117 -5c-10 0 -17 2 -21 6s-6 11.333 -6 22v620c0 10.667 2 18 6 22s11 6 21 6s16.833 -1.83301 20.5 -5.5s5.5 -11.167 5.5 -22.5v-620c0 -11.333 -1.83301 -18.833 -5.5 -22.5s-10.5 -5.5 -20.5 -5.5zM13 756c-3.33301 1.33301 -6.50098 4.5 -9.50098 9.5
s-4.5 10.5 -4.5 16.5c0 9.33301 3.33301 17.166 10 23.499s13.667 9.5 21 9.5c2 0 5 -0.666992 9 -2l118 -69c4 -2 7.66699 -4.5 11 -7.5s5 -6.83301 5 -11.5c0 -7.33301 -2.66699 -12.666 -8 -15.999s-10.333 -5 -15 -5c-3.33301 0 -7.66602 0.666992 -12.999 2z" />
    <glyph glyph-name="Iacute" unicode="&#xcd;" horiz-adv-x="233" 
d="M117 -5c-10 0 -17 2 -21 6s-6 11.333 -6 22v620c0 10.667 2 18 6 22s11 6 21 6s16.833 -1.83301 20.5 -5.5s5.5 -11.167 5.5 -22.5v-620c0 -11.333 -1.83301 -18.833 -5.5 -22.5s-10.5 -5.5 -20.5 -5.5zM96 706c-5.33301 -1.33301 -9.66699 -2 -13 -2
c-4.66699 0 -9.66699 1.66699 -15 5s-8 8.66602 -8 15.999c0 4.66699 1.66699 8.5 5 11.5s7 5.5 11 7.5l118 69c4 1.33301 7 2 9 2c8 0 15.167 -3.16699 21.5 -9.5s9.5 -14.166 9.5 -23.499c0 -6 -1.5 -11.5 -4.5 -16.5s-6.16699 -8.16699 -9.5 -9.5z" />
    <glyph glyph-name="Icircumflex" unicode="&#xce;" horiz-adv-x="233" 
d="M117 -5c-10 0 -17 2 -21 6s-6 11.333 -6 22v620c0 10.667 2 18 6 22s11 6 21 6s16.833 -1.83301 20.5 -5.5s5.5 -11.167 5.5 -22.5v-620c0 -11.333 -1.83301 -18.833 -5.5 -22.5s-10.5 -5.5 -20.5 -5.5zM119 789l-116.999 -89c-3.33301 -2.66699 -7.33301 -4 -12 -4
c-6.66699 0 -12.5 2.83301 -17.5 8.5s-7.5 11.5 -7.5 17.5s2.33301 11 7 15l121 99l9 5.5c2.66699 1.66699 5.66699 2.5 9 2.5h17c5.33301 0 10.666 -2.33301 15.999 -7l121 -99c5.33301 -4 8 -9 8 -15s-2.5 -11.833 -7.5 -17.5s-11.167 -8.5 -18.5 -8.5
c-4.66699 0 -8.66699 1.33301 -12 4z" />
    <glyph glyph-name="Idieresis" unicode="&#xcf;" horiz-adv-x="233" 
d="M117 -5c-10 0 -17 2 -21 6s-6 11.333 -6 22v620c0 10.667 2 18 6 22s11 6 21 6s16.833 -1.83301 20.5 -5.5s5.5 -11.167 5.5 -22.5v-620c0 -11.333 -1.83301 -18.833 -5.5 -22.5s-10.5 -5.5 -20.5 -5.5zM204 701c-9.33301 0 -17 3.33301 -23 10s-9 14.667 -9 24
c0 10.667 3 19 9 25s13 9 21 9c9.33301 0 17.333 -2.66699 24 -8s10 -14 10 -26c0 -10 -3.16699 -18.167 -9.5 -24.5s-13.833 -9.5 -22.5 -9.5zM31 701c-8.66699 0 -16.332 3.33301 -22.999 10s-10 14.667 -10 24c0 10.667 3.16699 19 9.5 25s13.5 9 21.5 9
c9.33301 0 17.166 -2.66699 23.499 -8s9.5 -14 9.5 -26c0 -10 -2.83301 -18.167 -8.5 -24.5s-13.167 -9.5 -22.5 -9.5z" />
    <glyph glyph-name="Eth" unicode="&#xd0;" horiz-adv-x="566" 
d="M87 0c-10 0 -16.999 2 -20.999 6s-6 11.333 -6 22v292h-28c-11.333 0 -19.166 1.66699 -23.499 5s-6.5 10 -6.5 20s2.33301 16.5 7 19.5s12.334 4.5 23.001 4.5h28v270c0 10.667 2 18 6 22s11 6 21 6h266c50.667 0 90.5 -14.5 119.5 -43.5s43.5 -76.167 43.5 -141.5v-289
c0 -32 -4.33301 -60.167 -13 -84.5s-20.334 -44.5 -35.001 -60.5s-31.834 -28 -51.501 -36s-40.834 -12 -63.501 -12h-266zM463.001 485c0 40.667 -10.002 72.5 -30.002 95.5s-49 34.5 -87 34.5h-233v-246h176c10.667 0 18.834 -1.5 24.501 -4.5s8.5 -9.5 8.5 -19.5
s-2.66699 -16.667 -8 -20s-13.666 -5 -24.999 -5h-176v-267h222c45.333 0 78 12.5 98 37.5s30 57.833 30 98.5v296z" />
    <glyph glyph-name="Ntilde" unicode="&#xd1;" horiz-adv-x="563" 
d="M446 0c-7.33301 0 -12.5 1.16797 -15.5 3.50098s-6.16699 6.16602 -9.5 11.499c-0.666992 0.666992 -1.66699 2.5 -3 5.5s-5 10.333 -11 22l-28 53l-53 100l-86 162l-127 239.5v-573c0 -11.333 -1.83301 -18.833 -5.5 -22.5s-10.5 -5.5 -20.5 -5.5s-17 2 -21 6
s-6 11.333 -6 22v615c0 10.667 2 18 6 22s11 6 21 6h33c7.33301 0 12.5 -1.16699 15.5 -3.5s6.16699 -6.5 9.5 -12.5l305 -581v573c0 11.333 1.83301 18.833 5.5 22.5s10.5 5.5 20.5 5.5s17 -2 21 -6s6 -11.333 6 -22v-615c0 -10.667 -2 -18 -6 -22s-11 -6 -21 -6h-30z
M425 774.001c-10 -20.667 -22.6631 -34.6689 -37.9961 -42.002s-29 -11 -41 -11c-10.667 0 -21.834 1.83301 -33.501 5.5s-23 7.83398 -34 12.501s-21.833 8.83398 -32.5 12.501s-20.334 5.5 -29.001 5.5c-6 0 -11.333 -1.83301 -16 -5.5s-9.16699 -7.66699 -13.5 -12
l-12 -12c-3.66699 -3.66699 -7.5 -5.5 -11.5 -5.5c-9.33301 0 -15.833 3 -19.5 9s-5.5 10.667 -5.5 14c0 1.33301 0.166992 2.5 0.5 3.5s0.5 1.83301 0.5 2.5c8.66699 15.333 19 28 31 38s26 15 42 15c10 0 20.833 -2 32.5 -6l35 -12.5l34 -12.5c11 -4 20.5 -6 28.5 -6
c7.33301 0 13.666 2 18.999 6s10.166 8.5 14.499 13.5s8.66602 9.5 12.999 13.5s8.83301 6 13.5 6c8.66699 0 14.834 -2.83301 18.501 -8.5s5.5 -10.167 5.5 -13.5c0 -2.66699 -0.666992 -6 -2 -10z" />
    <glyph glyph-name="Ograve" unicode="&#xd2;" horiz-adv-x="536" 
d="M311 667c26 0 49.668 -4 71.001 -12s39.666 -20 54.999 -36s27.333 -36.167 36 -60.5s13 -52.5 13 -84.5v-281c0 -32 -4.66699 -60.167 -14 -84.5s-21.833 -44.5 -37.5 -60.5s-34 -28 -55 -36s-43.5 -12 -67.5 -12h-88c-24 -0 -46.5 3.83301 -67.5 11.5
s-39.333 19.167 -55 34.5s-28.167 35 -37.5 59s-14 52 -14 84v285c0 32 4.66699 60.167 14 84.5s22 44.5 38 60.5s34.5 28 55.5 36s43.5 12 67.5 12h86zM433.001 478c0 40.667 -11.167 73.5 -33.5 98.5s-53.5 37.5 -93.5 37.5h-76c-40 0 -71.167 -12.5 -93.5 -37.5
s-33.5 -57.833 -33.5 -98.5v-289c0 -40.667 11.333 -73.5 34 -98.5s53.667 -37.5 93 -37.5h76c39.333 0 70.333 12.5 93 37.5s34 57.833 34 98.5v289zM186.001 756c-3.33301 1.33301 -6.50098 4.5 -9.50098 9.5s-4.5 10.5 -4.5 16.5c0 9.33301 3.33301 17.166 10 23.499
s13.667 9.5 21 9.5c2 0 5 -0.666992 9 -2l118 -69c4 -2 7.66699 -4.5 11 -7.5s5 -6.83301 5 -11.5c0 -7.33301 -2.66699 -12.666 -8 -15.999s-10.333 -5 -15 -5c-3.33301 0 -7.66602 0.666992 -12.999 2z" />
    <glyph glyph-name="Oacute" unicode="&#xd3;" horiz-adv-x="536" 
d="M311 667c26 0 49.668 -4 71.001 -12s39.666 -20 54.999 -36s27.333 -36.167 36 -60.5s13 -52.5 13 -84.5v-281c0 -32 -4.66699 -60.167 -14 -84.5s-21.833 -44.5 -37.5 -60.5s-34 -28 -55 -36s-43.5 -12 -67.5 -12h-88c-24 -0 -46.5 3.83301 -67.5 11.5
s-39.333 19.167 -55 34.5s-28.167 35 -37.5 59s-14 52 -14 84v285c0 32 4.66699 60.167 14 84.5s22 44.5 38 60.5s34.5 28 55.5 36s43.5 12 67.5 12h86zM433.001 478c0 40.667 -11.167 73.5 -33.5 98.5s-53.5 37.5 -93.5 37.5h-76c-40 0 -71.167 -12.5 -93.5 -37.5
s-33.5 -57.833 -33.5 -98.5v-289c0 -40.667 11.333 -73.5 34 -98.5s53.667 -37.5 93 -37.5h76c39.333 0 70.333 12.5 93 37.5s34 57.833 34 98.5v289zM234.001 706c-5.33301 -1.33301 -9.66699 -2 -13 -2c-4.66699 0 -9.66699 1.66699 -15 5s-8 8.66602 -8 15.999
c0 4.66699 1.66699 8.5 5 11.5s7 5.5 11 7.5l118 69c4 1.33301 7 2 9 2c8 0 15.167 -3.16699 21.5 -9.5s9.5 -14.166 9.5 -23.499c0 -6 -1.5 -11.5 -4.5 -16.5s-6.16699 -8.16699 -9.5 -9.5z" />
    <glyph glyph-name="Ocircumflex" unicode="&#xd4;" horiz-adv-x="536" 
d="M311 667c26 0 49.668 -4 71.001 -12s39.666 -20 54.999 -36s27.333 -36.167 36 -60.5s13 -52.5 13 -84.5v-281c0 -32 -4.66699 -60.167 -14 -84.5s-21.833 -44.5 -37.5 -60.5s-34 -28 -55 -36s-43.5 -12 -67.5 -12h-88c-24 -0 -46.5 3.83301 -67.5 11.5
s-39.333 19.167 -55 34.5s-28.167 35 -37.5 59s-14 52 -14 84v285c0 32 4.66699 60.167 14 84.5s22 44.5 38 60.5s34.5 28 55.5 36s43.5 12 67.5 12h86zM433.001 478c0 40.667 -11.167 73.5 -33.5 98.5s-53.5 37.5 -93.5 37.5h-76c-40 0 -71.167 -12.5 -93.5 -37.5
s-33.5 -57.833 -33.5 -98.5v-289c0 -40.667 11.333 -73.5 34 -98.5s53.667 -37.5 93 -37.5h76c39.333 0 70.333 12.5 93 37.5s34 57.833 34 98.5v289zM269.001 789l-116.999 -89c-3.33301 -2.66699 -7.33301 -4 -12 -4c-6.66699 0 -12.5 2.83301 -17.5 8.5
s-7.5 11.5 -7.5 17.5s2.33301 11 7 15l121 99l9 5.5c2.66699 1.66699 5.66699 2.5 9 2.5h17c5.33301 0 10.666 -2.33301 15.999 -7l121 -99c5.33301 -4 8 -9 8 -15s-2.5 -11.833 -7.5 -17.5s-11.167 -8.5 -18.5 -8.5c-4.66699 0 -8.66699 1.33301 -12 4z" />
    <glyph glyph-name="Otilde" unicode="&#xd5;" horiz-adv-x="536" 
d="M311 667c26 0 49.668 -4 71.001 -12s39.666 -20 54.999 -36s27.333 -36.167 36 -60.5s13 -52.5 13 -84.5v-281c0 -32 -4.66699 -60.167 -14 -84.5s-21.833 -44.5 -37.5 -60.5s-34 -28 -55 -36s-43.5 -12 -67.5 -12h-88c-24 -0 -46.5 3.83301 -67.5 11.5
s-39.333 19.167 -55 34.5s-28.167 35 -37.5 59s-14 52 -14 84v285c0 32 4.66699 60.167 14 84.5s22 44.5 38 60.5s34.5 28 55.5 36s43.5 12 67.5 12h86zM433.001 478c0 40.667 -11.167 73.5 -33.5 98.5s-53.5 37.5 -93.5 37.5h-76c-40 0 -71.167 -12.5 -93.5 -37.5
s-33.5 -57.833 -33.5 -98.5v-289c0 -40.667 11.333 -73.5 34 -98.5s53.667 -37.5 93 -37.5h76c39.333 0 70.333 12.5 93 37.5s34 57.833 34 98.5v289zM410.001 776c-10 -20.667 -22.6631 -34.6689 -37.9961 -42.002s-29 -11 -41 -11c-10.667 0 -21.834 1.83301 -33.501 5.5
s-23 7.83398 -34 12.501s-21.833 8.83398 -32.5 12.501s-20.334 5.5 -29.001 5.5c-6 0 -11.333 -1.83301 -16 -5.5s-9.16699 -7.66699 -13.5 -12l-12 -12c-3.66699 -3.66699 -7.5 -5.5 -11.5 -5.5c-9.33301 0 -15.833 3 -19.5 9s-5.5 10.667 -5.5 14
c0 1.33301 0.166992 2.5 0.5 3.5s0.5 1.83301 0.5 2.5c8.66699 15.333 19 28 31 38s26 15 42 15c10 0 20.833 -2 32.5 -6l35 -12.5l34 -12.5c11 -4 20.5 -6 28.5 -6c7.33301 0 13.666 2 18.999 6s10.166 8.5 14.499 13.5s8.66602 9.5 12.999 13.5s8.83301 6 13.5 6
c8.66699 0 14.834 -2.83301 18.501 -8.5s5.5 -10.167 5.5 -13.5c0 -2.66699 -0.666992 -6 -2 -10z" />
    <glyph glyph-name="Odieresis" unicode="&#xd6;" horiz-adv-x="536" 
d="M311 667c26 0 49.668 -4 71.001 -12s39.666 -20 54.999 -36s27.333 -36.167 36 -60.5s13 -52.5 13 -84.5v-281c0 -32 -4.66699 -60.167 -14 -84.5s-21.833 -44.5 -37.5 -60.5s-34 -28 -55 -36s-43.5 -12 -67.5 -12h-88c-24 -0 -46.5 3.83301 -67.5 11.5
s-39.333 19.167 -55 34.5s-28.167 35 -37.5 59s-14 52 -14 84v285c0 32 4.66699 60.167 14 84.5s22 44.5 38 60.5s34.5 28 55.5 36s43.5 12 67.5 12h86zM433.001 478c0 40.667 -11.167 73.5 -33.5 98.5s-53.5 37.5 -93.5 37.5h-76c-40 0 -71.167 -12.5 -93.5 -37.5
s-33.5 -57.833 -33.5 -98.5v-289c0 -40.667 11.333 -73.5 34 -98.5s53.667 -37.5 93 -37.5h76c39.333 0 70.333 12.5 93 37.5s34 57.833 34 98.5v289zM355.001 701c-9.33301 0 -17 3.33398 -23 10.001s-9 14.667 -9 24c0 11.333 3 19.666 9 24.999s13 8.33301 21 9
c9.33301 0 17.333 -2.66699 24 -8s10 -14 10 -26c0 -10 -3.16699 -18.167 -9.5 -24.5s-13.833 -9.5 -22.5 -9.5zM182.001 701.001c-8.66699 0 -16.332 3.33398 -22.999 10.001s-10 14.667 -10 24c0 11.333 3.16699 19.666 9.5 24.999s13.5 8.33301 21.5 9
c9.33301 0 17.166 -2.66699 23.499 -8s9.5 -14 9.5 -26c0 -10 -2.83301 -18.167 -8.5 -24.5s-13.167 -9.5 -22.5 -9.5z" />
    <glyph glyph-name="multiply" unicode="&#xd7;" horiz-adv-x="460" 
d="M229 296l-110.996 -110.003c-7.33301 -7.33301 -14 -11 -20 -11c-5.33301 0 -11.5 3.33301 -18.5 10s-10.5 12.667 -10.5 18s4 12 12 20l110 110l-105 105c-6.66699 7.33301 -10 13.666 -10 18.999c0 6 3.66699 12.667 11 20s13.666 11 18.999 11
s11.666 -3.66699 18.999 -11l105 -105l110 110c8.66699 8.66699 15.667 13 21 13c4.66699 0 10.5 -3.66699 17.5 -11s10.5 -13.666 10.5 -18.999c0 -6 -3.66699 -12.667 -11 -20l-111 -110l105 -105c7.33301 -7.33301 11 -13.666 11 -18.999c0 -2.66699 -1 -5.66699 -3 -9
s-4.5 -6.66602 -7.5 -9.99902s-6.33301 -6.16602 -10 -8.49902s-6.83398 -3.5 -9.50098 -3.5c-4.66699 0 -11.334 3.66699 -20.001 11z" />
    <glyph glyph-name="Oslash" unicode="&#xd8;" horiz-adv-x="536" 
d="M311 667c45.333 0 82.666 -11.999 111.999 -35.999l23 37c2 4.66699 6.33301 7 13 7s12.167 -1.83301 16.5 -5.5s6.5 -7.83398 6.5 -12.501c0 -2.66699 -1 -6 -3 -10l-28 -46c11.333 -15.333 20 -33.666 26 -54.999s9 -45.333 9 -72v-281
c0 -32 -4.66699 -60.167 -14 -84.5s-21.833 -44.5 -37.5 -60.5s-34 -28 -55 -36s-43.5 -12 -67.5 -12h-88c-22 0 -42.667 3 -62 9s-36.666 15.667 -51.999 29l-21 -35c-3.33301 -6 -8 -9 -14 -9c-5.33301 0 -10.5 2 -15.5 6s-7.5 9 -7.5 15c0 3.33301 1 6.66602 3 9.99902
l27 44c-10 15.333 -17.833 32.833 -23.5 52.5s-8.5 42.167 -8.5 67.5v285c0 32 4.66699 60.167 14 84.5s22 44.5 38 60.5s34.5 28 55.5 36s43.5 12 67.5 12h86zM433 478.001c0 26 -5 49 -15 69l-278 -460c22.667 -22.667 52.667 -34 90 -34h76c39.333 0 70.333 12.5 93 37.5
s34 57.833 34 98.5v289zM103 189.001c0 -24.667 3.99902 -46.333 11.999 -65l279 458c-23.333 21.333 -52.666 32 -87.999 32h-76c-40 0 -71.167 -12.5 -93.5 -37.5s-33.5 -57.833 -33.5 -98.5v-289z" />
    <glyph glyph-name="Ugrave" unicode="&#xd9;" horiz-adv-x="536" 
d="M50 640c0 12.667 3.33203 20.3359 9.99902 23.0029s12.334 4 17.001 4c3.33301 0 8.5 -1.33301 15.5 -4s10.5 -10.334 10.5 -23.001v-451c0 -40.667 11.333 -73.5 34 -98.5s53.667 -37.5 93 -37.5h76c39.333 0 70.333 12.5 93 37.5s34 57.833 34 98.5v451
c0 13.333 3.33301 21.166 10 23.499s12 3.5 16 3.5s9.5 -1.33301 16.5 -4s10.5 -10.334 10.5 -23.001v-447c0 -32 -4.66699 -60.167 -14 -84.5s-21.833 -44.5 -37.5 -60.5s-34 -28 -55 -36s-43.5 -12 -67.5 -12h-88c-24 -0 -46.5 3.83301 -67.5 11.5
s-39.333 19.167 -55 34.5s-28.167 35 -37.5 59s-14 52 -14 84v451zM194.999 756.002c-3.33301 1.33301 -6.50098 4.5 -9.50098 9.5s-4.5 10.5 -4.5 16.5c0 9.33301 3.33301 17.166 10 23.499s13.667 9.5 21 9.5c2 0 5 -0.666992 9 -2l118 -69c4 -2 7.66699 -4.5 11 -7.5
s5 -6.83301 5 -11.5c0 -7.33301 -2.66699 -12.666 -8 -15.999s-10.333 -5 -15 -5c-3.33301 0 -7.66602 0.666992 -12.999 2z" />
    <glyph glyph-name="Uacute" unicode="&#xda;" horiz-adv-x="536" 
d="M50 640c0 12.667 3.33203 20.3359 9.99902 23.0029s12.334 4 17.001 4c3.33301 0 8.5 -1.33301 15.5 -4s10.5 -10.334 10.5 -23.001v-451c0 -40.667 11.333 -73.5 34 -98.5s53.667 -37.5 93 -37.5h76c39.333 0 70.333 12.5 93 37.5s34 57.833 34 98.5v451
c0 13.333 3.33301 21.166 10 23.499s12 3.5 16 3.5s9.5 -1.33301 16.5 -4s10.5 -10.334 10.5 -23.001v-447c0 -32 -4.66699 -60.167 -14 -84.5s-21.833 -44.5 -37.5 -60.5s-34 -28 -55 -36s-43.5 -12 -67.5 -12h-88c-24 -0 -46.5 3.83301 -67.5 11.5
s-39.333 19.167 -55 34.5s-28.167 35 -37.5 59s-14 52 -14 84v451zM238.999 706.002c-5.33301 -1.33301 -9.66699 -2 -13 -2c-4.66699 0 -9.66699 1.66699 -15 5s-8 8.66602 -8 15.999c0 4.66699 1.66699 8.5 5 11.5s7 5.5 11 7.5l118 69c4 1.33301 7 2 9 2
c8 0 15.167 -3.16699 21.5 -9.5s9.5 -14.166 9.5 -23.499c0 -6 -1.5 -11.5 -4.5 -16.5s-6.16699 -8.16699 -9.5 -9.5z" />
    <glyph glyph-name="Ucircumflex" unicode="&#xdb;" horiz-adv-x="536" 
d="M50 640c0 12.667 3.33203 20.3359 9.99902 23.0029s12.334 4 17.001 4c3.33301 0 8.5 -1.33301 15.5 -4s10.5 -10.334 10.5 -23.001v-451c0 -40.667 11.333 -73.5 34 -98.5s53.667 -37.5 93 -37.5h76c39.333 0 70.333 12.5 93 37.5s34 57.833 34 98.5v451
c0 13.333 3.33301 21.166 10 23.499s12 3.5 16 3.5s9.5 -1.33301 16.5 -4s10.5 -10.334 10.5 -23.001v-447c0 -32 -4.66699 -60.167 -14 -84.5s-21.833 -44.5 -37.5 -60.5s-34 -28 -55 -36s-43.5 -12 -67.5 -12h-88c-24 -0 -46.5 3.83301 -67.5 11.5
s-39.333 19.167 -55 34.5s-28.167 35 -37.5 59s-14 52 -14 84v451zM273.999 789.002l-116.999 -89c-3.33301 -2.66699 -7.33301 -4 -12 -4c-6.66699 0 -12.5 2.83301 -17.5 8.5s-7.5 11.5 -7.5 17.5s2.33301 11 7 15l121 99l9 5.5c2.66699 1.66699 5.66699 2.5 9 2.5h17
c5.33301 0 10.666 -2.33301 15.999 -7l121 -99c5.33301 -4 8 -9 8 -15s-2.5 -11.833 -7.5 -17.5s-11.167 -8.5 -18.5 -8.5c-4.66699 0 -8.66699 1.33301 -12 4z" />
    <glyph glyph-name="Udieresis" unicode="&#xdc;" horiz-adv-x="536" 
d="M50 640c0 12.667 3.33203 20.3359 9.99902 23.0029s12.334 4 17.001 4c3.33301 0 8.5 -1.33301 15.5 -4s10.5 -10.334 10.5 -23.001v-451c0 -40.667 11.333 -73.5 34 -98.5s53.667 -37.5 93 -37.5h76c39.333 0 70.333 12.5 93 37.5s34 57.833 34 98.5v451
c0 13.333 3.33301 21.166 10 23.499s12 3.5 16 3.5s9.5 -1.33301 16.5 -4s10.5 -10.334 10.5 -23.001v-447c0 -32 -4.66699 -60.167 -14 -84.5s-21.833 -44.5 -37.5 -60.5s-34 -28 -55 -36s-43.5 -12 -67.5 -12h-88c-24 -0 -46.5 3.83301 -67.5 11.5
s-39.333 19.167 -55 34.5s-28.167 35 -37.5 59s-14 52 -14 84v451zM194.999 703.002c-8.66699 0 -16.332 3.33398 -22.999 10.001s-10 14.667 -10 24c0 11.333 3.16699 19.666 9.5 24.999s13.5 8.33301 21.5 9c9.33301 0 17.166 -2.66699 23.499 -8s9.5 -14 9.5 -26
c0 -10 -2.83301 -18.167 -8.5 -24.5s-13.167 -9.5 -22.5 -9.5zM368.001 703.003c-9.33301 0 -17 3.33398 -23 10.001s-9 14.667 -9 24c0 11.333 3 19.666 9 24.999s13 8.33301 21 9c9.33301 0 17.333 -2.66699 24 -8s10 -14 10 -26c0 -10 -3.16699 -18.167 -9.5 -24.5
s-13.833 -9.5 -22.5 -9.5z" />
    <glyph glyph-name="Yacute" unicode="&#xdd;" horiz-adv-x="475" 
d="M240 346l181 310c4.66699 7.33301 11.667 11 21 11c10.667 0 18.334 -3.16699 23.001 -9.5s7 -11.166 7 -14.499s-1.33301 -7 -4 -11l-201 -343v-268c0 -10.667 -2 -17.667 -6 -21s-11 -5 -21 -5c-17.333 0 -26 8.66699 -26 26v268l-206 342c-2 2.66699 -3 6 -3 10
c0 5.33301 2.83301 11.166 8.5 17.499s12.5 9.5 20.5 9.5c7.33301 0 13.666 -4 18.999 -12zM206 706c-5.33301 -1.33301 -9.66699 -2 -13 -2c-4.66699 0 -9.66699 1.66699 -15 5s-8 8.66602 -8 15.999c0 4.66699 1.66699 8.5 5 11.5s7 5.5 11 7.5l118 69c4 1.33301 7 2 9 2
c8 0 15.167 -3.16699 21.5 -9.5s9.5 -14.166 9.5 -23.499c0 -6 -1.5 -11.5 -4.5 -16.5s-6.16699 -8.16699 -9.5 -9.5z" />
    <glyph glyph-name="Thorn" unicode="&#xde;" horiz-adv-x="528" 
d="M60 644c0 10.667 1.83301 18 5.5 22s10.5 6 20.5 6s17 -1.83301 21 -5.5s6 -11.167 6 -22.5v-109h188c60 0 106.167 -17 138.5 -51s48.5 -81.333 48.5 -142c0 -62.667 -15.667 -111.5 -47 -146.5s-76.333 -52.5 -135 -52.5h-193v-120c0 -11.333 -2 -18.833 -6 -22.5
s-11 -5.5 -21 -5.5s-16.833 2 -20.5 6s-5.5 11.333 -5.5 22v621zM113 482l-0.000976562 -285h200c22.667 0 41.834 4.33301 57.501 13s28.167 20 37.5 34s16 29.5 20 46.5s6 34.167 6 51.5c0 48.667 -11.667 84.167 -35 106.5s-52 33.5 -86 33.5h-200z" />
    <glyph glyph-name="germandbls" unicode="&#xdf;" horiz-adv-x="466" 
d="M98 -20c0 -5.33301 -2.00098 -10.1689 -6.00098 -14.502s-10.667 -6.5 -20 -6.5s-16.166 2.16699 -20.499 6.5s-6.5 9.16602 -6.5 14.499v537c0 54 16 95.5 48 124.5s73.333 44.167 124 45.5h21c25.333 0 48.666 -3.83301 69.999 -11.5s39.833 -18.667 55.5 -33
s27.834 -32.166 36.501 -53.499s13 -45.666 13 -72.999c0 -32 -6.16699 -60.333 -18.5 -85s-31.166 -43.334 -56.499 -56.001c30.667 -9.33301 52.167 -27.333 64.5 -54s18.5 -57 18.5 -91v-63c0 -27.333 -4.5 -51.333 -13.5 -72s-21.333 -38 -37 -52
s-33.667 -24.667 -54 -32s-41.5 -11 -63.5 -11h-56c-7.33301 0 -13.166 3 -17.499 9s-6.5 11.667 -6.5 17c0 6 2.16699 11.833 6.5 17.5s10.166 8.5 17.499 8.5h55c14.667 0 28.834 2.16699 42.501 6.5s26 11 37 20s19.833 20.833 26.5 35.5s10 32.334 10 53.001v63
c0 41.333 -11 71.333 -33 90s-49.667 28 -83 28h-25c-4 0 -8.83301 2.16699 -14.5 6.5s-8.5 10.833 -8.5 19.5c0 9.33301 2.66699 16 8 20s10.333 6 15 6h17c15.333 0 30 2.33301 44 7s26.333 11.667 37 21s19.167 21.333 25.5 36s9.5 32 9.5 52
c0 20.667 -3.33301 38.5 -10 53.5s-15.5 27.333 -26.5 37s-23.667 16.834 -38 21.501s-28.833 7 -43.5 7h-30c-14.667 0 -28.834 -2.33301 -42.501 -7s-25.834 -11.667 -36.501 -21s-19.167 -21.5 -25.5 -36.5s-9.5 -32.833 -9.5 -53.5v-537z" />
    <glyph glyph-name="agrave" unicode="&#xe0;" horiz-adv-x="483" 
d="M431 32c0 -10.667 -2.5 -18.667 -7.5 -24s-10.5 -8 -16.5 -8h-249c-16.667 0 -32.167 3 -46.5 9s-26.833 14.667 -37.5 26s-19 25 -25 41s-9 34 -9 54v14c0 15.333 2.66699 30.5 8 45.5s13.333 28.333 24 40s24 21.167 40 28.5s34.667 11 56 11h211v24
c0 41.333 -10.833 70.5 -32.5 87.5s-49.5 25.5 -83.5 25.5h-131c-3.33301 0 -7.5 1.66699 -12.5 5s-7.5 9.66602 -7.5 18.999c0 10 2.5 17.167 7.5 21.5s9.16699 6.5 12.5 6.5h132c54 0 95.333 -14.167 124 -42.5s43 -69.166 43 -122.499v-261zM168 217
c-21.333 0 -39.166 -7.16699 -53.499 -21.5s-21.5 -32.166 -21.5 -53.499v-11c0 -9.33301 1.33301 -18.5 4 -27.5s7 -17.333 13 -25s13.667 -13.834 23 -18.501s20.666 -7 33.999 -7h211v164h-210zM168 657c-2.66699 4 -4 8 -4 12c0 8 3.16699 15.667 9.5 23
s14.5 11 24.5 11s17 -3.33301 21 -10l75 -133l4 -8c1.33301 -2.66699 2 -5.66699 2 -9s-1.83301 -7 -5.5 -11s-8.5 -6 -14.5 -6c-4 0 -7.83301 1 -11.5 3s-7.16699 4.66699 -10.5 8z" />
    <glyph glyph-name="aacute" unicode="&#xe1;" horiz-adv-x="483" 
d="M431 32c0 -10.667 -2.5 -18.667 -7.5 -24s-10.5 -8 -16.5 -8h-249c-16.667 0 -32.167 3 -46.5 9s-26.833 14.667 -37.5 26s-19 25 -25 41s-9 34 -9 54v14c0 15.333 2.66699 30.5 8 45.5s13.333 28.333 24 40s24 21.167 40 28.5s34.667 11 56 11h211v24
c0 41.333 -10.833 70.5 -32.5 87.5s-49.5 25.5 -83.5 25.5h-131c-3.33301 0 -7.5 1.66699 -12.5 5s-7.5 9.66602 -7.5 18.999c0 10 2.5 17.167 7.5 21.5s9.16699 6.5 12.5 6.5h132c54 0 95.333 -14.167 124 -42.5s43 -69.166 43 -122.499v-261zM168 217
c-21.333 0 -39.166 -7.16699 -53.499 -21.5s-21.5 -32.166 -21.5 -53.499v-11c0 -9.33301 1.33301 -18.5 4 -27.5s7 -17.333 13 -25s13.667 -13.834 23 -18.501s20.666 -7 33.999 -7h211v164h-210zM223 537c-3.33301 -3.33301 -6.66699 -6 -10 -8s-7.33301 -3 -12 -3
c-6 0 -10.833 2 -14.5 6s-5.5 7.66699 -5.5 11s0.666992 6.33301 2 9l4 8l75 133c4 6.66699 11 10 21 10s18.167 -3.66699 24.5 -11s9.5 -15 9.5 -23c0 -5.33301 -1.33301 -9.33301 -4 -12z" />
    <glyph glyph-name="acircumflex" unicode="&#xe2;" horiz-adv-x="483" 
d="M431 32c0 -10.667 -2.5 -18.667 -7.5 -24s-10.5 -8 -16.5 -8h-249c-16.667 0 -32.167 3 -46.5 9s-26.833 14.667 -37.5 26s-19 25 -25 41s-9 34 -9 54v14c0 15.333 2.66699 30.5 8 45.5s13.333 28.333 24 40s24 21.167 40 28.5s34.667 11 56 11h211v24
c0 41.333 -10.833 70.5 -32.5 87.5s-49.5 25.5 -83.5 25.5h-131c-3.33301 0 -7.5 1.66699 -12.5 5s-7.5 9.66602 -7.5 18.999c0 10 2.5 17.167 7.5 21.5s9.16699 6.5 12.5 6.5h132c54 0 95.333 -14.167 124 -42.5s43 -69.166 43 -122.499v-261zM168 217
c-21.333 0 -39.166 -7.16699 -53.499 -21.5s-21.5 -32.166 -21.5 -53.499v-11c0 -9.33301 1.33301 -18.5 4 -27.5s7 -17.333 13 -25s13.667 -13.834 23 -18.501s20.666 -7 33.999 -7h211v164h-210zM226 656c7.33301 6 13.334 9 18.001 9h17
c5.33301 0 10.666 -2.33301 15.999 -7l124 -109c3.33301 -2 5 -5.66699 5 -11c0 -6 -2.33301 -12.167 -7 -18.5s-11.667 -9.5 -21 -9.5c-4.66699 0 -8.66699 1.33301 -12 4l-115 93l-110 -92c-3.33301 -2.66699 -8 -4 -14 -4c-10 0 -16.833 3.5 -20.5 10.5
s-5.5 12.5 -5.5 16.5c0 4.66699 1 8 3 10z" />
    <glyph glyph-name="atilde" unicode="&#xe3;" horiz-adv-x="483" 
d="M431 32c0 -10.667 -2.5 -18.667 -7.5 -24s-10.5 -8 -16.5 -8h-249c-16.667 0 -32.167 3 -46.5 9s-26.833 14.667 -37.5 26s-19 25 -25 41s-9 34 -9 54v14c0 15.333 2.66699 30.5 8 45.5s13.333 28.333 24 40s24 21.167 40 28.5s34.667 11 56 11h211v24
c0 41.333 -10.833 70.5 -32.5 87.5s-49.5 25.5 -83.5 25.5h-131c-3.33301 0 -7.5 1.66699 -12.5 5s-7.5 9.66602 -7.5 18.999c0 10 2.5 17.167 7.5 21.5s9.16699 6.5 12.5 6.5h132c54 0 95.333 -14.167 124 -42.5s43 -69.166 43 -122.499v-261zM168 217
c-21.333 0 -39.166 -7.16699 -53.499 -21.5s-21.5 -32.166 -21.5 -53.499v-11c0 -9.33301 1.33301 -18.5 4 -27.5s7 -17.333 13 -25s13.667 -13.834 23 -18.501s20.666 -7 33.999 -7h211v164h-210zM396 596c-10 -20.667 -22.6631 -34.6689 -37.9961 -42.002s-29 -11 -41 -11
c-10.667 0 -21.834 1.83301 -33.501 5.5s-23 7.83398 -34 12.501s-21.833 8.83398 -32.5 12.501s-20.334 5.5 -29.001 5.5c-6 0 -11.333 -1.83301 -16 -5.5s-9.16699 -7.66699 -13.5 -12l-12 -12c-3.66699 -3.66699 -7.5 -5.5 -11.5 -5.5c-9.33301 0 -15.833 3 -19.5 9
s-5.5 10.667 -5.5 14c0 1.33301 0.166992 2.5 0.5 3.5s0.5 1.83301 0.5 2.5c8.66699 15.333 19 28 31 38s26 15 42 15c10 0 20.833 -2 32.5 -6l35 -12.5l34 -12.5c11 -4 20.5 -6 28.5 -6c7.33301 0 13.666 2 18.999 6s10.166 8.5 14.499 13.5s8.66602 9.5 12.999 13.5
s8.83301 6 13.5 6c8.66699 0 14.834 -2.83301 18.501 -8.5s5.5 -10.167 5.5 -13.5c0 -2.66699 -0.666992 -6 -2 -10z" />
    <glyph glyph-name="adieresis" unicode="&#xe4;" horiz-adv-x="483" 
d="M431 32c0 -10.667 -2.5 -18.667 -7.5 -24s-10.5 -8 -16.5 -8h-249c-16.667 0 -32.167 3 -46.5 9s-26.833 14.667 -37.5 26s-19 25 -25 41s-9 34 -9 54v14c0 15.333 2.66699 30.5 8 45.5s13.333 28.333 24 40s24 21.167 40 28.5s34.667 11 56 11h211v24
c0 41.333 -10.833 70.5 -32.5 87.5s-49.5 25.5 -83.5 25.5h-131c-3.33301 0 -7.5 1.66699 -12.5 5s-7.5 9.66602 -7.5 18.999c0 10 2.5 17.167 7.5 21.5s9.16699 6.5 12.5 6.5h132c54 0 95.333 -14.167 124 -42.5s43 -69.166 43 -122.499v-261zM168 217
c-21.333 0 -39.166 -7.16699 -53.499 -21.5s-21.5 -32.166 -21.5 -53.499v-11c0 -9.33301 1.33301 -18.5 4 -27.5s7 -17.333 13 -25s13.667 -13.834 23 -18.501s20.666 -7 33.999 -7h211v164h-210zM346 547c-9.33301 0 -17 3.33398 -23 10.001s-9 14.667 -9 24
c0 11.333 3 19.666 9 24.999s13 8.33301 21 9c9.33301 0 17.333 -2.66699 24 -8s10 -14 10 -26c0 -10 -3.16699 -18.167 -9.5 -24.5s-13.833 -9.5 -22.5 -9.5zM173 547.001c-8.66699 0 -16.332 3.33398 -22.999 10.001s-10 14.667 -10 24
c0 11.333 3.16699 19.666 9.5 24.999s13.5 8.33301 21.5 9c9.33301 0 17.166 -2.66699 23.499 -8s9.5 -14 9.5 -26c0 -10 -2.83301 -18.167 -8.5 -24.5s-13.167 -9.5 -22.5 -9.5z" />
    <glyph glyph-name="aring" unicode="&#xe5;" horiz-adv-x="483" 
d="M431 32c0 -10.667 -2.5 -18.667 -7.5 -24s-10.5 -8 -16.5 -8h-249c-16.667 0 -32.167 3 -46.5 9s-26.833 14.667 -37.5 26s-19 25 -25 41s-9 34 -9 54v14c0 15.333 2.66699 30.5 8 45.5s13.333 28.333 24 40s24 21.167 40 28.5s34.667 11 56 11h211v24
c0 41.333 -10.833 70.5 -32.5 87.5s-49.5 25.5 -83.5 25.5h-131c-3.33301 0 -7.5 1.66699 -12.5 5s-7.5 9.66602 -7.5 18.999c0 10 2.5 17.167 7.5 21.5s9.16699 6.5 12.5 6.5h132c54 0 95.333 -14.167 124 -42.5s43 -69.166 43 -122.499v-261zM168 217
c-21.333 0 -39.166 -7.16699 -53.499 -21.5s-21.5 -32.166 -21.5 -53.499v-11c0 -9.33301 1.33301 -18.5 4 -27.5s7 -17.333 13 -25s13.667 -13.834 23 -18.501s20.666 -7 33.999 -7h211v164h-210zM166 580c0 25.333 8 44.5 24 57.5s33.667 19.5 53 19.5
c18.667 0 36 -6.5 52 -19.5s24 -32.167 24 -57.5c0 -26 -8 -45.5 -24 -58.5s-33.333 -19.5 -52 -19.5c-19.333 0 -37 6.5 -53 19.5s-24 32.5 -24 58.5zM197 580c0 -15.333 4.83301 -26.833 14.5 -34.5s20.167 -11.5 31.5 -11.5s21.666 3.83301 30.999 11.5
s14 19.167 14 34.5c0 16 -4.66699 27.667 -14 35s-19.666 11 -30.999 11s-21.833 -3.66699 -31.5 -11s-14.5 -19 -14.5 -35z" />
    <glyph glyph-name="ae" unicode="&#xe6;" horiz-adv-x="796" 
d="M158 0c-16.667 0 -32.167 3.00195 -46.5 9.00195s-26.833 14.667 -37.5 26s-19 25 -25 41s-9 34 -9 54v14c0 15.333 2.66699 30.5 8 45.5s13.333 28.333 24 40s24 21.167 40 28.5s34.667 11 56 11h210v36c-2 36.667 -13.667 62.667 -35 78s-48 23 -80 23h-131
c-3.33301 0 -7.5 1.66699 -12.5 5s-7.5 9.66602 -7.5 18.999c0 10 2.5 17.167 7.5 21.5s9.16699 6.5 12.5 6.5h132c68.667 0 116.667 -23 144 -69c16 23.333 37 40.833 63 52.5s55 17.5 87 17.5h30c22 0 43.167 -3.66699 63.5 -11s38.5 -18 54.5 -32s28.667 -31.667 38 -53
s14 -46 14 -74v-59c0 -6.66699 -2.16699 -13.667 -6.5 -21s-12.5 -11 -24.5 -11h-296v-31c0 -20.667 3.33301 -38.334 10 -53.001s15.5 -26.5 26.5 -35.5s23.333 -15.5 37 -19.5s27.834 -6 42.501 -6h150c5.33301 0 10.166 -1.66699 14.499 -5s6.5 -10 6.5 -20
s-2.5 -17.167 -7.5 -21.5s-9.5 -6.5 -13.5 -6.5h-151c-30 -0 -57.333 5.83301 -82 17.5s-44.334 29.167 -59.001 52.5c-15.333 -23.333 -35.166 -40.833 -59.499 -52.5s-51.5 -17.5 -81.5 -17.5h-106zM378 217.002h-210c-21.333 0 -39.166 -7.16699 -53.499 -21.5
s-21.5 -32.166 -21.5 -53.499v-11c0 -9.33301 1.33301 -18.5 4 -27.5s7 -17.333 13 -25s13.667 -13.834 23 -18.501s20.666 -7 33.999 -7h96c14 0 27.667 2 41 6s25.333 10.167 36 18.5s19.5 19.333 26.5 33s10.833 30.5 11.5 50.5v56zM705 289.002
c0 21.333 -3.33203 39.3359 -9.99902 54.0029s-15.5 26.667 -26.5 36s-23.667 16.166 -38 20.499s-28.833 6.5 -43.5 6.5h-40c-14.667 0 -29 -2.16699 -43 -6.5s-26.333 -11.333 -37 -21s-19.334 -21.834 -26.001 -36.501s-10 -32.334 -10 -53.001v-40h274v40z" />
    <glyph glyph-name="ccedilla" unicode="&#xe7;" horiz-adv-x="390" 
d="M240 -165c16.667 0 28.8301 3.83301 36.4971 11.5s11.5 16.5 11.5 26.5c0 6.66699 -2.5 14.5 -7.5 23.5s-15.167 13.5 -30.5 13.5h-37c-15.333 0 -23 5.66699 -23 17c0 2.66699 0.333008 5.33398 1 8.00098s1.66699 5.66699 3 9l21 56c-24.667 0 -47.5 3.66699 -68.5 11
s-39 18 -54 32s-26.667 31.333 -35 52s-12.5 44.667 -12.5 72v122c0 28 4.5 52.667 13.5 74s21.333 39 37 53s33.667 24.667 54 32s42.166 11 65.499 11h130c2.66699 0 6.33398 -2.16699 11.001 -6.5s7 -11.5 7 -21.5s-2.16699 -16.833 -6.5 -20.5
s-8.16602 -5.5 -11.499 -5.5h-129c-15.333 0 -30 -2.5 -44 -7.5s-26.5 -12.333 -37.5 -22s-19.833 -21.834 -26.5 -36.501s-10 -31.334 -10 -50.001v-122c0 -20 3.5 -37.167 10.5 -51.5s16 -26.166 27 -35.499s23.5 -16.166 37.5 -20.499s28.333 -6.5 43 -6.5h134
c3.33301 0 7.16602 -1.66699 11.499 -5s6.5 -10 6.5 -20c0 -9.33301 -2.33301 -16.333 -7 -21s-8.66699 -7 -12 -7h-100l-20 -55h26c22.667 0 40.5 -6.16699 53.5 -18.5s19.5 -29.5 19.5 -51.5c0 -8.66699 -1.66699 -17.5 -5 -26.5s-8.66602 -17.167 -15.999 -24.5
s-16.666 -13.333 -27.999 -18s-24.666 -7 -39.999 -7c-4 0 -10.167 0.5 -18.5 1.5s-17 2.66699 -26 5s-16.833 5.66602 -23.5 9.99902s-10 9.83301 -10 16.5c0 7.33301 2.5 12.5 7.5 15.5s8.83301 4.5 11.5 4.5c3.33301 0 5.33301 -0.333008 6 -1
c12.667 -7.33301 23.167 -11.833 31.5 -13.5s15.833 -2.5 22.5 -2.5z" />
    <glyph glyph-name="egrave" unicode="&#xe8;" horiz-adv-x="460" 
d="M98 198l0.000976562 -30.999c0 -20.667 3.33301 -38.334 10 -53.001s15.5 -26.5 26.5 -35.5s23.333 -15.5 37 -19.5s27.834 -6 42.501 -6h145c5.33301 0 10.166 -1.66699 14.499 -5s6.5 -10 6.5 -20s-2.5 -17.167 -7.5 -21.5s-9.5 -6.5 -13.5 -6.5h-146
c-23.333 0 -45.333 3.66699 -66 11s-38.5 18.166 -53.5 32.499s-26.833 31.833 -35.5 52.5s-13 44.334 -13 71.001v122c0 27.333 4.66699 51.5 14 72.5s22.166 38.833 38.499 53.5s35.5 25.667 57.5 33s45.333 11 70 11h25c22 0 43.167 -3.66699 63.5 -11s38.5 -18 54.5 -32
s28.667 -31.667 38 -53s14 -46 14 -74v-59c0 -6.66699 -2.16699 -13.667 -6.5 -21s-12.5 -11 -24.5 -11h-291zM367.001 289.001c0 21.333 -3.33203 39.3359 -9.99902 54.0029s-15.5 26.667 -26.5 36s-23.667 16.166 -38 20.499s-28.833 6.5 -43.5 6.5h-35
c-14.667 0 -29 -2.16699 -43 -6.5s-26.333 -11.333 -37 -21s-19.334 -21.834 -26.001 -36.501s-10 -32.334 -10 -53.001v-40h269v40zM138.002 657.004c-2.66699 4 -4 8 -4 12c0 8 3.16699 15.667 9.5 23s14.5 11 24.5 11s17 -3.33301 21 -10l75 -133l4 -8
c1.33301 -2.66699 2 -5.66699 2 -9s-1.83301 -7 -5.5 -11s-8.5 -6 -14.5 -6c-4 0 -7.83301 1 -11.5 3s-7.16699 4.66699 -10.5 8z" />
    <glyph glyph-name="eacute" unicode="&#xe9;" horiz-adv-x="460" 
d="M98 198l0.000976562 -30.999c0 -20.667 3.33301 -38.334 10 -53.001s15.5 -26.5 26.5 -35.5s23.333 -15.5 37 -19.5s27.834 -6 42.501 -6h145c5.33301 0 10.166 -1.66699 14.499 -5s6.5 -10 6.5 -20s-2.5 -17.167 -7.5 -21.5s-9.5 -6.5 -13.5 -6.5h-146
c-23.333 0 -45.333 3.66699 -66 11s-38.5 18.166 -53.5 32.499s-26.833 31.833 -35.5 52.5s-13 44.334 -13 71.001v122c0 27.333 4.66699 51.5 14 72.5s22.166 38.833 38.499 53.5s35.5 25.667 57.5 33s45.333 11 70 11h25c22 0 43.167 -3.66699 63.5 -11s38.5 -18 54.5 -32
s28.667 -31.667 38 -53s14 -46 14 -74v-59c0 -6.66699 -2.16699 -13.667 -6.5 -21s-12.5 -11 -24.5 -11h-291zM367.001 289.001c0 21.333 -3.33203 39.3359 -9.99902 54.0029s-15.5 26.667 -26.5 36s-23.667 16.166 -38 20.499s-28.833 6.5 -43.5 6.5h-35
c-14.667 0 -29 -2.16699 -43 -6.5s-26.333 -11.333 -37 -21s-19.334 -21.834 -26.001 -36.501s-10 -32.334 -10 -53.001v-40h269v40zM242.002 537.004c-3.33301 -3.33301 -6.66699 -6 -10 -8s-7.33301 -3 -12 -3c-6 0 -10.833 2 -14.5 6s-5.5 7.66699 -5.5 11
s0.666992 6.33301 2 9l4 8l75 133c4 6.66699 11 10 21 10s18.167 -3.66699 24.5 -11s9.5 -15 9.5 -23c0 -5.33301 -1.33301 -9.33301 -4 -12z" />
    <glyph glyph-name="ecircumflex" unicode="&#xea;" horiz-adv-x="460" 
d="M98 198l0.000976562 -30.999c0 -20.667 3.33301 -38.334 10 -53.001s15.5 -26.5 26.5 -35.5s23.333 -15.5 37 -19.5s27.834 -6 42.501 -6h145c5.33301 0 10.166 -1.66699 14.499 -5s6.5 -10 6.5 -20s-2.5 -17.167 -7.5 -21.5s-9.5 -6.5 -13.5 -6.5h-146
c-23.333 0 -45.333 3.66699 -66 11s-38.5 18.166 -53.5 32.499s-26.833 31.833 -35.5 52.5s-13 44.334 -13 71.001v122c0 27.333 4.66699 51.5 14 72.5s22.166 38.833 38.499 53.5s35.5 25.667 57.5 33s45.333 11 70 11h25c22 0 43.167 -3.66699 63.5 -11s38.5 -18 54.5 -32
s28.667 -31.667 38 -53s14 -46 14 -74v-59c0 -6.66699 -2.16699 -13.667 -6.5 -21s-12.5 -11 -24.5 -11h-291zM367.001 289.001c0 21.333 -3.33203 39.3359 -9.99902 54.0029s-15.5 26.667 -26.5 36s-23.667 16.166 -38 20.499s-28.833 6.5 -43.5 6.5h-35
c-14.667 0 -29 -2.16699 -43 -6.5s-26.333 -11.333 -37 -21s-19.334 -21.834 -26.001 -36.501s-10 -32.334 -10 -53.001v-40h269v40zM212.002 656.004c7.33301 6 13.334 9 18.001 9h17c5.33301 0 10.666 -2.33301 15.999 -7l124 -109c3.33301 -2 5 -5.66699 5 -11
c0 -6 -2.33301 -12.167 -7 -18.5s-11.667 -9.5 -21 -9.5c-4.66699 0 -8.66699 1.33301 -12 4l-115 93l-110 -92c-3.33301 -2.66699 -8 -4 -14 -4c-10 0 -16.833 3.5 -20.5 10.5s-5.5 12.5 -5.5 16.5c0 4.66699 1 8 3 10z" />
    <glyph glyph-name="edieresis" unicode="&#xeb;" horiz-adv-x="460" 
d="M98 198l0.000976562 -30.999c0 -20.667 3.33301 -38.334 10 -53.001s15.5 -26.5 26.5 -35.5s23.333 -15.5 37 -19.5s27.834 -6 42.501 -6h145c5.33301 0 10.166 -1.66699 14.499 -5s6.5 -10 6.5 -20s-2.5 -17.167 -7.5 -21.5s-9.5 -6.5 -13.5 -6.5h-146
c-23.333 0 -45.333 3.66699 -66 11s-38.5 18.166 -53.5 32.499s-26.833 31.833 -35.5 52.5s-13 44.334 -13 71.001v122c0 27.333 4.66699 51.5 14 72.5s22.166 38.833 38.499 53.5s35.5 25.667 57.5 33s45.333 11 70 11h25c22 0 43.167 -3.66699 63.5 -11s38.5 -18 54.5 -32
s28.667 -31.667 38 -53s14 -46 14 -74v-59c0 -6.66699 -2.16699 -13.667 -6.5 -21s-12.5 -11 -24.5 -11h-291zM367.001 289.001c0 21.333 -3.33203 39.3359 -9.99902 54.0029s-15.5 26.667 -26.5 36s-23.667 16.166 -38 20.499s-28.833 6.5 -43.5 6.5h-35
c-14.667 0 -29 -2.16699 -43 -6.5s-26.333 -11.333 -37 -21s-19.334 -21.834 -26.001 -36.501s-10 -32.334 -10 -53.001v-40h269v40zM330.002 547.004c-9.33301 0 -17 3.33398 -23 10.001s-9 14.667 -9 24c0 11.333 3 19.666 9 24.999s13 8.33301 21 9
c9.33301 0 17.333 -2.66699 24 -8s10 -14 10 -26c0 -10 -3.16699 -18.167 -9.5 -24.5s-13.833 -9.5 -22.5 -9.5zM157.002 547.005c-8.66699 0 -16.332 3.33398 -22.999 10.001s-10 14.667 -10 24c0 11.333 3.16699 19.666 9.5 24.999s13.5 8.33301 21.5 9
c9.33301 0 17.166 -2.66699 23.499 -8s9.5 -14 9.5 -26c0 -10 -2.83301 -18.167 -8.5 -24.5s-13.167 -9.5 -22.5 -9.5z" />
    <glyph glyph-name="igrave" unicode="&#xec;" horiz-adv-x="280" 
d="M169 -5c-10 0 -17 2.16699 -21 6.5s-6 9.16602 -6 14.499v390h-101c-4 0 -8.33301 1.83301 -13 5.5s-7 10.834 -7 21.501c0 9.33301 2 16 6 20s8.66699 6 14 6h128c10 0 16.833 -2.33301 20.5 -7s5.5 -9.33398 5.5 -14.001v-422c0 -5.33301 -2 -10.166 -6 -14.499
s-10.667 -6.5 -20 -6.5zM47 657c-2.66699 4 -4 8 -4 12c0 8 3.16699 15.667 9.5 23s14.5 11 24.5 11s17 -3.33301 21 -10l75 -133l4 -8c1.33301 -2.66699 2 -5.66699 2 -9s-1.83301 -7 -5.5 -11s-8.5 -6 -14.5 -6c-4 0 -7.83301 1 -11.5 3s-7.16699 4.66699 -10.5 8z" />
    <glyph glyph-name="iacute" unicode="&#xed;" horiz-adv-x="280" 
d="M169 -5c-10 0 -17 2.16699 -21 6.5s-6 9.16602 -6 14.499v390h-101c-4 0 -8.33301 1.83301 -13 5.5s-7 10.834 -7 21.501c0 9.33301 2 16 6 20s8.66699 6 14 6h128c10 0 16.833 -2.33301 20.5 -7s5.5 -9.33398 5.5 -14.001v-422c0 -5.33301 -2 -10.166 -6 -14.499
s-10.667 -6.5 -20 -6.5zM155 537c-3.33301 -3.33301 -6.66699 -6 -10 -8s-7.33301 -3 -12 -3c-6 0 -10.833 2 -14.5 6s-5.5 7.66699 -5.5 11s0.666992 6.33301 2 9l4 8l75 133c4 6.66699 11 10 21 10s18.167 -3.66699 24.5 -11s9.5 -15 9.5 -23
c0 -5.33301 -1.33301 -9.33301 -4 -12z" />
    <glyph glyph-name="icircumflex" unicode="&#xee;" horiz-adv-x="286" 
d="M118 656c7.33301 6 13.334 9 18.001 9h17c5.33301 0 10.666 -2.33301 15.999 -7l124 -109c3.33301 -2 5 -5.66699 5 -11c0 -6 -2.33301 -12.167 -7 -18.5s-11.667 -9.5 -21 -9.5c-4.66699 0 -8.66699 1.33301 -12 4l-115 93l-110 -92c-3.33301 -2.66699 -8 -4 -14 -4
c-10 0 -16.833 3.5 -20.5 10.5s-5.5 12.5 -5.5 16.5c0 4.66699 1 8 3 10zM174.001 -5c-10 0 -17 2.16699 -21 6.5s-6 9.16602 -6 14.499v390h-101c-4 0 -8.33301 1.83301 -13 5.5s-7 10.834 -7 21.501c0 9.33301 2 16 6 20s8.66699 6 14 6h128c10 0 16.833 -2.33301 20.5 -7
s5.5 -9.33398 5.5 -14.001v-422c0 -5.33301 -2 -10.166 -6 -14.499s-10.667 -6.5 -20 -6.5z" />
    <glyph glyph-name="idieresis" unicode="&#xef;" horiz-adv-x="280" 
d="M236 547c-9.33301 0 -17 3.33398 -23 10.001s-9 14.667 -9 24c0 11.333 3 19.666 9 24.999s13 8.33301 21 9c9.33301 0 17.333 -2.66699 24 -8s10 -14 10 -26c0 -10 -3.16699 -18.167 -9.5 -24.5s-13.833 -9.5 -22.5 -9.5zM63 547.001
c-8.66699 0 -16.332 3.33398 -22.999 10.001s-10 14.667 -10 24c0 11.333 3.16699 19.666 9.5 24.999s13.5 8.33301 21.5 9c9.33301 0 17.166 -2.66699 23.499 -8s9.5 -14 9.5 -26c0 -10 -2.83301 -18.167 -8.5 -24.5s-13.167 -9.5 -22.5 -9.5zM169.002 -4.99805
c-10 0 -17 2.16699 -21 6.5s-6 9.16602 -6 14.499v390h-101c-4 0 -8.33301 1.83301 -13 5.5s-7 10.834 -7 21.501c0 9.33301 2 16 6 20s8.66699 6 14 6h128c10 0 16.833 -2.33301 20.5 -7s5.5 -9.33398 5.5 -14.001v-422c0 -5.33301 -2 -10.166 -6 -14.499
s-10.667 -6.5 -20 -6.5z" />
    <glyph glyph-name="eth" unicode="&#xf0;" horiz-adv-x="508" 
d="M248 520c-4 6 -6.00293 11.3281 -6.00293 15.9951c0 6.66699 3.66699 12.667 11 18l71 51c-15.333 9.33301 -34.166 16.5 -56.499 21.5s-50.5 8.16699 -84.5 9.5c-4.66699 0.666992 -9.5 2.33398 -14.5 5.00098s-7.5 8.66699 -7.5 18c0 10.667 2.83301 17.834 8.5 21.501
s11.167 5.5 16.5 5.5c44.667 -1.33301 81.834 -6.16602 111.501 -14.499s53.5 -19.5 71.5 -33.5l45 33c6.66699 4.66699 12.334 7 17.001 7c5.33301 0 10.5 -3 15.5 -9s7.5 -11.667 7.5 -17c0 -6.66699 -4 -13 -12 -19l-41 -30c10 -15.333 16.833 -32.166 20.5 -50.499
s5.5 -37.166 5.5 -56.499v-329c0 -27.333 -4.66699 -51.333 -14 -72s-22 -38 -38 -52s-34.833 -24.667 -56.5 -32s-44.5 -11 -68.5 -11h-34c-24.667 0 -47.334 3.66699 -68.001 11s-38.667 18 -54 32s-27.333 31.333 -36 52s-13 44.667 -13 72v122
c0 54.667 14.667 96.667 44 126s72.333 44 129 44h42c23.333 0 45.333 -3.83301 66 -11.5s36.667 -19.5 48 -35.5v86c0 14 -1.33301 27.167 -4 39.5s-7 23.5 -13 33.5l-76 -55c-7.33301 -4.66699 -12.666 -7 -15.999 -7c-6 0 -11.667 3.66699 -17 11zM373.997 294.995
c-0.666992 20 -4.5 37.167 -11.5 51.5s-16 26 -27 35s-23.333 15.5 -37 19.5s-27.834 6 -42.501 6h-42c-34.667 0 -62.667 -9.16699 -84 -27.5s-32 -48.5 -32 -90.5v-122c0 -20.667 3.33301 -38.334 10 -53.001s15.5 -26.5 26.5 -35.5s23.333 -15.667 37 -20
s27.834 -6.5 42.501 -6.5h42c14.667 0 29 2.16699 43 6.5s26.5 11 37.5 20s20 20.833 27 35.5s10.5 32.334 10.5 53.001v128z" />
    <glyph glyph-name="ntilde" unicode="&#xf1;" horiz-adv-x="489" 
d="M412 -5c-10 0 -17.001 2 -21.001 6s-6 9 -6 15v273c0 21.333 -3.33301 39.333 -10 54s-15.5 26.667 -26.5 36s-23.667 16.166 -38 20.499s-28.833 6.5 -43.5 6.5h-161v-390c0 -5.33301 -2 -10.166 -6 -14.499s-10.667 -6.5 -20 -6.5s-16.166 2.16699 -20.499 6.5
s-6.5 9.16602 -6.5 14.499v411c0 6.66699 2.16699 13.667 6.5 21s12.5 11 24.5 11h184c52.667 0 94.167 -14.167 124.5 -42.5s45.5 -70.833 45.5 -127.5v-273c0 -5.33301 -2 -10.166 -6 -14.499s-10.667 -6.5 -20 -6.5zM384.999 596
c-10 -20.667 -22.6631 -34.6689 -37.9961 -42.002s-29 -11 -41 -11c-10.667 0 -21.834 1.83301 -33.501 5.5s-23 7.83398 -34 12.501s-21.833 8.83398 -32.5 12.501s-20.334 5.5 -29.001 5.5c-6 0 -11.333 -1.83301 -16 -5.5s-9.16699 -7.66699 -13.5 -12l-12 -12
c-3.66699 -3.66699 -7.5 -5.5 -11.5 -5.5c-9.33301 0 -15.833 3 -19.5 9s-5.5 10.667 -5.5 14c0 1.33301 0.166992 2.5 0.5 3.5s0.5 1.83301 0.5 2.5c8.66699 15.333 19 28 31 38s26 15 42 15c10 0 20.833 -2 32.5 -6l35 -12.5l34 -12.5c11 -4 20.5 -6 28.5 -6
c7.33301 0 13.666 2 18.999 6s10.166 8.5 14.499 13.5s8.66602 9.5 12.999 13.5s8.83301 6 13.5 6c8.66699 0 14.834 -2.83301 18.501 -8.5s5.5 -10.167 5.5 -13.5c0 -2.66699 -0.666992 -6 -2 -10z" />
    <glyph glyph-name="ograve" unicode="&#xf2;" horiz-adv-x="472" 
d="M213 0c-22 0 -43.168 3.66699 -63.501 11s-38.333 18 -54 32s-28 31.333 -37 52s-13.5 44.667 -13.5 72v122c0 27.333 4.5 51.5 13.5 72.5s21.333 38.833 37 53.5s34.334 25.667 56.001 33s45.5 11 71.5 11h32c24.667 0 47.5 -3.66699 68.5 -11s39.167 -18 54.5 -32
s27.333 -31.667 36 -53s13 -46 13 -74v-122c0 -27.333 -4.66699 -51.333 -14 -72s-21.833 -38 -37.5 -52s-34 -24.667 -55 -32s-42.833 -11 -65.5 -11h-42zM373.999 289c0 21.333 -3.33301 39.501 -10 54.501s-15.5 27.167 -26.5 36.5s-23.667 16.166 -38 20.499
s-28.833 6.5 -43.5 6.5h-42c-14.667 0 -29 -2.33301 -43 -7s-26.333 -11.667 -37 -21s-19.334 -21.5 -26.001 -36.5s-10 -32.833 -10 -53.5v-122c0 -20.667 3.33301 -38.334 10 -53.001s15.5 -26.5 26.5 -35.5s23.333 -15.667 37 -20s27.834 -6.5 42.501 -6.5h42
c14.667 0 29 2.16699 43 6.5s26.5 11 37.5 20s20 20.833 27 35.5s10.5 32.334 10.5 53.001v122zM150.999 657.001c-2.66699 4 -4 8 -4 12c0 8 3.16699 15.667 9.5 23s14.5 11 24.5 11s17 -3.33301 21 -10l75 -133l4 -8c1.33301 -2.66699 2 -5.66699 2 -9
s-1.83301 -7 -5.5 -11s-8.5 -6 -14.5 -6c-4 0 -7.83301 1 -11.5 3s-7.16699 4.66699 -10.5 8z" />
    <glyph glyph-name="oacute" unicode="&#xf3;" horiz-adv-x="472" 
d="M213 0c-22 0 -43.168 3.66699 -63.501 11s-38.333 18 -54 32s-28 31.333 -37 52s-13.5 44.667 -13.5 72v122c0 27.333 4.5 51.5 13.5 72.5s21.333 38.833 37 53.5s34.334 25.667 56.001 33s45.5 11 71.5 11h32c24.667 0 47.5 -3.66699 68.5 -11s39.167 -18 54.5 -32
s27.333 -31.667 36 -53s13 -46 13 -74v-122c0 -27.333 -4.66699 -51.333 -14 -72s-21.833 -38 -37.5 -52s-34 -24.667 -55 -32s-42.833 -11 -65.5 -11h-42zM373.999 289c0 21.333 -3.33301 39.501 -10 54.501s-15.5 27.167 -26.5 36.5s-23.667 16.166 -38 20.499
s-28.833 6.5 -43.5 6.5h-42c-14.667 0 -29 -2.33301 -43 -7s-26.333 -11.667 -37 -21s-19.334 -21.5 -26.001 -36.5s-10 -32.833 -10 -53.5v-122c0 -20.667 3.33301 -38.334 10 -53.001s15.5 -26.5 26.5 -35.5s23.333 -15.667 37 -20s27.834 -6.5 42.501 -6.5h42
c14.667 0 29 2.16699 43 6.5s26.5 11 37.5 20s20 20.833 27 35.5s10.5 32.334 10.5 53.001v122zM232.999 537.001c-3.33301 -3.33301 -6.66699 -6 -10 -8s-7.33301 -3 -12 -3c-6 0 -10.833 2 -14.5 6s-5.5 7.66699 -5.5 11s0.666992 6.33301 2 9l4 8l75 133
c4 6.66699 11 10 21 10s18.167 -3.66699 24.5 -11s9.5 -15 9.5 -23c0 -5.33301 -1.33301 -9.33301 -4 -12z" />
    <glyph glyph-name="ocircumflex" unicode="&#xf4;" horiz-adv-x="472" 
d="M213 0c-22 0 -43.168 3.66699 -63.501 11s-38.333 18 -54 32s-28 31.333 -37 52s-13.5 44.667 -13.5 72v122c0 27.333 4.5 51.5 13.5 72.5s21.333 38.833 37 53.5s34.334 25.667 56.001 33s45.5 11 71.5 11h32c24.667 0 47.5 -3.66699 68.5 -11s39.167 -18 54.5 -32
s27.333 -31.667 36 -53s13 -46 13 -74v-122c0 -27.333 -4.66699 -51.333 -14 -72s-21.833 -38 -37.5 -52s-34 -24.667 -55 -32s-42.833 -11 -65.5 -11h-42zM373.999 289c0 21.333 -3.33301 39.501 -10 54.501s-15.5 27.167 -26.5 36.5s-23.667 16.166 -38 20.499
s-28.833 6.5 -43.5 6.5h-42c-14.667 0 -29 -2.33301 -43 -7s-26.333 -11.667 -37 -21s-19.334 -21.5 -26.001 -36.5s-10 -32.833 -10 -53.5v-122c0 -20.667 3.33301 -38.334 10 -53.001s15.5 -26.5 26.5 -35.5s23.333 -15.667 37 -20s27.834 -6.5 42.501 -6.5h42
c14.667 0 29 2.16699 43 6.5s26.5 11 37.5 20s20 20.833 27 35.5s10.5 32.334 10.5 53.001v122zM202.999 656.001c7.33301 6 13.334 9 18.001 9h17c5.33301 0 10.666 -2.33301 15.999 -7l124 -109c3.33301 -2 5 -5.66699 5 -11c0 -6 -2.33301 -12.167 -7 -18.5
s-11.667 -9.5 -21 -9.5c-4.66699 0 -8.66699 1.33301 -12 4l-115 93l-110 -92c-3.33301 -2.66699 -8 -4 -14 -4c-10 0 -16.833 3.5 -20.5 10.5s-5.5 12.5 -5.5 16.5c0 4.66699 1 8 3 10z" />
    <glyph glyph-name="otilde" unicode="&#xf5;" horiz-adv-x="472" 
d="M213 0c-22 0 -43.168 3.66699 -63.501 11s-38.333 18 -54 32s-28 31.333 -37 52s-13.5 44.667 -13.5 72v122c0 27.333 4.5 51.5 13.5 72.5s21.333 38.833 37 53.5s34.334 25.667 56.001 33s45.5 11 71.5 11h32c24.667 0 47.5 -3.66699 68.5 -11s39.167 -18 54.5 -32
s27.333 -31.667 36 -53s13 -46 13 -74v-122c0 -27.333 -4.66699 -51.333 -14 -72s-21.833 -38 -37.5 -52s-34 -24.667 -55 -32s-42.833 -11 -65.5 -11h-42zM373.999 289c0 21.333 -3.33301 39.501 -10 54.501s-15.5 27.167 -26.5 36.5s-23.667 16.166 -38 20.499
s-28.833 6.5 -43.5 6.5h-42c-14.667 0 -29 -2.33301 -43 -7s-26.333 -11.667 -37 -21s-19.334 -21.5 -26.001 -36.5s-10 -32.833 -10 -53.5v-122c0 -20.667 3.33301 -38.334 10 -53.001s15.5 -26.5 26.5 -35.5s23.333 -15.667 37 -20s27.834 -6.5 42.501 -6.5h42
c14.667 0 29 2.16699 43 6.5s26.5 11 37.5 20s20 20.833 27 35.5s10.5 32.334 10.5 53.001v122zM379.999 596.001c-10 -20.667 -22.6631 -34.6689 -37.9961 -42.002s-29 -11 -41 -11c-10.667 0 -21.834 1.83301 -33.501 5.5s-23 7.83398 -34 12.501
s-21.833 8.83398 -32.5 12.501s-20.334 5.5 -29.001 5.5c-6 0 -11.333 -1.83301 -16 -5.5s-9.16699 -7.66699 -13.5 -12l-12 -12c-3.66699 -3.66699 -7.5 -5.5 -11.5 -5.5c-9.33301 0 -15.833 3 -19.5 9s-5.5 10.667 -5.5 14c0 1.33301 0.166992 2.5 0.5 3.5
s0.5 1.83301 0.5 2.5c8.66699 15.333 19 28 31 38s26 15 42 15c10 0 20.833 -2 32.5 -6l35 -12.5l34 -12.5c11 -4 20.5 -6 28.5 -6c7.33301 0 13.666 2 18.999 6s10.166 8.5 14.499 13.5s8.66602 9.5 12.999 13.5s8.83301 6 13.5 6c8.66699 0 14.834 -2.83301 18.501 -8.5
s5.5 -10.167 5.5 -13.5c0 -2.66699 -0.666992 -6 -2 -10z" />
    <glyph glyph-name="odieresis" unicode="&#xf6;" horiz-adv-x="472" 
d="M213 0c-22 0 -43.168 3.66699 -63.501 11s-38.333 18 -54 32s-28 31.333 -37 52s-13.5 44.667 -13.5 72v122c0 27.333 4.5 51.5 13.5 72.5s21.333 38.833 37 53.5s34.334 25.667 56.001 33s45.5 11 71.5 11h32c24.667 0 47.5 -3.66699 68.5 -11s39.167 -18 54.5 -32
s27.333 -31.667 36 -53s13 -46 13 -74v-122c0 -27.333 -4.66699 -51.333 -14 -72s-21.833 -38 -37.5 -52s-34 -24.667 -55 -32s-42.833 -11 -65.5 -11h-42zM373.999 289c0 21.333 -3.33301 39.501 -10 54.501s-15.5 27.167 -26.5 36.5s-23.667 16.166 -38 20.499
s-28.833 6.5 -43.5 6.5h-42c-14.667 0 -29 -2.33301 -43 -7s-26.333 -11.667 -37 -21s-19.334 -21.5 -26.001 -36.5s-10 -32.833 -10 -53.5v-122c0 -20.667 3.33301 -38.334 10 -53.001s15.5 -26.5 26.5 -35.5s23.333 -15.667 37 -20s27.834 -6.5 42.501 -6.5h42
c14.667 0 29 2.16699 43 6.5s26.5 11 37.5 20s20 20.833 27 35.5s10.5 32.334 10.5 53.001v122zM326.999 547.001c-9.33301 0 -17 3.33398 -23 10.001s-9 14.667 -9 24c0 11.333 3 19.666 9 24.999s13 8.33301 21 9c9.33301 0 17.333 -2.66699 24 -8s10 -14 10 -26
c0 -10 -3.16699 -18.167 -9.5 -24.5s-13.833 -9.5 -22.5 -9.5zM153.999 547.002c-8.66699 0 -16.332 3.33398 -22.999 10.001s-10 14.667 -10 24c0 11.333 3.16699 19.666 9.5 24.999s13.5 8.33301 21.5 9c9.33301 0 17.166 -2.66699 23.499 -8s9.5 -14 9.5 -26
c0 -10 -2.83301 -18.167 -8.5 -24.5s-13.167 -9.5 -22.5 -9.5z" />
    <glyph glyph-name="divide" unicode="&#xf7;" horiz-adv-x="460" 
d="M55 306c-10.667 0 -17.832 1.83301 -21.499 5.5s-5.5 10.834 -5.5 21.501s2 18 6 22s11 6 21 6h349c10 0 17 -2 21 -6s6 -11.333 6 -22s-1.83301 -17.834 -5.5 -21.501s-10.834 -5.5 -21.501 -5.5h-349zM229.002 141c-11.333 0 -21 4.5 -29 13.5s-12 19.167 -12 30.5
c0 13.333 3.83301 24 11.5 32s16.5 12 26.5 12c12 0 22.333 -3.5 31 -10.5s13 -18.167 13 -33.5c0 -13.333 -4 -24 -12 -32s-17.667 -12 -29 -12zM231.002 437c-11.333 0 -21.332 4.5 -29.999 13.5s-13 19.167 -13 30.5c0 13.333 4.16699 24 12.5 32s17.833 12 28.5 12
c11.333 0 21.166 -3.5 29.499 -10.5s12.5 -18.167 12.5 -33.5c0 -13.333 -3.83301 -24 -11.5 -32s-17.167 -12 -28.5 -12z" />
    <glyph glyph-name="oslash" unicode="&#xf8;" horiz-adv-x="472" 
d="M213 0c-21.333 0 -42.0029 3.33301 -62.0029 10s-37.667 16.667 -53 30l-23 -26c-5.33301 -6.66699 -10 -10 -14 -10s-8.66699 2.66699 -14 8c-6 4.66699 -9 9 -9 13s2.66699 8.66699 8 14l26 30c-18 27.333 -27 60 -27 98v122c0 27.333 4.5 51.5 13.5 72.5
s21.333 38.833 37 53.5s34.334 25.667 56.001 33s45.5 11 71.5 11h32c48.667 0 88.334 -13.333 119.001 -40l24 27c4.66699 6.66699 9.33398 10 14.001 10c3.33301 0 8 -2.5 14 -7.5s9 -9.83301 9 -14.5c0 -3.33301 -2.33301 -8 -7 -14l-28 -32
c18 -27.333 27 -60.333 27 -99v-122c0 -27.333 -4.66699 -51.333 -14 -72s-21.833 -38 -37.5 -52s-34 -24.667 -55 -32s-42.833 -11 -65.5 -11h-42zM213.997 407c-14.667 0 -29.001 -2.33301 -43.001 -7s-26.333 -11.667 -37 -21s-19.334 -21.5 -26.001 -36.5
s-10 -32.833 -10 -53.5v-122c0 -21.333 3.66699 -40 11 -56l230 267c-11.333 10 -24.166 17.333 -38.499 22s-29.166 7 -44.499 7h-42zM373.996 289c0 21.333 -3.66699 39.999 -11 55.999l-231 -265c11.333 -10 24 -17.167 38 -21.5s28.667 -6.5 44 -6.5h42
c14.667 0 29 2.16699 43 6.5s26.5 11 37.5 20s20 20.833 27 35.5s10.5 32.334 10.5 53.001v122z" />
    <glyph glyph-name="ugrave" unicode="&#xf9;" horiz-adv-x="488" 
d="M222 0c-52.667 0 -94.332 14.168 -124.999 42.501s-46 70.833 -46 127.5v274c0 5.33301 2 10.166 6 14.499s10.667 6.5 20 6.5c10 0 17.167 -2.33301 21.5 -7s6.5 -9.33398 6.5 -14.001v-274c0 -21.333 3.33301 -39.333 10 -54s15.5 -26.667 26.5 -36
s23.5 -16.166 37.5 -20.499s28.667 -6.5 44 -6.5h159v388c0 5.33301 2 10.166 6 14.499s10.667 6.5 20 6.5s16.166 -2.16699 20.499 -6.5s6.5 -9.16602 6.5 -14.499v-409c0 -6.66699 -2.16699 -13.667 -6.5 -21s-12.5 -11 -24.5 -11h-182zM146.002 657.001
c-2.66699 4 -4 8 -4 12c0 8 3.16699 15.667 9.5 23s14.5 11 24.5 11s17 -3.33301 21 -10l75 -133l4 -8c1.33301 -2.66699 2 -5.66699 2 -9s-1.83301 -7 -5.5 -11s-8.5 -6 -14.5 -6c-4 0 -7.83301 1 -11.5 3s-7.16699 4.66699 -10.5 8z" />
    <glyph glyph-name="uacute" unicode="&#xfa;" horiz-adv-x="488" 
d="M222 0c-52.667 0 -94.332 14.168 -124.999 42.501s-46 70.833 -46 127.5v274c0 5.33301 2 10.166 6 14.499s10.667 6.5 20 6.5c10 0 17.167 -2.33301 21.5 -7s6.5 -9.33398 6.5 -14.001v-274c0 -21.333 3.33301 -39.333 10 -54s15.5 -26.667 26.5 -36
s23.5 -16.166 37.5 -20.499s28.667 -6.5 44 -6.5h159v388c0 5.33301 2 10.166 6 14.499s10.667 6.5 20 6.5s16.166 -2.16699 20.499 -6.5s6.5 -9.16602 6.5 -14.499v-409c0 -6.66699 -2.16699 -13.667 -6.5 -21s-12.5 -11 -24.5 -11h-182zM242.002 537.001
c-3.33301 -3.33301 -6.66699 -6 -10 -8s-7.33301 -3 -12 -3c-6 0 -10.833 2 -14.5 6s-5.5 7.66699 -5.5 11s0.666992 6.33301 2 9l4 8l75 133c4 6.66699 11 10 21 10s18.167 -3.66699 24.5 -11s9.5 -15 9.5 -23c0 -5.33301 -1.33301 -9.33301 -4 -12z" />
    <glyph glyph-name="ucircumflex" unicode="&#xfb;" horiz-adv-x="488" 
d="M222 0c-52.667 0 -94.332 14.168 -124.999 42.501s-46 70.833 -46 127.5v274c0 5.33301 2 10.166 6 14.499s10.667 6.5 20 6.5c10 0 17.167 -2.33301 21.5 -7s6.5 -9.33398 6.5 -14.001v-274c0 -21.333 3.33301 -39.333 10 -54s15.5 -26.667 26.5 -36
s23.5 -16.166 37.5 -20.499s28.667 -6.5 44 -6.5h159v388c0 5.33301 2 10.166 6 14.499s10.667 6.5 20 6.5s16.166 -2.16699 20.499 -6.5s6.5 -9.16602 6.5 -14.499v-409c0 -6.66699 -2.16699 -13.667 -6.5 -21s-12.5 -11 -24.5 -11h-182zM216.002 656.001
c7.33301 6 13.334 9 18.001 9h17c5.33301 0 10.666 -2.33301 15.999 -7l124 -109c3.33301 -2 5 -5.66699 5 -11c0 -6 -2.33301 -12.167 -7 -18.5s-11.667 -9.5 -21 -9.5c-4.66699 0 -8.66699 1.33301 -12 4l-115 93l-110 -92c-3.33301 -2.66699 -8 -4 -14 -4
c-10 0 -16.833 3.5 -20.5 10.5s-5.5 12.5 -5.5 16.5c0 4.66699 1 8 3 10z" />
    <glyph glyph-name="udieresis" unicode="&#xfc;" horiz-adv-x="488" 
d="M222 0c-52.667 0 -94.332 14.168 -124.999 42.501s-46 70.833 -46 127.5v274c0 5.33301 2 10.166 6 14.499s10.667 6.5 20 6.5c10 0 17.167 -2.33301 21.5 -7s6.5 -9.33398 6.5 -14.001v-274c0 -21.333 3.33301 -39.333 10 -54s15.5 -26.667 26.5 -36
s23.5 -16.166 37.5 -20.499s28.667 -6.5 44 -6.5h159v388c0 5.33301 2 10.166 6 14.499s10.667 6.5 20 6.5s16.166 -2.16699 20.499 -6.5s6.5 -9.16602 6.5 -14.499v-409c0 -6.66699 -2.16699 -13.667 -6.5 -21s-12.5 -11 -24.5 -11h-182zM334.002 547.001
c-9.33301 0 -17 3.33398 -23 10.001s-9 14.667 -9 24c0 11.333 3 19.666 9 24.999s13 8.33301 21 9c9.33301 0 17.333 -2.66699 24 -8s10 -14 10 -26c0 -10 -3.16699 -18.167 -9.5 -24.5s-13.833 -9.5 -22.5 -9.5zM161.002 547.002
c-8.66699 0 -16.332 3.33398 -22.999 10.001s-10 14.667 -10 24c0 11.333 3.16699 19.666 9.5 24.999s13.5 8.33301 21.5 9c9.33301 0 17.166 -2.66699 23.499 -8s9.5 -14 9.5 -26c0 -10 -2.83301 -18.167 -8.5 -24.5s-13.167 -9.5 -22.5 -9.5z" />
    <glyph glyph-name="yacute" unicode="&#xfd;" horiz-adv-x="490" 
d="M433 -41c0 -53.333 -15.667 -94.167 -47 -122.5s-71.333 -42.5 -120 -42.5h-147c-4.66699 0 -9.16699 2.16699 -13.5 6.5s-6.5 11.5 -6.5 21.5c0 9.33301 2.16699 15.666 6.5 18.999s9.16602 5 14.499 5h145c14.667 0 28.834 2 42.501 6s25.834 10.5 36.501 19.5
s19.334 20.667 26.001 35s10 31.833 10 52.5v41h-162c-23.333 0 -45.333 3.5 -66 10.5s-38.667 17.667 -54 32s-27.5 32 -36.5 53s-13.5 45.5 -13.5 73.5v275c0 6 2 11 6 15s10.667 6 20 6s16.166 -2.16699 20.499 -6.5s6.5 -9.16602 6.5 -14.499v-275
c0 -21.333 3.33301 -39.333 10 -54s15.5 -26.5 26.5 -35.5s23.5 -15.667 37.5 -20s28.667 -6.5 44 -6.5h162v391c0 5.33301 2 10.166 6 14.499s10.667 6.5 20 6.5s16.166 -2.16699 20.499 -6.5s6.5 -9.16602 6.5 -14.499v-120.5v-91.5c0 -26.667 -0.166992 -50.667 -0.5 -72
s-0.5 -42.333 -0.5 -63v-64v-74zM233 536.999c-3.33301 -3.33301 -6.66699 -6 -10 -8s-7.33301 -3 -12 -3c-6 0 -10.833 2 -14.5 6s-5.5 7.66699 -5.5 11s0.666992 6.33301 2 9l4 8l75 133c4 6.66699 11 10 21 10s18.167 -3.66699 24.5 -11s9.5 -15 9.5 -23
c0 -5.33301 -1.33301 -9.33301 -4 -12z" />
    <glyph glyph-name="thorn" unicode="&#xfe;" horiz-adv-x="474" 
d="M45 676c0 14 9.00098 21 27.001 21c10 0 16.833 -1.66699 20.5 -5s5.5 -9 5.5 -17v-216h159c53.333 0 95.333 -14 126 -42s46 -69 46 -123v-125c0 -28 -4.5 -52.5 -13.5 -73.5s-21.167 -38.667 -36.5 -53s-33.333 -25 -54 -32s-42.334 -10.5 -65.001 -10.5h-162v-201
c0 -8 -1.83301 -13.667 -5.5 -17s-10.5 -5 -20.5 -5c-18 0 -27 7 -27 21v878zM376.001 294c0 20.667 -3.33301 38.167 -10 52.5s-15.5 26 -26.5 35s-23.5 15.667 -37.5 20s-28.333 6.5 -43 6.5h-161v-355h161c14.667 0 29 2.16699 43 6.5s26.5 11 37.5 20
s19.833 20.833 26.5 35.5s10 32.667 10 54v125z" />
    <glyph glyph-name="ydieresis" unicode="&#xff;" horiz-adv-x="490" 
d="M433 -41c0 -53.333 -15.667 -94.167 -47 -122.5s-71.333 -42.5 -120 -42.5h-147c-4.66699 0 -9.16699 2.16699 -13.5 6.5s-6.5 11.5 -6.5 21.5c0 9.33301 2.16699 15.666 6.5 18.999s9.16602 5 14.499 5h145c14.667 0 28.834 2 42.501 6s25.834 10.5 36.501 19.5
s19.334 20.667 26.001 35s10 31.833 10 52.5v41h-162c-23.333 0 -45.333 3.5 -66 10.5s-38.667 17.667 -54 32s-27.5 32 -36.5 53s-13.5 45.5 -13.5 73.5v275c0 6 2 11 6 15s10.667 6 20 6s16.166 -2.16699 20.499 -6.5s6.5 -9.16602 6.5 -14.499v-275
c0 -21.333 3.33301 -39.333 10 -54s15.5 -26.5 26.5 -35.5s23.5 -15.667 37.5 -20s28.667 -6.5 44 -6.5h162v391c0 5.33301 2 10.166 6 14.499s10.667 6.5 20 6.5s16.166 -2.16699 20.499 -6.5s6.5 -9.16602 6.5 -14.499v-120.5v-91.5c0 -26.667 -0.166992 -50.667 -0.5 -72
s-0.5 -42.333 -0.5 -63v-64v-74zM336 546.999c-9.33301 0 -17 3.33398 -23 10.001s-9 14.667 -9 24c0 11.333 3 19.666 9 24.999s13 8.33301 21 9c9.33301 0 17.333 -2.66699 24 -8s10 -14 10 -26c0 -10 -3.16699 -18.167 -9.5 -24.5s-13.833 -9.5 -22.5 -9.5zM163 547
c-8.66699 0 -16.332 3.33398 -22.999 10.001s-10 14.667 -10 24c0 11.333 3.16699 19.666 9.5 24.999s13.5 8.33301 21.5 9c9.33301 0 17.166 -2.66699 23.499 -8s9.5 -14 9.5 -26c0 -10 -2.83301 -18.167 -8.5 -24.5s-13.167 -9.5 -22.5 -9.5z" />
    <glyph glyph-name="Amacron" unicode="&#x100;" horiz-adv-x="532" 
d="M408 156l-284.002 -0.000976562l-47 -143c-4 -11.333 -11 -17 -21 -17c-12.667 0 -21.5 2.83301 -26.5 8.5s-7.5 10.834 -7.5 15.501c0 2 0.166992 3.83301 0.5 5.5s0.833008 3.5 1.5 5.5l198 607c4 12 7.83301 19.833 11.5 23.5s10.167 5.5 19.5 5.5h29
c8.66699 0 14.834 -1.83301 18.501 -5.5s7.5 -11.5 11.5 -23.5l198 -607c1.33301 -5.33301 2 -9 2 -11c0 -4 -2.16699 -8.83301 -6.5 -14.5s-12.166 -8.5 -23.499 -8.5c-5.33301 0 -10.5 1.33301 -15.5 4s-8.5 6.66699 -10.5 12zM142.998 209.999h248l-125 396z
M171.998 719.999c-8.66699 0 -16 1.83301 -22 5.5s-9 10.834 -9 21.501c0 9.33301 2.83301 15.833 8.5 19.5s13.167 5.5 22.5 5.5h191c8.66699 0 16 -1.66699 22 -5s9 -10 9 -20c0 -10.667 -3 -17.834 -9 -21.501s-13.333 -5.5 -22 -5.5h-191z" />
    <glyph glyph-name="amacron" unicode="&#x101;" horiz-adv-x="483" 
d="M431 32c0 -10.667 -2.5 -18.667 -7.5 -24s-10.5 -8 -16.5 -8h-249c-16.667 0 -32.167 3 -46.5 9s-26.833 14.667 -37.5 26s-19 25 -25 41s-9 34 -9 54v14c0 15.333 2.66699 30.5 8 45.5s13.333 28.333 24 40s24 21.167 40 28.5s34.667 11 56 11h211v24
c0 41.333 -10.833 70.5 -32.5 87.5s-49.5 25.5 -83.5 25.5h-131c-3.33301 0 -7.5 1.66699 -12.5 5s-7.5 9.66602 -7.5 18.999c0 10 2.5 17.167 7.5 21.5s9.16699 6.5 12.5 6.5h132c54 0 95.333 -14.167 124 -42.5s43 -69.166 43 -122.499v-261zM168 217
c-21.333 0 -39.166 -7.16699 -53.499 -21.5s-21.5 -32.166 -21.5 -53.499v-11c0 -9.33301 1.33301 -18.5 4 -27.5s7 -17.333 13 -25s13.667 -13.834 23 -18.501s20.666 -7 33.999 -7h211v164h-210zM166 536c-8.66699 0 -16 1.83301 -22 5.5s-9 10.834 -9 21.501
c0 9.33301 2.83301 15.833 8.5 19.5s13.167 5.5 22.5 5.5h191c8.66699 0 16 -1.66699 22 -5s9 -10 9 -20c0 -10.667 -3 -17.834 -9 -21.501s-13.333 -5.5 -22 -5.5h-191z" />
    <glyph glyph-name="Abreve" unicode="&#x102;" horiz-adv-x="532" 
d="M408 156l-284.002 -0.000976562l-47 -143c-4 -11.333 -11 -17 -21 -17c-12.667 0 -21.5 2.83301 -26.5 8.5s-7.5 10.834 -7.5 15.501c0 2 0.166992 3.83301 0.5 5.5s0.833008 3.5 1.5 5.5l198 607c4 12 7.83301 19.833 11.5 23.5s10.167 5.5 19.5 5.5h29
c8.66699 0 14.834 -1.83301 18.501 -5.5s7.5 -11.5 11.5 -23.5l198 -607c1.33301 -5.33301 2 -9 2 -11c0 -4 -2.16699 -8.83301 -6.5 -14.5s-12.166 -8.5 -23.499 -8.5c-5.33301 0 -10.5 1.33301 -15.5 4s-8.5 6.66699 -10.5 12zM142.998 209.999h248l-125 396z
M266.998 750.999c20 0 39.335 6.33301 58.002 19s34.667 32.667 48 60c4 6.66699 10.333 10 19 10c7.33301 0 13.666 -2.5 18.999 -7.5s8 -10.167 8 -15.5c0 -2 -0.333008 -3.66699 -1 -5c-9.33301 -23.333 -20.333 -42.5 -33 -57.5s-25.667 -26.667 -39 -35
s-26.833 -14.166 -40.5 -17.499s-26.5 -5 -38.5 -5s-24.833 1.66699 -38.5 5s-27.167 9.16602 -40.5 17.499s-26.333 20 -39 35s-23.667 34.167 -33 57.5c-0.666992 1.33301 -1 3 -1 5c0 5.33301 2.66699 10.5 8 15.5s11.666 7.5 18.999 7.5c8.66699 0 15 -3.33301 19 -10
c13.333 -27.333 29.333 -47.333 48 -60s38 -19 58 -19z" />
    <glyph glyph-name="abreve" unicode="&#x103;" horiz-adv-x="483" 
d="M431 32c0 -10.667 -2.5 -18.667 -7.5 -24s-10.5 -8 -16.5 -8h-249c-16.667 0 -32.167 3 -46.5 9s-26.833 14.667 -37.5 26s-19 25 -25 41s-9 34 -9 54v14c0 15.333 2.66699 30.5 8 45.5s13.333 28.333 24 40s24 21.167 40 28.5s34.667 11 56 11h211v24
c0 41.333 -10.833 70.5 -32.5 87.5s-49.5 25.5 -83.5 25.5h-131c-3.33301 0 -7.5 1.66699 -12.5 5s-7.5 9.66602 -7.5 18.999c0 10 2.5 17.167 7.5 21.5s9.16699 6.5 12.5 6.5h132c54 0 95.333 -14.167 124 -42.5s43 -69.166 43 -122.499v-261zM168 217
c-21.333 0 -39.166 -7.16699 -53.499 -21.5s-21.5 -32.166 -21.5 -53.499v-11c0 -9.33301 1.33301 -18.5 4 -27.5s7 -17.333 13 -25s13.667 -13.834 23 -18.501s20.666 -7 33.999 -7h211v164h-210zM246 562c20 0 39.1699 7.49805 57.5029 22.498s33.833 35.167 46.5 60.5
c2 3.33301 4.5 5.66602 7.5 6.99902s6.16699 2 9.5 2c7.33301 0 13.5 -2.33301 18.5 -7s7.5 -9.66699 7.5 -15c0 -2 -0.333008 -3.33301 -1 -4c-8 -22 -18.333 -40.167 -31 -54.5s-25.834 -26 -39.501 -35s-27.334 -15.333 -41.001 -19s-25.834 -5.5 -36.501 -5.5
c-12.667 0 -25.834 1.83301 -39.501 5.5s-27 10 -40 19s-25.167 20.667 -36.5 35s-20.666 32.5 -27.999 54.5c0 0.666992 -0.166992 1.33398 -0.5 2.00098s-0.5 1.33398 -0.5 2.00098c0 5.33301 2.5 10.333 7.5 15s11.167 7 18.5 7c3.33301 0 6.5 -0.666992 9.5 -2
s5.5 -3.66602 7.5 -6.99902c12.667 -25.333 27.167 -45.5 43.5 -60.5s36.5 -22.5 60.5 -22.5z" />
    <glyph glyph-name="Aogonek" unicode="&#x104;" horiz-adv-x="532" 
d="M408 156l-284 -0.00195312l-47 -143c-4 -11.333 -11 -17 -21 -17c-12.667 0 -21.5 2.83301 -26.5 8.5s-7.5 10.834 -7.5 15.501c0 2 0.166992 3.83301 0.5 5.5s0.833008 3.5 1.5 5.5l198 607c4 12 7.83301 19.833 11.5 23.5s10.167 5.5 19.5 5.5h29
c8.66699 0 14.834 -1.83301 18.501 -5.5s7.5 -11.5 11.5 -23.5l198 -607c1.33301 -5.33301 2 -9 2 -11c0 -6 -2.66699 -11.333 -8 -16c-17.333 -21.333 -30.333 -40.5 -39 -57.5s-13 -32.5 -13 -46.5c0 -16 4.5 -28.5 13.5 -37.5s24.167 -13.5 45.5 -13.5
c13.333 0 27.333 3.66699 42 11c4 2 7.66699 3 11 3c6 0 11 -2.5 15 -7.5s6 -10.167 6 -15.5c0 -7.33301 -3.5 -13.166 -10.5 -17.499s-15.167 -8 -24.5 -11s-18.5 -5 -27.5 -6s-15.167 -1.5 -18.5 -1.5c-20 0 -36.5 2.83301 -49.5 8.5s-23.333 13 -31 22
s-13 18.833 -16 29.5s-4.5 20.667 -4.5 30c0 16 4.16699 34 12.5 54s22.166 40.667 41.499 62c-0.666992 0.666992 -1 1.66699 -1 3zM143 209.998h248l-125 396z" />
    <glyph glyph-name="aogonek" unicode="&#x105;" horiz-adv-x="483" 
d="M431 32c0 -14.667 -4.66699 -24.335 -14 -29.002c-16.667 -21.333 -29.167 -40.166 -37.5 -56.499s-12.5 -31.5 -12.5 -45.5c0 -16 4.5 -28.5 13.5 -37.5s24.167 -13.5 45.5 -13.5c13.333 0 27.333 3.66699 42 11c4 2 7.66699 3 11 3c6 0 11 -2.5 15 -7.5
s6 -10.167 6 -15.5c0 -7.33301 -3.5 -13.166 -10.5 -17.499s-15.167 -8 -24.5 -11s-18.5 -5 -27.5 -6s-15.167 -1.5 -18.5 -1.5c-20 0 -36.5 2.83301 -49.5 8.5s-23.333 13 -31 22s-13 18.833 -16 29.5s-4.5 20.667 -4.5 30c0 14.667 3.33301 31 10 49s18 36.667 34 56h-204
c-16.667 0 -32.167 3 -46.5 9s-26.833 14.667 -37.5 26s-19 25 -25 41s-9 34 -9 54v14c0 15.333 2.66699 30.5 8 45.5s13.333 28.333 24 40s24 21.167 40 28.5s34.667 11 56 11h211v24c0 41.333 -10.833 70.5 -32.5 87.5s-49.5 25.5 -83.5 25.5h-131
c-3.33301 0 -7.5 1.66699 -12.5 5s-7.5 9.66602 -7.5 18.999c0 10 2.5 17.167 7.5 21.5s9.16699 6.5 12.5 6.5h132c54 0 95.333 -14.167 124 -42.5s43 -69.166 43 -122.499v-261zM168 216.999c-21.333 0 -39.166 -7.16699 -53.499 -21.5s-21.5 -32.166 -21.5 -53.499v-11
c0 -9.33301 1.33301 -18.5 4 -27.5s7 -17.333 13 -25s13.667 -13.834 23 -18.501s20.666 -7 33.999 -7h211v164h-210z" />
    <glyph glyph-name="Cacute" unicode="&#x106;" horiz-adv-x="478" 
d="M213 0c-24 0 -45.8301 4 -65.4971 12s-36.834 20 -51.501 36s-26 36.167 -34 60.5s-12 52.5 -12 84.5v281c0 32.667 4.66699 61 14 85s21.666 44 36.999 60s32.666 28 51.999 36s39.333 12 60 12h210c16.667 0 25 -9.33301 25 -28c0 -16.667 -8.33301 -25 -25 -25h-199
c-38 0 -67.667 -12.667 -89 -38s-32 -58.333 -32 -99v-288c0 -40.667 9.83301 -73.5 29.5 -98.5s48.5 -37.5 86.5 -37.5h204c16.667 0 25 -8.33301 25 -25c0 -18.667 -8.33301 -28 -25 -28h-210zM241.003 706c-5.33301 -1.33301 -9.66699 -2 -13 -2
c-4.66699 0 -9.66699 1.66699 -15 5s-8 8.66602 -8 15.999c0 4.66699 1.66699 8.5 5 11.5s7 5.5 11 7.5l118 69c4 1.33301 7 2 9 2c8 0 15.167 -3.16699 21.5 -9.5s9.5 -14.166 9.5 -23.499c0 -6 -1.5 -11.5 -4.5 -16.5s-6.16699 -8.16699 -9.5 -9.5z" />
    <glyph glyph-name="cacute" unicode="&#x107;" horiz-adv-x="390" 
d="M217 0c-50 0 -91.167 14.167 -123.5 42.5s-48.5 69.833 -48.5 124.5v122c0 28 4.5 52.667 13.5 74s21.333 39 37 53s33.667 24.667 54 32s42.166 11 65.499 11h130c2.66699 0 6.33398 -2.16699 11.001 -6.5s7 -11.5 7 -21.5s-2.16699 -16.833 -6.5 -20.5
s-8.16602 -5.5 -11.499 -5.5h-129c-15.333 0 -30 -2.5 -44 -7.5s-26.5 -12.333 -37.5 -22s-19.833 -21.834 -26.5 -36.501s-10 -31.334 -10 -50.001v-122c0 -20 3.5 -37.167 10.5 -51.5s16 -26.166 27 -35.499s23.5 -16.166 37.5 -20.499s28.333 -6.5 43 -6.5h134
c3.33301 0 7.16602 -1.66699 11.499 -5s6.5 -10 6.5 -20c0 -9.33301 -2.33301 -16.333 -7 -21s-8.66699 -7 -12 -7h-132zM218 537c-3.33301 -3.33301 -6.66699 -6 -10 -8s-7.33301 -3 -12 -3c-6 0 -10.833 2 -14.5 6s-5.5 7.66699 -5.5 11s0.666992 6.33301 2 9l4 8l75 133
c4 6.66699 11 10 21 10s18.167 -3.66699 24.5 -11s9.5 -15 9.5 -23c0 -5.33301 -1.33301 -9.33301 -4 -12z" />
    <glyph glyph-name="Ccircumflex" unicode="&#x108;" horiz-adv-x="478" 
d="M213 0c-24 0 -45.8301 4 -65.4971 12s-36.834 20 -51.501 36s-26 36.167 -34 60.5s-12 52.5 -12 84.5v281c0 32.667 4.66699 61 14 85s21.666 44 36.999 60s32.666 28 51.999 36s39.333 12 60 12h210c16.667 0 25 -9.33301 25 -28c0 -16.667 -8.33301 -25 -25 -25h-199
c-38 0 -67.667 -12.667 -89 -38s-32 -58.333 -32 -99v-288c0 -40.667 9.83301 -73.5 29.5 -98.5s48.5 -37.5 86.5 -37.5h204c16.667 0 25 -8.33301 25 -25c0 -18.667 -8.33301 -28 -25 -28h-210zM273.003 789l-116.999 -89c-3.33301 -2.66699 -7.33301 -4 -12 -4
c-6.66699 0 -12.5 2.83301 -17.5 8.5s-7.5 11.5 -7.5 17.5s2.33301 11 7 15l121 99l9 5.5c2.66699 1.66699 5.66699 2.5 9 2.5h17c5.33301 0 10.666 -2.33301 15.999 -7l121 -99c5.33301 -4 8 -9 8 -15s-2.5 -11.833 -7.5 -17.5s-11.167 -8.5 -18.5 -8.5
c-4.66699 0 -8.66699 1.33301 -12 4z" />
    <glyph glyph-name="ccircumflex" unicode="&#x109;" horiz-adv-x="390" 
d="M217 0c-50 0 -91.167 14.167 -123.5 42.5s-48.5 69.833 -48.5 124.5v122c0 28 4.5 52.667 13.5 74s21.333 39 37 53s33.667 24.667 54 32s42.166 11 65.499 11h130c2.66699 0 6.33398 -2.16699 11.001 -6.5s7 -11.5 7 -21.5s-2.16699 -16.833 -6.5 -20.5
s-8.16602 -5.5 -11.499 -5.5h-129c-15.333 0 -30 -2.5 -44 -7.5s-26.5 -12.333 -37.5 -22s-19.833 -21.834 -26.5 -36.501s-10 -31.334 -10 -50.001v-122c0 -20 3.5 -37.167 10.5 -51.5s16 -26.166 27 -35.499s23.5 -16.166 37.5 -20.499s28.333 -6.5 43 -6.5h134
c3.33301 0 7.16602 -1.66699 11.499 -5s6.5 -10 6.5 -20c0 -9.33301 -2.33301 -16.333 -7 -21s-8.66699 -7 -12 -7h-132zM195 656c7.33301 6 13.334 9 18.001 9h17c5.33301 0 10.666 -2.33301 15.999 -7l124 -109c3.33301 -2 5 -5.66699 5 -11
c0 -6 -2.33301 -12.167 -7 -18.5s-11.667 -9.5 -21 -9.5c-4.66699 0 -8.66699 1.33301 -12 4l-115 93l-110 -92c-3.33301 -2.66699 -8 -4 -14 -4c-10 0 -16.833 3.5 -20.5 10.5s-5.5 12.5 -5.5 16.5c0 4.66699 1 8 3 10z" />
    <glyph glyph-name="Cdotaccent" unicode="&#x10a;" horiz-adv-x="478" 
d="M213 0c-24 0 -45.8301 4 -65.4971 12s-36.834 20 -51.501 36s-26 36.167 -34 60.5s-12 52.5 -12 84.5v281c0 32.667 4.66699 61 14 85s21.666 44 36.999 60s32.666 28 51.999 36s39.333 12 60 12h210c16.667 0 25 -9.33301 25 -28c0 -16.667 -8.33301 -25 -25 -25h-199
c-38 0 -67.667 -12.667 -89 -38s-32 -58.333 -32 -99v-288c0 -40.667 9.83301 -73.5 29.5 -98.5s48.5 -37.5 86.5 -37.5h204c16.667 0 25 -8.33301 25 -25c0 -18.667 -8.33301 -28 -25 -28h-210zM295.003 723c-10.667 0 -19.834 3.83301 -27.501 11.5
s-11.5 17.167 -11.5 28.5c0 13.333 3.83301 23.333 11.5 30s16.834 10 27.501 10c10 0 18.833 -3.33301 26.5 -10s11.5 -16.667 11.5 -30c0 -11.333 -3.66699 -20.833 -11 -28.5s-16.333 -11.5 -27 -11.5z" />
    <glyph glyph-name="cdotaccent" unicode="&#x10b;" horiz-adv-x="390" 
d="M217 0c-50 0 -91.167 14.167 -123.5 42.5s-48.5 69.833 -48.5 124.5v122c0 28 4.5 52.667 13.5 74s21.333 39 37 53s33.667 24.667 54 32s42.166 11 65.499 11h130c2.66699 0 6.33398 -2.16699 11.001 -6.5s7 -11.5 7 -21.5s-2.16699 -16.833 -6.5 -20.5
s-8.16602 -5.5 -11.499 -5.5h-129c-15.333 0 -30 -2.5 -44 -7.5s-26.5 -12.333 -37.5 -22s-19.833 -21.834 -26.5 -36.501s-10 -31.334 -10 -50.001v-122c0 -20 3.5 -37.167 10.5 -51.5s16 -26.166 27 -35.499s23.5 -16.166 37.5 -20.499s28.333 -6.5 43 -6.5h134
c3.33301 0 7.16602 -1.66699 11.499 -5s6.5 -10 6.5 -20c0 -9.33301 -2.33301 -16.333 -7 -21s-8.66699 -7 -12 -7h-132zM237 553c-10.667 0 -19.834 3.83301 -27.501 11.5s-11.5 17.167 -11.5 28.5c0 13.333 3.83301 23.333 11.5 30s16.834 10 27.501 10
c10 0 18.833 -3.33301 26.5 -10s11.5 -16.667 11.5 -30c0 -11.333 -3.66699 -20.833 -11 -28.5s-16.333 -11.5 -27 -11.5z" />
    <glyph glyph-name="Ccaron" unicode="&#x10c;" horiz-adv-x="478" 
d="M213 0c-24 0 -45.8301 4 -65.4971 12s-36.834 20 -51.501 36s-26 36.167 -34 60.5s-12 52.5 -12 84.5v281c0 32.667 4.66699 61 14 85s21.666 44 36.999 60s32.666 28 51.999 36s39.333 12 60 12h210c16.667 0 25 -9.33301 25 -28c0 -16.667 -8.33301 -25 -25 -25h-199
c-38 0 -67.667 -12.667 -89 -38s-32 -58.333 -32 -99v-288c0 -40.667 9.83301 -73.5 29.5 -98.5s48.5 -37.5 86.5 -37.5h204c16.667 0 25 -8.33301 25 -25c0 -18.667 -8.33301 -28 -25 -28h-210zM137.003 806c-1.33301 2.66699 -1.99902 5.66699 -1.99902 9
c0 4 1.5 9.5 4.5 16.5s9.83301 10.5 20.5 10.5c5.33301 0 9.66602 -1.33301 12.999 -4l104 -88l109 88c3.33301 2.66699 7.33301 4 12 4c8.66699 0 15.167 -3 19.5 -9s6.5 -12 6.5 -18c0 -4.66699 -1.33301 -8 -4 -10l-118 -103c-5.33301 -4.66699 -10.333 -7 -15 -7h-17
c-4 0 -9.66699 3 -17 9z" />
    <glyph glyph-name="ccaron" unicode="&#x10d;" horiz-adv-x="390" 
d="M217 0c-50 0 -91.167 14.167 -123.5 42.5s-48.5 69.833 -48.5 124.5v122c0 28 4.5 52.667 13.5 74s21.333 39 37 53s33.667 24.667 54 32s42.166 11 65.499 11h130c2.66699 0 6.33398 -2.16699 11.001 -6.5s7 -11.5 7 -21.5s-2.16699 -16.833 -6.5 -20.5
s-8.16602 -5.5 -11.499 -5.5h-129c-15.333 0 -30 -2.5 -44 -7.5s-26.5 -12.333 -37.5 -22s-19.833 -21.834 -26.5 -36.501s-10 -31.334 -10 -50.001v-122c0 -20 3.5 -37.167 10.5 -51.5s16 -26.166 27 -35.499s23.5 -16.166 37.5 -20.499s28.333 -6.5 43 -6.5h134
c3.33301 0 7.16602 -1.66699 11.499 -5s6.5 -10 6.5 -20c0 -9.33301 -2.33301 -16.333 -7 -21s-8.66699 -7 -12 -7h-132zM84 622c-1.33301 2.66699 -1.99902 5.66699 -1.99902 9c0 4 1.5 9.5 4.5 16.5s9.83301 10.5 20.5 10.5c5.33301 0 9.66602 -1.33301 12.999 -4l104 -88
l109 88c3.33301 2.66699 7.33301 4 12 4c8.66699 0 15.167 -3 19.5 -9s6.5 -12 6.5 -18c0 -4.66699 -1.33301 -8 -4 -10l-118 -103c-5.33301 -4.66699 -10.333 -7 -15 -7h-17c-4 0 -9.66699 3 -17 9z" />
    <glyph glyph-name="Dcaron" unicode="&#x10e;" horiz-adv-x="566" 
d="M87 0c-10 0 -16.9971 2 -20.9971 6s-6 11.333 -6 22v611c0 10.667 2 18 6 22s11 6 21 6h266c50.667 0 90.5 -14.5 119.5 -43.5s43.5 -76.167 43.5 -141.5v-289c0 -32 -4.33301 -60.167 -13 -84.5s-20.334 -44.5 -35.001 -60.5s-31.834 -28 -51.501 -36
s-40.834 -12 -63.501 -12h-266zM463.003 485c0 40.667 -10 72.5 -30 95.5s-49 34.5 -87 34.5h-233v-562h222c45.333 0 78 12.5 98 37.5s30 57.833 30 98.5v296zM139.003 806c-1.33301 2.66699 -1.99902 5.66699 -1.99902 9c0 4 1.5 9.5 4.5 16.5s9.83301 10.5 20.5 10.5
c5.33301 0 9.66602 -1.33301 12.999 -4l104 -88l109 88c3.33301 2.66699 7.33301 4 12 4c8.66699 0 15.167 -3 19.5 -9s6.5 -12 6.5 -18c0 -4.66699 -1.33301 -8 -4 -10l-118 -103c-5.33301 -4.66699 -10.333 -7 -15 -7h-17c-4 0 -9.66699 3 -17 9z" />
    <glyph glyph-name="dcaron" unicode="&#x10f;" horiz-adv-x="589" 
d="M541 548c-2 -4 -5.16797 -7.83203 -9.50098 -11.499s-9.16602 -5.5 -14.499 -5.5c-8 0 -13.667 2.16699 -17 6.5s-5 8.83301 -5 13.5c0 2.66699 0.666992 6 2 10l29 117c2 5.33301 5.5 9.16602 10.5 11.499s10.5 3.5 16.5 3.5c11.333 0 20.333 -3.33301 27 -10
s10 -13.667 10 -21c0 -1.33301 -0.666992 -3.33301 -2 -6zM217.999 0.000976562c-24.667 0 -47.499 3.50098 -68.499 10.501s-39.167 17.5 -54.5 31.5s-27.333 31.167 -36 51.5s-13 44.166 -13 71.499v127c0 28 4.5 52.5 13.5 73.5s21.167 38.5 36.5 52.5
s33.333 24.5 54 31.5s42.667 10.5 66 10.5h162v215c0 4.66699 1.66699 9.5 5 14.5s10.333 7.5 21 7.5c10 0 17 -2.33301 21 -7s6 -9.66699 6 -15v-643c0 -7.33301 -2.33301 -14.5 -7 -21.5s-10.334 -10.5 -17.001 -10.5h-189zM217 406.002
c-15.333 0 -30 -1.99902 -44 -5.99902s-26.5 -10.5 -37.5 -19.5s-19.833 -20.833 -26.5 -35.5s-10 -32.334 -10 -53.001v-127c0 -20.667 3.5 -38 10.5 -52s16 -25.5 27 -34.5s23.5 -15.5 37.5 -19.5s28.333 -6 43 -6h161v353h-161z" />
    <glyph glyph-name="Dcroat" unicode="&#x110;" horiz-adv-x="566" 
d="M87 0c-10 0 -16.999 2 -20.999 6s-6 11.333 -6 22v292h-28c-11.333 0 -19.166 1.66699 -23.499 5s-6.5 10 -6.5 20s2.33301 16.5 7 19.5s12.334 4.5 23.001 4.5h28v270c0 10.667 2 18 6 22s11 6 21 6h266c50.667 0 90.5 -14.5 119.5 -43.5s43.5 -76.167 43.5 -141.5v-289
c0 -32 -4.33301 -60.167 -13 -84.5s-20.334 -44.5 -35.001 -60.5s-31.834 -28 -51.501 -36s-40.834 -12 -63.501 -12h-266zM463.001 485c0 40.667 -10.002 72.5 -30.002 95.5s-49 34.5 -87 34.5h-233v-246h176c10.667 0 18.834 -1.5 24.501 -4.5s8.5 -9.5 8.5 -19.5
s-2.66699 -16.667 -8 -20s-13.666 -5 -24.999 -5h-176v-267h222c45.333 0 78 12.5 98 37.5s30 57.833 30 98.5v296z" />
    <glyph glyph-name="dcroat" unicode="&#x111;" horiz-adv-x="483" 
d="M217 0c-24.667 0 -47.5029 3.50098 -68.5029 10.501s-39.167 17.5 -54.5 31.5s-27.333 31.167 -36 51.5s-13 44.166 -13 71.499v127c0 28 4.5 52.5 13.5 73.5s21.167 38.5 36.5 52.5s33.333 24.5 54 31.5s42.667 10.5 66 10.5h162v69h-185
c-11.333 0 -19.166 1.66699 -23.499 5s-6.5 10 -6.5 20s2.33301 16.5 7 19.5s12.334 4.5 23.001 4.5h185v97c0 4.66699 1.66699 9.5 5 14.5s10.333 7.5 21 7.5c10 0 17 -2.33301 21 -7s6 -9.66699 6 -15v-97h19c10.667 0 18.834 -1.5 24.501 -4.5s8.5 -9.5 8.5 -19.5
s-2.66699 -16.667 -8 -20s-13.666 -5 -24.999 -5h-19v-497c0 -7.33301 -2.33301 -14.5 -7 -21.5s-10.334 -10.5 -17.001 -10.5h-189zM215.997 406.001c-15.333 0 -30 -1.99902 -44 -5.99902s-26.5 -10.5 -37.5 -19.5s-19.833 -20.833 -26.5 -35.5s-10 -32.334 -10 -53.001
v-127c0 -20.667 3.5 -38 10.5 -52s16 -25.5 27 -34.5s23.5 -15.5 37.5 -19.5s28.333 -6 43 -6h161v353h-161z" />
    <glyph glyph-name="Emacron" unicode="&#x112;" horiz-adv-x="464" 
d="M87 0c-10 0 -17 2 -21 6s-6 11.333 -6 22v611c0 10.667 2 18 6 22s11 6 21 6h336c16.667 0 25 -9.33301 25 -28c0 -16.667 -8.33301 -25 -25 -25h-310v-234h266c16 0 24 -8.66699 24 -26c0 -10 -2 -16.833 -6 -20.5s-10 -5.5 -18 -5.5h-266v-275h310
c16.667 0 25 -8.33301 25 -25c0 -18.667 -8.33301 -28 -25 -28h-336zM162 720c-8.66699 0 -16 1.83301 -22 5.5s-9 10.834 -9 21.501c0 9.33301 2.83301 15.833 8.5 19.5s13.167 5.5 22.5 5.5h191c8.66699 0 16 -1.66699 22 -5s9 -10 9 -20c0 -10.667 -3 -17.834 -9 -21.501
s-13.333 -5.5 -22 -5.5h-191z" />
    <glyph glyph-name="emacron" unicode="&#x113;" horiz-adv-x="460" 
d="M98 198l0.000976562 -30.999c0 -20.667 3.33301 -38.334 10 -53.001s15.5 -26.5 26.5 -35.5s23.333 -15.5 37 -19.5s27.834 -6 42.501 -6h145c5.33301 0 10.166 -1.66699 14.499 -5s6.5 -10 6.5 -20s-2.5 -17.167 -7.5 -21.5s-9.5 -6.5 -13.5 -6.5h-146
c-23.333 0 -45.333 3.66699 -66 11s-38.5 18.166 -53.5 32.499s-26.833 31.833 -35.5 52.5s-13 44.334 -13 71.001v122c0 27.333 4.66699 51.5 14 72.5s22.166 38.833 38.499 53.5s35.5 25.667 57.5 33s45.333 11 70 11h25c22 0 43.167 -3.66699 63.5 -11s38.5 -18 54.5 -32
s28.667 -31.667 38 -53s14 -46 14 -74v-59c0 -6.66699 -2.16699 -13.667 -6.5 -21s-12.5 -11 -24.5 -11h-291zM367.001 289.001c0 21.333 -3.33203 39.3359 -9.99902 54.0029s-15.5 26.667 -26.5 36s-23.667 16.166 -38 20.499s-28.833 6.5 -43.5 6.5h-35
c-14.667 0 -29 -2.16699 -43 -6.5s-26.333 -11.333 -37 -21s-19.334 -21.834 -26.001 -36.501s-10 -32.334 -10 -53.001v-40h269v40zM138.002 536.004c-8.66699 0 -16 1.83301 -22 5.5s-9 10.834 -9 21.501c0 9.33301 2.83301 15.833 8.5 19.5s13.167 5.5 22.5 5.5h191
c8.66699 0 16 -1.66699 22 -5s9 -10 9 -20c0 -10.667 -3 -17.834 -9 -21.501s-13.333 -5.5 -22 -5.5h-191z" />
    <glyph glyph-name="Ebreve" unicode="&#x114;" horiz-adv-x="464" 
d="M87 0c-10 0 -17 2 -21 6s-6 11.333 -6 22v611c0 10.667 2 18 6 22s11 6 21 6h336c16.667 0 25 -9.33301 25 -28c0 -16.667 -8.33301 -25 -25 -25h-310v-234h266c16 0 24 -8.66699 24 -26c0 -10 -2 -16.833 -6 -20.5s-10 -5.5 -18 -5.5h-266v-275h310
c16.667 0 25 -8.33301 25 -25c0 -18.667 -8.33301 -28 -25 -28h-336zM253 751c20 0 39.335 6.33301 58.002 19s34.667 32.667 48 60c4 6.66699 10.333 10 19 10c7.33301 0 13.666 -2.5 18.999 -7.5s8 -10.167 8 -15.5c0 -2 -0.333008 -3.66699 -1 -5
c-9.33301 -23.333 -20.333 -42.5 -33 -57.5s-25.667 -26.667 -39 -35s-26.833 -14.166 -40.5 -17.499s-26.5 -5 -38.5 -5s-24.833 1.66699 -38.5 5s-27.167 9.16602 -40.5 17.499s-26.333 20 -39 35s-23.667 34.167 -33 57.5c-0.666992 1.33301 -1 3 -1 5
c0 5.33301 2.66699 10.5 8 15.5s11.666 7.5 18.999 7.5c8.66699 0 15 -3.33301 19 -10c13.333 -27.333 29.333 -47.333 48 -60s38 -19 58 -19z" />
    <glyph glyph-name="ebreve" unicode="&#x115;" horiz-adv-x="460" 
d="M98 198l0.000976562 -30.999c0 -20.667 3.33301 -38.334 10 -53.001s15.5 -26.5 26.5 -35.5s23.333 -15.5 37 -19.5s27.834 -6 42.501 -6h145c5.33301 0 10.166 -1.66699 14.499 -5s6.5 -10 6.5 -20s-2.5 -17.167 -7.5 -21.5s-9.5 -6.5 -13.5 -6.5h-146
c-23.333 0 -45.333 3.66699 -66 11s-38.5 18.166 -53.5 32.499s-26.833 31.833 -35.5 52.5s-13 44.334 -13 71.001v122c0 27.333 4.66699 51.5 14 72.5s22.166 38.833 38.499 53.5s35.5 25.667 57.5 33s45.333 11 70 11h25c22 0 43.167 -3.66699 63.5 -11s38.5 -18 54.5 -32
s28.667 -31.667 38 -53s14 -46 14 -74v-59c0 -6.66699 -2.16699 -13.667 -6.5 -21s-12.5 -11 -24.5 -11h-291zM367.001 289.001c0 21.333 -3.33203 39.3359 -9.99902 54.0029s-15.5 26.667 -26.5 36s-23.667 16.166 -38 20.499s-28.833 6.5 -43.5 6.5h-35
c-14.667 0 -29 -2.16699 -43 -6.5s-26.333 -11.333 -37 -21s-19.334 -21.834 -26.001 -36.501s-10 -32.334 -10 -53.001v-40h269v40zM234.002 562.004c20 0 39.1699 7.49805 57.5029 22.498s33.833 35.167 46.5 60.5c2 3.33301 4.5 5.66602 7.5 6.99902s6.16699 2 9.5 2
c7.33301 0 13.5 -2.33301 18.5 -7s7.5 -9.66699 7.5 -15c0 -2 -0.333008 -3.33301 -1 -4c-8 -22 -18.333 -40.167 -31 -54.5s-25.834 -26 -39.501 -35s-27.334 -15.333 -41.001 -19s-25.834 -5.5 -36.501 -5.5c-12.667 0 -25.834 1.83301 -39.501 5.5s-27 10 -40 19
s-25.167 20.667 -36.5 35s-20.666 32.5 -27.999 54.5c0 0.666992 -0.166992 1.33398 -0.5 2.00098s-0.5 1.33398 -0.5 2.00098c0 5.33301 2.5 10.333 7.5 15s11.167 7 18.5 7c3.33301 0 6.5 -0.666992 9.5 -2s5.5 -3.66602 7.5 -6.99902
c12.667 -25.333 27.167 -45.5 43.5 -60.5s36.5 -22.5 60.5 -22.5z" />
    <glyph glyph-name="Edotaccent" unicode="&#x116;" horiz-adv-x="464" 
d="M87 0c-10 0 -17 2 -21 6s-6 11.333 -6 22v611c0 10.667 2 18 6 22s11 6 21 6h336c16.667 0 25 -9.33301 25 -28c0 -16.667 -8.33301 -25 -25 -25h-310v-234h266c16 0 24 -8.66699 24 -26c0 -10 -2 -16.833 -6 -20.5s-10 -5.5 -18 -5.5h-266v-275h310
c16.667 0 25 -8.33301 25 -25c0 -18.667 -8.33301 -28 -25 -28h-336zM258 723c-10.667 0 -19.834 3.83301 -27.501 11.5s-11.5 17.167 -11.5 28.5c0 13.333 3.83301 23.333 11.5 30s16.834 10 27.501 10c10 0 18.833 -3.33301 26.5 -10s11.5 -16.667 11.5 -30
c0 -11.333 -3.66699 -20.833 -11 -28.5s-16.333 -11.5 -27 -11.5z" />
    <glyph glyph-name="edotaccent" unicode="&#x117;" horiz-adv-x="460" 
d="M98 198l0.000976562 -30.999c0 -20.667 3.33301 -38.334 10 -53.001s15.5 -26.5 26.5 -35.5s23.333 -15.5 37 -19.5s27.834 -6 42.501 -6h145c5.33301 0 10.166 -1.66699 14.499 -5s6.5 -10 6.5 -20s-2.5 -17.167 -7.5 -21.5s-9.5 -6.5 -13.5 -6.5h-146
c-23.333 0 -45.333 3.66699 -66 11s-38.5 18.166 -53.5 32.499s-26.833 31.833 -35.5 52.5s-13 44.334 -13 71.001v122c0 27.333 4.66699 51.5 14 72.5s22.166 38.833 38.499 53.5s35.5 25.667 57.5 33s45.333 11 70 11h25c22 0 43.167 -3.66699 63.5 -11s38.5 -18 54.5 -32
s28.667 -31.667 38 -53s14 -46 14 -74v-59c0 -6.66699 -2.16699 -13.667 -6.5 -21s-12.5 -11 -24.5 -11h-291zM367.001 289.001c0 21.333 -3.33203 39.3359 -9.99902 54.0029s-15.5 26.667 -26.5 36s-23.667 16.166 -38 20.499s-28.833 6.5 -43.5 6.5h-35
c-14.667 0 -29 -2.16699 -43 -6.5s-26.333 -11.333 -37 -21s-19.334 -21.834 -26.001 -36.501s-10 -32.334 -10 -53.001v-40h269v40zM237.002 553.004c-10.667 0 -19.834 3.83301 -27.501 11.5s-11.5 17.167 -11.5 28.5c0 13.333 3.83301 23.333 11.5 30
s16.834 10 27.501 10c10 0 18.833 -3.33301 26.5 -10s11.5 -16.667 11.5 -30c0 -11.333 -3.66699 -20.833 -11 -28.5s-16.333 -11.5 -27 -11.5z" />
    <glyph glyph-name="Eogonek" unicode="&#x118;" horiz-adv-x="464" 
d="M448 28c0 -12.667 -3.33301 -21.001 -10 -25.001c-18.667 -22.667 -32.667 -42.667 -42 -60s-14 -33.333 -14 -48c0 -16 4.5 -28.5 13.5 -37.5s24.167 -13.5 45.5 -13.5c13.333 0 27.333 3.66699 42 11c4 2 7.66699 3 11 3c6 0 11 -2.5 15 -7.5s6 -10.167 6 -15.5
c0 -7.33301 -3.5 -13.166 -10.5 -17.499s-15.167 -8 -24.5 -11s-18.5 -5 -27.5 -6s-15.167 -1.5 -18.5 -1.5c-20 0 -36.5 2.83301 -49.5 8.5s-23.333 13 -31 22s-13 18.833 -16 29.5s-4.5 20.667 -4.5 30c0 15.333 3.66699 32.333 11 51s20 38.667 38 60h-295
c-10 0 -17 2 -21 6s-6 11.333 -6 22v611c0 10.667 2 18 6 22s11 6 21 6h336c16.667 0 25 -9.33301 25 -28c0 -16.667 -8.33301 -25 -25 -25h-310v-234h266c16 0 24 -8.66699 24 -26c0 -10 -2 -16.833 -6 -20.5s-10 -5.5 -18 -5.5h-266v-275h310c16.667 0 25 -8.33301 25 -25
z" />
    <glyph glyph-name="eogonek" unicode="&#x119;" horiz-adv-x="460" 
d="M98 198v-31.001c0 -20.667 3.33301 -38.334 10 -53.001s15.5 -26.5 26.5 -35.5s23.333 -15.5 37 -19.5s27.834 -6 42.501 -6h145c5.33301 0 10.166 -1.66699 14.499 -5s6.5 -10 6.5 -20c0 -7.33301 -1.16699 -13 -3.5 -17s-5.16602 -7 -8.49902 -9
c-16.667 -21.333 -29.334 -40.166 -38.001 -56.499s-13 -31.5 -13 -45.5c0 -16 4.5 -28.5 13.5 -37.5s24.167 -13.5 45.5 -13.5c13.333 0 27.333 3.66699 42 11c4 2 7.66699 3 11 3c6 0 11 -2.5 15 -7.5s6 -10.167 6 -15.5c0 -7.33301 -3.5 -13.166 -10.5 -17.499
s-15.167 -8 -24.5 -11s-18.5 -5 -27.5 -6s-15.167 -1.5 -18.5 -1.5c-20 0 -36.5 2.83301 -49.5 8.5s-23.333 13 -31 22s-13 18.833 -16 29.5s-4.5 20.667 -4.5 30c0 15.333 3.33301 31.833 10 49.5s18.334 36.5 35.001 56.5h-100c-23.333 0 -45.333 3.66699 -66 11
s-38.5 18.166 -53.5 32.499s-26.833 31.833 -35.5 52.5s-13 44.334 -13 71.001v122c0 27.333 4.66699 51.5 14 72.5s22.166 38.833 38.499 53.5s35.5 25.667 57.5 33s45.333 11 70 11h25c22 0 43.167 -3.66699 63.5 -11s38.5 -18 54.5 -32s28.667 -31.667 38 -53
s14 -46 14 -74v-59c0 -6.66699 -2.16699 -13.667 -6.5 -21s-12.5 -11 -24.5 -11h-291zM367 288.999c0 21.333 -3.33203 39.3359 -9.99902 54.0029s-15.5 26.667 -26.5 36s-23.667 16.166 -38 20.499s-28.833 6.5 -43.5 6.5h-35c-14.667 0 -29 -2.16699 -43 -6.5
s-26.333 -11.333 -37 -21s-19.334 -21.834 -26.001 -36.501s-10 -32.334 -10 -53.001v-40h269v40z" />
    <glyph glyph-name="Ecaron" unicode="&#x11a;" horiz-adv-x="464" 
d="M87 0c-10 0 -17 2 -21 6s-6 11.333 -6 22v611c0 10.667 2 18 6 22s11 6 21 6h336c16.667 0 25 -9.33301 25 -28c0 -16.667 -8.33301 -25 -25 -25h-310v-234h266c16 0 24 -8.66699 24 -26c0 -10 -2 -16.833 -6 -20.5s-10 -5.5 -18 -5.5h-266v-275h310
c16.667 0 25 -8.33301 25 -25c0 -18.667 -8.33301 -28 -25 -28h-336zM115 806c-1.33301 2.66699 -1.99902 5.66699 -1.99902 9c0 4 1.5 9.5 4.5 16.5s9.83301 10.5 20.5 10.5c5.33301 0 9.66602 -1.33301 12.999 -4l104 -88l109 88c3.33301 2.66699 7.33301 4 12 4
c8.66699 0 15.167 -3 19.5 -9s6.5 -12 6.5 -18c0 -4.66699 -1.33301 -8 -4 -10l-118 -103c-5.33301 -4.66699 -10.333 -7 -15 -7h-17c-4 0 -9.66699 3 -17 9z" />
    <glyph glyph-name="ecaron" unicode="&#x11b;" horiz-adv-x="460" 
d="M98 198l0.000976562 -30.999c0 -20.667 3.33301 -38.334 10 -53.001s15.5 -26.5 26.5 -35.5s23.333 -15.5 37 -19.5s27.834 -6 42.501 -6h145c5.33301 0 10.166 -1.66699 14.499 -5s6.5 -10 6.5 -20s-2.5 -17.167 -7.5 -21.5s-9.5 -6.5 -13.5 -6.5h-146
c-23.333 0 -45.333 3.66699 -66 11s-38.5 18.166 -53.5 32.499s-26.833 31.833 -35.5 52.5s-13 44.334 -13 71.001v122c0 27.333 4.66699 51.5 14 72.5s22.166 38.833 38.499 53.5s35.5 25.667 57.5 33s45.333 11 70 11h25c22 0 43.167 -3.66699 63.5 -11s38.5 -18 54.5 -32
s28.667 -31.667 38 -53s14 -46 14 -74v-59c0 -6.66699 -2.16699 -13.667 -6.5 -21s-12.5 -11 -24.5 -11h-291zM367.001 289.001c0 21.333 -3.33203 39.3359 -9.99902 54.0029s-15.5 26.667 -26.5 36s-23.667 16.166 -38 20.499s-28.833 6.5 -43.5 6.5h-35
c-14.667 0 -29 -2.16699 -43 -6.5s-26.333 -11.333 -37 -21s-19.334 -21.834 -26.001 -36.501s-10 -32.334 -10 -53.001v-40h269v40zM89.002 622.004c-1.33301 2.66699 -1.99902 5.66699 -1.99902 9c0 4 1.5 9.5 4.5 16.5s9.83301 10.5 20.5 10.5
c5.33301 0 9.66602 -1.33301 12.999 -4l104 -88l109 88c3.33301 2.66699 7.33301 4 12 4c8.66699 0 15.167 -3 19.5 -9s6.5 -12 6.5 -18c0 -4.66699 -1.33301 -8 -4 -10l-118 -103c-5.33301 -4.66699 -10.333 -7 -15 -7h-17c-4 0 -9.66699 3 -17 9z" />
    <glyph glyph-name="Gcircumflex" unicode="&#x11c;" horiz-adv-x="531" 
d="M433 53l0.00195312 274h-118c-16 0 -24 9.33301 -24 28c0 17.333 8 26 24 26h144c10.667 0 17.834 -1.5 21.501 -4.5s5.5 -10.167 5.5 -21.5v-327c0 -10.667 -1.83301 -18 -5.5 -22s-10.167 -6 -19.5 -6h-248c-24 0 -45.833 4 -65.5 12s-36.834 20 -51.501 36
s-26 36.167 -34 60.5s-12 52.5 -12 84.5v281c0 32.667 4.66699 61 14 85s21.666 44 36.999 60s32.666 28 51.999 36s39.333 12 60 12h230c16.667 0 25 -9.33301 25 -28c0 -16.667 -8.33301 -25 -25 -25h-219c-38 0 -67.667 -12.667 -89 -38s-32 -58.333 -32 -99v-288
c0 -40.667 9.83301 -73.5 29.5 -98.5s48.5 -37.5 86.5 -37.5h214zM267.002 789l-116.999 -89c-3.33301 -2.66699 -7.33301 -4 -12 -4c-6.66699 0 -12.5 2.83301 -17.5 8.5s-7.5 11.5 -7.5 17.5s2.33301 11 7 15l121 99l9 5.5c2.66699 1.66699 5.66699 2.5 9 2.5h17
c5.33301 0 10.666 -2.33301 15.999 -7l121 -99c5.33301 -4 8 -9 8 -15s-2.5 -11.833 -7.5 -17.5s-11.167 -8.5 -18.5 -8.5c-4.66699 0 -8.66699 1.33301 -12 4z" />
    <glyph glyph-name="gcircumflex" unicode="&#x11d;" horiz-adv-x="482" 
d="M430 -41c0 -26.667 -4.33691 -50.168 -13.0039 -70.501s-20.5 -37.5 -35.5 -51.5s-32.667 -24.667 -53 -32s-42.166 -11 -65.499 -11h-147c-3.33301 0 -7.5 2 -12.5 6s-7.5 11 -7.5 21c0 9.33301 2.5 15.833 7.5 19.5s9.16699 5.5 12.5 5.5h146
c14.667 0 28.834 2 42.501 6s25.834 10.5 36.501 19.5s19.334 20.667 26.001 35s10 31.833 10 52.5v41h-162c-23.333 0 -45.333 3.5 -66 10.5s-38.667 17.5 -54 31.5s-27.5 31.5 -36.5 52.5s-13.5 45.5 -13.5 73.5v126c0 26.667 4.5 50.334 13.5 71.001s21.333 38 37 52
s33.834 24.5 54.501 31.5s43 10.5 67 10.5h187c7.33301 0 13.666 -3.5 18.999 -10.5s8 -14.167 8 -21.5zM215.996 407.999c-14.667 0 -29 -2.16895 -43 -6.50195s-26.5 -11 -37.5 -20s-20 -20.667 -27 -35s-10.5 -31.833 -10.5 -52.5v-126
c0 -21.333 3.33301 -39.166 10 -53.499s15.5 -26.166 26.5 -35.499s23.5 -16 37.5 -20s28.667 -6 44 -6h161v355h-161zM214.996 655.997c7.33301 6 13.334 9 18.001 9h17c5.33301 0 10.666 -2.33301 15.999 -7l124 -109c3.33301 -2 5 -5.66699 5 -11
c0 -6 -2.33301 -12.167 -7 -18.5s-11.667 -9.5 -21 -9.5c-4.66699 0 -8.66699 1.33301 -12 4l-115 93l-110 -92c-3.33301 -2.66699 -8 -4 -14 -4c-10 0 -16.833 3.5 -20.5 10.5s-5.5 12.5 -5.5 16.5c0 4.66699 1 8 3 10z" />
    <glyph glyph-name="Gbreve" unicode="&#x11e;" horiz-adv-x="531" 
d="M433 53l0.00195312 274h-118c-16 0 -24 9.33301 -24 28c0 17.333 8 26 24 26h144c10.667 0 17.834 -1.5 21.501 -4.5s5.5 -10.167 5.5 -21.5v-327c0 -10.667 -1.83301 -18 -5.5 -22s-10.167 -6 -19.5 -6h-248c-24 0 -45.833 4 -65.5 12s-36.834 20 -51.501 36
s-26 36.167 -34 60.5s-12 52.5 -12 84.5v281c0 32.667 4.66699 61 14 85s21.666 44 36.999 60s32.666 28 51.999 36s39.333 12 60 12h230c16.667 0 25 -9.33301 25 -28c0 -16.667 -8.33301 -25 -25 -25h-219c-38 0 -67.667 -12.667 -89 -38s-32 -58.333 -32 -99v-288
c0 -40.667 9.83301 -73.5 29.5 -98.5s48.5 -37.5 86.5 -37.5h214zM276.002 751c20 0 39.335 6.33301 58.002 19s34.667 32.667 48 60c4 6.66699 10.333 10 19 10c7.33301 0 13.666 -2.5 18.999 -7.5s8 -10.167 8 -15.5c0 -2 -0.333008 -3.66699 -1 -5
c-9.33301 -23.333 -20.333 -42.5 -33 -57.5s-25.667 -26.667 -39 -35s-26.833 -14.166 -40.5 -17.499s-26.5 -5 -38.5 -5s-24.833 1.66699 -38.5 5s-27.167 9.16602 -40.5 17.499s-26.333 20 -39 35s-23.667 34.167 -33 57.5c-0.666992 1.33301 -1 3 -1 5
c0 5.33301 2.66699 10.5 8 15.5s11.666 7.5 18.999 7.5c8.66699 0 15 -3.33301 19 -10c13.333 -27.333 29.333 -47.333 48 -60s38 -19 58 -19z" />
    <glyph glyph-name="gbreve" unicode="&#x11f;" horiz-adv-x="482" 
d="M430 -41c0 -26.667 -4.33691 -50.168 -13.0039 -70.501s-20.5 -37.5 -35.5 -51.5s-32.667 -24.667 -53 -32s-42.166 -11 -65.499 -11h-147c-3.33301 0 -7.5 2 -12.5 6s-7.5 11 -7.5 21c0 9.33301 2.5 15.833 7.5 19.5s9.16699 5.5 12.5 5.5h146
c14.667 0 28.834 2 42.501 6s25.834 10.5 36.501 19.5s19.334 20.667 26.001 35s10 31.833 10 52.5v41h-162c-23.333 0 -45.333 3.5 -66 10.5s-38.667 17.5 -54 31.5s-27.5 31.5 -36.5 52.5s-13.5 45.5 -13.5 73.5v126c0 26.667 4.5 50.334 13.5 71.001s21.333 38 37 52
s33.834 24.5 54.501 31.5s43 10.5 67 10.5h187c7.33301 0 13.666 -3.5 18.999 -10.5s8 -14.167 8 -21.5zM215.996 407.999c-14.667 0 -29 -2.16895 -43 -6.50195s-26.5 -11 -37.5 -20s-20 -20.667 -27 -35s-10.5 -31.833 -10.5 -52.5v-126
c0 -21.333 3.33301 -39.166 10 -53.499s15.5 -26.166 26.5 -35.499s23.5 -16 37.5 -20s28.667 -6 44 -6h161v355h-161zM249.996 561.997c20 0 39.1699 7.49805 57.5029 22.498s33.833 35.167 46.5 60.5c2 3.33301 4.5 5.66602 7.5 6.99902s6.16699 2 9.5 2
c7.33301 0 13.5 -2.33301 18.5 -7s7.5 -9.66699 7.5 -15c0 -2 -0.333008 -3.33301 -1 -4c-8 -22 -18.333 -40.167 -31 -54.5s-25.834 -26 -39.501 -35s-27.334 -15.333 -41.001 -19s-25.834 -5.5 -36.501 -5.5c-12.667 0 -25.834 1.83301 -39.501 5.5s-27 10 -40 19
s-25.167 20.667 -36.5 35s-20.666 32.5 -27.999 54.5c0 0.666992 -0.166992 1.33398 -0.5 2.00098s-0.5 1.33398 -0.5 2.00098c0 5.33301 2.5 10.333 7.5 15s11.167 7 18.5 7c3.33301 0 6.5 -0.666992 9.5 -2s5.5 -3.66602 7.5 -6.99902
c12.667 -25.333 27.167 -45.5 43.5 -60.5s36.5 -22.5 60.5 -22.5z" />
    <glyph glyph-name="Gdotaccent" unicode="&#x120;" horiz-adv-x="531" 
d="M433 53l0.00195312 274h-118c-16 0 -24 9.33301 -24 28c0 17.333 8 26 24 26h144c10.667 0 17.834 -1.5 21.501 -4.5s5.5 -10.167 5.5 -21.5v-327c0 -10.667 -1.83301 -18 -5.5 -22s-10.167 -6 -19.5 -6h-248c-24 0 -45.833 4 -65.5 12s-36.834 20 -51.501 36
s-26 36.167 -34 60.5s-12 52.5 -12 84.5v281c0 32.667 4.66699 61 14 85s21.666 44 36.999 60s32.666 28 51.999 36s39.333 12 60 12h230c16.667 0 25 -9.33301 25 -28c0 -16.667 -8.33301 -25 -25 -25h-219c-38 0 -67.667 -12.667 -89 -38s-32 -58.333 -32 -99v-288
c0 -40.667 9.83301 -73.5 29.5 -98.5s48.5 -37.5 86.5 -37.5h214zM302.002 723c-10.667 0 -19.834 3.83301 -27.501 11.5s-11.5 17.167 -11.5 28.5c0 13.333 3.83301 23.333 11.5 30s16.834 10 27.501 10c10 0 18.833 -3.33301 26.5 -10s11.5 -16.667 11.5 -30
c0 -11.333 -3.66699 -20.833 -11 -28.5s-16.333 -11.5 -27 -11.5z" />
    <glyph glyph-name="gdotaccent" unicode="&#x121;" horiz-adv-x="482" 
d="M430 -41c0 -26.667 -4.33691 -50.168 -13.0039 -70.501s-20.5 -37.5 -35.5 -51.5s-32.667 -24.667 -53 -32s-42.166 -11 -65.499 -11h-147c-3.33301 0 -7.5 2 -12.5 6s-7.5 11 -7.5 21c0 9.33301 2.5 15.833 7.5 19.5s9.16699 5.5 12.5 5.5h146
c14.667 0 28.834 2 42.501 6s25.834 10.5 36.501 19.5s19.334 20.667 26.001 35s10 31.833 10 52.5v41h-162c-23.333 0 -45.333 3.5 -66 10.5s-38.667 17.5 -54 31.5s-27.5 31.5 -36.5 52.5s-13.5 45.5 -13.5 73.5v126c0 26.667 4.5 50.334 13.5 71.001s21.333 38 37 52
s33.834 24.5 54.501 31.5s43 10.5 67 10.5h187c7.33301 0 13.666 -3.5 18.999 -10.5s8 -14.167 8 -21.5zM215.996 407.999c-14.667 0 -29 -2.16895 -43 -6.50195s-26.5 -11 -37.5 -20s-20 -20.667 -27 -35s-10.5 -31.833 -10.5 -52.5v-126
c0 -21.333 3.33301 -39.166 10 -53.499s15.5 -26.166 26.5 -35.499s23.5 -16 37.5 -20s28.667 -6 44 -6h161v355h-161zM266.996 552.997c-10.667 0 -19.834 3.83301 -27.501 11.5s-11.5 17.167 -11.5 28.5c0 13.333 3.83301 23.333 11.5 30s16.834 10 27.501 10
c10 0 18.833 -3.33301 26.5 -10s11.5 -16.667 11.5 -30c0 -11.333 -3.66699 -20.833 -11 -28.5s-16.333 -11.5 -27 -11.5z" />
    <glyph glyph-name="Gcommaaccent" unicode="&#x122;" horiz-adv-x="531" 
d="M433 53l0.00195312 274h-118c-16 0 -24 9.33301 -24 28c0 17.333 8 26 24 26h144c10.667 0 17.834 -1.5 21.501 -4.5s5.5 -10.167 5.5 -21.5v-327c0 -10.667 -1.83301 -18 -5.5 -22s-10.167 -6 -19.5 -6h-248c-24 0 -45.833 4 -65.5 12s-36.834 20 -51.501 36
s-26 36.167 -34 60.5s-12 52.5 -12 84.5v281c0 32.667 4.66699 61 14 85s21.666 44 36.999 60s32.666 28 51.999 36s39.333 12 60 12h230c16.667 0 25 -9.33301 25 -28c0 -16.667 -8.33301 -25 -25 -25h-219c-38 0 -67.667 -12.667 -89 -38s-32 -58.333 -32 -99v-288
c0 -40.667 9.83301 -73.5 29.5 -98.5s48.5 -37.5 86.5 -37.5h214zM276.002 -214c-2 -4 -5.16797 -7.83203 -9.50098 -11.499s-9.16602 -5.5 -14.499 -5.5c-8 0 -13.667 2.16699 -17 6.5s-5 8.83301 -5 13.5c0 2.66699 0.666992 6 2 10l29 117
c2 5.33301 5.5 9.16602 10.5 11.499s10.5 3.5 16.5 3.5c11.333 0 20.333 -3.33301 27 -10s10 -13.667 10 -21c0 -1.33301 -0.666992 -3.33301 -2 -6z" />
    <glyph glyph-name="gcommaaccent" unicode="&#x123;" horiz-adv-x="482" 
d="M278 660c2 4 5.16699 7.83203 9.5 11.499s9.5 5.5 15.5 5.5c7.33301 0 12.666 -2.16699 15.999 -6.5s5 -8.83301 5 -13.5c0 -2.66699 -0.666992 -6 -2 -10l-29 -117c-2 -5.33301 -5.5 -9.16602 -10.5 -11.499s-10.5 -3.5 -16.5 -3.5
c-11.333 0 -20.166 3.33301 -26.499 10s-9.5 13.667 -9.5 21c0 2.66699 0.333008 4.66699 1 6zM430 -41.001c0 -26.667 -4.33691 -50.168 -13.0039 -70.501s-20.5 -37.5 -35.5 -51.5s-32.667 -24.667 -53 -32s-42.166 -11 -65.499 -11h-147c-3.33301 0 -7.5 2 -12.5 6
s-7.5 11 -7.5 21c0 9.33301 2.5 15.833 7.5 19.5s9.16699 5.5 12.5 5.5h146c14.667 0 28.834 2 42.501 6s25.834 10.5 36.501 19.5s19.334 20.667 26.001 35s10 31.833 10 52.5v41h-162c-23.333 0 -45.333 3.5 -66 10.5s-38.667 17.5 -54 31.5s-27.5 31.5 -36.5 52.5
s-13.5 45.5 -13.5 73.5v126c0 26.667 4.5 50.334 13.5 71.001s21.333 38 37 52s33.834 24.5 54.501 31.5s43 10.5 67 10.5h187c7.33301 0 13.666 -3.5 18.999 -10.5s8 -14.167 8 -21.5zM215.996 407.998c-14.667 0 -29 -2.16895 -43 -6.50195s-26.5 -11 -37.5 -20
s-20 -20.667 -27 -35s-10.5 -31.833 -10.5 -52.5v-126c0 -21.333 3.33301 -39.166 10 -53.499s15.5 -26.166 26.5 -35.499s23.5 -16 37.5 -20s28.667 -6 44 -6h161v355h-161z" />
    <glyph glyph-name="Hcircumflex" unicode="&#x124;" horiz-adv-x="546" 
d="M459 -5c-10 0 -16.833 1.83301 -20.5 5.5s-5.5 11.167 -5.5 22.5v307h-320v-307c0 -11.333 -1.83301 -18.833 -5.5 -22.5s-10.5 -5.5 -20.5 -5.5s-17 2 -21 6s-6 11.333 -6 22v620c0 10.667 2 18 6 22s11 6 21 6s16.833 -1.83301 20.5 -5.5s5.5 -11.167 5.5 -22.5v-265
h320v265c0 11.333 1.83301 18.833 5.5 22.5s10.5 5.5 20.5 5.5s17 -2 21 -6s6 -11.333 6 -22v-620c0 -10.667 -2 -18 -6 -22s-11 -6 -21 -6zM271 789l-116.999 -89c-3.33301 -2.66699 -7.33301 -4 -12 -4c-6.66699 0 -12.5 2.83301 -17.5 8.5s-7.5 11.5 -7.5 17.5
s2.33301 11 7 15l121 99l9 5.5c2.66699 1.66699 5.66699 2.5 9 2.5h17c5.33301 0 10.666 -2.33301 15.999 -7l121 -99c5.33301 -4 8 -9 8 -15s-2.5 -11.833 -7.5 -17.5s-11.167 -8.5 -18.5 -8.5c-4.66699 0 -8.66699 1.33301 -12 4z" />
    <glyph glyph-name="hcircumflex" unicode="&#x125;" horiz-adv-x="489" 
d="M412 -5c-9.33301 0 -16.166 2.16699 -20.499 6.5s-6.5 9.16602 -6.5 14.499v275c0 20.667 -3.33301 38.334 -10 53.001s-15.5 26.667 -26.5 36s-23.667 16 -38 20s-28.833 6 -43.5 6h-161v-390c0 -5.33301 -2 -10.166 -6 -14.499s-10.667 -6.5 -20 -6.5
c-10 0 -17 2.16699 -21 6.5s-6 9.16602 -6 14.499v660c0 5.33301 2.16699 10.166 6.5 14.499s11.166 6.5 20.499 6.5s16 -2.16699 20 -6.5s6 -9.16602 6 -14.499v-217h162c52.667 0 94.167 -13.833 124.5 -41.5s45.5 -69.834 45.5 -126.501v-275
c0 -5.33301 -2 -10.166 -6 -14.499s-10.667 -6.5 -20 -6.5zM81 789l-116.999 -89c-3.33301 -2.66699 -7.33301 -4 -12 -4c-6.66699 0 -12.5 2.83301 -17.5 8.5s-7.5 11.5 -7.5 17.5s2.33301 11 7 15l121 99l9 5.5c2.66699 1.66699 5.66699 2.5 9 2.5h17
c5.33301 0 10.666 -2.33301 15.999 -7l121 -99c5.33301 -4 8 -9 8 -15s-2.5 -11.833 -7.5 -17.5s-11.167 -8.5 -18.5 -8.5c-4.66699 0 -8.66699 1.33301 -12 4z" />
    <glyph glyph-name="Hbar" unicode="&#x126;" horiz-adv-x="546" 
d="M459 -5c-10 0 -16.8369 1.83301 -20.5039 5.5s-5.5 11.167 -5.5 22.5v307h-320v-307c0 -11.333 -1.83301 -18.833 -5.5 -22.5s-10.5 -5.5 -20.5 -5.5s-17 2 -21 6s-6 11.333 -6 22v502h-30c-11.333 0 -19.166 1.66699 -23.499 5s-6.5 10 -6.5 20s2.33301 16.5 7 19.5
s12.334 4.5 23.001 4.5h30v69c0 10.667 2 18 6 22s11 6 21 6s16.833 -1.83301 20.5 -5.5s5.5 -11.167 5.5 -22.5v-69h320v69c0 11.333 1.83301 18.833 5.5 22.5s10.5 5.5 20.5 5.5s17 -2 21 -6s6 -11.333 6 -22v-69h23c10.667 0 18.834 -1.5 24.501 -4.5s8.5 -9.5 8.5 -19.5
s-2.66699 -16.667 -8 -20s-13.666 -5 -24.999 -5h-23v-502c0 -10.667 -2 -18 -6 -22s-11 -6 -21 -6zM432.996 378v147h-320v-147h320z" />
    <glyph glyph-name="hbar" unicode="&#x127;" horiz-adv-x="489" 
d="M412 -5c-9.33301 0 -16.1699 2.16699 -20.5029 6.5s-6.5 9.16602 -6.5 14.499v275c0 20.667 -3.33301 38.334 -10 53.001s-15.5 26.667 -26.5 36s-23.667 16 -38 20s-28.833 6 -43.5 6h-161v-390c0 -5.33301 -2 -10.166 -6 -14.499s-10.667 -6.5 -20 -6.5
c-10 0 -17 2.16699 -21 6.5s-6 9.16602 -6 14.499v509h-23c-11.333 0 -19.166 1.66699 -23.499 5s-6.5 10 -6.5 20s2.33301 16.5 7 19.5s12.334 4.5 23.001 4.5h23v102c0 5.33301 2.16699 10.166 6.5 14.499s11.166 6.5 20.499 6.5s16 -2.16699 20 -6.5
s6 -9.16602 6 -14.499v-102h229c10.667 0 18.834 -1.5 24.501 -4.5s8.5 -9.5 8.5 -19.5s-2.66699 -16.667 -8 -20s-13.666 -5 -24.999 -5h-229v-66h162c52.667 0 94.167 -13.833 124.5 -41.5s45.5 -69.834 45.5 -126.501v-275c0 -5.33301 -2 -10.166 -6 -14.499
s-10.667 -6.5 -20 -6.5z" />
    <glyph glyph-name="Itilde" unicode="&#x128;" horiz-adv-x="233" 
d="M117 -5c-10 0 -17 2 -21 6s-6 11.333 -6 22v620c0 10.667 2 18 6 22s11 6 21 6s16.833 -1.83301 20.5 -5.5s5.5 -11.167 5.5 -22.5v-620c0 -11.333 -1.83301 -18.833 -5.5 -22.5s-10.5 -5.5 -20.5 -5.5zM259 766c-10 -20.667 -22.6631 -34.6689 -37.9961 -42.002
s-29 -11 -41 -11c-10.667 0 -21.834 1.83301 -33.501 5.5s-23 7.83398 -34 12.501s-21.833 8.83398 -32.5 12.501s-20.334 5.5 -29.001 5.5c-6 0 -11.333 -1.83301 -16 -5.5s-9.16699 -7.66699 -13.5 -12l-12 -12c-3.66699 -3.66699 -7.5 -5.5 -11.5 -5.5
c-9.33301 0 -15.833 3 -19.5 9s-5.5 10.667 -5.5 14c0 1.33301 0.166992 2.5 0.5 3.5s0.5 1.83301 0.5 2.5c8.66699 15.333 19 28 31 38s26 15 42 15c10 0 20.833 -2 32.5 -6l35 -12.5l34 -12.5c11 -4 20.5 -6 28.5 -6c7.33301 0 13.666 2 18.999 6s10.166 8.5 14.499 13.5
s8.66602 9.5 12.999 13.5s8.83301 6 13.5 6c8.66699 0 14.834 -2.83301 18.501 -8.5s5.5 -10.167 5.5 -13.5c0 -2.66699 -0.666992 -6 -2 -10z" />
    <glyph glyph-name="itilde" unicode="&#x129;" horiz-adv-x="296" 
d="M185 -5c-10 0 -17 2.16699 -21 6.5s-6 9.16602 -6 14.499v390h-101c-4 0 -8.33301 1.83301 -13 5.5s-7 10.834 -7 21.501c0 9.33301 2 16 6 20s8.66699 6 14 6h128c10 0 16.833 -2.33301 20.5 -7s5.5 -9.33398 5.5 -14.001v-422c0 -5.33301 -2 -10.166 -6 -14.499
s-10.667 -6.5 -20 -6.5zM290 596c-10 -20.667 -22.6631 -34.6689 -37.9961 -42.002s-29 -11 -41 -11c-10.667 0 -21.834 1.83301 -33.501 5.5s-23 7.83398 -34 12.501s-21.833 8.83398 -32.5 12.501s-20.334 5.5 -29.001 5.5c-6 0 -11.333 -1.83301 -16 -5.5
s-9.16699 -7.66699 -13.5 -12l-12 -12c-3.66699 -3.66699 -7.5 -5.5 -11.5 -5.5c-9.33301 0 -15.833 3 -19.5 9s-5.5 10.667 -5.5 14c0 1.33301 0.166992 2.5 0.5 3.5s0.5 1.83301 0.5 2.5c8.66699 15.333 19 28 31 38s26 15 42 15c10 0 20.833 -2 32.5 -6l35 -12.5
l34 -12.5c11 -4 20.5 -6 28.5 -6c7.33301 0 13.666 2 18.999 6s10.166 8.5 14.499 13.5s8.66602 9.5 12.999 13.5s8.83301 6 13.5 6c8.66699 0 14.834 -2.83301 18.501 -8.5s5.5 -10.167 5.5 -13.5c0 -2.66699 -0.666992 -6 -2 -10z" />
    <glyph glyph-name="Imacron" unicode="&#x12a;" horiz-adv-x="252" 
d="M125 -5c-10 0 -17 2 -21 6s-6 11.333 -6 22v620c0 10.667 2 18 6 22s11 6 21 6s16.833 -1.83301 20.5 -5.5s5.5 -11.167 5.5 -22.5v-620c0 -11.333 -1.83301 -18.833 -5.5 -22.5s-10.5 -5.5 -20.5 -5.5zM31 720c-8.66699 0 -16 1.83301 -22 5.5s-9 10.834 -9 21.501
c-0 9.33301 2.83301 15.833 8.5 19.5s13.167 5.5 22.5 5.5h191c8.66699 0 16 -1.66699 22 -5s9 -10 9 -20c0 -10.667 -3 -17.834 -9 -21.501s-13.333 -5.5 -22 -5.5h-191z" />
    <glyph glyph-name="imacron" unicode="&#x12b;" horiz-adv-x="294" 
d="M183 -5c-10 0 -17 2.16699 -21 6.5s-6 9.16602 -6 14.499v390h-101c-4 0 -8.33301 1.83301 -13 5.5s-7 10.834 -7 21.501c0 9.33301 2 16 6 20s8.66699 6 14 6h128c10 0 16.833 -2.33301 20.5 -7s5.5 -9.33398 5.5 -14.001v-422c0 -5.33301 -2 -10.166 -6 -14.499
s-10.667 -6.5 -20 -6.5zM33 536c-8.66699 0 -16 1.83301 -22 5.5s-9 10.834 -9 21.501c0 9.33301 2.83301 15.833 8.5 19.5s13.167 5.5 22.5 5.5h191c8.66699 0 16 -1.66699 22 -5s9 -10 9 -20c0 -10.667 -3 -17.834 -9 -21.501s-13.333 -5.5 -22 -5.5h-191z" />
    <glyph glyph-name="Ibreve" unicode="&#x12c;" horiz-adv-x="300" 
d="M151 751c20 0 39.335 6.33301 58.002 19s34.667 32.667 48 60c4 6.66699 10.333 10 19 10c7.33301 0 13.666 -2.5 18.999 -7.5s8 -10.167 8 -15.5c0 -2 -0.333008 -3.66699 -1 -5c-9.33301 -23.333 -20.333 -42.5 -33 -57.5s-25.667 -26.667 -39 -35
s-26.833 -14.166 -40.5 -17.499s-26.5 -5 -38.5 -5s-24.833 1.66699 -38.5 5s-27.167 9.16602 -40.5 17.499s-26.333 20 -39 35s-23.667 34.167 -33 57.5c-0.666992 1.33301 -1 3 -1 5c0 5.33301 2.66699 10.5 8 15.5s11.666 7.5 18.999 7.5c8.66699 0 15 -3.33301 19 -10
c13.333 -27.333 29.333 -47.333 48 -60s38 -19 58 -19zM150.002 -5c-10 0 -17 2 -21 6s-6 11.333 -6 22v620c0 10.667 2 18 6 22s11 6 21 6s16.833 -1.83301 20.5 -5.5s5.5 -11.167 5.5 -22.5v-620c0 -11.333 -1.83301 -18.833 -5.5 -22.5s-10.5 -5.5 -20.5 -5.5z" />
    <glyph glyph-name="ibreve" unicode="&#x12d;" horiz-adv-x="294" 
d="M183 -5c-10 0 -17 2.16699 -21 6.5s-6 9.16602 -6 14.499v390h-101c-4 0 -8.33301 1.83301 -13 5.5s-7 10.834 -7 21.501c0 9.33301 2 16 6 20s8.66699 6 14 6h128c10 0 16.833 -2.33301 20.5 -7s5.5 -9.33398 5.5 -14.001v-422c0 -5.33301 -2 -10.166 -6 -14.499
s-10.667 -6.5 -20 -6.5zM144 568c20 0 39.1699 7.49805 57.5029 22.498s33.833 35.167 46.5 60.5c2 3.33301 4.5 5.66602 7.5 6.99902s6.16699 2 9.5 2c7.33301 0 13.5 -2.33301 18.5 -7s7.5 -9.66699 7.5 -15c0 -2 -0.333008 -3.33301 -1 -4
c-8 -22 -18.333 -40.167 -31 -54.5s-25.834 -26 -39.501 -35s-27.334 -15.333 -41.001 -19s-25.834 -5.5 -36.501 -5.5c-12.667 0 -25.834 1.83301 -39.501 5.5s-27 10 -40 19s-25.167 20.667 -36.5 35s-20.666 32.5 -27.999 54.5
c0 0.666992 -0.166992 1.33398 -0.5 2.00098s-0.5 1.33398 -0.5 2.00098c0 5.33301 2.5 10.333 7.5 15s11.167 7 18.5 7c3.33301 0 6.5 -0.666992 9.5 -2s5.5 -3.66602 7.5 -6.99902c12.667 -25.333 27.167 -45.5 43.5 -60.5s36.5 -22.5 60.5 -22.5z" />
    <glyph glyph-name="Iogonek" unicode="&#x12e;" horiz-adv-x="233" 
d="M143 23c0 -15.333 -4.33301 -24.334 -13 -27.001c-15.333 -19.333 -26.833 -36.833 -34.5 -52.5s-11.5 -30.167 -11.5 -43.5c0 -16 4.5 -28.5 13.5 -37.5s24.167 -13.5 45.5 -13.5c13.333 0 27.333 3.66699 42 11c4 2 7.66699 3 11 3c6 0 11 -2.5 15 -7.5
s6 -10.167 6 -15.5c0 -7.33301 -3.5 -13.166 -10.5 -17.499s-15.167 -8 -24.5 -11s-18.5 -5 -27.5 -6s-15.167 -1.5 -18.5 -1.5c-20 0 -36.5 2.83301 -49.5 8.5s-23.333 13 -31 22s-13 18.833 -16 29.5s-4.5 20.667 -4.5 30c0 16.667 4.16699 35 12.5 55s22.5 41 42.5 63v11
v620c0 10.667 2 18 6 22s11 6 21 6s16.833 -1.83301 20.5 -5.5s5.5 -11.167 5.5 -22.5v-620v0z" />
    </font>
</defs>
</svg>
