<?xml version="1.0" standalone="no"?>
<!DOCTYPE svg PUBLIC "-//W3C//DTD SVG 1.1//EN" "http://www.w3.org/Graphics/SVG/1.1/DTD/svg11.dtd" >
<svg>
<metadata>
Created by FontForge 20090914 at Sat Apr  4 15:23:27 2020
 By www-data
Copyright (c) 2000, 2002, 2005 Parachute&#194;&#168;, www.parachute.gr.  All rights reserved.
</metadata>
<defs>
<font id="PFIsotextPro-Bold" horiz-adv-x="1818" >
  <font-face 
    font-family="PF Isotext Pro"
    font-weight="700"
    font-stretch="normal"
    units-per-em="1000"
    panose-1="2 0 8 6 0 0 0 2 0 3"
    ascent="750"
    descent="-250"
    x-height="466"
    cap-height="668"
    bbox="-208.999 -250.005 1760 913.002"
    underline-thickness="60"
    underline-position="-50"
    unicode-range="U+0020-U+FB05"
  />
<missing-glyph horiz-adv-x="454" 
d="M0 700h454v-700h-454v700zM327 85l-100 181l-100 -181h200zM327 615h-200l100 -181zM369 184v332l-92 -166zM85 184l92 166l-92 166v-332z" />
    <glyph glyph-name="fj" unicode="fj" horiz-adv-x="572" 
d="M279 576c-22 0 -39.8311 -3.66602 -53.498 -10.999s-20.5 -23.666 -20.5 -48.999v-50h248c17.333 0 31.5 -4.83301 42.5 -14.5s16.5 -23.5 16.5 -41.5v-429c0 -60.667 -16.667 -106.334 -50 -137.001s-79.333 -46 -138 -46h-56c-12 0 -23.167 5.16699 -33.5 15.5
s-15.5 24.5 -15.5 42.5c0 19.333 5.33301 33.666 16 42.999s21.667 14 33 14h49c22 0 40 5.83301 54 17.5s21 30.167 21 55.5v372h-187v-316c0 -11.333 -5.16699 -22 -15.5 -32s-25.166 -15 -44.499 -15c-20.667 0 -35.834 5 -45.501 15s-14.5 20.667 -14.5 32v316h-32
c-11.333 0 -22.333 4.33301 -33 13s-16 22.334 -16 41.001c0 19.333 5.33301 33.166 16 41.499s21.667 12.5 33 12.5h32v46c0 62 16.5 107.5 49.5 136.5s76.833 43.5 131.5 43.5h134c6 0 12.167 -1.16699 18.5 -3.5s12.166 -6 17.499 -11s9.66602 -11 12.999 -18
s5 -15.167 5 -24.5c0 -18 -6 -32.333 -18 -43s-24 -16 -36 -16h-121z" />
    <glyph glyph-name="ffj" unicode="ffj" horiz-adv-x="887" 
d="M279 566c-22 0 -39.8291 -3.66699 -53.4961 -11s-20.5 -23.666 -20.5 -48.999v-40h195v66c0 62 16.5 107.5 49.5 136.5s76.833 43.5 131.5 43.5h134c6 0 12.167 -1.16699 18.5 -3.5s12.166 -6 17.499 -11s9.66602 -11 12.999 -18s5 -15.167 5 -24.5
c0 -18 -6 -32.333 -18 -43s-24 -16 -36 -16h-121c-22 0 -39.833 -3.66699 -53.5 -11s-20.5 -23.666 -20.5 -48.999v-70h248c17.333 0 31.5 -4.83301 42.5 -14.5s16.5 -23.5 16.5 -41.5v-429c0 -60.667 -16.667 -106.334 -50 -137.001s-79.333 -46 -138 -46h-56
c-12 0 -23.167 5.16699 -33.5 15.5s-15.5 24.5 -15.5 42.5c0 19.333 5.33301 33.666 16 42.999s21.667 14 33 14h49c22 0 40 5.83301 54 17.5s21 30.167 21 55.5v372h-187v-316c0 -11.333 -5.16699 -22 -15.5 -32s-25.166 -15 -44.499 -15c-20.667 0 -35.834 5 -45.501 15
s-14.5 20.667 -14.5 32v316h-195v-316c0 -11.333 -5.16699 -22 -15.5 -32s-25.166 -15 -44.499 -15c-20.667 0 -35.834 5 -45.501 15s-14.5 20.667 -14.5 32v316h-32c-11.333 0 -22.333 4.33301 -33 13s-16 22.334 -16 41.001c0 19.333 5.33301 33.166 16 41.499
s21.667 12.5 33 12.5h32v36c0 62 16.5 107.5 49.5 136.5s76.833 43.5 131.5 43.5h57c6 0 12.167 -1.16699 18.5 -3.5s12.166 -6 17.499 -11s9.66602 -11 12.999 -18s5 -15.167 5 -24.5c0 -18 -6 -32.333 -18 -43s-24 -16 -36 -16h-44z" />
    <glyph glyph-name="ff" unicode="ff" horiz-adv-x="702" 
d="M85 466l0.00292969 35.9971c0 62 16.5 107.5 49.5 136.5s76.833 43.5 131.5 43.5h57c6 0 12.167 -1.16699 18.5 -3.5s12.166 -6 17.499 -11s9.66602 -11 12.999 -18s5 -15.167 5 -24.5c0 -18 -6 -32.333 -18 -43s-24 -16 -36 -16h-44c-22 0 -39.833 -3.66699 -53.5 -11
s-20.5 -23.666 -20.5 -48.999v-40h196v66c0 62 16.333 107.5 49 136.5s76.334 43.5 131.001 43.5h69c6 0 12.167 -1.16699 18.5 -3.5s12.166 -6 17.499 -11s9.66602 -11 12.999 -18s5 -15.167 5 -24.5c0 -18 -6 -32.333 -18 -43s-24 -16 -36 -16h-56
c-22 0 -39.833 -3.66699 -53.5 -11s-20.5 -23.666 -20.5 -48.999v-70h107c11.333 0 22.166 -4.16699 32.499 -12.5s15.5 -22.166 15.5 -41.499c0 -18 -5.16699 -31.5 -15.5 -40.5s-21.166 -13.5 -32.499 -13.5h-107v-316c0 -11.333 -5.16699 -22 -15.5 -32
s-25.166 -15 -44.499 -15c-20.667 0 -35.834 5 -45.501 15s-14.5 20.667 -14.5 32v316h-195v-316c0 -11.333 -5.16699 -22 -15.5 -32s-25.166 -15 -44.499 -15c-20.667 0 -35.834 5 -45.501 15s-14.5 20.667 -14.5 32v316h-32c-11.333 0 -22.333 4.33301 -33 13
s-16 22.334 -16 41.001c0 19.333 5.33301 33.166 16 41.499s21.667 12.5 33 12.5h32z" />
    <glyph glyph-name="fi" unicode="fi" horiz-adv-x="572" 
d="M513 42c0 -11.333 -4.83008 -22.001 -14.4971 -32.001s-24.834 -15 -45.501 -15c-20 0 -35 5 -45 15s-15 20.667 -15 32v316h-188v-316c0 -11.333 -5.16699 -22 -15.5 -32s-25.166 -15 -44.499 -15c-20.667 0 -35.834 5 -45.501 15s-14.5 20.667 -14.5 32v316h-32
c-11.333 0 -22.333 4.33301 -33 13s-16 22.334 -16 41.001c0 19.333 5.33301 33.166 16 41.499s21.667 12.5 33 12.5h32v46c0 62 16.5 107.5 49.5 136.5s76.833 43.5 131.5 43.5h134c6 0 12.167 -1.16699 18.5 -3.5s12.166 -6 17.499 -11s9.66602 -11 12.999 -18
s5 -15.167 5 -24.5c0 -18 -6 -32.333 -18 -43s-24 -16 -36 -16h-121c-22 0 -39.833 -3.66699 -53.5 -11s-20.5 -23.666 -20.5 -48.999v-50h248c17.333 0 31.5 -4.83301 42.5 -14.5s16.5 -23.5 16.5 -41.5z" />
    <glyph glyph-name="fl" unicode="fl" horiz-adv-x="650" 
d="M205 358l-0.000976562 -316.002c0 -11.333 -5.16699 -22 -15.5 -32s-25.166 -15 -44.499 -15c-20.667 0 -35.834 5 -45.501 15s-14.5 20.667 -14.5 32v316h-32c-11.333 0 -22.333 4.33301 -33 13s-16 22.334 -16 41.001c0 19.333 5.33301 33.166 16 41.499
s21.667 12.5 33 12.5h32v39c0 62 16.5 107.5 49.5 136.5s76.833 43.5 131.5 43.5h79c18.667 0 32.334 -0.166992 41.001 -0.5s13.834 -0.5 15.501 -0.5h3.5c10.667 12 26.667 18 48 18c19.333 0 34.166 -5 44.499 -15s15.5 -20.667 15.5 -32v-474
c0 -19.333 5.16699 -35.833 15.5 -49.5s27.833 -20.5 52.5 -20.5h14c17.333 0 30.5 -5.16699 39.5 -15.5s13.5 -24.5 13.5 -42.5c0 -18.667 -5.33301 -32.834 -16 -42.501s-23 -14.5 -37 -14.5h-25c-54.667 0 -97.667 15.333 -129 46s-47 77.334 -47 140.001v387h-115
c-22 0 -39.833 -3.66699 -53.5 -11s-20.5 -23.666 -20.5 -48.999v-43h87c11.333 0 22.166 -4.16699 32.499 -12.5s15.5 -22.166 15.5 -41.499c0 -18 -5.16699 -31.5 -15.5 -40.5s-21.166 -13.5 -32.499 -13.5h-87z" />
    <glyph glyph-name="ffi" unicode="ffi" horiz-adv-x="887" 
d="M707 358l-186.995 -0.00195312v-316c0 -11.333 -5.16699 -22 -15.5 -32s-25.166 -15 -44.499 -15c-20.667 0 -35.834 5 -45.501 15s-14.5 20.667 -14.5 32v316h-195v-316c0 -11.333 -5.16699 -22 -15.5 -32s-25.166 -15 -44.499 -15c-20.667 0 -35.834 5 -45.501 15
s-14.5 20.667 -14.5 32v316h-32c-11.333 0 -22.333 4.33301 -33 13s-16 22.334 -16 41.001c0 19.333 5.33301 33.166 16 41.499s21.667 12.5 33 12.5h32v36c0 62 16.5 107.5 49.5 136.5s76.833 43.5 131.5 43.5h57c6 0 12.167 -1.16699 18.5 -3.5s12.166 -6 17.499 -11
s9.66602 -11 12.999 -18s5 -15.167 5 -24.5c0 -18 -6 -32.333 -18 -43s-24 -16 -36 -16h-44c-22 0 -39.833 -3.66699 -53.5 -11s-20.5 -23.666 -20.5 -48.999v-40h195v66c0 62 16.5 107.5 49.5 136.5s76.833 43.5 131.5 43.5h134c6 0 12.167 -1.16699 18.5 -3.5
s12.166 -6 17.499 -11s9.66602 -11 12.999 -18s5 -15.167 5 -24.5c0 -18 -6 -32.333 -18 -43s-24 -16 -36 -16h-121c-22 0 -39.833 -3.66699 -53.5 -11s-20.5 -23.666 -20.5 -48.999v-70h248c17.333 0 31.5 -4.83301 42.5 -14.5s16.5 -23.5 16.5 -41.5v-368
c0 -11.333 -4.83301 -22 -14.5 -32s-24.834 -15 -45.501 -15c-20 0 -35 5 -45 15s-15 20.667 -15 32v316z" />
    <glyph glyph-name="ffl" unicode="ffl" horiz-adv-x="965" 
d="M400 358l-194.999 -0.00292969v-316c0 -11.333 -5.16699 -22 -15.5 -32s-25.166 -15 -44.499 -15c-20.667 0 -35.834 5 -45.501 15s-14.5 20.667 -14.5 32v316h-32c-11.333 0 -22.333 4.33301 -33 13s-16 22.334 -16 41.001c0 19.333 5.33301 33.166 16 41.499
s21.667 12.5 33 12.5h32v36c0 62 16.5 107.5 49.5 136.5s76.833 43.5 131.5 43.5h57c6 0 12.167 -1.16699 18.5 -3.5s12.166 -6 17.499 -11s9.66602 -11 12.999 -18s5 -15.167 5 -24.5c0 -18 -6 -32.333 -18 -43s-24 -16 -36 -16h-44c-22 0 -39.833 -3.66699 -53.5 -11
s-20.5 -23.666 -20.5 -48.999v-40h195v66c0 62 16.5 107.5 49.5 136.5s76.833 43.5 131.5 43.5h79c18.667 0 32.334 -0.166992 41.001 -0.5s13.834 -0.5 15.501 -0.5h3.5c10.667 12 26.667 18 48 18c19.333 0 34.166 -5 44.499 -15s15.5 -20.667 15.5 -32v-501
c0 -19.333 5.16699 -35.833 15.5 -49.5s27.833 -20.5 52.5 -20.5h14c17.333 0 30.5 -5.16699 39.5 -15.5s13.5 -24.5 13.5 -42.5c0 -18.667 -5.33301 -32.834 -16 -42.501s-23 -14.5 -37 -14.5h-25c-54.667 0 -97.667 15.333 -129 46s-47 77.334 -47 140.001v414h-115
c-22 0 -39.833 -3.66699 -53.5 -11s-20.5 -23.666 -20.5 -48.999v-70h87c11.333 0 22.166 -4.16699 32.499 -12.5s15.5 -22.166 15.5 -41.499c0 -18 -5.16699 -31.5 -15.5 -40.5s-21.166 -13.5 -32.499 -13.5h-87v-316c0 -11.333 -5.16699 -22 -15.5 -32
s-25.166 -15 -44.499 -15c-20.667 0 -35.834 5 -45.501 15s-14.5 20.667 -14.5 32v316z" />
    <glyph glyph-name="ft" unicode="ft" horiz-adv-x="733" 
d="M676 110c12 0 24 -4.83594 36 -14.5029s18 -23.5 18 -41.5c0 -9.33301 -1.66699 -17.5 -5 -24.5s-7.66602 -13 -12.999 -18s-11.166 -8.66699 -17.499 -11s-12.5 -3.5 -18.5 -3.5h-81c-22.667 0 -44 3.33301 -64 10s-37.333 17.334 -52 32.001s-26.334 33 -35.001 55
s-13 48.667 -13 80v184h-226v-316c0 -11.333 -5.16699 -22 -15.5 -32s-25.166 -15 -44.499 -15c-20.667 0 -35.834 5 -45.501 15s-14.5 20.667 -14.5 32v316h-32c-11.333 0 -22.333 4.33301 -33 13s-16 22.334 -16 41.001c0 19.333 5.33301 33.166 16 41.499
s21.667 12.5 33 12.5h33v46c0 62 16.333 107.5 49 136.5s76.334 43.5 131.001 43.5h69c6 0 12.167 -1.16699 18.5 -3.5s12.166 -6 17.499 -11s9.66602 -11 12.999 -18s5 -15.167 5 -24.5c0 -18 -6 -32.333 -18 -43s-24 -16 -36 -16h-56c-22 0 -39.833 -3.66699 -53.5 -11
s-20.5 -23.666 -20.5 -48.999v-50h225v124c0 11.333 4.83301 22 14.5 32s24.834 15 45.501 15c19.333 0 34.166 -5 44.499 -15s15.5 -20.667 15.5 -32v-124h104c11.333 0 22.166 -4.83301 32.499 -14.5s15.5 -23.5 15.5 -41.5c0 -19.333 -5.16699 -32.833 -15.5 -40.5
s-21.166 -11.5 -32.499 -11.5h-104v-176c0 -25.333 6.16699 -43.666 18.5 -54.999s30.833 -17 55.5 -17h52z" />
    <glyph glyph-name=".notdef" horiz-adv-x="454" 
d="M0 700h454v-700h-454v700zM327 85l-100 181l-100 -181h200zM327 615h-200l100 -181zM369 184v332l-92 -166zM85 184l92 166l-92 166v-332z" />
    <glyph glyph-name="space" unicode=" " horiz-adv-x="320" 
 />
    <glyph glyph-name="exclam" unicode="!" horiz-adv-x="233" 
d="M118 0c-18 0 -33.6689 6.16699 -47.002 18.5s-20 27.5 -20 45.5c0 21.333 6.83301 37.333 20.5 48s28.834 16 45.501 16s31.834 -5.33301 45.501 -16s20.5 -26.667 20.5 -48c0 -18 -6.16699 -33.167 -18.5 -45.5s-27.833 -18.5 -46.5 -18.5zM116.998 183
c-21.333 0 -36.666 5.83301 -45.999 17.5s-14 26.5 -14 44.5v361c0 18 4.66699 32.833 14 44.5s24.666 17.5 45.999 17.5s36.5 -5.83301 45.5 -17.5s13.5 -26.5 13.5 -44.5v-361c0 -18 -4.5 -32.833 -13.5 -44.5s-24.167 -17.5 -45.5 -17.5z" />
    <glyph glyph-name="quotedbl" unicode="&#x22;" horiz-adv-x="313" 
d="M233 430c-12.667 0 -22.832 2 -30.499 6s-13.5 8.83301 -17.5 14.5s-6.66699 11.667 -8 18s-2 12.166 -2 17.499v135c0 4 0.666992 9 2 15s4 11.833 8 17.5s9.83301 10.334 17.5 14.001s18.167 5.5 31.5 5.5c17.333 0 30.666 -5.83301 39.999 -17.5s14 -25.5 14 -41.5
v-129c0 -16 -4.5 -29.167 -13.5 -39.5s-22.833 -15.5 -41.5 -15.5zM83.002 430c-12.667 0 -22.832 2 -30.499 6s-13.5 8.83301 -17.5 14.5s-6.66699 11.667 -8 18s-2 12.166 -2 17.499v135c0 4 0.666992 9 2 15s4 11.833 8 17.5s9.83301 10.334 17.5 14.001
s18.167 5.5 31.5 5.5c17.333 0 30.666 -5.83301 39.999 -17.5s14 -25.5 14 -41.5v-129c0 -16 -4.5 -29.167 -13.5 -39.5s-22.833 -15.5 -41.5 -15.5z" />
    <glyph glyph-name="numbersign" unicode="#" horiz-adv-x="520" 
d="M375 604c2 7.33301 6.33301 13.498 13 18.498s15.667 7.5 27 7.5c18.667 0 32 -4.66699 40 -14s12 -18.666 12 -27.999c0 -4.66699 -0.333008 -8 -1 -10l-36 -120h28c8 0 16 -3.66699 24 -11s12 -17.666 12 -30.999c0 -17.333 -4 -30 -12 -38s-16.333 -12 -25 -12h-55
l-19 -61h40c8 0 16 -3.83301 24 -11.5s12 -17.5 12 -29.5c0 -17.333 -4.16699 -30.166 -12.5 -38.499s-16.5 -12.5 -24.5 -12.5h-67l-54 -179c-2 -6.66699 -6.5 -12.167 -13.5 -16.5s-15.833 -6.5 -26.5 -6.5c-19.333 0 -32.666 4.66699 -39.999 14s-11 18.666 -11 27.999
c0 4.66699 0.333008 8 1 10l45 150h-75l-50 -168c-2 -6.66699 -6.66699 -12.334 -14 -17.001s-16 -7 -26 -7c-19.333 0 -32.833 5.16699 -40.5 15.5s-11.5 19.5 -11.5 27.5c0 4.66699 0.333008 8 1 10l42 139h-18c-8 0 -16.333 3.33301 -25 10s-13 17 -13 31
c0 16.667 3.66699 29.334 11 38.001s15.666 13 24.999 13h48l18 61h-31c-9.33301 0 -18 3.66699 -26 11s-12 19 -12 35c0 17.333 4.33301 29.333 13 36s17 10 25 10h59l48 157c2 6.66699 6.33301 12.667 13 18s15.334 8 26.001 8c19.333 0 33.166 -5 41.499 -15
s12.5 -18.667 12.5 -26c0 -2 -0.166992 -3.83301 -0.5 -5.5s-0.833008 -3.5 -1.5 -5.5l-40 -131h76zM209 304.998h75l19 61h-75z" />
    <glyph glyph-name="dollar" unicode="$" horiz-adv-x="520" 
d="M212 699c0 7.33301 3.16504 14.8359 9.49805 22.5029s16.833 11.5 31.5 11.5c13.333 0 23.666 -3.5 30.999 -10.5s11 -14.167 11 -21.5v-50h108c4.66699 0 9.66699 -1.16699 15 -3.5s10.333 -5.83301 15 -10.5s8.66699 -10.667 12 -18s5 -15.666 5 -24.999
c0 -12 -1.66699 -21.667 -5 -29s-7.33301 -13 -12 -17s-9.66699 -6.83301 -15 -8.5s-10.333 -2.5 -15 -2.5h-108v-152l23 -9c20 -8 39.667 -17 59 -27s36.833 -22 52.5 -36s28.334 -30.833 38.001 -50.5s14.5 -42.834 14.5 -69.501c0 -24.667 -4.33301 -48 -13 -70
s-20.834 -41.333 -36.501 -58s-34.5 -29.834 -56.5 -39.501s-46.333 -14.5 -73 -14.5h-8v-49c0 -7.33301 -3.66699 -14.5 -11 -21.5s-17.666 -10.5 -30.999 -10.5c-14.667 0 -25.167 3.66699 -31.5 11s-9.5 14.666 -9.5 21.999v48h-113c-10 0 -20.333 4 -31 12
s-16 23.333 -16 46c0 10.667 1.66699 19.667 5 27s7.5 13.166 12.5 17.499s10.167 7.33301 15.5 9s10 2.5 14 2.5h113v170l-36 15c-19.333 8 -37.333 16.333 -54 25s-31.334 19.167 -44.001 31.5s-22.667 27.5 -30 45.5s-11 40.333 -11 67c0 24 3.83301 46.333 11.5 67
s18.834 38.667 33.501 54s32.834 27.5 54.501 36.5s46.834 13.833 75.501 14.5v48zM304.998 125.003c14 0 26.5 5.16895 37.5 15.502s16.5 26.166 16.5 47.499c0 15.333 -5.83301 29.166 -17.5 41.499s-27.167 22.833 -46.5 31.5v-136h10zM154.998 481.005
c0 -15.333 4.33301 -27.667 13 -37s21.667 -17 39 -23l5 -2v118h-2c-15.333 0 -28.333 -4.66699 -39 -14s-16 -23.333 -16 -42z" />
    <glyph glyph-name="percent" unicode="%" horiz-adv-x="821" 
d="M192 668c40 0 72.001 -10.833 96.001 -32.5s36 -54.5 36 -98.5v-143c0 -22 -3.5 -41.167 -10.5 -57.5s-16.5 -30 -28.5 -41s-26 -19.167 -42 -24.5s-33 -8 -51 -8h-15c-38.667 0 -70.834 10.833 -96.501 32.5s-38.5 54.5 -38.5 98.5v143c0 22 3.66699 41.167 11 57.5
s17.333 30 30 41s27 19.167 43 24.5s33 8 51 8h15zM229.001 543c0 12.667 -3.66797 22.834 -11.001 30.501s-17.666 11.5 -30.999 11.5h-6c-13.333 0 -24 -3.83301 -32 -11.5s-12 -17.834 -12 -30.501v-155c0 -13.333 4 -23.833 12 -31.5s18.667 -11.5 32 -11.5h6
c12 0 22 4.16699 30 12.5s12 18.5 12 30.5v155zM647 405c40 0 72.001 -10.833 96.001 -32.5s36 -54.5 36 -98.5v-143c0 -22 -3.5 -41.167 -10.5 -57.5s-16.5 -30 -28.5 -41s-26 -19.167 -42 -24.5s-33 -8 -51 -8h-15c-38.667 -0 -70.834 10.833 -96.501 32.5
s-38.5 54.5 -38.5 98.5v143c0 22 3.66699 41.167 11 57.5s17.333 30 30 41s27 19.167 43 24.5s33 8 51 8h15zM684.001 280c0 12.667 -3.66797 22.834 -11.001 30.501s-17.666 11.5 -30.999 11.5h-6c-13.333 0 -24 -3.83301 -32 -11.5s-12 -17.834 -12 -30.501v-155
c0 -13.333 4 -23.833 12 -31.5s18.667 -11.5 32 -11.5h6c12 0 22 4.16699 30 12.5s12 18.5 12 30.5v155zM486 661c4 10.667 9.83301 18.167 17.5 22.5s16.167 6.5 25.5 6.5c4 0 8.83301 -0.666992 14.5 -2s11.167 -3.5 16.5 -6.5s9.83301 -7.5 13.5 -13.5
s5.5 -13.333 5.5 -22c0 -6.66699 -1.33301 -13 -4 -19l-235 -609c-9.33301 -23.333 -24.333 -35 -45 -35c-17.333 0 -30.333 4.33301 -39 13s-13 18.667 -13 30c0 7.33301 1.66699 15 5 23z" />
    <glyph glyph-name="ampersand" unicode="&#x26;" horiz-adv-x="650" 
d="M60 395c0 34.667 5.16699 65.166 15.5 91.499s24 48 41 65s36.333 29.833 58 38.5s44.167 13 67.5 13h154c38.667 0 58 -20.333 58 -61c0 -20 -4.83301 -34.5 -14.5 -43.5s-24.167 -13.5 -43.5 -13.5h-144c-23.333 0 -41.5 -8.16699 -54.5 -24.5
s-19.5 -37.166 -19.5 -62.499v-193c0 -25.333 6 -46.333 18 -63s29.333 -25 52 -25h36c17.333 0 32.166 2.83301 44.499 8.5s22.5 13.334 30.5 23.001s13.833 20.834 17.5 33.501s5.5 26 5.5 40v56h-78c-19.333 0 -33.5 4.16699 -42.5 12.5s-13.5 23.166 -13.5 44.499
c0 19.333 4.5 34.166 13.5 44.499s23.167 15.5 42.5 15.5h179c10 0 19.167 1.5 27.5 4.5s15.833 6.5 22.5 10.5s12.834 7.5 18.501 10.5s11.5 4.5 17.5 4.5c8 0 15.667 -1.83301 23 -5.5s13.833 -8.66699 19.5 -15s10.167 -13.333 13.5 -21s5 -15.5 5 -23.5
c0 -12 -4.16699 -23 -12.5 -33s-18.833 -18.667 -31.5 -26s-26.167 -13 -40.5 -17s-27.833 -6 -40.5 -6h-5v-53c0 -36 -5.83301 -68 -17.5 -96s-27.167 -51.5 -46.5 -70.5s-41.833 -33.5 -67.5 -43.5s-52.5 -15 -80.5 -15h-46c-26.667 -0 -51.167 4.33301 -73.5 13
s-41.5 21.5 -57.5 38.5s-28.5 38.5 -37.5 64.5s-13.5 56.667 -13.5 92v187z" />
    <glyph glyph-name="quotesingle" unicode="'" horiz-adv-x="163" 
d="M83 430c-12.667 0 -22.832 2 -30.499 6s-13.5 8.83301 -17.5 14.5s-6.66699 11.667 -8 18s-2 12.166 -2 17.499v135c0 4 0.666992 9 2 15s4 11.833 8 17.5s9.83301 10.334 17.5 14.001s18.167 5.5 31.5 5.5c17.333 0 30.666 -5.83301 39.999 -17.5s14 -25.5 14 -41.5
v-129c0 -16 -4.5 -29.167 -13.5 -39.5s-22.833 -15.5 -41.5 -15.5z" />
    <glyph glyph-name="parenleft" unicode="(" horiz-adv-x="284" 
d="M151 316c0 -30.667 2.50293 -61.168 7.50293 -91.501s11.833 -59.5 20.5 -87.5s18.667 -54.167 30 -78.5s23.666 -45.833 36.999 -64.5c4.66699 -6.66699 7.83398 -12.667 9.50098 -18s2.5 -10.333 2.5 -15c0 -6.66699 -1.66699 -13.167 -5 -19.5
s-7.83301 -11.833 -13.5 -16.5s-11.834 -8.5 -18.501 -11.5s-13 -4.5 -19 -4.5c-16.667 0 -30 6.66699 -40 20c-16.667 22 -33 47.5 -49 76.5s-30.333 60.333 -43 94s-22.834 68.834 -30.501 105.501s-11.5 73.667 -11.5 111c0 29.333 2.83301 60 8.5 92
s13.167 63.667 22.5 95s20.166 61.166 32.499 89.499s25 53.333 38 75s26.167 38.834 39.5 51.501s26 19 38 19c8 0 15.5 -1.66699 22.5 -5s13 -7.5 18 -12.5s8.83301 -10.5 11.5 -16.5s4 -11.333 4 -16c0 -12 -4 -24 -12 -36c-32 -50 -56.667 -103.5 -74 -160.5
s-26 -115.5 -26 -175.5z" />
    <glyph glyph-name="parenright" unicode=")" horiz-adv-x="284" 
d="M133 316c0 60 -8.66797 118.501 -26.001 175.501s-42 110.5 -74 160.5c-8 12 -12 24 -12 36c0 4.66699 1.33301 10 4 16s6.5 11.5 11.5 16.5s11 9.16699 18 12.5s14.5 5 22.5 5c11.333 0 23.833 -6.33301 37.5 -19s27 -29.834 40 -51.501s25.667 -46.667 38 -75
s23.166 -58.166 32.499 -89.499s16.833 -63 22.5 -95s8.5 -62.667 8.5 -92c0 -37.333 -3.83301 -74.333 -11.5 -111s-17.834 -71.834 -30.501 -105.501s-27 -65 -43 -94s-32.333 -54.5 -49 -76.5c-5.33301 -6.66699 -11.333 -11.667 -18 -15s-13.667 -5 -21 -5
c-6 0 -12.5 1.5 -19.5 4.5s-13.167 6.83301 -18.5 11.5s-9.83301 10.167 -13.5 16.5s-5.5 12.833 -5.5 19.5c0 4.66699 0.833008 9.66699 2.5 15s4.83398 11.333 9.50098 18c12.667 18.667 24.834 40.167 36.501 64.5s21.834 50.5 30.501 78.5s15.5 57.167 20.5 87.5
s7.5 60.833 7.5 91.5z" />
    <glyph glyph-name="asterisk" unicode="*" horiz-adv-x="431" 
d="M354 599c3.33301 1.33301 7.00098 2.49902 11.001 3.49902s8 1.5 12 1.5c12 0 21.667 -6.66699 29 -20c2.66699 -5.33301 4 -11 4 -17c0 -7.33301 -2.16699 -13.333 -6.5 -18s-9.83301 -9.66699 -16.5 -15l-94 -64l62 -100c4.66699 -8 7 -16.333 7 -25
c0 -11.333 -4.66699 -20.666 -14 -27.999c-6.66699 -4.66699 -13.334 -7 -20.001 -7c-10 0 -20 5.66699 -30 17l-85 93l-93 -97c-4 -3.33301 -8 -6 -12 -8s-8.66699 -3 -14 -3c-8 0 -15.333 3.33301 -22 10v-1c-9.33301 7.33301 -14 15.333 -14 24
c0 4.66699 1 9.33398 3 14.001s4.66699 9.33398 8 14.001l62 96l-93 62c-6 4.66699 -11.333 9.66699 -16 15s-7 11.666 -7 18.999c0 6 1.66699 12 5 18c4 7.33301 8.33301 12.166 13 14.499s9.66699 3.5 15 3.5c6.66699 0 14 -1.66699 22 -5
c14 -5.33301 29.333 -11.5 46 -18.5s32.667 -13.167 48 -18.5l11 97c1.33301 9.33301 4.33301 18.333 9 27s13.667 13 27 13c14 0 23 -4 27 -12s6.66699 -16.667 8 -26l13 -98z" />
    <glyph glyph-name="plus" unicode="+" horiz-adv-x="520" 
d="M316 269l0.00195312 -108c0 -14.667 -4.5 -27 -13.5 -37s-23.5 -15 -43.5 -15c-18.667 0 -32.334 5.16699 -41.001 15.5s-13 22.5 -13 36.5v108h-117c-16 0 -29.333 4.33301 -40 13s-16 21.667 -16 39c0 18 5.5 31.333 16.5 40s24.167 13 39.5 13h117v110
c0 14 4.16699 26 12.5 36s22.166 15 41.499 15c20 0 34.5 -4.5 43.5 -13.5s13.5 -21.5 13.5 -37.5v-110h116c15.333 0 28.5 -4.33301 39.5 -13s16.5 -22 16.5 -40c0 -17.333 -5 -30.333 -15 -39s-23.667 -13 -41 -13h-116z" />
    <glyph glyph-name="comma" unicode="," horiz-adv-x="188" 
d="M110 -87c-3.33301 -7.33301 -8.83105 -14.168 -16.498 -20.501s-17.834 -9.5 -30.501 -9.5c-10 0 -18.667 1.66699 -26 5s-13.333 7.5 -18 12.5s-8 10.333 -10 16s-3 10.834 -3 15.501c0 1.33301 0.166992 2.83301 0.5 4.5s0.5 3.16699 0.5 4.5l27 139
c2.66699 13.333 9.66699 25.833 21 37.5s26.666 17.5 45.999 17.5c24 0 41.833 -7 53.5 -21s17.5 -29 17.5 -45c0 -8.66699 -1.33301 -16 -4 -22z" />
    <glyph glyph-name="hyphen" unicode="-" horiz-adv-x="383" 
d="M298 298c40 0 60 -19 60 -57c0 -37.333 -20 -56 -60 -56h-213c-40 0 -60 18.667 -60 56c0 38 20 57 60 57h213z" />
    <glyph glyph-name="period" unicode="." horiz-adv-x="207" 
d="M104 0c-20 0 -36.665 6.66699 -49.998 20s-20 29 -20 47c0 22.667 7.16699 39.5 21.5 50.5s30.166 16.5 47.499 16.5s33.166 -5.5 47.499 -16.5s21.5 -27.833 21.5 -50.5c0 -17.333 -6.33301 -32.833 -19 -46.5s-29 -20.5 -49 -20.5z" />
    <glyph glyph-name="slash" unicode="/" horiz-adv-x="503" 
d="M126 -23c-10 -19.333 -24.998 -29 -44.998 -29c-16 0 -30.5 5 -43.5 15s-19.5 23.667 -19.5 41c0 10 1.66699 18 5 24l334 660c4.66699 9.33301 11.167 16 19.5 20s17.166 6 26.499 6c17.333 0 32.166 -5.33301 44.499 -16s18.5 -23 18.5 -37c0 -7.33301 -2 -15 -6 -23z
" />
    <glyph glyph-name="zero" unicode="0" horiz-adv-x="520" 
d="M275 669c28.667 0 54.666 -4.33301 77.999 -13s43.333 -21.834 60 -39.501s29.667 -39.5 39 -65.5s14 -56.333 14 -91v-252c0 -34.667 -5 -65 -15 -91s-23.667 -47.667 -41 -65s-37.666 -30.333 -60.999 -39s-48 -13 -74 -13h-24c-28 0 -54 4.33301 -78 13
s-44.833 21.667 -62.5 39s-31.5 39 -41.5 65s-15 56.333 -15 91v252c0 34.667 5.33301 65 16 91s25 47.833 43 65.5s39 30.834 63 39.501s49 13 75 13h24zM348.999 466c0 26.667 -7.33301 48 -22 64s-34.667 24 -60 24h-9c-25.333 0 -46 -8 -62 -24s-24 -37.333 -24 -64
v-264c0 -28 7.66699 -49.667 23 -65s36.333 -23 63 -23h9c24 0 43.667 8.33301 59 25s23 37.667 23 63v264z" />
    <glyph glyph-name="one" unicode="1" horiz-adv-x="520" 
d="M284 -5c-24 0 -40.001 5.5 -48.001 16.5s-12 23.167 -12 36.5v453l-52 -40c-11.333 -8 -23 -12 -35 -12c-13.333 0 -26.333 5.66699 -39 17s-19 26.333 -19 45c0 16.667 7 30.667 21 42l129 100c11.333 8.66699 20.666 14 27.999 16s16 3 26 3c21.333 0 36.333 -4 45 -12
s13 -24.667 13 -50v-564c0 -6 -0.833008 -12 -2.5 -18s-4.66699 -11.5 -9 -16.5s-10.166 -9 -17.499 -12s-16.666 -4.5 -27.999 -4.5z" />
    <glyph glyph-name="two" unicode="2" horiz-adv-x="520" 
d="M131 551c-18 0 -31.998 4.6709 -41.998 14.0039s-15 24 -15 44c0 19.333 5 34.166 15 44.499s24 15.5 42 15.5h168c57.333 0 101.166 -15.667 131.499 -47s45.5 -72 45.5 -122c0 -27.333 -3.83301 -51.333 -11.5 -72s-18 -38.834 -31 -54.501
s-27.833 -29.334 -44.5 -41.001s-34.334 -22.167 -53.001 -31.5l-110 -57c-42.667 -24 -64 -54.667 -64 -92v-35h253c38 0 57 -19 57 -57c0 -40 -19 -60 -57 -60h-309c-21.333 0 -37 5.66699 -47 17s-15 24.666 -15 39.999v91c0 46 10 84 30 114s52 57.333 96 82l65 34
l65 34c17.333 9.33301 31.333 21.5 42 36.5s16 30.5 16 46.5c0 19.333 -6.16699 33.5 -18.5 42.5s-25.833 13.5 -40.5 13.5h-168z" />
    <glyph glyph-name="three" unicode="3" horiz-adv-x="520" 
d="M266 669c18 0 37.668 -2.50098 59.001 -7.50098s41 -14.167 59 -27.5s33.167 -31.5 45.5 -54.5s18.5 -52.5 18.5 -88.5c0 -25.333 -5.5 -49.5 -16.5 -72.5s-27.5 -40.167 -49.5 -51.5c25.333 -15.333 43.5 -36 54.5 -62s16.5 -54 16.5 -84v-10
c0 -34.667 -5.33301 -65.167 -16 -91.5s-24.834 -48.333 -42.501 -66s-38.334 -31 -62.001 -40s-48.5 -13.5 -74.5 -13.5h-169c-10 0 -20.667 4.66699 -32 14s-17 24.333 -17 45c0 22.667 5.5 37.834 16.5 45.501s21.833 11.5 32.5 11.5h163c26 0 46.667 8.5 62 25.5
s23 38.833 23 65.5v15c0 26 -8.5 46.833 -25.5 62.5s-39.167 23.5 -66.5 23.5h-93c-11.333 0 -22.333 4.33301 -33 13s-16 23.334 -16 44.001c0 21.333 5.5 35.666 16.5 42.999s21.5 11 31.5 11h102c19.333 0 37 5.5 53 16.5s24 28.833 24 53.5c0 23.333 -8 39.833 -24 49.5
s-33.333 14.5 -52 14.5h-151c-11.333 0 -22.333 3.66699 -33 11s-16 22.333 -16 45c0 10.667 1.66699 19.667 5 27s7.5 13.5 12.5 18.5s10.333 8.66699 16 11s10.834 3.5 15.501 3.5h163z" />
    <glyph glyph-name="four" unicode="4" horiz-adv-x="520" 
d="M85 121c-24.667 0 -41.167 4.16797 -49.5 12.501s-12.833 23.166 -13.5 44.499c0 10 1.16699 18.333 3.5 25s6.16602 16.667 11.499 30l169 404c8 19.333 18.667 30.833 32 34.5s27.666 3.5 42.999 -0.5c14.667 -5.33301 25.834 -14.333 33.501 -27
s7.83398 -28 0.500977 -46l-152 -360h116v108c0 14.667 4.33301 27.167 13 37.5s23.667 15.5 45 15.5c20.667 0 35.5 -5.83301 44.5 -17.5s13.5 -23.5 13.5 -35.5v-108h58c11.333 0 22.666 -4.66699 33.999 -14s17 -24 17 -44c0 -17.333 -4.16699 -31.5 -12.5 -42.5
s-21.166 -16.5 -38.499 -16.5h-58v-78c0 -12.667 -4.5 -24 -13.5 -34s-23.833 -15 -44.5 -15c-21.333 0 -36.333 5 -45 15s-13 21.333 -13 34v78h-194z" />
    <glyph glyph-name="five" unicode="5" horiz-adv-x="520" 
d="M104 0c-4.66699 0 -9.83203 1.17188 -15.499 3.50488s-11 5.83301 -16 10.5s-9.16699 10.667 -12.5 18s-5 16.333 -5 27c0 11.333 1.66699 20.666 5 27.999s7.5 13 12.5 17s10.333 6.83301 16 8.5s10.834 2.5 15.501 2.5h172c25.333 0 43.666 8 54.999 24
s17 37.333 17 64v27c0 25.333 -5.83301 45.166 -17.5 59.499s-29.167 21.5 -52.5 21.5h-162c-12 0 -22 2.16699 -30 6.5s-14.167 9.66602 -18.5 15.999s-7.5 13.166 -9.5 20.499s-3 14 -3 20v230c0 7.33301 1 14.666 3 21.999s5.16699 14 9.5 20s10.5 11 18.5 15s18 6 30 6
h286c14 0 25.833 -4.5 35.5 -13.5s14.5 -24.167 14.5 -45.5c0 -11.333 -1.83301 -20.666 -5.5 -27.999s-8 -13 -13 -17s-10.333 -6.83301 -16 -8.5s-10.834 -2.5 -15.501 -2.5h-233v-125h116c26 0 50.167 -3.83301 72.5 -11.5s41.666 -19.834 57.999 -36.501
s29 -37.667 38 -63s13.5 -55.333 13.5 -90v-19c0 -34.667 -4.5 -65 -13.5 -91s-21.667 -47.5 -38 -64.5s-35.666 -29.833 -57.999 -38.5s-46.5 -13 -72.5 -13h-181z" />
    <glyph glyph-name="six" unicode="6" horiz-adv-x="520" 
d="M216 0c-33.333 0 -60.665 5.5 -81.998 16.5s-38.333 25.167 -51 42.5s-21.334 36.666 -26.001 57.999s-7 42.333 -7 63v281c0 38 5.66699 70.167 17 96.5s25.666 47.666 42.999 63.999s36.833 28.333 58.5 36s42.5 11.5 62.5 11.5h149c15.333 0 28 -4.83301 38 -14.5
s15 -24.5 15 -44.5s-4.5 -34.333 -13.5 -43s-22.5 -13 -40.5 -13h-132c-24.667 0 -44.5 -7.16699 -59.5 -21.5s-22.5 -37.166 -22.5 -68.499v-43h128c26 0 50.167 -3.83301 72.5 -11.5s41.666 -19.5 57.999 -35.5s29 -36.667 38 -62s13.5 -55.666 13.5 -90.999v-15
c0 -34.667 -4.5 -65 -13.5 -91s-21.667 -47.5 -38 -64.5s-35.666 -29.667 -57.999 -38s-46.5 -12.5 -72.5 -12.5h-77zM280.001 111c24.667 0 44.1689 8.00195 58.502 24.002s21.5 37.333 21.5 64v26c0 26 -6.66699 46 -20 60s-32 21 -56 21h-119v-129
c0 -6.66699 0.833008 -13.834 2.5 -21.501s4.66699 -14.834 9 -21.501s10.666 -12.167 18.999 -16.5s19.166 -6.5 32.499 -6.5h52z" />
    <glyph glyph-name="seven" unicode="7" horiz-adv-x="520" 
d="M401 668c24.667 0 41.165 -4.16797 49.498 -12.501s12.833 -23.166 13.5 -44.499c0 -7.33301 -1.16699 -15 -3.5 -23s-6.16602 -18.667 -11.499 -32l-193 -523c-5.33301 -13.333 -13.166 -23.333 -23.499 -30s-21.5 -10 -33.5 -10c-18.667 0 -33.5 4.83301 -44.5 14.5
s-16.5 21.167 -16.5 34.5c0 6 1.66699 14 5 24l183 486h-230c-11.333 0 -22.5 4.83301 -33.5 14.5s-16.5 24.167 -16.5 43.5c0 18.667 5.5 33 16.5 43s22.167 15 33.5 15h305z" />
    <glyph glyph-name="eight" unicode="8" horiz-adv-x="520" 
d="M51 220c0 32 5.99805 61.168 17.998 87.501s29.333 45.833 52 58.5c-23.333 13.333 -39.333 30.833 -48 52.5s-13 43.5 -13 65.5c0 29.333 4.66699 55.666 14 78.999s22.333 43 39 59s36.334 28.333 59.001 37s47 13 73 13h28c26 0 50.333 -4 73 -12
s42.334 -19.833 59.001 -35.5s29.834 -35 39.501 -58s14.5 -49.5 14.5 -79.5c0 -21.333 -4.83301 -43.333 -14.5 -66s-24.834 -40 -45.501 -52c26 -14 44.333 -34.167 55 -60.5s16 -55.833 16 -88.5v-13c0 -35.333 -5.16699 -65.833 -15.5 -91.5s-24.5 -47.167 -42.5 -64.5
s-38.833 -30.166 -62.5 -38.499s-48.5 -12.5 -74.5 -12.5h-35c-26 0 -50.5 4.16699 -73.5 12.5s-43 21.166 -60 38.499s-30.5 38.833 -40.5 64.5s-15 56.167 -15 91.5v13zM266.998 110.001c25.333 0 46.166 9.16699 62.499 27.5s24.5 40.833 24.5 67.5v14
c0 26 -7.5 48.5 -22.5 67.5s-34.833 28.5 -59.5 28.5h-24c-24.667 0 -44.5 -9.5 -59.5 -28.5s-22.5 -41.5 -22.5 -67.5v-14c0 -26.667 7.33301 -49.167 22 -67.5s34.334 -27.5 59.001 -27.5h20zM250.998 564.001c-24.667 0 -43.667 -7.5 -57 -22.5s-20 -32.833 -20 -53.5
c0 -19.333 6.16699 -35.833 18.5 -49.5s28.833 -20.5 49.5 -20.5h33c20.667 0 37.5 7.33301 50.5 22s19.5 30.667 19.5 48c0 19.333 -6.5 36.833 -19.5 52.5s-31.833 23.5 -56.5 23.5h-18z" />
    <glyph glyph-name="nine" unicode="9" horiz-adv-x="520" 
d="M304 669c33.333 0 60.665 -5.5 81.998 -16.5s38.333 -25.167 51 -42.5s21.334 -36.666 26.001 -57.999s7 -42.333 7 -63v-281c0 -38 -5.66699 -70.167 -17 -96.5s-25.666 -47.666 -42.999 -63.999s-36.833 -28.333 -58.5 -36s-42.5 -11.5 -62.5 -11.5h-149
c-15.333 0 -28 4.83301 -38 14.5s-15 24.5 -15 44.5s4.5 34.333 13.5 43s22.5 13 40.5 13h132c24.667 0 44.5 7.16699 59.5 21.5s22.5 37.166 22.5 68.499v43h-128c-26 0 -50.167 3.83301 -72.5 11.5s-41.666 19.5 -57.999 35.5s-29 36.667 -38 62
s-13.5 55.666 -13.5 90.999v15c0 34.667 4.5 65 13.5 91s21.667 47.5 38 64.5s35.666 29.667 57.999 38s46.5 12.5 72.5 12.5h77zM239.999 556c-24.667 0 -44.1689 -8.00195 -58.502 -24.002s-21.5 -37.333 -21.5 -64v-24c0 -26 6.66699 -46 20 -60s32 -21 56 -21h119v127
c0 6.66699 -0.833008 13.834 -2.5 21.501s-4.66699 14.834 -9 21.501s-10.666 12.167 -18.999 16.5s-19.166 6.5 -32.499 6.5h-52z" />
    <glyph glyph-name="colon" unicode=":" horiz-adv-x="203" 
d="M104 0c-20 0 -36.665 6.66699 -49.998 20s-20 29 -20 47c0 22.667 7.16699 39.5 21.5 50.5s30.166 16.5 47.499 16.5s33.166 -5.5 47.499 -16.5s21.5 -27.833 21.5 -50.5c0 -17.333 -6.33301 -32.833 -19 -46.5s-29 -20.5 -49 -20.5zM104.002 229
c-20 0 -36.665 6.66699 -49.998 20s-20 29 -20 47c0 22.667 7.16699 39.5 21.5 50.5s30.166 16.5 47.499 16.5s33.166 -5.5 47.499 -16.5s21.5 -27.833 21.5 -50.5c0 -17.333 -6.33301 -32.833 -19 -46.5s-29 -20.5 -49 -20.5z" />
    <glyph glyph-name="semicolon" unicode=";" horiz-adv-x="203" 
d="M104 229c-20 0 -36.665 6.66699 -49.998 20s-20 29 -20 47c0 22.667 7.16699 39.5 21.5 50.5s30.166 16.5 47.499 16.5s33.166 -5.5 47.499 -16.5s21.5 -27.833 21.5 -50.5c0 -17.333 -6.33301 -32.833 -19 -46.5s-29 -20.5 -49 -20.5zM110.002 -87
c-3.33301 -7.33301 -8.83105 -14.168 -16.498 -20.501s-17.834 -9.5 -30.501 -9.5c-10 0 -18.667 1.66699 -26 5s-13.333 7.5 -18 12.5s-8 10.333 -10 16s-3 10.834 -3 15.501c0 1.33301 0.166992 2.83301 0.5 4.5s0.5 3.16699 0.5 4.5l27 139
c2.66699 13.333 9.66699 25.833 21 37.5s26.666 17.5 45.999 17.5c24 0 41.833 -7 53.5 -21s17.5 -29 17.5 -45c0 -8.66699 -1.33301 -16 -4 -22z" />
    <glyph glyph-name="less" unicode="&#x3c;" horiz-adv-x="520" 
d="M218 322l253.998 -85.998c14 -4.66699 24 -11.167 30 -19.5s9 -17.166 9 -26.499c0 -20 -5.66699 -35.167 -17 -45.5s-23.333 -15.5 -36 -15.5c-4 0 -8 0.333008 -12 1s-8 1.66699 -12 3l-380 129c-14 5.33301 -25.167 11.666 -33.5 18.999s-12.5 19.666 -12.5 36.999
c0 8.66699 0.666992 15.667 2 21s3.83301 10 7.5 14s8.33398 7.5 14.001 10.5s12.5 6.16699 20.5 9.5l381 161c8.66699 3.33301 16.334 5 23.001 5c14 0 26.5 -5.5 37.5 -16.5s16.5 -25.5 16.5 -43.5c0 -20.667 -12 -36.334 -36 -47.001l-256 -106v-4z" />
    <glyph glyph-name="equal" unicode="=" horiz-adv-x="520" 
d="M93 358c-40 0 -60 18.333 -60 55c0 35.333 20 53 60 53h333c40 0 60 -17.667 60 -53c0 -36.667 -20 -55 -60 -55h-333zM93 202c-40 0 -60 17.667 -60 53c0 36.667 20 55 60 55h333c40 0 60 -18.333 60 -55c0 -35.333 -20 -53 -60 -53h-333z" />
    <glyph glyph-name="greater" unicode="&#x3e;" horiz-adv-x="520" 
d="M302 326l-256.001 105.998c-24.667 10.667 -37 26.334 -37 47.001c0 18 6 32.5 18 43.5s24.333 16.5 37 16.5c7.33301 0 15 -1.66699 23 -5l381 -161c8 -3.33301 14.833 -6.5 20.5 -9.5s10.334 -6.5 14.001 -10.5s6.16699 -8.66699 7.5 -14s2 -12.333 2 -21
c0 -17.333 -4.16699 -29.666 -12.5 -36.999s-19.5 -13.666 -33.5 -18.999l-380 -129c-4 -1.33301 -8 -2.33301 -12 -3s-8 -1 -12 -1c-12.667 0 -24.667 5.16699 -36 15.5s-17 25.5 -17 45.5c0 9.33301 3 18.166 9 26.499s16 14.833 30 19.5l254 86v4z" />
    <glyph glyph-name="question" unicode="?" horiz-adv-x="470" 
d="M237 0c-18.667 0 -34.3359 6.16699 -47.0029 18.5s-19 27.5 -19 45.5c0 21.333 6.83301 37.333 20.5 48s28.834 16 45.501 16s31.834 -5.33301 45.501 -16s20.5 -26.667 20.5 -48c0 -18 -6.16699 -33.167 -18.5 -45.5s-28.166 -18.5 -47.499 -18.5zM230.998 668
c126 0 188.997 -50.6699 188.997 -152.003c0 -15.333 -4 -32.666 -12 -51.999s-17.667 -35.666 -29 -48.999l-46 -52c-12.667 -16 -21.334 -29.833 -26.001 -41.5s-7 -23.5 -7 -35.5v-53c0 -12 -5.16699 -23.333 -15.5 -34s-26.166 -16 -47.499 -16
c-4.66699 0 -10.167 0.833008 -16.5 2.5s-12.5 4.5 -18.5 8.5s-11.167 9.16699 -15.5 15.5s-6.5 14.166 -6.5 23.499v80c0 14.667 3.33301 28.5 10 41.5s15 25.833 25 38.5l56 71c6.66699 8 11.834 15.333 15.501 22s5.5 15.334 5.5 26.001c0 14 -7.16699 24.5 -21.5 31.5
s-32.166 10.5 -53.499 10.5c-16.667 0 -32.667 -2.33301 -48 -7s-33.666 -10.667 -54.999 -18c-10 -3.33301 -18.667 -5 -26 -5c-12 0 -23.333 5 -34 15s-16 25.667 -16 47c0 14.667 7 27.334 21 38.001s31 19.167 51 25.5s41 11 63 14s41.333 4.5 58 4.5z" />
    <glyph glyph-name="at" unicode="@" horiz-adv-x="919" 
d="M652 223c0 -9.33301 2.50293 -16.832 7.50293 -22.499s13.5 -8.5 25.5 -8.5c15.333 0 28.333 4.33301 39 13s19.5 20.5 26.5 35.5s12 32.167 15 51.5s4.5 40 4.5 62c0 42 -7.66699 80.333 -23 115s-36.5 64.5 -63.5 89.5s-59 44.5 -96 58.5s-77.167 21 -120.5 21
c-44 0 -85.167 -7.83301 -123.5 -23.5s-71.666 -38.167 -99.999 -67.5s-50.833 -65.5 -67.5 -108.5s-25 -91.5 -25 -145.5c0 -46.667 7 -89.334 21 -128.001s34.333 -71.667 61 -99s59 -48.666 97 -63.999s80.667 -23 128 -23c26 0 52.167 2.5 78.5 7.5
s50.166 13.167 71.499 24.5c8 4 15.667 6 23 6c14.667 0 26.334 -5.5 35.001 -16.5s13 -22.5 13 -34.5c0 -14 -7.66699 -26.333 -23 -37s-34.5 -19.5 -57.5 -26.5s-48 -12.333 -75 -16s-51.833 -5.5 -74.5 -5.5c-60 0 -114.5 10.167 -163.5 30.5s-91 48.5 -126 84.5
s-62 79.167 -81 129.5s-28.5 105.5 -28.5 165.5c0 62 9.66699 120.167 29 174.5s47.166 101.5 83.499 141.5s80.666 71.667 132.999 95s111.166 35 176.499 35c56 0 108.167 -9.16699 156.5 -27.5s90.333 -44.333 126 -78s63.667 -74 84 -121s30.5 -99.167 30.5 -156.5
c0 -45.333 -5 -84 -15 -116s-23.5 -58.333 -40.5 -79s-36.5 -35.667 -58.5 -45s-45.333 -14 -70 -14c-40.667 0 -73.5 10 -98.5 30s-37.5 51.333 -37.5 94v60h-177c-9.33301 0 -17.333 -3 -24 -9s-10 -13.667 -10 -23v-5c0 -8 2.66699 -16.167 8 -24.5s14 -12.5 26 -12.5
h106c4.66699 0 9.5 -1 14.5 -3s9.83301 -5 14.5 -9s8.5 -9.33301 11.5 -16s4.5 -14.667 4.5 -24c0 -20 -5.16699 -33.667 -15.5 -41s-20.166 -11 -29.499 -11h-115c-38 0 -69.167 12.5 -93.5 37.5s-36.5 59.167 -36.5 102.5v7c0 16.667 2.66699 33.167 8 49.5
s13.666 30.833 24.999 43.5s25.666 23 42.999 31s38.333 12 63 12h174v6c0 15.333 -5.66699 27 -17 35s-26.333 12 -45 12h-135c-9.33301 0 -19.333 3.5 -30 10.5s-16 20.167 -16 39.5s5.33301 33.166 16 41.499s20.667 12.5 30 12.5h131c57.333 0 100.333 -15 129 -45
s43 -72 43 -126v-152z" />
    <glyph glyph-name="A" unicode="A" horiz-adv-x="567" 
d="M281 474l-72 -214h148l-35.5 106.5l-36.5 107.5h-4zM169 149l-39.999 -115.001c-8.66699 -26.667 -26.334 -40 -53.001 -40c-21.333 0 -37.666 5.66699 -48.999 17s-17 24.333 -17 39c0 3.33301 0.333008 7 1 11s1.66699 7.66699 3 11l193 547
c5.33301 14 12.166 25.667 20.499 35s21.833 14 40.5 14h30c18 0 31.333 -4.5 40 -13.5s15.667 -20.833 21 -35.5l194 -547c2.66699 -6 4 -13 4 -21c0 -15.333 -6.33301 -28.666 -19 -39.999s-29 -17 -49 -17c-24 0 -41.333 13.667 -52 41l-42 114h-226z" />
    <glyph glyph-name="B" unicode="B" horiz-adv-x="611" 
d="M180 552l0.000976562 -139h183c6 0 12.167 1.5 18.5 4.5s12.166 7.66699 17.499 14s9.83301 14 13.5 23s5.5 19.5 5.5 31.5c0 22 -6.5 38.5 -19.5 49.5s-26.5 16.5 -40.5 16.5h-178zM180.001 302l0.00195312 -185.999h189c7.33301 0 15.166 1.66699 23.499 5
s16.166 8.66602 23.499 15.999s13.5 16.833 18.5 28.5s7.5 26.167 7.5 43.5c0 10.667 -2 21.5 -6 32.5s-9.66699 21 -17 30s-16.333 16.333 -27 22s-22.667 8.5 -36 8.5h-176zM120.003 0.000976562c-40 0 -60.001 20.002 -60.001 60.002v550c0 38.667 20 58 60 58h255
c21.333 0 42 -4.16699 62 -12.5s37.5 -20.166 52.5 -35.499s27 -34 36 -56s13.5 -47 13.5 -75c0 -21.333 -4.16699 -43.5 -12.5 -66.5s-22.833 -42.833 -43.5 -59.5c12 -8.66699 22.833 -17.834 32.5 -27.501s17.834 -20.667 24.501 -33s11.834 -26.333 15.501 -42
s5.5 -33.5 5.5 -53.5c0 -34 -5.83301 -63.833 -17.5 -89.5s-26.834 -47.334 -45.501 -65.001s-39.667 -30.834 -63 -39.501s-46.333 -13 -69 -13h-246z" />
    <glyph glyph-name="C" unicode="C" horiz-adv-x="531" 
d="M242 0c-26 0 -50.668 4.16504 -74.001 12.498s-43.833 20.833 -61.5 37.5s-31.5 37.834 -41.5 63.501s-15 56.167 -15 91.5v254c0 34.667 5.16699 65 15.5 91s24.166 47.833 41.499 65.5s37.833 30.834 61.5 39.501s48.5 13 74.5 13h209
c18.667 0 32.334 -5.16699 41.001 -15.5s13 -24.5 13 -42.5s-4.33301 -32.167 -13 -42.5s-22.334 -15.5 -41.001 -15.5h-205c-25.333 0 -44.666 -8 -57.999 -24s-20 -37.333 -20 -64v-261c0 -27.333 6.83301 -48.5 20.5 -63.5s32.834 -22.5 57.501 -22.5l205 -1
c18 0 31.5 -5.16699 40.5 -15.5s13.5 -24.5 13.5 -42.5s-4.5 -32.167 -13.5 -42.5s-22.5 -15.5 -40.5 -15.5h-210z" />
    <glyph glyph-name="D" unicode="D" horiz-adv-x="622" 
d="M452 464c0 28 -7.00098 49.667 -21.001 65s-36.667 23 -68 23h-183v-436h185c30.667 0 52.834 7.5 66.501 22.5s20.5 36.5 20.5 64.5v261zM120.999 0c-40.667 0 -60.999 19.335 -60.999 58.002v552c0 38.667 20.333 58 61 58h267c26.667 0 51.167 -4.33301 73.5 -13
s41.666 -21.5 57.999 -38.5s29.166 -38.5 38.499 -64.5s14 -56.333 14 -91v-254c0 -34 -4.83301 -63.833 -14.5 -89.5s-23.167 -47.334 -40.5 -65.001s-37.666 -30.834 -60.999 -39.501s-49 -13 -77 -13h-258z" />
    <glyph glyph-name="E" unicode="E" horiz-adv-x="534" 
d="M121 0c-40.667 0 -61 19.333 -61 58v552c0 38.667 20.333 58 61 58h331c18 0 31.5 -5.16699 40.5 -15.5s13.5 -24.5 13.5 -42.5s-4.5 -32.167 -13.5 -42.5s-22.5 -15.5 -40.5 -15.5h-272v-142h230c18 0 31.167 -5.16699 39.5 -15.5s12.5 -24.5 12.5 -42.5
s-4.16699 -32 -12.5 -42s-21.5 -15 -39.5 -15h-230v-179h272c18 0 31.5 -5.16699 40.5 -15.5s13.5 -24.5 13.5 -42.5s-4.5 -32.167 -13.5 -42.5s-22.5 -15.5 -40.5 -15.5h-331z" />
    <glyph glyph-name="F" unicode="F" horiz-adv-x="531" 
d="M180 552v-142h230c18 0 31.167 -5.16699 39.5 -15.5s12.5 -24.5 12.5 -42.5s-4.16699 -32 -12.5 -42s-21.5 -15 -39.5 -15h-230v-247c0 -19.333 -5 -33 -15 -41s-24.667 -12 -44 -12c-20.667 0 -36 4 -46 12s-15 21.667 -15 41v562c0 38.667 20.333 58 61 58h331
c18 0 31.5 -5.16699 40.5 -15.5s13.5 -24.5 13.5 -42.5s-4.5 -32.167 -13.5 -42.5s-22.5 -15.5 -40.5 -15.5h-272z" />
    <glyph glyph-name="G" unicode="G" horiz-adv-x="587" 
d="M243 0c-26 0 -50.8359 4.33008 -74.5029 12.9971s-44.167 21.834 -61.5 39.501s-31.166 39.334 -41.499 65.001s-15.5 55.5 -15.5 89.5v254c0 34.667 5.5 65 16.5 91s25.5 47.5 43.5 64.5s38.5 29.833 61.5 38.5s46.833 13 71.5 13h212
c18.667 0 32.667 -5.16699 42 -15.5s14 -24.5 14 -42.5s-4.66699 -32.167 -14 -42.5s-23.333 -15.5 -42 -15.5h-195c-31.333 0 -54.166 -7.66699 -68.499 -23s-21.5 -37 -21.5 -65v-261c0 -28 7.33301 -49.5 22 -64.5s37.334 -22.5 68.001 -22.5h162v179h-83
c-18 0 -31.667 5.16699 -41 15.5s-14 24.5 -14 42.5s4.66699 32 14 42s23 15 41 15h143c18 0 32.5 -3.66699 43.5 -11s16.5 -22.666 16.5 -45.999v-295c0 -18 -4.66699 -32.167 -14 -42.5s-24 -15.5 -44 -15.5h-241z" />
    <glyph glyph-name="H" unicode="H" horiz-adv-x="592" 
d="M477 -5c-20 0 -34.8311 4.33301 -44.498 13s-14.5 22.667 -14.5 42v245h-244v-245c0 -19.333 -4.83301 -33.333 -14.5 -42s-24.5 -13 -44.5 -13c-20.667 0 -35.834 4.33301 -45.501 13s-14.5 22.667 -14.5 42v568c0 36.667 20 55 60 55c39.333 0 59 -18.333 59 -55v-208
h244v208c0 36.667 19.667 55 59 55c40 0 60 -18.333 60 -55v-568c0 -19.333 -4.83301 -33.333 -14.5 -42s-24.834 -13 -45.501 -13z" />
    <glyph glyph-name="I" unicode="I" horiz-adv-x="269" 
d="M135 -5c-20.667 0 -35.833 4.33301 -45.5 13s-14.5 22.667 -14.5 42v568c0 36.667 20 55 60 55c39.333 0 59 -18.333 59 -55v-568c0 -19.333 -4.83301 -33.333 -14.5 -42s-24.5 -13 -44.5 -13z" />
    <glyph glyph-name="J" unicode="J" horiz-adv-x="433" 
d="M63 0c-20.667 0 -35.5 4.83203 -44.5 14.499s-13.5 24.167 -13.5 43.5c0 20.667 5.5 35.5 16.5 44.5s25.833 13.5 44.5 13.5h86c26 0 46.167 8.16699 60.5 24.5s21.5 37.5 21.5 63.5v348h-114c-18 0 -31.5 5.16699 -40.5 15.5s-13.5 24.5 -13.5 42.5
s4.5 32.167 13.5 42.5s22.5 15.5 40.5 15.5h172c40.667 0 61 -19.333 61 -58v-403c0 -22.667 -3.16699 -46.167 -9.5 -70.5s-16.833 -46.666 -31.5 -66.999s-34.5 -37 -59.5 -50s-55.833 -19.5 -92.5 -19.5h-97z" />
    <glyph glyph-name="K" unicode="K" horiz-adv-x="555" 
d="M182 411l250.998 234.001c18 16.667 36 25 54 25c6 0 12.333 -1.33301 19 -4s12.834 -6.5 18.501 -11.5s10.334 -11 14.001 -18s5.5 -14.833 5.5 -23.5c0 -15.333 -5.33301 -28 -16 -38l-214 -195l107.5 -145.5l107.5 -146.5c8.66699 -12 13 -24 13 -36
c0 -8.66699 -1.83301 -16.334 -5.5 -23.001s-8.5 -12.5 -14.5 -17.5s-12.5 -8.83301 -19.5 -11.5s-13.833 -4 -20.5 -4c-10 0 -19.667 2.33301 -29 7s-17.333 11.667 -24 21l-203 279l-47 -42v-208c0 -38.667 -19.667 -58 -59 -58c-40 0 -60 19.333 -60 58v562
c0 38.667 20 58 60 58c39.333 0 59 -19.333 59 -58v-204h3z" />
    <glyph glyph-name="L" unicode="L" horiz-adv-x="511" 
d="M121 0c-40.667 0 -61 19.333 -61 58v557c0 38.667 20.333 58 61 58c39.333 0 59 -19.333 59 -58v-499h271c18 0 31.667 -5.16699 41 -15.5s14 -24.5 14 -42.5s-4.66699 -32.167 -14 -42.5s-23 -15.5 -41 -15.5h-330z" />
    <glyph glyph-name="M" unicode="M" horiz-adv-x="674" 
d="M340 388l125.004 249c10.667 20.667 29 31 55 31h34c40 0 60 -19.333 60 -58v-560c0 -19.333 -4.83301 -33.333 -14.5 -42s-24.834 -13 -45.501 -13c-20 0 -34.833 4.33301 -44.5 13s-14.5 22.667 -14.5 42v384h-4l-78 -157
c-4.66699 -8.66699 -11.167 -17.834 -19.5 -27.501s-21.833 -14.5 -40.5 -14.5h-33c-18 0 -31.333 5 -40 15s-15.334 19.333 -20.001 28l-77 156h-4v-384c0 -19.333 -4.83301 -33.333 -14.5 -42s-24.5 -13 -44.5 -13c-20.667 0 -35.834 4.33301 -45.501 13
s-14.5 22.667 -14.5 42v560c0 38.667 20 58 60 58h34c10 0 18.167 -1.16699 24.5 -3.5s11.833 -5.66602 16.5 -9.99902s8.66699 -9.5 12 -15.5s6.66602 -12.333 9.99902 -19l117 -232h6z" />
    <glyph glyph-name="N" unicode="N" horiz-adv-x="619" 
d="M439 233l-0.000976562 386c0 36.667 20 55 60 55s60 -18.333 60 -55v-561c0 -38.667 -20 -58 -60 -58h-30c-17.333 0 -29.666 3.5 -36.999 10.5s-14.333 16.167 -21 27.5l-228 407h-3v-396c0 -19.333 -5 -33.333 -15 -42s-25 -13 -45 -13s-35 4.33301 -45 13
s-15 22.667 -15 42v561c0 38.667 20 58 60 58h32c18 0 31.333 -4.66699 40 -14s16.667 -20.333 24 -33l109 -193l110 -195h4z" />
    <glyph glyph-name="O" unicode="O" horiz-adv-x="588" 
d="M339 668c67.333 0 117.336 -18.1689 150.003 -54.502s49 -89.5 49 -159.5v-241c0 -34.667 -5 -65.334 -15 -92.001s-23.833 -49 -41.5 -67s-38.5 -31.5 -62.5 -40.5s-50.333 -13.5 -79 -13.5h-93c-28.667 0 -55 3.83301 -79 11.5s-44.833 19.834 -62.5 36.501
s-31.334 38.334 -41.001 65.001s-14.5 59 -14.5 97v244c0 34.667 4.83301 65.334 14.5 92.001s23.167 49 40.5 67s38.166 31.667 62.499 41s51.166 14 80.499 14h91zM420.003 465.998c0 26.667 -7.33301 48.835 -22 66.502s-39 26.5 -73 26.5h-63
c-32 0 -55.5 -8.83301 -70.5 -26.5s-22.5 -39.834 -22.5 -66.501v-267c0 -27.333 7.5 -49.333 22.5 -66s38.5 -25 70.5 -25h63c32 0 55.833 9.16699 71.5 27.5s23.5 40.166 23.5 65.499v265z" />
    <glyph glyph-name="P" unicode="P" horiz-adv-x="573" 
d="M179 552l0.000976562 -188.001h164c14.667 0 27.167 2.83301 37.5 8.5s18.666 13 24.999 22s11 19.333 14 31s4.5 23.5 4.5 35.5c0 16.667 -2.5 30.834 -7.5 42.501s-11.5 21.167 -19.5 28.5s-17 12.5 -27 15.5s-19.667 4.5 -29 4.5h-162zM179.001 248.999
l0.000976562 -199.001c0 -19.333 -4.83301 -33.333 -14.5 -42s-24.5 -13 -44.5 -13c-20.667 0 -35.834 4.33301 -45.501 13s-14.5 22.667 -14.5 42v560c0 38.667 20 58 60 58h214c32 0 60.833 -4.83301 86.5 -14.5s47.667 -23.5 66 -41.5s32.333 -39.833 42 -65.5
s14.5 -54.167 14.5 -85.5c0 -32 -4 -61 -12 -87s-20.333 -48.167 -37 -66.5s-38 -32.666 -64 -42.999s-57 -15.5 -93 -15.5h-158z" />
    <glyph glyph-name="Q" unicode="Q" horiz-adv-x="588" 
d="M551 -20c-12.667 -12.667 -25.3291 -19 -37.9961 -19c-6.66699 0 -12.834 1.5 -18.501 4.5s-10.834 6.83301 -15.501 11.5l-42 41c-27.333 -12 -57 -18 -89 -18h-106c-26 0 -50.667 4.16699 -74 12.5s-43.833 20.833 -61.5 37.5s-31.5 37.834 -41.5 63.501
s-15 56.167 -15 91.5v254c0 34.667 5.16699 65 15.5 91s24.166 47.833 41.499 65.5s37.833 30.834 61.5 39.501s48.5 13 74.5 13h104c28.667 0 55 -4.33301 79 -13s44.5 -21.834 61.5 -39.501s30.167 -39.5 39.5 -65.5s14 -56.333 14 -91v-251c0 -24 -2.5 -46 -7.5 -66
s-12.167 -38 -21.5 -54l39 -37c5.33301 -4.66699 9.66602 -9.83398 12.999 -15.501s5 -12.167 5 -19.5c0 -12.667 -6 -24.667 -18 -36zM423.005 464c0 26.667 -7.00098 48.001 -21.001 64.001s-33.667 24 -59 24h-96c-25.333 0 -44.666 -8 -57.999 -24s-20 -37.333 -20 -64
v-261c0 -27.333 6.83301 -48.5 20.5 -63.5s32.834 -22.5 57.501 -22.5h90l-55 55c-4.66699 4.66699 -8.5 9.5 -11.5 14.5s-4.5 11.167 -4.5 18.5c0 6 1.66699 12.167 5 18.5s7.66602 12.166 12.999 17.499s11.333 9.83301 18 13.5s13 5.5 19 5.5
c6.66699 0 12.667 -1.5 18 -4.5s10.333 -6.5 15 -10.5l66 -66c2 8 3 16.667 3 26v259z" />
    <glyph glyph-name="R" unicode="R" horiz-adv-x="562" 
d="M179 552l-0.000976562 -188.001h173c22.667 0 40.334 9.33301 53.001 28s19 41.667 19 69c0 16.667 -2.66699 30.834 -8 42.501s-11.833 21.167 -19.5 28.5s-16 12.5 -25 15.5s-17.167 4.5 -24.5 4.5h-168zM542.999 460.999c0 -20.667 -2.00098 -41.333 -6.00098 -62
s-10.667 -40 -20 -58s-21.833 -34 -37.5 -48s-35.167 -25 -58.5 -33l99 -176c3.33301 -4.66699 5.5 -9.5 6.5 -14.5s1.5 -10.167 1.5 -15.5c0 -14 -5.33301 -27.333 -16 -40s-24.667 -19 -42 -19c-11.333 0 -22 2.83301 -32 8.5s-17.667 13.5 -23 23.5l-123 222h-113v-196
c0 -38.667 -19.667 -58 -59 -58c-40 0 -60 19.333 -60 58v557c0 38.667 20 58 60 58h212c32 0 60.833 -4.83301 86.5 -14.5s47.834 -23.5 66.501 -41.5s33 -39.833 43 -65.5s15 -54.167 15 -85.5z" />
    <glyph glyph-name="S" unicode="S" horiz-adv-x="531" 
d="M105 0c-4.66699 0 -9.83496 0.830078 -15.502 2.49707s-11 4.83398 -16 9.50098s-9.16699 10.667 -12.5 18s-5 16.666 -5 27.999c0 10.667 1.83301 19.834 5.5 27.501s8.16699 13.667 13.5 18s10.833 7.5 16.5 9.5s10.167 3 13.5 3h213c16 0 30 5.66699 42 17
s18 28.333 18 51c0 17.333 -6.16699 32.166 -18.5 44.499s-29.166 23.166 -50.499 32.499l-127 54c-20 8.66699 -38.5 17.334 -55.5 26.001s-32 19.5 -45 32.5s-23.167 28.833 -30.5 47.5s-11 42 -11 70c0 24.667 3.83301 47.834 11.5 69.501s19 40.5 34 56.5
s33.333 28.667 55 38s46.834 14 75.501 14h197c10 0 20.667 -4.66699 32 -14s17 -24 17 -44c0 -12 -1.66699 -21.667 -5 -29s-7.33301 -13.166 -12 -17.499s-10 -7.33301 -16 -9s-11.333 -2.5 -16 -2.5h-197c-16.667 0 -30.667 -5.16699 -42 -15.5s-17 -25.5 -17 -45.5
c0 -16.667 4.66699 -30 14 -40s23 -18.667 41 -26l121 -51c19.333 -8 38.666 -17 57.999 -27s36.833 -22 52.5 -36s28.334 -31 38.001 -51s14.5 -44 14.5 -72c0 -25.333 -3.83301 -49.333 -11.5 -72s-19 -42.667 -34 -60s-33.5 -31.166 -55.5 -41.499s-47 -15.5 -75 -15.5
h-215z" />
    <glyph glyph-name="T" unicode="T" horiz-adv-x="526" 
d="M322 552v-501c0 -37.333 -20 -56 -60 -56c-39.333 0 -59 18.667 -59 56v501h-141c-18 0 -31.5 5.16699 -40.5 15.5s-13.5 24.5 -13.5 42.5s4.5 32.167 13.5 42.5s22.5 15.5 40.5 15.5h400c18 0 31.667 -5.16699 41 -15.5s14 -24.5 14 -42.5s-4.66699 -32.167 -14 -42.5
s-23 -15.5 -41 -15.5h-140z" />
    <glyph glyph-name="U" unicode="U" horiz-adv-x="611" 
d="M433 619c0 10.667 1.99707 19.665 5.99707 26.998s8.83301 13 14.5 17s12 6.83301 19 8.5s13.5 2.5 19.5 2.5c5.33301 0 11.5 -0.833008 18.5 -2.5s13.5 -4.5 19.5 -8.5s11 -9.66699 15 -17s6 -16.666 6 -27.999v-410c0 -34.667 -5.16699 -65 -15.5 -91
s-24.166 -47.667 -41.499 -65s-37.666 -30.333 -60.999 -39s-48.333 -13 -75 -13h-106c-26 0 -50.667 4.16699 -74 12.5s-43.833 20.833 -61.5 37.5s-31.5 37.834 -41.5 63.501s-15 56.167 -15 91.5v413c0 11.333 2 20.666 6 27.999s9 13 15 17s12.5 6.83301 19.5 8.5
s13.5 2.5 19.5 2.5s12.333 -0.833008 19 -2.5s13 -4.66699 19 -9s11 -10.166 15 -17.499s6 -16.333 6 -27v-415c0 -27.333 6.83301 -48.5 20.5 -63.5s32.834 -22.5 57.501 -22.5h96c25.333 0 45 8.33301 59 25s21 37.667 21 63v414z" />
    <glyph glyph-name="V" unicode="V" horiz-adv-x="581" 
d="M292 171l158.999 465.999c5.33301 14.667 12.333 24.834 21 30.501s17.667 8.5 27 8.5c18 0 34.167 -5.83301 48.5 -17.5s21.5 -24.5 21.5 -38.5c0 -7.33301 -1.33301 -14 -4 -20l-195 -552c-5.33301 -15.333 -12.166 -27.166 -20.499 -35.499s-21.833 -12.5 -40.5 -12.5
h-38c-18.667 0 -32.167 4.16699 -40.5 12.5s-15.166 20.166 -20.499 35.499l-196 552c-2 6 -3 11.667 -3 17c0 14 6 27 18 39s27.667 18 47 18c11.333 0 21.666 -3 30.999 -9s16.333 -15.667 21 -29l160 -465h4z" />
    <glyph glyph-name="W" unicode="W" horiz-adv-x="802" 
d="M547 174h3.99902l120 462c8.66699 25.333 25.334 38 50.001 38c20.667 0 37 -5.16699 49 -15.5s18 -23.5 18 -39.5c0 -6.66699 -1 -13 -3 -19l-156 -552c-5.33301 -15.333 -12.166 -27.166 -20.499 -35.499s-21.833 -12.5 -40.5 -12.5h-38
c-18 0 -31.333 4.16699 -40 12.5s-15.667 20.166 -21 35.499l-70 340h-2l-67 -340c-5.33301 -15.333 -12.333 -27.166 -21 -35.499s-22 -12.5 -40 -12.5h-38c-18.667 0 -32.167 4.16699 -40.5 12.5s-15.166 20.166 -20.499 35.499l-156 552c-2 6 -3 12 -3 18
c0 15.333 6.33301 28.5 19 39.5s28.667 16.5 48 16.5c11.333 0 21.666 -3 30.999 -9s15.666 -15.667 18.999 -29l120 -462h4l81 393c3.33301 15.333 9.16602 27.166 17.499 35.499s20.5 12.5 36.5 12.5h26c16.667 0 28.834 -4.16699 36.501 -12.5
s13.167 -20.166 16.5 -35.499z" />
    <glyph glyph-name="X" unicode="X" horiz-adv-x="550" 
d="M519 7c-11.333 -8 -22.332 -11.999 -32.999 -11.999c-10 0 -19.333 2.5 -28 7.5s-16 11.833 -22 20.5l-162 230l-158 -227c-6.66699 -9.33301 -14.5 -16.666 -23.5 -21.999s-18.5 -8 -28.5 -8c-16.667 0 -30 5.83301 -40 17.5s-15 24.167 -15 37.5
c0 14 4.33301 27.667 13 41l182 255l-164 233c-8.66699 12.667 -13 24.667 -13 36c0 5.33301 1.5 11.333 4.5 18s7.16699 13 12.5 19s11.666 11 18.999 15s15 6 23 6c19.333 0 35.333 -9.33301 48 -28l141 -205l143 205c13.333 18.667 29 28 47 28
c8 0 15.5 -1.83301 22.5 -5.5s13.333 -8.33398 19 -14.001s10 -12 13 -19s4.5 -13.833 4.5 -20.5c0 -12.667 -4 -24.334 -12 -35.001l-166 -233l184 -258c7.33301 -10.667 11 -22.667 11 -36c0 -18.667 -7.33301 -34 -22 -46z" />
    <glyph glyph-name="Y" unicode="Y" horiz-adv-x="553" 
d="M282 385l150.001 259.001c6 10.667 13.167 18.5 21.5 23.5s17.166 7.5 26.499 7.5c16.667 0 31.5 -6 44.5 -18s19.5 -25.667 19.5 -41c0 -8 -2 -16 -6 -24l-198 -334v-208c0 -37.333 -20 -56 -60 -56c-18.667 0 -33.167 4.83301 -43.5 14.5s-15.5 23.5 -15.5 41.5v210
l-206 337c-3.33301 6.66699 -5 13 -5 19c0 8 2 15.5 6 22.5s9.33301 13.167 16 18.5s14.167 9.66602 22.5 12.999s16.833 5 25.5 5c19.333 0 35 -10.333 47 -31l151 -259h4z" />
    <glyph glyph-name="Z" unicode="Z" horiz-adv-x="541" 
d="M92 0c-25.333 0 -42 5.33301 -50 16s-12 22.667 -12 36c0 11.333 1.66699 21.5 5 30.5s7 16.5 11 22.5l301 447h-242c-18 0 -31.5 5.16699 -40.5 15.5s-13.5 24.5 -13.5 42.5s4.5 32.167 13.5 42.5s22.5 15.5 40.5 15.5h348c21.333 0 36 -5.5 44 -16.5s12 -23.5 12 -37.5
c0 -11.333 -1.5 -21 -4.5 -29s-6.83301 -15.333 -11.5 -22l-301 -447h269c19.333 0 32.833 -5.66699 40.5 -17s11.5 -25 11.5 -41c0 -15.333 -3.83301 -28.833 -11.5 -40.5s-21.167 -17.5 -40.5 -17.5h-369z" />
    <glyph glyph-name="bracketleft" unicode="[" horiz-adv-x="368" 
d="M132 -88c-12 0 -22 2.16699 -30 6.5s-14.333 9.5 -19 15.5s-7.83398 12.5 -9.50098 19.5s-2.5 13.167 -2.5 18.5v701c0 6 0.833008 12.5 2.5 19.5s4.83398 13.5 9.50098 19.5s11 11 19 15s18 6 30 6h163c10.667 0 21 -4.5 31 -13.5s15 -22.833 15 -41.5
c0 -17.333 -5 -31 -15 -41s-20.333 -15 -31 -15h-110v-599h110c10.667 0 21 -4.83301 31 -14.5s15 -23.167 15 -40.5c0 -19.333 -5 -33.5 -15 -42.5s-20.333 -13.5 -31 -13.5h-163z" />
    <glyph glyph-name="backslash" unicode="\" horiz-adv-x="503" 
d="M24 638c-4 8 -5.99805 15.667 -5.99805 23c0 14 6.16699 26.333 18.5 37s27.166 16 44.499 16c9.33301 0 18.166 -2 26.499 -6s14.833 -10.667 19.5 -20l334 -660c4 -7.33301 6 -15.333 6 -24c0 -17.333 -6.66699 -31 -20 -41s-28 -15 -44 -15
c-9.33301 0 -17.833 2.33301 -25.5 7s-14.167 12 -19.5 22z" />
    <glyph glyph-name="bracketright" unicode="]" horiz-adv-x="368" 
d="M67 -88c-11.333 0 -22 4.5 -32 13.5s-15 23.167 -15 42.5c0 17.333 5 30.833 15 40.5s20.667 14.5 32 14.5h110v599h-110c-11.333 0 -22 5 -32 15s-15 23.667 -15 41c0 18.667 5 32.5 15 41.5s20.667 13.5 32 13.5h162c12 0 22 -2 30 -6s14.333 -9 19 -15
s7.83398 -12.5 9.50098 -19.5s2.5 -13.5 2.5 -19.5v-701c0 -5.33301 -0.833008 -11.5 -2.5 -18.5s-4.83398 -13.5 -9.50098 -19.5s-11 -11.167 -19 -15.5s-18 -6.5 -30 -6.5h-162z" />
    <glyph glyph-name="asciicircum" unicode="^" horiz-adv-x="469" 
d="M241 670c12.667 0 25.335 -4.33105 38.002 -12.998l161 -150c11.333 -10.667 16.666 -22.334 15.999 -35.001c0 -8.66699 -2 -16.334 -6 -23.001s-8.83301 -12.5 -14.5 -17.5s-11.834 -8.83301 -18.501 -11.5s-13 -4 -19 -4c-13.333 0 -24.666 4.66699 -33.999 14
l-124 114l-138 -118c-4.66699 -4 -9.5 -6.83301 -14.5 -8.5s-10.167 -2.5 -15.5 -2.5c-18 0 -32.5 6.33301 -43.5 19s-16.5 26 -16.5 40c-0.666992 11.333 4.33301 22 15 32l174 151c13.333 8.66699 26.666 13 39.999 13z" />
    <glyph glyph-name="underscore" unicode="_" horiz-adv-x="500" 
d="M0 -144c-18 0 -31.667 3.16699 -41 9.5s-14 18.166 -14 35.499s4.5 29.166 13.5 35.499s22.833 9.5 41.5 9.5h501c18.667 0 32.834 -3.16699 42.501 -9.5s14.5 -18.166 14.5 -35.499s-4.83301 -29.166 -14.5 -35.499s-23.834 -9.5 -42.501 -9.5h-501z" />
    <glyph glyph-name="grave" unicode="`" horiz-adv-x="523" 
d="M207 639c-11.333 12.667 -17.001 27.334 -17.001 44.001c0 15.333 5.66699 28.833 17 40.5s25.333 17.5 42 17.5c13.333 0 24.833 -3.83301 34.5 -11.5s17.167 -16.5 22.5 -26.5l63 -112c5.33301 -8.66699 8 -18.334 8 -29.001c0 -8 -3.16699 -16.333 -9.5 -25
s-16.166 -13 -29.499 -13c-16 0 -29 5.66699 -39 17z" />
    <glyph glyph-name="a" unicode="a" horiz-adv-x="529" 
d="M190 190c-10.667 0 -19 -3.66699 -25 -11s-9 -15.333 -9 -24v-3c0 -9.33301 2.83301 -17.833 8.5 -25.5s14.167 -11.5 25.5 -11.5h175v75h-175zM364 293v8.00098c0 13.333 -4.83301 25.833 -14.5 37.5s-26.834 17.5 -51.501 17.5h-137
c-11.333 0 -22.333 3.83301 -33 11.5s-16 21.167 -16 40.5s5.33301 33.833 16 43.5s21.667 14.5 33 14.5h143c60 0 105.167 -15.167 135.5 -45.5s45.5 -74.5 45.5 -132.5v-227c0 -4.66699 -1 -10.5 -3 -17.5s-5.33301 -13.667 -10 -20s-10.667 -11.833 -18 -16.5
s-16.333 -7 -27 -7h-257c-18 0 -35.167 3.5 -51.5 10.5s-30.666 17 -42.999 30s-22 28.5 -29 46.5s-10.5 38.333 -10.5 61v9c0 18 3.16699 35.167 9.5 51.5s15.5 30.666 27.5 42.999s26.667 22.333 44 30s37.333 11.5 60 11.5h187z" />
    <glyph glyph-name="b" unicode="b" horiz-adv-x="528" 
d="M370 275c0 23.333 -5.66797 41.667 -17.001 55s-30.666 20 -57.999 20h-128v-235h129c27.333 0 46.5 6.5 57.5 19.5s16.5 30.167 16.5 51.5v89zM104.999 0.000976562c-10.667 0 -19.666 2.00098 -26.999 6.00098s-13.333 9.16699 -18 15.5s-8 13.166 -10 20.499
s-3 14 -3 20v589c0 11.333 5.33301 21.833 16 31.5s25.667 14.5 45 14.5c20 0 34.833 -4.83301 44.5 -14.5s14.5 -20.167 14.5 -31.5v-185h135c28 0 53.5 -4 76.5 -12s42.667 -19.667 59 -35s29.166 -34.5 38.499 -57.5s14 -49.833 14 -80.5v-99
c0 -30 -4.83301 -56.333 -14.5 -79s-23 -41.667 -40 -57s-37.333 -26.833 -61 -34.5s-49.167 -11.5 -76.5 -11.5h-193z" />
    <glyph glyph-name="c" unicode="c" horiz-adv-x="443" 
d="M232 0c-28.667 0 -54.667 3.66504 -78 10.998s-43.5 18.5 -60.5 33.5s-30.167 34 -39.5 57s-14 49.833 -14 80.5v99c0 30.667 4.66699 57.5 14 80.5s22.166 42.167 38.499 57.5s36 27 59 35s48.5 12 76.5 12h141c11.333 0 22.333 -5.16699 33 -15.5s16 -24.5 16 -42.5
c0 -19.333 -5.33301 -33.833 -16 -43.5s-21.667 -14.5 -33 -14.5h-134c-27.333 0 -46.666 -6.66699 -57.999 -20s-17 -31.666 -17 -54.999v-88c0 -21.333 5.33301 -38.666 16 -51.999s30 -20 58 -20h140c11.333 0 22.333 -4.83301 33 -14.5s16 -24.167 16 -43.5
c0 -18 -5.16699 -32 -15.5 -42s-21.833 -15 -34.5 -15h-141z" />
    <glyph glyph-name="d" unicode="d" horiz-adv-x="528" 
d="M158 186c0 -21.333 5.49902 -38.501 16.499 -51.501s30.167 -19.5 57.5 -19.5h129v235h-128c-27.333 0 -46.666 -6.66699 -57.999 -20s-17 -31.666 -17 -54.999v-89zM229.999 -0.000976562c-57.333 0 -103.666 14.832 -138.999 44.499s-53 74.5 -53 134.5v101
c0 30.667 4.66699 57.5 14 80.5s22.166 42.333 38.499 58s36 27.5 59 35.5s48.5 12 76.5 12h135v185c0 11.333 4.83301 21.833 14.5 31.5s24.5 14.5 44.5 14.5c19.333 0 34.333 -4.83301 45 -14.5s16 -20.167 16 -31.5v-589c0 -6 -1 -12.667 -3 -20
s-5.33301 -14.166 -10 -20.499s-10.667 -11.5 -18 -15.5s-16.333 -6 -27 -6h-193z" />
    <glyph glyph-name="e" unicode="e" horiz-adv-x="500" 
d="M345 278c0 22.667 -6.33301 40.334 -19 53.001s-31.667 19 -57 19h-36c-21.333 0 -38.833 -6.33301 -52.5 -19s-20.5 -30.334 -20.5 -53.001v-6h185v6zM276 466c26.667 0 51.499 -4.16699 74.499 -12.5s43 -20.333 60 -36s30.333 -35.167 40 -58.5s14.5 -50 14.5 -80v-39
c0 -5.33301 -1 -11.5 -3 -18.5s-5.5 -13.5 -10.5 -19.5s-11.5 -11.167 -19.5 -15.5s-18.333 -6.5 -31 -6.5h-241v-7c0 -19.333 7.16699 -34.666 21.5 -45.999s33.5 -17 57.5 -17h133c11.333 0 22.333 -4 33 -12s16 -21.667 16 -41c0 -18 -5.33301 -32 -16 -42
s-21.667 -15 -33 -15h-147c-26.667 0 -51.334 4 -74.001 12s-42.167 19.5 -58.5 34.5s-29.166 33.667 -38.499 56s-14 47.833 -14 76.5v100c0 29.333 4.83301 55.666 14.5 78.999s22.834 43 39.501 59s36.5 28.167 59.5 36.5s48.167 12.5 75.5 12.5h47z" />
    <glyph glyph-name="f" unicode="f" horiz-adv-x="387" 
d="M279 576c-22 0 -39.8311 -3.66895 -53.498 -11.002s-20.5 -23.666 -20.5 -48.999v-50h107c11.333 0 22.166 -4.16699 32.499 -12.5s15.5 -22.166 15.5 -41.499c0 -18 -5.16699 -31.5 -15.5 -40.5s-21.166 -13.5 -32.499 -13.5h-107v-316
c0 -11.333 -5.16699 -22 -15.5 -32s-25.166 -15 -44.499 -15c-20.667 0 -35.834 5 -45.501 15s-14.5 20.667 -14.5 32v316h-32c-11.333 0 -22.333 4.33301 -33 13s-16 22.334 -16 41.001c0 19.333 5.33301 33.166 16 41.499s21.667 12.5 33 12.5h32v46
c0 62 16.5 107.5 49.5 136.5s76.833 43.5 131.5 43.5h69c6 0 12.167 -1.16699 18.5 -3.5s12.166 -6 17.499 -11s9.66602 -11 12.999 -18s5 -15.167 5 -24.5c0 -18 -6 -32.333 -18 -43s-24 -16 -36 -16h-56z" />
    <glyph glyph-name="g" unicode="g" horiz-adv-x="528" 
d="M481 -20c0 -59.333 -17.833 -104.502 -53.5 -135.502s-83.834 -46.5 -144.501 -46.5h-146c-11.333 0 -22.5 5 -33.5 15s-16.5 24.333 -16.5 43c0 19.333 5.5 33.333 16.5 42s22.167 13 33.5 13h145c52.667 0 79 24.667 79 74v15h-135c-28 0 -53.5 3.83301 -76.5 11.5
s-42.667 19.334 -59 35.001s-29.166 35 -38.499 58s-14 49.833 -14 80.5v100c0 30 4.83301 56.333 14.5 79s23 41.667 40 57s37.333 26.833 61 34.5s49.167 11.5 76.5 11.5h193c10.667 0 19.667 -2 27 -6s13.333 -9.16699 18 -15.5s8 -13.166 10 -20.499s3 -14 3 -20v-425z
M158 191.998c0 -23.333 5.66797 -41.667 17.001 -55s30.666 -20 57.999 -20h128v235h-129c-27.333 0 -46.5 -6.5 -57.5 -19.5s-16.5 -30.167 -16.5 -51.5v-89z" />
    <glyph glyph-name="h" unicode="h" horiz-adv-x="523" 
d="M424 -5c-19.333 0 -34.166 4.99902 -44.499 14.999s-15.5 20.667 -15.5 32v239c0 26 -7.66699 44 -23 54s-34.333 15 -57 15h-117v-308c0 -11.333 -4.83301 -22 -14.5 -32s-24.5 -15 -44.5 -15c-19.333 0 -34.5 5 -45.5 15s-16.5 20.667 -16.5 32v608
c0 11.333 5.33301 22 16 32s25.667 15 45 15c20 0 35 -5 45 -15s15 -20.667 15 -32v-184h127c58 0 104.167 -15.5 138.5 -46.5s51.5 -77.167 51.5 -138.5v-238c0 -11.333 -4.83301 -22.166 -14.5 -32.499s-24.834 -15.5 -45.501 -15.5z" />
    <glyph glyph-name="i" unicode="i" horiz-adv-x="340" 
d="M194 535c-19.333 0 -35.832 6.33301 -49.499 19s-20.5 28.667 -20.5 48c0 22 7.16699 38.667 21.5 50s30.166 17 47.499 17c18 0 34.333 -5.66699 49 -17s22 -28 22 -50c0 -19.333 -6.66699 -35.333 -20 -48s-30 -19 -50 -19zM197.001 -5c-20 0 -34.999 5 -44.999 15
s-15 20.667 -15 32v312h-62c-11.333 0 -22.333 4.83301 -33 14.5s-16 23.5 -16 41.5c0 19.333 5.33301 33.5 16 42.5s21.667 13.5 33 13.5h123c18.667 0 33.167 -5.33301 43.5 -16s15.5 -22.667 15.5 -36v-372c0 -11.333 -4.83301 -22 -14.5 -32s-24.834 -15 -45.501 -15z
" />
    <glyph glyph-name="j" unicode="j" horiz-adv-x="305" 
d="M173 535c-19.333 0 -35.999 6.33301 -49.999 19s-21 28.667 -21 48c0 23.333 7.33301 40.5 22 51.5s30.667 16.5 48 16.5s33.166 -5.5 47.499 -16.5s21.5 -28.167 21.5 -51.5c0 -19.333 -6.5 -35.333 -19.5 -48s-29.167 -19 -48.5 -19zM-5.99902 -202
c-12 0 -23.167 5.16895 -33.5 15.502s-15.5 24.5 -15.5 42.5c0 19.333 5.33301 33.666 16 42.999s21.667 14 33 14h49c22 0 40 5.83301 54 17.5s21 30.167 21 55.5v368h-62c-11.333 0 -22.333 4.66699 -33 14s-16 23.333 -16 42c0 19.333 5.33301 33.5 16 42.5
s21.667 13.5 33 13.5h123c17.333 0 31.5 -4.83301 42.5 -14.5s16.5 -23.5 16.5 -41.5v-429c0 -60.667 -16.667 -106.334 -50 -137.001s-79.333 -46 -138 -46h-56z" />
    <glyph glyph-name="k" unicode="k" horiz-adv-x="461" 
d="M430 7c-13.333 -8 -25.998 -11.998 -37.998 -11.998c-11.333 0 -21.5 2.66699 -30.5 8s-16.167 12.666 -21.5 21.999l-119 216l-57 -39v-160c0 -11.333 -4.66699 -22 -14 -32s-24.333 -15 -45 -15c-19.333 0 -34.166 5 -44.499 15s-15.5 20.667 -15.5 32v608
c0 11.333 5.16699 22 15.5 32s25.166 15 44.499 15c20.667 0 35.667 -5 45 -15s14 -20.667 14 -32v-317l178 129c6 4.66699 12.5 8 19.5 10s13.5 3 19.5 3c15.333 0 29.166 -5.33301 41.499 -16s18.5 -24.334 18.5 -41.001c-0.666992 -7.33301 -2.83398 -15 -6.50098 -23
s-9.5 -14.667 -17.5 -20l-98 -68l129 -229c4.66699 -7.33301 7 -15.333 7 -24c0 -10.667 -2.66699 -20.167 -8 -28.5s-11 -14.5 -17 -18.5z" />
    <glyph glyph-name="l" unicode="l" horiz-adv-x="321" 
d="M184 181c0 -19.333 5.16797 -35.833 15.501 -49.5s27.833 -20.5 52.5 -20.5h14c17.333 0 30.5 -5.16699 39.5 -15.5s13.5 -24.5 13.5 -42.5c0 -18.667 -5.33301 -32.834 -16 -42.501s-23 -14.5 -37 -14.5h-25c-54.667 0 -97.667 15.333 -129 46s-47 77.334 -47 140.001
v468c0 11.333 4.66699 22 14 32s24.333 15 45 15c19.333 0 34.166 -5 44.499 -15s15.5 -20.667 15.5 -32v-469z" />
    <glyph glyph-name="m" unicode="m" horiz-adv-x="707" 
d="M607 -5c-20 0 -34.9961 4.66797 -44.9961 14.001s-15 20 -15 32v242c0 25.333 -7.83301 42.833 -23.5 52.5s-34.834 14.5 -57.501 14.5h-49v-309c0 -10.667 -4.83301 -21 -14.5 -31s-24.834 -15 -45.501 -15c-19.333 0 -34.333 4.83301 -45 14.5s-16 20.5 -16 32.5v308
h-130v-309c0 -10.667 -4.83301 -21 -14.5 -31s-24.834 -15 -45.501 -15c-19.333 0 -34.333 4.83301 -45 14.5s-16 20.5 -16 32.5v362c0 6 1 12.5 3 19.5s5.5 13.667 10.5 20s11.5 11.666 19.5 15.999s18.333 6.5 31 6.5h365c58.667 0 105.5 -15.5 140.5 -46.5
s52.5 -76.5 52.5 -136.5v-242c0 -10.667 -4.83301 -21 -14.5 -31s-24.834 -15 -45.501 -15z" />
    <glyph glyph-name="n" unicode="n" horiz-adv-x="523" 
d="M423 -5c-21.333 0 -36.668 4.66797 -46.001 14.001s-14 20 -14 32v242c0 25.333 -7.83301 42.833 -23.5 52.5s-34.834 14.5 -57.501 14.5h-116v-309c0 -10.667 -4.66699 -21 -14 -31s-24.666 -15 -45.999 -15c-20 0 -35.167 4.83301 -45.5 14.5s-15.5 20.5 -15.5 32.5
v362c0 6 1 12.5 3 19.5s5.5 13.667 10.5 20s11.5 11.666 19.5 15.999s18.333 6.5 31 6.5h181c58.667 0 105.5 -15.5 140.5 -46.5s52.5 -76.5 52.5 -136.5v-242c0 -10.667 -4.66699 -21 -14 -31s-24.666 -15 -45.999 -15z" />
    <glyph glyph-name="o" unicode="o" horiz-adv-x="518" 
d="M235 358c-27.333 0 -46.668 -6.66699 -58.001 -20s-17 -31.666 -17 -54.999v-104c0 -21.333 5.5 -38.5 16.5 -51.5s30.167 -19.5 57.5 -19.5h50c27.333 0 46.5 6.5 57.5 19.5s16.5 30.167 16.5 51.5v104c0 23.333 -5.66699 41.666 -17 54.999s-30.666 20 -57.999 20h-48z
M224.998 0c-26 0 -50.1631 3.66699 -72.4961 11s-41.833 18.5 -58.5 33.5s-29.834 34 -39.501 57s-14.5 49.833 -14.5 80.5v99c0 30.667 4.66699 57.5 14 80.5s22.166 42.167 38.499 57.5s36 27 59 35s48.5 12 76.5 12h62c28 0 53.5 -4 76.5 -12s42.667 -19.667 59 -35
s29.166 -34.5 38.499 -57.5s14 -49.833 14 -80.5v-99c0 -30.667 -4.83301 -57.5 -14.5 -80.5s-22.834 -42 -39.501 -57s-36.167 -26.167 -58.5 -33.5s-46.5 -11 -72.5 -11h-68z" />
    <glyph glyph-name="p" unicode="p" horiz-adv-x="528" 
d="M368 281c0 21.333 -5.49902 38.501 -16.499 51.501s-30.167 19.5 -57.5 19.5h-129v-239h128c27.333 0 46.666 6.66699 57.999 20s17 31.666 17 54.999v93zM296.001 467.001c27.333 0 52.832 -3.83105 76.499 -11.498s44 -19.167 61 -34.5s30.333 -34.333 40 -57
s14.5 -49 14.5 -79v-99c0 -30.667 -4.66699 -57.5 -14 -80.5s-22.166 -42.333 -38.499 -58s-36 -27.334 -59 -35.001s-48.5 -11.5 -76.5 -11.5h-135v-168c0 -11.333 -4.83301 -21.5 -14.5 -30.5s-24.5 -13.5 -44.5 -13.5c-19.333 0 -34.333 4.5 -45 13.5
s-16 19.167 -16 30.5v572c0 6 1 12.667 3 20s5.33301 14.166 10 20.499s10.667 11.5 18 15.5s16.333 6 27 6h193z" />
    <glyph glyph-name="q" unicode="q" horiz-adv-x="528" 
d="M162 188c0 -23.333 5.66797 -41.667 17.001 -55s30.666 -20 57.999 -20h128v239h-129c-27.333 0 -46.5 -6.5 -57.5 -19.5s-16.5 -30.167 -16.5 -51.5v-93zM427.001 466.999c10.667 0 19.666 -2.00195 26.999 -6.00195s13.333 -9.16699 18 -15.5s8 -13.166 10 -20.499
s3 -14 3 -20v-572c0 -11.333 -5.33301 -21.5 -16 -30.5s-25.667 -13.5 -45 -13.5c-20 0 -34.833 4.5 -44.5 13.5s-14.5 19.167 -14.5 30.5v168h-135c-28 0 -53.5 3.83301 -76.5 11.5s-42.667 19.334 -59 35.001s-29.166 35 -38.499 58s-14 49.833 -14 80.5v99
c0 30 4.83301 56.333 14.5 79s23 41.667 40 57s37.333 26.833 61 34.5s49.167 11.5 76.5 11.5h193z" />
    <glyph glyph-name="r" unicode="r" horiz-adv-x="415" 
d="M251 466c20.667 0 40.6641 -3.50098 59.9971 -10.501s36.333 -16.167 51 -27.5s26.334 -24 35.001 -38s13 -27.667 13 -41c0 -10 -3 -19 -9 -27s-12.667 -14.667 -20 -20c-16 -10.667 -31.333 -13.667 -46 -9s-27 14.334 -37 29.001
c-5.33301 6.66699 -13.666 13.334 -24.999 20.001s-23.666 10 -36.999 10h-61v-311c0 -10.667 -4.83301 -21 -14.5 -31s-24.834 -15 -45.501 -15c-19.333 0 -34.166 4.66699 -44.499 14s-15.5 20 -15.5 32v363c0 6 1 12.5 3 19.5s5.5 13.667 10.5 20
s11.5 11.666 19.5 15.999s18.333 6.5 31 6.5h132z" />
    <glyph glyph-name="s" unicode="s" horiz-adv-x="459" 
d="M92 0c-5.33301 0 -11.002 1.00391 -17.002 3.00391s-11.667 5.33301 -17 10s-9.66602 10.834 -12.999 18.501s-5 17.167 -5 28.5s2 20.833 6 28.5s8.83301 13.667 14.5 18s11.5 7.5 17.5 9.5s10.667 3 14 3h188c18.667 0 28 7 28 21c0 9.33301 -12 17.666 -36 24.999
l-108 31c-18 4.66699 -34.833 10.334 -50.5 17.001s-29.334 15 -41.001 25s-20.834 22.5 -27.501 37.5s-10 33.833 -10 56.5c0 38.667 12.5 70.5 37.5 95.5s61.833 37.5 110.5 37.5h171c4.66699 0 10 -0.833008 16 -2.5s11.667 -4.5 17 -8.5s9.83301 -9.66699 13.5 -17
s5.5 -16.333 5.5 -27c0 -11.333 -1.66699 -20.833 -5 -28.5s-7.66602 -13.834 -12.999 -18.501s-11 -8 -17 -10s-11.667 -3 -17 -3h-171c-7.33301 0 -13.333 -1.16699 -18 -3.5s-7 -6.83301 -7 -13.5c0 -3.33301 3 -6.83301 9 -10.5s13.667 -6.83398 23 -9.50098l110 -30
c18.667 -5.33301 35.834 -11.333 51.501 -18s29.334 -15.334 41.001 -26.001s20.667 -23.834 27 -39.501s9.5 -34.834 9.5 -57.501c0 -19.333 -3 -37.5 -9 -54.5s-15.167 -32 -27.5 -45s-27.833 -23.333 -46.5 -31s-40.667 -11.5 -66 -11.5h-188z" />
    <glyph glyph-name="t" unicode="t" horiz-adv-x="397" 
d="M340 110c12 0 23.999 -4.83594 35.999 -14.5029s18 -23.5 18 -41.5c0 -9.33301 -1.66699 -17.5 -5 -24.5s-7.66602 -13 -12.999 -18s-11.166 -8.66699 -17.499 -11s-12.5 -3.5 -18.5 -3.5h-81c-22.667 0 -44 3.33301 -64 10s-37.333 17.334 -52 32.001
s-26.334 33 -35.001 55s-13 48.667 -13 80v182h-38c-11.333 0 -22.333 4.16699 -33 12.5s-16 22.166 -16 41.499c0 18.667 5.33301 32.334 16 41.001s21.667 13 33 13h37v126c0 11.333 4.83301 22 14.5 32s24.834 15 45.501 15c19.333 0 34.166 -5 44.499 -15
s15.5 -20.667 15.5 -32v-126h104c11.333 0 22.166 -4.5 32.499 -13.5s15.5 -22.5 15.5 -40.5c0 -19.333 -5.16699 -33.166 -15.5 -41.499s-21.166 -12.5 -32.499 -12.5h-104v-174c0 -25.333 6.16699 -43.666 18.5 -54.999s30.833 -17 55.5 -17h52z" />
    <glyph glyph-name="u" unicode="u" horiz-adv-x="523" 
d="M100 471c20 0 34.9971 -4.66797 44.9971 -14.001s15 -20 15 -32v-242c0 -25.333 7.83301 -42.833 23.5 -52.5s34.834 -14.5 57.501 -14.5h116v309c0 10.667 4.83301 21 14.5 31s24.834 15 45.501 15c19.333 0 34.333 -4.83301 45 -14.5s16 -20.5 16 -32.5v-362
c0 -6 -1 -12.5 -3 -19.5s-5.5 -13.667 -10.5 -20s-11.5 -11.666 -19.5 -15.999s-18.333 -6.5 -31 -6.5h-181c-58.667 0 -105.5 15.5 -140.5 46.5s-52.5 76.5 -52.5 136.5v242c0 10.667 4.83301 21 14.5 31s24.834 15 45.501 15z" />
    <glyph glyph-name="v" unicode="v" horiz-adv-x="476" 
d="M239 141l106.997 299c4.66699 12 11.334 20.667 20.001 26s18.667 8 30 8c17.333 0 32.333 -4.66699 45 -14s19 -23 19 -41c0 -6 -1 -12 -3 -18l-138 -355c-5.33301 -14 -12.833 -25.167 -22.5 -33.5s-23.5 -12.5 -41.5 -12.5h-38c-17.333 0 -31.166 4 -41.499 12
s-18.166 19.333 -23.499 34l-138 355c-2 6 -3 12 -3 18c0 17.333 6.5 31 19.5 41s28.167 15 45.5 15c26 0 43.667 -13.333 53 -40l108 -294h2z" />
    <glyph glyph-name="w" unicode="w" horiz-adv-x="659" 
d="M464 149l62.9961 291c4.66699 12 11.334 20.667 20.001 26s18.667 8 30 8c17.333 0 32.333 -4.66699 45 -14s19 -23 19 -41c0 -6 -1 -12 -3 -18l-93 -355c-7.33301 -30.667 -28.666 -46 -63.999 -46h-38c-17.333 0 -31.166 4 -41.499 12s-18.166 19.333 -23.499 34
l-46 138h-2l-48 -138c-5.33301 -14 -13 -25.167 -23 -33.5s-23.667 -12.5 -41 -12.5h-38c-34 -0 -55.667 15.333 -65 46l-103 355c-2 6 -3 12 -3 18c0 17.333 6.5 31 19.5 41s28.167 15 45.5 15c26 0 43.667 -13.333 53 -40l73 -287h3l72 195l-20 58c-2 6 -3 12 -3 18
c0 17.333 6.5 31 19.5 41s28.167 15 45.5 15c26 0 43.667 -13.333 53 -40l92 -286h2z" />
    <glyph glyph-name="x" unicode="x" horiz-adv-x="495" 
d="M344 460c4.66699 6 10.1699 10.499 16.5029 13.499s13.166 4.5 20.499 4.5c10.667 0 20.334 -2.16699 29.001 -6.5s16.167 -9.83301 22.5 -16.5s11.166 -14 14.499 -22s5 -15.333 5 -22c0 -9.33301 -2.66699 -17.333 -8 -24l-121 -147l133 -156
c4.66699 -5.33301 7 -13.333 7 -24c0 -6 -1.33301 -13 -4 -21s-6.66699 -15.5 -12 -22.5s-12.166 -12.833 -20.499 -17.5s-17.833 -7 -28.5 -7c-8.66699 0 -16.834 1.5 -24.501 4.5s-13.834 7.5 -18.501 13.5l-109 139l-110 -141c-9.33301 -12 -22.333 -18 -39 -18
c-11.333 0 -21.333 2.33301 -30 7s-16 10.334 -22 17.001s-10.5 14 -13.5 22s-4.5 15 -4.5 21c0 10 2.66699 18.333 8 25l133 158l-121 147c-5.33301 7.33301 -8 15.666 -8 24.999c0 6 1.66699 12.833 5 20.5s8 14.834 14 21.501s13.333 12.334 22 17.001s18.334 7 29.001 7
c7.33301 0 14.166 -1.33301 20.499 -4s12.166 -7.33398 17.499 -14.001l99 -131z" />
    <glyph glyph-name="y" unicode="y" horiz-adv-x="524" 
d="M479 -18c0 -32.667 -5.33496 -60.5 -16.002 -83.5s-25 -42 -43 -57s-39 -26 -63 -33s-49.333 -10.5 -76 -10.5h-148c-11.333 0 -22.166 5 -32.499 15s-15.5 24.333 -15.5 43c0 19.333 5.16699 33.333 15.5 42s21.166 13 32.499 13h147
c26.667 0 46.334 6.83301 59.001 20.5s19 32.167 19 55.5v13h-124c-60.667 -0 -108.167 15.333 -142.5 46s-51.5 77 -51.5 139v239c0 11.333 4.83301 22 14.5 32s24.834 15 45.501 15c19.333 0 34.333 -5 45 -15s16 -20.667 16 -32v-239c0 -26 7.66699 -44 23 -54
s34.333 -15 57 -15h117v308c0 11.333 5 22 15 32s25 15 45 15c19.333 0 34.333 -5 45 -15s16 -20.667 16 -32v-442v0z" />
    <glyph glyph-name="z" unicode="z" horiz-adv-x="477" 
d="M88 0c-35.333 0 -52.999 19.6699 -52.999 59.0029c0 9.33301 2 17.5 6 24.5s7.66699 12.5 11 16.5l224 253h-186c-11.333 0 -22.166 4.5 -32.499 13.5s-15.5 23.167 -15.5 42.5c0 18 5.16699 32.167 15.5 42.5s21.166 15.5 32.499 15.5h306
c17.333 0 31.166 -5 41.499 -15s15.5 -24.667 15.5 -44c0 -8.66699 -1.66699 -16.667 -5 -24s-7 -13 -11 -17l-221 -253h186c10 0 18.333 -1.83301 25 -5.5s12 -8.33398 16 -14.001s6.66699 -11.834 8 -18.501s2 -13 2 -19c0 -5.33301 -0.666992 -11.333 -2 -18
s-4 -12.834 -8 -18.501s-9.33301 -10.5 -16 -14.5s-15 -6 -25 -6h-314z" />
    <glyph glyph-name="braceleft" unicode="{" horiz-adv-x="401" 
d="M239 436c0 -20.667 -4.99805 -41.666 -14.998 -62.999s-25.667 -37.666 -47 -48.999c22.667 -12.667 38.667 -30.667 48 -54s14 -45.666 14 -66.999v-106c0 -22 5.5 -39.5 16.5 -52.5s29.833 -19.5 56.5 -19.5h14c2.66699 0 6.16699 -0.833008 10.5 -2.5
s8.5 -4.5 12.5 -8.5s7.5 -9.33301 10.5 -16s4.5 -15.334 4.5 -26.001c0 -20.667 -4.33301 -34.834 -13 -42.501s-17 -11.5 -25 -11.5h-32c-54 0 -96.333 14.833 -127 44.5s-46 72.167 -46 127.5v103c0 39.333 -14.667 64.666 -44 75.999c-6 2 -11.333 4 -16 6
s-8.33398 4.83301 -11.001 8.5s-4.66699 8.33398 -6 14.001s-2 13.5 -2 23.5c0 19.333 2.5 32 7.5 38s12.833 11.333 23.5 16c17.333 7.33301 29.666 17.333 36.999 30s11 28.667 11 48v103c0 54 15.333 95.833 46 125.5s73 44.5 127 44.5h32
c6.66699 0 14.667 -3.66699 24 -11s14 -21 14 -41c0 -10.667 -1.5 -19.334 -4.5 -26.001s-6.5 -12 -10.5 -16s-8.16699 -6.83301 -12.5 -8.5s-7.83301 -2.5 -10.5 -2.5h-14c-25.333 0 -43.833 -6.5 -55.5 -19.5s-17.5 -30.5 -17.5 -52.5v-113z" />
    <glyph glyph-name="bar" unicode="|" horiz-adv-x="519" 
d="M260 -124c-20.667 0 -35.833 4.33301 -45.5 13s-14.5 22.667 -14.5 42v799c0 36.667 20 55 60 55c39.333 0 59 -18.333 59 -55v-799c0 -19.333 -4.83301 -33.333 -14.5 -42s-24.5 -13 -44.5 -13z" />
    <glyph glyph-name="braceright" unicode="}" horiz-adv-x="401" 
d="M158 549c0 22 -5.83008 39.499 -17.4971 52.499s-30.167 19.5 -55.5 19.5h-14c-2.66699 0 -6.16699 0.833008 -10.5 2.5s-8.5 4.5 -12.5 8.5s-7.5 9.33301 -10.5 16s-4.5 15.334 -4.5 26.001c0 20 4.66699 33.667 14 41s17.333 11 24 11h32
c54 0 96.333 -14.833 127 -44.5s46 -71.5 46 -125.5v-103c0 -19.333 3.66699 -35.333 11 -48s19.666 -22.667 36.999 -30c10.667 -4.66699 18.5 -10 23.5 -16s7.5 -18.667 7.5 -38c0 -10 -0.666992 -17.833 -2 -23.5s-3.33301 -10.334 -6 -14.001
s-6.33398 -6.5 -11.001 -8.5s-10 -4 -16 -6c-29.333 -11.333 -44 -36.666 -44 -75.999v-103c0 -55.333 -15.333 -97.833 -46 -127.5s-73 -44.5 -127 -44.5h-32c-8 0 -16.333 3.83301 -25 11.5s-13 21.834 -13 42.501c0 10.667 1.33301 19.334 4 26.001s6 12 10 16
s8.16699 6.83301 12.5 8.5s8.16602 2.5 11.499 2.5h14c26.667 0 45.5 6.5 56.5 19.5s16.5 30.5 16.5 52.5v106c0 21.333 4.66699 43.666 14 66.999s25.333 41.333 48 54c-21.333 11.333 -37 27.666 -47 48.999s-15 42.333 -15 63v113z" />
    <glyph glyph-name="asciitilde" unicode="~" horiz-adv-x="520" 
d="M164 399c19.333 0 37.833 -2.99707 55.5 -8.99707s34.5 -12.667 50.5 -20c13.333 -6.66699 28 -13.167 44 -19.5s30 -9.83301 42 -10.5c9.33301 -0.666992 17.166 1 23.499 5s11.833 8.66699 16.5 14c4 4.66699 9.16699 9.66699 15.5 15s14.166 8 23.499 8
c5.33301 0 10.666 -0.833008 15.999 -2.5s10.666 -5.16699 15.999 -10.5c10 -8 16.833 -15.5 20.5 -22.5s5.33398 -13.5 5.00098 -19.5s-1.83301 -11.333 -4.5 -16s-5 -8.33398 -7 -11.001c-17.333 -22.667 -36.166 -38.334 -56.499 -47.001s-42.833 -13 -67.5 -13
c-21.333 0 -42 2.66699 -62 8s-39.333 12.666 -58 21.999c-10 6 -22.167 12.167 -36.5 18.5s-26.166 9.5 -35.499 9.5s-18.166 -1.66699 -26.499 -5s-16.5 -9.66602 -24.5 -18.999c-5.33301 -5.33301 -10.833 -9.83301 -16.5 -13.5s-12.167 -5.5 -19.5 -5.5
c-12 0 -23.333 5 -34 15c-11.333 10.667 -17 23.334 -17 38.001c0 11.333 4 21.666 12 30.999c21.333 25.333 43 41.666 65 48.999s42 11 60 11z" />
    <glyph glyph-name="exclamdown" unicode="&#xa1;" horiz-adv-x="233" 
d="M116 471c18 0 33.6689 -6.16699 47.002 -18.5s20 -27.5 20 -45.5c0 -21.333 -6.83301 -37.333 -20.5 -48s-28.834 -16 -45.501 -16s-31.834 5.33301 -45.501 16s-20.5 26.667 -20.5 48c0 18 6.16699 33.167 18.5 45.5s27.833 18.5 46.5 18.5zM117.002 288
c21.333 0 36.666 -5.83301 45.999 -17.5s14 -26.5 14 -44.5v-361c0 -18 -4.66699 -32.833 -14 -44.5s-24.666 -17.5 -45.999 -17.5s-36.5 5.83301 -45.5 17.5s-13.5 26.5 -13.5 44.5v361c0 18 4.5 32.833 13.5 44.5s24.167 17.5 45.5 17.5z" />
    <glyph glyph-name="cent" unicode="&#xa2;" horiz-adv-x="520" 
d="M266 0h-5.99805c-28.667 0 -54.667 3.66699 -78 11s-43.5 18.5 -60.5 33.5s-30.167 34 -39.5 57s-14 49.833 -14 80.5v99c0 30.667 4.66699 57.5 14 80.5s22.166 42.167 38.499 57.5s36 27 59 35s48.5 12 76.5 12h11v102c0 10.667 2.66699 20 8 28s14.333 12 27 12
c24 0 36 -13.333 36 -40v-102h59c11.333 0 22.333 -5.16699 33 -15.5s16 -24.5 16 -42.5c0 -19.333 -5.33301 -33.833 -16 -43.5s-21.667 -14.5 -33 -14.5h-60v-235h65c11.333 0 22.333 -4.83301 33 -14.5s16 -24.167 16 -43.5c0 -18 -5.16699 -32 -15.5 -42
s-21.833 -15 -34.5 -15h-64v-100c0 -26 -11.667 -39 -35 -39c-12.667 0 -21.834 3.5 -27.501 10.5s-8.5 16.5 -8.5 28.5v100zM188.002 187c0 -21.333 5.33203 -38.668 15.999 -52.001s30 -20 58 -20h4v235h-3c-27.333 0 -46.666 -6.66699 -57.999 -20
s-17 -31.666 -17 -54.999v-88z" />
    <glyph glyph-name="sterling" unicode="&#xa3;" horiz-adv-x="520" 
d="M389 353c9.33301 0 18.334 -3.99707 27.001 -11.9971s13 -21 13 -39c0 -16 -4.33301 -28.667 -13 -38s-17.667 -14 -27 -14h-188v-134h254c11.333 0 22.166 -4.83301 32.499 -14.5s15.5 -24.167 15.5 -43.5c0 -18.667 -5.16699 -33 -15.5 -43s-21.166 -15 -32.499 -15
h-310c-12.667 0 -23.167 2.16699 -31.5 6.5s-14.833 9.66602 -19.5 15.999s-8 13.166 -10 20.499s-3 13.666 -3 18.999v188h-25c-9.33301 0 -18.333 4.66699 -27 14s-13 22 -13 38c0 18 4.33301 31 13 39s17.667 12 27 12h25v108c0 34.667 6 65 18 91s27.167 47.5 45.5 64.5
s39 29.833 62 38.5s45.5 13 67.5 13h162c19.333 0 33.5 -5.16699 42.5 -15.5s13.5 -24.5 13.5 -42.5s-4.66699 -32.167 -14 -42.5s-23.333 -15.5 -42 -15.5h-145c-28 0 -49.833 -7.66699 -65.5 -23s-23.834 -37 -24.501 -65v-111h188z" />
    <glyph glyph-name="currency" unicode="&#xa4;" horiz-adv-x="531" 
d="M266 179c12.667 0 24.667 2.33398 36 7.00098s21.166 11.167 29.499 19.5s15 18 20 29s7.5 23.167 7.5 36.5s-2.5 25.833 -7.5 37.5s-11.667 21.667 -20 30s-18.333 15 -30 20s-23.834 7.5 -36.501 7.5c-13.333 0 -25.666 -2.5 -36.999 -7.5s-21.166 -11.667 -29.499 -20
s-15 -18.333 -20 -30s-7.5 -23.834 -7.5 -36.501c0 -26 9.16699 -48 27.5 -66s40.5 -27 66.5 -27h1zM358 91.001c-16 -8.66699 -31.666 -14.6729 -46.999 -18.0059s-32.666 -5 -51.999 -5c-30.667 0 -59 7 -85 21l-33 -34c-16 -16.667 -30.667 -25 -44 -25
c-6.66699 0 -13.834 2.16699 -21.501 6.5s-14.834 9.66602 -21.501 15.999s-12.167 13.333 -16.5 21s-6.5 14.834 -6.5 21.501c0 14 7.33301 28.667 22 44l32 36c-15.333 30.667 -23 63.334 -23 98.001c0 35.333 7.66699 66.333 23 93l-37 37c-8 8 -13.667 15.833 -17 23.5
s-5 14.834 -5 21.501c0 8 2 15.667 6 23s9 13.833 15 19.5s12.833 10.167 20.5 13.5s15.167 5 22.5 5c14.667 0 29 -6.66699 43 -20l37 -36c28 15.333 59.333 23 94 23c35.333 0 67.666 -8 96.999 -24l36 35c7.33301 6.66699 14.333 11.834 21 15.501s13.667 5.5 21 5.5
s15 -2.16699 23 -6.5s15.167 -9.66602 21.5 -15.999s11.666 -13.5 15.999 -21.5s6.5 -15.333 6.5 -22c0 -14 -7 -28 -21 -42l-37 -37c6.66699 -13.333 11.834 -27.833 15.501 -43.5s5.5 -31.167 5.5 -46.5c0 -17.333 -2.16699 -34.166 -6.5 -50.499
s-10.166 -31.833 -17.499 -46.5l33 -34c8.66699 -9.33301 15.334 -17.666 20.001 -24.999s7 -15 7 -23c0 -6 -1.83301 -12.5 -5.5 -19.5s-8.5 -13.833 -14.5 -20.5s-12.833 -12.167 -20.5 -16.5s-15.167 -6.5 -22.5 -6.5c-14.667 0 -30.334 8 -47.001 24z" />
    <glyph glyph-name="yen" unicode="&#xa5;" horiz-adv-x="520" 
d="M456 283c8.66699 0 17 -3.66699 25 -11s12 -19.333 12 -36c0 -15.333 -4 -27.166 -12 -35.499s-16.333 -12.5 -25 -12.5h-134v-138c0 -37.333 -20 -56 -60 -56c-18.667 0 -33.167 4.83301 -43.5 14.5s-15.5 23.5 -15.5 41.5v138h-129c-8.66699 0 -17 4.16699 -25 12.5
s-12 20.166 -12 35.499c0 16.667 4 28.667 12 36s16.333 11 25 11h382zM75 327c-8.66699 0 -17 4.16797 -25 12.501s-12 20.166 -12 35.499c0 16.667 4 28.667 12 36s16.333 11 25 11h36l-94 175c-3.33301 6.66699 -5 13 -5 19c0 8 2 15.5 6 22.5s9.33301 13.167 16 18.5
s14.167 9.66602 22.5 12.999s16.833 5 25.5 5c19.333 0 35 -10.333 47 -31l131 -259h4l130 259c12.667 20.667 28.667 31 48 31c16.667 0 31.5 -6 44.5 -18s19.5 -25.667 19.5 -41c0 -8 -2 -16 -6 -24l-89 -170h45c8.66699 0 17 -3.66699 25 -11s12 -19.333 12 -36
c0 -15.333 -4 -27.166 -12 -35.499s-16.333 -12.5 -25 -12.5h-381z" />
    <glyph glyph-name="brokenbar" unicode="&#xa6;" horiz-adv-x="519" 
d="M260 354c-20.667 0 -35.833 4.33301 -45.5 13s-14.5 22.667 -14.5 42v321c0 36.667 20 55 60 55c39.333 0 59 -18.333 59 -55v-321c0 -19.333 -4.83301 -33.333 -14.5 -42s-24.5 -13 -44.5 -13zM260.001 -124c-20.667 0 -35.833 4.33301 -45.5 13s-14.5 22.667 -14.5 42
v322c0 36.667 20 55 60 55c39.333 0 59 -18.333 59 -55v-322c0 -19.333 -4.83301 -33.333 -14.5 -42s-24.5 -13 -44.5 -13z" />
    <glyph glyph-name="section" unicode="&#xa7;" horiz-adv-x="499" 
d="M310 345c0 16.667 -15.665 31.335 -46.998 44.002l-90 37c-15.333 6 -30 12.5 -44 19.5s-26.5 15.667 -37.5 26s-19.833 23.166 -26.5 38.499s-10 34.333 -10 57c0 40.667 12.833 74.667 38.5 102s62.167 41 109.5 41h163c6 0 12.167 -1.33301 18.5 -4
s12.166 -6.33398 17.499 -11.001s9.66602 -10.667 12.999 -18s5 -15.333 5 -24c0 -12 -1.66699 -21.833 -5 -29.5s-7.66602 -13.667 -12.999 -18s-11.166 -7.33301 -17.499 -9s-12.5 -2.5 -18.5 -2.5h-161c-6.66699 0 -12.834 -2 -18.501 -6s-8.5 -10.667 -8.5 -20
c0 -6.66699 2.83301 -12.834 8.5 -18.501s12.5 -10.167 20.5 -13.5l97 -38c16 -6 31.667 -12.5 47 -19.5s28.666 -15.667 39.999 -26s20.5 -23.166 27.5 -38.499s10.5 -34.666 10.5 -57.999v-107c0 -13.333 -4.66699 -25.666 -14 -36.999s-24.333 -17 -45 -17
c-12 0 -21.833 1.66699 -29.5 5s-13.667 7.66602 -18 12.999s-7.5 11.166 -9.5 17.499s-3 12.5 -3 18.5v96zM194.002 236.001c0 -16.667 15.665 -31.335 46.998 -44.002l87 -35c14.667 -6 29.167 -12.333 43.5 -19s27 -15.167 38 -25.5s19.833 -23.166 26.5 -38.499
s10 -34.333 10 -57c0 -40.667 -12.833 -74.667 -38.5 -102s-62.167 -41 -109.5 -41h-164c-6 0 -12.167 1.33301 -18.5 4s-12.166 6.33398 -17.499 11.001s-9.66602 10.5 -12.999 17.5s-5 15.167 -5 24.5c0 12 1.66699 21.833 5 29.5s7.66602 13.667 12.999 18
s11.166 7.33301 17.499 9s12.5 2.5 18.5 2.5h162c6.66699 0 12.834 2 18.501 6s8.5 10.667 8.5 20c0 6.66699 -2.83301 12.834 -8.5 18.501s-12.5 10.167 -20.5 13.5l-94 38c-16 6 -31.667 12.5 -47 19.5s-28.666 15.667 -39.999 26s-20.5 23.166 -27.5 38.499
s-10.5 34.666 -10.5 57.999v103c0 13.333 4.66699 25.666 14 36.999s24.333 17 45 17c12 0 21.833 -1.66699 29.5 -5s13.667 -7.66602 18 -12.999s7.5 -11.166 9.5 -17.499s3 -12.5 3 -18.5v-95z" />
    <glyph glyph-name="dieresis" unicode="&#xa8;" horiz-adv-x="532" 
d="M370 535c-18 0 -33.166 6 -45.499 18s-18.5 26.333 -18.5 43c0 21.333 6.66699 36.833 20 46.5s27.666 14.5 42.999 14.5c16 0 30.667 -4.83301 44 -14.5s20 -25.167 20 -46.5c0 -16 -6 -30.167 -18 -42.5s-27 -18.5 -45 -18.5zM163.001 535c-18 0 -33.166 6 -45.499 18
s-18.5 26.333 -18.5 43c0 21.333 6.66699 36.833 20 46.5s27.666 14.5 42.999 14.5c16 0 30.833 -4.83301 44.5 -14.5s20.5 -25.167 20.5 -46.5c0 -16 -6.16699 -30.167 -18.5 -42.5s-27.5 -18.5 -45.5 -18.5z" />
    <glyph glyph-name="copyright" unicode="&#xa9;" horiz-adv-x="774" 
d="M373 113c-18.667 0 -36.3311 3.00195 -52.998 9.00195s-31.167 15 -43.5 27s-22 27 -29 45s-10.5 39.333 -10.5 64v143c0 24.667 3.66699 46.167 11 64.5s17.166 33.666 29.499 45.999s26.666 21.666 42.999 27.999s33.833 9.5 52.5 9.5h101c14 0 24.667 -4 32 -12
s11 -18.667 11 -32c0 -14 -3.66699 -25 -11 -33s-18 -12 -32 -12h-98c-15.333 0 -27.333 -5 -36 -15s-13 -23.333 -13 -40v-149c0 -16.667 4.33301 -29.667 13 -39s20.667 -14 36 -14l98 -1c14 0 24.667 -4 32 -12s11 -18.667 11 -32c0 -14 -3.66699 -25 -11 -33
s-18 -12 -32 -12h-101zM395.003 -16.998c-54.667 0 -104 9.16699 -148 27.5s-81.5 43.333 -112.5 75s-55 68.5 -72 110.5s-25.5 86.667 -25.5 134c0 46.667 8.83301 91.334 26.5 134.001s42.667 80.167 75 112.5s71 58 116 77s94.5 28.5 148.5 28.5
c44.667 0 87.834 -8.83301 129.501 -26.5s78.167 -41.834 109.5 -72.501s56.5 -67 75.5 -109s28.5 -87.333 28.5 -136c0 -51.333 -9.83301 -98.666 -29.5 -141.999s-45.834 -80.833 -78.501 -112.5s-70.167 -56.334 -112.5 -74.001s-85.833 -26.5 -130.5 -26.5z
M395.003 75.002c34.667 0 67.4971 6.49902 98.4971 19.499s58.333 31.333 82 55s42.334 51.5 56.001 83.5s20.5 67 20.5 105c0 35.333 -6.66699 68.333 -20 99s-31.333 57.334 -54 80.001s-49.167 40.5 -79.5 53.5s-62.833 19.5 -97.5 19.5
c-41.333 0 -78.666 -7 -111.999 -21s-61.666 -33 -84.999 -57s-41.333 -51.667 -54 -83s-19 -64.333 -19 -99s6.16699 -67.5 18.5 -98.5s30 -58 53 -81s50.667 -41.333 83 -55s68.833 -20.5 109.5 -20.5z" />
    <glyph glyph-name="ordfeminine" unicode="&#xaa;" horiz-adv-x="365" 
d="M239 455l-0.000976562 15.999c0 6.66699 -3.16699 11.334 -9.5 14.001s-14.5 4 -24.5 4h-92c-10.667 0 -20.5 3 -29.5 9s-13.5 16.667 -13.5 32s4.5 27 13.5 35s18.833 12 29.5 12h96c44 0 76.833 -10.5 98.5 -31.5s32.5 -51.167 32.5 -90.5v-143
c0 -4 -0.833008 -8.83301 -2.5 -14.5s-4.5 -11 -8.5 -16s-9 -9.33301 -15 -13s-13.333 -5.5 -22 -5.5h-173c-27.333 0 -50.666 8.5 -69.999 25.5s-29 41.167 -29 72.5v6c0 24.667 8.83301 45.5 26.5 62.5s43.5 25.5 77.5 25.5h115zM125.999 384.999
c-3.33301 0 -7 -1.83301 -11 -5.5s-6 -8.5 -6 -14.5c0 -5.33301 1.83301 -10 5.5 -14s7.5 -6 11.5 -6h112v40h-112z" />
    <glyph glyph-name="guillemotleft" unicode="&#xab;" horiz-adv-x="515" 
d="M36 238c0 6.66699 1 13.333 3 20s5.66699 12.667 11 18l125 126c10 10 21.667 15 35 15c8.66699 0 16.5 -1.83301 23.5 -5.5s13 -8.33398 18 -14.001s8.83301 -11.667 11.5 -18s4 -12.5 4 -18.5c0 -13.333 -5 -25 -15 -35l-90 -89l90 -93
c4.66699 -4.66699 7.66699 -9.66699 9 -15s2.33301 -10.666 3 -15.999c0 -17.333 -6.5 -31.5 -19.5 -42.5s-26.833 -16.5 -41.5 -16.5c-10.667 0 -21 5 -31 15l-122 129c-6 6 -9.66699 12.667 -11 20s-2.33301 14 -3 20zM244 237.999c0 6.66699 1 13.333 3 20
s5.66699 12.667 11 18l125 126c10 10 21.667 15 35 15c8.66699 0 16.5 -1.83301 23.5 -5.5s13 -8.33398 18 -14.001s8.83301 -11.667 11.5 -18s4 -12.5 4 -18.5c0 -13.333 -5 -25 -15 -35l-90 -89l90 -93c4.66699 -4.66699 7.66699 -9.66699 9 -15
s2.33301 -10.666 3 -15.999c0 -17.333 -6.5 -31.5 -19.5 -42.5s-26.833 -16.5 -41.5 -16.5c-10.667 0 -21 5 -31 15l-122 129c-6 6 -9.66699 12.667 -11 20s-2.33301 14 -3 20z" />
    <glyph glyph-name="logicalnot" unicode="&#xac;" horiz-adv-x="520" 
d="M487 161c0 -14.667 -4.16699 -27 -12.5 -37s-22.5 -15 -42.5 -15c-18.667 0 -32 5.16699 -40 15.5s-12 22.5 -12 36.5v108h-292c-16 0 -29.333 4.33301 -40 13s-16 21.667 -16 39c0 18 5.5 31.333 16.5 40s24.167 13 39.5 13h344c15.333 0 28.5 -4.33301 39.5 -13
s16.5 -22 16.5 -40z" />
    <glyph glyph-name="sfthyphen" unicode="&#xad;" horiz-adv-x="383" 
d="M298 298c40 0 60 -19 60 -57c0 -37.333 -20 -56 -60 -56h-213c-40 0 -60 18.667 -60 56c0 38 20 57 60 57h213z" />
    <glyph glyph-name="registered" unicode="&#xae;" horiz-adv-x="608" 
d="M256 526v-79h76c9.33301 0 16.5 4 21.5 12s7.5 17.667 7.5 29c0 14 -3.83301 23.833 -11.5 29.5s-14.5 8.5 -20.5 8.5h-73zM425 488c0 -19.333 -4.16797 -38.166 -12.501 -56.499s-22.166 -32.166 -41.499 -41.499l42 -76c4 -6 6 -12 6 -18
c0 -8.66699 -3.16699 -15.834 -9.5 -21.501s-13.833 -8.5 -22.5 -8.5c-13.333 0 -23.333 5.66699 -30 17l-56 101h-45v-89c0 -20 -11 -30 -33 -30s-33 10 -33 30v262c0 22 11 33 33 33h99c31.333 0 56.333 -9.33301 75 -28s28 -43.334 28 -74.001zM300.999 638
c-26 0 -50.999 -5.00195 -74.999 -15.002s-45.5 -24.167 -64.5 -42.5s-34.167 -40.5 -45.5 -66.5s-17 -54.667 -17 -86c0 -26 4.83301 -51.333 14.5 -76s23.667 -46.667 42 -66s40.666 -34.833 66.999 -46.5s56.5 -17.5 90.5 -17.5c24 0 47.667 5 71 15s44.333 24.333 63 43
s33.667 41.334 45 68.001s17 56.334 17 89.001c0 24 -4.83301 47.833 -14.5 71.5s-23.5 45.167 -41.5 64.5s-39.833 35 -65.5 47s-54.5 18 -86.5 18zM301 698.998c40.667 0 77.334 -7.83398 110.001 -23.501s60.667 -36 84 -61s41.333 -52.833 54 -83.5s19 -61 19 -91
c0 -42.667 -7.33301 -81.167 -22 -115.5s-33.834 -63.666 -57.501 -87.999s-50.667 -43 -81 -56s-60.833 -19.5 -91.5 -19.5c-44 0 -83 7.66699 -117 23s-62.833 35.5 -86.5 60.5s-41.667 53.5 -54 85.5s-18.5 64.667 -18.5 98c0 40.667 7.33301 77.667 22 111
s34 61.833 58 85.5s51.667 42 83 55s64 19.5 98 19.5z" />
    <glyph glyph-name="macron" unicode="&#xaf;" horiz-adv-x="529" 
d="M172 515c-18.667 0 -33.5 3.66699 -44.5 11s-16.5 19.666 -16.5 36.999s5.5 29.833 16.5 37.5s25.833 11.5 44.5 11.5h204c18.667 0 33.5 -3.66699 44.5 -11s16.5 -19.666 16.5 -36.999s-5.5 -29.833 -16.5 -37.5s-25.833 -11.5 -44.5 -11.5h-204z" />
    <glyph glyph-name="degree" unicode="&#xb0;" horiz-adv-x="335" 
d="M108 568c0 -16.667 5.66699 -30.5 17 -41.5s25.666 -16.5 42.999 -16.5c16 0 29.667 5.5 41 16.5s17 24.833 17 41.5c0 17.333 -5.66699 31.666 -17 42.999s-25 17 -41 17c-17.333 0 -31.666 -5.66699 -42.999 -17s-17 -25.666 -17 -42.999zM30 568
c0 19.333 3.5 37.333 10.5 54s16.667 31.334 29 44.001s27 22.5 44 29.5s35.167 10.5 54.5 10.5c18.667 0 36.334 -3.5 53.001 -10.5s31.334 -16.833 44.001 -29.5s22.5 -27.334 29.5 -44.001s10.5 -34.667 10.5 -54s-3.5 -37.166 -10.5 -53.499
s-16.833 -30.833 -29.5 -43.5s-27.334 -22.5 -44.001 -29.5s-34.334 -10.5 -53.001 -10.5c-19.333 0 -37.5 3.5 -54.5 10.5s-31.667 16.833 -44 29.5s-22 27.167 -29 43.5s-10.5 34.166 -10.5 53.499z" />
    <glyph glyph-name="plusminus" unicode="&#xb1;" horiz-adv-x="520" 
d="M316 289l0.00195312 -108c0 -14.667 -4.5 -27 -13.5 -37s-23.5 -15 -43.5 -15c-18.667 0 -32.334 5.16699 -41.001 15.5s-13 22.5 -13 36.5v108h-117c-16 0 -29.333 4.33301 -40 13s-16 21.667 -16 39c0 18 5.5 31.333 16.5 40s24.167 13 39.5 13h117v110
c0 14 4.16699 26 12.5 36s22.166 15 41.499 15c20 0 34.5 -4.5 43.5 -13.5s13.5 -21.5 13.5 -37.5v-110h116c15.333 0 28.5 -4.33301 39.5 -13s16.5 -22 16.5 -40c0 -17.333 -5 -30.333 -15 -39s-23.667 -13 -41 -13h-116zM432.002 105c15.333 0 28.5 -4.33301 39.5 -13
s16.5 -22 16.5 -40c0 -17.333 -5 -30.333 -15 -39s-23.667 -13 -41 -13h-344c-16 -0 -29.333 4.33301 -40 13s-16 21.667 -16 39c0 18 5.5 31.333 16.5 40s24.167 13 39.5 13h344z" />
    <glyph glyph-name="twosuperior" unicode="&#xb2;" horiz-adv-x="326" 
d="M83 667c-14.667 0 -26.333 3.66895 -35 11.002s-13 18.666 -13 33.999s4.33301 26.833 13 34.5s20.334 11.5 35.001 11.5h106c40 0 70.5 -10 91.5 -30s31.5 -46 31.5 -78c0 -17.333 -2.66699 -32.333 -8 -45s-12.333 -23.834 -21 -33.501s-18.667 -18.167 -30 -25.5
s-23.333 -14 -36 -20l-69 -33c-22.667 -11.333 -34 -25 -34 -41v-9h148c31.333 0 47 -15 47 -45s-15.667 -45 -47 -45h-195c-17.333 0 -30 4.16699 -38 12.5s-12 18.833 -12 31.5v52c0 30 6.5 54.5 19.5 73.5s35.167 35.5 66.5 49.5l44.5 20
c15 6.66699 27.167 12.667 36.5 18s16.666 11 21.999 17s8 12.667 8 20c0 6.66699 -2.66699 11.667 -8 15s-11 5 -17 5h-106z" />
    <glyph glyph-name="threesuperior" unicode="&#xb3;" horiz-adv-x="314" 
d="M178 758c12 0 25.333 -1.49609 40 -4.49609s28.334 -8.66699 41.001 -17s23.167 -19.833 31.5 -34.5s12.5 -33.334 12.5 -56.001c0 -13.333 -3.83301 -27 -11.5 -41s-18.167 -24.667 -31.5 -32c13.333 -7.33301 24.333 -18.833 33 -34.5s13 -31.834 13 -48.501v-6
c0 -22.667 -3.5 -42.334 -10.5 -59.001s-16.5 -30.334 -28.5 -41.001s-25.833 -18.5 -41.5 -23.5s-32.5 -7.5 -50.5 -7.5h-109c-8.66699 0 -17.834 3.66699 -27.501 11s-14.5 18.666 -14.5 33.999c0 18 4.66699 29.833 14 35.5s18.666 8.5 27.999 8.5h103
c12.667 0 22.667 3.83301 30 11.5s11 17.5 11 29.5v8c0 11.333 -4.33301 20.5 -13 27.5s-19.667 10.5 -33 10.5h-58c-10 0 -19.667 3.33301 -29 10s-14 17.667 -14 33c0 17.333 4.83301 28.833 14.5 34.5s18.834 8.5 27.501 8.5h64c9.33301 0 17.833 2.33301 25.5 7
s11.5 12 11.5 22c0 8.66699 -3.83301 14.834 -11.5 18.501s-15.834 5.5 -24.501 5.5h-95c-10 0 -19.5 3 -28.5 9s-13.5 17.667 -13.5 35c0 16 4.83301 27.667 14.5 35s18.834 11 27.501 11h103z" />
    <glyph glyph-name="acute" unicode="&#xb4;" horiz-adv-x="523" 
d="M269 541c-10 -11.333 -22.667 -17.001 -38 -17.001c-14 0 -24.167 4.33301 -30.5 13s-9.5 17 -9.5 25c0 10.667 2.66699 20.334 8 29.001l63 112c5.33301 10 12.833 18.833 22.5 26.5s21.167 11.5 34.5 11.5c16.667 0 30.667 -5.83301 42 -17.5s17 -25.167 17 -40.5
c0 -7.33301 -1.33301 -15 -4 -23s-7 -15 -13 -21z" />
    <glyph glyph-name="mu" unicode="&#xb5;" horiz-adv-x="528" 
d="M105 471c20 0 34.9971 -4.66797 44.9971 -14.001s15 -20 15 -32v-242c0 -25.333 7.83301 -42.833 23.5 -52.5s34.834 -14.5 57.501 -14.5h116v309c0 10.667 4.83301 21 14.5 31s24.834 15 45.501 15c19.333 0 34.333 -4.83301 45 -14.5s16 -20.5 16 -32.5v-362
c0 -6 -1 -12.5 -3 -19.5s-5.5 -13.667 -10.5 -20s-11.5 -11.666 -19.5 -15.999s-18.333 -6.5 -31 -6.5h-181c-26.667 0 -51 3 -73 9v-176c0 -11.333 -4.83301 -21.5 -14.5 -30.5s-24.5 -13.5 -44.5 -13.5c-19.333 0 -34.333 4.5 -45 13.5s-16 19.167 -16 30.5v592
c0 10.667 4.83301 21 14.5 31s24.834 15 45.501 15z" />
    <glyph glyph-name="mu" unicode="&#x3bc;" horiz-adv-x="528" 
d="M105 471c20 0 34.9971 -4.66797 44.9971 -14.001s15 -20 15 -32v-242c0 -25.333 7.83301 -42.833 23.5 -52.5s34.834 -14.5 57.501 -14.5h116v309c0 10.667 4.83301 21 14.5 31s24.834 15 45.501 15c19.333 0 34.333 -4.83301 45 -14.5s16 -20.5 16 -32.5v-362
c0 -6 -1 -12.5 -3 -19.5s-5.5 -13.667 -10.5 -20s-11.5 -11.666 -19.5 -15.999s-18.333 -6.5 -31 -6.5h-181c-26.667 0 -51 3 -73 9v-176c0 -11.333 -4.83301 -21.5 -14.5 -30.5s-24.5 -13.5 -44.5 -13.5c-19.333 0 -34.333 4.5 -45 13.5s-16 19.167 -16 30.5v592
c0 10.667 4.83301 21 14.5 31s24.834 15 45.501 15z" />
    <glyph glyph-name="paragraph" unicode="&#xb6;" horiz-adv-x="491" 
d="M294 557l-0.000976562 -506.001c0 -23.333 -5.66699 -38.5 -17 -45.5s-25.333 -10.5 -42 -10.5c-7.33301 0 -14.5 0.5 -21.5 1.5s-13.333 3.5 -19 7.5s-10.334 9.66699 -14.001 17s-5.5 17.333 -5.5 30v291h-2c-17.333 0 -34.833 3.66699 -52.5 11s-33.5 18 -47.5 32
s-25.5 31 -34.5 51s-13.5 43 -13.5 69c0 24.667 4.33301 47.167 13 67.5s20 37.833 34 52.5s30 25.834 48 33.501s36.667 11.5 56 11.5h219c22.667 0 38.5 -4.33301 47.5 -13s13.5 -24.667 13.5 -48v-558c0 -23.333 -5.66699 -38.5 -17 -45.5s-25.666 -10.5 -42.999 -10.5
c-7.33301 0 -14.666 0.5 -21.999 1.5s-13.833 3.5 -19.5 7.5s-10.167 9.66699 -13.5 17s-5 17.333 -5 30v506h-42z" />
    <glyph glyph-name="periodcentered" unicode="&#xb7;" horiz-adv-x="213" 
d="M106 179c-20 0 -36.666 6.66699 -49.999 20s-20 29 -20 47c0 22.667 7.16699 39.5 21.5 50.5s30.166 16.5 47.499 16.5s33.333 -5.5 48 -16.5s22 -27.833 22 -50.5c0 -17.333 -6.5 -32.833 -19.5 -46.5s-29.5 -20.5 -49.5 -20.5z" />
    <glyph glyph-name="cedilla" unicode="&#xb8;" horiz-adv-x="474" 
d="M386 -133c0 -10 -2.16699 -20.335 -6.5 -31.002s-11 -20.167 -20 -28.5s-20.5 -15.333 -34.5 -21s-30.333 -8.5 -49 -8.5c-10 0 -20.667 0.833008 -32 2.5s-21.5 4.33398 -30.5 8.00098s-16.5 8.33398 -22.5 14.001s-9 12.167 -9 19.5c0 8.66699 3.16699 16.667 9.5 24
s13.166 11 20.499 11c6.66699 0 16 -3 28 -9s23.333 -9 34 -9c12.667 0 21.667 2.83301 27 8.5s8 12.167 8 19.5c0 4 -1.83301 9 -5.5 15s-12.5 9 -26.5 9h-38c-11.333 0 -20.166 3 -26.499 9s-9.5 13.333 -9.5 22c0 4 1 8.66699 3 14l31 79h59l-28 -64h29
c25.333 0 46.5 -7.5 63.5 -22.5s25.5 -35.5 25.5 -61.5z" />
    <glyph glyph-name="onesuperior" unicode="&#xb9;" horiz-adv-x="293" 
d="M181 350c-19.333 0 -32.3301 4.33301 -38.9971 13s-10 18.334 -10 29.001v236l-18 -13c-10 -7.33301 -20 -11 -30 -11c-9.33301 0 -19 4.83301 -29 14.5s-15 21.167 -15 34.5c0 15.333 6 27 18 35l83 59c7.33301 5.33301 14.666 8.66602 21.999 9.99902
s14.666 2 21.999 2c17.333 0 29.166 -3.33301 35.499 -10s9.5 -18.667 9.5 -36v-322c0 -9.33301 -3.33301 -18.5 -10 -27.5s-19.667 -13.5 -39 -13.5z" />
    <glyph glyph-name="ordmasculine" unicode="&#xba;" horiz-adv-x="357" 
d="M162 486c-14.667 0 -25.002 -4.33301 -31.002 -13s-9 -19 -9 -31v-49c0 -10.667 2.83301 -20 8.5 -28s15.834 -12 30.501 -12h35c14.667 0 24.834 4 30.501 12s8.5 17.333 8.5 28v49c0 12 -2.83301 22.333 -8.5 31s-16.167 13 -31.5 13h-33zM155.998 263
c-18.667 0 -36.168 2.83301 -52.501 8.5s-30.5 14 -42.5 25s-21.5 24.5 -28.5 40.5s-10.5 34.667 -10.5 56v53c0 42 12.667 74.333 38 97s58 34 98 34h41c40.667 0 73.667 -11.333 99 -34s38 -55 38 -97v-53c0 -21.333 -3.5 -40 -10.5 -56s-16.667 -29.5 -29 -40.5
s-26.666 -19.333 -42.999 -25s-33.833 -8.5 -52.5 -8.5h-45z" />
    <glyph glyph-name="guillemotright" unicode="&#xbb;" horiz-adv-x="515" 
d="M476 238c0 -6 -0.833008 -12.666 -2.5 -19.999s-5.5 -14 -11.5 -20l-122 -129c-10 -10 -20.333 -15 -31 -15c-14 0 -27.667 5.5 -41 16.5s-20 25.167 -20 42.5c0.666992 5.33301 1.66699 10.666 3 15.999s4.33301 10.333 9 15l90 93l-90 89c-10 10 -15 21.667 -15 35
c0 6 1.33301 12.167 4 18.5s6.5 12.333 11.5 18s11 10.334 18 14.001s14.833 5.5 23.5 5.5c13.333 0 25 -5 35 -15l125 -126c6 -5.33301 9.83301 -11.333 11.5 -18s2.5 -13.334 2.5 -20.001zM268 238.001c0 -6 -0.833008 -12.666 -2.5 -19.999s-5.5 -14 -11.5 -20l-122 -129
c-10 -10 -20.333 -15 -31 -15c-14 0 -27.667 5.5 -41 16.5s-20 25.167 -20 42.5c0.666992 5.33301 1.66699 10.666 3 15.999s4.33301 10.333 9 15l90 93l-90 89c-10 10 -15 21.667 -15 35c0 6 1.33301 12.167 4 18.5s6.5 12.333 11.5 18s11 10.334 18 14.001
s14.833 5.5 23.5 5.5c13.333 0 25 -5 35 -15l125 -126c6 -5.33301 9.83301 -11.333 11.5 -18s2.5 -13.334 2.5 -20.001z" />
    <glyph glyph-name="onequarter" unicode="&#xbc;" horiz-adv-x="820" 
d="M201 260c-19.333 0 -32.3301 4.33301 -38.9971 13s-10 18.334 -10 29.001v236l-18 -13c-10 -7.33301 -20 -11 -30 -11c-9.33301 0 -19 4.83301 -29 14.5s-15 21.167 -15 34.5c0 15.333 6 27 18 35l83 59c7.33301 5.33301 14.666 8.66602 21.999 9.99902
s14.666 2 21.999 2c17.333 0 29.166 -3.33301 35.499 -10s9.5 -18.667 9.5 -36v-322c0 -9.33301 -3.33301 -18.5 -10 -27.5s-19.667 -13.5 -39 -13.5zM444.003 661c4 10.667 9.83301 18.167 17.5 22.5s16.167 6.5 25.5 6.5c4 0 8.83301 -0.666992 14.5 -2
s11.167 -3.5 16.5 -6.5s9.83301 -7.5 13.5 -13.5s5.5 -13.333 5.5 -22c0 -6.66699 -1.33301 -13 -4 -19l-235 -609c-9.33301 -23.333 -24.333 -35 -45 -35c-17.333 0 -30.333 4.33301 -39 13s-13 18.667 -13 30c0 7.33301 1.66699 15 5 23zM471.003 69
c-20 0 -33.832 3 -41.499 9s-11.5 15.667 -11.5 29c0 8 1.16699 15.333 3.5 22s5.16602 13.667 8.49902 21l106 230c10 20 24 30 42 30c13.333 0 24.333 -4 33 -12s13 -17.333 13 -28c0 -3.33301 -0.333008 -6.83301 -1 -10.5s-2 -7.5 -4 -11.5l-91 -193h57v52
c0 11.333 3.33301 21.333 10 30s18.667 13 36 13c16.667 0 28.5 -4.5 35.5 -13.5s10.5 -18.167 10.5 -27.5v-54h25c9.33301 0 18.833 -3.33301 28.5 -10s14.5 -17.667 14.5 -33c0 -13.333 -3.83301 -23.833 -11.5 -31.5s-18.167 -11.5 -31.5 -11.5h-25v-33
c0 -10 -3.5 -19.167 -10.5 -27.5s-18.833 -12.5 -35.5 -12.5c-17.333 0 -29.333 4.16699 -36 12.5s-10 17.5 -10 27.5v33h-114z" />
    <glyph glyph-name="onehalf" unicode="&#xbd;" horiz-adv-x="820" 
d="M196 260c-19.333 0 -32.3301 4.33301 -38.9971 13s-10 18.334 -10 29.001v236l-18 -13c-10 -7.33301 -20 -11 -30 -11c-9.33301 0 -19 4.83301 -29 14.5s-15 21.167 -15 34.5c0 15.333 6 27 18 35l83 59c7.33301 5.33301 14.666 8.66602 21.999 9.99902
s14.666 2 21.999 2c17.333 0 29.166 -3.33301 35.499 -10s9.5 -18.667 9.5 -36v-322c0 -9.33301 -3.33301 -18.5 -10 -27.5s-19.667 -13.5 -39 -13.5zM434.003 661c4 10.667 9.83301 18.167 17.5 22.5s16.167 6.5 25.5 6.5c4 0 8.83301 -0.666992 14.5 -2
s11.167 -3.5 16.5 -6.5s9.83301 -7.5 13.5 -13.5s5.5 -13.333 5.5 -22c0 -6.66699 -1.33301 -13 -4 -19l-235 -609c-9.33301 -23.333 -24.333 -35 -45 -35c-17.333 0 -30.333 4.33301 -39 13s-13 18.667 -13 30c0 7.33301 1.66699 15 5 23zM501.003 314
c-14.667 0 -26.334 3.66992 -35.001 11.0029s-13 18.666 -13 33.999s4.33301 26.833 13 34.5s20.334 11.5 35.001 11.5h106c40 0 70.5 -10 91.5 -30s31.5 -46 31.5 -78c0 -17.333 -2.66699 -32.333 -8 -45s-12.333 -23.834 -21 -33.501s-18.667 -18.167 -30 -25.5
s-23.333 -14 -36 -20l-69 -33c-22.667 -10 -34 -23.667 -34 -41v-9h148c31.333 0 47 -15 47 -45s-15.667 -45 -47 -45h-195c-17.333 0 -30 4.16699 -38 12.5s-12 18.833 -12 31.5v52c0 30 6.5 54.5 19.5 73.5s35.167 35.5 66.5 49.5l43.5 19c13.667 6 25.5 11.833 35.5 17.5
s17.833 11.667 23.5 18s8.5 13.166 8.5 20.499c0 6.66699 -2.66699 11.667 -8 15s-11 5 -17 5h-106z" />
    <glyph glyph-name="threequarters" unicode="&#xbe;" horiz-adv-x="820" 
d="M494 69c-20 0 -33.832 3 -41.499 9s-11.5 15.667 -11.5 29c0 8 1.16699 15.333 3.5 22s5.16602 13.667 8.49902 21l106 230c10 20 24 30 42 30c13.333 0 24.333 -4 33 -12s13 -17.333 13 -28c0 -3.33301 -0.333008 -6.83301 -1 -10.5s-2 -7.5 -4 -11.5l-91 -193h57v52
c0 11.333 3.33301 21.333 10 30s18.667 13 36 13c16.667 0 28.5 -4.5 35.5 -13.5s10.5 -18.167 10.5 -27.5v-54h25c9.33301 0 18.833 -3.33301 28.5 -10s14.5 -17.667 14.5 -33c0 -13.333 -3.83301 -23.833 -11.5 -31.5s-18.167 -11.5 -31.5 -11.5h-25v-33
c0 -10 -3.5 -19.167 -10.5 -27.5s-18.833 -12.5 -35.5 -12.5c-17.333 0 -29.333 4.16699 -36 12.5s-10 17.5 -10 27.5v33h-114zM206.001 668c12 0 25.333 -1.49609 40 -4.49609s28.334 -8.66699 41.001 -17s23.167 -19.833 31.5 -34.5s12.5 -33.334 12.5 -56.001
c0 -13.333 -3.83301 -27 -11.5 -41s-18.167 -24.667 -31.5 -32c13.333 -7.33301 24.333 -18.833 33 -34.5s13 -31.834 13 -48.501v-6c0 -22.667 -3.5 -42.334 -10.5 -59.001s-16.5 -30.334 -28.5 -41.001s-25.833 -18.5 -41.5 -23.5s-32.5 -7.5 -50.5 -7.5h-109
c-8.66699 0 -17.834 3.66699 -27.501 11s-14.5 18.666 -14.5 33.999c0 18 4.66699 29.833 14 35.5s18.666 8.5 27.999 8.5h103c12.667 0 22.667 3.83301 30 11.5s11 17.5 11 29.5v8c0 11.333 -4.33301 20.5 -13 27.5s-19.667 10.5 -33 10.5h-58
c-10 0 -19.667 3.33301 -29 10s-14 17.667 -14 33c0 17.333 4.83301 28.833 14.5 34.5s18.834 8.5 27.501 8.5h64c9.33301 0 17.833 2.33301 25.5 7s11.5 12 11.5 22c0 8.66699 -3.83301 14.834 -11.5 18.501s-15.834 5.5 -24.501 5.5h-95c-10 0 -19.5 3 -28.5 9
s-13.5 17.667 -13.5 35c0 16 4.83301 27.667 14.5 35s18.834 11 27.501 11h103zM492.001 661.004c4 10.667 9.83301 18.167 17.5 22.5s16.167 6.5 25.5 6.5c4 0 8.83301 -0.666992 14.5 -2s11.167 -3.5 16.5 -6.5s9.83301 -7.5 13.5 -13.5s5.5 -13.333 5.5 -22
c0 -6.66699 -1.33301 -13 -4 -19l-235 -609c-9.33301 -23.333 -24.333 -35 -45 -35c-17.333 0 -30.333 4.33301 -39 13s-13 18.667 -13 30c0 7.33301 1.66699 15 5 23z" />
    <glyph glyph-name="questiondown" unicode="&#xbf;" horiz-adv-x="470" 
d="M221 471c18.667 0 34.3359 -6.16699 47.0029 -18.5s19 -27.5 19 -45.5c0 -21.333 -6.83301 -37.333 -20.5 -48s-28.834 -16 -45.501 -16s-31.834 5.33301 -45.501 16s-20.5 26.667 -20.5 48c0 18 6.16699 33.167 18.5 45.5s28.166 18.5 47.499 18.5zM227.002 -197
c-126 0 -188.998 50.667 -188.998 152c0 15.333 4 32.666 12 51.999s17.667 35.666 29 48.999l46 52c12.667 16 21.334 29.833 26.001 41.5s7 23.5 7 35.5v53c0 12 5.16699 23.333 15.5 34s26.166 16 47.499 16c4.66699 0 10.167 -0.833008 16.5 -2.5s12.5 -4.5 18.5 -8.5
s11.167 -9.16699 15.5 -15.5s6.5 -14.166 6.5 -23.499v-80c0.666992 -14 -2.5 -27.5 -9.5 -40.5s-15.5 -26.167 -25.5 -39.5l-56 -71c-6 -8 -11 -15.333 -15 -22s-6 -15.334 -6 -26.001c0 -14 7.16699 -24.5 21.5 -31.5s32.166 -10.5 53.499 -10.5
c16.667 0 32.667 2.33301 48 7s33.666 10.667 54.999 18c10 3.33301 18.667 5 26 5c12 0 23.333 -5 34 -15s16 -25.667 16 -47c0 -15.333 -6.83301 -28.166 -20.5 -38.499s-30.5 -18.666 -50.5 -24.999s-41.167 -11 -63.5 -14s-41.833 -4.5 -58.5 -4.5z" />
    <glyph glyph-name="Agrave" unicode="&#xc0;" horiz-adv-x="567" 
d="M281 474l-72 -214h148l-35.5 106.5l-36.5 107.5h-4zM169 149l-39.999 -115.001c-8.66699 -26.667 -26.334 -40 -53.001 -40c-21.333 0 -37.666 5.66699 -48.999 17s-17 24.333 -17 39c0 3.33301 0.333008 7 1 11s1.66699 7.66699 3 11l193 547
c5.33301 14 12.166 25.667 20.499 35s21.833 14 40.5 14h30c18 0 31.333 -4.5 40 -13.5s15.667 -20.833 21 -35.5l194 -547c2.66699 -6 4 -13 4 -21c0 -15.333 -6.33301 -28.666 -19 -39.999s-29 -17 -49 -17c-24 0 -41.333 13.667 -52 41l-42 114h-226zM162.001 737.999
c-13.333 4.66699 -23.668 12.332 -31.001 22.999s-11 22.334 -11 35.001c0 10 2 18.667 6 26s8.83301 13.5 14.5 18.5s11.834 8.66699 18.501 11s12.667 3.5 18 3.5c8 0 15.5 -1.33301 22.5 -4s13.5 -6 19.5 -10l108 -70c6.66699 -4 12.667 -9.5 18 -16.5s8 -14.833 8 -23.5
c0 -13.333 -5.16699 -23.333 -15.5 -30s-21.166 -10 -32.499 -10c-6.66699 0 -12.334 1 -17.001 3z" />
    <glyph glyph-name="Aacute" unicode="&#xc1;" horiz-adv-x="567" 
d="M281 474l-72 -214h148l-35.5 106.5l-36.5 107.5h-4zM169 149l-39.999 -115.001c-8.66699 -26.667 -26.334 -40 -53.001 -40c-21.333 0 -37.666 5.66699 -48.999 17s-17 24.333 -17 39c0 3.33301 0.333008 7 1 11s1.66699 7.66699 3 11l193 547
c5.33301 14 12.166 25.667 20.499 35s21.833 14 40.5 14h30c18 0 31.333 -4.5 40 -13.5s15.667 -20.833 21 -35.5l194 -547c2.66699 -6 4 -13 4 -21c0 -15.333 -6.33301 -28.666 -19 -39.999s-29 -17 -49 -17c-24 0 -41.333 13.667 -52 41l-42 114h-226zM273.001 693.999
c-5.33301 -2 -11.002 -2.99805 -17.002 -2.99805c-10.667 0 -21.167 3.33301 -31.5 10s-15.5 16.667 -15.5 30c0 8.66699 2.5 16.5 7.5 23.5s10.833 12.5 17.5 16.5l108 70c6 4 12.5 7.33301 19.5 10s14.5 4 22.5 4c5.33301 0 11.333 -1.16699 18 -3.5s12.834 -6 18.501 -11
s10.5 -11.167 14.5 -18.5s6 -16 6 -26c0 -12.667 -3.66699 -24.334 -11 -35.001s-17.666 -18.334 -30.999 -23.001z" />
    <glyph glyph-name="Acircumflex" unicode="&#xc2;" horiz-adv-x="567" 
d="M281 474l-72 -214h148l-35.5 106.5l-36.5 107.5h-4zM169 149l-39.999 -115.001c-8.66699 -26.667 -26.334 -40 -53.001 -40c-21.333 0 -37.666 5.66699 -48.999 17s-17 24.333 -17 39c0 3.33301 0.333008 7 1 11s1.66699 7.66699 3 11l193 547
c5.33301 14 12.166 25.667 20.499 35s21.833 14 40.5 14h30c18 0 31.333 -4.5 40 -13.5s15.667 -20.833 21 -35.5l194 -547c2.66699 -6 4 -13 4 -21c0 -15.333 -6.33301 -28.666 -19 -39.999s-29 -17 -49 -17c-24 0 -41.333 13.667 -52 41l-42 114h-226zM284.001 881.999
c11.333 0 23.6689 -4.00098 37.002 -12.001l143 -91c12 -8 18 -18.667 18 -32c0 -6.66699 -1.5 -13.334 -4.5 -20.001s-6.83301 -12.5 -11.5 -17.5s-10 -9 -16 -12s-11.667 -4.5 -17 -4.5c-10 0 -21.667 3.33301 -35 10l-114 60l-120 -64
c-5.33301 -3.33301 -10.5 -5.5 -15.5 -6.5s-10.167 -1.5 -15.5 -1.5c-16.667 0 -29.334 5.83301 -38.001 17.5s-13 23.834 -13 36.501c0 14.667 6.33301 26 19 34l146 91c7.33301 4.66699 13.666 7.83398 18.999 9.50098s11.333 2.5 18 2.5z" />
    <glyph glyph-name="Atilde" unicode="&#xc3;" horiz-adv-x="567" 
d="M281 474l-72 -214h148l-35.5 106.5l-36.5 107.5h-4zM169 149l-39.999 -115.001c-8.66699 -26.667 -26.334 -40 -53.001 -40c-21.333 0 -37.666 5.66699 -48.999 17s-17 24.333 -17 39c0 3.33301 0.333008 7 1 11s1.66699 7.66699 3 11l193 547
c5.33301 14 12.166 25.667 20.499 35s21.833 14 40.5 14h30c18 0 31.333 -4.5 40 -13.5s15.667 -20.833 21 -35.5l194 -547c2.66699 -6 4 -13 4 -21c0 -15.333 -6.33301 -28.666 -19 -39.999s-29 -17 -49 -17c-24 0 -41.333 13.667 -52 41l-42 114h-226zM196.001 842.999
c12.667 0 25.832 -2.16895 39.499 -6.50195s27 -9 40 -14l35.5 -13.5c10.667 -4 19.667 -6 27 -6c8 0 14.333 2.16699 19 6.5s9.16699 9 13.5 14s9 9.66699 14 14s12.167 6.5 21.5 6.5s17.333 -1.83301 24 -5.5s12.334 -8.16699 17.001 -13.5s8 -10.666 10 -15.999
s3 -9.33301 3 -12c0 -7.33301 -1.33301 -13.333 -4 -18c-12.667 -26 -29.334 -43.833 -50.001 -53.5s-39.667 -14.5 -57 -14.5c-12 0 -24.333 2 -37 6s-25.167 8.5 -37.5 13.5s-24.166 9.5 -35.499 13.5s-22 6 -32 6c-6 0 -11.167 -2 -15.5 -6s-8.83301 -8.5 -13.5 -13.5
s-9.66699 -9.5 -15 -13.5s-12 -6 -20 -6c-8.66699 0 -16.334 1.66699 -23.001 5s-12.167 7.5 -16.5 12.5s-7.66602 10 -9.99902 15s-3.5 9.5 -3.5 13.5c0 12 3.66699 23.333 11 34s16.333 19.834 27 27.501s22.167 13.667 34.5 18s23.5 6.5 33.5 6.5z" />
    <glyph glyph-name="Adieresis" unicode="&#xc4;" horiz-adv-x="567" 
d="M281 474l-72 -214h148l-35.5 106.5l-36.5 107.5h-4zM169 149l-39.999 -115.001c-8.66699 -26.667 -26.334 -40 -53.001 -40c-21.333 0 -37.666 5.66699 -48.999 17s-17 24.333 -17 39c0 3.33301 0.333008 7 1 11s1.66699 7.66699 3 11l193 547
c5.33301 14 12.166 25.667 20.499 35s21.833 14 40.5 14h30c18 0 31.333 -4.5 40 -13.5s15.667 -20.833 21 -35.5l194 -547c2.66699 -6 4 -13 4 -21c0 -15.333 -6.33301 -28.666 -19 -39.999s-29 -17 -49 -17c-24 0 -41.333 13.667 -52 41l-42 114h-226zM387.001 707.999
c-18 0 -33.166 6 -45.499 18s-18.5 26.333 -18.5 43c0 21.333 6.66699 36.833 20 46.5s27.666 14.5 42.999 14.5c16 0 30.667 -4.83301 44 -14.5s20 -25.167 20 -46.5c0 -16 -6 -30.167 -18 -42.5s-27 -18.5 -45 -18.5zM180.002 707.999c-18 0 -33.166 6 -45.499 18
s-18.5 26.333 -18.5 43c0 21.333 6.66699 36.833 20 46.5s27.666 14.5 42.999 14.5c16 0 30.833 -4.83301 44.5 -14.5s20.5 -25.167 20.5 -46.5c0 -16 -6.16699 -30.167 -18.5 -42.5s-27.5 -18.5 -45.5 -18.5z" />
    <glyph glyph-name="Aring" unicode="&#xc5;" horiz-adv-x="567" 
d="M164 760c0 16.667 3 32.166 9 46.499s14.5 26.833 25.5 37.5s23.667 19.167 38 25.5s30.166 9.5 47.499 9.5c16 0 31.167 -3.16699 45.5 -9.5s26.833 -14.833 37.5 -25.5s19.167 -23.167 25.5 -37.5s9.5 -29.833 9.5 -46.5c0 -23.333 -5.83301 -44.333 -17.5 -63
s-27.167 -33 -46.5 -43c5.33301 -4 9.5 -9 12.5 -15s5.83301 -12.667 8.5 -20l194 -547c2.66699 -6 4 -13 4 -21c0 -15.333 -6.33301 -28.666 -19 -39.999s-29 -17 -49 -17c-24 0 -41.333 13.667 -52 41l-42 114h-226l-40 -115c-8.66699 -26.667 -26.334 -40 -53.001 -40
c-21.333 0 -37.666 5.66699 -48.999 17s-17 24.333 -17 39c0 3.33301 0.333008 7 1 11s1.66699 7.66699 3 11l193 547c5.33301 15.333 12 27 20 35c-19.333 10 -34.666 24.333 -45.999 43s-17 39.667 -17 63zM281 473.999l-72 -214h148l-35.5 106.5l-36.5 107.5h-4z
M240 759.999c0 -12 4.16699 -22.167 12.5 -30.5s18.833 -12.5 31.5 -12.5c11.333 0 21.166 4.16699 29.499 12.5s12.5 18.5 12.5 30.5s-4.16699 22.333 -12.5 31s-18.166 13 -29.499 13c-12.667 0 -23.167 -4.33301 -31.5 -13s-12.5 -19 -12.5 -31z" />
    <glyph glyph-name="AE" unicode="&#xc6;" horiz-adv-x="846" 
d="M451 0c-40.667 0 -61.001 19.334 -61.001 58.001v110h-199l-64 -134c-12.667 -26.667 -32 -40 -58 -40c-19.333 0 -33.833 4.66699 -43.5 14s-14.5 20.666 -14.5 33.999c0 10.667 2.33301 20.667 7 30l266 547c7.33301 14.667 15.833 26.5 25.5 35.5
s23.834 13.5 42.501 13.5h430c18 0 31.5 -5.16699 40.5 -15.5s13.5 -24.5 13.5 -42.5s-4.5 -32.167 -13.5 -42.5s-22.5 -15.5 -40.5 -15.5h-272v-142h230c18 0 31.167 -5.16699 39.5 -15.5s12.5 -24.5 12.5 -42.5s-4.16699 -32 -12.5 -42s-21.5 -15 -39.5 -15h-230v-179h272
c18 0 31.5 -5.16699 40.5 -15.5s13.5 -24.5 13.5 -42.5s-4.5 -32.167 -13.5 -42.5s-22.5 -15.5 -40.5 -15.5h-331zM337.999 474.001l-92 -195h144v272h-17z" />
    <glyph glyph-name="Ccedilla" unicode="&#xc7;" horiz-adv-x="531" 
d="M423 -133c0 -10 -2.16797 -20.3369 -6.50098 -31.0039s-11 -20.167 -20 -28.5s-20.5 -15.333 -34.5 -21s-30.333 -8.5 -49 -8.5c-10 0 -20.667 0.833008 -32 2.5s-21.5 4.33398 -30.5 8.00098s-16.5 8.33398 -22.5 14.001s-9 12.167 -9 19.5
c0 8.66699 3.16699 16.667 9.5 24s13.166 11 20.499 11c6.66699 0 16 -3 28 -9s23.333 -9 34 -9c12.667 0 21.667 2.83301 27 8.5s8 12.167 8 19.5c0 4 -1.83301 9 -5.5 15s-12.5 9 -26.5 9h-38c-11.333 0 -20.166 3 -26.499 9s-9.5 13.333 -9.5 22c0 4 1 8.66699 3 14
l25 64h-26c-26 0 -50.667 4.16699 -74 12.5s-43.833 20.833 -61.5 37.5s-31.5 37.834 -41.5 63.501s-15 56.167 -15 91.5v254c0 34.667 5.16699 65 15.5 91s24.166 47.833 41.499 65.5s37.833 30.834 61.5 39.501s48.5 13 74.5 13h209
c18.667 0 32.334 -5.16699 41.001 -15.5s13 -24.5 13 -42.5s-4.33301 -32.167 -13 -42.5s-22.334 -15.5 -41.001 -15.5h-205c-25.333 0 -44.666 -8 -57.999 -24s-20 -37.333 -20 -64v-261c0 -27.333 6.83301 -48.5 20.5 -63.5s32.834 -22.5 57.501 -22.5l205 -1
c18 0 31.5 -5.16699 40.5 -15.5s13.5 -24.5 13.5 -42.5s-4.5 -32.167 -13.5 -42.5s-22.5 -15.5 -40.5 -15.5h-126l-21 -49h29c25.333 0 46.5 -7.5 63.5 -22.5s25.5 -35.5 25.5 -61.5z" />
    <glyph glyph-name="Egrave" unicode="&#xc8;" horiz-adv-x="534" 
d="M121 0c-40.667 0 -61 19.333 -61 58v552c0 38.667 20.333 58 61 58h331c18 0 31.5 -5.16699 40.5 -15.5s13.5 -24.5 13.5 -42.5s-4.5 -32.167 -13.5 -42.5s-22.5 -15.5 -40.5 -15.5h-272v-142h230c18 0 31.167 -5.16699 39.5 -15.5s12.5 -24.5 12.5 -42.5
s-4.16699 -32 -12.5 -42s-21.5 -15 -39.5 -15h-230v-179h272c18 0 31.5 -5.16699 40.5 -15.5s13.5 -24.5 13.5 -42.5s-4.5 -32.167 -13.5 -42.5s-22.5 -15.5 -40.5 -15.5h-331zM176 738c-13.333 4.66699 -23.668 12.332 -31.001 22.999s-11 22.334 -11 35.001
c0 10 2 18.667 6 26s8.83301 13.5 14.5 18.5s11.834 8.66699 18.501 11s12.667 3.5 18 3.5c8 0 15.5 -1.33301 22.5 -4s13.5 -6 19.5 -10l108 -70c6.66699 -4 12.667 -9.5 18 -16.5s8 -14.833 8 -23.5c0 -13.333 -5.16699 -23.333 -15.5 -30s-21.166 -10 -32.499 -10
c-6.66699 0 -12.334 1 -17.001 3z" />
    <glyph glyph-name="Eacute" unicode="&#xc9;" horiz-adv-x="534" 
d="M121 0c-40.667 0 -61 19.333 -61 58v552c0 38.667 20.333 58 61 58h331c18 0 31.5 -5.16699 40.5 -15.5s13.5 -24.5 13.5 -42.5s-4.5 -32.167 -13.5 -42.5s-22.5 -15.5 -40.5 -15.5h-272v-142h230c18 0 31.167 -5.16699 39.5 -15.5s12.5 -24.5 12.5 -42.5
s-4.16699 -32 -12.5 -42s-21.5 -15 -39.5 -15h-230v-179h272c18 0 31.5 -5.16699 40.5 -15.5s13.5 -24.5 13.5 -42.5s-4.5 -32.167 -13.5 -42.5s-22.5 -15.5 -40.5 -15.5h-331zM273 694c-5.33301 -2 -11.002 -2.99805 -17.002 -2.99805c-10.667 0 -21.167 3.33301 -31.5 10
s-15.5 16.667 -15.5 30c0 8.66699 2.5 16.5 7.5 23.5s10.833 12.5 17.5 16.5l108 70c6 4 12.5 7.33301 19.5 10s14.5 4 22.5 4c5.33301 0 11.333 -1.16699 18 -3.5s12.834 -6 18.501 -11s10.5 -11.167 14.5 -18.5s6 -16 6 -26c0 -12.667 -3.66699 -24.334 -11 -35.001
s-17.666 -18.334 -30.999 -23.001z" />
    <glyph glyph-name="Ecircumflex" unicode="&#xca;" horiz-adv-x="534" 
d="M121 0c-40.667 0 -61 19.333 -61 58v552c0 38.667 20.333 58 61 58h331c18 0 31.5 -5.16699 40.5 -15.5s13.5 -24.5 13.5 -42.5s-4.5 -32.167 -13.5 -42.5s-22.5 -15.5 -40.5 -15.5h-272v-142h230c18 0 31.167 -5.16699 39.5 -15.5s12.5 -24.5 12.5 -42.5
s-4.16699 -32 -12.5 -42s-21.5 -15 -39.5 -15h-230v-179h272c18 0 31.5 -5.16699 40.5 -15.5s13.5 -24.5 13.5 -42.5s-4.5 -32.167 -13.5 -42.5s-22.5 -15.5 -40.5 -15.5h-331zM277 882c11.333 0 23.6689 -4.00098 37.002 -12.001l143 -91c12 -8 18 -18.667 18 -32
c0 -6.66699 -1.5 -13.334 -4.5 -20.001s-6.83301 -12.5 -11.5 -17.5s-10 -9 -16 -12s-11.667 -4.5 -17 -4.5c-10 0 -21.667 3.33301 -35 10l-114 60l-120 -64c-5.33301 -3.33301 -10.5 -5.5 -15.5 -6.5s-10.167 -1.5 -15.5 -1.5c-16.667 0 -29.334 5.83301 -38.001 17.5
s-13 23.834 -13 36.501c0 14.667 6.33301 26 19 34l146 91c7.33301 4.66699 13.666 7.83398 18.999 9.50098s11.333 2.5 18 2.5z" />
    <glyph glyph-name="Edieresis" unicode="&#xcb;" horiz-adv-x="534" 
d="M121 0c-40.667 0 -61 19.333 -61 58v552c0 38.667 20.333 58 61 58h331c18 0 31.5 -5.16699 40.5 -15.5s13.5 -24.5 13.5 -42.5s-4.5 -32.167 -13.5 -42.5s-22.5 -15.5 -40.5 -15.5h-272v-142h230c18 0 31.167 -5.16699 39.5 -15.5s12.5 -24.5 12.5 -42.5
s-4.16699 -32 -12.5 -42s-21.5 -15 -39.5 -15h-230v-179h272c18 0 31.5 -5.16699 40.5 -15.5s13.5 -24.5 13.5 -42.5s-4.5 -32.167 -13.5 -42.5s-22.5 -15.5 -40.5 -15.5h-331zM378 708c-18 0 -33.166 6 -45.499 18s-18.5 26.333 -18.5 43c0 21.333 6.66699 36.833 20 46.5
s27.666 14.5 42.999 14.5c16 0 30.667 -4.83301 44 -14.5s20 -25.167 20 -46.5c0 -16 -6 -30.167 -18 -42.5s-27 -18.5 -45 -18.5zM171.001 708c-18 0 -33.166 6 -45.499 18s-18.5 26.333 -18.5 43c0 21.333 6.66699 36.833 20 46.5s27.666 14.5 42.999 14.5
c16 0 30.833 -4.83301 44.5 -14.5s20.5 -25.167 20.5 -46.5c0 -16 -6.16699 -30.167 -18.5 -42.5s-27.5 -18.5 -45.5 -18.5z" />
    <glyph glyph-name="Igrave" unicode="&#xcc;" horiz-adv-x="269" 
d="M135 -5c-20.667 0 -35.833 4.33301 -45.5 13s-14.5 22.667 -14.5 42v568c0 36.667 20 55 60 55c39.333 0 59 -18.333 59 -55v-568c0 -19.333 -4.83301 -33.333 -14.5 -42s-24.5 -13 -44.5 -13zM14.001 738c-13.333 4.66699 -23.668 12.332 -31.001 22.999
s-11 22.334 -11 35.001c0 10 2 18.667 6 26s8.83301 13.5 14.5 18.5s11.834 8.66699 18.501 11s12.667 3.5 18 3.5c8 0 15.5 -1.33301 22.5 -4s13.5 -6 19.5 -10l108 -70c6.66699 -4 12.667 -9.5 18 -16.5s8 -14.833 8 -23.5c0 -13.333 -5.16699 -23.333 -15.5 -30
s-21.166 -10 -32.499 -10c-6.66699 0 -12.334 1 -17.001 3z" />
    <glyph glyph-name="Iacute" unicode="&#xcd;" horiz-adv-x="269" 
d="M135 -5c-20.667 0 -35.833 4.33301 -45.5 13s-14.5 22.667 -14.5 42v568c0 36.667 20 55 60 55c39.333 0 59 -18.333 59 -55v-568c0 -19.333 -4.83301 -33.333 -14.5 -42s-24.5 -13 -44.5 -13zM118.001 694c-5.33301 -2 -11.002 -2.99805 -17.002 -2.99805
c-10.667 0 -21.167 3.33301 -31.5 10s-15.5 16.667 -15.5 30c0 8.66699 2.5 16.5 7.5 23.5s10.833 12.5 17.5 16.5l108 70c6 4 12.5 7.33301 19.5 10s14.5 4 22.5 4c5.33301 0 11.333 -1.16699 18 -3.5s12.834 -6 18.501 -11s10.5 -11.167 14.5 -18.5s6 -16 6 -26
c0 -12.667 -3.66699 -24.334 -11 -35.001s-17.666 -18.334 -30.999 -23.001z" />
    <glyph glyph-name="Icircumflex" unicode="&#xce;" horiz-adv-x="269" 
d="M135 -5c-20.667 0 -35.833 4.33301 -45.5 13s-14.5 22.667 -14.5 42v568c0 36.667 20 55 60 55c39.333 0 59 -18.333 59 -55v-568c0 -19.333 -4.83301 -33.333 -14.5 -42s-24.5 -13 -44.5 -13zM139.001 882c11.333 0 23.6689 -4.00098 37.002 -12.001l143 -91
c12 -8 18 -18.667 18 -32c0 -6.66699 -1.5 -13.334 -4.5 -20.001s-6.83301 -12.5 -11.5 -17.5s-10 -9 -16 -12s-11.667 -4.5 -17 -4.5c-10 0 -21.667 3.33301 -35 10l-114 60l-120 -64c-5.33301 -3.33301 -10.5 -5.5 -15.5 -6.5s-10.167 -1.5 -15.5 -1.5
c-16.667 0 -29.334 5.83301 -38.001 17.5s-13 23.834 -13 36.501c0 14.667 6.33301 26 19 34l146 91c7.33301 4.66699 13.666 7.83398 18.999 9.50098s11.333 2.5 18 2.5z" />
    <glyph glyph-name="Idieresis" unicode="&#xcf;" horiz-adv-x="269" 
d="M135 -5c-20.667 0 -35.833 4.33301 -45.5 13s-14.5 22.667 -14.5 42v568c0 36.667 20 55 60 55c39.333 0 59 -18.333 59 -55v-568c0 -19.333 -4.83301 -33.333 -14.5 -42s-24.5 -13 -44.5 -13zM237.001 708c-18 0 -33.166 6 -45.499 18s-18.5 26.333 -18.5 43
c0 21.333 6.66699 36.833 20 46.5s27.666 14.5 42.999 14.5c16 0 30.667 -4.83301 44 -14.5s20 -25.167 20 -46.5c0 -16 -6 -30.167 -18 -42.5s-27 -18.5 -45 -18.5zM30.002 708c-18 0 -33.166 6 -45.499 18s-18.5 26.333 -18.5 43c0 21.333 6.66699 36.833 20 46.5
s27.666 14.5 42.999 14.5c16 0 30.833 -4.83301 44.5 -14.5s20.5 -25.167 20.5 -46.5c0 -16 -6.16699 -30.167 -18.5 -42.5s-27.5 -18.5 -45.5 -18.5z" />
    <glyph glyph-name="Eth" unicode="&#xd0;" horiz-adv-x="622" 
d="M121 0c-40.667 0 -60.999 19.335 -60.999 58.002v220h-12c-19.333 0 -35 4 -47 12s-18 21 -18 39c0 18.667 6 32.167 18 40.5s27.667 12.5 47 12.5h12v228c0 38.667 20.333 58 61 58h267c26.667 0 51.167 -4.33301 73.5 -13s41.666 -21.5 57.999 -38.5
s29.166 -38.5 38.499 -64.5s14 -56.333 14 -91v-254c0 -34 -4.83301 -63.833 -14.5 -89.5s-23.167 -47.334 -40.5 -65.001s-37.666 -30.834 -60.999 -39.501s-49 -13 -77 -13h-258zM180.001 278.002l-0.000976562 -162h185c30.667 0 52.834 7.5 66.501 22.5
s20.5 36.5 20.5 64.5v261c0 28 -7 49.667 -21 65s-36.667 23 -68 23h-183v-170h87c20 0 36 -4 48 -12s18 -21 18 -39c0 -18.667 -6 -32.167 -18 -40.5s-28 -12.5 -48 -12.5h-87z" />
    <glyph glyph-name="Ntilde" unicode="&#xd1;" horiz-adv-x="619" 
d="M439 233l-0.000976562 386c0 36.667 20 55 60 55s60 -18.333 60 -55v-561c0 -38.667 -20 -58 -60 -58h-30c-17.333 0 -29.666 3.5 -36.999 10.5s-14.333 16.167 -21 27.5l-228 407h-3v-396c0 -19.333 -5 -33.333 -15 -42s-25 -13 -45 -13s-35 4.33301 -45 13
s-15 22.667 -15 42v561c0 38.667 20 58 60 58h32c18 0 31.333 -4.66699 40 -14s16.667 -20.333 24 -33l109 -193l110 -195h4zM235.999 831c12.667 0 25.832 -2.16895 39.499 -6.50195s27 -9 40 -14l35.5 -13.5c10.667 -4 19.667 -6 27 -6c8 0 14.333 2.16699 19 6.5
s9.16699 9 13.5 14s9 9.66699 14 14s12.167 6.5 21.5 6.5s17.333 -1.83301 24 -5.5s12.334 -8.16699 17.001 -13.5s8 -10.666 10 -15.999s3 -9.33301 3 -12c0 -7.33301 -1.33301 -13.333 -4 -18c-12.667 -26 -29.334 -43.833 -50.001 -53.5s-39.667 -14.5 -57 -14.5
c-12 0 -24.333 2 -37 6s-25.167 8.5 -37.5 13.5s-24.166 9.5 -35.499 13.5s-22 6 -32 6c-6 0 -11.167 -2 -15.5 -6s-8.83301 -8.5 -13.5 -13.5s-9.66699 -9.5 -15 -13.5s-12 -6 -20 -6c-8.66699 0 -16.334 1.66699 -23.001 5s-12.167 7.5 -16.5 12.5
s-7.66602 10 -9.99902 15s-3.5 9.5 -3.5 13.5c0 12 3.66699 23.333 11 34s16.333 19.834 27 27.501s22.167 13.667 34.5 18s23.5 6.5 33.5 6.5z" />
    <glyph glyph-name="Ograve" unicode="&#xd2;" horiz-adv-x="588" 
d="M339 668c67.333 0 117.336 -18.1689 150.003 -54.502s49 -89.5 49 -159.5v-241c0 -34.667 -5 -65.334 -15 -92.001s-23.833 -49 -41.5 -67s-38.5 -31.5 -62.5 -40.5s-50.333 -13.5 -79 -13.5h-93c-28.667 0 -55 3.83301 -79 11.5s-44.833 19.834 -62.5 36.501
s-31.334 38.334 -41.001 65.001s-14.5 59 -14.5 97v244c0 34.667 4.83301 65.334 14.5 92.001s23.167 49 40.5 67s38.166 31.667 62.499 41s51.166 14 80.499 14h91zM420.003 465.998c0 26.667 -7.33301 48.835 -22 66.502s-39 26.5 -73 26.5h-63
c-32 0 -55.5 -8.83301 -70.5 -26.5s-22.5 -39.834 -22.5 -66.501v-267c0 -27.333 7.5 -49.333 22.5 -66s38.5 -25 70.5 -25h63c32 0 55.833 9.16699 71.5 27.5s23.5 40.166 23.5 65.499v265zM187.003 737.999c-13.333 4.66699 -23.668 12.332 -31.001 22.999
s-11 22.334 -11 35.001c0 10 2 18.667 6 26s8.83301 13.5 14.5 18.5s11.834 8.66699 18.501 11s12.667 3.5 18 3.5c8 0 15.5 -1.33301 22.5 -4s13.5 -6 19.5 -10l108 -70c6.66699 -4 12.667 -9.5 18 -16.5s8 -14.833 8 -23.5c0 -13.333 -5.16699 -23.333 -15.5 -30
s-21.166 -10 -32.499 -10c-6.66699 0 -12.334 1 -17.001 3z" />
    <glyph glyph-name="Oacute" unicode="&#xd3;" horiz-adv-x="588" 
d="M339 668c67.333 0 117.336 -18.1689 150.003 -54.502s49 -89.5 49 -159.5v-241c0 -34.667 -5 -65.334 -15 -92.001s-23.833 -49 -41.5 -67s-38.5 -31.5 -62.5 -40.5s-50.333 -13.5 -79 -13.5h-93c-28.667 0 -55 3.83301 -79 11.5s-44.833 19.834 -62.5 36.501
s-31.334 38.334 -41.001 65.001s-14.5 59 -14.5 97v244c0 34.667 4.83301 65.334 14.5 92.001s23.167 49 40.5 67s38.166 31.667 62.499 41s51.166 14 80.499 14h91zM420.003 465.998c0 26.667 -7.33301 48.835 -22 66.502s-39 26.5 -73 26.5h-63
c-32 0 -55.5 -8.83301 -70.5 -26.5s-22.5 -39.834 -22.5 -66.501v-267c0 -27.333 7.5 -49.333 22.5 -66s38.5 -25 70.5 -25h63c32 0 55.833 9.16699 71.5 27.5s23.5 40.166 23.5 65.499v265zM256.003 693.999c-5.33301 -2 -11.002 -2.99805 -17.002 -2.99805
c-10.667 0 -21.167 3.33301 -31.5 10s-15.5 16.667 -15.5 30c0 8.66699 2.5 16.5 7.5 23.5s10.833 12.5 17.5 16.5l108 70c6 4 12.5 7.33301 19.5 10s14.5 4 22.5 4c5.33301 0 11.333 -1.16699 18 -3.5s12.834 -6 18.501 -11s10.5 -11.167 14.5 -18.5s6 -16 6 -26
c0 -12.667 -3.66699 -24.334 -11 -35.001s-17.666 -18.334 -30.999 -23.001z" />
    <glyph glyph-name="Ocircumflex" unicode="&#xd4;" horiz-adv-x="588" 
d="M339 668c67.333 0 117.336 -18.1689 150.003 -54.502s49 -89.5 49 -159.5v-241c0 -34.667 -5 -65.334 -15 -92.001s-23.833 -49 -41.5 -67s-38.5 -31.5 -62.5 -40.5s-50.333 -13.5 -79 -13.5h-93c-28.667 0 -55 3.83301 -79 11.5s-44.833 19.834 -62.5 36.501
s-31.334 38.334 -41.001 65.001s-14.5 59 -14.5 97v244c0 34.667 4.83301 65.334 14.5 92.001s23.167 49 40.5 67s38.166 31.667 62.499 41s51.166 14 80.499 14h91zM420.003 465.998c0 26.667 -7.33301 48.835 -22 66.502s-39 26.5 -73 26.5h-63
c-32 0 -55.5 -8.83301 -70.5 -26.5s-22.5 -39.834 -22.5 -66.501v-267c0 -27.333 7.5 -49.333 22.5 -66s38.5 -25 70.5 -25h63c32 0 55.833 9.16699 71.5 27.5s23.5 40.166 23.5 65.499v265zM303.003 881.999c11.333 0 23.6689 -4.00098 37.002 -12.001l143 -91
c12 -8 18 -18.667 18 -32c0 -6.66699 -1.5 -13.334 -4.5 -20.001s-6.83301 -12.5 -11.5 -17.5s-10 -9 -16 -12s-11.667 -4.5 -17 -4.5c-10 0 -21.667 3.33301 -35 10l-114 60l-120 -64c-5.33301 -3.33301 -10.5 -5.5 -15.5 -6.5s-10.167 -1.5 -15.5 -1.5
c-16.667 0 -29.334 5.83301 -38.001 17.5s-13 23.834 -13 36.501c0 14.667 6.33301 26 19 34l146 91c7.33301 4.66699 13.666 7.83398 18.999 9.50098s11.333 2.5 18 2.5z" />
    <glyph glyph-name="Otilde" unicode="&#xd5;" horiz-adv-x="588" 
d="M339 668c67.333 0 117.336 -18.1689 150.003 -54.502s49 -89.5 49 -159.5v-241c0 -34.667 -5 -65.334 -15 -92.001s-23.833 -49 -41.5 -67s-38.5 -31.5 -62.5 -40.5s-50.333 -13.5 -79 -13.5h-93c-28.667 0 -55 3.83301 -79 11.5s-44.833 19.834 -62.5 36.501
s-31.334 38.334 -41.001 65.001s-14.5 59 -14.5 97v244c0 34.667 4.83301 65.334 14.5 92.001s23.167 49 40.5 67s38.166 31.667 62.499 41s51.166 14 80.499 14h91zM420.003 465.998c0 26.667 -7.33301 48.835 -22 66.502s-39 26.5 -73 26.5h-63
c-32 0 -55.5 -8.83301 -70.5 -26.5s-22.5 -39.834 -22.5 -66.501v-267c0 -27.333 7.5 -49.333 22.5 -66s38.5 -25 70.5 -25h63c32 0 55.833 9.16699 71.5 27.5s23.5 40.166 23.5 65.499v265zM218.003 826.999c12.667 0 25.832 -2.16895 39.499 -6.50195s27 -9 40 -14
l35.5 -13.5c10.667 -4 19.667 -6 27 -6c8 0 14.333 2.16699 19 6.5s9.16699 9 13.5 14s9 9.66699 14 14s12.167 6.5 21.5 6.5s17.333 -1.83301 24 -5.5s12.334 -8.16699 17.001 -13.5s8 -10.666 10 -15.999s3 -9.33301 3 -12c0 -7.33301 -1.33301 -13.333 -4 -18
c-12.667 -26 -29.334 -43.833 -50.001 -53.5s-39.667 -14.5 -57 -14.5c-12 0 -24.333 2 -37 6s-25.167 8.5 -37.5 13.5s-24.166 9.5 -35.499 13.5s-22 6 -32 6c-6 0 -11.167 -2 -15.5 -6s-8.83301 -8.5 -13.5 -13.5s-9.66699 -9.5 -15 -13.5s-12 -6 -20 -6
c-8.66699 0 -16.334 1.66699 -23.001 5s-12.167 7.5 -16.5 12.5s-7.66602 10 -9.99902 15s-3.5 9.5 -3.5 13.5c0 12 3.66699 23.333 11 34s16.333 19.834 27 27.501s22.167 13.667 34.5 18s23.5 6.5 33.5 6.5z" />
    <glyph glyph-name="Odieresis" unicode="&#xd6;" horiz-adv-x="588" 
d="M339 668c67.333 0 117.336 -18.1689 150.003 -54.502s49 -89.5 49 -159.5v-241c0 -34.667 -5 -65.334 -15 -92.001s-23.833 -49 -41.5 -67s-38.5 -31.5 -62.5 -40.5s-50.333 -13.5 -79 -13.5h-93c-28.667 0 -55 3.83301 -79 11.5s-44.833 19.834 -62.5 36.501
s-31.334 38.334 -41.001 65.001s-14.5 59 -14.5 97v244c0 34.667 4.83301 65.334 14.5 92.001s23.167 49 40.5 67s38.166 31.667 62.499 41s51.166 14 80.499 14h91zM420.003 465.998c0 26.667 -7.33301 48.835 -22 66.502s-39 26.5 -73 26.5h-63
c-32 0 -55.5 -8.83301 -70.5 -26.5s-22.5 -39.834 -22.5 -66.501v-267c0 -27.333 7.5 -49.333 22.5 -66s38.5 -25 70.5 -25h63c32 0 55.833 9.16699 71.5 27.5s23.5 40.166 23.5 65.499v265zM405.003 707.999c-18 0 -33.166 6 -45.499 18s-18.5 26.333 -18.5 43
c0 21.333 6.66699 36.833 20 46.5s27.666 14.5 42.999 14.5c16 0 30.667 -4.83301 44 -14.5s20 -25.167 20 -46.5c0 -16 -6 -30.167 -18 -42.5s-27 -18.5 -45 -18.5zM198.004 707.999c-18 0 -33.166 6 -45.499 18s-18.5 26.333 -18.5 43c0 21.333 6.66699 36.833 20 46.5
s27.666 14.5 42.999 14.5c16 0 30.833 -4.83301 44.5 -14.5s20.5 -25.167 20.5 -46.5c0 -16 -6.16699 -30.167 -18.5 -42.5s-27.5 -18.5 -45.5 -18.5z" />
    <glyph glyph-name="multiply" unicode="&#xd7;" horiz-adv-x="520" 
d="M107 396c-5.33301 5.33301 -9.5 10.999 -12.5 16.999s-4.5 12.333 -4.5 19s1.83301 13.5 5.5 20.5s8.16699 13.333 13.5 19s11.5 10.334 18.5 14.001s14.167 5.5 21.5 5.5c13.333 0 25.333 -5.33301 36 -16l75 -75l76 75c11.333 11.333 23 17 35 17
c6.66699 0 13.5 -2 20.5 -6s13.5 -9 19.5 -15s10.833 -12.5 14.5 -19.5s5.5 -13.5 5.5 -19.5c0 -12 -5.66699 -23.667 -17 -35l-76 -76l75 -75c11.333 -10 17 -21.667 17 -35c0 -6.66699 -2 -13.5 -6 -20.5s-9 -13.5 -15 -19.5s-12.5 -10.833 -19.5 -14.5
s-13.5 -5.5 -19.5 -5.5c-12 0 -23.667 5.66699 -35 17l-75 75l-74 -74c-5.33301 -5.33301 -11 -9.5 -17 -12.5s-12.333 -4.5 -19 -4.5c-6 0 -12.5 1.83301 -19.5 5.5s-13.5 8.16699 -19.5 13.5s-10.833 11.5 -14.5 18.5s-5.5 14.167 -5.5 21.5
c0 13.333 5.33301 25.333 16 36l75 74z" />
    <glyph glyph-name="Oslash" unicode="&#xd8;" horiz-adv-x="588" 
d="M339 668c53.333 0 95.6689 -11.667 127.002 -35l13 17c6.66699 9.33301 14.667 14 24 14c10 0 18.5 -3.83301 25.5 -11.5s10.5 -14.5 10.5 -20.5s-2.66699 -12.667 -8 -20l-21 -29c18.667 -33.333 28 -76.333 28 -129v-241c0 -34.667 -5 -65.334 -15 -92.001
s-23.833 -49 -41.5 -67s-38.5 -31.5 -62.5 -40.5s-50.333 -13.5 -79 -13.5h-93c-24.667 0 -47.667 2.66699 -69 8s-40.333 14.333 -57 27l-16 -22c-7.33301 -9.33301 -15.333 -14 -24 -14c-9.33301 0 -17.5 3.5 -24.5 10.5s-10.5 15.167 -10.5 24.5c0 7.33301 2 14 6 20
l24 33c-17.333 31.333 -26 72.333 -26 123v244c0 34.667 4.83301 65.334 14.5 92.001s23.167 49 40.5 67s38.166 31.667 62.499 41s51.166 14 80.499 14h91zM420.003 456l-229 -321.999c15.333 -17.333 39 -26 71 -26h63c32 0 55.833 9.16699 71.5 27.5
s23.5 40.166 23.5 65.499v255zM169.003 217.001l227.001 317.001c-16.667 16.667 -40.334 25 -71.001 25h-63c-32 0 -55.5 -8.83301 -70.5 -26.5s-22.5 -39.834 -22.5 -66.501v-249z" />
    <glyph glyph-name="Ugrave" unicode="&#xd9;" horiz-adv-x="611" 
d="M433 619c0 10.667 1.99707 19.665 5.99707 26.998s8.83301 13 14.5 17s12 6.83301 19 8.5s13.5 2.5 19.5 2.5c5.33301 0 11.5 -0.833008 18.5 -2.5s13.5 -4.5 19.5 -8.5s11 -9.66699 15 -17s6 -16.666 6 -27.999v-410c0 -34.667 -5.16699 -65 -15.5 -91
s-24.166 -47.667 -41.499 -65s-37.666 -30.333 -60.999 -39s-48.333 -13 -75 -13h-106c-26 0 -50.667 4.16699 -74 12.5s-43.833 20.833 -61.5 37.5s-31.5 37.834 -41.5 63.501s-15 56.167 -15 91.5v413c0 11.333 2 20.666 6 27.999s9 13 15 17s12.5 6.83301 19.5 8.5
s13.5 2.5 19.5 2.5s12.333 -0.833008 19 -2.5s13 -4.66699 19 -9s11 -10.166 15 -17.499s6 -16.333 6 -27v-415c0 -27.333 6.83301 -48.5 20.5 -63.5s32.834 -22.5 57.501 -22.5h96c25.333 0 45 8.33301 59 25s21 37.667 21 63v414zM205.997 737.998
c-13.333 4.66699 -23.668 12.332 -31.001 22.999s-11 22.334 -11 35.001c0 10 2 18.667 6 26s8.83301 13.5 14.5 18.5s11.834 8.66699 18.501 11s12.667 3.5 18 3.5c8 0 15.5 -1.33301 22.5 -4s13.5 -6 19.5 -10l108 -70c6.66699 -4 12.667 -9.5 18 -16.5s8 -14.833 8 -23.5
c0 -13.333 -5.16699 -23.333 -15.5 -30s-21.166 -10 -32.499 -10c-6.66699 0 -12.334 1 -17.001 3z" />
    <glyph glyph-name="Uacute" unicode="&#xda;" horiz-adv-x="611" 
d="M433 619c0 10.667 1.99707 19.665 5.99707 26.998s8.83301 13 14.5 17s12 6.83301 19 8.5s13.5 2.5 19.5 2.5c5.33301 0 11.5 -0.833008 18.5 -2.5s13.5 -4.5 19.5 -8.5s11 -9.66699 15 -17s6 -16.666 6 -27.999v-410c0 -34.667 -5.16699 -65 -15.5 -91
s-24.166 -47.667 -41.499 -65s-37.666 -30.333 -60.999 -39s-48.333 -13 -75 -13h-106c-26 0 -50.667 4.16699 -74 12.5s-43.833 20.833 -61.5 37.5s-31.5 37.834 -41.5 63.501s-15 56.167 -15 91.5v413c0 11.333 2 20.666 6 27.999s9 13 15 17s12.5 6.83301 19.5 8.5
s13.5 2.5 19.5 2.5s12.333 -0.833008 19 -2.5s13 -4.66699 19 -9s11 -10.166 15 -17.499s6 -16.333 6 -27v-415c0 -27.333 6.83301 -48.5 20.5 -63.5s32.834 -22.5 57.501 -22.5h96c25.333 0 45 8.33301 59 25s21 37.667 21 63v414zM300.997 693.998
c-5.33301 -2 -11.002 -2.99805 -17.002 -2.99805c-10.667 0 -21.167 3.33301 -31.5 10s-15.5 16.667 -15.5 30c0 8.66699 2.5 16.5 7.5 23.5s10.833 12.5 17.5 16.5l108 70c6 4 12.5 7.33301 19.5 10s14.5 4 22.5 4c5.33301 0 11.333 -1.16699 18 -3.5s12.834 -6 18.501 -11
s10.5 -11.167 14.5 -18.5s6 -16 6 -26c0 -12.667 -3.66699 -24.334 -11 -35.001s-17.666 -18.334 -30.999 -23.001z" />
    <glyph glyph-name="Ucircumflex" unicode="&#xdb;" horiz-adv-x="611" 
d="M433 619c0 10.667 1.99707 19.665 5.99707 26.998s8.83301 13 14.5 17s12 6.83301 19 8.5s13.5 2.5 19.5 2.5c5.33301 0 11.5 -0.833008 18.5 -2.5s13.5 -4.5 19.5 -8.5s11 -9.66699 15 -17s6 -16.666 6 -27.999v-410c0 -34.667 -5.16699 -65 -15.5 -91
s-24.166 -47.667 -41.499 -65s-37.666 -30.333 -60.999 -39s-48.333 -13 -75 -13h-106c-26 0 -50.667 4.16699 -74 12.5s-43.833 20.833 -61.5 37.5s-31.5 37.834 -41.5 63.501s-15 56.167 -15 91.5v413c0 11.333 2 20.666 6 27.999s9 13 15 17s12.5 6.83301 19.5 8.5
s13.5 2.5 19.5 2.5s12.333 -0.833008 19 -2.5s13 -4.66699 19 -9s11 -10.166 15 -17.499s6 -16.333 6 -27v-415c0 -27.333 6.83301 -48.5 20.5 -63.5s32.834 -22.5 57.501 -22.5h96c25.333 0 45 8.33301 59 25s21 37.667 21 63v414zM307.997 881.998
c11.333 0 23.6689 -4.00098 37.002 -12.001l143 -91c12 -8 18 -18.667 18 -32c0 -6.66699 -1.5 -13.334 -4.5 -20.001s-6.83301 -12.5 -11.5 -17.5s-10 -9 -16 -12s-11.667 -4.5 -17 -4.5c-10 0 -21.667 3.33301 -35 10l-114 60l-120 -64
c-5.33301 -3.33301 -10.5 -5.5 -15.5 -6.5s-10.167 -1.5 -15.5 -1.5c-16.667 0 -29.334 5.83301 -38.001 17.5s-13 23.834 -13 36.501c0 14.667 6.33301 26 19 34l146 91c7.33301 4.66699 13.666 7.83398 18.999 9.50098s11.333 2.5 18 2.5z" />
    <glyph glyph-name="Udieresis" unicode="&#xdc;" horiz-adv-x="611" 
d="M433 619c0 10.667 1.99707 19.665 5.99707 26.998s8.83301 13 14.5 17s12 6.83301 19 8.5s13.5 2.5 19.5 2.5c5.33301 0 11.5 -0.833008 18.5 -2.5s13.5 -4.5 19.5 -8.5s11 -9.66699 15 -17s6 -16.666 6 -27.999v-410c0 -34.667 -5.16699 -65 -15.5 -91
s-24.166 -47.667 -41.499 -65s-37.666 -30.333 -60.999 -39s-48.333 -13 -75 -13h-106c-26 0 -50.667 4.16699 -74 12.5s-43.833 20.833 -61.5 37.5s-31.5 37.834 -41.5 63.501s-15 56.167 -15 91.5v413c0 11.333 2 20.666 6 27.999s9 13 15 17s12.5 6.83301 19.5 8.5
s13.5 2.5 19.5 2.5s12.333 -0.833008 19 -2.5s13 -4.66699 19 -9s11 -10.166 15 -17.499s6 -16.333 6 -27v-415c0 -27.333 6.83301 -48.5 20.5 -63.5s32.834 -22.5 57.501 -22.5h96c25.333 0 45 8.33301 59 25s21 37.667 21 63v414zM206.997 707.998
c-18 0 -33.166 6 -45.499 18s-18.5 26.333 -18.5 43c0 21.333 6.66699 36.833 20 46.5s27.666 14.5 42.999 14.5c16 0 30.833 -4.83301 44.5 -14.5s20.5 -25.167 20.5 -46.5c0 -16 -6.16699 -30.167 -18.5 -42.5s-27.5 -18.5 -45.5 -18.5zM413.998 707.998
c-18 0 -33.166 6 -45.499 18s-18.5 26.333 -18.5 43c0 21.333 6.66699 36.833 20 46.5s27.666 14.5 42.999 14.5c16 0 30.667 -4.83301 44 -14.5s20 -25.167 20 -46.5c0 -16 -6 -30.167 -18 -42.5s-27 -18.5 -45 -18.5z" />
    <glyph glyph-name="Yacute" unicode="&#xdd;" horiz-adv-x="553" 
d="M282 385l150.001 259.001c6 10.667 13.167 18.5 21.5 23.5s17.166 7.5 26.499 7.5c16.667 0 31.5 -6 44.5 -18s19.5 -25.667 19.5 -41c0 -8 -2 -16 -6 -24l-198 -334v-208c0 -37.333 -20 -56 -60 -56c-18.667 0 -33.167 4.83301 -43.5 14.5s-15.5 23.5 -15.5 41.5v210
l-206 337c-3.33301 6.66699 -5 13 -5 19c0 8 2 15.5 6 22.5s9.33301 13.167 16 18.5s14.167 9.66602 22.5 12.999s16.833 5 25.5 5c19.333 0 35 -10.333 47 -31l151 -259h4zM268.001 694.001c-5.33301 -2 -11.002 -2.99805 -17.002 -2.99805
c-10.667 0 -21.167 3.33301 -31.5 10s-15.5 16.667 -15.5 30c0 8.66699 2.5 16.5 7.5 23.5s10.833 12.5 17.5 16.5l108 70c6 4 12.5 7.33301 19.5 10s14.5 4 22.5 4c5.33301 0 11.333 -1.16699 18 -3.5s12.834 -6 18.501 -11s10.5 -11.167 14.5 -18.5s6 -16 6 -26
c0 -12.667 -3.66699 -24.334 -11 -35.001s-17.666 -18.334 -30.999 -23.001z" />
    <glyph glyph-name="Thorn" unicode="&#xde;" horiz-adv-x="573" 
d="M60 618c0 36.667 20.001 54.999 60.001 54.999c39.333 0 59 -18.333 59 -55v-78h155c32 0 60.833 -4.83301 86.5 -14.5s47.667 -23.5 66 -41.5s32.333 -39.833 42 -65.5s14.5 -54.167 14.5 -85.5c0 -32 -4 -61 -12 -87s-20.333 -48.167 -37 -66.5
s-38 -32.666 -64 -42.999s-57 -15.5 -93 -15.5h-158v-71c0 -19.333 -4.83301 -33.333 -14.5 -42s-24.5 -13 -44.5 -13c-20.667 0 -35.834 4.33301 -45.501 13s-14.5 22.667 -14.5 42v568zM179.001 423.999l0.000976562 -188.001h164c14.667 0 27.167 2.83301 37.5 8.5
s18.666 13 24.999 22s11 19.333 14 31s4.5 23.5 4.5 35.5c0 16.667 -2.5 30.834 -7.5 42.501s-11.5 21.167 -19.5 28.5s-17 12.5 -27 15.5s-19.667 4.5 -29 4.5h-162z" />
    <glyph glyph-name="germandbls" unicode="&#xdf;" horiz-adv-x="505" 
d="M254 -7c-10 0 -18.333 1.83594 -25 5.50293s-12 8.16699 -16 13.5s-6.66699 11.333 -8 18s-2 12.667 -2 18c0 6 0.666992 12.167 2 18.5s4 12.333 8 18s9.33301 10.334 16 14.001s15 5.5 25 5.5h20c19.333 0 35.833 5.66699 49.5 17s20.5 29.666 20.5 54.999v56
c0 25.333 -6.5 44.666 -19.5 57.999s-29.833 20 -50.5 20h-18c-13.333 0 -24.166 4 -32.499 12s-12.5 21.667 -12.5 41c0 21.333 4.83301 35.5 14.5 42.5s19.834 10.5 30.501 10.5h10c19.333 0 35.833 7.33301 49.5 22s20.5 33.667 20.5 57
c0 25.333 -7.83301 44.833 -23.5 58.5s-34.167 20.5 -55.5 20.5h-24c-22.667 0 -41.334 -7.83301 -56.001 -23.5s-22 -36.5 -22 -62.5v-499c0 -13.333 -4.83301 -24.666 -14.5 -33.999s-25.167 -14 -46.5 -14c-20.667 0 -35.667 4.5 -45 13.5s-14 20.5 -14 34.5v505
c0 29.333 5.16699 56 15.5 80s24.666 44.5 42.999 61.5s39.666 30.167 63.999 39.5s50.5 14.333 78.5 15h16c27.333 0 53.5 -4.5 78.5 -13.5s46.833 -21.833 65.5 -38.5s33.5 -37 44.5 -61s16.5 -51.333 16.5 -82c0 -12 -1 -24.167 -3 -36.5s-5.33301 -24.333 -10 -36
s-10.834 -22.334 -18.501 -32.001s-16.834 -17.5 -27.501 -23.5c14.667 -6.66699 26.334 -14.834 35.001 -24.501s15.334 -20.334 20.001 -32.001s7.83398 -24.167 9.50098 -37.5s2.5 -27 2.5 -41v-56c0 -30.667 -4.83301 -57.5 -14.5 -80.5s-23 -42 -40 -57
s-36.833 -26.333 -59.5 -34s-46.667 -11.5 -72 -11.5h-25z" />
    <glyph glyph-name="agrave" unicode="&#xe0;" horiz-adv-x="529" 
d="M190 190c-10.667 0 -19 -3.66699 -25 -11s-9 -15.333 -9 -24v-3c0 -9.33301 2.83301 -17.833 8.5 -25.5s14.167 -11.5 25.5 -11.5h175v75h-175zM364 293v8.00098c0 13.333 -4.83301 25.833 -14.5 37.5s-26.834 17.5 -51.501 17.5h-137
c-11.333 0 -22.333 3.83301 -33 11.5s-16 21.167 -16 40.5s5.33301 33.833 16 43.5s21.667 14.5 33 14.5h143c60 0 105.167 -15.167 135.5 -45.5s45.5 -74.5 45.5 -132.5v-227c0 -4.66699 -1 -10.5 -3 -17.5s-5.33301 -13.667 -10 -20s-10.667 -11.833 -18 -16.5
s-16.333 -7 -27 -7h-257c-18 0 -35.167 3.5 -51.5 10.5s-30.666 17 -42.999 30s-22 28.5 -29 46.5s-10.5 38.333 -10.5 61v9c0 18 3.16699 35.167 9.5 51.5s15.5 30.666 27.5 42.999s26.667 22.333 44 30s37.333 11.5 60 11.5h187zM177 639.001
c-11.333 12.667 -17.001 27.334 -17.001 44.001c0 15.333 5.66699 28.833 17 40.5s25.333 17.5 42 17.5c13.333 0 24.833 -3.83301 34.5 -11.5s17.167 -16.5 22.5 -26.5l63 -112c5.33301 -8.66699 8 -18.334 8 -29.001c0 -8 -3.16699 -16.333 -9.5 -25
s-16.166 -13 -29.499 -13c-16 0 -29 5.66699 -39 17z" />
    <glyph glyph-name="aacute" unicode="&#xe1;" horiz-adv-x="529" 
d="M190 190c-10.667 0 -19 -3.66699 -25 -11s-9 -15.333 -9 -24v-3c0 -9.33301 2.83301 -17.833 8.5 -25.5s14.167 -11.5 25.5 -11.5h175v75h-175zM364 293v8.00098c0 13.333 -4.83301 25.833 -14.5 37.5s-26.834 17.5 -51.501 17.5h-137
c-11.333 0 -22.333 3.83301 -33 11.5s-16 21.167 -16 40.5s5.33301 33.833 16 43.5s21.667 14.5 33 14.5h143c60 0 105.167 -15.167 135.5 -45.5s45.5 -74.5 45.5 -132.5v-227c0 -4.66699 -1 -10.5 -3 -17.5s-5.33301 -13.667 -10 -20s-10.667 -11.833 -18 -16.5
s-16.333 -7 -27 -7h-257c-18 0 -35.167 3.5 -51.5 10.5s-30.666 17 -42.999 30s-22 28.5 -29 46.5s-10.5 38.333 -10.5 61v9c0 18 3.16699 35.167 9.5 51.5s15.5 30.666 27.5 42.999s26.667 22.333 44 30s37.333 11.5 60 11.5h187zM269 541.001
c-10 -11.333 -22.667 -17.001 -38 -17.001c-14 0 -24.167 4.33301 -30.5 13s-9.5 17 -9.5 25c0 10.667 2.66699 20.334 8 29.001l63 112c5.33301 10 12.833 18.833 22.5 26.5s21.167 11.5 34.5 11.5c16.667 0 30.667 -5.83301 42 -17.5s17 -25.167 17 -40.5
c0 -7.33301 -1.33301 -15 -4 -23s-7 -15 -13 -21z" />
    <glyph glyph-name="acircumflex" unicode="&#xe2;" horiz-adv-x="529" 
d="M190 190c-10.667 0 -19 -3.66699 -25 -11s-9 -15.333 -9 -24v-3c0 -9.33301 2.83301 -17.833 8.5 -25.5s14.167 -11.5 25.5 -11.5h175v75h-175zM364 293v8.00098c0 13.333 -4.83301 25.833 -14.5 37.5s-26.834 17.5 -51.501 17.5h-137
c-11.333 0 -22.333 3.83301 -33 11.5s-16 21.167 -16 40.5s5.33301 33.833 16 43.5s21.667 14.5 33 14.5h143c60 0 105.167 -15.167 135.5 -45.5s45.5 -74.5 45.5 -132.5v-227c0 -4.66699 -1 -10.5 -3 -17.5s-5.33301 -13.667 -10 -20s-10.667 -11.833 -18 -16.5
s-16.333 -7 -27 -7h-257c-18 0 -35.167 3.5 -51.5 10.5s-30.666 17 -42.999 30s-22 28.5 -29 46.5s-10.5 38.333 -10.5 61v9c0 18 3.16699 35.167 9.5 51.5s15.5 30.666 27.5 42.999s26.667 22.333 44 30s37.333 11.5 60 11.5h187zM288 719.001
c5.33301 0 10.6689 -0.666016 16.002 -1.99902s10.666 -4.33301 15.999 -9l128 -115c9.33301 -8 14 -17.333 14 -28c0 -13.333 -5.83301 -24.333 -17.5 -33s-22.5 -13 -32.5 -13s-19.667 3.66699 -29 11l-98 81l-108 -83c-8 -6 -16.667 -9 -26 -9
c-16.667 0 -29.334 5.16699 -38.001 15.5s-13 21.166 -13 32.499c0 9.33301 4.33301 18 13 26l140 115c6 5.33301 11.833 8.5 17.5 9.5s11.5 1.5 17.5 1.5z" />
    <glyph glyph-name="atilde" unicode="&#xe3;" horiz-adv-x="529" 
d="M190 190c-10.667 0 -19 -3.66699 -25 -11s-9 -15.333 -9 -24v-3c0 -9.33301 2.83301 -17.833 8.5 -25.5s14.167 -11.5 25.5 -11.5h175v75h-175zM364 293v8.00098c0 13.333 -4.83301 25.833 -14.5 37.5s-26.834 17.5 -51.501 17.5h-137
c-11.333 0 -22.333 3.83301 -33 11.5s-16 21.167 -16 40.5s5.33301 33.833 16 43.5s21.667 14.5 33 14.5h143c60 0 105.167 -15.167 135.5 -45.5s45.5 -74.5 45.5 -132.5v-227c0 -4.66699 -1 -10.5 -3 -17.5s-5.33301 -13.667 -10 -20s-10.667 -11.833 -18 -16.5
s-16.333 -7 -27 -7h-257c-18 0 -35.167 3.5 -51.5 10.5s-30.666 17 -42.999 30s-22 28.5 -29 46.5s-10.5 38.333 -10.5 61v9c0 18 3.16699 35.167 9.5 51.5s15.5 30.666 27.5 42.999s26.667 22.333 44 30s37.333 11.5 60 11.5h187zM203 647.001
c12.667 0 25.832 -2.16895 39.499 -6.50195s27 -9 40 -14l35.5 -13.5c10.667 -4 19.667 -6 27 -6c8 0 14.333 2.16699 19 6.5s9.16699 9 13.5 14s9 9.66699 14 14s12.167 6.5 21.5 6.5s17.333 -1.83301 24 -5.5s12.334 -8.16699 17.001 -13.5s8 -10.666 10 -15.999
s3 -9.33301 3 -12c0 -7.33301 -1.33301 -13.333 -4 -18c-12.667 -26 -29.334 -43.833 -50.001 -53.5s-39.667 -14.5 -57 -14.5c-12 0 -24.333 2 -37 6s-25.167 8.5 -37.5 13.5s-24.166 9.5 -35.499 13.5s-22 6 -32 6c-6 0 -11.167 -2 -15.5 -6s-8.83301 -8.5 -13.5 -13.5
s-9.66699 -9.5 -15 -13.5s-12 -6 -20 -6c-8.66699 0 -16.334 1.66699 -23.001 5s-12.167 7.5 -16.5 12.5s-7.66602 10 -9.99902 15s-3.5 9.5 -3.5 13.5c0 12 3.66699 23.333 11 34s16.333 19.834 27 27.501s22.167 13.667 34.5 18s23.5 6.5 33.5 6.5z" />
    <glyph glyph-name="adieresis" unicode="&#xe4;" horiz-adv-x="529" 
d="M190 190c-10.667 0 -19 -3.66699 -25 -11s-9 -15.333 -9 -24v-3c0 -9.33301 2.83301 -17.833 8.5 -25.5s14.167 -11.5 25.5 -11.5h175v75h-175zM364 293v8.00098c0 13.333 -4.83301 25.833 -14.5 37.5s-26.834 17.5 -51.501 17.5h-137
c-11.333 0 -22.333 3.83301 -33 11.5s-16 21.167 -16 40.5s5.33301 33.833 16 43.5s21.667 14.5 33 14.5h143c60 0 105.167 -15.167 135.5 -45.5s45.5 -74.5 45.5 -132.5v-227c0 -4.66699 -1 -10.5 -3 -17.5s-5.33301 -13.667 -10 -20s-10.667 -11.833 -18 -16.5
s-16.333 -7 -27 -7h-257c-18 0 -35.167 3.5 -51.5 10.5s-30.666 17 -42.999 30s-22 28.5 -29 46.5s-10.5 38.333 -10.5 61v9c0 18 3.16699 35.167 9.5 51.5s15.5 30.666 27.5 42.999s26.667 22.333 44 30s37.333 11.5 60 11.5h187zM384 535.001c-18 0 -33.166 6 -45.499 18
s-18.5 26.333 -18.5 43c0 21.333 6.66699 36.833 20 46.5s27.666 14.5 42.999 14.5c16 0 30.667 -4.83301 44 -14.5s20 -25.167 20 -46.5c0 -16 -6 -30.167 -18 -42.5s-27 -18.5 -45 -18.5zM177.001 535.001c-18 0 -33.166 6 -45.499 18s-18.5 26.333 -18.5 43
c0 21.333 6.66699 36.833 20 46.5s27.666 14.5 42.999 14.5c16 0 30.833 -4.83301 44.5 -14.5s20.5 -25.167 20.5 -46.5c0 -16 -6.16699 -30.167 -18.5 -42.5s-27.5 -18.5 -45.5 -18.5z" />
    <glyph glyph-name="aring" unicode="&#xe5;" horiz-adv-x="529" 
d="M190 190c-10.667 0 -19 -3.66699 -25 -11s-9 -15.333 -9 -24v-3c0 -9.33301 2.83301 -17.833 8.5 -25.5s14.167 -11.5 25.5 -11.5h175v75h-175zM364 293v8.00098c0 13.333 -4.83301 25.833 -14.5 37.5s-26.834 17.5 -51.501 17.5h-137
c-11.333 0 -22.333 3.83301 -33 11.5s-16 21.167 -16 40.5s5.33301 33.833 16 43.5s21.667 14.5 33 14.5h143c60 0 105.167 -15.167 135.5 -45.5s45.5 -74.5 45.5 -132.5v-227c0 -4.66699 -1 -10.5 -3 -17.5s-5.33301 -13.667 -10 -20s-10.667 -11.833 -18 -16.5
s-16.333 -7 -27 -7h-257c-18 0 -35.167 3.5 -51.5 10.5s-30.666 17 -42.999 30s-22 28.5 -29 46.5s-10.5 38.333 -10.5 61v9c0 18 3.16699 35.167 9.5 51.5s15.5 30.666 27.5 42.999s26.667 22.333 44 30s37.333 11.5 60 11.5h187zM225 611.001
c0 -12 4.16699 -22.167 12.5 -30.5s18.833 -12.5 31.5 -12.5c11.333 0 21.166 4.16699 29.499 12.5s12.5 18.5 12.5 30.5s-4.16699 22.333 -12.5 31s-18.166 13 -29.499 13c-12.667 0 -23.167 -4.33301 -31.5 -13s-12.5 -19 -12.5 -31zM149 611.001
c0 16.667 3 32.167 9 46.5s14.5 26.833 25.5 37.5s23.667 19.167 38 25.5s30.166 9.5 47.499 9.5c16 0 31.167 -3.16699 45.5 -9.5s26.833 -14.833 37.5 -25.5s19.167 -23.167 25.5 -37.5s9.5 -29.833 9.5 -46.5s-3.16699 -32.167 -9.5 -46.5s-14.833 -26.833 -25.5 -37.5
s-23.167 -19.167 -37.5 -25.5s-29.5 -9.5 -45.5 -9.5c-17.333 0 -33.166 3.16699 -47.499 9.5s-27 14.833 -38 25.5s-19.5 23.167 -25.5 37.5s-9 29.833 -9 46.5z" />
    <glyph glyph-name="ae" unicode="&#xe6;" horiz-adv-x="825" 
d="M485 182l0.00195312 -9.00098c0 -19.333 7.16699 -34.666 21.5 -45.999s33.5 -17 57.5 -17h133c11.333 0 22.333 -4 33 -12s16 -21.667 16 -41c0 -18 -5.33301 -32 -16 -42s-21.667 -15 -33 -15h-147c-24 -0 -46.333 3.83301 -67 11.5s-38.667 18.167 -54 31.5
c-34 -28.667 -77 -43 -129 -43h-130c-18 0 -35.167 3 -51.5 9s-30.666 14.833 -42.999 26.5s-22 26 -29 43s-10.5 36.833 -10.5 59.5v15c0 36 12.167 65 36.5 87s59.166 33 104.499 33h187v28c0 13.333 -4.83301 24.833 -14.5 34.5s-26.834 14.5 -51.501 14.5h-137
c-11.333 0 -22.333 4.33301 -33 13s-16 22.667 -16 42s5.33301 34.333 16 45s21.667 16 33 16h143c53.333 0 95.333 -12.667 126 -38c33.333 25.333 74.666 38 123.999 38h47c26.667 0 51.5 -4.16699 74.5 -12.5s43 -20.333 60 -36s30.333 -35.167 40 -58.5
s14.5 -50 14.5 -80v-38c0 -5.33301 -1 -11.5 -3 -18.5s-5.5 -13.5 -10.5 -19.5s-11.5 -11 -19.5 -15s-18.333 -6 -31 -6h-241zM365.002 180.999l-175 0.000976562c-10.667 0 -19 -2.66699 -25 -8s-9 -12.333 -9 -21v-8c0 -9.33301 2.83301 -17.333 8.5 -24
s14.167 -10 25.5 -10h96c24 0 43.167 5.66699 57.5 17s21.5 26.666 21.5 45.999v8zM670.002 279c0 22.667 -6.33301 40.167 -19 52.5s-31.667 18.5 -57 18.5h-36c-21.333 0 -38.833 -6.16699 -52.5 -18.5s-20.5 -29.833 -20.5 -52.5v-6h185v6z" />
    <glyph glyph-name="ccedilla" unicode="&#xe7;" horiz-adv-x="443" 
d="M371 -133c0 -10 -2.16699 -20.3379 -6.5 -31.0049s-11 -20.167 -20 -28.5s-20.5 -15.333 -34.5 -21s-30.333 -8.5 -49 -8.5c-10 0 -20.667 0.833008 -32 2.5s-21.5 4.33398 -30.5 8.00098s-16.5 8.33398 -22.5 14.001s-9 12.167 -9 19.5c0 8.66699 3.16699 16.667 9.5 24
s13.166 11 20.499 11c6.66699 0 16 -3 28 -9s23.333 -9 34 -9c12.667 0 21.667 2.83301 27 8.5s8 12.167 8 19.5c0 4 -1.83301 9 -5.5 15s-12.5 9 -26.5 9h-38c-11.333 0 -20.166 3 -26.499 9s-9.5 13.333 -9.5 22c0 4 1 8.66699 3 14l25 64
c-52.667 2.66699 -95.167 18.834 -127.5 48.501s-48.5 74.167 -48.5 133.5v99c0 30.667 4.66699 57.5 14 80.5s22.166 42.167 38.499 57.5s36 27 59 35s48.5 12 76.5 12h141c11.333 0 22.333 -5.16699 33 -15.5s16 -24.5 16 -42.5c0 -19.333 -5.33301 -33.833 -16 -43.5
s-21.667 -14.5 -33 -14.5h-134c-27.333 0 -46.666 -6.66699 -57.999 -20s-17 -31.666 -17 -54.999v-88c0 -21.333 5.33301 -38.666 16 -51.999s30 -20 58 -20h140c11.333 0 22.333 -4.83301 33 -14.5s16 -24.167 16 -43.5c0 -18 -5.16699 -32 -15.5 -42
s-21.833 -15 -34.5 -15h-99l-21 -49h29c25.333 0 46.5 -7.5 63.5 -22.5s25.5 -35.5 25.5 -61.5z" />
    <glyph glyph-name="egrave" unicode="&#xe8;" horiz-adv-x="500" 
d="M345 278c0 22.667 -6.33301 40.334 -19 53.001s-31.667 19 -57 19h-36c-21.333 0 -38.833 -6.33301 -52.5 -19s-20.5 -30.334 -20.5 -53.001v-6h185v6zM276 466c26.667 0 51.499 -4.16699 74.499 -12.5s43 -20.333 60 -36s30.333 -35.167 40 -58.5s14.5 -50 14.5 -80v-39
c0 -5.33301 -1 -11.5 -3 -18.5s-5.5 -13.5 -10.5 -19.5s-11.5 -11.167 -19.5 -15.5s-18.333 -6.5 -31 -6.5h-241v-7c0 -19.333 7.16699 -34.666 21.5 -45.999s33.5 -17 57.5 -17h133c11.333 0 22.333 -4 33 -12s16 -21.667 16 -41c0 -18 -5.33301 -32 -16 -42
s-21.667 -15 -33 -15h-147c-26.667 0 -51.334 4 -74.001 12s-42.167 19.5 -58.5 34.5s-29.166 33.667 -38.499 56s-14 47.833 -14 76.5v100c0 29.333 4.83301 55.666 14.5 78.999s22.834 43 39.501 59s36.5 28.167 59.5 36.5s48.167 12.5 75.5 12.5h47zM141.999 639
c-11.333 12.667 -17.001 27.334 -17.001 44.001c0 15.333 5.66699 28.833 17 40.5s25.333 17.5 42 17.5c13.333 0 24.833 -3.83301 34.5 -11.5s17.167 -16.5 22.5 -26.5l63 -112c5.33301 -8.66699 8 -18.334 8 -29.001c0 -8 -3.16699 -16.333 -9.5 -25
s-16.166 -13 -29.499 -13c-16 0 -29 5.66699 -39 17z" />
    <glyph glyph-name="eacute" unicode="&#xe9;" horiz-adv-x="500" 
d="M345 278c0 22.667 -6.33301 40.334 -19 53.001s-31.667 19 -57 19h-36c-21.333 0 -38.833 -6.33301 -52.5 -19s-20.5 -30.334 -20.5 -53.001v-6h185v6zM276 466c26.667 0 51.499 -4.16699 74.499 -12.5s43 -20.333 60 -36s30.333 -35.167 40 -58.5s14.5 -50 14.5 -80v-39
c0 -5.33301 -1 -11.5 -3 -18.5s-5.5 -13.5 -10.5 -19.5s-11.5 -11.167 -19.5 -15.5s-18.333 -6.5 -31 -6.5h-241v-7c0 -19.333 7.16699 -34.666 21.5 -45.999s33.5 -17 57.5 -17h133c11.333 0 22.333 -4 33 -12s16 -21.667 16 -41c0 -18 -5.33301 -32 -16 -42
s-21.667 -15 -33 -15h-147c-26.667 0 -51.334 4 -74.001 12s-42.167 19.5 -58.5 34.5s-29.166 33.667 -38.499 56s-14 47.833 -14 76.5v100c0 29.333 4.83301 55.666 14.5 78.999s22.834 43 39.501 59s36.5 28.167 59.5 36.5s48.167 12.5 75.5 12.5h47zM282.999 541
c-10 -11.333 -22.667 -17.001 -38 -17.001c-14 0 -24.167 4.33301 -30.5 13s-9.5 17 -9.5 25c0 10.667 2.66699 20.334 8 29.001l63 112c5.33301 10 12.833 18.833 22.5 26.5s21.167 11.5 34.5 11.5c16.667 0 30.667 -5.83301 42 -17.5s17 -25.167 17 -40.5
c0 -7.33301 -1.33301 -15 -4 -23s-7 -15 -13 -21z" />
    <glyph glyph-name="ecircumflex" unicode="&#xea;" horiz-adv-x="500" 
d="M345 278c0 22.667 -6.33301 40.334 -19 53.001s-31.667 19 -57 19h-36c-21.333 0 -38.833 -6.33301 -52.5 -19s-20.5 -30.334 -20.5 -53.001v-6h185v6zM276 466c26.667 0 51.499 -4.16699 74.499 -12.5s43 -20.333 60 -36s30.333 -35.167 40 -58.5s14.5 -50 14.5 -80v-39
c0 -5.33301 -1 -11.5 -3 -18.5s-5.5 -13.5 -10.5 -19.5s-11.5 -11.167 -19.5 -15.5s-18.333 -6.5 -31 -6.5h-241v-7c0 -19.333 7.16699 -34.666 21.5 -45.999s33.5 -17 57.5 -17h133c11.333 0 22.333 -4 33 -12s16 -21.667 16 -41c0 -18 -5.33301 -32 -16 -42
s-21.667 -15 -33 -15h-147c-26.667 0 -51.334 4 -74.001 12s-42.167 19.5 -58.5 34.5s-29.166 33.667 -38.499 56s-14 47.833 -14 76.5v100c0 29.333 4.83301 55.666 14.5 78.999s22.834 43 39.501 59s36.5 28.167 59.5 36.5s48.167 12.5 75.5 12.5h47zM266.999 719
c5.33301 0 10.6689 -0.666016 16.002 -1.99902s10.666 -4.33301 15.999 -9l128 -115c9.33301 -8 14 -17.333 14 -28c0 -13.333 -5.83301 -24.333 -17.5 -33s-22.5 -13 -32.5 -13s-19.667 3.66699 -29 11l-98 81l-108 -83c-8 -6 -16.667 -9 -26 -9
c-16.667 0 -29.334 5.16699 -38.001 15.5s-13 21.166 -13 32.499c0 9.33301 4.33301 18 13 26l140 115c6 5.33301 11.833 8.5 17.5 9.5s11.5 1.5 17.5 1.5z" />
    <glyph glyph-name="edieresis" unicode="&#xeb;" horiz-adv-x="500" 
d="M345 278c0 22.667 -6.33301 40.334 -19 53.001s-31.667 19 -57 19h-36c-21.333 0 -38.833 -6.33301 -52.5 -19s-20.5 -30.334 -20.5 -53.001v-6h185v6zM276 466c26.667 0 51.499 -4.16699 74.499 -12.5s43 -20.333 60 -36s30.333 -35.167 40 -58.5s14.5 -50 14.5 -80v-39
c0 -5.33301 -1 -11.5 -3 -18.5s-5.5 -13.5 -10.5 -19.5s-11.5 -11.167 -19.5 -15.5s-18.333 -6.5 -31 -6.5h-241v-7c0 -19.333 7.16699 -34.666 21.5 -45.999s33.5 -17 57.5 -17h133c11.333 0 22.333 -4 33 -12s16 -21.667 16 -41c0 -18 -5.33301 -32 -16 -42
s-21.667 -15 -33 -15h-147c-26.667 0 -51.334 4 -74.001 12s-42.167 19.5 -58.5 34.5s-29.166 33.667 -38.499 56s-14 47.833 -14 76.5v100c0 29.333 4.83301 55.666 14.5 78.999s22.834 43 39.501 59s36.5 28.167 59.5 36.5s48.167 12.5 75.5 12.5h47zM360.999 535
c-18 0 -33.166 6 -45.499 18s-18.5 26.333 -18.5 43c0 21.333 6.66699 36.833 20 46.5s27.666 14.5 42.999 14.5c16 0 30.667 -4.83301 44 -14.5s20 -25.167 20 -46.5c0 -16 -6 -30.167 -18 -42.5s-27 -18.5 -45 -18.5zM154 535c-18 0 -33.166 6 -45.499 18
s-18.5 26.333 -18.5 43c0 21.333 6.66699 36.833 20 46.5s27.666 14.5 42.999 14.5c16 0 30.833 -4.83301 44.5 -14.5s20.5 -25.167 20.5 -46.5c0 -16 -6.16699 -30.167 -18.5 -42.5s-27.5 -18.5 -45.5 -18.5z" />
    <glyph glyph-name="igrave" unicode="&#xec;" horiz-adv-x="340" 
d="M197 -5c-20 0 -34.999 5 -44.999 15s-15 20.667 -15 32v312h-62c-11.333 0 -22.333 4.83301 -33 14.5s-16 23.5 -16 41.5c0 19.333 5.33301 33.5 16 42.5s21.667 13.5 33 13.5h123c18.667 0 33.167 -5.33301 43.5 -16s15.5 -22.667 15.5 -36v-372
c0 -11.333 -4.83301 -22 -14.5 -32s-24.834 -15 -45.501 -15zM76.001 639c-11.333 12.667 -17.001 27.334 -17.001 44.001c0 15.333 5.66699 28.833 17 40.5s25.333 17.5 42 17.5c13.333 0 24.833 -3.83301 34.5 -11.5s17.167 -16.5 22.5 -26.5l63 -112
c5.33301 -8.66699 8 -18.334 8 -29.001c0 -8 -3.16699 -16.333 -9.5 -25s-16.166 -13 -29.499 -13c-16 0 -29 5.66699 -39 17z" />
    <glyph glyph-name="iacute" unicode="&#xed;" horiz-adv-x="340" 
d="M197 -5c-20 0 -34.999 5 -44.999 15s-15 20.667 -15 32v312h-62c-11.333 0 -22.333 4.83301 -33 14.5s-16 23.5 -16 41.5c0 19.333 5.33301 33.5 16 42.5s21.667 13.5 33 13.5h123c18.667 0 33.167 -5.33301 43.5 -16s15.5 -22.667 15.5 -36v-372
c0 -11.333 -4.83301 -22 -14.5 -32s-24.834 -15 -45.501 -15zM201.001 541c-10 -11.333 -22.667 -17.001 -38 -17.001c-14 0 -24.167 4.33301 -30.5 13s-9.5 17 -9.5 25c0 10.667 2.66699 20.334 8 29.001l63 112c5.33301 10 12.833 18.833 22.5 26.5s21.167 11.5 34.5 11.5
c16.667 0 30.667 -5.83301 42 -17.5s17 -25.167 17 -40.5c0 -7.33301 -1.33301 -15 -4 -23s-7 -15 -13 -21z" />
    <glyph glyph-name="icircumflex" unicode="&#xee;" horiz-adv-x="352" 
d="M203 -5c-20 0 -34.999 5 -44.999 15s-15 20.667 -15 32v312h-62c-11.333 0 -22.333 4.83301 -33 14.5s-16 23.5 -16 41.5c0 19.333 5.33301 33.5 16 42.5s21.667 13.5 33 13.5h123c18.667 0 33.167 -5.33301 43.5 -16s15.5 -22.667 15.5 -36v-372
c0 -11.333 -4.83301 -22 -14.5 -32s-24.834 -15 -45.501 -15zM183.001 719c5.33301 0 10.6689 -0.666016 16.002 -1.99902s10.666 -4.33301 15.999 -9l128 -115c9.33301 -8 14 -17.333 14 -28c0 -13.333 -5.83301 -24.333 -17.5 -33s-22.5 -13 -32.5 -13
s-19.667 3.66699 -29 11l-98 81l-108 -83c-8 -6 -16.667 -9 -26 -9c-16.667 0 -29.334 5.16699 -38.001 15.5s-13 21.166 -13 32.499c0 9.33301 4.33301 18 13 26l140 115c6 5.33301 11.833 8.5 17.5 9.5s11.5 1.5 17.5 1.5z" />
    <glyph glyph-name="idieresis" unicode="&#xef;" horiz-adv-x="340" 
d="M283 535c-18 0 -33.166 6 -45.499 18s-18.5 26.333 -18.5 43c0 21.333 6.66699 36.833 20 46.5s27.666 14.5 42.999 14.5c16 0 30.667 -4.83301 44 -14.5s20 -25.167 20 -46.5c0 -16 -6 -30.167 -18 -42.5s-27 -18.5 -45 -18.5zM76.001 535c-18 0 -33.166 6 -45.499 18
s-18.5 26.333 -18.5 43c0 21.333 6.66699 36.833 20 46.5s27.666 14.5 42.999 14.5c16 0 30.833 -4.83301 44.5 -14.5s20.5 -25.167 20.5 -46.5c0 -16 -6.16699 -30.167 -18.5 -42.5s-27.5 -18.5 -45.5 -18.5zM197.002 -5c-20 0 -34.999 5 -44.999 15s-15 20.667 -15 32v312
h-62c-11.333 0 -22.333 4.83301 -33 14.5s-16 23.5 -16 41.5c0 19.333 5.33301 33.5 16 42.5s21.667 13.5 33 13.5h123c18.667 0 33.167 -5.33301 43.5 -16s15.5 -22.667 15.5 -36v-372c0 -11.333 -4.83301 -22 -14.5 -32s-24.834 -15 -45.501 -15z" />
    <glyph glyph-name="eth" unicode="&#xf0;" horiz-adv-x="508" 
d="M439 603c14.667 -19.333 24.833 -40.8291 30.5 -64.4961s8.5 -48.834 8.5 -75.501v-281c0 -30.667 -5.33301 -57.5 -16 -80.5s-24.834 -42 -42.501 -57s-38.167 -26.167 -61.5 -33.5s-48 -11 -74 -11h-59c-26 0 -50.167 3.66699 -72.5 11s-41.833 18.5 -58.5 33.5
s-29.834 34 -39.501 57s-14.5 49.833 -14.5 80.5v54c0 30.667 5 57.5 15 80.5s23.667 42.167 41 57.5s37.833 27 61.5 35s49.5 12 77.5 12h25c15.333 0 31.833 -1.66699 49.5 -5s33.834 -9.66602 48.501 -18.999v72c0 10 -0.666992 19.333 -2 28s-4 17 -8 25l-36 -33
c-12.667 -11.333 -24 -17 -34 -17c-8.66699 0 -17 4 -25 12s-12 16.667 -12 26c0.666992 5.33301 2.5 11.333 5.5 18s7.5 12.667 13.5 18l25 22c-10.667 3.33301 -22.667 6.16602 -36 8.49902s-28.666 4.16602 -45.999 5.49902
c-10.667 1.33301 -21.334 5.66602 -32.001 12.999s-16 22.333 -16 45c0 10 2 18.333 6 25s9 12 15 16s12.5 6.83301 19.5 8.5s13.833 2.5 20.5 2.5c34 0 65.167 -4.16699 93.5 -12.5s51.5 -17.5 69.5 -27.5l39 35c12.667 11.333 24.334 17 35.001 17
c9.33301 0 17.5 -3.83301 24.5 -11.5s10.5 -15.834 10.5 -24.501c0 -6 -1.5 -12.5 -4.5 -19.5s-7.83301 -13.167 -14.5 -18.5zM234.999 307.004c-27.333 0 -46.668 -6.66699 -58.001 -20s-17 -31.666 -17 -54.999v-48c0 -21.333 5.5 -38.5 16.5 -51.5
s30.167 -19.5 57.5 -19.5h50c27.333 0 46.5 6.5 57.5 19.5s16.5 30.167 16.5 51.5v48c0 23.333 -5.66699 41.666 -17 54.999s-30.666 20 -57.999 20h-48z" />
    <glyph glyph-name="ntilde" unicode="&#xf1;" horiz-adv-x="523" 
d="M423 -5c-21.333 0 -36.668 4.66797 -46.001 14.001s-14 20 -14 32v242c0 25.333 -7.83301 42.833 -23.5 52.5s-34.834 14.5 -57.501 14.5h-116v-309c0 -10.667 -4.66699 -21 -14 -31s-24.666 -15 -45.999 -15c-20 0 -35.167 4.83301 -45.5 14.5s-15.5 20.5 -15.5 32.5
v362c0 6 1 12.5 3 19.5s5.5 13.667 10.5 20s11.5 11.666 19.5 15.999s18.333 6.5 31 6.5h181c58.667 0 105.5 -15.5 140.5 -46.5s52.5 -76.5 52.5 -136.5v-242c0 -10.667 -4.66699 -21 -14 -31s-24.666 -15 -45.999 -15zM157.998 647.001
c12.667 0 25.832 -2.16895 39.499 -6.50195s27 -9 40 -14l35.5 -13.5c10.667 -4 19.667 -6 27 -6c8 0 14.333 2.16699 19 6.5s9.16699 9 13.5 14s9 9.66699 14 14s12.167 6.5 21.5 6.5s17.333 -1.83301 24 -5.5s12.334 -8.16699 17.001 -13.5s8 -10.666 10 -15.999
s3 -9.33301 3 -12c0 -7.33301 -1.33301 -13.333 -4 -18c-12.667 -26 -29.334 -43.833 -50.001 -53.5s-39.667 -14.5 -57 -14.5c-12 0 -24.333 2 -37 6s-25.167 8.5 -37.5 13.5s-24.166 9.5 -35.499 13.5s-22 6 -32 6c-6 0 -11.167 -2 -15.5 -6s-8.83301 -8.5 -13.5 -13.5
s-9.66699 -9.5 -15 -13.5s-12 -6 -20 -6c-8.66699 0 -16.334 1.66699 -23.001 5s-12.167 7.5 -16.5 12.5s-7.66602 10 -9.99902 15s-3.5 9.5 -3.5 13.5c0 12 3.66699 23.333 11 34s16.333 19.834 27 27.501s22.167 13.667 34.5 18s23.5 6.5 33.5 6.5z" />
    <glyph glyph-name="ograve" unicode="&#xf2;" horiz-adv-x="518" 
d="M235 358c-27.333 0 -46.668 -6.66699 -58.001 -20s-17 -31.666 -17 -54.999v-104c0 -21.333 5.5 -38.5 16.5 -51.5s30.167 -19.5 57.5 -19.5h50c27.333 0 46.5 6.5 57.5 19.5s16.5 30.167 16.5 51.5v104c0 23.333 -5.66699 41.666 -17 54.999s-30.666 20 -57.999 20h-48z
M224.998 0c-26 0 -50.1631 3.66699 -72.4961 11s-41.833 18.5 -58.5 33.5s-29.834 34 -39.501 57s-14.5 49.833 -14.5 80.5v99c0 30.667 4.66699 57.5 14 80.5s22.166 42.167 38.499 57.5s36 27 59 35s48.5 12 76.5 12h62c28 0 53.5 -4 76.5 -12s42.667 -19.667 59 -35
s29.166 -34.5 38.499 -57.5s14 -49.833 14 -80.5v-99c0 -30.667 -4.83301 -57.5 -14.5 -80.5s-22.834 -42 -39.501 -57s-36.167 -26.167 -58.5 -33.5s-46.5 -11 -72.5 -11h-68zM150.002 639c-11.333 12.667 -17.001 27.334 -17.001 44.001c0 15.333 5.66699 28.833 17 40.5
s25.333 17.5 42 17.5c13.333 0 24.833 -3.83301 34.5 -11.5s17.167 -16.5 22.5 -26.5l63 -112c5.33301 -8.66699 8 -18.334 8 -29.001c0 -8 -3.16699 -16.333 -9.5 -25s-16.166 -13 -29.499 -13c-16 0 -29 5.66699 -39 17z" />
    <glyph glyph-name="oacute" unicode="&#xf3;" horiz-adv-x="518" 
d="M235 358c-27.333 0 -46.668 -6.66699 -58.001 -20s-17 -31.666 -17 -54.999v-104c0 -21.333 5.5 -38.5 16.5 -51.5s30.167 -19.5 57.5 -19.5h50c27.333 0 46.5 6.5 57.5 19.5s16.5 30.167 16.5 51.5v104c0 23.333 -5.66699 41.666 -17 54.999s-30.666 20 -57.999 20h-48z
M224.998 0c-26 0 -50.1631 3.66699 -72.4961 11s-41.833 18.5 -58.5 33.5s-29.834 34 -39.501 57s-14.5 49.833 -14.5 80.5v99c0 30.667 4.66699 57.5 14 80.5s22.166 42.167 38.499 57.5s36 27 59 35s48.5 12 76.5 12h62c28 0 53.5 -4 76.5 -12s42.667 -19.667 59 -35
s29.166 -34.5 38.499 -57.5s14 -49.833 14 -80.5v-99c0 -30.667 -4.83301 -57.5 -14.5 -80.5s-22.834 -42 -39.501 -57s-36.167 -26.167 -58.5 -33.5s-46.5 -11 -72.5 -11h-68zM271.002 541c-10 -11.333 -22.667 -17.001 -38 -17.001c-14 0 -24.167 4.33301 -30.5 13
s-9.5 17 -9.5 25c0 10.667 2.66699 20.334 8 29.001l63 112c5.33301 10 12.833 18.833 22.5 26.5s21.167 11.5 34.5 11.5c16.667 0 30.667 -5.83301 42 -17.5s17 -25.167 17 -40.5c0 -7.33301 -1.33301 -15 -4 -23s-7 -15 -13 -21z" />
    <glyph glyph-name="ocircumflex" unicode="&#xf4;" horiz-adv-x="518" 
d="M235 358c-27.333 0 -46.668 -6.66699 -58.001 -20s-17 -31.666 -17 -54.999v-104c0 -21.333 5.5 -38.5 16.5 -51.5s30.167 -19.5 57.5 -19.5h50c27.333 0 46.5 6.5 57.5 19.5s16.5 30.167 16.5 51.5v104c0 23.333 -5.66699 41.666 -17 54.999s-30.666 20 -57.999 20h-48z
M224.998 0c-26 0 -50.1631 3.66699 -72.4961 11s-41.833 18.5 -58.5 33.5s-29.834 34 -39.501 57s-14.5 49.833 -14.5 80.5v99c0 30.667 4.66699 57.5 14 80.5s22.166 42.167 38.499 57.5s36 27 59 35s48.5 12 76.5 12h62c28 0 53.5 -4 76.5 -12s42.667 -19.667 59 -35
s29.166 -34.5 38.499 -57.5s14 -49.833 14 -80.5v-99c0 -30.667 -4.83301 -57.5 -14.5 -80.5s-22.834 -42 -39.501 -57s-36.167 -26.167 -58.5 -33.5s-46.5 -11 -72.5 -11h-68zM269.002 719c5.33301 0 10.6689 -0.666016 16.002 -1.99902s10.666 -4.33301 15.999 -9
l128 -115c9.33301 -8 14 -17.333 14 -28c0 -13.333 -5.83301 -24.333 -17.5 -33s-22.5 -13 -32.5 -13s-19.667 3.66699 -29 11l-98 81l-108 -83c-8 -6 -16.667 -9 -26 -9c-16.667 0 -29.334 5.16699 -38.001 15.5s-13 21.166 -13 32.499c0 9.33301 4.33301 18 13 26l140 115
c6 5.33301 11.833 8.5 17.5 9.5s11.5 1.5 17.5 1.5z" />
    <glyph glyph-name="otilde" unicode="&#xf5;" horiz-adv-x="518" 
d="M235 358c-27.333 0 -46.668 -6.66699 -58.001 -20s-17 -31.666 -17 -54.999v-104c0 -21.333 5.5 -38.5 16.5 -51.5s30.167 -19.5 57.5 -19.5h50c27.333 0 46.5 6.5 57.5 19.5s16.5 30.167 16.5 51.5v104c0 23.333 -5.66699 41.666 -17 54.999s-30.666 20 -57.999 20h-48z
M224.998 0c-26 0 -50.1631 3.66699 -72.4961 11s-41.833 18.5 -58.5 33.5s-29.834 34 -39.501 57s-14.5 49.833 -14.5 80.5v99c0 30.667 4.66699 57.5 14 80.5s22.166 42.167 38.499 57.5s36 27 59 35s48.5 12 76.5 12h62c28 0 53.5 -4 76.5 -12s42.667 -19.667 59 -35
s29.166 -34.5 38.499 -57.5s14 -49.833 14 -80.5v-99c0 -30.667 -4.83301 -57.5 -14.5 -80.5s-22.834 -42 -39.501 -57s-36.167 -26.167 -58.5 -33.5s-46.5 -11 -72.5 -11h-68zM181.002 657c12.667 0 25.832 -2.16895 39.499 -6.50195s27 -9 40 -14l35.5 -13.5
c10.667 -4 19.667 -6 27 -6c8 0 14.333 2.16699 19 6.5s9.16699 9 13.5 14s9 9.66699 14 14s12.167 6.5 21.5 6.5s17.333 -1.83301 24 -5.5s12.334 -8.16699 17.001 -13.5s8 -10.666 10 -15.999s3 -9.33301 3 -12c0 -7.33301 -1.33301 -13.333 -4 -18
c-12.667 -26 -29.334 -43.833 -50.001 -53.5s-39.667 -14.5 -57 -14.5c-12 0 -24.333 2 -37 6s-25.167 8.5 -37.5 13.5s-24.166 9.5 -35.499 13.5s-22 6 -32 6c-6 0 -11.167 -2 -15.5 -6s-8.83301 -8.5 -13.5 -13.5s-9.66699 -9.5 -15 -13.5s-12 -6 -20 -6
c-8.66699 0 -16.334 1.66699 -23.001 5s-12.167 7.5 -16.5 12.5s-7.66602 10 -9.99902 15s-3.5 9.5 -3.5 13.5c0 12 3.66699 23.333 11 34s16.333 19.834 27 27.501s22.167 13.667 34.5 18s23.5 6.5 33.5 6.5z" />
    <glyph glyph-name="odieresis" unicode="&#xf6;" horiz-adv-x="518" 
d="M235 358c-27.333 0 -46.668 -6.66699 -58.001 -20s-17 -31.666 -17 -54.999v-104c0 -21.333 5.5 -38.5 16.5 -51.5s30.167 -19.5 57.5 -19.5h50c27.333 0 46.5 6.5 57.5 19.5s16.5 30.167 16.5 51.5v104c0 23.333 -5.66699 41.666 -17 54.999s-30.666 20 -57.999 20h-48z
M224.998 0c-26 0 -50.1631 3.66699 -72.4961 11s-41.833 18.5 -58.5 33.5s-29.834 34 -39.501 57s-14.5 49.833 -14.5 80.5v99c0 30.667 4.66699 57.5 14 80.5s22.166 42.167 38.499 57.5s36 27 59 35s48.5 12 76.5 12h62c28 0 53.5 -4 76.5 -12s42.667 -19.667 59 -35
s29.166 -34.5 38.499 -57.5s14 -49.833 14 -80.5v-99c0 -30.667 -4.83301 -57.5 -14.5 -80.5s-22.834 -42 -39.501 -57s-36.167 -26.167 -58.5 -33.5s-46.5 -11 -72.5 -11h-68zM365.002 535c-18 0 -33.166 6 -45.499 18s-18.5 26.333 -18.5 43
c0 21.333 6.66699 36.833 20 46.5s27.666 14.5 42.999 14.5c16 0 30.667 -4.83301 44 -14.5s20 -25.167 20 -46.5c0 -16 -6 -30.167 -18 -42.5s-27 -18.5 -45 -18.5zM158.003 535c-18 0 -33.166 6 -45.499 18s-18.5 26.333 -18.5 43c0 21.333 6.66699 36.833 20 46.5
s27.666 14.5 42.999 14.5c16 0 30.833 -4.83301 44.5 -14.5s20.5 -25.167 20.5 -46.5c0 -16 -6.16699 -30.167 -18.5 -42.5s-27.5 -18.5 -45.5 -18.5z" />
    <glyph glyph-name="divide" unicode="&#xf7;" horiz-adv-x="520" 
d="M88 269c-16 0 -29.333 4.33301 -40 13s-16 21.667 -16 39c0 18 5.5 31.333 16.5 40s24.167 13 39.5 13h344c15.333 0 28.5 -4.33301 39.5 -13s16.5 -22 16.5 -40c0 -17.333 -5 -30.333 -15 -39s-23.667 -13 -41 -13h-344zM262 95c-20 0 -36.665 6.66699 -49.998 20
s-20 29 -20 47c0 22.667 7.16699 39.5 21.5 50.5s30.166 16.5 47.499 16.5s33.166 -5.5 47.499 -16.5s21.5 -27.833 21.5 -50.5c0 -17.333 -6.33301 -32.833 -19 -46.5s-29 -20.5 -49 -20.5zM262.002 414c-20 0 -36.665 6.66699 -49.998 20s-20 29 -20 47
c0 22.667 7.16699 39.5 21.5 50.5s30.166 16.5 47.499 16.5s33.166 -5.5 47.499 -16.5s21.5 -27.833 21.5 -50.5c0 -17.333 -6.33301 -32.833 -19 -46.5s-29 -20.5 -49 -20.5z" />
    <glyph glyph-name="oslash" unicode="&#xf8;" horiz-adv-x="518" 
d="M225 0c-41.333 0 -76.998 9 -106.998 27l-17 -19c-8 -8.66699 -15.333 -13 -22 -13c-6 0 -13.167 3.66699 -21.5 11s-12.5 14.333 -12.5 21c0 5.33301 3.66699 12.333 11 21l17 19c-10.667 14.667 -18.834 31.5 -24.501 50.5s-8.5 40.5 -8.5 64.5v99
c0 30.667 4.66699 57.5 14 80.5s22.166 42.167 38.499 57.5s36 27 59 35s48.5 12 76.5 12h62c43.333 0 80.333 -9.66699 111 -29l18 20c8 8.66699 16 13 24 13s15.167 -3.33301 21.5 -10s9.5 -13.334 9.5 -20.001c0 -8 -3.33301 -15.667 -10 -23l-19 -21
c10.667 -14.667 18.834 -31.667 24.501 -51s8.5 -40.666 8.5 -63.999v-99c0 -30.667 -4.83301 -57.5 -14.5 -80.5s-22.834 -42 -39.501 -57s-36.167 -26.167 -58.5 -33.5s-46.5 -11 -72.5 -11h-68zM235.002 358c-27.333 0 -46.667 -6.66797 -58 -20.001
s-17 -31.666 -17 -54.999v-104v-13l164 184c-12 5.33301 -25.667 8 -41 8h-48zM358.001 282.999c0 6 -0.333008 10.667 -1 14l-162 -183c10 -4 23 -6 39 -6h50c27.333 0 46.5 6.5 57.5 19.5s16.5 30.167 16.5 51.5v104z" />
    <glyph glyph-name="ugrave" unicode="&#xf9;" horiz-adv-x="523" 
d="M100 471c20 0 34.9971 -4.66797 44.9971 -14.001s15 -20 15 -32v-242c0 -25.333 7.83301 -42.833 23.5 -52.5s34.834 -14.5 57.501 -14.5h116v309c0 10.667 4.83301 21 14.5 31s24.834 15 45.501 15c19.333 0 34.333 -4.83301 45 -14.5s16 -20.5 16 -32.5v-362
c0 -6 -1 -12.5 -3 -19.5s-5.5 -13.667 -10.5 -20s-11.5 -11.666 -19.5 -15.999s-18.333 -6.5 -31 -6.5h-181c-58.667 0 -105.5 15.5 -140.5 46.5s-52.5 76.5 -52.5 136.5v242c0 10.667 4.83301 21 14.5 31s24.834 15 45.501 15zM135.997 638.999
c-11.333 12.667 -17.001 27.334 -17.001 44.001c0 15.333 5.66699 28.833 17 40.5s25.333 17.5 42 17.5c13.333 0 24.833 -3.83301 34.5 -11.5s17.167 -16.5 22.5 -26.5l63 -112c5.33301 -8.66699 8 -18.334 8 -29.001c0 -8 -3.16699 -16.333 -9.5 -25
s-16.166 -13 -29.499 -13c-16 0 -29 5.66699 -39 17z" />
    <glyph glyph-name="uacute" unicode="&#xfa;" horiz-adv-x="523" 
d="M100 471c20 0 34.9971 -4.66797 44.9971 -14.001s15 -20 15 -32v-242c0 -25.333 7.83301 -42.833 23.5 -52.5s34.834 -14.5 57.501 -14.5h116v309c0 10.667 4.83301 21 14.5 31s24.834 15 45.501 15c19.333 0 34.333 -4.83301 45 -14.5s16 -20.5 16 -32.5v-362
c0 -6 -1 -12.5 -3 -19.5s-5.5 -13.667 -10.5 -20s-11.5 -11.666 -19.5 -15.999s-18.333 -6.5 -31 -6.5h-181c-58.667 0 -105.5 15.5 -140.5 46.5s-52.5 76.5 -52.5 136.5v242c0 10.667 4.83301 21 14.5 31s24.834 15 45.501 15zM289.997 540.999
c-10 -11.333 -22.667 -17.001 -38 -17.001c-14 0 -24.167 4.33301 -30.5 13s-9.5 17 -9.5 25c0 10.667 2.66699 20.334 8 29.001l63 112c5.33301 10 12.833 18.833 22.5 26.5s21.167 11.5 34.5 11.5c16.667 0 30.667 -5.83301 42 -17.5s17 -25.167 17 -40.5
c0 -7.33301 -1.33301 -15 -4 -23s-7 -15 -13 -21z" />
    <glyph glyph-name="ucircumflex" unicode="&#xfb;" horiz-adv-x="523" 
d="M100 471c20 0 34.9971 -4.66797 44.9971 -14.001s15 -20 15 -32v-242c0 -25.333 7.83301 -42.833 23.5 -52.5s34.834 -14.5 57.501 -14.5h116v309c0 10.667 4.83301 21 14.5 31s24.834 15 45.501 15c19.333 0 34.333 -4.83301 45 -14.5s16 -20.5 16 -32.5v-362
c0 -6 -1 -12.5 -3 -19.5s-5.5 -13.667 -10.5 -20s-11.5 -11.666 -19.5 -15.999s-18.333 -6.5 -31 -6.5h-181c-58.667 0 -105.5 15.5 -140.5 46.5s-52.5 76.5 -52.5 136.5v242c0 10.667 4.83301 21 14.5 31s24.834 15 45.501 15zM264.997 718.999
c5.33301 0 10.6689 -0.666016 16.002 -1.99902s10.666 -4.33301 15.999 -9l128 -115c9.33301 -8 14 -17.333 14 -28c0 -13.333 -5.83301 -24.333 -17.5 -33s-22.5 -13 -32.5 -13s-19.667 3.66699 -29 11l-98 81l-108 -83c-8 -6 -16.667 -9 -26 -9
c-16.667 0 -29.334 5.16699 -38.001 15.5s-13 21.166 -13 32.499c0 9.33301 4.33301 18 13 26l140 115c6 5.33301 11.833 8.5 17.5 9.5s11.5 1.5 17.5 1.5z" />
    <glyph glyph-name="udieresis" unicode="&#xfc;" horiz-adv-x="523" 
d="M100 471c20 0 34.9971 -4.66797 44.9971 -14.001s15 -20 15 -32v-242c0 -25.333 7.83301 -42.833 23.5 -52.5s34.834 -14.5 57.501 -14.5h116v309c0 10.667 4.83301 21 14.5 31s24.834 15 45.501 15c19.333 0 34.333 -4.83301 45 -14.5s16 -20.5 16 -32.5v-362
c0 -6 -1 -12.5 -3 -19.5s-5.5 -13.667 -10.5 -20s-11.5 -11.666 -19.5 -15.999s-18.333 -6.5 -31 -6.5h-181c-58.667 0 -105.5 15.5 -140.5 46.5s-52.5 76.5 -52.5 136.5v242c0 10.667 4.83301 21 14.5 31s24.834 15 45.501 15zM364.997 534.999c-18 0 -33.166 6 -45.499 18
s-18.5 26.333 -18.5 43c0 21.333 6.66699 36.833 20 46.5s27.666 14.5 42.999 14.5c16 0 30.667 -4.83301 44 -14.5s20 -25.167 20 -46.5c0 -16 -6 -30.167 -18 -42.5s-27 -18.5 -45 -18.5zM157.998 534.999c-18 0 -33.166 6 -45.499 18s-18.5 26.333 -18.5 43
c0 21.333 6.66699 36.833 20 46.5s27.666 14.5 42.999 14.5c16 0 30.833 -4.83301 44.5 -14.5s20.5 -25.167 20.5 -46.5c0 -16 -6.16699 -30.167 -18.5 -42.5s-27.5 -18.5 -45.5 -18.5z" />
    <glyph glyph-name="yacute" unicode="&#xfd;" horiz-adv-x="524" 
d="M479 -18c0 -32.667 -5.33496 -60.5 -16.002 -83.5s-25 -42 -43 -57s-39 -26 -63 -33s-49.333 -10.5 -76 -10.5h-148c-11.333 0 -22.166 5 -32.499 15s-15.5 24.333 -15.5 43c0 19.333 5.16699 33.333 15.5 42s21.166 13 32.499 13h147
c26.667 0 46.334 6.83301 59.001 20.5s19 32.167 19 55.5v13h-124c-60.667 -0 -108.167 15.333 -142.5 46s-51.5 77 -51.5 139v239c0 11.333 4.83301 22 14.5 32s24.834 15 45.501 15c19.333 0 34.333 -5 45 -15s16 -20.667 16 -32v-239c0 -26 7.66699 -44 23 -54
s34.333 -15 57 -15h117v308c0 11.333 5 22 15 32s25 15 45 15c19.333 0 34.333 -5 45 -15s16 -20.667 16 -32v-442zM278.998 541c-10 -11.333 -22.667 -17.001 -38 -17.001c-14 0 -24.167 4.33301 -30.5 13s-9.5 17 -9.5 25c0 10.667 2.66699 20.334 8 29.001l63 112
c5.33301 10 12.833 18.833 22.5 26.5s21.167 11.5 34.5 11.5c16.667 0 30.667 -5.83301 42 -17.5s17 -25.167 17 -40.5c0 -7.33301 -1.33301 -15 -4 -23s-7 -15 -13 -21z" />
    <glyph glyph-name="thorn" unicode="&#xfe;" horiz-adv-x="528" 
d="M165 467h130.999c27.333 0 52.833 -3.83301 76.5 -11.5s44 -19.167 61 -34.5s30.333 -34.333 40 -57s14.5 -49 14.5 -79v-99c0 -30.667 -4.66699 -57.5 -14 -80.5s-22.166 -42.333 -38.499 -58s-36 -27.5 -59 -35.5s-48.5 -12 -76.5 -12h-135v-167
c0 -11.333 -4.83301 -21.5 -14.5 -30.5s-24.5 -13.5 -44.5 -13.5c-19.333 0 -34.333 4.5 -45 13.5s-16 19.167 -16 30.5v817c0 11.333 4.83301 22 14.5 32s24.834 15 45.501 15c19.333 0 34.166 -5 44.499 -15s15.5 -20.667 15.5 -32v-183zM367.999 281
c0 21.333 -5.49902 38.5 -16.499 51.5s-30.167 19.5 -57.5 19.5h-129v-240h128c27.333 0 46.666 6.83301 57.999 20.5s17 32.167 17 55.5v93z" />
    <glyph glyph-name="ydieresis" unicode="&#xff;" horiz-adv-x="524" 
d="M479 -18c0 -32.667 -5.33496 -60.5 -16.002 -83.5s-25 -42 -43 -57s-39 -26 -63 -33s-49.333 -10.5 -76 -10.5h-148c-11.333 0 -22.166 5 -32.499 15s-15.5 24.333 -15.5 43c0 19.333 5.16699 33.333 15.5 42s21.166 13 32.499 13h147
c26.667 0 46.334 6.83301 59.001 20.5s19 32.167 19 55.5v13h-124c-60.667 -0 -108.167 15.333 -142.5 46s-51.5 77 -51.5 139v239c0 11.333 4.83301 22 14.5 32s24.834 15 45.501 15c19.333 0 34.333 -5 45 -15s16 -20.667 16 -32v-239c0 -26 7.66699 -44 23 -54
s34.333 -15 57 -15h117v308c0 11.333 5 22 15 32s25 15 45 15c19.333 0 34.333 -5 45 -15s16 -20.667 16 -32v-442zM366.998 535c-18 0 -33.166 6 -45.499 18s-18.5 26.333 -18.5 43c0 21.333 6.66699 36.833 20 46.5s27.666 14.5 42.999 14.5
c16 0 30.667 -4.83301 44 -14.5s20 -25.167 20 -46.5c0 -16 -6 -30.167 -18 -42.5s-27 -18.5 -45 -18.5zM159.999 535c-18 0 -33.166 6 -45.499 18s-18.5 26.333 -18.5 43c0 21.333 6.66699 36.833 20 46.5s27.666 14.5 42.999 14.5c16 0 30.833 -4.83301 44.5 -14.5
s20.5 -25.167 20.5 -46.5c0 -16 -6.16699 -30.167 -18.5 -42.5s-27.5 -18.5 -45.5 -18.5z" />
    <glyph glyph-name="Amacron" unicode="&#x100;" horiz-adv-x="567" 
d="M281 474l-72 -214h148l-35.5 106.5l-36.5 107.5h-4zM169 149l-39.999 -115.001c-8.66699 -26.667 -26.334 -40 -53.001 -40c-21.333 0 -37.666 5.66699 -48.999 17s-17 24.333 -17 39c0 3.33301 0.333008 7 1 11s1.66699 7.66699 3 11l193 547
c5.33301 14 12.166 25.667 20.499 35s21.833 14 40.5 14h30c18 0 31.333 -4.5 40 -13.5s15.667 -20.833 21 -35.5l194 -547c2.66699 -6 4 -13 4 -21c0 -15.333 -6.33301 -28.666 -19 -39.999s-29 -17 -49 -17c-24 0 -41.333 13.667 -52 41l-42 114h-226zM181.001 705.999
c-18.667 0 -33.5 3.66699 -44.5 11s-16.5 19.666 -16.5 36.999s5.5 29.833 16.5 37.5s25.833 11.5 44.5 11.5h204c18.667 0 33.5 -3.66699 44.5 -11s16.5 -19.666 16.5 -36.999s-5.5 -29.833 -16.5 -37.5s-25.833 -11.5 -44.5 -11.5h-204z" />
    <glyph glyph-name="amacron" unicode="&#x101;" horiz-adv-x="529" 
d="M190 190c-10.667 0 -19 -3.66699 -25 -11s-9 -15.333 -9 -24v-3c0 -9.33301 2.83301 -17.833 8.5 -25.5s14.167 -11.5 25.5 -11.5h175v75h-175zM364 293v8.00098c0 13.333 -4.83301 25.833 -14.5 37.5s-26.834 17.5 -51.501 17.5h-137
c-11.333 0 -22.333 3.83301 -33 11.5s-16 21.167 -16 40.5s5.33301 33.833 16 43.5s21.667 14.5 33 14.5h143c60 0 105.167 -15.167 135.5 -45.5s45.5 -74.5 45.5 -132.5v-227c0 -4.66699 -1 -10.5 -3 -17.5s-5.33301 -13.667 -10 -20s-10.667 -11.833 -18 -16.5
s-16.333 -7 -27 -7h-257c-18 0 -35.167 3.5 -51.5 10.5s-30.666 17 -42.999 30s-22 28.5 -29 46.5s-10.5 38.333 -10.5 61v9c0 18 3.16699 35.167 9.5 51.5s15.5 30.666 27.5 42.999s26.667 22.333 44 30s37.333 11.5 60 11.5h187zM189 515.001
c-18.667 0 -33.5 3.66699 -44.5 11s-16.5 19.666 -16.5 36.999s5.5 29.833 16.5 37.5s25.833 11.5 44.5 11.5h204c18.667 0 33.5 -3.66699 44.5 -11s16.5 -19.666 16.5 -36.999s-5.5 -29.833 -16.5 -37.5s-25.833 -11.5 -44.5 -11.5h-204z" />
    <glyph glyph-name="Abreve" unicode="&#x102;" horiz-adv-x="567" 
d="M281 474l-72 -214h148l-35.5 106.5l-36.5 107.5h-4zM169 149l-39.999 -115.001c-8.66699 -26.667 -26.334 -40 -53.001 -40c-21.333 0 -37.666 5.66699 -48.999 17s-17 24.333 -17 39c0 3.33301 0.333008 7 1 11s1.66699 7.66699 3 11l193 547
c5.33301 14 12.166 25.667 20.499 35s21.833 14 40.5 14h30c18 0 31.333 -4.5 40 -13.5s15.667 -20.833 21 -35.5l194 -547c2.66699 -6 4 -13 4 -21c0 -15.333 -6.33301 -28.666 -19 -39.999s-29 -17 -49 -17c-24 0 -41.333 13.667 -52 41l-42 114h-226zM283.001 799.999
c17.333 0 33.667 5.99707 49 17.9971s30 28.333 44 49c5.33301 8 11.666 13.667 18.999 17s14.666 5 21.999 5c14.667 0 26.334 -4.66699 35.001 -14s13 -18.666 13 -27.999c0 -4.66699 -0.666992 -8.33398 -2 -11.001c-10 -22 -22.167 -41 -36.5 -57
s-29.5 -29.167 -45.5 -39.5s-32.333 -17.833 -49 -22.5s-32 -7 -46 -7c-16 0 -32.167 1.66699 -48.5 5s-32.333 9.5 -48 18.5s-30.5 21.5 -44.5 37.5s-26.333 36.333 -37 61c-2 4.66699 -3 9.33398 -3 14.001c0 8.66699 4.5 18.334 13.5 29.001s21.167 16 36.5 16
c7.33301 0 14.833 -1.66699 22.5 -5s13.834 -8.66602 18.501 -15.999c15.333 -23.333 28.833 -40.833 40.5 -52.5s27.167 -17.5 46.5 -17.5z" />
    <glyph glyph-name="abreve" unicode="&#x103;" horiz-adv-x="529" 
d="M190 190c-10.667 0 -19 -3.66699 -25 -11s-9 -15.333 -9 -24v-3c0 -9.33301 2.83301 -17.833 8.5 -25.5s14.167 -11.5 25.5 -11.5h175v75h-175zM364 293v8.00098c0 13.333 -4.83301 25.833 -14.5 37.5s-26.834 17.5 -51.501 17.5h-137
c-11.333 0 -22.333 3.83301 -33 11.5s-16 21.167 -16 40.5s5.33301 33.833 16 43.5s21.667 14.5 33 14.5h143c60 0 105.167 -15.167 135.5 -45.5s45.5 -74.5 45.5 -132.5v-227c0 -4.66699 -1 -10.5 -3 -17.5s-5.33301 -13.667 -10 -20s-10.667 -11.833 -18 -16.5
s-16.333 -7 -27 -7h-257c-18 0 -35.167 3.5 -51.5 10.5s-30.666 17 -42.999 30s-22 28.5 -29 46.5s-10.5 38.333 -10.5 61v9c0 18 3.16699 35.167 9.5 51.5s15.5 30.666 27.5 42.999s26.667 22.333 44 30s37.333 11.5 60 11.5h187zM271 608.001
c17.333 0 33.667 5.99707 49 17.9971s30 28.333 44 49c5.33301 8 11.666 13.667 18.999 17s14.666 5 21.999 5c14.667 0 26.334 -4.66699 35.001 -14s13 -18.666 13 -27.999c0 -4.66699 -0.666992 -8.33398 -2 -11.001c-10 -22 -22.167 -41 -36.5 -57
s-29.5 -29.167 -45.5 -39.5s-32.333 -17.833 -49 -22.5s-32 -7 -46 -7c-16 0 -32.167 1.66699 -48.5 5s-32.333 9.5 -48 18.5s-30.5 21.5 -44.5 37.5s-26.333 36.333 -37 61c-2 4.66699 -3 9.33398 -3 14.001c0 8.66699 4.5 18.334 13.5 29.001s21.167 16 36.5 16
c7.33301 0 14.833 -1.66699 22.5 -5s13.834 -8.66602 18.501 -15.999c15.333 -23.333 28.833 -40.833 40.5 -52.5s27.167 -17.5 46.5 -17.5z" />
    <glyph glyph-name="Aogonek" unicode="&#x104;" horiz-adv-x="567" 
d="M169 149l-39.998 -115c-8.66699 -26.667 -26.334 -40 -53.001 -40c-21.333 0 -37.666 5.66699 -48.999 17s-17 24.333 -17 39c0 3.33301 0.333008 7 1 11s1.66699 7.66699 3 11l193 547c5.33301 14 12.166 25.667 20.499 35s21.833 14 40.5 14h30
c18 0 31.333 -4.5 40 -13.5s15.667 -20.833 21 -35.5l194 -547c2.66699 -6 4 -13 4 -21c0 -18.667 -7.66699 -33 -23 -43c-16.667 -16 -29.334 -33.5 -38.001 -52.5s-13 -36.167 -13 -51.5c0 -10.667 3.33301 -20 10 -28s18.667 -12 36 -12c4 0 8.66699 0.833008 14 2.5
s10.666 3.5 15.999 5.5l15 5.5c4.66699 1.66699 8.33398 2.5 11.001 2.5c8.66699 0 16.334 -4 23.001 -12s10 -16 10 -24c0 -9.33301 -4 -17.166 -12 -23.499s-17.333 -11.333 -28 -15s-21.167 -6.33398 -31.5 -8.00098s-17.833 -2.5 -22.5 -2.5
c-22 0 -40.667 3.16699 -56 9.5s-27.833 14.5 -37.5 24.5s-16.667 21 -21 33s-6.5 23.667 -6.5 35c0 18 3.66699 36.5 11 55.5s19.666 38.167 36.999 57.5c-5.33301 6 -10 14.333 -14 25l-42 114h-226zM281.002 474l-72 -214h148l-35.5 106.5l-36.5 107.5h-4z" />
    <glyph glyph-name="aogonek" unicode="&#x105;" horiz-adv-x="529" 
d="M364 293l-0.00195312 8.00098c0 13.333 -4.83301 25.833 -14.5 37.5s-26.834 17.5 -51.501 17.5h-137c-11.333 0 -22.333 3.83301 -33 11.5s-16 21.167 -16 40.5s5.33301 33.833 16 43.5s21.667 14.5 33 14.5h143c60 0 105.167 -15.167 135.5 -45.5
s45.5 -74.5 45.5 -132.5v-227c0 -6.66699 -2 -15.167 -6 -25.5s-10.667 -18.833 -20 -25.5c-17.333 -16 -30.666 -33.833 -39.999 -53.5s-14 -37.167 -14 -52.5c0 -10.667 3.33301 -20 10 -28s18.667 -12 36 -12c4 0 8.66699 0.833008 14 2.5s10.666 3.5 15.999 5.5l15 5.5
c4.66699 1.66699 8.33398 2.5 11.001 2.5c8.66699 0 16.334 -4 23.001 -12s10 -16 10 -24c0 -9.33301 -4 -17.166 -12 -23.499s-17.333 -11.333 -28 -15s-21.167 -6.33398 -31.5 -8.00098s-17.833 -2.5 -22.5 -2.5c-22 0 -40.667 3.16699 -56 9.5s-27.833 14.5 -37.5 24.5
s-16.667 21 -21 33s-6.5 23.667 -6.5 35c0 16.667 3 33.5 9 50.5s16.333 34.5 31 52.5h-195c-18 0 -35.167 3.5 -51.5 10.5s-30.666 17 -42.999 30s-22 28.5 -29 46.5s-10.5 38.333 -10.5 61v9c0 18 3.16699 35.167 9.5 51.5s15.5 30.666 27.5 42.999s26.667 22.333 44 30
s37.333 11.5 60 11.5h187zM189.998 190.001c-10.667 0 -19 -3.66699 -25 -11s-9 -15.333 -9 -24v-3c0 -9.33301 2.83301 -17.833 8.5 -25.5s14.167 -11.5 25.5 -11.5h175v75h-175z" />
    <glyph glyph-name="Cacute" unicode="&#x106;" horiz-adv-x="531" 
d="M242 0c-26 0 -50.668 4.16504 -74.001 12.498s-43.833 20.833 -61.5 37.5s-31.5 37.834 -41.5 63.501s-15 56.167 -15 91.5v254c0 34.667 5.16699 65 15.5 91s24.166 47.833 41.499 65.5s37.833 30.834 61.5 39.501s48.5 13 74.5 13h209
c18.667 0 32.334 -5.16699 41.001 -15.5s13 -24.5 13 -42.5s-4.33301 -32.167 -13 -42.5s-22.334 -15.5 -41.001 -15.5h-205c-25.333 0 -44.666 -8 -57.999 -24s-20 -37.333 -20 -64v-261c0 -27.333 6.83301 -48.5 20.5 -63.5s32.834 -22.5 57.501 -22.5l205 -1
c18 0 31.5 -5.16699 40.5 -15.5s13.5 -24.5 13.5 -42.5s-4.5 -32.167 -13.5 -42.5s-22.5 -15.5 -40.5 -15.5h-210zM262.999 693.998c-5.33301 -2 -11.002 -2.99805 -17.002 -2.99805c-10.667 0 -21.167 3.33301 -31.5 10s-15.5 16.667 -15.5 30c0 8.66699 2.5 16.5 7.5 23.5
s10.833 12.5 17.5 16.5l108 70c6 4 12.5 7.33301 19.5 10s14.5 4 22.5 4c5.33301 0 11.333 -1.16699 18 -3.5s12.834 -6 18.501 -11s10.5 -11.167 14.5 -18.5s6 -16 6 -26c0 -12.667 -3.66699 -24.334 -11 -35.001s-17.666 -18.334 -30.999 -23.001z" />
    <glyph glyph-name="cacute" unicode="&#x107;" horiz-adv-x="443" 
d="M232 0c-28.667 0 -54.667 3.66504 -78 10.998s-43.5 18.5 -60.5 33.5s-30.167 34 -39.5 57s-14 49.833 -14 80.5v99c0 30.667 4.66699 57.5 14 80.5s22.166 42.167 38.499 57.5s36 27 59 35s48.5 12 76.5 12h141c11.333 0 22.333 -5.16699 33 -15.5s16 -24.5 16 -42.5
c0 -19.333 -5.33301 -33.833 -16 -43.5s-21.667 -14.5 -33 -14.5h-134c-27.333 0 -46.666 -6.66699 -57.999 -20s-17 -31.666 -17 -54.999v-88c0 -21.333 5.33301 -38.666 16 -51.999s30 -20 58 -20h140c11.333 0 22.333 -4.83301 33 -14.5s16 -24.167 16 -43.5
c0 -18 -5.16699 -32 -15.5 -42s-21.833 -15 -34.5 -15h-141zM264 540.998c-10 -11.333 -22.667 -17.001 -38 -17.001c-14 0 -24.167 4.33301 -30.5 13s-9.5 17 -9.5 25c0 10.667 2.66699 20.334 8 29.001l63 112c5.33301 10 12.833 18.833 22.5 26.5s21.167 11.5 34.5 11.5
c16.667 0 30.667 -5.83301 42 -17.5s17 -25.167 17 -40.5c0 -7.33301 -1.33301 -15 -4 -23s-7 -15 -13 -21z" />
    <glyph glyph-name="Ccircumflex" unicode="&#x108;" horiz-adv-x="531" 
d="M242 0c-26 0 -50.668 4.16504 -74.001 12.498s-43.833 20.833 -61.5 37.5s-31.5 37.834 -41.5 63.501s-15 56.167 -15 91.5v254c0 34.667 5.16699 65 15.5 91s24.166 47.833 41.499 65.5s37.833 30.834 61.5 39.501s48.5 13 74.5 13h209
c18.667 0 32.334 -5.16699 41.001 -15.5s13 -24.5 13 -42.5s-4.33301 -32.167 -13 -42.5s-22.334 -15.5 -41.001 -15.5h-205c-25.333 0 -44.666 -8 -57.999 -24s-20 -37.333 -20 -64v-261c0 -27.333 6.83301 -48.5 20.5 -63.5s32.834 -22.5 57.501 -22.5l205 -1
c18 0 31.5 -5.16699 40.5 -15.5s13.5 -24.5 13.5 -42.5s-4.5 -32.167 -13.5 -42.5s-22.5 -15.5 -40.5 -15.5h-210zM287.999 881.998c11.333 0 23.6689 -4.00098 37.002 -12.001l143 -91c12 -8 18 -18.667 18 -32c0 -6.66699 -1.5 -13.334 -4.5 -20.001
s-6.83301 -12.5 -11.5 -17.5s-10 -9 -16 -12s-11.667 -4.5 -17 -4.5c-10 0 -21.667 3.33301 -35 10l-114 60l-120 -64c-5.33301 -3.33301 -10.5 -5.5 -15.5 -6.5s-10.167 -1.5 -15.5 -1.5c-16.667 0 -29.334 5.83301 -38.001 17.5s-13 23.834 -13 36.501
c0 14.667 6.33301 26 19 34l146 91c7.33301 4.66699 13.666 7.83398 18.999 9.50098s11.333 2.5 18 2.5z" />
    <glyph glyph-name="ccircumflex" unicode="&#x109;" horiz-adv-x="443" 
d="M232 0c-28.667 0 -54.667 3.66504 -78 10.998s-43.5 18.5 -60.5 33.5s-30.167 34 -39.5 57s-14 49.833 -14 80.5v99c0 30.667 4.66699 57.5 14 80.5s22.166 42.167 38.499 57.5s36 27 59 35s48.5 12 76.5 12h141c11.333 0 22.333 -5.16699 33 -15.5s16 -24.5 16 -42.5
c0 -19.333 -5.33301 -33.833 -16 -43.5s-21.667 -14.5 -33 -14.5h-134c-27.333 0 -46.666 -6.66699 -57.999 -20s-17 -31.666 -17 -54.999v-88c0 -21.333 5.33301 -38.666 16 -51.999s30 -20 58 -20h140c11.333 0 22.333 -4.83301 33 -14.5s16 -24.167 16 -43.5
c0 -18 -5.16699 -32 -15.5 -42s-21.833 -15 -34.5 -15h-141zM233 718.998c5.33301 0 10.6689 -0.666016 16.002 -1.99902s10.666 -4.33301 15.999 -9l128 -115c9.33301 -8 14 -17.333 14 -28c0 -13.333 -5.83301 -24.333 -17.5 -33s-22.5 -13 -32.5 -13
s-19.667 3.66699 -29 11l-98 81l-108 -83c-8 -6 -16.667 -9 -26 -9c-16.667 0 -29.334 5.16699 -38.001 15.5s-13 21.166 -13 32.499c0 9.33301 4.33301 18 13 26l140 115c6 5.33301 11.833 8.5 17.5 9.5s11.5 1.5 17.5 1.5z" />
    <glyph glyph-name="Cdotaccent" unicode="&#x10a;" horiz-adv-x="531" 
d="M242 0c-26 0 -50.668 4.16504 -74.001 12.498s-43.833 20.833 -61.5 37.5s-31.5 37.834 -41.5 63.501s-15 56.167 -15 91.5v254c0 34.667 5.16699 65 15.5 91s24.166 47.833 41.499 65.5s37.833 30.834 61.5 39.501s48.5 13 74.5 13h209
c18.667 0 32.334 -5.16699 41.001 -15.5s13 -24.5 13 -42.5s-4.33301 -32.167 -13 -42.5s-22.334 -15.5 -41.001 -15.5h-205c-25.333 0 -44.666 -8 -57.999 -24s-20 -37.333 -20 -64v-261c0 -27.333 6.83301 -48.5 20.5 -63.5s32.834 -22.5 57.501 -22.5l205 -1
c18 0 31.5 -5.16699 40.5 -15.5s13.5 -24.5 13.5 -42.5s-4.5 -32.167 -13.5 -42.5s-22.5 -15.5 -40.5 -15.5h-210zM294.999 700.998c-18 0 -33.667 6.16699 -47 18.5s-20 27.5 -20 45.5c0 21.333 7 37.333 21 48s29 16 45 16c17.333 0 33 -5.33301 47 -16s21 -26.667 21 -48
c0 -18 -6.33301 -33.167 -19 -45.5s-28.667 -18.5 -48 -18.5z" />
    <glyph glyph-name="cdotaccent" unicode="&#x10b;" horiz-adv-x="443" 
d="M232 0c-28.667 0 -54.667 3.66504 -78 10.998s-43.5 18.5 -60.5 33.5s-30.167 34 -39.5 57s-14 49.833 -14 80.5v99c0 30.667 4.66699 57.5 14 80.5s22.166 42.167 38.499 57.5s36 27 59 35s48.5 12 76.5 12h141c11.333 0 22.333 -5.16699 33 -15.5s16 -24.5 16 -42.5
c0 -19.333 -5.33301 -33.833 -16 -43.5s-21.667 -14.5 -33 -14.5h-134c-27.333 0 -46.666 -6.66699 -57.999 -20s-17 -31.666 -17 -54.999v-88c0 -21.333 5.33301 -38.666 16 -51.999s30 -20 58 -20h140c11.333 0 22.333 -4.83301 33 -14.5s16 -24.167 16 -43.5
c0 -18 -5.16699 -32 -15.5 -42s-21.833 -15 -34.5 -15h-141zM249 530.998c-18 0 -33.667 6.16699 -47 18.5s-20 27.5 -20 45.5c0 21.333 7 37.333 21 48s29 16 45 16c17.333 0 33 -5.33301 47 -16s21 -26.667 21 -48c0 -18 -6.33301 -33.167 -19 -45.5
s-28.667 -18.5 -48 -18.5z" />
    <glyph glyph-name="Ccaron" unicode="&#x10c;" horiz-adv-x="531" 
d="M242 0c-26 0 -50.668 4.16504 -74.001 12.498s-43.833 20.833 -61.5 37.5s-31.5 37.834 -41.5 63.501s-15 56.167 -15 91.5v254c0 34.667 5.16699 65 15.5 91s24.166 47.833 41.499 65.5s37.833 30.834 61.5 39.501s48.5 13 74.5 13h209
c18.667 0 32.334 -5.16699 41.001 -15.5s13 -24.5 13 -42.5s-4.33301 -32.167 -13 -42.5s-22.334 -15.5 -41.001 -15.5h-205c-25.333 0 -44.666 -8 -57.999 -24s-20 -37.333 -20 -64v-261c0 -27.333 6.83301 -48.5 20.5 -63.5s32.834 -22.5 57.501 -22.5l205 -1
c18 0 31.5 -5.16699 40.5 -15.5s13.5 -24.5 13.5 -42.5s-4.5 -32.167 -13.5 -42.5s-22.5 -15.5 -40.5 -15.5h-210zM295.999 693.998c-6 0.666992 -11.333 1.50391 -16 2.50391s-10.334 3.5 -17.001 7.5l-132 83c-12 7.33301 -18 17.666 -18 30.999
c0 11.333 4.16699 22.166 12.5 32.499s19.833 15.5 34.5 15.5c10 0 19.333 -2.33301 28 -7l108 -58l102 54c10.667 6 21.334 9 32.001 9c10 0 19.833 -4.83301 29.5 -14.5s14.5 -20.834 14.5 -33.501s-5.33301 -22.334 -16 -29.001l-129 -83
c-10.667 -6.66699 -21.667 -10 -33 -10z" />
    <glyph glyph-name="ccaron" unicode="&#x10d;" horiz-adv-x="443" 
d="M232 0c-28.667 0 -54.667 3.66504 -78 10.998s-43.5 18.5 -60.5 33.5s-30.167 34 -39.5 57s-14 49.833 -14 80.5v99c0 30.667 4.66699 57.5 14 80.5s22.166 42.167 38.499 57.5s36 27 59 35s48.5 12 76.5 12h141c11.333 0 22.333 -5.16699 33 -15.5s16 -24.5 16 -42.5
c0 -19.333 -5.33301 -33.833 -16 -43.5s-21.667 -14.5 -33 -14.5h-134c-27.333 0 -46.666 -6.66699 -57.999 -20s-17 -31.666 -17 -54.999v-88c0 -21.333 5.33301 -38.666 16 -51.999s30 -20 58 -20h140c11.333 0 22.333 -4.83301 33 -14.5s16 -24.167 16 -43.5
c0 -18 -5.16699 -32 -15.5 -42s-21.833 -15 -34.5 -15h-141zM245 518.998c-6 0 -11.834 0.5 -17.501 1.5s-11.5 4.16699 -17.5 9.5l-140 115c-9.33301 8 -14 17.333 -14 28s4.66699 21.167 14 31.5s21.666 15.5 36.999 15.5c10.667 0 19.667 -3.33301 27 -10l108 -83l98 81
c10 8 20.333 12 31 12c10 0 20.5 -4.5 31.5 -13.5s16.5 -19.833 16.5 -32.5c0 -11.333 -4.66699 -21 -14 -29l-128 -115c-5.33301 -4.66699 -10.666 -7.66699 -15.999 -9s-10.666 -2 -15.999 -2z" />
    <glyph glyph-name="Dcaron" unicode="&#x10e;" horiz-adv-x="622" 
d="M452 464c0 28 -7.00098 49.667 -21.001 65s-36.667 23 -68 23h-183v-436h185c30.667 0 52.834 7.5 66.501 22.5s20.5 36.5 20.5 64.5v261zM120.999 0c-40.667 0 -60.999 19.335 -60.999 58.002v552c0 38.667 20.333 58 61 58h267c26.667 0 51.167 -4.33301 73.5 -13
s41.666 -21.5 57.999 -38.5s29.166 -38.5 38.499 -64.5s14 -56.333 14 -91v-254c0 -34 -4.83301 -63.833 -14.5 -89.5s-23.167 -47.334 -40.5 -65.001s-37.666 -30.834 -60.999 -39.501s-49 -13 -77 -13h-258zM298 694.002c-6 0.666992 -11.333 1.50391 -16 2.50391
s-10.334 3.5 -17.001 7.5l-132 83c-12 7.33301 -18 17.666 -18 30.999c0 11.333 4.16699 22.166 12.5 32.499s19.833 15.5 34.5 15.5c10 0 19.333 -2.33301 28 -7l108 -58l102 54c10.667 6 21.334 9 32.001 9c10 0 19.833 -4.83301 29.5 -14.5s14.5 -20.834 14.5 -33.501
s-5.33301 -22.334 -16 -29.001l-129 -83c-10.667 -6.66699 -21.667 -10 -33 -10z" />
    <glyph glyph-name="dcaron" unicode="&#x10f;" horiz-adv-x="644" 
d="M231 0c-57.333 0 -103.666 14.832 -138.999 44.499s-53 74.5 -53 134.5v101c0 30.667 4.66699 57.5 14 80.5s22.166 42.333 38.499 58s36 27.5 59 35.5s48.5 12 76.5 12h135v185c0 11.333 4.83301 21.833 14.5 31.5s24.5 14.5 44.5 14.5
c19.333 0 34.333 -4.83301 45 -14.5s16 -20.167 16 -31.5v-589c0 -6 -1 -12.667 -3 -20s-5.33301 -14.166 -10 -20.499s-10.667 -11.5 -18 -15.5s-16.333 -6 -27 -6h-193zM159 185.999c0 -21.333 5.49902 -38.501 16.499 -51.501s30.167 -19.5 57.5 -19.5h129v235h-128
c-27.333 0 -46.666 -6.66699 -57.999 -20s-17 -31.666 -17 -54.999v-89zM595.999 503.998c-2.66699 -6 -7.49902 -11.835 -14.499 -17.502s-15.833 -8.5 -26.5 -8.5c-18 0 -30.667 5.16699 -38 15.5s-11 19.833 -11 28.5v7l24 120c2.66699 12 8.66699 23 18 33
s22.666 15 39.999 15c21.333 0 37 -6.16699 47 -18.5s15 -25.166 15 -38.499c0 -7.33301 -1.33301 -13.666 -4 -18.999z" />
    <glyph glyph-name="Dcroat" unicode="&#x110;" horiz-adv-x="622" 
d="M121 0c-40.667 0 -60.999 19.335 -60.999 58.002v220h-12c-19.333 0 -35 4 -47 12s-18 21 -18 39c0 18.667 6 32.167 18 40.5s27.667 12.5 47 12.5h12v228c0 38.667 20.333 58 61 58h267c26.667 0 51.167 -4.33301 73.5 -13s41.666 -21.5 57.999 -38.5
s29.166 -38.5 38.499 -64.5s14 -56.333 14 -91v-254c0 -34 -4.83301 -63.833 -14.5 -89.5s-23.167 -47.334 -40.5 -65.001s-37.666 -30.834 -60.999 -39.501s-49 -13 -77 -13h-258zM180.001 278.002l-0.000976562 -162h185c30.667 0 52.834 7.5 66.501 22.5
s20.5 36.5 20.5 64.5v261c0 28 -7 49.667 -21 65s-36.667 23 -68 23h-183v-170h87c20 0 36 -4 48 -12s18 -21 18 -39c0 -18.667 -6 -32.167 -18 -40.5s-28 -12.5 -48 -12.5h-87z" />
    <glyph glyph-name="dcroat" unicode="&#x111;" horiz-adv-x="528" 
d="M230 0c-57.333 0 -103.666 14.832 -138.999 44.499s-53 74.5 -53 134.5v71c0 30.667 4.66699 57.5 14 80.5s22.166 42.333 38.499 58s36 27.5 59 35.5s48.5 12 76.5 12h135v60h-154c-28.667 0 -43 15.667 -43 47s14.333 47 43 47h154v61
c0 11.333 4.83301 21.833 14.5 31.5s24.5 14.5 44.5 14.5c19.333 0 34.333 -4.83301 45 -14.5s16 -20.167 16 -31.5v-61h12c30.667 0 46 -15.667 46 -47s-15.333 -47 -46 -47h-12v-434c0 -6 -1 -12.667 -3 -20s-5.33301 -14.166 -10 -20.499s-10.667 -11.5 -18 -15.5
s-16.333 -6 -27 -6h-193zM158 185.999c0 -21.333 5.49902 -38.501 16.499 -51.501s30.167 -19.5 57.5 -19.5h129v205h-128c-27.333 0 -46.666 -6.66699 -57.999 -20s-17 -31.666 -17 -54.999v-59z" />
    <glyph glyph-name="Emacron" unicode="&#x112;" horiz-adv-x="534" 
d="M121 0c-40.667 0 -61 19.333 -61 58v552c0 38.667 20.333 58 61 58h331c18 0 31.5 -5.16699 40.5 -15.5s13.5 -24.5 13.5 -42.5s-4.5 -32.167 -13.5 -42.5s-22.5 -15.5 -40.5 -15.5h-272v-142h230c18 0 31.167 -5.16699 39.5 -15.5s12.5 -24.5 12.5 -42.5
s-4.16699 -32 -12.5 -42s-21.5 -15 -39.5 -15h-230v-179h272c18 0 31.5 -5.16699 40.5 -15.5s13.5 -24.5 13.5 -42.5s-4.5 -32.167 -13.5 -42.5s-22.5 -15.5 -40.5 -15.5h-331zM179 706c-18.667 0 -33.5 3.66699 -44.5 11s-16.5 19.666 -16.5 36.999s5.5 29.833 16.5 37.5
s25.833 11.5 44.5 11.5h204c18.667 0 33.5 -3.66699 44.5 -11s16.5 -19.666 16.5 -36.999s-5.5 -29.833 -16.5 -37.5s-25.833 -11.5 -44.5 -11.5h-204z" />
    <glyph glyph-name="emacron" unicode="&#x113;" horiz-adv-x="500" 
d="M345 278c0 22.667 -6.33301 40.334 -19 53.001s-31.667 19 -57 19h-36c-21.333 0 -38.833 -6.33301 -52.5 -19s-20.5 -30.334 -20.5 -53.001v-6h185v6zM276 466c26.667 0 51.499 -4.16699 74.499 -12.5s43 -20.333 60 -36s30.333 -35.167 40 -58.5s14.5 -50 14.5 -80v-39
c0 -5.33301 -1 -11.5 -3 -18.5s-5.5 -13.5 -10.5 -19.5s-11.5 -11.167 -19.5 -15.5s-18.333 -6.5 -31 -6.5h-241v-7c0 -19.333 7.16699 -34.666 21.5 -45.999s33.5 -17 57.5 -17h133c11.333 0 22.333 -4 33 -12s16 -21.667 16 -41c0 -18 -5.33301 -32 -16 -42
s-21.667 -15 -33 -15h-147c-26.667 0 -51.334 4 -74.001 12s-42.167 19.5 -58.5 34.5s-29.166 33.667 -38.499 56s-14 47.833 -14 76.5v100c0 29.333 4.83301 55.666 14.5 78.999s22.834 43 39.501 59s36.5 28.167 59.5 36.5s48.167 12.5 75.5 12.5h47zM148.999 515
c-18.667 0 -33.5 3.66699 -44.5 11s-16.5 19.666 -16.5 36.999s5.5 29.833 16.5 37.5s25.833 11.5 44.5 11.5h204c18.667 0 33.5 -3.66699 44.5 -11s16.5 -19.666 16.5 -36.999s-5.5 -29.833 -16.5 -37.5s-25.833 -11.5 -44.5 -11.5h-204z" />
    <glyph glyph-name="Ebreve" unicode="&#x114;" horiz-adv-x="534" 
d="M121 0c-40.667 0 -61 19.333 -61 58v552c0 38.667 20.333 58 61 58h331c18 0 31.5 -5.16699 40.5 -15.5s13.5 -24.5 13.5 -42.5s-4.5 -32.167 -13.5 -42.5s-22.5 -15.5 -40.5 -15.5h-272v-142h230c18 0 31.167 -5.16699 39.5 -15.5s12.5 -24.5 12.5 -42.5
s-4.16699 -32 -12.5 -42s-21.5 -15 -39.5 -15h-230v-179h272c18 0 31.5 -5.16699 40.5 -15.5s13.5 -24.5 13.5 -42.5s-4.5 -32.167 -13.5 -42.5s-22.5 -15.5 -40.5 -15.5h-331zM317 800c17.333 0 33.667 5.99707 49 17.9971s30 28.333 44 49
c5.33301 8 11.666 13.667 18.999 17s14.666 5 21.999 5c14.667 0 26.334 -4.66699 35.001 -14s13 -18.666 13 -27.999c0 -4.66699 -0.666992 -8.33398 -2 -11.001c-10 -22 -22.167 -41 -36.5 -57s-29.5 -29.167 -45.5 -39.5s-32.333 -17.833 -49 -22.5s-32 -7 -46 -7
c-16 0 -32.167 1.66699 -48.5 5s-32.333 9.5 -48 18.5s-30.5 21.5 -44.5 37.5s-26.333 36.333 -37 61c-2 4.66699 -3 9.33398 -3 14.001c0 8.66699 4.5 18.334 13.5 29.001s21.167 16 36.5 16c7.33301 0 14.833 -1.66699 22.5 -5s13.834 -8.66602 18.501 -15.999
c15.333 -23.333 28.833 -40.833 40.5 -52.5s27.167 -17.5 46.5 -17.5z" />
    <glyph glyph-name="ebreve" unicode="&#x115;" horiz-adv-x="500" 
d="M345 278c0 22.667 -6.33301 40.334 -19 53.001s-31.667 19 -57 19h-36c-21.333 0 -38.833 -6.33301 -52.5 -19s-20.5 -30.334 -20.5 -53.001v-6h185v6zM276 466c26.667 0 51.499 -4.16699 74.499 -12.5s43 -20.333 60 -36s30.333 -35.167 40 -58.5s14.5 -50 14.5 -80v-39
c0 -5.33301 -1 -11.5 -3 -18.5s-5.5 -13.5 -10.5 -19.5s-11.5 -11.167 -19.5 -15.5s-18.333 -6.5 -31 -6.5h-241v-7c0 -19.333 7.16699 -34.666 21.5 -45.999s33.5 -17 57.5 -17h133c11.333 0 22.333 -4 33 -12s16 -21.667 16 -41c0 -18 -5.33301 -32 -16 -42
s-21.667 -15 -33 -15h-147c-26.667 0 -51.334 4 -74.001 12s-42.167 19.5 -58.5 34.5s-29.166 33.667 -38.499 56s-14 47.833 -14 76.5v100c0 29.333 4.83301 55.666 14.5 78.999s22.834 43 39.501 59s36.5 28.167 59.5 36.5s48.167 12.5 75.5 12.5h47zM250.999 608
c17.333 0 33.667 5.99707 49 17.9971s30 28.333 44 49c5.33301 8 11.666 13.667 18.999 17s14.666 5 21.999 5c14.667 0 26.334 -4.66699 35.001 -14s13 -18.666 13 -27.999c0 -4.66699 -0.666992 -8.33398 -2 -11.001c-10 -22 -22.167 -41 -36.5 -57
s-29.5 -29.167 -45.5 -39.5s-32.333 -17.833 -49 -22.5s-32 -7 -46 -7c-16 0 -32.167 1.66699 -48.5 5s-32.333 9.5 -48 18.5s-30.5 21.5 -44.5 37.5s-26.333 36.333 -37 61c-2 4.66699 -3 9.33398 -3 14.001c0 8.66699 4.5 18.334 13.5 29.001s21.167 16 36.5 16
c7.33301 0 14.833 -1.66699 22.5 -5s13.834 -8.66602 18.501 -15.999c15.333 -23.333 28.833 -40.833 40.5 -52.5s27.167 -17.5 46.5 -17.5z" />
    <glyph glyph-name="Edotaccent" unicode="&#x116;" horiz-adv-x="534" 
d="M121 0c-40.667 0 -61 19.333 -61 58v552c0 38.667 20.333 58 61 58h331c18 0 31.5 -5.16699 40.5 -15.5s13.5 -24.5 13.5 -42.5s-4.5 -32.167 -13.5 -42.5s-22.5 -15.5 -40.5 -15.5h-272v-142h230c18 0 31.167 -5.16699 39.5 -15.5s12.5 -24.5 12.5 -42.5
s-4.16699 -32 -12.5 -42s-21.5 -15 -39.5 -15h-230v-179h272c18 0 31.5 -5.16699 40.5 -15.5s13.5 -24.5 13.5 -42.5s-4.5 -32.167 -13.5 -42.5s-22.5 -15.5 -40.5 -15.5h-331zM293 701c-18 0 -33.667 6.16699 -47 18.5s-20 27.5 -20 45.5c0 21.333 7 37.333 21 48
s29 16 45 16c17.333 0 33 -5.33301 47 -16s21 -26.667 21 -48c0 -18 -6.33301 -33.167 -19 -45.5s-28.667 -18.5 -48 -18.5z" />
    <glyph glyph-name="edotaccent" unicode="&#x117;" horiz-adv-x="500" 
d="M345 278c0 22.667 -6.33301 40.334 -19 53.001s-31.667 19 -57 19h-36c-21.333 0 -38.833 -6.33301 -52.5 -19s-20.5 -30.334 -20.5 -53.001v-6h185v6zM276 466c26.667 0 51.499 -4.16699 74.499 -12.5s43 -20.333 60 -36s30.333 -35.167 40 -58.5s14.5 -50 14.5 -80v-39
c0 -5.33301 -1 -11.5 -3 -18.5s-5.5 -13.5 -10.5 -19.5s-11.5 -11.167 -19.5 -15.5s-18.333 -6.5 -31 -6.5h-241v-7c0 -19.333 7.16699 -34.666 21.5 -45.999s33.5 -17 57.5 -17h133c11.333 0 22.333 -4 33 -12s16 -21.667 16 -41c0 -18 -5.33301 -32 -16 -42
s-21.667 -15 -33 -15h-147c-26.667 0 -51.334 4 -74.001 12s-42.167 19.5 -58.5 34.5s-29.166 33.667 -38.499 56s-14 47.833 -14 76.5v100c0 29.333 4.83301 55.666 14.5 78.999s22.834 43 39.501 59s36.5 28.167 59.5 36.5s48.167 12.5 75.5 12.5h47zM255.999 531
c-18 0 -33.667 6.16699 -47 18.5s-20 27.5 -20 45.5c0 21.333 7 37.333 21 48s29 16 45 16c17.333 0 33 -5.33301 47 -16s21 -26.667 21 -48c0 -18 -6.33301 -33.167 -19 -45.5s-28.667 -18.5 -48 -18.5z" />
    <glyph glyph-name="Eogonek" unicode="&#x118;" horiz-adv-x="534" 
d="M506 58c0 -26.667 -9.00098 -44.333 -27.001 -53c-18 -16 -31.667 -34 -41 -54s-14 -37.667 -14 -53c0 -10.667 3.33301 -20 10 -28s18.667 -12 36 -12c4 0 8.66699 0.833008 14 2.5s10.666 3.5 15.999 5.5l15 5.5c4.66699 1.66699 8.33398 2.5 11.001 2.5
c8.66699 0 16.334 -4 23.001 -12s10 -16 10 -24c0 -9.33301 -4 -17.166 -12 -23.499s-17.333 -11.333 -28 -15s-21.167 -6.33398 -31.5 -8.00098s-17.833 -2.5 -22.5 -2.5c-22 0 -40.667 3.16699 -56 9.5s-27.833 14.5 -37.5 24.5s-16.667 21 -21 33s-6.5 23.667 -6.5 35
c0 17.333 3.33301 35 10 53s18 36.667 34 56h-267c-40.667 -0 -61 19.333 -61 58v552c0 38.667 20.333 58 61 58h331c18 0 31.5 -5.16699 40.5 -15.5s13.5 -24.5 13.5 -42.5s-4.5 -32.167 -13.5 -42.5s-22.5 -15.5 -40.5 -15.5h-272v-142h230
c18 0 31.167 -5.16699 39.5 -15.5s12.5 -24.5 12.5 -42.5s-4.16699 -32 -12.5 -42s-21.5 -15 -39.5 -15h-230v-179h272c18 0 31.5 -5.16699 40.5 -15.5s13.5 -24.5 13.5 -42.5z" />
    <glyph glyph-name="eogonek" unicode="&#x119;" horiz-adv-x="500" 
d="M276 466c26.667 0 51.499 -4.16699 74.499 -12.5s43 -20.333 60 -36s30.333 -35.167 40 -58.5s14.5 -50 14.5 -80v-39c0 -5.33301 -1 -11.5 -3 -18.5s-5.5 -13.5 -10.5 -19.5s-11.5 -11.167 -19.5 -15.5s-18.333 -6.5 -31 -6.5h-241v-7
c0 -19.333 7.16699 -34.666 21.5 -45.999s33.5 -17 57.5 -17h133c11.333 0 22.333 -4 33 -12s16 -21.667 16 -41c0 -10 -1.83301 -18.833 -5.5 -26.5s-8.16699 -13.834 -13.5 -18.501c-18.667 -16.667 -32.834 -35.167 -42.501 -55.5s-14.5 -38.166 -14.5 -53.499
c0 -10.667 3.33301 -20 10 -28s18.667 -12 36 -12c4 0 8.66699 0.833008 14 2.5s10.666 3.5 15.999 5.5l15 5.5c4.66699 1.66699 8.33398 2.5 11.001 2.5c8.66699 0 16.334 -4 23.001 -12s10 -16 10 -24c0 -9.33301 -4 -17.166 -12 -23.499s-17.333 -11.333 -28 -15
s-21.167 -6.33398 -31.5 -8.00098s-17.833 -2.5 -22.5 -2.5c-22 0 -40.667 3.16699 -56 9.5s-27.833 14.5 -37.5 24.5s-16.667 21 -21 33s-6.5 23.667 -6.5 35c0 16.667 3 33.667 9 51s16.333 35 31 53h-80c-26.667 0 -51.334 4 -74.001 12s-42.167 19.5 -58.5 34.5
s-29.166 33.667 -38.499 56s-14 47.833 -14 76.5v100c0 29.333 4.83301 55.666 14.5 78.999s22.834 43 39.501 59s36.5 28.167 59.5 36.5s48.167 12.5 75.5 12.5h47zM344.999 278c0 22.667 -6.33301 40.334 -19 53.001s-31.667 19 -57 19h-36
c-21.333 0 -38.833 -6.33301 -52.5 -19s-20.5 -30.334 -20.5 -53.001v-6h185v6z" />
    <glyph glyph-name="Ecaron" unicode="&#x11a;" horiz-adv-x="534" 
d="M121 0c-40.667 0 -61 19.333 -61 58v552c0 38.667 20.333 58 61 58h331c18 0 31.5 -5.16699 40.5 -15.5s13.5 -24.5 13.5 -42.5s-4.5 -32.167 -13.5 -42.5s-22.5 -15.5 -40.5 -15.5h-272v-142h230c18 0 31.167 -5.16699 39.5 -15.5s12.5 -24.5 12.5 -42.5
s-4.16699 -32 -12.5 -42s-21.5 -15 -39.5 -15h-230v-179h272c18 0 31.5 -5.16699 40.5 -15.5s13.5 -24.5 13.5 -42.5s-4.5 -32.167 -13.5 -42.5s-22.5 -15.5 -40.5 -15.5h-331zM274 694c-6 0.666992 -11.333 1.50391 -16 2.50391s-10.334 3.5 -17.001 7.5l-132 83
c-12 7.33301 -18 17.666 -18 30.999c0 11.333 4.16699 22.166 12.5 32.499s19.833 15.5 34.5 15.5c10 0 19.333 -2.33301 28 -7l108 -58l102 54c10.667 6 21.334 9 32.001 9c10 0 19.833 -4.83301 29.5 -14.5s14.5 -20.834 14.5 -33.501s-5.33301 -22.334 -16 -29.001
l-129 -83c-10.667 -6.66699 -21.667 -10 -33 -10z" />
    <glyph glyph-name="ecaron" unicode="&#x11b;" horiz-adv-x="500" 
d="M345 278c0 22.667 -6.33301 40.334 -19 53.001s-31.667 19 -57 19h-36c-21.333 0 -38.833 -6.33301 -52.5 -19s-20.5 -30.334 -20.5 -53.001v-6h185v6zM276 466c26.667 0 51.499 -4.16699 74.499 -12.5s43 -20.333 60 -36s30.333 -35.167 40 -58.5s14.5 -50 14.5 -80v-39
c0 -5.33301 -1 -11.5 -3 -18.5s-5.5 -13.5 -10.5 -19.5s-11.5 -11.167 -19.5 -15.5s-18.333 -6.5 -31 -6.5h-241v-7c0 -19.333 7.16699 -34.666 21.5 -45.999s33.5 -17 57.5 -17h133c11.333 0 22.333 -4 33 -12s16 -21.667 16 -41c0 -18 -5.33301 -32 -16 -42
s-21.667 -15 -33 -15h-147c-26.667 0 -51.334 4 -74.001 12s-42.167 19.5 -58.5 34.5s-29.166 33.667 -38.499 56s-14 47.833 -14 76.5v100c0 29.333 4.83301 55.666 14.5 78.999s22.834 43 39.501 59s36.5 28.167 59.5 36.5s48.167 12.5 75.5 12.5h47zM259.999 519
c-6 0 -11.834 0.5 -17.501 1.5s-11.5 4.16699 -17.5 9.5l-140 115c-9.33301 8 -14 17.333 -14 28s4.66699 21.167 14 31.5s21.666 15.5 36.999 15.5c10.667 0 19.667 -3.33301 27 -10l108 -83l98 81c10 8 20.333 12 31 12c10 0 20.5 -4.5 31.5 -13.5
s16.5 -19.833 16.5 -32.5c0 -11.333 -4.66699 -21 -14 -29l-128 -115c-5.33301 -4.66699 -10.666 -7.66699 -15.999 -9s-10.666 -2 -15.999 -2z" />
    <glyph glyph-name="Gcircumflex" unicode="&#x11c;" horiz-adv-x="587" 
d="M243 0c-26 0 -50.8359 4.33008 -74.5029 12.9971s-44.167 21.834 -61.5 39.501s-31.166 39.334 -41.499 65.001s-15.5 55.5 -15.5 89.5v254c0 34.667 5.5 65 16.5 91s25.5 47.5 43.5 64.5s38.5 29.833 61.5 38.5s46.833 13 71.5 13h212
c18.667 0 32.667 -5.16699 42 -15.5s14 -24.5 14 -42.5s-4.66699 -32.167 -14 -42.5s-23.333 -15.5 -42 -15.5h-195c-31.333 0 -54.166 -7.66699 -68.499 -23s-21.5 -37 -21.5 -65v-261c0 -28 7.33301 -49.5 22 -64.5s37.334 -22.5 68.001 -22.5h162v179h-83
c-18 0 -31.667 5.16699 -41 15.5s-14 24.5 -14 42.5s4.66699 32 14 42s23 15 41 15h143c18 0 32.5 -3.66699 43.5 -11s16.5 -22.666 16.5 -45.999v-295c0 -18 -4.66699 -32.167 -14 -42.5s-24 -15.5 -44 -15.5h-241zM290.997 881.997
c11.333 0 23.6689 -4.00098 37.002 -12.001l143 -91c12 -8 18 -18.667 18 -32c0 -6.66699 -1.5 -13.334 -4.5 -20.001s-6.83301 -12.5 -11.5 -17.5s-10 -9 -16 -12s-11.667 -4.5 -17 -4.5c-10 0 -21.667 3.33301 -35 10l-114 60l-120 -64
c-5.33301 -3.33301 -10.5 -5.5 -15.5 -6.5s-10.167 -1.5 -15.5 -1.5c-16.667 0 -29.334 5.83301 -38.001 17.5s-13 23.834 -13 36.501c0 14.667 6.33301 26 19 34l146 91c7.33301 4.66699 13.666 7.83398 18.999 9.50098s11.333 2.5 18 2.5z" />
    <glyph glyph-name="gcircumflex" unicode="&#x11d;" horiz-adv-x="528" 
d="M481 -20c0 -59.333 -17.833 -104.502 -53.5 -135.502s-83.834 -46.5 -144.501 -46.5h-146c-11.333 0 -22.5 5 -33.5 15s-16.5 24.333 -16.5 43c0 19.333 5.5 33.333 16.5 42s22.167 13 33.5 13h145c52.667 0 79 24.667 79 74v15h-135c-28 0 -53.5 3.83301 -76.5 11.5
s-42.667 19.334 -59 35.001s-29.166 35 -38.499 58s-14 49.833 -14 80.5v100c0 30 4.83301 56.333 14.5 79s23 41.667 40 57s37.333 26.833 61 34.5s49.167 11.5 76.5 11.5h193c10.667 0 19.667 -2 27 -6s13.333 -9.16699 18 -15.5s8 -13.166 10 -20.499s3 -14 3 -20v-425z
M158 191.998c0 -23.333 5.66797 -41.667 17.001 -55s30.666 -20 57.999 -20h128v235h-129c-27.333 0 -46.5 -6.5 -57.5 -19.5s-16.5 -30.167 -16.5 -51.5v-89zM259.001 718.997c5.33301 0 10.6689 -0.666016 16.002 -1.99902s10.666 -4.33301 15.999 -9l128 -115
c9.33301 -8 14 -17.333 14 -28c0 -13.333 -5.83301 -24.333 -17.5 -33s-22.5 -13 -32.5 -13s-19.667 3.66699 -29 11l-98 81l-108 -83c-8 -6 -16.667 -9 -26 -9c-16.667 0 -29.334 5.16699 -38.001 15.5s-13 21.166 -13 32.499c0 9.33301 4.33301 18 13 26l140 115
c6 5.33301 11.833 8.5 17.5 9.5s11.5 1.5 17.5 1.5z" />
    <glyph glyph-name="Gbreve" unicode="&#x11e;" horiz-adv-x="587" 
d="M243 0c-26 0 -50.8359 4.33008 -74.5029 12.9971s-44.167 21.834 -61.5 39.501s-31.166 39.334 -41.499 65.001s-15.5 55.5 -15.5 89.5v254c0 34.667 5.5 65 16.5 91s25.5 47.5 43.5 64.5s38.5 29.833 61.5 38.5s46.833 13 71.5 13h212
c18.667 0 32.667 -5.16699 42 -15.5s14 -24.5 14 -42.5s-4.66699 -32.167 -14 -42.5s-23.333 -15.5 -42 -15.5h-195c-31.333 0 -54.166 -7.66699 -68.499 -23s-21.5 -37 -21.5 -65v-261c0 -28 7.33301 -49.5 22 -64.5s37.334 -22.5 68.001 -22.5h162v179h-83
c-18 0 -31.667 5.16699 -41 15.5s-14 24.5 -14 42.5s4.66699 32 14 42s23 15 41 15h143c18 0 32.5 -3.66699 43.5 -11s16.5 -22.666 16.5 -45.999v-295c0 -18 -4.66699 -32.167 -14 -42.5s-24 -15.5 -44 -15.5h-241zM315.997 799.997c17.333 0 33.667 5.99707 49 17.9971
s30 28.333 44 49c5.33301 8 11.666 13.667 18.999 17s14.666 5 21.999 5c14.667 0 26.334 -4.66699 35.001 -14s13 -18.666 13 -27.999c0 -4.66699 -0.666992 -8.33398 -2 -11.001c-10 -22 -22.167 -41 -36.5 -57s-29.5 -29.167 -45.5 -39.5s-32.333 -17.833 -49 -22.5
s-32 -7 -46 -7c-16 0 -32.167 1.66699 -48.5 5s-32.333 9.5 -48 18.5s-30.5 21.5 -44.5 37.5s-26.333 36.333 -37 61c-2 4.66699 -3 9.33398 -3 14.001c0 8.66699 4.5 18.334 13.5 29.001s21.167 16 36.5 16c7.33301 0 14.833 -1.66699 22.5 -5
s13.834 -8.66602 18.501 -15.999c15.333 -23.333 28.833 -40.833 40.5 -52.5s27.167 -17.5 46.5 -17.5z" />
    <glyph glyph-name="gbreve" unicode="&#x11f;" horiz-adv-x="528" 
d="M481 -20c0 -59.333 -17.833 -104.502 -53.5 -135.502s-83.834 -46.5 -144.501 -46.5h-146c-11.333 0 -22.5 5 -33.5 15s-16.5 24.333 -16.5 43c0 19.333 5.5 33.333 16.5 42s22.167 13 33.5 13h145c52.667 0 79 24.667 79 74v15h-135c-28 0 -53.5 3.83301 -76.5 11.5
s-42.667 19.334 -59 35.001s-29.166 35 -38.499 58s-14 49.833 -14 80.5v100c0 30 4.83301 56.333 14.5 79s23 41.667 40 57s37.333 26.833 61 34.5s49.167 11.5 76.5 11.5h193c10.667 0 19.667 -2 27 -6s13.333 -9.16699 18 -15.5s8 -13.166 10 -20.499s3 -14 3 -20v-425z
M158 191.998c0 -23.333 5.66797 -41.667 17.001 -55s30.666 -20 57.999 -20h128v235h-129c-27.333 0 -46.5 -6.5 -57.5 -19.5s-16.5 -30.167 -16.5 -51.5v-89zM264.001 607.997c17.333 0 33.667 5.99707 49 17.9971s30 28.333 44 49c5.33301 8 11.666 13.667 18.999 17
s14.666 5 21.999 5c14.667 0 26.334 -4.66699 35.001 -14s13 -18.666 13 -27.999c0 -4.66699 -0.666992 -8.33398 -2 -11.001c-10 -22 -22.167 -41 -36.5 -57s-29.5 -29.167 -45.5 -39.5s-32.333 -17.833 -49 -22.5s-32 -7 -46 -7c-16 0 -32.167 1.66699 -48.5 5
s-32.333 9.5 -48 18.5s-30.5 21.5 -44.5 37.5s-26.333 36.333 -37 61c-2 4.66699 -3 9.33398 -3 14.001c0 8.66699 4.5 18.334 13.5 29.001s21.167 16 36.5 16c7.33301 0 14.833 -1.66699 22.5 -5s13.834 -8.66602 18.501 -15.999c15.333 -23.333 28.833 -40.833 40.5 -52.5
s27.167 -17.5 46.5 -17.5z" />
    <glyph glyph-name="Gdotaccent" unicode="&#x120;" horiz-adv-x="587" 
d="M243 0c-26 0 -50.8359 4.33008 -74.5029 12.9971s-44.167 21.834 -61.5 39.501s-31.166 39.334 -41.499 65.001s-15.5 55.5 -15.5 89.5v254c0 34.667 5.5 65 16.5 91s25.5 47.5 43.5 64.5s38.5 29.833 61.5 38.5s46.833 13 71.5 13h212
c18.667 0 32.667 -5.16699 42 -15.5s14 -24.5 14 -42.5s-4.66699 -32.167 -14 -42.5s-23.333 -15.5 -42 -15.5h-195c-31.333 0 -54.166 -7.66699 -68.499 -23s-21.5 -37 -21.5 -65v-261c0 -28 7.33301 -49.5 22 -64.5s37.334 -22.5 68.001 -22.5h162v179h-83
c-18 0 -31.667 5.16699 -41 15.5s-14 24.5 -14 42.5s4.66699 32 14 42s23 15 41 15h143c18 0 32.5 -3.66699 43.5 -11s16.5 -22.666 16.5 -45.999v-295c0 -18 -4.66699 -32.167 -14 -42.5s-24 -15.5 -44 -15.5h-241zM317.997 700.997c-18 0 -33.667 6.16699 -47 18.5
s-20 27.5 -20 45.5c0 21.333 7 37.333 21 48s29 16 45 16c17.333 0 33 -5.33301 47 -16s21 -26.667 21 -48c0 -18 -6.33301 -33.167 -19 -45.5s-28.667 -18.5 -48 -18.5z" />
    <glyph glyph-name="gdotaccent" unicode="&#x121;" horiz-adv-x="528" 
d="M481 -20c0 -59.333 -17.833 -104.502 -53.5 -135.502s-83.834 -46.5 -144.501 -46.5h-146c-11.333 0 -22.5 5 -33.5 15s-16.5 24.333 -16.5 43c0 19.333 5.5 33.333 16.5 42s22.167 13 33.5 13h145c52.667 0 79 24.667 79 74v15h-135c-28 0 -53.5 3.83301 -76.5 11.5
s-42.667 19.334 -59 35.001s-29.166 35 -38.499 58s-14 49.833 -14 80.5v100c0 30 4.83301 56.333 14.5 79s23 41.667 40 57s37.333 26.833 61 34.5s49.167 11.5 76.5 11.5h193c10.667 0 19.667 -2 27 -6s13.333 -9.16699 18 -15.5s8 -13.166 10 -20.499s3 -14 3 -20v-425z
M158 191.998c0 -23.333 5.66797 -41.667 17.001 -55s30.666 -20 57.999 -20h128v235h-129c-27.333 0 -46.5 -6.5 -57.5 -19.5s-16.5 -30.167 -16.5 -51.5v-89zM287.001 530.997c-18 0 -33.667 6.16699 -47 18.5s-20 27.5 -20 45.5c0 21.333 7 37.333 21 48s29 16 45 16
c17.333 0 33 -5.33301 47 -16s21 -26.667 21 -48c0 -18 -6.33301 -33.167 -19 -45.5s-28.667 -18.5 -48 -18.5z" />
    </font>
</defs>
</svg>
