<svg width="50" height="50" viewBox="0 0 50 50" fill="none" xmlns="http://www.w3.org/2000/svg">
<path d="M47.9805 30.5692L45.9234 19.7239C45.702 18.7684 45.2606 17.8777 44.6344 17.1228L45.8418 15.9118C45.9699 15.7837 46.0418 15.61 46.0418 15.4288C46.0418 15.2477 45.9699 15.0739 45.8418 14.9458L45.6074 14.7114C46.0042 14.4205 46.3373 14.0516 46.5863 13.6274C46.8354 13.2031 46.9952 12.7324 47.0559 12.2442C47.0708 11.6827 46.9693 11.1241 46.7578 10.6036C46.611 10.2344 46.5238 9.84429 46.4992 9.44775C46.4992 9.26645 46.4272 9.09258 46.299 8.96438C46.1708 8.83618 45.9969 8.76416 45.8156 8.76416C45.6343 8.76416 45.4604 8.83618 45.3322 8.96438C45.2041 9.09258 45.132 9.26645 45.132 9.44775C45.1533 9.99128 45.2643 10.5275 45.4605 11.0349C45.6073 11.3845 45.686 11.7589 45.6926 12.138C45.6351 12.4627 45.5119 12.7722 45.3305 13.0476C45.1491 13.323 44.9135 13.5585 44.6379 13.7396L44.1852 13.2868C44.0546 13.1633 43.8817 13.0945 43.702 13.0945C43.5222 13.0945 43.3493 13.1633 43.2188 13.2868L41.3926 15.1173C40.9717 15.0201 40.5413 14.9703 40.1094 14.9688H26.3672C14.5973 14.9688 5.9457 24.8677 3.32031 34.8188H2.53906C2.35776 34.8188 2.18389 34.8909 2.05569 35.0191C1.92749 35.1473 1.85547 35.3211 1.85547 35.5024V38.2724C1.85547 38.4537 1.92749 38.6275 2.05569 38.7557C2.18389 38.8839 2.35776 38.956 2.53906 38.956H44.1484C44.3297 38.9559 44.5035 38.8838 44.6317 38.7556C44.7599 38.6274 44.8319 38.4536 44.832 38.2724V35.6474C44.8422 35.6002 44.8475 35.5522 44.8477 35.504C44.8477 33.2251 45.6711 31.9431 47.5184 31.3474C47.677 31.2962 47.8114 31.1889 47.8965 31.0457C47.9816 30.9024 48.0114 30.733 47.9805 30.5692ZM43.7031 14.7403L44.393 15.4302L43.6508 16.1755C43.3852 15.9727 43.103 15.7928 42.807 15.6376L43.7031 14.7403ZM3.22266 37.5888V36.186H3.83398H3.84766H43.4648V37.5872L3.22266 37.5888ZM43.5043 34.8188H4.73203C7.32852 25.497 15.4273 16.336 26.3672 16.336H40.1094C41.2557 16.3394 42.3573 16.7809 43.1887 17.57C43.1945 17.5763 43.1984 17.5833 43.2047 17.5895C43.2199 17.6048 43.2375 17.6161 43.2539 17.6286C43.916 18.2772 44.3784 19.1019 44.5863 20.0052L46.5297 30.2563C44.6613 31.0517 43.6664 32.552 43.5043 34.8188Z" fill="#B0CB23"/>
<path d="M31.0882 31.3047H19.3953C19.214 31.3047 19.0401 31.3767 18.9119 31.5049C18.7837 31.6331 18.7117 31.807 18.7117 31.9883C18.7117 32.1696 18.7837 32.3435 18.9119 32.4717C19.0401 32.5999 19.214 32.6719 19.3953 32.6719H31.0882C31.2695 32.6719 31.4434 32.5999 31.5716 32.4717C31.6998 32.3435 31.7718 32.1696 31.7718 31.9883C31.7718 31.807 31.6998 31.6331 31.5716 31.5049C31.4434 31.3767 31.2695 31.3047 31.0882 31.3047Z" fill="#B0CB23"/>
<path d="M42.0629 20.5712C42.0147 20.3043 41.8777 20.0616 41.6741 19.8825C41.4705 19.7033 41.2123 19.5983 40.9414 19.5845H28.9309C24.2523 19.5845 20.1574 22.7485 18.741 27.4579C18.7103 27.56 18.7039 27.6678 18.7223 27.7727C18.7407 27.8777 18.7834 27.9769 18.847 28.0624C18.9105 28.1479 18.9932 28.2174 19.0885 28.2652C19.1837 28.3131 19.2888 28.338 19.3953 28.338H42.3641C42.5313 28.3365 42.6959 28.2963 42.845 28.2205C42.9941 28.1447 43.1236 28.0355 43.2235 27.9013C43.3571 27.7298 43.4502 27.5302 43.4956 27.3175C43.5411 27.1049 43.5378 26.8847 43.486 26.6735L42.0629 20.5712ZM30.6106 26.9708V25.0567H34.1309V26.9708H30.6106ZM35.4981 26.9708V24.3751C35.4981 24.1938 35.426 24.0199 35.2978 23.8917C35.1696 23.7635 34.9958 23.6915 34.8145 23.6915H29.927C29.7457 23.6915 29.5718 23.7635 29.4436 23.8917C29.3154 24.0199 29.2434 24.1938 29.2434 24.3751V26.9716H20.3578C21.8148 23.336 25.1574 20.9524 28.9309 20.9524H40.7473L42.1535 26.9716L35.4981 26.9708Z" fill="#B0CB23"/>
</svg>
