<svg width="20" height="20" viewBox="0 0 20 20" fill="none" xmlns="http://www.w3.org/2000/svg">
<path d="M16.0293 6.25C14.3069 6.25 12.9043 4.84833 12.9043 3.125C12.9043 1.40167 14.3069 0 16.0293 0C17.7519 0 19.1543 1.40167 19.1543 3.125C19.1543 4.84833 17.7519 6.25 16.0293 6.25ZM16.0293 1.25C14.996 1.25 14.1543 2.09076 14.1543 3.125C14.1543 4.15924 14.996 5 16.0293 5C17.0626 5 17.9043 4.15924 17.9043 3.125C17.9043 2.09076 17.0626 1.25 16.0293 1.25Z" fill="#1D0B14"/>
<path d="M16.0293 20C14.3069 20 12.9043 18.5983 12.9043 16.875C12.9043 15.1517 14.3069 13.75 16.0293 13.75C17.7519 13.75 19.1543 15.1517 19.1543 16.875C19.1543 18.5983 17.7519 20 16.0293 20ZM16.0293 15C14.996 15 14.1543 15.8408 14.1543 16.875C14.1543 17.9092 14.996 18.75 16.0293 18.75C17.0626 18.75 17.9043 17.9092 17.9043 16.875C17.9043 15.8408 17.0626 15 16.0293 15Z" fill="#1D0B14"/>
<path d="M3.94531 13.125C2.22275 13.125 0.820312 11.7233 0.820312 10C0.820312 8.27667 2.22275 6.875 3.94531 6.875C5.66788 6.875 7.07031 8.27667 7.07031 10C7.07031 11.7233 5.66788 13.125 3.94531 13.125ZM3.94531 8.125C2.91199 8.125 2.07031 8.96576 2.07031 10C2.07031 11.0342 2.91199 11.875 3.94531 11.875C4.97864 11.875 5.82031 11.0342 5.82031 10C5.82031 8.96576 4.97864 8.125 3.94531 8.125Z" fill="#1D0B14"/>
<path d="M6.12163 9.3913C5.90404 9.3913 5.6924 9.27793 5.57827 9.07636C5.40737 8.77637 5.51159 8.39459 5.81157 8.22385L13.5441 3.81543C13.8432 3.64301 14.2257 3.74799 14.3957 4.04889C14.5666 4.34888 14.4624 4.7305 14.1624 4.9014L6.42986 9.30966C6.33235 9.3646 6.22661 9.3913 6.12163 9.3913Z" fill="#1D0B14"/>
<path d="M13.8524 16.2667C13.7475 16.2667 13.6416 16.24 13.5441 16.1843L5.81151 11.7759C5.51152 11.6052 5.40745 11.2234 5.5782 10.9234C5.74818 10.6227 6.12996 10.5184 6.42994 10.6901L14.1623 15.0983C14.4623 15.2692 14.5665 15.6509 14.3958 15.9508C14.2807 16.1533 14.0691 16.2667 13.8524 16.2667Z" fill="#1D0B14"/>
</svg>
