<svg width="49" height="49" viewBox="0 0 49 49" fill="none" xmlns="http://www.w3.org/2000/svg">
<path d="M2.75491 41.3417C2.96118 41.5996 3.22677 41.8037 3.52901 41.9367C3.83126 42.0696 4.16118 42.1275 4.49063 42.1053C4.82009 42.0832 5.13929 41.9816 5.421 41.8094C5.70272 41.6372 5.93858 41.3993 6.10846 41.1162L9.18764 35.9842L9.2305 35.9585C10.4139 35.2484 11.7401 34.8096 13.1134 34.6736C14.4868 34.5376 15.8732 34.7079 17.1729 35.172H17.1729C21.4242 36.6904 26.0618 36.7397 30.3445 35.3122L30.3445 35.3121C33.2606 34.3401 35.894 32.6682 38.0143 30.4427C40.1345 28.2172 41.6771 25.506 42.5069 22.5463L46.7033 7.57861L41.9035 10.3088C39.5536 11.6455 36.953 12.4826 34.2646 12.7677C31.5762 13.0528 28.8579 12.7797 26.2799 11.9656L26.2798 11.9656C24.3122 11.3443 22.2235 11.2073 20.1915 11.5664C18.1595 11.9254 16.2443 12.77 14.6087 14.0281L14.6087 14.0281C13.148 15.1517 11.9469 16.5772 11.0872 18.2072C10.2276 19.8373 9.72969 21.6336 9.62747 23.4736L9.2948 29.4615C9.22411 30.734 8.89361 31.9785 8.32366 33.1184L7.65639 34.453L3.00538 38.5226C2.60858 38.8698 2.36106 39.3567 2.3144 39.8819C2.26774 40.4071 2.42554 40.93 2.75491 41.3417Z" fill="#A0CC00"/>
<path d="M25.9943 30.6692C25.8748 30.8122 25.7053 30.9042 25.5204 30.9266C25.3354 30.9491 25.1489 30.9001 24.9987 30.7899C23.7005 29.8431 22.206 29.2005 20.6258 28.9095C19.0456 28.6185 17.4202 28.6866 15.8699 29.1088L12.4558 30.0388C12.363 30.064 12.2661 30.0708 12.1707 30.0586C12.0753 30.0464 11.9832 30.0156 11.8997 29.9678C11.8162 29.92 11.743 29.8563 11.6841 29.7802C11.6253 29.7041 11.582 29.6172 11.5568 29.5244L11.5393 29.4598C11.4884 29.2725 11.5139 29.0726 11.6103 28.9042C11.7067 28.7357 11.8661 28.6124 12.0534 28.5614L15.467 27.6316C17.2405 27.1486 19.1 27.0709 20.9075 27.4045C22.7151 27.738 24.4244 28.4742 25.9087 29.5584C25.9893 29.6176 26.0569 29.6927 26.1073 29.779C26.1577 29.8653 26.19 29.9611 26.202 30.0603C26.2141 30.1596 26.2056 30.2602 26.1773 30.3561C26.1489 30.452 26.1012 30.5411 26.0372 30.6178L25.9943 30.6692Z" fill="#85B200"/>
<path d="M34.4275 25.3065C34.3281 25.4665 34.1707 25.5818 33.9883 25.6285C33.8058 25.6751 33.6124 25.6494 33.4484 25.5567C29.8 23.4674 25.5171 22.7738 21.3957 23.6047L19.0691 24.07C19.0536 24.0731 19.0382 24.0767 19.0229 24.0808L16.8402 24.6667C16.6526 24.7171 16.4528 24.6909 16.2846 24.5939C16.1164 24.4969 15.9936 24.337 15.9432 24.1495L15.9259 24.0848C15.901 23.9919 15.8946 23.8951 15.9071 23.7997C15.9196 23.7044 15.9507 23.6125 15.9988 23.5292C16.0468 23.4459 16.1108 23.3729 16.187 23.3143C16.2633 23.2557 16.3503 23.2128 16.4432 23.1878L18.6499 22.5955L18.7442 22.5734L21.0954 22.1031C25.5763 21.1997 30.2329 21.9528 34.2006 24.2229C34.2868 24.2716 34.3622 24.3372 34.4224 24.4158C34.4826 24.4944 34.5263 24.5844 34.5508 24.6803C34.5753 24.7762 34.5802 24.8761 34.5651 24.974C34.55 25.0718 34.5153 25.1656 34.463 25.2497L34.4275 25.3065Z" fill="#85B200"/>
<path d="M36.6774 21.9199C35.876 21.9197 35.0756 21.8625 34.2823 21.7489L32.048 21.4298L27.6936 20.7725C27.5016 20.7435 27.329 20.6394 27.2137 20.4832C27.0985 20.3269 27.05 20.1313 27.079 19.9393L27.089 19.8731C27.1033 19.7781 27.1362 19.6867 27.1859 19.6044C27.2355 19.5221 27.3009 19.4503 27.3783 19.3932C27.4556 19.3361 27.5435 19.2949 27.6368 19.2717C27.7301 19.2486 27.8271 19.2441 27.9222 19.2584L32.2705 19.9148L34.4989 20.233C36.2338 20.4826 37.9987 20.4316 39.7163 20.0822C39.9003 20.0458 40.0912 20.0817 40.2494 20.1824C40.4076 20.2832 40.521 20.441 40.5659 20.6231L40.5821 20.6878C40.606 20.7841 40.6101 20.8843 40.5942 20.9823C40.5783 21.0802 40.5426 21.1739 40.4895 21.2577C40.4363 21.3416 40.3667 21.4137 40.2849 21.4698C40.203 21.526 40.1106 21.5649 40.0133 21.5844C38.9153 21.8073 37.7978 21.9197 36.6774 21.9199Z" fill="#85B200"/>
<path d="M14.2545 25.2845C14.0924 25.3909 13.8946 25.4286 13.7047 25.3894C13.5148 25.3502 13.3482 25.2372 13.2414 25.0752L12.956 24.6421C12.1355 23.4203 11.822 21.9274 12.0815 20.4787C12.1001 20.3752 12.1406 20.2768 12.2005 20.1904C12.2604 20.1039 12.3382 20.0314 12.4287 19.9776C12.5191 19.9239 12.62 19.8902 12.7246 19.879C12.8291 19.8677 12.9349 19.8791 13.0347 19.9123L13.0987 19.9336C13.2663 19.9908 13.4078 20.1063 13.4973 20.2591C13.5868 20.412 13.6183 20.5919 13.5861 20.766C13.4029 21.8202 13.6336 22.9044 14.23 23.7926L14.4182 24.0749L14.522 24.2331C14.5748 24.3135 14.6112 24.4035 14.6292 24.4979C14.6472 24.5924 14.6464 24.6894 14.6268 24.7836C14.6073 24.8777 14.5694 24.9671 14.5153 25.0466C14.4613 25.1261 14.3921 25.1942 14.3117 25.2469L14.2545 25.2845Z" fill="#85B200"/>
<path d="M19.9397 22.5006H19.8728C19.6786 22.5006 19.4924 22.4235 19.3551 22.2861C19.2178 22.1488 19.1406 21.9626 19.1406 21.7684V18.8385C19.1389 17.1574 19.5677 15.5039 20.3859 14.0354C20.435 13.9466 20.5019 13.869 20.5825 13.8074C20.663 13.7458 20.7554 13.7016 20.8539 13.6775C20.9524 13.6534 21.0549 13.65 21.1547 13.6675C21.2546 13.6849 21.3498 13.7229 21.4343 13.779L21.4903 13.8163C21.6437 13.9192 21.7526 14.0762 21.7953 14.2558C21.8381 14.4355 21.8115 14.6247 21.7209 14.7856C21.0316 16.0251 20.6705 17.4202 20.6719 18.8385V21.7684C20.6719 21.9626 20.5947 22.1488 20.4574 22.2861C20.3201 22.4235 20.1339 22.5006 19.9397 22.5006Z" fill="#85B200"/>
<path d="M25.6778 19.5411L25.6143 19.52C25.5231 19.4896 25.4388 19.4415 25.3661 19.3785C25.2935 19.3155 25.234 19.2388 25.191 19.1528C25.148 19.0669 25.1223 18.9732 25.1155 18.8773C25.1087 18.7814 25.1208 18.6851 25.1512 18.5939L25.3049 18.1329C25.7729 16.7404 26.7658 15.5855 28.0723 14.9139C28.1663 14.8658 28.2695 14.8386 28.375 14.8342C28.4805 14.8297 28.5857 14.8481 28.6834 14.888C28.7811 14.928 28.869 14.9886 28.9411 15.0657C29.0132 15.1428 29.0678 15.2345 29.1012 15.3347L29.1223 15.3981C29.1769 15.5659 29.1695 15.7476 29.1017 15.9104C29.0339 16.0732 28.91 16.2064 28.7525 16.2858C27.8108 16.7754 27.0957 17.611 26.7576 18.6171L26.6039 19.0781C26.5425 19.2623 26.4104 19.4146 26.2368 19.5014C26.0631 19.5882 25.862 19.6025 25.6778 19.5411Z" fill="#85B200"/>
<path d="M46.7031 7.57861L41.9725 14.1659C40.3566 16.4162 38.2281 18.2494 35.7631 19.5139C33.298 20.7783 30.5674 21.4377 27.797 21.4374C24.7832 21.4374 21.8208 22.2179 19.1982 23.7028C16.5756 25.1878 14.3823 27.3266 12.8319 29.9109L9.18749 35.9843L6.10872 41.1159C5.95664 41.3695 5.75141 41.5872 5.50716 41.7539C5.26291 41.9206 4.98544 42.0324 4.69385 42.0816C4.40225 42.1309 4.10345 42.1163 3.81801 42.0391C3.53257 41.9618 3.26725 41.8236 3.04033 41.6339C2.81341 41.4443 2.63027 41.2078 2.5035 40.9406C2.37674 40.6734 2.30936 40.3819 2.30601 40.0862C2.30266 39.7905 2.36341 39.4976 2.48409 39.2276C2.60477 38.9577 2.7825 38.717 3.00507 38.5223L7.65624 34.453L10.8288 28.396C12.4123 25.3735 14.7926 22.842 17.7119 21.0756C20.6311 19.3092 23.9781 18.3752 27.3902 18.3749C31.9418 18.3748 36.3372 16.7146 39.7522 13.7055L46.7031 7.57861Z" fill="#85B200"/>
<path d="M9.18749 35.9844L6.10872 41.116C5.95664 41.3696 5.75141 41.5873 5.50716 41.754C5.26291 41.9207 4.98544 42.0325 4.69385 42.0818C4.40225 42.131 4.10345 42.1165 3.81801 42.0392C3.53257 41.9619 3.26725 41.8237 3.04033 41.634C2.81341 41.4444 2.63027 41.2079 2.5035 40.9407C2.37674 40.6735 2.30936 40.3821 2.30601 40.0864C2.30266 39.7907 2.36341 39.4977 2.48409 39.2278C2.60477 38.9578 2.7825 38.7171 3.00507 38.5224L7.65624 34.4531L9.18749 35.9844Z" fill="#719600"/>
</svg>
