<svg id="_30" data-name="30" xmlns="http://www.w3.org/2000/svg" viewBox="0 0 512 512"><defs><style>.cls-1{fill:#b0cb1f;}</style></defs><title>3</title><path class="cls-1" d="M324.86,126V88a39.18,39.18,0,0,0,24.58-36.57c0-21.77-18-39.48-40.06-39.48H202a39.47,39.47,0,0,0-14.92,76l0,38.08A193.42,193.42,0,0,0,256,500.1h.63c106.28-.33,192.75-87.08,192.75-193.38A193.61,193.61,0,0,0,324.86,126ZM185.43,68A23.48,23.48,0,0,1,202,27.9H309.38c13.27,0,24.06,10.53,24.06,23.48a23.27,23.27,0,0,1-17.59,22.69H196.13A23.4,23.4,0,0,1,185.43,68ZM256.6,484.1H256a177.41,177.41,0,0,1-58.3-345,8,8,0,0,0,5.37-7.54l.05-41.54H308.86v41.51a8,8,0,0,0,5.37,7.55A177.6,177.6,0,0,1,433.38,306.72C433.38,404.22,354.07,483.8,256.6,484.1Z"/><path class="cls-1" d="M394.94,266.5A54.58,54.58,0,0,0,356,250c-15.52,0-29.33,6.81-47.65,23.5a8,8,0,1,0,10.78,11.83C334.2,271.64,344.88,266,356,266a38.5,38.5,0,0,1,27.47,11.61,39.12,39.12,0,0,1,10.8,28.62A38.26,38.26,0,0,1,356,342.67c-25.18,0-46.92,0-85.85-48-24-29.64-51.12-63.23-92.33-63.23a75.7,75.7,0,0,0-75.6,79.36,154.17,154.17,0,0,0,154,149h.46a153.1,153.1,0,0,0,109-45.85c28.57-28.87,44.81-68,44.57-107.29A54.88,54.88,0,0,0,394.94,266.5ZM354.32,402.69a137.18,137.18,0,0,1-97.65,41.11h-.44a137.48,137.48,0,0,1-138-133.54v-.11a59.68,59.68,0,0,1,59.61-62.68c33.57,0,58.18,30.43,79.9,57.3,19.61,24.16,36.83,39,54.18,46.69,16.28,7.21,30.42,7.21,44.1,7.21a54.14,54.14,0,0,0,31.55-10.07A139.42,139.42,0,0,1,354.32,402.69Z"/></svg>