<svg id="Capa_1" data-name="Capa 1" xmlns="http://www.w3.org/2000/svg" viewBox="0 0 512 512"><defs><style>.cls-1{fill:#b0cb1f;}</style></defs><title>11</title><path class="cls-1" d="M466.87,428l-47.11-60.57c12.36-5.91,23.1-13.67,29.87-25.43,12.32-21.29,6.75-47.29,1.36-72.39a197.8,197.8,0,0,1-5.82-39.39A197.28,197.28,0,0,1,451,190.79c5.35-25.13,11-51.1-1.36-72.37-12.76-22-38.45-30.2-63.3-38.08a184.37,184.37,0,0,1-35.75-14,174.58,174.58,0,0,1-28.64-23.21C303.51,26,282.6,6.64,256,6.64S208.49,26,190.05,43.12a175,175,0,0,1-28.63,23.22,184.18,184.18,0,0,1-35.74,14c-24.85,7.87-50.54,16-63.3,38.08-12.32,21.3-6.75,47.29-1.36,72.4a197.26,197.26,0,0,1,5.81,39.41A196.55,196.55,0,0,1,61,269.62c-5.35,25.12-11,51.1,1.36,72.36,6.78,11.77,17.52,19.53,29.9,25.44L45.13,428a16.59,16.59,0,0,0,15.16,26.65L115,447.81l13.29,46.51a16.63,16.63,0,0,0,16,12h0a16.5,16.5,0,0,0,13.1-6.41l51.88-66.74c14.12,11.47,29.17,20.58,46.72,20.58h.14c17.55,0,32.6-9.11,46.72-20.58l51.86,66.69a16.75,16.75,0,0,0,13.13,6.46,16.34,16.34,0,0,0,3.16-.31,16.51,16.51,0,0,0,12.8-11.73L397,447.81l54.67,6.83A16.6,16.6,0,0,0,466.87,428ZM144.7,490.13a.62.62,0,0,1-.48.23h-.11a.61.61,0,0,1-.46-.43l-15.18-53.1a8,8,0,0,0-8.68-5.74l-61.48,7.68a.61.61,0,0,1-.45-.12.59.59,0,0,1-.22-.4.61.61,0,0,1,.11-.44l49.88-64.06c5.52,2,11.16,3.81,16.76,5.62a197.94,197.94,0,0,1,37,14.67,197.77,197.77,0,0,1,31.23,24.75c1.46,1.33,2.94,2.65,4.41,4Zm111.37-52.34h-.14c-18.3,0-34.83-14.9-52.33-30.68h0a214.63,214.63,0,0,0-33.53-26.54,14.42,14.42,0,0,0-1.27-.73A214,214,0,0,0,129,364.05C106.58,356.8,85.41,349.92,76.22,334s-4.54-37.63.38-60.7v0a214.25,214.25,0,0,0,6.22-42.3c0-.49,0-1,0-1.46a214.43,214.43,0,0,0-6.21-42.32c-5-23.07-9.58-44.85-.38-60.76,9.62-16.63,31.16-23.51,54-30.75a201,201,0,0,0,38.53-15.09,14.4,14.4,0,0,0,1.37-.8,190.6,190.6,0,0,0,31-25.12c17-15.77,34.6-32,54.85-32s37.84,16.24,54.83,32a191.25,191.25,0,0,0,31.05,25.12,14.84,14.84,0,0,0,1.35.78,200.44,200.44,0,0,0,38.55,15.13c22.84,7.24,44.37,14.13,54,30.77,9.18,15.84,4.53,37.63-.39,60.7v0a215,215,0,0,0-6.22,42.3q0,.74,0,1.47a214.9,214.9,0,0,0,6.22,42.28c5,23.07,9.58,44.85.37,60.78s-30.35,22.8-52.8,30.05a214.25,214.25,0,0,0-39.76,15.78,14.42,14.42,0,0,0-1.27.73,214,214,0,0,0-33.53,26.54h0C290.9,422.89,274.37,437.79,256.07,437.79Zm197.62,1-61.48-7.68a8,8,0,0,0-8.68,5.74l-15.18,53.09a.59.59,0,0,1-.42.42l-.14,0a.62.62,0,0,1-.49-.26l-52.37-67.34c1.47-1.33,2.95-2.65,4.41-4A197.77,197.77,0,0,1,350.57,394a197.94,197.94,0,0,1,37-14.67c5.61-1.81,11.26-3.64,16.79-5.63l49.84,64.08a.57.57,0,0,1,.12.44A.61.61,0,0,1,453.69,438.77Z"/><path class="cls-1" d="M402.26,230.22C402.26,149.57,336.65,84,256,84s-146.25,65.6-146.25,146.25S175.36,376.47,256,376.47,402.26,310.86,402.26,230.22ZM256,360.47A130.25,130.25,0,0,1,256,100c71.83,0,130.26,58.43,130.26,130.25S327.83,360.47,256,360.47Z"/><path class="cls-1" d="M298.25,194.14V167h8.38a8,8,0,0,0,0-16H205.37a8,8,0,0,0,0,16h8.38v27.1a42.2,42.2,0,0,0,17.56,34.25,42.18,42.18,0,0,0-17.56,34.24v27.11h-8.38a8,8,0,0,0,0,16H306.63a8,8,0,0,0,0-16h-8.38V262.63a42.18,42.18,0,0,0-17.56-34.24A42.2,42.2,0,0,0,298.25,194.14Zm-16,68.49v27.11h-52.5V262.63a26.25,26.25,0,0,1,52.5,0Zm0-68.49a26.25,26.25,0,0,1-52.5,0V167h52.5Z"/></svg>