<svg id="Слой_1" data-name="Слой 1" xmlns="http://www.w3.org/2000/svg" viewBox="0 0 512 512"><defs><style>.cls-1{fill:#b0cb1f;}</style></defs><title>22</title><path class="cls-1" d="M439.4,73.35l15.51,225.29a15.51,15.51,0,0,0,15.47,14.44H488.5V488.75H23.5V301.68l68.2-40.93v36.16A15.5,15.5,0,0,0,116.89,309l57.48-46v33.88A15.49,15.49,0,0,0,199.55,309L257,263v33.88A15.5,15.5,0,0,0,282.22,309l57.48-46v34.55a15.5,15.5,0,0,0,15.5,15.5h17.09a15.5,15.5,0,0,0,15.46-14.44L403.26,73.35H439.4m6.74-15.5H396.52a8.27,8.27,0,0,0-8.26,7.7l-16,232H355.2V248a8.27,8.27,0,0,0-8.26-8.27h0a8.24,8.24,0,0,0-5.15,1.81l-69.24,55.39V248a8.27,8.27,0,0,0-8.26-8.27h0a8.25,8.25,0,0,0-5.16,1.81l-69.23,55.39V248a8.27,8.27,0,0,0-8.27-8.27h0a8.24,8.24,0,0,0-5.15,1.81L107.2,296.91V248a8.26,8.26,0,0,0-12.52-7.09L12,290.5a8.25,8.25,0,0,0-4,7.08V496a8.27,8.27,0,0,0,8.27,8.27H495.73A8.27,8.27,0,0,0,504,496V305.85a8.27,8.27,0,0,0-8.27-8.27H470.38l-16-232a8.27,8.27,0,0,0-8.26-7.7Z"/><path class="cls-1" d="M305.09,41.32a23.9,23.9,0,0,1-16.79-6.8l-4.15-4.06A7.75,7.75,0,0,1,295,19.38l4.15,4.07a8.56,8.56,0,0,0,11.9,0l8.31-8.13a24.12,24.12,0,0,1,33.58,0l8.31,8.13a8.54,8.54,0,0,0,11.89,0l8.31-8.13a24.12,24.12,0,0,1,33.58,0l4.16,4.06a7.75,7.75,0,0,1-10.85,11.08l-4.15-4.07a8.56,8.56,0,0,0-11.9,0L384,34.52a24.13,24.13,0,0,1-33.59,0l-8.3-8.13a8.56,8.56,0,0,0-11.9,0l-8.31,8.13A23.9,23.9,0,0,1,305.09,41.32Z"/><path class="cls-1" d="M375.07,495.46a7.75,7.75,0,0,1-7.75-7.75V367.45H305.79V487.71a7.75,7.75,0,0,1-15.5,0v-128A7.75,7.75,0,0,1,298,352h77a7.75,7.75,0,0,1,7.75,7.75v128A7.75,7.75,0,0,1,375.07,495.46Z"/><path class="cls-1" d="M117,445.76H59.69A7.75,7.75,0,0,1,51.94,438V359.7A7.75,7.75,0,0,1,59.69,352H117a7.74,7.74,0,0,1,7.75,7.75V438A7.74,7.74,0,0,1,117,445.76Zm-49.59-15.5h41.84V367.45H67.44Z"/><path class="cls-1" d="M215.88,445.76H158.54a7.75,7.75,0,0,1-7.75-7.75V359.7a7.75,7.75,0,0,1,7.75-7.75h57.34a7.75,7.75,0,0,1,7.75,7.75V438A7.75,7.75,0,0,1,215.88,445.76Zm-49.59-15.5h41.84V367.45H166.29Z"/></svg>