<svg width="10" height="10" viewBox="0 0 10 10" fill="none" xmlns="http://www.w3.org/2000/svg">
<path fill-rule="evenodd" clip-rule="evenodd" d="M9.78001 8.71778C10.0733 9.01111 10.0733 9.48668 9.78001 9.78001C9.48668 10.0733 9.01111 10.0733 8.71778 9.78001L5.00002 6.06224L1.28225 9.78001C0.988926 10.0733 0.513353 10.0733 0.220028 9.78001C-0.0732972 9.48668 -0.073297 9.01111 0.220028 8.71778L3.93779 5.00002L0.219994 1.28222C-0.0733312 0.988893 -0.0733313 0.513319 0.219994 0.219994C0.513319 -0.0733311 0.988892 -0.0733314 1.28222 0.219994L5.00002 3.93779L8.71782 0.219994C9.01114 -0.0733314 9.48671 -0.0733311 9.78004 0.219994C10.0734 0.513319 10.0734 0.988893 9.78004 1.28222L6.06224 5.00002L9.78001 8.71778Z" fill="white"/>
</svg>
