<svg width="30" height="30" viewBox="0 0 30 30" fill="none" xmlns="http://www.w3.org/2000/svg">
<path d="M5.81819 11.6648C5.81777 11.7312 5.83167 11.7971 5.85908 11.8586C5.8865 11.9202 5.92689 11.9761 5.97795 12.0233L14.5168 19.8506C14.568 19.898 14.629 19.9355 14.6961 19.9612C14.7632 19.9868 14.8352 20 14.908 20C14.9807 20 15.0527 19.9868 15.1198 19.9612C15.187 19.9355 15.2479 19.898 15.2991 19.8506L23.838 12.0233C23.9417 11.9282 24 11.7993 24 11.6648C24 11.5303 23.9417 11.4013 23.838 11.3062C23.7343 11.2111 23.5936 11.1577 23.4469 11.1577C23.3001 11.1577 23.1595 11.2111 23.0557 11.3062L14.908 18.7801L6.76022 11.3062C6.70901 11.2589 6.64808 11.2213 6.58095 11.1957C6.51382 11.1701 6.44181 11.1569 6.36909 11.1569C6.29636 11.1569 6.22436 11.1701 6.15723 11.1957C6.09009 11.2213 6.02916 11.2589 5.97795 11.3062C5.92689 11.3534 5.8865 11.4094 5.85908 11.4709C5.83167 11.5324 5.81777 11.5983 5.81819 11.6648Z" fill="white"/>
</svg>
