<svg width="11" height="20" viewBox="0 0 11 20" fill="none" xmlns="http://www.w3.org/2000/svg">
<g clip-path="url(#clip0)">
<path d="M6.73327 19.9799V10.889H9.79021L10.2498 7.33256H6.73327V5.07481C6.73327 4.03585 7.01299 3.33655 8.49151 3.33655H10.3696V0.159728C9.46168 0.0467014 8.5473 -0.00669305 7.63237 -0.000111923C7.06901 -0.0408185 6.50316 0.0304996 5.96752 0.209723C5.43187 0.388946 4.93705 0.672522 4.51163 1.04407C4.0862 1.41562 3.73861 1.86778 3.48893 2.37443C3.23925 2.88108 3.09243 3.43218 3.05694 3.99589C3.05694 4.23565 3.05694 4.47541 3.05694 4.73515V7.33256H0V10.889H3.07692V19.9799H6.73327Z" fill="white"/>
</g>
<defs>
<clipPath id="clip0">
<rect width="10.3696" height="20" fill="white"/>
</clipPath>
</defs>
</svg>
