<svg width="20" height="20" viewBox="0 0 20 20" fill="none" xmlns="http://www.w3.org/2000/svg">
<g clip-path="url(#clip0)">
<path d="M10.0119 1.80308H14.0688C14.7028 1.80174 15.3311 1.92256 15.9193 2.15896C16.3506 2.32426 16.7397 2.58361 17.0581 2.91815C17.3927 3.23662 17.652 3.62565 17.8173 4.05694C18.0537 4.6452 18.1745 5.2735 18.1732 5.90747V14.0214C18.1745 14.6553 18.0537 15.2836 17.8173 15.8719C17.642 16.2979 17.384 16.685 17.0582 17.0108C16.7325 17.3366 16.3454 17.5945 15.9193 17.7699C15.3311 18.0063 14.7028 18.1271 14.0688 18.1257H5.95492C5.32095 18.1271 4.69265 18.0063 4.10439 17.7699C3.67309 17.6046 3.28407 17.3452 2.9656 17.0107C2.63106 16.6922 2.37171 16.3032 2.20641 15.8719C1.97001 15.2836 1.84919 14.6553 1.85053 14.0214V5.90747C1.84919 5.2735 1.97001 4.6452 2.20641 4.05694C2.37171 3.62565 2.63106 3.23662 2.9656 2.91815C3.27997 2.58973 3.67142 2.34507 4.10439 2.20641C4.69265 1.97001 5.32095 1.84919 5.95492 1.85053H10.0119V1.80308ZM10.0119 0.0474496L5.88375 0C5.07353 0.018942 4.27197 0.171238 3.51127 0.450771C2.81393 0.712891 2.18811 1.13552 1.68446 1.68446C1.16739 2.18204 0.769915 2.79042 0.521945 3.46382C0.242413 4.22452 0.0901163 5.02608 0.0711744 5.8363V9.96441C0 12.6928 0 13.0724 0 14.2349C0.0434274 15.0489 0.219738 15.8503 0.521945 16.6074C0.769915 17.2808 1.16739 17.8891 1.68446 18.3867C2.18204 18.9038 2.79042 19.3013 3.46382 19.5492C4.22452 19.8288 5.02608 19.9811 5.8363 20H14.0925C14.9027 19.9811 15.7043 19.8288 16.465 19.5492C17.1506 19.3018 17.7758 18.9116 18.2993 18.4044C18.8228 17.8973 19.2327 17.2847 19.5018 16.6074C19.7813 15.8467 19.9336 15.0451 19.9525 14.2349V5.97865C19.9336 5.16843 19.7813 4.36687 19.5018 3.60617C19.2736 2.8818 18.875 2.22277 18.3393 1.68446C17.8596 1.16821 17.2668 0.770276 16.6074 0.521945C15.8503 0.219738 15.0489 0.0434274 14.2349 0L10.1068 0L10.0119 0.0474496Z" fill="white"/>
<path d="M10.0115 4.86377C8.99327 4.86377 7.9979 5.16571 7.15127 5.73141C6.30464 6.29711 5.64477 7.10116 5.25511 8.04189C4.86545 8.98261 4.7635 10.0178 4.96215 11.0164C5.16079 12.0151 5.65112 12.9324 6.37112 13.6524C7.09112 14.3724 8.00845 14.8628 9.00712 15.0614C10.0058 15.2601 11.0409 15.1581 11.9817 14.7684C12.9224 14.3788 13.7264 13.7189 14.2921 12.8723C14.8578 12.0256 15.1598 11.0303 15.1598 10.012C15.1598 8.64664 14.6174 7.33716 13.6519 6.37167C12.6864 5.40618 11.3769 4.86377 10.0115 4.86377ZM10.0115 13.3572C9.34988 13.3572 8.70313 13.1611 8.15301 12.7935C7.6029 12.4259 7.17413 11.9035 6.92094 11.2922C6.66775 10.6809 6.60151 10.0083 6.73058 9.35943C6.85966 8.71053 7.17826 8.11447 7.64609 7.64664C8.11393 7.1788 8.70998 6.86021 9.35889 6.73113C10.0078 6.60206 10.6804 6.6683 11.2917 6.92149C11.9029 7.17468 12.4254 7.60344 12.7929 8.15356C13.1605 8.70367 13.3567 9.35043 13.3567 10.012C13.3567 10.8992 13.0043 11.7501 12.3769 12.3775C11.7496 13.0048 10.8987 13.3572 10.0115 13.3572Z" fill="white"/>
<path d="M15.3498 5.8838C16.0181 5.8838 16.5598 5.34208 16.5598 4.67383C16.5598 4.00559 16.0181 3.46387 15.3498 3.46387C14.6816 3.46387 14.1399 4.00559 14.1399 4.67383C14.1399 5.34208 14.6816 5.8838 15.3498 5.8838Z" fill="white"/>
</g>
<defs>
<clipPath id="clip0">
<rect width="19.9525" height="20" fill="white"/>
</clipPath>
</defs>
</svg>
