<svg width="50" height="50" viewBox="0 0 50 50" fill="none" xmlns="http://www.w3.org/2000/svg">
<path d="M42.1875 23.4374H11.0164L22.9523 12.0686C23.5773 11.4733 23.6016 10.4843 23.0063 9.85927C22.4117 9.23505 21.4227 9.21005 20.7969 9.80536L7.16562 22.7897C6.57578 23.3804 6.25 24.1647 6.25 24.9999C6.25 25.8343 6.57578 26.6194 7.19297 27.2358L20.7977 40.1936C21.1 40.4819 21.4875 40.6249 21.875 40.6249C22.2875 40.6249 22.7 40.4624 23.007 40.1397C23.6023 39.5147 23.5781 38.5265 22.9531 37.9311L10.9672 26.5624H42.1875C43.05 26.5624 43.75 25.8624 43.75 24.9999C43.75 24.1374 43.05 23.4374 42.1875 23.4374Z" fill="#1D0B14"/>
</svg>
