<svg width="18" height="33" viewBox="0 0 18 33" fill="none" xmlns="http://www.w3.org/2000/svg">
<path d="M16.5001 33.0002C16.3685 33.0009 16.238 32.9757 16.1162 32.926C15.9943 32.8762 15.8835 32.8029 15.7901 32.7102L0.290061 17.2102C0.196333 17.1172 0.121938 17.0066 0.0711696 16.8848C0.0204009 16.7629 -0.0057373 16.6322 -0.0057373 16.5002C-0.0057373 16.3682 0.0204009 16.2375 0.0711696 16.1156C0.121938 15.9937 0.196333 15.8831 0.290061 15.7902L15.7901 0.290185C15.9784 0.101882 16.2338 -0.00390625 16.5001 -0.00390625C16.7664 -0.00390625 17.0218 0.101882 17.2101 0.290185C17.3984 0.478489 17.5042 0.733884 17.5042 1.00019C17.5042 1.26649 17.3984 1.52188 17.2101 1.71019L2.41006 16.5002L17.2101 31.2902C17.3038 31.3831 17.3782 31.4937 17.429 31.6156C17.4797 31.7375 17.5059 31.8682 17.5059 32.0002C17.5059 32.1322 17.4797 32.2629 17.429 32.3848C17.3782 32.5066 17.3038 32.6172 17.2101 32.7102C17.1166 32.8029 17.0058 32.8762 16.884 32.926C16.7621 32.9757 16.6317 33.0009 16.5001 33.0002Z" fill="white"/>
</svg>
