<svg width="14" height="28" viewBox="0 0 14 28" fill="none" xmlns="http://www.w3.org/2000/svg">
<path d="M13.1959 28C13.0907 28.0006 12.9864 27.9792 12.889 27.937C12.7916 27.8948 12.703 27.8326 12.6283 27.754L0.236482 14.6041C0.161549 14.5252 0.102073 14.4314 0.0614848 14.328C0.0208967 14.2246 0 14.1137 0 14.0017C0 13.8897 0.0208967 13.7788 0.0614848 13.6755C0.102073 13.5721 0.161549 13.4782 0.236482 13.3994L12.6283 0.249501C12.7788 0.0897483 12.983 0 13.1959 0C13.4088 0 13.613 0.0897483 13.7635 0.249501C13.9141 0.409254 13.9986 0.625926 13.9986 0.851851C13.9986 1.07778 13.9141 1.29445 13.7635 1.4542L1.93136 14.0017L13.7635 26.5493C13.8385 26.6281 13.8979 26.722 13.9385 26.8253C13.9791 26.9287 14 27.0396 14 27.1516C14 27.2636 13.9791 27.3745 13.9385 27.4779C13.8979 27.5813 13.8385 27.6751 13.7635 27.754C13.6888 27.8326 13.6002 27.8948 13.5028 27.937C13.4054 27.9792 13.3011 28.0006 13.1959 28Z" fill="#1D0B14"/>
</svg>
