<svg xmlns="http://www.w3.org/2000/svg" viewBox="0 0 134.91 46.79"><defs><style>.cls-1{fill:#b13675;}.cls-2{fill:#fff;}</style></defs><title>l-t</title><g id="Слой_2" data-name="Слой 2"><g id="Слой_1-2" data-name="Слой 1"><path class="cls-1" d="M9.37,31.38c.24-.09-.06-.29,0-.35C9.05,31.19,9.56,31.24,9.37,31.38Z"/><path class="cls-1" d="M20.56,31.26a0,0,0,0,1-.06,0s0,0,0,0A.07.07,0,0,0,20.56,31.26Z"/><path class="cls-1" d="M18.94,31.21h-.05l0,0Z"/><path class="cls-1" d="M19.2,31.2l0,.18C19.31,31.44,19.29,31.23,19.2,31.2Z"/><path class="cls-1" d="M13.69,31.21a.19.19,0,0,0,.29-.06C13.92,31.13,13.81,31.2,13.69,31.21Z"/><path class="cls-1" d="M31.46,31.31c.25-.09-.05-.29,0-.35C31.14,31.12,31.66,31.16,31.46,31.31Z"/><path class="cls-1" d="M42.66,31.19a.06.06,0,0,1-.07,0l0,0Z"/><path class="cls-1" d="M41,31.14H41l0,0Z"/><path class="cls-1" d="M41.3,31.12l0,.19C41.41,31.37,41.39,31.16,41.3,31.12Z"/><path class="cls-1" d="M35.79,31.14a.19.19,0,0,0,.29-.06C36,31.06,35.9,31.13,35.79,31.14Z"/><path class="cls-1" d="M53.56,31.24c.24-.1-.05-.29,0-.36C53.24,31.05,53.75,31.09,53.56,31.24Z"/><path class="cls-1" d="M64.75,31.12a.11.11,0,0,1-.06,0l0,0Z"/><path class="cls-1" d="M63.14,31.06h-.06l0,0Z"/><path class="cls-1" d="M63.4,31.05l0,.19C63.5,31.29,63.49,31.09,63.4,31.05Z"/><path class="cls-1" d="M57.88,31.07a.21.21,0,0,0,.3-.06C58.12,31,58,31.06,57.88,31.07Z"/><path class="cls-1" d="M125.32,31.38c-.2-.14.32-.19,0-.35C125.37,31.09,125.08,31.29,125.32,31.38Z"/><path class="cls-1" d="M114.21,31.26l0,0s0,0-.06,0A.07.07,0,0,0,114.21,31.26Z"/><path class="cls-1" d="M115.83,31.23l0,0h-.06Z"/><path class="cls-1" d="M115.52,31.38l0-.18C115.39,31.23,115.37,31.44,115.52,31.38Z"/><path class="cls-1" d="M120.7,31.15c.06.09.21.15.29.06C120.88,31.2,120.76,31.13,120.7,31.15Z"/><path class="cls-1" d="M103.22,31.31c-.19-.15.32-.19,0-.35C103.27,31,103,31.22,103.22,31.31Z"/><path class="cls-1" d="M92.11,31.19l0,0a0,0,0,0,1-.06,0Z"/><path class="cls-1" d="M93.73,31.16l0,0h0Z"/><path class="cls-1" d="M93.42,31.31l0-.19C93.29,31.16,93.28,31.37,93.42,31.31Z"/><path class="cls-1" d="M98.61,31.08a.19.19,0,0,0,.29.06C98.78,31.13,98.66,31.06,98.61,31.08Z"/><path class="cls-1" d="M81.13,31.24c-.2-.15.31-.19,0-.36C81.18,31,80.88,31.14,81.13,31.24Z"/><path class="cls-1" d="M70,31.12a0,0,0,0,0,0,0l-.06,0Z"/><path class="cls-1" d="M71.64,31.09l0,0h0Z"/><path class="cls-1" d="M71.33,31.24l0-.19C71.2,31.09,71.18,31.29,71.33,31.24Z"/><path class="cls-1" d="M76.51,31a.19.19,0,0,0,.29.06C76.68,31.06,76.57,31,76.51,31Z"/><path class="cls-1" d="M0,29.22v2.17c.52-.06,1.16.06,1.44-.18A6.43,6.43,0,0,0,3,31.53v0c.2,0,.6-.12.6-.38.44.06.71.41,1.23.3l-.11-.1c.13,0,.34.07.39.1s0-.05,0-.09.19.05.29.08l0-.09c.41-.18,1.06.18,1.59.13-.1,0-.05-.12,0-.16.22.29.82.22,1,.29l-.14-.12c.43.2.37-.3.8-.1l-.24.16c.17-.05.32,0,.28.14.2-.1,0-.22.33-.25,0-.08-.22-.06-.12-.16L9.34,31h0l0,0,0,0s.07,0,.21,0c0,.36.35,0,.14.37.6,0,1.1-.2,1.62,0,.21-.34,1,0,1-.45a1,1,0,0,1,.71.27c-.06,0-.13,0-.19,0s.42.13.57.13a2.1,2.1,0,0,1-.65-.37,4.88,4.88,0,0,1,.78.28l.07-.23c.22.17.19-.19.41,0l0,.07c.41,0,.41.22.79.25l0-.09c.14,0,.33.18.46,0h-.25c0-.16.22-.23.3-.31.26,0,.09.26.22.28.06-.15,0-.08-.07-.23a2.06,2.06,0,0,1,.9.32s0-.06,0-.06c.31,0,.58.26.77.13l-.06,0c.24-.22.63.22.68-.16.12-.07-.26,0-.07-.17.36-.12.24.32.56.21-.05,0,0,0-.05,0,.23,0,.54.05.8.09.31-.31,1,.09,1.32-.27-.11.12.09.15.09.2a.08.08,0,0,1,0-.05c.13,0,.15.11.2.16.1-.11.36.12.43.05,0,.08.1.06.22.06-.23-.09-.07-.17-.18-.3.35,0,.4.36.77.3l.2-.15a.2.2,0,0,0,.16.16c.53-.06,1.15,0,1.44-.22a6,6,0,0,0,1.58.31v0c.21,0,.61-.13.61-.39.43.07.71.42,1.23.31l-.12-.1c.13,0,.34.07.4.1s0-.05,0-.09.2.05.3.08l0-.09c.41-.18,1.06.17,1.59.13-.1,0,0-.12,0-.16.22.28.81.22,1,.29L30,31.38c.43.19.37-.3.8-.11l-.25.17c.18-.05.33,0,.28.13.21-.09,0-.22.34-.24,0-.08-.23-.06-.12-.16l.42-.21h0l0,0h0s.07,0,.2,0c0,.36.36,0,.14.37.6,0,1.11-.21,1.63,0,.21-.35,1,0,1-.45a.89.89,0,0,1,.71.27c-.06,0-.14,0-.2-.05s.43.14.58.14a2.61,2.61,0,0,1-.65-.37,6.26,6.26,0,0,1,.78.27l.07-.23c.22.17.18-.18.41.05L36,31c.41,0,.42.21.8.25l0-.1c.13,0,.33.19.45,0H37c0-.16.21-.23.3-.32.26,0,.09.27.22.29.06-.15,0-.08-.08-.23a1.91,1.91,0,0,1,.9.32s0-.06,0-.06c.31,0,.58.25.76.13l-.06,0c.25-.22.64.22.69-.16.12-.07-.26,0-.08-.17.37-.12.24.32.56.21,0,0,0,0,0,0a7.65,7.65,0,0,1,.79.09c.32-.31,1,.08,1.33-.28-.12.13.09.15.09.21a.06.06,0,0,1,0-.06c.13,0,.14.12.19.17.11-.11.37.12.43,0,0,.08.11.06.23.06-.24-.09-.08-.17-.18-.3.35,0,.4.36.76.3l.21-.15a.19.19,0,0,0,.16.16c.52-.06,1.15,0,1.44-.22a6.41,6.41,0,0,0,1.58.31v0c.2-.05.61-.13.61-.39.43.06.71.42,1.22.31l-.11-.1c.13-.05.34.07.39.1s0-.06,0-.09.2.05.29.07l0-.08c.42-.18,1.06.17,1.59.13-.09,0,0-.12,0-.17.21.29.81.23,1,.29l-.14-.11c.44.19.38-.3.81-.11l-.25.17c.17-.05.32,0,.28.13.2-.09,0-.22.33-.24,0-.08-.22-.06-.12-.16l.43-.22h0s.06,0,.2,0c0,.36.35,0,.14.37.6,0,1.11-.21,1.62,0,.22-.35,1,0,1-.46a.91.91,0,0,1,.7.28c-.06,0-.13,0-.19-.05s.43.14.57.14a2.61,2.61,0,0,1-.65-.37,5.28,5.28,0,0,1,.78.27l.07-.23c.23.17.19-.18.41.05l0,.06c.41,0,.41.22.8.25l0-.09c.13,0,.32.18.45,0l-.25,0c0-.16.22-.23.31-.31.26.05.09.27.22.29.06-.15,0-.08-.08-.23a1.8,1.8,0,0,1,.9.32.11.11,0,0,0,0-.06c.3,0,.57.25.76.12l-.06,0c.25-.22.63.22.69-.16.11-.07-.27,0-.08-.18.37-.11.24.33.56.22,0,0,0,0,0-.05a5.69,5.69,0,0,1,.79.1c.32-.31,1,.08,1.33-.28-.12.13.08.15.08.21a.11.11,0,0,1,0-.06c.14,0,.15.12.2.17.11-.11.36.12.43,0,0,.08.11.06.23.06-.24-.09-.08-.18-.18-.3.35,0,.4.36.76.3l.2-.15s.08,0,.15,0c.34.29.51-.09.48,0-.08.27.55,0,.58,0s.66.25.59,0c0-.12.13.26.48,0,.06-.05.14,0,.14,0l.2.15c.37.06.42-.34.77-.3-.11.12,0,.21-.18.3.12,0,.22,0,.22-.06.07.07.33-.16.43,0,.05-.05.07-.18.2-.17a.06.06,0,0,1,0,.06c0-.06.21-.08.09-.21.36.36,1,0,1.32.28a6,6,0,0,1,.8-.1s0,.06-.05.05c.33.11.2-.33.56-.22.19.19-.19.11-.07.18,0,.38.44-.06.68.16l-.06,0c.19.13.46-.14.77-.12a.08.08,0,0,0,0,.06,1.84,1.84,0,0,1,.9-.32c-.09.15-.13.08-.07.23.13,0,0-.24.22-.29.09.08.28.15.3.31l-.25,0c.13.2.33,0,.46,0l0,.09c.38,0,.39-.26.79-.25l0-.06c.23-.23.19.12.41-.05L77,31a6.26,6.26,0,0,1,.78-.27,2.61,2.61,0,0,1-.65.37c.15,0,.5,0,.57-.14s-.13.08-.19.05a.93.93,0,0,1,.71-.28c0,.45.76.11,1,.46.52-.17,1,.07,1.62,0-.21-.35.18,0,.14-.37.14,0,.19,0,.21,0h0l.42.22c.1.1-.13.08-.12.16.31,0,.13.15.33.24,0-.13.11-.18.28-.13l-.24-.17c.43-.19.37.3.8.11l-.14.11c.23-.06.82,0,1-.29,0,.05.09.14,0,.17.53,0,1.18-.31,1.59-.13l0,.08c.1,0,.17-.16.3-.07s0,.09,0,.09.26-.15.4-.1l-.12.1c.52.11.8-.25,1.23-.31,0,.26.4.34.61.39v0a6.41,6.41,0,0,0,1.58-.31c.29.23.91.16,1.43.22a.2.2,0,0,0,.17-.16l.2.15c.37.06.41-.34.77-.3-.11.13,0,.21-.18.3.11,0,.22,0,.22-.06.07.07.32-.16.43,0,0-.05.07-.17.2-.17a.11.11,0,0,1,0,.06c0-.06.2-.08.09-.21.36.36,1,0,1.32.28a7.84,7.84,0,0,1,.8-.09s0,.05,0,0c.32.11.2-.33.56-.21.19.18-.19.1-.08.17.06.38.44-.06.69.16l-.06,0c.19.12.46-.15.76-.13a.11.11,0,0,0,0,.06,2,2,0,0,1,.9-.32c-.09.15-.13.08-.08.23.14,0,0-.24.23-.29.08.09.27.16.3.32h-.25c.13.21.32,0,.45,0v.1c.38,0,.38-.27.79-.25l0-.07c.22-.23.19.12.41-.05l.07.23a5.73,5.73,0,0,1,.78-.27,2.61,2.61,0,0,1-.65.37c.14,0,.5,0,.57-.14s-.13.08-.19.05a.88.88,0,0,1,.71-.27c0,.44.76.1,1,.45.51-.17,1,.07,1.62,0-.21-.35.18,0,.14-.37.14,0,.19,0,.21,0h0l0,0h0l.42.21c.1.1-.13.08-.12.16.31,0,.13.15.33.24,0-.12.11-.18.28-.13l-.24-.17c.42-.19.37.3.8.11l-.14.12c.22-.07.82,0,1-.29,0,0,.09.14,0,.16.53,0,1.18-.31,1.59-.13l0,.09c.1,0,.17-.17.29-.08s0,.09,0,.09.26-.15.39-.1l-.11.1c.52.11.79-.24,1.23-.31,0,.26.4.35.6.39v0a5.83,5.83,0,0,0,1.58-.31c.29.23.92.16,1.44.22a.18.18,0,0,0,.16-.16l.21.15c.36.06.41-.33.76-.3-.1.13.06.21-.18.3.12,0,.23,0,.23-.06.07.07.32-.16.43-.05,0,0,.06-.17.19-.16s0,.05,0,.05.21-.08.09-.2c.37.36,1,0,1.33.27a7.65,7.65,0,0,1,.79-.09s0,.06,0,0c.32.11.19-.33.56-.21.19.18-.19.1-.08.17,0,.38.44-.06.69.16l-.06,0c.19.13.45-.15.76-.13a.11.11,0,0,0,0,.06,2,2,0,0,1,.9-.32c-.09.15-.14.08-.08.23.13,0,0-.24.22-.28.09.08.28.15.31.31h-.25c.13.21.32,0,.45,0l0,.09c.38,0,.39-.27.8-.25l0-.07c.22-.23.18.13.41,0l.06.23a4.69,4.69,0,0,1,.79-.28,2.1,2.1,0,0,1-.65.37c.14,0,.49,0,.57-.13s-.13.07-.19,0a.94.94,0,0,1,.7-.27c-.05.45.76.11,1,.45.51-.16,1,.07,1.62,0-.21-.35.17,0,.14-.37.14,0,.19,0,.2,0l0,0,0,0h0l.43.21c.1.1-.14.08-.12.16.3,0,.13.15.33.25,0-.13.1-.19.28-.14l-.25-.16c.43-.2.37.3.8.1l-.13.12c.22-.07.81,0,1-.29,0,0,.09.14,0,.16.52,0,1.17-.31,1.58-.13l0,.09c.1,0,.18-.17.3-.08s0,.09,0,.09.26-.15.39-.1l-.11.1c.51.11.79-.24,1.22-.3,0,.26.41.34.61.38v0a6.43,6.43,0,0,0,1.58-.32c.29.24.92.12,1.45.18V29.22Z"/><path class="cls-2" d="M31.82,44.37h-.37l-1.66-3.94c-.23-.54-.47-1.13-.7-1.77h0q.06,1.38.06,2.52v3.19h-.8v-6.6h1.16L31,41.51c.18.42.38.94.59,1.54h0c.23-.67.43-1.18.58-1.54l1.56-3.74H35v6.6h-.81V41.18c0-.75,0-1.59.07-2.52h0q-.36,1-.69,1.77Z"/><path class="cls-2" d="M38.75,43.83a3.73,3.73,0,0,0,.7-.06,3.62,3.62,0,0,0,.62-.18v.64a2.66,2.66,0,0,1-.62.2,5,5,0,0,1-.8.07,3.56,3.56,0,0,1-.94-.13,1.93,1.93,0,0,1-.77-.42,2,2,0,0,1-.5-.74,3.09,3.09,0,0,1-.18-1.12A3.16,3.16,0,0,1,36.43,41a2.39,2.39,0,0,1,.48-.79,1.94,1.94,0,0,1,.67-.47,2.05,2.05,0,0,1,.81-.16,2.15,2.15,0,0,1,.73.13,1.65,1.65,0,0,1,.6.41,2,2,0,0,1,.39.73,3.37,3.37,0,0,1,.15,1.07V42a1.77,1.77,0,0,1,0,.19H37a1.92,1.92,0,0,0,.13.76,1.4,1.4,0,0,0,.37.51,1.51,1.51,0,0,0,.55.28A2.48,2.48,0,0,0,38.75,43.83Zm-.4-3.61a1.13,1.13,0,0,0-.49.1,1.26,1.26,0,0,0-.4.28,1.32,1.32,0,0,0-.27.42,1.48,1.48,0,0,0-.13.51h2.39a1.7,1.7,0,0,0-.07-.51,1.38,1.38,0,0,0-.21-.42,1,1,0,0,0-.35-.28A1,1,0,0,0,38.35,40.22Z"/><path class="cls-2" d="M41.59,38.59v-.85h.76v.85Zm0,5.78V39.69h.76v4.68Z"/><path class="cls-2" d="M44.64,40.34h0a2.7,2.7,0,0,1,.28-.31,1.8,1.8,0,0,1,.35-.24,1.81,1.81,0,0,1,.92-.23,2,2,0,0,1,.6.09,1.28,1.28,0,0,1,.49.29,1.33,1.33,0,0,1,.33.51,2.3,2.3,0,0,1,.12.79v3.13H47v-3a1.31,1.31,0,0,0-.23-.88.88.88,0,0,0-.68-.26,1.46,1.46,0,0,0-.77.22,2,2,0,0,0-.63.6v3.33H43.9V39.69h.59Z"/><path class="cls-2" d="M51.3,44.37V37.23h.77v7.14Z"/><path class="cls-2" d="M53.63,38.59v-.85h.76v.85Zm0,5.78V39.69h.76v4.68Z"/><path class="cls-2" d="M58.17,43.83a3.52,3.52,0,0,0,1.32-.24v.64a2.75,2.75,0,0,1-.63.2,4.84,4.84,0,0,1-.79.07,3.63,3.63,0,0,1-1-.13,1.89,1.89,0,0,1-.76-.42,2,2,0,0,1-.51-.74,3.09,3.09,0,0,1-.18-1.12A3.15,3.15,0,0,1,55.85,41a2.37,2.37,0,0,1,.47-.79,2,2,0,0,1,.68-.47,2,2,0,0,1,.8-.16,2.21,2.21,0,0,1,.74.13,1.61,1.61,0,0,1,.59.41,2,2,0,0,1,.4.73,3.7,3.7,0,0,1,.14,1.07v.29H56.43a1.91,1.91,0,0,0,.14.76,1.3,1.3,0,0,0,.37.51,1.43,1.43,0,0,0,.55.28A2.43,2.43,0,0,0,58.17,43.83Zm-.41-3.61a1.16,1.16,0,0,0-.49.1,1.38,1.38,0,0,0-.4.28,1.51,1.51,0,0,0-.27.42,1.74,1.74,0,0,0-.13.51h2.4A2.09,2.09,0,0,0,58.8,41a1.2,1.2,0,0,0-.22-.42.93.93,0,0,0-.34-.28A1.06,1.06,0,0,0,57.76,40.22Z"/><path class="cls-2" d="M65.18,42A3.25,3.25,0,0,1,65,43.09a2.55,2.55,0,0,1-.47.79,1.79,1.79,0,0,1-.67.46,1.9,1.9,0,0,1-.77.16,1.69,1.69,0,0,1-.53-.08,1.42,1.42,0,0,1-.39-.18,1.16,1.16,0,0,1-.26-.22,1.1,1.1,0,0,1-.13-.17h0l-.16.52H61V37.23h.77v2.89h0a1.89,1.89,0,0,1,.59-.41,1.84,1.84,0,0,1,.76-.15,2.27,2.27,0,0,1,.43,0,1.92,1.92,0,0,1,.89.44,1.6,1.6,0,0,1,.36.44,2.06,2.06,0,0,1,.25.62A3.52,3.52,0,0,1,65.18,42Zm-.8.06a2.88,2.88,0,0,0-.13-.91,1.43,1.43,0,0,0-.34-.54,1.14,1.14,0,0,0-.44-.27,1.47,1.47,0,0,0-.46-.07,1.53,1.53,0,0,0-.67.15,1.93,1.93,0,0,0-.55.38V43.2a1.06,1.06,0,0,0,.18.21,2,2,0,0,0,.26.21,2.68,2.68,0,0,0,.34.16,1.42,1.42,0,0,0,.42.07,1.27,1.27,0,0,0,.6-.14,1.12,1.12,0,0,0,.43-.38,1.64,1.64,0,0,0,.27-.58A2.83,2.83,0,0,0,64.38,42Z"/><path class="cls-2" d="M66.43,44.37V37.23h.77v7.14Z"/><path class="cls-2" d="M68.76,38.59v-.85h.76v.85Zm0,5.78V39.69h.76v4.68Z"/><path class="cls-2" d="M71.81,40.34h0a2.7,2.7,0,0,1,.28-.31,2.16,2.16,0,0,1,.35-.24,1.94,1.94,0,0,1,.42-.17,2.11,2.11,0,0,1,1.11,0,1.24,1.24,0,0,1,.48.29,1.33,1.33,0,0,1,.33.51,2.3,2.3,0,0,1,.12.79v3.13h-.76v-3a1.3,1.3,0,0,0-.24-.88.87.87,0,0,0-.68-.26,1.42,1.42,0,0,0-.76.22,2,2,0,0,0-.64.6v3.33h-.77V39.69h.6Z"/><path class="cls-2" d="M78.22,39.56a2,2,0,0,1,.53.08,1.42,1.42,0,0,1,.39.19,1,1,0,0,1,.26.22.69.69,0,0,1,.13.17h0l.16-.53h.58v5a2.33,2.33,0,0,1-.18,1,1.73,1.73,0,0,1-.5.66,2.09,2.09,0,0,1-.77.4,3.46,3.46,0,0,1-1,.13,4.1,4.1,0,0,1-.83-.08,2.36,2.36,0,0,1-.57-.19v-.65l.32.12.33.07a2,2,0,0,0,.34,0l.39,0a1.83,1.83,0,0,0,1.26-.39,1.46,1.46,0,0,0,.44-1.17v-.63h0a1.77,1.77,0,0,1-.59.42,2,2,0,0,1-.76.14,2.18,2.18,0,0,1-.42,0,1.9,1.9,0,0,1-.46-.15,1.86,1.86,0,0,1-.43-.28,1.8,1.8,0,0,1-.37-.44,2.36,2.36,0,0,1-.25-.62,3,3,0,0,1-.1-.84A3.23,3.23,0,0,1,76.31,41a2.32,2.32,0,0,1,.47-.8,1.78,1.78,0,0,1,.66-.47A2,2,0,0,1,78.22,39.56Zm-1.29,2.5a2.77,2.77,0,0,0,.13.9,1.52,1.52,0,0,0,.34.55,1,1,0,0,0,.45.26,1.54,1.54,0,0,0,.46.08A1.45,1.45,0,0,0,79,43.7a1.63,1.63,0,0,0,.55-.39V40.86a1.48,1.48,0,0,0-.44-.41,1.19,1.19,0,0,0-.34-.16,1.16,1.16,0,0,0-.42-.07,1.26,1.26,0,0,0-.6.13,1.33,1.33,0,0,0-.44.38,1.93,1.93,0,0,0-.26.58A3,3,0,0,0,76.93,42.06Z"/><path class="cls-2" d="M82.32,40.93a.53.53,0,0,0,.08.32.61.61,0,0,0,.22.2,1.93,1.93,0,0,0,.32.13l.37.08c.18,0,.34.09.5.14a1.27,1.27,0,0,1,.44.21,1,1,0,0,1,.32.39,1.41,1.41,0,0,1,.12.63,1.39,1.39,0,0,1-.13.63,1.45,1.45,0,0,1-.39.46,1.81,1.81,0,0,1-.61.28,2.66,2.66,0,0,1-.77.1,3.23,3.23,0,0,1-.46,0L82,44.4l-.28-.09a.75.75,0,0,1-.18-.08v-.64a4.23,4.23,0,0,0,.57.19,3,3,0,0,0,.63.07,2.38,2.38,0,0,0,.49-.05,1.31,1.31,0,0,0,.38-.15.69.69,0,0,0,.24-.24.64.64,0,0,0,.09-.34.61.61,0,0,0-.08-.32.63.63,0,0,0-.21-.22,2.09,2.09,0,0,0-.3-.14L83,42.3l-.51-.13A1.75,1.75,0,0,1,82,42a1.07,1.07,0,0,1-.34-.36,1.29,1.29,0,0,1-.12-.59,1.41,1.41,0,0,1,.13-.64,1.33,1.33,0,0,1,.36-.45,1.56,1.56,0,0,1,.53-.27,2.18,2.18,0,0,1,.63-.09,3.33,3.33,0,0,1,.73.08,4.27,4.27,0,0,1,.6.18v.66a4.36,4.36,0,0,0-.58-.19,3.09,3.09,0,0,0-.61-.08,1.44,1.44,0,0,0-.45.06.69.69,0,0,0-.31.15.58.58,0,0,0-.18.23A.64.64,0,0,0,82.32,40.93Z"/><path class="cls-2" d="M90,42a3.22,3.22,0,0,1-.1.86,2.84,2.84,0,0,1-.25.66,2,2,0,0,1-.37.47,2.37,2.37,0,0,1-.44.31,3,3,0,0,1-.47.17,2.37,2.37,0,0,1-.44,0,1.65,1.65,0,0,1-1.32-.56h0v2.73h-.75v-7h.58l.16.53h0a.75.75,0,0,1,.17-.19,1,1,0,0,1,.27-.2,1.74,1.74,0,0,1,.41-.19,1.72,1.72,0,0,1,.52-.08,2.22,2.22,0,0,1,.76.14,1.69,1.69,0,0,1,.65.42,2,2,0,0,1,.45.75A3.24,3.24,0,0,1,90,42Zm-.8,0a2.78,2.78,0,0,0-.09-.74,1.45,1.45,0,0,0-.26-.56,1.1,1.1,0,0,0-.42-.35,1.38,1.38,0,0,0-.59-.12,1.44,1.44,0,0,0-.43.06,2,2,0,0,0-.36.17,1.15,1.15,0,0,0-.27.21,1.7,1.7,0,0,0-.19.2v2.45a1.77,1.77,0,0,0,.56.39,1.5,1.5,0,0,0,.67.15,1.38,1.38,0,0,0,.46-.09,1.12,1.12,0,0,0,.45-.29,1.72,1.72,0,0,0,.34-.57A2.62,2.62,0,0,0,89.21,42Z"/><path class="cls-2" d="M93.79,40.31h-.06a2.32,2.32,0,0,0-.53,0,1.87,1.87,0,0,0-.49.15,1.61,1.61,0,0,0-.42.25,1.5,1.5,0,0,0-.31.35v3.26h-.76V39.69h.59l.15.74h0a2.2,2.2,0,0,1,.28-.34,1.78,1.78,0,0,1,.38-.28,1.63,1.63,0,0,1,.45-.18,1.77,1.77,0,0,1,.52-.07h.19Z"/><path class="cls-2" d="M98.78,42a3.2,3.2,0,0,1-.15,1,2.49,2.49,0,0,1-.45.78,2,2,0,0,1-.7.5,2.25,2.25,0,0,1-.92.18,2.3,2.3,0,0,1-.93-.18,2,2,0,0,1-.7-.5,2.29,2.29,0,0,1-.44-.78,2.93,2.93,0,0,1-.16-1,3.24,3.24,0,0,1,.16-1,2.49,2.49,0,0,1,.45-.78,2,2,0,0,1,.7-.5,2.25,2.25,0,0,1,.92-.18,2.3,2.3,0,0,1,.93.18,2,2,0,0,1,.7.5,2.29,2.29,0,0,1,.44.78A3.24,3.24,0,0,1,98.78,42ZM98,42a2.65,2.65,0,0,0-.11-.77,1.72,1.72,0,0,0-.3-.57,1.13,1.13,0,0,0-.45-.36,1.41,1.41,0,0,0-1.14,0,1.13,1.13,0,0,0-.45.36,1.72,1.72,0,0,0-.3.57,2.65,2.65,0,0,0-.11.77,2.55,2.55,0,0,0,.11.77,1.54,1.54,0,0,0,.3.57,1.33,1.33,0,0,0,1,.48,1.2,1.2,0,0,0,.57-.13,1.1,1.1,0,0,0,.45-.35,1.54,1.54,0,0,0,.3-.57A2.55,2.55,0,0,0,98,42Z"/><path class="cls-2" d="M102.71,37.83l-.32,0-.31,0a1.65,1.65,0,0,0-.46.06.89.89,0,0,0-.34.21,1,1,0,0,0-.22.37A2.17,2.17,0,0,0,101,39v.73h2.27v.65H101v4h-.76v-4H99.4v-.65h.83V39a2.43,2.43,0,0,1,.13-.86,1.65,1.65,0,0,1,.37-.57,1.51,1.51,0,0,1,.56-.33,2.26,2.26,0,0,1,.69-.11,2.94,2.94,0,0,1,.44,0l.29,0Z"/><path class="cls-2" d="M103.26,44.37V39.69H104v4.68Z"/><path class="cls-2" d="M105.6,44.37V37.23h.77v7.14Z"/><path class="cls-2" d="M13.23,19.89,3,4.9v15H.23V0h2.6L14,16.25,25.23,0h2.6V19.89H25v-15L14.61,19.89Z"/><path class="cls-2" d="M55.31,2.45H41.42a5.61,5.61,0,0,0-2.14.44,6.61,6.61,0,0,0-1.93,1.23A6.75,6.75,0,0,0,35.93,6a5.08,5.08,0,0,0-.6,2.3h19.8v2.39H35.33v.43a6.59,6.59,0,0,0,.5,2.6,6.21,6.21,0,0,0,1.4,2A6,6,0,0,0,39.28,17a6.67,6.67,0,0,0,2.51.46H55.31v2.39H40.87a8.28,8.28,0,0,1-3.14-.61A8.57,8.57,0,0,1,35,17.54a8.84,8.84,0,0,1-1.9-2.7,8.37,8.37,0,0,1-.71-3.49V8.54a8.16,8.16,0,0,1,.74-3.48,8.72,8.72,0,0,1,2-2.69A9.1,9.1,0,0,1,37.87.63,8.2,8.2,0,0,1,41,0H55.31Z"/><path class="cls-2" d="M82,19.89H67.64a8.81,8.81,0,0,1-3.3-.6A7.5,7.5,0,0,1,60,14.92a9.75,9.75,0,0,1-.62-3.57V0h2.91V11.11a7.73,7.73,0,0,0,.43,2.68,5.42,5.42,0,0,0,3.1,3.27,6.35,6.35,0,0,0,2.44.44H82Z"/><path class="cls-2" d="M87.26,0V8.42h10.5a6.33,6.33,0,0,0,2.08-.31,3.12,3.12,0,0,0,1.53-1.48l.72-1.26c.36-.63.74-1.32,1.16-2.05l1.16-2.06Q105,.3,105.1,0h3.15L104,7.6a7.37,7.37,0,0,1-.89,1.27,2.62,2.62,0,0,1-1.31.81v0a3.25,3.25,0,0,1,1.6.68,4.4,4.4,0,0,1,1.09,1.4l4.38,8.1h-3.16l-3.79-7.07a3.63,3.63,0,0,0-.64-.93,3.23,3.23,0,0,0-.87-.63,4.37,4.37,0,0,0-1.23-.35,11.92,11.92,0,0,0-1.7-.11H87.26v9.09H84.41V0Z"/><path class="cls-2" d="M134.91,2.45H121a5.61,5.61,0,0,0-2.14.44A6.61,6.61,0,0,0,117,4.12,6.79,6.79,0,0,0,115.52,6a5.07,5.07,0,0,0-.59,2.3h19.8v2.39h-19.8v.43a6.41,6.41,0,0,0,.5,2.6,6.34,6.34,0,0,0,1.39,2A6.18,6.18,0,0,0,118.88,17a6.65,6.65,0,0,0,2.5.46h13.53v2.39H120.47a8.24,8.24,0,0,1-3.14-.61,8.57,8.57,0,0,1-2.7-1.74,8.67,8.67,0,0,1-1.9-2.7,8.37,8.37,0,0,1-.71-3.49V8.54a8.16,8.16,0,0,1,.74-3.48,8.72,8.72,0,0,1,2-2.69A9.1,9.1,0,0,1,117.47.63,8.2,8.2,0,0,1,120.62,0h14.29Z"/></g></g></svg>