<svg width="35" height="50" viewBox="0 0 35 50" fill="none" xmlns="http://www.w3.org/2000/svg"><g clip-path="url(#clip0)"><path d="M17.1186 0v9.4896L27.2993 0H17.1186zM17.1182 9.4896V0H6.964l10.1542 9.4896z" fill="#E6E6E6"/><path d="M17.1182 9.4896V2.0468L6.964 0l10.1542 9.4896z" fill="#C7C7C7"/><path d="M17.1186 9.4896V2.0468L27.2993 0 17.1186 9.4896z" fill="#DEDEDE"/><path d="M1 8.0973L6.0505 1v6.1935l11.058 10.3137V33.084l-5.024-7.8682V13.3604l-6.034-5.6353v8.1872L1 8.0973z" fill="#CCC"/><path d="M16.3639 16.7096c-.0266 0 .0266.0266-.0266.0266.0266 0 0-.0266.0266-.0266zM15.9921 16.3907s-.0266 0-.0266-.0266c0 0 .0266 0 .0266.0266zM14.503 14.9818c-.0266 0 .0266.0265-.0266.0265.0266 0 0-.0265.0266-.0265zM14.1316 14.6629s-.0266 0-.0266-.0266c0 0 .0266 0 .0266.0266zM12.6424 13.254c-.0266 0 .0266.0266-.0266.0266.0266 0 0-.0266.0266-.0266zM12.2707 12.9351s-.0266 0-.0266-.0266c0 0 .0266 0 .0266.0266zM6.635 7.6189c0 .0266-.0266.0266 0 0-.0531 0 0 .0266 0 0zM7.0075 8.0175s0-.0266-.0266-.0266c.0266 0 .0266 0 .0266.0266zM8.4695 9.3732c.0266.0265 0 0 0 0-.0266-.0266.0266.0265 0 0zM8.868 9.7453s0-.0266-.0265-.0266c0 0 .0265 0 .0265.0266zM10.3301 11.101c.0266.0265-.0266.0265 0 0-.0266 0 0 .0265 0 0zM11.1538 11.872c.0266 0 0 .0266 0 0zM10.7023 11.4731s0-.0266-.0266-.0266c.0266 0 .0266.0266.0266.0266z" fill="#D9D9D9"/><path d="M12.0845 13.3604v11.8554l5.024 7.8682-5.024-19.7236z" fill="#C2C2C2"/><path d="M1 8.0973l5.0506-.9038V1L1.0001 8.0973z" fill="#E3E3E3"/><path d="M33.1085 8.0973L28.0579 1v6.1935L17 17.5072V33.084l5.0239-7.8682V13.3604l6.034-5.6353v8.1872l5.0506-7.815z" fill="#D9D9D9"/><path d="M17.7446 16.7096c.0265 0-.0266.0266.0266.0266-.0266 0-.0001-.0266-.0266-.0266zM18.1163 16.3907s.0266 0 .0266-.0266c0 0-.0266 0-.0266.0266zM19.6055 14.9818c.0266 0-.0266.0265.0266.0265-.0266 0 0-.0265-.0266-.0265zM19.9769 14.6629s.0265 0 .0265-.0266c0 0-.0265 0-.0265.0266zM21.4661 13.254c.0265 0-.0266.0266.0265.0266-.0265 0 0-.0266-.0265-.0266zM21.8378 12.9351s.0265 0 .0265-.0266c0 0-.0265 0-.0265.0266zM27.4734 7.6189c0 .0266.0266.0266 0 0 .0532 0 0 .0266 0 0zM27.101 8.0175s0-.0266.0265-.0266c-.0265 0-.0265 0-.0265.0266zM25.639 9.3732c-.0266.0265 0 0 0 0 .0265-.0266-.0266.0265 0 0zM25.2404 9.7453s0-.0266.0266-.0266c0 0-.0266 0-.0266.0266zM23.7784 11.101c-.0266.0265.0266.0265 0 0 .0266 0 0 .0265 0 0zM22.9546 11.872c-.0265 0 0 .0266 0 0zM23.4061 11.4731s0-.0266.0266-.0266c-.0266 0-.0266.0266-.0266.0266z" fill="#D9D9D9"/><path d="M22.0239 13.3604v11.8554L17 33.084l5.0239-19.7236z" fill="#E8E8E8"/><path d="M33.1084 8.0973l-5.0505-.9038V1l5.0505 7.0973z" fill="#E3E3E3"/><path d="M3.349 43.1684L.7706 39.3407v3.8012H.053v-5.0505h.6646l2.8176 4.1201 2.8708-4.1201h.6646v5.0505h-.7177v-3.8012l-2.6316 3.8277H3.349zM14.0344 38.7293h-3.5087c-.1861 0-.3722.0266-.5317.1064-.186.0797-.3455.186-.4784.3189-.133.1329-.2658.2924-.3722.4785-.1063.1861-.1329.3721-.1595.5848h5.024v.6114h-5.024v.1063c0 .2392.0532.4519.133.6645.0797.1861.2126.3722.3455.5051.1595.1329.319.2658.5316.3455.1861.0798.3988.1064.638.1064h3.429v.6113h-3.6948c-.2658 0-.5316-.0531-.7975-.1594-.2658-.1064-.4784-.2393-.691-.4519-.2127-.1861-.3722-.4253-.4786-.6911-.1329-.2659-.186-.5583-.186-.8772v-.7177c0-.319.0531-.6114.186-.8772.133-.2659.2924-.5051.5051-.6912.2127-.186.4253-.3455.6911-.4518.2658-.1064.5316-.1595.7975-.1595h3.6416v.6379zM20.8132 43.1687h-3.6417c-.2924 0-.5848-.0531-.8506-.1595-.2658-.1063-.4785-.2392-.6645-.4253-.1861-.186-.3456-.4253-.4519-.6911-.1064-.2658-.1595-.5582-.1595-.9038v-2.8708h.7443v2.8177c0 .2658.0265.4784.1063.6911.0797.2127.1861.3721.319.5051.1329.1329.2924.2392.4784.3189.1861.0798.3988.1064.6114.1064h3.4822v.6113h.0266zM22.1688 38.1181v2.1265h2.6581c.2127 0 .3722-.0265.5316-.0797.133-.0532.2659-.1861.3988-.3722.0266-.0531.0797-.1594.186-.3189.0798-.1595.1861-.3456.2924-.5317.1064-.186.2127-.3721.2924-.5316.0798-.1595.1595-.2658.1861-.319h.7975l-1.0899 1.9405c-.0797.1063-.1329.2392-.2126.319-.0798.1063-.1861.1595-.3456.2126.1595.0266.2924.0798.3987.1595.1063.0797.1861.2127.2658.3456l1.1165 2.0467h-.7975l-.9569-1.8075c-.0532-.1063-.1063-.1595-.1595-.2392-.0532-.0532-.1329-.1064-.2127-.1595-.0797-.0532-.186-.0798-.3189-.0798-.133-.0265-.2659-.0266-.4254-.0266h-2.6049v2.3126h-.7178v-5.0505h.7178v.0532zM34.2638 38.7293h-3.5354c-.1861 0-.3721.0266-.5316.1064-.1861.0797-.3456.186-.4785.3189-.1329.1329-.2658.2924-.3721.4785-.1064.1861-.133.3721-.1595.5848h5.0239v.6114h-5.0239v.1063c0 .2392.0531.4519.1329.6645.0797.1861.2126.3722.3455.5051.1595.1329.319.2658.5317.3455.186.0798.3987.1064.6379.1064h3.4291v.6113h-3.6683c-.2658 0-.5316-.0531-.7975-.1594-.2658-.1064-.4784-.2393-.6911-.4519-.2126-.1861-.3721-.4253-.4784-.6911-.133-.2659-.1861-.5583-.1861-.8772v-.7177c0-.319.0531-.6114.1861-.8772.1329-.2659.2924-.5051.505-.6912.2127-.186.4253-.3455.6911-.4518.2658-.1064.5317-.1595.7975-.1595h3.6417v.6379z" fill="#E6E6E6"/><path d="M17.8098 8.7455c.0266 0 .0266.0266.0266.0266-.0532.0266-.0266-.0266-.0266-.0266zM18.5801 8.0542c-.0266-.0266 0 0 0 0zM19.5106 7.1771c.0265 0 .0265.0266.0265.0266-.0265 0 0-.0532-.0265-.0266zM21.2387 5.582c.0266 0 .0266.0267.0266.0267-.0532 0-.0266-.0266-.0266-.0266zM22.0094 4.891c-.0266-.0265 0-.0265 0 0zM26.7676.3987c0 .0265.0266-.0266 0 0 .0266 0-.0266.0265 0 0zM25.0661 1.9935c0 .0266.0266-.0266 0 0 .0266 0-.0266.0266 0 0zM23.3653 3.5885c0 .0266.0266 0 0 0 .0266.0266-.0265.0266 0 0zM22.5143 4.386c0 .0266 0 .0266 0 0 0 .0266 0 .0266 0 0-.0266.0266 0 .0266 0 0zM16.4535 8.7451c-.0266 0-.0266.0266-.0266.0266.0531.0266 0-.0266.0266-.0266zM15.5765 7.9478c.0266 0 .0266 0 0 0 .0266.0265.0266.0265 0 0 .0266 0 .0266 0 0 0zM15.683 8.0542c.0266-.0266 0 0 0 0zM16.1083 8.4529s0-.0266 0 0c-.0266 0 0 0 0 0zM14.752 7.1768c-.0266 0-.0266.0266-.0266.0266.0266 0 0-.0532.0266-.0266zM13.0243 5.582c-.0266 0-.0266.0267-.0266.0267.0531 0 0-.0266.0266-.0266zM12.2538 4.8907c.0266-.0266 0-.0266 0 0zM7.4957.3987c0 .0265-.0266-.0266 0 0-.0266 0 0 .0265 0 0zM8.2401 1.0897c0 .0266.0266 0 0 0zM7.8415.7442c0-.0266 0-.0266 0 0-.0266-.0266 0 0 0 0zM9.1969 1.9935c0 .0266-.0266-.0266 0 0-.0266 0 .0266.0266 0 0zM10.8984 3.5885c0 .0266-.0266 0 0 0-.0266.0266.0265.0266 0 0z" fill="#C4CA2F"/><path d="M7.9142 48.8598h-.0984l-.422-1.0144c-.0562-.1409-.1125-.2959-.1828-.4508h-.014c.014.2395.014.4508.014.6481v.8171H7v-1.6907h.2954l.3938.9581c.0422.1127.0984.2395.1547.3945.0562-.1691.1125-.31.1547-.3945l.3938-.9581h.2954v1.6907h-.211v-.8171c0-.1973 0-.4086.014-.6481h-.014c-.0563.169-.1266.324-.1829.4508l-.3797 1.0144zM9.6864 48.7189c.0704 0 .1266 0 .1829-.0141.0562-.0141.1125-.0282.1547-.0423v.1691c-.0422.0141-.0985.0423-.1547.0564-.0563.0141-.1407 0-.211 0-.0844 0-.1688-.0141-.239-.0282-.0704-.0282-.1407-.0564-.197-.1127-.0563-.0423-.0985-.1127-.1266-.1973-.0281-.0845-.0422-.169-.0422-.2818 0-.1127.014-.2113.0422-.2817.0281-.0846.0703-.155.1266-.1973.0563-.0564.1125-.0986.1688-.1268.0562-.0282.1406-.0423.211-.0423.0703 0 .1265.0141.1828.0282.0563.0282.1125.0564.1547.1127.0422.0423.0703.1127.0985.1832.0281.0704.0422.1691.0422.2677v.0704h-.8299c0 .0705.0141.1409.0282.1973.028.0563.0562.0986.0984.1268.0422.0282.0844.0563.1407.0704.0422.0423.0984.0423.1687.0423zm-.1125-.9158c-.0422 0-.0844.0141-.1266.0282-.0421.0141-.0703.0422-.0984.0704a.3076.3076 0 00-.0703.1127c-.0141.0423-.0282.0846-.0282.1268h.6189c0-.0422 0-.0845-.014-.1268a.4237.4237 0 00-.0563-.1127c-.0282-.0282-.0563-.0563-.0844-.0704-.0422-.0282-.0844-.0282-.1407-.0282zM10.4037 47.3804v-.2254h.1969v.2254h-.1969zm.0141 1.4794v-1.1976h.1969v1.1976h-.1969zM11.1913 47.8313c.0282-.0282.0563-.0564.0703-.0846.0282-.0281.0563-.0422.0844-.0563.0282-.0141.0704-.0282.1126-.0423.0421-.0141.0843-.0141.1265-.0141.0563 0 .1126.0141.1547.0282.0422.0141.0844.0423.1266.0705.0422.0281.0704.0845.0844.1268.0141.0422.0281.1268.0281.1972v.8031h-.1969v-.7749c0-.0986-.014-.1832-.0562-.2254a.2327.2327 0 00-.1688-.0705c-.0703 0-.1266.0141-.1969.0564-.0563.0422-.1125.0845-.1688.155v.8594h-.1828v-1.1976h.1406l.0422.1691zM12.8931 48.8597v-1.8316h.1969v1.8316h-.1969zM13.4979 47.3804v-.2254h.1969v.2254h-.1969zm0 1.4794v-1.1976h.1969v1.1976h-.1969zM14.6512 48.7189c.0703 0 .1266 0 .1828-.0141.0563-.0141.1126-.0282.1547-.0423v.1691c-.0421.0141-.0984.0423-.1547.0564-.0562.0141-.1265.0141-.1969.0141-.0844 0-.1687-.0141-.2391-.0282-.0703-.0282-.1406-.0564-.1969-.1127-.0562-.0423-.0984-.1127-.1266-.1973-.0281-.0845-.0422-.1691-.0422-.2818s.0141-.2113.0422-.2817c.0282-.0846.0704-.155.1266-.1973.0563-.0423.1125-.0986.1688-.1268.0563-.0282.1406-.0423.211-.0423.0703 0 .1266.0141.1828.0282.0563.0282.1125.0564.1547.1127.0422.0423.0703.1127.0985.1832.0281.0704.0422.1691.0422.2677v.0704h-.8298c0 .0705.014.1409.0281.1973.0281.0563.0562.0986.0984.1268.0422.0282.0844.0563.1407.0704.0422.0282.0984.0282.1547.0282zm-.0985-.9158c-.0422 0-.0843.0141-.1265.0282s-.0704.0422-.0985.0704a.307.307 0 00-.0703.1127c-.0141.0423-.0281.0846-.0281.1268h.6188c0-.0422 0-.0845-.0141-.1268a.4222.4222 0 00-.0562-.1127c-.0282-.0282-.0563-.0563-.0844-.0704-.0563-.0282-.0985-.0282-.1407-.0282zM16.4514 48.2399c0 .1127-.014.2113-.0422.2959-.0281.0845-.0703.1549-.1266.1972-.0562.0564-.1125.0986-.1687.1127-.0704.0282-.1266.0423-.1969.0423-.0563 0-.0985 0-.1407-.0141a.6821.6821 0 01-.0984-.0423c-.0282-.0141-.0563-.0422-.0704-.0563-.014-.0141-.0281-.0282-.0281-.0423l-.0422.1409h-.1547v-1.8316h.1969v.7467a.6279.6279 0 01.1547-.1127c.0563-.0282.1266-.0423.1969-.0423.0282 0 .0704 0 .1125.0141.0422.0141.0844.0141.1126.0423.0422.0141.0703.0423.1125.0704.0422.0282.0703.0705.0984.1128.0282.0422.0422.0986.0704.1549.0281.0564.014.1268.014.2114zm-.1969.0141a.8834.8834 0 00-.0281-.2255c-.0281-.0563-.0563-.1127-.0844-.1409a.3069.3069 0 00-.1125-.0704c-.0422-.0141-.0844-.0141-.1125-.0141a.3735.3735 0 00-.1688.0423c-.0563.0282-.0985.0563-.1407.0986v.634a.1928.1928 0 01.0422.0564c.0141.0282.0422.0422.0704.0563l.0843.0423c.0282.0141.0704.0141.1126.0141.0562 0 .1125-.0141.1547-.0282s.0844-.0563.1125-.0986a.5203.5203 0 00.0703-.155c-.014-.0704 0-.1409 0-.2113zM16.7749 48.8597v-1.8316h.1969v1.8316h-.1969zM17.3657 47.3804v-.2254h.1969v.2254h-.1969zm.0141 1.4794v-1.1976h.1969v1.1976h-.1969zM18.1533 47.8313c.0281-.0282.0562-.0564.0703-.0846.0281-.0281.0562-.0422.0844-.0563.0281-.0141.0703-.0282.1125-.0423.0422-.0141.0844-.0141.1266-.0141.0562 0 .1125.0141.1547.0282s.0844.0423.1266.0705c.0422.0281.0703.0845.0844.1268.014.0422.0281.1268.0281.1972v.8031h-.1969v-.7749c0-.0986-.0141-.1832-.0563-.2254a.2326.2326 0 00-.1688-.0705c-.0703 0-.1265.0141-.1969.0564-.0562.0422-.1125.0845-.1687.155v.8594h-.1969v-1.1976h.1547l.0422.1691zM19.7988 47.634c.0563 0 .0985.0141.1407.0141a.687.687 0 01.0984.0423c.0281.0141.0563.0423.0703.0563.0141.0141.0282.0282.0282.0423l.0422-.1409h.1547v1.268c0 .0987-.0141.1691-.0422.2396-.0282.0704-.0704.1268-.1266.169-.0563.0423-.1266.0846-.1969.0987-.0703.0141-.1688.0281-.2532.0281-.0844 0-.1547 0-.211-.014-.0562-.0141-.1125-.0282-.1406-.0564v-.1691c.0281.0141.0563.0282.0844.0282.0281.0141.0562.0141.0844.0141.0281 0 .0562.0141.0844.0141h.0984c.1407 0 .2532-.0282.3235-.0986.0703-.0705.1125-.1691.1125-.2959v-.1268a.626.626 0 01-.1547.1127c-.0562.0282-.1266.0423-.1969.0423-.0281 0-.0703 0-.1125-.0141s-.0844-.0141-.1125-.0423c-.0422-.0141-.0704-.0423-.1125-.0704-.0422-.0282-.0704-.0705-.0985-.1128-.0281-.0422-.0422-.0986-.0703-.1549-.0282-.0564-.0282-.1268-.0282-.2114 0-.1127.0141-.2113.0422-.2958.0282-.0846.0704-.155.1266-.2114.0563-.0563.1125-.0986.1688-.1268.0563-.0141.1266-.0282.1969-.0282zm-.3375.634c0 .0987.014.1691.0281.2255.014.0563.0562.1127.0844.1409a.3069.3069 0 00.1125.0704c.0422.0141.0844.0141.1125.0141.0563 0 .1125-.0141.1688-.0423.0562-.0281.0984-.0563.1406-.0986v-.634c-.014-.0141-.0281-.0282-.0422-.0564-.014-.0141-.0422-.0422-.0703-.0563a66.3053 66.3053 0 00-.0844-.0423c-.0281-.0141-.0703-.0141-.1125-.0141-.0563 0-.1125.0141-.1547.0282-.0422.0282-.0844.0564-.1125.0986-.0282.0423-.0563.0846-.0703.155.014.0845 0 .1409 0 .2113zM20.8396 47.9863c0 .0282 0 .0564.0141.0845.0141.0141.0281.0423.0563.0564.0281.0141.0562.0282.0843.0282.0282.0141.0563.0141.0985.0281.0422.0141.0844.0282.1266.0282.0422.0141.0844.0282.1125.0564s.0563.0563.0844.0986a.5283.5283 0 01.0281.1691c0 .0563-.0141.1127-.0422.155-.0281.0422-.0562.0845-.0984.1127a.5223.5223 0 01-.1547.0704c-.0563.0141-.1266.0282-.197.0282h-.1125c-.0422 0-.0703-.0141-.0984-.0141-.0281-.0141-.0563-.0141-.0703-.0282-.0141-.0141-.0422-.0141-.0422-.0282v-.169c.0562.0141.0984.0422.1547.0422.0422.0141.0984.0141.1547.0141.0422 0 .0844 0 .1266-.0141.0422-.014.0703-.014.0984-.0422.0281-.0141.0422-.0423.0563-.0564.014-.0282.0281-.0563.0281-.0845 0-.0282 0-.0564-.0141-.0846a.1099.1099 0 00-.0562-.0563c-.0281-.0141-.0422-.0282-.0844-.0423-.0281-.0141-.0563-.0141-.0985-.0282-.0422-.014-.0843-.014-.1265-.0281s-.0844-.0282-.1126-.0564c-.0421-.0282-.0703-.0563-.0843-.0986-.0141-.0423-.0282-.0845-.0282-.155 0-.0564.0141-.1127.0282-.1691.0281-.0422.0562-.0845.0984-.1127.0422-.0282.0844-.0563.1407-.0704.0562-.0141.1125-.0282.1687-.0282.0704 0 .1266 0 .1829.0141.0562.0141.1125.0282.1547.0423v.169c-.0563-.0141-.0985-.0422-.1547-.0422-.0563 0-.0985-.0141-.1547-.0141-.0422 0-.0844 0-.1126.0141a33.129 33.129 0 00-.0843.0422c-.0141.0141-.0422.0423-.0422.0564 0 .0141-.0282.0845-.0282.1127zM22.8087 48.254c0 .0845-.014.1549-.0281.2254a.4726.4726 0 01-.0703.1691c-.0282.0422-.0563.0845-.0985.1268-.0422.0281-.0703.0563-.1125.0845-.0422.0141-.0844.0282-.1125.0423-.0281.014-.0844.014-.1125.014-.0704 0-.1407-.014-.1969-.0422-.0563-.0282-.0985-.0564-.1407-.1127v.7044h-.1969v-1.8034h.1547l.0422.1409a.1946.1946 0 00.0422-.0564c.0141-.0281.0422-.0281.0703-.0563.0282-.0141.0704-.0282.0985-.0423.0422-.0141.0844-.0141.1266-.0141.0703 0 .1265.0141.1969.0282.0562.0282.1125.0564.1687.1127.0563.0564.0844.1127.1126.1973.0281.0845.0562.169.0562.2818zm-.1969 0c0-.0705-.014-.1268-.0281-.1832-.0141-.0564-.0422-.0986-.0703-.1409a.219.219 0 00-.1126-.0845c-.0421-.0141-.0984-.0282-.1547-.0282-.0422 0-.0844 0-.1125.0141s-.0703.0282-.0844.0422c-.0281.0141-.0562.0282-.0703.0564-.0141.0141-.0422.0423-.0422.0564v.634c.0422.0422.0844.0704.1407.0986a.3734.3734 0 00.1687.0423c.0422 0 .0704 0 .1126-.0141a.3074.3074 0 00.1125-.0705c.0422-.0422.0703-.0845.0844-.1409.0422-.1127.0562-.1972.0562-.2817zM23.7792 47.8172h-.014c-.0422 0-.0985 0-.1407.014l-.1266.0423c-.0422.0141-.0703.0423-.1125.0705l-.0844.0845v.8453h-.1969v-1.1975h.1547l.0422.1972c.0141-.0282.0422-.0563.0704-.0845.0281-.0282.0562-.0564.0984-.0705.0422-.0141.0703-.0422.1125-.0422s.0844-.0141.1266-.0141h.0563v.155h.014zM25.0591 48.268c0 .0986-.014.1832-.0422.2536-.0281.0845-.0703.1409-.1125.1973-.0422.0563-.1125.0986-.1828.1268-.0703.0281-.1547.0422-.2391.0422s-.1688-.0141-.2391-.0422c-.0703-.0282-.1266-.0705-.1829-.1268-.0562-.0564-.0844-.1269-.1125-.1973-.0281-.0704-.0422-.1691-.0422-.2536 0-.0986.0141-.1832.0422-.2536.0281-.0845.0703-.1409.1125-.1973.0422-.0563.1126-.0986.1829-.1268.0703-.0281.1547-.0422.2391-.0422s.1688.0141.2391.0422c.0703.0282.1266.0705.1828.1268.0563.0564.0844.1268.1125.1973.0282.0704.0422.155.0422.2536zm-.1969 0c0-.0704-.014-.1409-.0281-.1973-.0141-.0563-.0422-.1127-.0703-.1408a.2194.2194 0 00-.1125-.0846c-.0422-.0141-.0985-.0282-.1407-.0282-.0563 0-.0984.0141-.1406.0282s-.0844.0564-.1126.0846c-.0281.0422-.0562.0845-.0703.1408-.014.0564-.0281.1269-.0281.1973 0 .0704.0141.1409.0281.1972.0141.0564.0422.1128.0703.1409a.2192.2192 0 00.1126.0846c.0422.0141.0984.0282.1406.0282.0563 0 .0985-.0141.1407-.0282.0421-.0141.0843-.0564.1125-.0846.0281-.0281.0562-.0845.0703-.1409.0141-.0704.0281-.1268.0281-.1972zM26.0717 47.1832c-.0281 0-.0563-.0141-.0844-.0141h-.0844c-.0422 0-.0844 0-.1125.0141-.0281.014-.0703.0281-.0844.0563-.0281.0282-.0422.0564-.0562.0986-.0141.0423-.0141.0846-.0141.1409v.1832h.5766v.1691h-.5766v1.0285h-.1969v-1.0285h-.2251v-.1691h.211v-.1832c0-.0845.0141-.1549.0281-.2254.0282-.0564.0563-.1127.0985-.1409.0422-.0423.0844-.0704.1406-.0845.0563-.0141.1126-.0282.1829-.0282h.1125c.0281 0 .0563.0141.0703.0141v.1691h.0141z" fill="#fff"/><path d="M26.2123 48.8598v-1.1976h.1969v1.1976h-.1969zM26.8031 48.8597v-1.8316H27v1.8316h-.1969z" fill="#fff"/><path fill="#C4CA2F" d="M0 45h35v.7H0z"/></g><defs><clipPath id="clip0"><path fill="#fff" d="M0 0h34.2637v50H0z"/></clipPath></defs></svg>