<svg xmlns="http://www.w3.org/2000/svg" viewBox="0 0 1118.5 356.59"><defs><style>.cls-1{fill:#b13675;}.cls-2{fill:#333;}.cls-3{fill:#ab3473;}.cls-4{fill:#cdd430;}.cls-5{fill:#b1618d;}.cls-6{fill:#d4db62;}.cls-7{fill:#c4ca2f;}.cls-8{fill:#c1c724;}.cls-9{fill:#a13069;}.cls-10{fill:#dce329;}.cls-11{fill:#b14a80;}</style></defs><title>lb</title><g id="Слой_2" data-name="Слой 2"><g id="Слой_1-2" data-name="Слой 1"><path class="cls-1" d="M467.9,228.75c1.26-.49-.27-1.49-.12-1.83C466.25,227.77,468.91,228,467.9,228.75Z"/><path class="cls-1" d="M525.91,228.13a.32.32,0,0,1-.33-.11.33.33,0,0,0-.09.11A.47.47,0,0,0,525.91,228.13Z"/><path class="cls-1" d="M517.53,227.86l-.29-.05c0,.06-.12.1-.17.17Z"/><path class="cls-1" d="M518.89,227.79l-.22,1C519.44,229.05,519.35,228,518.89,227.79Z"/><path class="cls-1" d="M490.31,227.87a1,1,0,0,0,1.52-.3C491.52,227.44,490.92,227.81,490.31,227.87Z"/><path class="cls-1" d="M582.41,228.38c1.26-.49-.27-1.5-.12-1.83C580.76,227.39,583.42,227.62,582.41,228.38Z"/><path class="cls-1" d="M640.42,227.76a.32.32,0,0,1-.33-.11.28.28,0,0,0-.09.1A.51.51,0,0,0,640.42,227.76Z"/><path class="cls-1" d="M632,227.48l-.29,0a1.36,1.36,0,0,0-.17.17Z"/><path class="cls-1" d="M633.4,227.42l-.22,1C634,228.67,633.86,227.6,633.4,227.42Z"/><path class="cls-1" d="M604.82,227.5a1,1,0,0,0,1.52-.31C606,227.07,605.43,227.44,604.82,227.5Z"/><path class="cls-1" d="M696.92,228c1.26-.49-.27-1.5-.13-1.83C695.27,227,697.93,227.25,696.92,228Z"/><path class="cls-1" d="M754.93,227.39a.36.36,0,0,1-.33-.11.28.28,0,0,0-.09.1A.51.51,0,0,0,754.93,227.39Z"/><path class="cls-1" d="M746.55,227.11l-.29-.05c-.06.06-.12.11-.17.17Z"/><path class="cls-1" d="M747.91,227.05l-.22.95C748.46,228.3,748.37,227.22,747.91,227.05Z"/><path class="cls-1" d="M719.33,227.13a1,1,0,0,0,1.52-.31C720.54,226.69,719.94,227.06,719.33,227.13Z"/><path class="cls-1" d="M1068.79,228.75c-1-.76,1.65-1,.12-1.83C1069.06,227.26,1067.53,228.26,1068.79,228.75Z"/><path class="cls-1" d="M1011.2,228.13a.33.33,0,0,0-.09-.11.32.32,0,0,1-.33.11A.47.47,0,0,0,1011.2,228.13Z"/><path class="cls-1" d="M1019.62,228c0-.07-.12-.11-.17-.17l-.29.05Z"/><path class="cls-1" d="M1018,228.75l-.22-1C1017.34,228,1017.25,229.05,1018,228.75Z"/><path class="cls-1" d="M1044.86,227.57a1,1,0,0,0,1.52.3C1045.77,227.81,1045.17,227.44,1044.86,227.57Z"/><path class="cls-1" d="M954.28,228.38c-1-.76,1.65-1,.12-1.83C954.55,226.88,953,227.89,954.28,228.38Z"/><path class="cls-1" d="M896.69,227.75a.28.28,0,0,0-.09-.1.32.32,0,0,1-.33.11A.51.51,0,0,0,896.69,227.75Z"/><path class="cls-1" d="M905.11,227.61a1.36,1.36,0,0,0-.17-.17l-.29,0Z"/><path class="cls-1" d="M903.51,228.38l-.22-1C902.83,227.6,902.74,228.67,903.51,228.38Z"/><path class="cls-1" d="M930.35,227.19a1,1,0,0,0,1.52.31C931.26,227.44,930.66,227.07,930.35,227.19Z"/><path class="cls-1" d="M839.77,228c-1-.76,1.65-1,.13-1.83C840,226.51,838.51,227.52,839.77,228Z"/><path class="cls-1" d="M782.18,227.38a.28.28,0,0,0-.09-.1.36.36,0,0,1-.33.11A.51.51,0,0,0,782.18,227.38Z"/><path class="cls-1" d="M790.6,227.23l-.17-.17-.29.05Z"/><path class="cls-1" d="M789,228l-.22-.95C788.32,227.22,788.23,228.3,789,228Z"/><path class="cls-1" d="M815.84,226.82a1,1,0,0,0,1.52.31C816.75,227.06,816.15,226.69,815.84,226.82Z"/><path class="cls-1" d="M419.37,217.57V228.8c2.7-.32,6,.28,7.48-.93,2.89.52,5.07,1.8,8.18,1.63l0-.19c1.05-.21,3.15-.64,3.14-2,2.24.31,3.68,2.16,6.35,1.57l-.58-.51c.68-.27,1.77.37,2,.53.24,0,.06-.29,0-.48.64-.45,1,.27,1.53.4l-.21-.45c2.13-.92,5.5.9,8.24.68-.51-.13-.24-.64,0-.85,1.13,1.49,4.21,1.15,5.36,1.5l-.71-.59c2.24,1,1.94-1.56,4.16-.56l-1.28.85c.91-.25,1.68,0,1.46.7,1.05-.49.13-1.14,1.72-1.27.06-.42-1.15-.29-.63-.83l2.2-1.1h0l.15-.08-.15.07c.07-.11.35-.14,1.07,0-.2,1.86,1.82.11.71,1.91,3.12.15,5.75-1.06,8.42-.19,1.09-1.81,5.3,0,5-2.37a4.83,4.83,0,0,1,3.66,1.41c-.3.19-.68-.11-1-.23.4.6,2.21.71,3,.7-1-.53-2.59-1-3.37-1.89a23.11,23.11,0,0,1,4.05,1.41l.35-1.2c1.16.89,1-1,2.13.23l-.22.36c2.12-.08,2.14,1.12,4.12,1.29l-.09-.48c.68-.18,1.68.94,2.35-.14l-1.29,0c.13-.84,1.12-1.2,1.57-1.62,1.36.23.47,1.37,1.15,1.49.3-.79.08-.42-.39-1.2,1.52.29,3.57.64,4.65,1.66a.38.38,0,0,0,0-.3c1.59-.13,3,1.3,4,.64l-.3-.12c1.27-1.14,3.28,1.12,3.55-.85.6-.37-1.37.06-.4-.9,1.89-.61,1.24,1.67,2.9,1.12-.22.06-.15,0-.23-.23a39.13,39.13,0,0,1,4.12.47c1.64-1.6,5,.44,6.87-1.42-.61.66.46.78.46,1.08a.36.36,0,0,1,0-.3c.68,0,.76.59,1,.85.56-.56,1.88.64,2.24.27,0,.41.55.31,1.16.31-1.21-.48-.39-.9-.93-1.56,1.82-.18,2.07,1.86,4,1.55l1.06-.78a1,1,0,0,0,.85.82c2.7-.32,6,.08,7.44-1.14,2.89.53,5.07,1.8,8.18,1.64l0-.19c1-.22,3.15-.65,3.14-2,2.24.32,3.68,2.17,6.35,1.58l-.58-.52c.68-.26,1.77.38,2,.54.23,0,.06-.29,0-.48.64-.46,1,.27,1.53.4l-.21-.46c2.13-.91,5.5.91,8.24.69-.51-.13-.24-.64,0-.86,1.13,1.5,4.21,1.15,5.36,1.5l-.71-.58c2.24,1,1.94-1.57,4.16-.57l-1.28.85c.91-.25,1.67.05,1.46.71,1-.49.13-1.14,1.71-1.28.07-.41-1.14-.29-.62-.83l2.2-1.1h0l.15-.09-.15.08c.07-.12.35-.14,1.06,0-.19,1.85,1.83.1.72,1.91,3.12.15,5.74-1.07,8.42-.19,1.09-1.81,5.3,0,5-2.37a4.83,4.83,0,0,1,3.66,1.41c-.3.18-.68-.11-1-.23.4.59,2.21.7,3,.7-1-.54-2.59-1-3.37-1.9a23.89,23.89,0,0,1,4.05,1.42l.35-1.2c1.15.88,1-1,2.13.23l-.22.35c2.12-.07,2.14,1.13,4.12,1.29l-.09-.47c.68-.19,1.68.94,2.35-.14l-1.29-.05c.13-.84,1.12-1.2,1.57-1.62,1.36.23.47,1.37,1.15,1.49.3-.79.08-.43-.4-1.2,1.53.29,3.58.63,4.66,1.65a.39.39,0,0,0,0-.3c1.59-.12,3,1.31,4,.64l-.3-.11c1.27-1.15,3.28,1.12,3.55-.86.6-.36-1.37.07-.4-.89,1.89-.61,1.24,1.67,2.9,1.12-.23.06-.15-.06-.23-.24a39.23,39.23,0,0,1,4.12.48c1.64-1.6,5,.44,6.86-1.42-.6.66.47.78.47,1.07a.33.33,0,0,1,0-.29c.68-.05.76.58,1,.85.56-.56,1.88.64,2.24.26,0,.42.55.32,1.16.32-1.22-.48-.39-.9-.93-1.56,1.82-.18,2.07,1.85,4,1.55l1.06-.78a1,1,0,0,0,.85.82c2.7-.32,6,.08,7.44-1.14,2.89.53,5.07,1.8,8.18,1.64l0-.19c1-.22,3.16-.65,3.14-2,2.25.32,3.69,2.16,6.36,1.57l-.58-.51c.68-.26,1.77.38,2,.54.23,0,.06-.3,0-.48.64-.46,1,.26,1.53.39l-.21-.45c2.13-.92,5.5.91,8.24.69-.51-.14-.24-.65,0-.86,1.13,1.49,4.21,1.15,5.36,1.5l-.71-.59c2.24,1,1.94-1.56,4.15-.56l-1.27.85c.91-.25,1.67,0,1.46.71,1-.49.13-1.14,1.71-1.28.07-.42-1.14-.29-.62-.83l2.19-1.1h0l.16-.09-.15.08c.07-.12.35-.15,1.06,0-.19,1.86,1.83.11.72,1.92,3.11.15,5.74-1.07,8.42-.2,1.09-1.8,5.3,0,5-2.36a4.83,4.83,0,0,1,3.66,1.41c-.3.18-.68-.12-1-.23.4.59,2.21.7,3,.7-1-.54-2.59-1-3.37-1.9a24,24,0,0,1,4.05,1.41l.35-1.2c1.15.89,1-1,2.13.23l-.22.36c2.12-.07,2.14,1.12,4.11,1.29l-.08-.48c.68-.18,1.68.95,2.35-.13l-1.29-.06c.13-.83,1.12-1.2,1.56-1.62,1.37.23.48,1.38,1.16,1.49.3-.78.08-.42-.4-1.2,1.53.29,3.58.64,4.66,1.66a.39.39,0,0,0,0-.3c1.59-.13,3,1.3,4,.64l-.3-.12c1.27-1.14,3.28,1.12,3.55-.85.6-.36-1.37.06-.4-.9,1.89-.6,1.24,1.67,2.9,1.13-.23.06-.15-.06-.23-.24a39.43,39.43,0,0,1,4.12.47c1.64-1.59,5,.45,6.86-1.41-.6.66.47.77.47,1.07a.35.35,0,0,1,0-.3c.68,0,.76.59,1,.86.56-.57,1.88.63,2.24.26,0,.42.55.31,1.16.31-1.22-.48-.39-.89-.93-1.55,1.82-.19,2.07,1.85,4,1.55l1.06-.78c0,.11.4,0,.74.25,1.78,1.46,2.67-.49,2.49.14-.39,1.38,2.84,0,3,.08s3.41,1.3,3-.08c-.18-.63.71,1.32,2.49-.14.35-.28.73-.14.74-.25l1.06.78c1.89.3,2.14-1.74,4-1.55-.54.66.29,1.07-.93,1.55.61,0,1.16.11,1.16-.31.36.37,1.68-.83,2.24-.26.25-.27.33-.9,1-.86a.35.35,0,0,1,0,.3c0-.3,1.07-.41.47-1.07,1.88,1.86,5.22-.18,6.86,1.41a39.43,39.43,0,0,1,4.12-.47c-.08.18,0,.3-.23.24,1.66.54,1-1.73,2.9-1.13,1,1-1,.54-.4.9.28,2,2.28-.29,3.55.85l-.3.12c1,.66,2.36-.77,3.95-.64a.39.39,0,0,0,0,.3c1.08-1,3.13-1.37,4.66-1.66-.48.78-.7.42-.4,1.2.68-.11-.21-1.26,1.16-1.49.44.42,1.43.79,1.56,1.62l-1.29.06c.67,1.08,1.67-.05,2.35.13l-.08.48c2-.17,2-1.36,4.11-1.29l-.22-.36c1.16-1.19,1,.66,2.13-.23l.35,1.2a24,24,0,0,1,4-1.41c-.78.9-2.38,1.36-3.37,1.9.76,0,2.57-.11,3-.7-.31.11-.69.41-1,.23a4.84,4.84,0,0,1,3.66-1.41c-.26,2.33,3.94.56,5,2.36,2.68-.87,5.31.35,8.42.2-1.11-1.81.91-.06.72-1.92.71-.12,1-.09,1.06,0l-.15-.08.16.09h0l2.19,1.1c.52.54-.69.41-.62.83,1.58.14.66.79,1.71,1.28-.21-.67.55-1,1.46-.71l-1.27-.85c2.21-1,1.91,1.55,4.15.56l-.71.59c1.15-.35,4.23,0,5.36-1.5.2.21.47.72,0,.86,2.74.22,6.11-1.61,8.24-.69l-.21.45c.51-.13.9-.85,1.53-.39,0,.18-.2.45,0,.48.27-.16,1.36-.8,2-.54l-.58.51c2.67.59,4.11-1.25,6.36-1.57,0,1.34,2.09,1.77,3.14,2l0,.19c3.11.16,5.29-1.11,8.18-1.64,1.49,1.22,4.74.82,7.44,1.14a1,1,0,0,0,.85-.82l1.06.78c1.89.3,2.14-1.73,4-1.55-.54.66.29,1.08-.93,1.56.61,0,1.16.1,1.16-.32.36.38,1.68-.82,2.24-.26.25-.27.33-.9,1-.85a.33.33,0,0,1,0,.29c0-.29,1.07-.41.47-1.07,1.88,1.86,5.22-.18,6.86,1.42a39.54,39.54,0,0,1,4.12-.48c-.08.18,0,.3-.23.24,1.66.55,1-1.73,2.9-1.12,1,1-1,.53-.4.89.27,2,2.28-.29,3.55.86l-.3.11c1,.67,2.36-.76,3.95-.64a.39.39,0,0,0,0,.3c1.08-1,3.13-1.36,4.66-1.65-.48.77-.7.41-.4,1.2.68-.12-.21-1.26,1.16-1.49.44.42,1.43.78,1.56,1.62l-1.29.05c.67,1.08,1.67-.05,2.35.14l-.09.47c2-.16,2-1.36,4.12-1.29l-.22-.35c1.16-1.2,1,.65,2.13-.23l.35,1.2a23.89,23.89,0,0,1,4-1.42c-.78.9-2.38,1.36-3.37,1.9.76,0,2.57-.11,3-.7-.31.12-.69.41-1,.23a4.83,4.83,0,0,1,3.66-1.41c-.27,2.33,3.94.56,5,2.37,2.68-.88,5.31.34,8.42.19-1.11-1.81.91-.06.72-1.91.71-.12,1-.1,1.06,0l-.15-.08.15.09h0l2.2,1.1c.52.54-.69.42-.62.83,1.58.14.66.79,1.71,1.28-.21-.66.55-1,1.46-.71l-1.28-.85c2.22-1,1.92,1.55,4.16.57l-.71.58c1.15-.35,4.23,0,5.36-1.5.2.22.47.73,0,.86,2.74.22,6.11-1.6,8.24-.69l-.21.46c.51-.13.89-.86,1.53-.4,0,.19-.2.45,0,.48.27-.16,1.36-.8,2-.54l-.58.52c2.67.59,4.11-1.26,6.35-1.58,0,1.34,2.1,1.77,3.14,2l0,.19c3.11.16,5.29-1.11,8.18-1.64,1.49,1.22,4.74.82,7.44,1.14a1,1,0,0,0,.85-.82l1.06.78c1.89.31,2.14-1.73,4-1.55-.54.66.29,1.08-.93,1.56.61,0,1.15.1,1.16-.31.36.37,1.68-.83,2.24-.27.25-.26.33-.89,1-.85a.36.36,0,0,1,0,.3c0-.3,1.07-.42.47-1.08,1.88,1.86,5.22-.18,6.86,1.42a39.13,39.13,0,0,1,4.12-.47c-.08.18,0,.29-.23.23,1.66.55,1-1.73,2.9-1.12,1,1-1,.53-.4.9.27,2,2.28-.29,3.55.85l-.3.12c1,.66,2.36-.77,4-.64a.38.38,0,0,0,0,.3c1.08-1,3.13-1.37,4.65-1.66-.47.78-.69.41-.39,1.2.68-.12-.21-1.26,1.15-1.49.45.42,1.44.78,1.57,1.62l-1.29,0c.67,1.08,1.67,0,2.35.14l-.09.48c2-.17,2-1.37,4.12-1.29l-.22-.36c1.16-1.19,1,.66,2.13-.23l.35,1.2a23.11,23.11,0,0,1,4.05-1.41c-.78.89-2.38,1.36-3.37,1.89.76,0,2.57-.1,3-.7-.31.12-.69.42-1,.23a4.83,4.83,0,0,1,3.66-1.41c-.27,2.33,3.94.56,5,2.37,2.67-.87,5.3.34,8.42.19-1.11-1.8.91-.05.72-1.91.71-.12,1-.09,1.06,0l-.15-.07.15.08h0l2.2,1.1c.52.54-.69.41-.63.83,1.59.13.67.78,1.72,1.27-.21-.66.55-1,1.46-.7l-1.28-.85c2.22-1,1.92,1.55,4.16.56l-.71.59c1.15-.35,4.23,0,5.36-1.5.2.21.47.72,0,.85,2.74.22,6.11-1.6,8.24-.68l-.21.45c.51-.13.89-.85,1.53-.4,0,.19-.2.46,0,.48.27-.16,1.36-.8,2-.53l-.58.51c2.67.59,4.11-1.26,6.35-1.57,0,1.34,2.09,1.77,3.14,2l0,.19c3.11.17,5.29-1.11,8.18-1.63,1.49,1.21,4.78.61,7.48.93V217.57Z"/><path class="cls-2" d="M584.26,296.08h-1.92l-8.62-20.43q-1.79-4.23-3.58-9.19h-.21q.36,7.14.36,13.07v16.55h-4.17V261.86h6l8.06,19.36c.92,2.22,1.94,4.89,3,8h.13c1.23-3.47,2.24-6.13,3-8l8.05-19.36h6v34.22H596.3V279.53q0-5.8.36-13.07h-.2q-1.9,5.25-3.58,9.19Z"/><path class="cls-2" d="M620.19,293.27a18.87,18.87,0,0,0,3.59-.32A22.72,22.72,0,0,0,627,292v3.3a13.45,13.45,0,0,1-3.22,1,21.55,21.55,0,0,1-4.12.37,17.27,17.27,0,0,1-4.9-.67,10.13,10.13,0,0,1-4-2.14A9.9,9.9,0,0,1,608.2,290a15.49,15.49,0,0,1-1-5.77,16.42,16.42,0,0,1,.92-5.76,12.09,12.09,0,0,1,2.45-4.08,9.94,9.94,0,0,1,3.52-2.46,10.9,10.9,0,0,1,4.16-.82,10.6,10.6,0,0,1,3.81.68,7.88,7.88,0,0,1,3.08,2.14,10.46,10.46,0,0,1,2,3.76,17.88,17.88,0,0,1,.75,5.52v.53c0,.14,0,.47,0,1H611.19a9.9,9.9,0,0,0,.7,3.95,7.05,7.05,0,0,0,1.92,2.64,7.73,7.73,0,0,0,2.85,1.47A13.27,13.27,0,0,0,620.19,293.27Zm-2.09-18.72a6,6,0,0,0-2.55.53,6.71,6.71,0,0,0-2.06,1.46,7.17,7.17,0,0,0-1.42,2.16,8.41,8.41,0,0,0-.68,2.65h12.43a9.12,9.12,0,0,0-.37-2.67,6.67,6.67,0,0,0-1.1-2.16,5.14,5.14,0,0,0-1.79-1.45A5.5,5.5,0,0,0,618.1,274.55Z"/><path class="cls-2" d="M634.87,266.13v-4.42h4v4.42Zm.1,29.95v-24.3h4v24.3Z"/><path class="cls-2" d="M650.7,275.16h.08a12.1,12.1,0,0,1,1.47-1.57,9.3,9.3,0,0,1,1.8-1.28,9.43,9.43,0,0,1,2.19-.86,10.88,10.88,0,0,1,5.71.15,6.5,6.5,0,0,1,2.54,1.49,7.18,7.18,0,0,1,1.7,2.67,11.65,11.65,0,0,1,.62,4.05v16.27h-4V280.45c0-2.09-.41-3.6-1.22-4.52a4.47,4.47,0,0,0-3.54-1.38,7.74,7.74,0,0,0-4,1.13,10.58,10.58,0,0,0-3.3,3.14v17.26h-4v-24.3h3.07Z"/><path class="cls-2" d="M685.23,296.08v-37h4v37Z"/><path class="cls-2" d="M697.27,266.13v-4.42h4v4.42Zm.1,29.95v-24.3h4v24.3Z"/><path class="cls-2" d="M720.8,293.27a18.87,18.87,0,0,0,3.59-.32,22.36,22.36,0,0,0,3.24-.91v3.3a13.3,13.3,0,0,1-3.22,1,21.47,21.47,0,0,1-4.12.37,17.27,17.27,0,0,1-4.9-.67,10.27,10.27,0,0,1-4-2.14,10,10,0,0,1-2.62-3.88,15.7,15.7,0,0,1-.95-5.77,16.42,16.42,0,0,1,.92-5.76,12.09,12.09,0,0,1,2.45-4.08,10,10,0,0,1,3.52-2.46,10.9,10.9,0,0,1,4.16-.82,10.6,10.6,0,0,1,3.81.68A7.88,7.88,0,0,1,725.8,274a10.46,10.46,0,0,1,2.05,3.76,17.88,17.88,0,0,1,.75,5.52v.53c0,.14,0,.47,0,1H711.8a9.9,9.9,0,0,0,.7,3.95,7.05,7.05,0,0,0,1.92,2.64,7.73,7.73,0,0,0,2.85,1.47A13.27,13.27,0,0,0,720.8,293.27Zm-2.09-18.72a6,6,0,0,0-2.55.53,6.83,6.83,0,0,0-2.06,1.46,7.17,7.17,0,0,0-1.42,2.16,8.41,8.41,0,0,0-.68,2.65h12.43a9.12,9.12,0,0,0-.37-2.67,6.48,6.48,0,0,0-1.1-2.16,5.14,5.14,0,0,0-1.79-1.45A5.5,5.5,0,0,0,718.71,274.55Z"/><path class="cls-2" d="M757.12,283.52a17,17,0,0,1-.92,5.88,12.3,12.3,0,0,1-2.43,4.11,9.8,9.8,0,0,1-3.45,2.42,10.74,10.74,0,0,1-4,.79,8.52,8.52,0,0,1-2.75-.4,8.63,8.63,0,0,1-2-.94,6.74,6.74,0,0,1-1.33-1.12,6.47,6.47,0,0,1-.7-.89h-.08l-.84,2.71h-3v-37h4v15h.07a9.34,9.34,0,0,1,3-2.15,9.75,9.75,0,0,1,4-.77,12,12,0,0,1,2.21.23,9.68,9.68,0,0,1,2.36.8,10.58,10.58,0,0,1,2.24,1.48,9.4,9.4,0,0,1,1.89,2.29,12.25,12.25,0,0,1,1.3,3.25A17.09,17.09,0,0,1,757.12,283.52Zm-4.15.31a13.59,13.59,0,0,0-.67-4.69,7.38,7.38,0,0,0-1.74-2.82,5.94,5.94,0,0,0-2.27-1.39,7.71,7.71,0,0,0-2.4-.38,8,8,0,0,0-3.46.76,10.25,10.25,0,0,0-2.88,2V290a10.05,10.05,0,0,0,.93,1.06,8,8,0,0,0,1.37,1.07,8.38,8.38,0,0,0,1.78.85,6.44,6.44,0,0,0,2.16.34,6.75,6.75,0,0,0,3.11-.69,6.37,6.37,0,0,0,2.25-1.95,9.09,9.09,0,0,0,1.36-3A15,15,0,0,0,753,283.83Z"/><path class="cls-2" d="M763.64,296.08v-37h4v37Z"/><path class="cls-2" d="M775.69,266.13v-4.42h4v4.42Zm.1,29.95v-24.3h4v24.3Z"/><path class="cls-2" d="M791.52,275.16h.07a13.66,13.66,0,0,1,1.47-1.57,9.07,9.07,0,0,1,1.81-1.28,9.35,9.35,0,0,1,2.18-.86,10.65,10.65,0,0,1,2.6-.31,10.51,10.51,0,0,1,3.12.46,6.46,6.46,0,0,1,2.53,1.49,7.05,7.05,0,0,1,1.7,2.67,11.41,11.41,0,0,1,.63,4.05v16.27h-4V280.45c0-2.09-.4-3.6-1.21-4.52a4.47,4.47,0,0,0-3.54-1.38,7.75,7.75,0,0,0-4,1.13,10.58,10.58,0,0,0-3.3,3.14v17.26h-4v-24.3h3.07Z"/><path class="cls-2" d="M824.71,271.14a9.67,9.67,0,0,1,2.76.41,8.32,8.32,0,0,1,2,1,7.69,7.69,0,0,1,1.34,1.14,5.37,5.37,0,0,1,.68.9h.1l.82-2.77h3v25.73a12.1,12.1,0,0,1-.92,4.9,9.48,9.48,0,0,1-2.59,3.47,10.83,10.83,0,0,1-4,2.05,18.25,18.25,0,0,1-5.18.68,19.86,19.86,0,0,1-4.29-.42,11.7,11.7,0,0,1-3-1v-3.35a16.41,16.41,0,0,0,1.69.6,17.38,17.38,0,0,0,1.69.41,17.12,17.12,0,0,0,1.77.24c.61.05,1.28.08,2,.08q4.27,0,6.55-2c1.52-1.33,2.27-3.35,2.27-6.08v-3.25h-.07a8.69,8.69,0,0,1-3,2.16,10,10,0,0,1-4,.73,11.68,11.68,0,0,1-2.2-.23,9.89,9.89,0,0,1-2.36-.78,10.29,10.29,0,0,1-2.25-1.46,9.1,9.1,0,0,1-1.89-2.27,13,13,0,0,1-1.32-3.24,19.07,19.07,0,0,1,.43-10.22,12.32,12.32,0,0,1,2.42-4.13A9.8,9.8,0,0,1,820.7,272,10.3,10.3,0,0,1,824.71,271.14ZM818,284.09a13.44,13.44,0,0,0,.69,4.68,7.44,7.44,0,0,0,1.75,2.82,5.68,5.68,0,0,0,2.31,1.38,8.32,8.32,0,0,0,2.38.37,8.12,8.12,0,0,0,3.46-.74,9.16,9.16,0,0,0,2.83-2V277.87a7.8,7.8,0,0,0-.92-1.05,8.43,8.43,0,0,0-1.36-1.09,8.62,8.62,0,0,0-1.78-.84,6.64,6.64,0,0,0-2.18-.34,6.56,6.56,0,0,0-3.1.7,6.32,6.32,0,0,0-2.25,2,8.63,8.63,0,0,0-1.37,3A15.13,15.13,0,0,0,818,284.09Z"/><path class="cls-2" d="M845.94,278.25a2.86,2.86,0,0,0,.43,1.64,3.24,3.24,0,0,0,1.13,1,7.77,7.77,0,0,0,1.65.65c.63.17,1.27.32,1.94.46.92.2,1.78.43,2.6.68a7.55,7.55,0,0,1,2.26,1.11,5.21,5.21,0,0,1,1.68,2,7.36,7.36,0,0,1,.64,3.28,7.08,7.08,0,0,1-.72,3.26,6.62,6.62,0,0,1-2,2.38,9.38,9.38,0,0,1-3.12,1.46,15.13,15.13,0,0,1-4,.5,19.74,19.74,0,0,1-2.42-.14,15.58,15.58,0,0,1-1.91-.36,10.45,10.45,0,0,1-1.42-.45,10,10,0,0,1-1-.43V292a21.27,21.27,0,0,0,3,1,14.45,14.45,0,0,0,3.27.35,11.47,11.47,0,0,0,2.53-.25,6.25,6.25,0,0,0,1.95-.76,3.56,3.56,0,0,0,1.25-1.25,3.35,3.35,0,0,0,.44-1.75,3.2,3.2,0,0,0-.4-1.69,3.44,3.44,0,0,0-1.08-1.1,6.5,6.5,0,0,0-1.57-.72c-.59-.18-1.21-.35-1.87-.51-.85-.18-1.72-.41-2.6-.66a9.67,9.67,0,0,1-2.4-1.08,5.18,5.18,0,0,1-1.74-1.88,6.24,6.24,0,0,1-.66-3.05,7.5,7.5,0,0,1,.69-3.33,6.64,6.64,0,0,1,1.86-2.32,8.15,8.15,0,0,1,2.74-1.39,11.85,11.85,0,0,1,3.3-.46,17,17,0,0,1,3.75.39,18.28,18.28,0,0,1,3.13,1v3.38a21.27,21.27,0,0,0-3-1,14.39,14.39,0,0,0-3.16-.4,8.33,8.33,0,0,0-2.34.28,4.6,4.6,0,0,0-1.6.78,2.94,2.94,0,0,0-.91,1.18A3.64,3.64,0,0,0,845.94,278.25Z"/><path class="cls-2" d="M885.81,283.65a18.4,18.4,0,0,1-.5,4.49,13.77,13.77,0,0,1-1.32,3.41,9.56,9.56,0,0,1-1.93,2.45,11.27,11.27,0,0,1-2.28,1.58,10.12,10.12,0,0,1-2.41.87,10.64,10.64,0,0,1-2.3.27,9.38,9.38,0,0,1-3.87-.73,8.92,8.92,0,0,1-3-2.16h-.08V308h-3.88V271.78h3l.84,2.77h.08a4.93,4.93,0,0,1,.86-1,9.59,9.59,0,0,1,1.4-1,10.6,10.6,0,0,1,2.13-1,8.57,8.57,0,0,1,2.69-.41,11.54,11.54,0,0,1,4,.69,9,9,0,0,1,3.36,2.2,11.13,11.13,0,0,1,2.34,3.88A16.46,16.46,0,0,1,885.81,283.65Zm-4.14.05a14.86,14.86,0,0,0-.45-3.81,8.34,8.34,0,0,0-1.35-2.88,6.06,6.06,0,0,0-2.21-1.82,6.83,6.83,0,0,0-3-.64,7.23,7.23,0,0,0-2.25.33,8.38,8.38,0,0,0-1.84.84,8.2,8.2,0,0,0-1.42,1.1,11.54,11.54,0,0,0-1,1.05v12.71a9.7,9.7,0,0,0,2.87,2,8.09,8.09,0,0,0,3.46.74,7.69,7.69,0,0,0,2.4-.42,5.78,5.78,0,0,0,2.32-1.51,8.23,8.23,0,0,0,1.76-3A13.67,13.67,0,0,0,881.67,283.7Z"/><path class="cls-2" d="M905.4,275h-.31a15,15,0,0,0-2.76.25,11.55,11.55,0,0,0-2.54.78,9.81,9.81,0,0,0-2.15,1.29,7,7,0,0,0-1.6,1.82v16.93h-4v-24.3h3.07l.76,3.87H896a8.87,8.87,0,0,1,1.44-1.77,10.35,10.35,0,0,1,1.94-1.43,9.82,9.82,0,0,1,2.35-1,10.26,10.26,0,0,1,2.68-.35l.53,0,.47,0Z"/><path class="cls-2" d="M931.28,284a15.6,15.6,0,0,1-.82,5.21,11.56,11.56,0,0,1-2.31,4,10.29,10.29,0,0,1-3.62,2.6,11.89,11.89,0,0,1-4.76.92,12.18,12.18,0,0,1-4.84-.92,10.15,10.15,0,0,1-3.63-2.6,11.37,11.37,0,0,1-2.29-4,17.29,17.29,0,0,1,0-10.46,12.08,12.08,0,0,1,2.32-4,10.35,10.35,0,0,1,3.63-2.61,12,12,0,0,1,4.77-.92,12.2,12.2,0,0,1,4.83.92,10.09,10.09,0,0,1,3.63,2.61,11.83,11.83,0,0,1,2.28,4A16.35,16.35,0,0,1,931.28,284Zm-4.14,0a13.32,13.32,0,0,0-.55-4,9.1,9.1,0,0,0-1.53-3,6.47,6.47,0,0,0-2.34-1.84,7.32,7.32,0,0,0-5.94,0,6.47,6.47,0,0,0-2.34,1.84,8.91,8.91,0,0,0-1.53,3,13.32,13.32,0,0,0-.55,4,13.09,13.09,0,0,0,.55,4,8.41,8.41,0,0,0,1.55,3,6.61,6.61,0,0,0,2.35,1.83,7.38,7.38,0,0,0,5.92,0,6.72,6.72,0,0,0,2.33-1.83,8.9,8.9,0,0,0,1.53-3A13.09,13.09,0,0,0,927.14,284Z"/><path class="cls-2" d="M951.64,262.17a15,15,0,0,0-1.69-.23c-.61-.05-1.14-.08-1.58-.08a8,8,0,0,0-2.39.33,4.26,4.26,0,0,0-1.78,1.06,4.73,4.73,0,0,0-1.1,1.92,9.35,9.35,0,0,0-.38,2.88v3.73h11.73v3.41H942.72v20.89h-4V275.19h-4.27v-3.41h4.27v-3.7a12.46,12.46,0,0,1,.7-4.44,8.11,8.11,0,0,1,1.94-3,7.53,7.53,0,0,1,2.89-1.71,11.19,11.19,0,0,1,3.58-.55,17.65,17.65,0,0,1,2.26.13,8,8,0,0,1,1.52.28Z"/><path class="cls-2" d="M954.45,296.08v-24.3h4v24.3Z"/><path class="cls-2" d="M966.6,296.08v-37h4v37Z"/><path class="cls-2" d="M487.94,169.21,435.14,91.5v77.71h-14.6V66.13H434l57.71,84.2,58.37-84.2h13.48V169.21H548.84v-78l-53.77,78Z"/><path class="cls-2" d="M706,78.82H634a28.44,28.44,0,0,0-11.1,2.31,33.8,33.8,0,0,0-10,6.37,35,35,0,0,0-7.38,9.65,26.51,26.51,0,0,0-3.09,12h102.6v12.37H602.45v2.22a33.62,33.62,0,0,0,2.61,13.48,32.1,32.1,0,0,0,17.85,17.28,35.16,35.16,0,0,0,13,2.38H706v12.37H631.15A42.93,42.93,0,0,1,614.89,166a43.89,43.89,0,0,1-14-9,44.44,44.44,0,0,1-9.83-14A42.91,42.91,0,0,1,587.38,125V110.37a41.81,41.81,0,0,1,3.84-18,44.42,44.42,0,0,1,10.16-14,47.47,47.47,0,0,1,14.22-9,42.86,42.86,0,0,1,16.34-3.24H706Z"/><path class="cls-2" d="M844.28,169.21H769.91a46,46,0,0,1-17.13-3.09,39,39,0,0,1-22.48-22.68A50.15,50.15,0,0,1,727.08,125V66.28h15.08V123.7a40.17,40.17,0,0,0,2.22,13.87A29,29,0,0,0,750.72,148a28.11,28.11,0,0,0,9.75,6.58,33.13,33.13,0,0,0,12.61,2.3h71.2Z"/><path class="cls-2" d="M871.57,66.28v43.46H926a31.82,31.82,0,0,0,10.78-1.6q4.44-1.58,7.94-7.64c.63-1,1.87-3.23,3.72-6.52s3.85-6.84,6-10.66,4.18-7.38,6-10.67,3-5.46,3.57-6.52h16.33l-22,39.38a40.69,40.69,0,0,1-4.6,6.6,14.08,14.08,0,0,1-6.81,4.2v.16a16.91,16.91,0,0,1,8.32,3.49,23,23,0,0,1,5.63,7.28l22.68,42H967.19l-19.66-36.63a19.32,19.32,0,0,0-3.33-4.84,15.87,15.87,0,0,0-4.52-3.25,22.3,22.3,0,0,0-6.35-1.83,62.21,62.21,0,0,0-8.8-.55h-53v47.1H856.81V66.28Z"/><path class="cls-2" d="M1118.5,78.82h-72a28.51,28.51,0,0,0-11.1,2.31,33.88,33.88,0,0,0-10,6.37,35,35,0,0,0-7.39,9.65,26.63,26.63,0,0,0-3.08,12h102.6v12.37h-102.6v2.22a33.45,33.45,0,0,0,2.61,13.48,32.13,32.13,0,0,0,17.84,17.28,35.21,35.21,0,0,0,13,2.38h70.11v12.37h-74.86a42.93,42.93,0,0,1-16.26-3.18,43.78,43.78,0,0,1-14-9,44.44,44.44,0,0,1-9.83-14,42.91,42.91,0,0,1-3.7-18.08V110.37a41.67,41.67,0,0,1,3.85-18,44.42,44.42,0,0,1,10.16-14,47.47,47.47,0,0,1,14.22-9,42.86,42.86,0,0,1,16.34-3.24h74.07Z"/><path class="cls-3" d="M344.69,89.06l-54.14-76v66.4l-.88,0c-.44.32-.89.2-1.27.72l.17,0c-.08.15-.36.23-.43.25s0,.06.06.08c-.05.17-.21.12-.32.19l.1,0c-.24.48-1.08.76-1.52,1.23.1-.06.13.06.12.12-.4,0-.89.51-1.13.65l.2,0c-.53.22-.12.54-.64.75l.1-.33c-.12.19-.29.27-.35.13-.11.25.13.19-.12.47,0,.07.24-.14.22,0l-.23.52h0s0,.08-.18.18c-.22-.31-.33.28-.39-.17-.56.48-.85,1.09-1.43,1.39.06.44-.91.86-.55,1.17a1.27,1.27,0,0,1-.83.38c0-.08.14-.1.21-.13-.15,0-.48.26-.61.38a3.17,3.17,0,0,1,.84-.27,6.19,6.19,0,0,1-.89.45l.1.24c-.32,0,0,.29-.4.31v-.09c-.36.35-.53.18-.89.47l.08.06c-.1.14-.43.13-.39.4l.23-.2c.09.14,0,.36,0,.49-.27.19-.27-.12-.41,0,.06.16.05.07.24.11a2.52,2.52,0,0,1-1,.51s.05,0,.05,0c-.26.28-.7.29-.78.55l.07,0c-.06.37-.72.36-.5.7-.05.15.23-.23.2.06-.25.4-.45,0-.66.31,0,0,0,0,.07,0-.21.18-.52.41-.78.59-.06.5-.92.74-1,1.32,0-.19-.19,0-.23-.08s0,0,0,0-.21,0-.29,0c0,.17-.42.21-.43.32-.06-.06-.14,0-.24.14.27-.12.19.08.37.08-.29.33-.61.07-.9.42l-.07.28a.23.23,0,0,0-.26,0c-.43.48-1.05,1-1.14,1.37a9.47,9.47,0,0,0-1.64,1.08l0,0c-.15.2-.46.6-.27.8-.43.31-.94.27-1.32.79h.17a.82.82,0,0,1-.42.25s0,0,.06.07c0,.17-.22.13-.32.19l.1,0c-.25.48-1.08.76-1.53,1.24.11-.07.13.05.13.12-.4,0-.89.51-1.14.64l.21,0c-.53.22-.13.55-.65.76l.11-.33c-.13.18-.3.26-.35.13-.12.24.13.19-.13.46.05.08.24-.14.23,0l-.23.51h0s0,.07-.17.17c-.23-.3-.33.28-.39-.17-.56.49-.85,1.09-1.43,1.39.05.45-.92.87-.55,1.17a1.24,1.24,0,0,1-.83.38c0-.07.13-.09.2-.12-.15,0-.48.25-.61.37a3,3,0,0,1,.85-.26,7.48,7.48,0,0,1-.9.45l.11.23c-.33,0,0,.3-.41.31v-.09c-.35.36-.52.18-.89.48l.08,0c-.09.14-.42.14-.39.4l.23-.2c.1.15,0,.36,0,.5-.27.18-.28-.13-.41,0,.06.17.05.08.23.12a2.53,2.53,0,0,1-1,.5s0,0,0,0c-.26.27-.69.29-.77.54l.07,0c-.07.38-.73.37-.5.7-.05.15.23-.23.19.07-.24.39-.44,0-.66.3,0,0,0,0,.08,0-.22.19-.52.41-.78.6-.07.5-.93.74-1,1.32,0-.2-.18,0-.23-.09a.11.11,0,0,1,0,0c-.12.11-.22,0-.3,0,0,.18-.41.21-.42.33-.06-.06-.14,0-.25.14.28-.13.19.07.38.08-.29.32-.62.06-.9.41l-.08.29c-.08-.07-.18,0-.26,0-.42.49-1,1-1.13,1.38a9,9,0,0,0-1.65,1.08l0,0c-.15.2-.46.61-.27.8-.44.32-.94.28-1.32.8l.17,0c-.08.15-.36.23-.43.25s0,0,.06.08-.21.12-.32.18l.1,0c-.24.48-1.08.75-1.52,1.23.1-.06.13.06.12.12-.4,0-.89.51-1.13.65l.2,0c-.52.21-.12.54-.64.75l.1-.33c-.12.18-.29.27-.35.13-.11.25.14.19-.12.47.05.07.24-.14.22,0l-.23.52h0s0,.08-.18.18c-.22-.31-.33.27-.39-.17-.56.48-.85,1.09-1.43,1.39.06.44-.91.86-.55,1.16a1.24,1.24,0,0,1-.83.39c0-.08.14-.1.21-.13-.15,0-.48.26-.61.38a3.29,3.29,0,0,1,.84-.27,6.19,6.19,0,0,1-.89.45l.1.23c-.32.06,0,.3-.4.31v-.08c-.36.35-.53.18-.89.47l.08.06c-.1.13-.42.13-.39.4l.23-.2c.09.14,0,.36,0,.49-.27.19-.27-.13-.4,0,0,.16,0,.07.23.11a2.76,2.76,0,0,1-1,.51s0,0,0,0c-.26.28-.7.29-.78.55l.07,0c-.06.38-.72.37-.49.7-.06.16.22-.23.19.07-.25.4-.45,0-.66.31,0,0,0,0,.07,0a8.41,8.41,0,0,1-.78.6c-.06.5-.92.74-1,1.32,0-.19-.19,0-.23-.08s0,0,0,0-.21,0-.29,0c0,.17-.42.21-.43.32-.06-.06-.14,0-.24.14.28-.12.19.07.37.08-.29.32-.61.06-.9.42l-.07.28s-.07.07-.17.08c-.51.08-.39.51-.45.39s-.49.45-.53.47-.77.36-.52.5-.3-.08-.41.43c0,.1-.11.14-.09.16l-.29.05c-.37.26-.14.6-.48.87,0-.18-.19-.11,0-.38-.11.1-.21.17-.16.24-.11,0-.17.39-.35.4,0,.08.07.18-.06.29s0,0,0,0-.13.24.07.24c-.58,0-.88.87-1.39.9a9.35,9.35,0,0,1-.65.73s0,0,0-.07c-.36.19.07.42-.35.64-.3,0,.1-.24,0-.2-.32-.25-.36.41-.73.45l0-.07c-.26.06-.3.5-.59.74a.14.14,0,0,0,0-.05,2.69,2.69,0,0,1-.58,1c0-.19.06-.17-.1-.24-.1.12.21.15,0,.4-.14,0-.36.12-.5,0l.22-.22c-.27,0-.29.28-.43.36l0-.08c-.32.34-.16.52-.54.85l.09,0c0,.36-.26.06-.34.38l-.22-.12a5.3,5.3,0,0,1-.51.86,3.32,3.32,0,0,1,.32-.82c-.13.12-.43.43-.42.58,0-.07.07-.17.14-.19a1.23,1.23,0,0,1-.44.8c-.27-.39-.76.55-1.2.46-.34.56-1,.81-1.48,1.34.44.08-.15.15.14.4-.11.13-.16.17-.19.16h0l-.53.2c-.17,0,.06-.18,0-.23-.29.24-.22,0-.47.09.13.07,0,.23-.16.34l.34-.08c-.25.51-.55.08-.8.59l0-.2c-.15.24-.73.68-.72,1.09-.06,0-.18,0-.11-.13-.51.41-.84,1.22-1.33,1.43l0-.1c-.07.1,0,.27-.21.31s0-.1-.07-.07-.13.34-.28.41l0-.17c-.55.34-.54.85-.89,1.26-.18-.2-.6.08-.82.21v0a8.49,8.49,0,0,0-1.2,1.57c-.42.06-.93.64-1.45,1a.23.23,0,0,0,0,.26l-.29.06c-.37.26-.13.6-.47.87,0-.19-.2-.12-.06-.38-.1.09-.21.17-.16.23-.11,0-.17.39-.35.4,0,.08.07.19-.06.29s0,0,0,0-.12.23.07.23c-.58,0-.88.87-1.38.9a9.8,9.8,0,0,1-.65.74s0-.05,0-.07c-.36.18.07.41-.34.63-.3,0,.1-.24-.06-.2-.32-.24-.35.42-.73.45l0-.06c-.27.06-.31.49-.6.73,0,0,0,0,0,0a2.69,2.69,0,0,1-.58,1c0-.19.06-.17-.1-.24-.1.13.21.15,0,.41-.14,0-.36.11-.5,0l.22-.21c-.27-.06-.28.27-.43.36l-.05-.09c-.32.35-.16.53-.53.86l.08,0c0,.36-.26.06-.33.37l-.23-.12a5.79,5.79,0,0,1-.51.87,2.94,2.94,0,0,1,.33-.83c-.14.12-.44.43-.42.59,0-.07.06-.18.14-.2a1.27,1.27,0,0,1-.44.8c-.28-.38-.76.56-1.2.47-.35.56-1,.8-1.49,1.33.44.09-.15.16.14.4-.11.13-.16.17-.18.16h0l-.53.19c-.16,0,.06-.17,0-.22-.29.23-.22,0-.47.09.13.06,0,.23-.16.34l.34-.08c-.24.5-.54.08-.79.58l0-.2c-.15.24-.74.69-.73,1.09-.06,0-.18,0-.11-.13-.5.41-.84,1.22-1.33,1.43l0-.1c-.07.11,0,.27-.21.31,0,0,0-.1-.07-.07a.78.78,0,0,1-.28.41l0-.17c-.54.35-.54.85-.88,1.26-.19-.2-.61.08-.82.22l0,0a9,9,0,0,0-1.2,1.57c-.42.06-.93.65-1.44,1a.21.21,0,0,0,0,.25l-.29.06c-.37.26-.13.6-.47.87,0-.19-.2-.11-.05-.38-.11.1-.22.17-.16.23-.12,0-.18.4-.35.4,0,.09.06.19-.06.29s0,0,0,0-.13.23.06.23c-.58,0-.88.88-1.38.91-.2.24-.45.53-.65.73,0,0,0,0,0-.07-.37.19.06.42-.35.64-.3,0,.1-.25-.06-.2-.32-.25-.35.41-.73.45l0-.07c-.26.06-.31.5-.6.73a.07.07,0,0,0,0,0,2.64,2.64,0,0,1-.58,1c0-.19.06-.18-.09-.24-.11.12.2.15,0,.4-.14,0-.36.12-.49,0l.21-.22c-.26-.05-.28.28-.42.36l-.06-.08c-.31.34-.15.52-.53.85l.09,0c0,.36-.26.06-.34.38L184,178a6.32,6.32,0,0,1-.51.86,3.2,3.2,0,0,1,.33-.82c-.13.12-.43.43-.42.58,0-.07.06-.17.14-.19a1.3,1.3,0,0,1-.44.8c-.28-.39-.76.55-1.2.46-.34.56-1,.81-1.49,1.33.44.09-.15.16.14.4-.1.13-.15.17-.18.17h0l-.53.19c-.16,0,.06-.17,0-.22-.3.24-.23,0-.48.09.13.06,0,.23-.15.34l.34-.08c-.25.51-.55.08-.8.59l0-.2c-.15.23-.73.68-.72,1.09-.07,0-.18,0-.12-.14-.5.41-.83,1.23-1.33,1.44l0-.1c-.07.1,0,.27-.21.3,0,0,0-.1-.07-.06s-.12.34-.28.41l0-.17c-.54.34-.54.85-.88,1.26-.18-.2-.61.07-.82.21l0,0a9.21,9.21,0,0,0-1.19,1.56c-.43.07-.3.14-.81.53v1.19h0V356.59L226,272.34v-127l64.52-60.2v87.58Z"/><path class="cls-3" d="M180.38,181.54c-.07,0,.06-.42-.23-.29C180.43,181.2,180,181.66,180.38,181.54Z"/><path class="cls-3" d="M190.29,172a.15.15,0,0,0-.07.07h0A.08.08,0,0,1,190.29,172Z"/><path class="cls-3" d="M188.88,173.35l-.1.06h.06Z"/><path class="cls-3" d="M189,173l.17.1C189.18,173,189.05,172.87,189,173Z"/><path class="cls-3" d="M184.16,177.76c.11-.09.27-.14.3-.2A.25.25,0,0,0,184.16,177.76Z"/><path class="cls-3" d="M200.29,163.07c-.07,0,.05-.42-.23-.29C200.34,162.73,199.91,163.19,200.29,163.07Z"/><path class="cls-3" d="M210.2,153.48s0,0-.07.07h0A.09.09,0,0,1,210.2,153.48Z"/><path class="cls-3" d="M208.79,154.88l-.1.06h.05Z"/><path class="cls-3" d="M208.86,154.56l.17.11C209.09,154.57,209,154.4,208.86,154.56Z"/><path class="cls-3" d="M204.07,159.28c.11-.09.26-.13.3-.2A.26.26,0,0,0,204.07,159.28Z"/><path class="cls-3" d="M220.19,144.59c-.07,0,.06-.42-.23-.29C220.24,144.25,219.81,144.72,220.19,144.59Z"/><path class="cls-3" d="M230.11,135a.1.1,0,0,0-.07.07h0A.08.08,0,0,1,230.11,135Z"/><path class="cls-3" d="M228.69,136.41l-.09.05h.05Z"/><path class="cls-3" d="M228.77,136.09l.17.11C229,136.1,228.86,135.92,228.77,136.09Z"/><path class="cls-3" d="M224,140.81c.12-.09.27-.13.31-.2A.27.27,0,0,0,224,140.81Z"/><path class="cls-3" d="M284.34,84c-.15.28.26.18.28.25C284.77,83.9,284.27,84.3,284.34,84Z"/><path class="cls-3" d="M274.45,93.43c-.05,0-.07,0-.08.07a.09.09,0,0,1,.07,0A0,0,0,0,0,274.45,93.43Z"/><path class="cls-3" d="M275.92,92.09l-.06.09.06,0Z"/><path class="cls-3" d="M275.54,92.24c-.17.08,0,.22.1.17Z"/><path class="cls-3" d="M280.36,88.07c.07,0,.12-.19.22-.29A.25.25,0,0,0,280.36,88.07Z"/><path class="cls-3" d="M264.54,102.6c-.15.28.25.18.27.26C265,102.48,264.47,102.88,264.54,102.6Z"/><path class="cls-3" d="M254.64,112a.11.11,0,0,0-.07.06.09.09,0,0,1,.07,0Z"/><path class="cls-3" d="M256.12,110.68l-.06.09.05,0A.11.11,0,0,0,256.12,110.68Z"/><path class="cls-3" d="M255.74,110.82c-.18.08,0,.23.09.18Z"/><path class="cls-3" d="M260.55,106.65c.08,0,.13-.18.23-.29A.27.27,0,0,0,260.55,106.65Z"/><path class="cls-3" d="M244.74,121.19c-.16.28.25.18.27.25C245.16,121.07,244.66,121.46,244.74,121.19Z"/><path class="cls-3" d="M234.84,130.6a.14.14,0,0,0-.08.07.09.09,0,0,1,.07,0A0,0,0,0,0,234.84,130.6Z"/><path class="cls-3" d="M236.31,129.26l-.06.09.06,0S236.32,129.28,236.31,129.26Z"/><path class="cls-3" d="M235.93,129.41c-.17.08,0,.22.1.17Z"/><path class="cls-3" d="M240.75,125.24c.07,0,.12-.19.22-.29A.25.25,0,0,0,240.75,125.24Z"/><path class="cls-4" d="M164.54,181.25c-.29-.13-.16.27-.23.29C164.69,181.66,164.26,181.2,164.54,181.25Z"/><path class="cls-4" d="M154.39,172a.12.12,0,0,1,.05.07h0A.13.13,0,0,0,154.39,172Z"/><path class="cls-4" d="M155.81,173.35l0,.06h.06Z"/><path class="cls-4" d="M155.57,173.14l.16-.1C155.64,172.87,155.51,173,155.57,173.14Z"/><path class="cls-4" d="M160.23,177.56c0,.06.19.11.3.2A.25.25,0,0,0,160.23,177.56Z"/><path class="cls-4" d="M144.63,162.78c-.28-.13-.16.26-.23.29C144.78,163.19,144.35,162.73,144.63,162.78Z"/><path class="cls-4" d="M134.49,153.48a.09.09,0,0,1,0,.07h0A.45.45,0,0,0,134.49,153.48Z"/><path class="cls-4" d="M135.9,154.88l0,.05H136Z"/><path class="cls-4" d="M135.66,154.67l.17-.11C135.73,154.4,135.6,154.57,135.66,154.67Z"/><path class="cls-4" d="M140.32,159.08c0,.07.19.11.3.2A.26.26,0,0,0,140.32,159.08Z"/><path class="cls-4" d="M124.72,144.3c-.28-.13-.16.27-.23.29C124.87,144.72,124.44,144.25,124.72,144.3Z"/><path class="cls-4" d="M114.58,135a.08.08,0,0,1,0,.07h0A.1.1,0,0,0,114.58,135Z"/><path class="cls-4" d="M116,136.41l.05.05h0Z"/><path class="cls-4" d="M115.75,136.2l.17-.11C115.83,135.92,115.69,136.1,115.75,136.2Z"/><path class="cls-4" d="M120.41,140.61c0,.07.19.11.31.2A.27.27,0,0,0,120.41,140.61Z"/><path class="cls-4" d="M60.34,84c.07.28-.42-.12-.27.25C60.09,84.2,60.49,84.3,60.34,84Z"/><path class="cls-4" d="M70.24,93.43a0,0,0,0,0,0,0,.09.09,0,0,1,.07,0A.14.14,0,0,0,70.24,93.43Z"/><path class="cls-4" d="M68.76,92.09a.43.43,0,0,0,0,0l.06,0Z"/><path class="cls-4" d="M69.15,92.24l-.1.17C69.16,92.46,69.32,92.32,69.15,92.24Z"/><path class="cls-4" d="M64.11,87.78c.1.1.15.26.22.29S64.25,87.78,64.11,87.78Z"/><path class="cls-4" d="M80.15,102.6c.07.28-.42-.12-.28.26C79.9,102.78,80.3,102.88,80.15,102.6Z"/><path class="cls-4" d="M90.05,112v0a.09.09,0,0,1,.07,0A.14.14,0,0,0,90.05,112Z"/><path class="cls-4" d="M88.57,110.68v0l.06,0Z"/><path class="cls-4" d="M89,110.82l-.09.18C89,111.05,89.13,110.9,89,110.82Z"/><path class="cls-4" d="M83.91,106.36c.1.11.15.26.22.29A.26.26,0,0,0,83.91,106.36Z"/><path class="cls-4" d="M100,121.19c.07.27-.42-.12-.27.25C99.7,121.37,100.1,121.47,100,121.19Z"/><path class="cls-4" d="M109.85,130.6v0a.1.1,0,0,1,.08,0A.14.14,0,0,0,109.85,130.6Z"/><path class="cls-4" d="M108.37,129.26a.43.43,0,0,0,0,.05l.05,0Z"/><path class="cls-4" d="M108.76,129.41l-.1.17C108.77,129.63,108.93,129.49,108.76,129.41Z"/><path class="cls-4" d="M103.72,125c.09.1.15.26.22.29S103.86,125,103.72,125Z"/><path class="cls-4" d="M172.34,188.55c-.51-.39-.38-.46-.81-.52a8.44,8.44,0,0,0-1.19-1.57l0,0c-.21-.13-.63-.41-.82-.21-.34-.41-.34-.92-.88-1.26l0,.17c-.16-.07-.26-.34-.28-.41s-.05,0-.07.07c-.18,0-.14-.21-.21-.31l0,.1c-.49-.21-.83-1-1.33-1.43.07.1,0,.13-.12.13,0-.41-.57-.85-.72-1.09l0,.2c-.25-.51-.55-.08-.79-.59l.33.08c-.19-.11-.28-.27-.15-.34-.25-.1-.18.15-.47-.09-.07.05.15.23,0,.23l-.53-.2h0s-.08,0-.18-.17c.29-.24-.3-.31.14-.39-.52-.53-1.15-.78-1.49-1.34-.44.09-.92-.85-1.2-.46a1.3,1.3,0,0,1-.44-.8c.08,0,.11.12.14.19,0-.15-.28-.46-.42-.58a3,3,0,0,1,.33.82,5.3,5.3,0,0,1-.51-.86l-.23.12c-.07-.32-.3,0-.33-.38l.08,0c-.37-.33-.21-.51-.53-.85l0,.08c-.15-.08-.17-.41-.43-.36l.22.22c-.14.1-.36,0-.5,0-.2-.25.11-.28,0-.4-.16.07-.07,0-.1.24a2.69,2.69,0,0,1-.58-1s0,0,0,0c-.29-.24-.34-.68-.6-.74l0,.07c-.38,0-.41-.7-.73-.45-.16,0,.24.21-.06.2-.41-.22,0-.45-.35-.64,0,0,0,0,0,.07-.2-.2-.45-.49-.65-.73-.5,0-.8-.87-1.38-.9.19,0,0-.19.07-.24a.11.11,0,0,1,0,0c-.12-.11-.05-.21-.05-.29-.18,0-.24-.4-.36-.4.06-.07-.05-.14-.15-.24.14.27-.06.2-.06.38-.34-.27-.1-.61-.47-.87l-.29-.05a.23.23,0,0,0,0-.26c-.52-.39-1-1-1.45-1a8.78,8.78,0,0,0-1.2-1.56l0,0c-.21-.14-.63-.41-.81-.21-.35-.41-.34-.92-.89-1.27l0,.17c-.15-.07-.25-.34-.28-.4s-.05,0-.07.06-.14-.2-.21-.31l0,.11c-.49-.21-.83-1-1.33-1.44.07.1,0,.14-.11.13,0-.4-.57-.85-.73-1.08l.05.2c-.26-.51-.55-.09-.8-.59l.34.08c-.19-.11-.29-.28-.16-.34-.25-.1-.18.15-.47-.09-.07.05.16.23,0,.22l-.53-.19h0s-.08,0-.19-.17c.29-.24-.3-.31.14-.4-.52-.52-1.14-.77-1.49-1.33-.43.09-.92-.85-1.2-.47a1.27,1.27,0,0,1-.44-.8c.08,0,.11.13.14.2,0-.15-.28-.46-.41-.59a3.24,3.24,0,0,1,.32.83,6.32,6.32,0,0,1-.51-.86l-.22.12c-.08-.32-.31,0-.34-.38l.09,0c-.38-.33-.22-.51-.54-.86l-.05.09c-.14-.08-.16-.41-.43-.36l.22.21c-.14.11-.36,0-.5,0-.2-.25.11-.28,0-.41-.16.07-.07,0-.1.24a2.74,2.74,0,0,1-.58-1s0,0,0,0c-.29-.24-.33-.67-.59-.73l0,.07c-.38,0-.41-.7-.73-.45-.15,0,.25.21-.06.19-.41-.21,0-.44-.34-.63,0,0,0,0,0,.07a9.75,9.75,0,0,1-.64-.74c-.51,0-.81-.87-1.39-.9.2,0,0-.19.07-.23s0,0,0,0-.05-.21-.06-.29c-.18,0-.24-.4-.35-.4,0-.06-.06-.13-.16-.23.14.27-.06.19-.05.38-.35-.27-.11-.61-.48-.87l-.29-.06a.23.23,0,0,0,0-.26c-.52-.39-1-1-1.45-1a8.89,8.89,0,0,0-1.19-1.57l0,0c-.22-.14-.64-.42-.82-.22-.35-.41-.34-.91-.89-1.26l0,.17c-.15-.07-.25-.34-.28-.41s-.05,0-.07.07-.14-.21-.21-.31l0,.1c-.5-.21-.83-1-1.34-1.43.07.1,0,.13-.11.13,0-.4-.57-.85-.72-1.09l0,.2c-.25-.51-.55-.08-.8-.59l.34.08c-.19-.11-.29-.27-.16-.34-.25-.09-.18.15-.47-.09-.07.06.16.23,0,.23l-.53-.19h0s-.08,0-.19-.16c.29-.25-.3-.31.14-.4-.52-.53-1.14-.77-1.48-1.33-.44.08-.93-.86-1.2-.47a1.23,1.23,0,0,1-.44-.8c.07,0,.1.13.14.19,0-.15-.29-.46-.42-.58a2.91,2.91,0,0,1,.32.83,8.25,8.25,0,0,1-.51-.87l-.22.12c-.08-.32-.3,0-.34-.38h.09c-.38-.34-.22-.52-.54-.86l0,.08c-.14-.08-.16-.41-.42-.36l.21.22c-.14.1-.36,0-.49,0-.21-.26.1-.28,0-.41-.16.07-.07.05-.1.24a2.54,2.54,0,0,1-.57-1s0,.05,0,.05c-.3-.24-.34-.68-.6-.74l0,.07c-.38,0-.42-.69-.74-.45-.15,0,.25.21,0,.2-.41-.22,0-.45-.35-.64,0,0,0,0,0,.08-.2-.21-.45-.49-.65-.74-.51,0-.8-.87-1.39-.9.2,0,0-.19.07-.24s0,0,0,.05-.05-.21-.06-.29c-.17,0-.24-.4-.35-.4.06-.06,0-.14-.16-.24.15.27-.06.2,0,.38-.34-.26-.11-.6-.48-.87l-.29,0s-.07-.06-.09-.16c-.11-.5-.53-.36-.41-.42s-.49-.47-.52-.5-.41-.75-.53-.48c-.06.12.06-.31-.45-.38-.1,0-.15-.1-.17-.09l-.07-.28c-.29-.35-.61-.09-.9-.41.18,0,.1-.21.37-.08-.1-.1-.18-.21-.24-.15,0-.11-.41-.15-.43-.32-.08,0-.18.08-.29,0s0,0,0,0-.24-.11-.23.08c-.07-.58-.93-.82-1-1.32-.26-.18-.56-.41-.78-.59,0,0,0-.05.07,0-.21-.35-.41.09-.66-.3,0-.3.25.08.2-.07.22-.34-.44-.33-.5-.7l.07,0c-.08-.26-.52-.27-.78-.55,0,0,0,0,0,0a2.52,2.52,0,0,1-1-.51c.19,0,.18,0,.24-.11-.14-.09-.14.22-.41,0,0-.13-.14-.35,0-.49l.23.2c0-.27-.29-.26-.39-.4l.08-.06c-.36-.29-.53-.12-.89-.47v.09c-.36,0-.08-.26-.4-.31l.11-.24a5.76,5.76,0,0,1-.9-.45,3.17,3.17,0,0,1,.84.27c-.13-.12-.46-.4-.61-.38.07,0,.18,0,.21.13a1.29,1.29,0,0,1-.83-.38c.36-.31-.61-.72-.55-1.17-.58-.3-.87-.91-1.43-1.39-.06.45-.17-.14-.39.17-.14-.1-.18-.15-.18-.18h0l-.23-.52c0-.16.18,0,.22,0-.25-.28,0-.22-.12-.46,0,.13-.23,0-.35-.14l.1.34c-.52-.22-.11-.54-.64-.76l.21,0c-.25-.14-.74-.69-1.14-.65,0-.06,0-.18.12-.12-.44-.47-1.28-.75-1.52-1.23l.1,0c-.11-.07-.27,0-.32-.19,0,0,.1,0,.06-.08s-.35-.1-.43-.25l.17,0c-.38-.52-.88-.48-1.31-.8.18-.19-.12-.6-.28-.8l0,0a8.67,8.67,0,0,0-1.65-1.08c-.09-.42-.71-.89-1.13-1.37a.23.23,0,0,0-.26,0l-.08-.29c-.28-.35-.61-.09-.9-.41.19,0,.1-.2.38-.08-.11-.1-.19-.2-.25-.14,0-.11-.4-.15-.42-.32-.08,0-.18.07-.29,0s0-.05,0-.05-.24-.11-.23.09c-.07-.58-.93-.82-1-1.32-.25-.18-.56-.41-.78-.6,0,0,0,0,.08,0-.22-.35-.42.1-.66-.3,0-.3.25.08.19-.07.23-.33-.43-.32-.5-.7l.07,0c-.07-.25-.51-.27-.77-.54,0,0,0,0,0,0a2.69,2.69,0,0,1-1-.51c.19,0,.17,0,.23-.12-.13-.09-.14.22-.41,0,0-.14-.14-.35,0-.5l.23.2c0-.26-.3-.26-.39-.39l.08-.06c-.37-.3-.53-.12-.89-.48v.09c-.37,0-.08-.25-.4-.31l.1-.23a6.23,6.23,0,0,1-.9-.45,2.71,2.71,0,0,1,.85.27c-.13-.13-.46-.41-.61-.38.07,0,.18,0,.2.13a1.26,1.26,0,0,1-.83-.39c.37-.3-.6-.72-.54-1.16-.59-.31-.88-.91-1.44-1.39,0,.44-.16-.14-.38.16-.14-.09-.19-.14-.18-.17h0l-.23-.52c0-.17.18,0,.23,0-.26-.28,0-.23-.12-.47-.06.13-.23.05-.35-.13l.1.33c-.52-.21-.12-.54-.64-.75l.2,0c-.25-.13-.73-.68-1.14-.64,0-.07,0-.18.13-.12-.45-.48-1.28-.75-1.52-1.23l.09,0c-.1-.06-.27,0-.32-.19,0,0,.1,0,.07-.07s-.35-.1-.43-.25l.17,0c-.38-.52-.89-.48-1.32-.8.19-.2-.12-.6-.27-.8l0,0a8.66,8.66,0,0,0-1.64-1.09c-.09-.42-.71-.88-1.14-1.37a.23.23,0,0,0-.26,0l-.07-.28c-.29-.35-.61-.09-.9-.41.18,0,.1-.21.37-.08-.1-.1-.18-.21-.24-.14,0-.12-.41-.15-.42-.33-.09,0-.19.08-.3,0a.07.07,0,0,1,0,0s-.24-.11-.23.08c-.07-.58-.93-.81-1-1.32-.26-.18-.56-.41-.78-.59,0,0,0,0,.07,0-.21-.35-.41.09-.66-.3,0-.3.25.08.2-.07.22-.34-.44-.33-.5-.7l.07,0c-.08-.26-.52-.27-.77-.54a.11.11,0,0,0,0,0,2.52,2.52,0,0,1-1-.51c.19,0,.18,0,.24-.11-.14-.09-.14.22-.41,0,0-.13-.14-.34,0-.49l.23.2c0-.27-.29-.26-.39-.4l.08-.06c-.36-.29-.53-.12-.89-.47v.09c-.36,0-.08-.26-.4-.31l.11-.24a6.6,6.6,0,0,1-.9-.44,3,3,0,0,1,.85.26c-.14-.12-.47-.4-.62-.38.07,0,.18.06.21.13a1.29,1.29,0,0,1-.83-.38c.36-.3-.61-.72-.55-1.17-.58-.3-.87-.91-1.43-1.39-.06.45-.17-.14-.39.17-.14-.1-.18-.15-.18-.17h0l-.23-.52c0-.16.18.06.22,0-.25-.27,0-.22-.12-.46,0,.13-.23,0-.35-.13l.1.33c-.52-.21-.11-.54-.64-.76l.21,0c-.25-.13-.74-.68-1.14-.65,0-.06,0-.18.12-.12-.44-.47-1.28-.75-1.52-1.23l.1,0c-.11-.06-.27,0-.32-.19,0,0,.1,0,.06-.08s-.35-.1-.43-.25l.17,0c-.38-.52-.83-.4-1.26-.71-.23,0-.17-.19-.9,0V13.08L0,89.06l54.14,83.62V85.1l64.52,60.2v127l53.68,84.25v-168Z"/><polygon class="cls-5" points="172.34 0 172.34 101.61 281.23 0 172.34 0"/><polygon class="cls-6" points="172.34 101.61 172.34 0 63.46 0 172.34 101.61"/><polygon class="cls-7" points="172.34 101.61 172.34 22.03 63.46 0 172.34 101.61"/><polygon class="cls-1" points="172.34 101.61 172.34 22.03 281.23 0 172.34 101.61"/><polygon class="cls-8" points="118.66 145.3 172.34 356.6 118.66 272.34 118.66 145.3"/><polygon class="cls-9" points="226.03 145.3 226.03 272.34 172.34 356.6 226.03 145.3"/><polygon class="cls-10" points="0 89.06 54.14 79.47 54.14 13.08 0 89.06"/><polygon class="cls-11" points="344.69 89.06 290.55 79.47 290.55 13.08 344.69 89.06"/></g></g></svg>