<svg xmlns="http://www.w3.org/2000/svg" viewBox="0 0 121.15 125.33"><defs><style>.cls-1{fill:#ab3473;}.cls-2{fill:#cdd430;}.cls-3{fill:#b1618d;}.cls-4{fill:#d4db62;}.cls-5{fill:#c4ca2f;}.cls-6{fill:#b13675;}.cls-7{fill:#c1c724;}.cls-8{fill:#a13069;}.cls-9{fill:#dce329;}.cls-10{fill:#b14a80;}</style></defs><title>logo_1</title><g id="Слой_2" data-name="Слой 2"><g id="Слой_1-2" data-name="Слой 1"><path class="cls-1" d="M121.15,31.3l-19-26.7V27.93h-.31c-.15.11-.31.07-.45.26h.06s-.12.08-.15.09,0,0,0,0-.08.05-.12.07h0c-.09.17-.38.27-.54.43,0,0,0,0,0,.05s-.32.18-.4.22h.07c-.19.08,0,.2-.23.27l0-.12c0,.07-.1.1-.12.05s0,.07,0,.16.09-.05.08,0l-.08.18h0s0,0-.06.06-.12.1-.14-.05c-.2.17-.3.38-.5.48,0,.16-.32.31-.19.41a.44.44,0,0,1-.3.14s.05,0,.08-.05-.17.09-.22.14a1.18,1.18,0,0,1,.3-.1,2.36,2.36,0,0,1-.32.16l0,.08c-.11,0,0,.11-.14.11v0c-.12.13-.18.06-.31.17l0,0c0,.05-.15,0-.14.14l.08-.07c0,.05,0,.12,0,.17s-.1,0-.15,0,0,0,.09,0a1,1,0,0,1-.37.18s0,0,0,0-.25.11-.27.19h0c0,.14-.25.13-.17.25s.08-.08.06,0-.15,0-.23.11,0,0,0,0a2.92,2.92,0,0,1-.28.21c0,.18-.32.26-.35.46,0-.07-.06,0-.08,0s0,0,0,0-.08,0-.11,0-.14.08-.14.12,0,0-.09.05.07,0,.13,0c-.1.12-.21,0-.31.15l0,.1a.1.1,0,0,0-.09,0c-.15.18-.37.34-.4.49a2.63,2.63,0,0,0-.58.38h0c0,.07-.16.21-.09.28-.16.11-.33.09-.47.28h.06c0,.05-.12.08-.15.09s0,0,0,0-.08,0-.12.06h0c-.09.17-.38.27-.54.44,0,0,0,0,0,0s-.32.18-.4.23h.07c-.19.07,0,.19-.23.26l0-.12c0,.07-.11.1-.12,0s0,.07,0,.16.09-.05.08,0l-.08.18h0s0,0-.06.06-.12.09-.14-.06c-.2.17-.3.38-.5.49,0,.15-.32.3-.2.41a.43.43,0,0,1-.29.13s0,0,.07,0-.16.09-.21.13a.86.86,0,0,1,.3-.09c-.1.06-.26.12-.32.15l0,.08c-.11,0,0,.11-.14.11v0c-.12.13-.18.07-.31.17l0,0c0,.05-.15.05-.14.14l.08-.07c0,.05,0,.13,0,.17s-.1,0-.15,0,0,0,.09,0a1,1,0,0,1-.37.18l0,0c-.09.09-.25.1-.27.19h0c0,.13-.25.12-.18.24s.08-.08.07,0-.15,0-.23.1h0a2.92,2.92,0,0,1-.28.21c0,.18-.32.26-.35.47,0-.07-.06,0-.08,0h0s-.08,0-.11,0-.14.08-.15.12,0,0-.08,0,.07,0,.13,0c-.1.11-.22,0-.32.14l0,.1a.08.08,0,0,0-.09,0c-.15.17-.37.33-.4.48a3,3,0,0,0-.58.38h0c0,.07-.16.21-.09.28-.16.11-.33.1-.47.28h.06a.3.3,0,0,1-.15.09s0,0,0,0-.07,0-.11.06l0,0c-.09.16-.38.26-.54.43,0,0,0,0,0,0s-.31.18-.39.23h.07c-.19.07,0,.19-.23.26l0-.11c-.05.06-.11.09-.13,0s0,.07,0,.17.09,0,.08,0l-.08.19h0s0,0-.06.06-.12.1-.14-.06c-.2.17-.3.38-.5.49,0,.15-.33.3-.2.41a.45.45,0,0,1-.29.13s0,0,.07,0-.16.09-.21.13a1.14,1.14,0,0,1,.3-.09,2.14,2.14,0,0,1-.32.15l0,.09c-.12,0,0,.1-.14.11v0c-.12.13-.18.07-.31.17l0,0c0,.05-.15.05-.14.14l.08-.07c0,.05,0,.13,0,.18s-.1,0-.15,0,0,0,.09,0a1,1,0,0,1-.37.18l0,0c-.09.09-.25.1-.28.19h0c0,.13-.26.13-.18.24s.08-.08.07,0-.16,0-.23.1,0,0,0,0a2.92,2.92,0,0,1-.28.21c0,.18-.32.26-.35.47,0-.07-.06,0-.08,0h0s-.08,0-.11,0-.14.07-.15.11,0,0-.08,0,.07,0,.13,0c-.1.11-.22,0-.32.14l0,.1s0,0-.06,0c-.18,0-.14.18-.16.14s-.17.16-.19.16-.27.13-.18.18-.11,0-.14.15a.11.11,0,0,1,0,.05l-.1,0c-.13.1,0,.22-.16.31,0-.06-.07,0,0-.13s-.08.06-.06.08-.06.14-.12.14,0,.07,0,.1h0s0,.08,0,.08c-.21,0-.31.3-.49.32l-.23.25s0,0,0,0,0,.15-.12.22,0-.08,0-.07-.12.15-.26.16l0,0c-.09,0-.11.17-.21.25h0a.83.83,0,0,1-.2.35c0-.07,0-.06,0-.09s.07.06,0,.15-.13,0-.18,0l.08-.07c-.09,0-.1.09-.15.12l0,0c-.11.12,0,.19-.19.3h0c0,.13-.09,0-.11.13l-.08,0c0,.06-.11.21-.18.31a1.08,1.08,0,0,1,.11-.3s-.15.16-.15.21,0-.06.05-.07a.43.43,0,0,1-.15.28c-.1-.13-.27.2-.42.17-.12.19-.34.28-.52.47.15,0-.06,0,0,.14s0,.06-.06,0h0l-.19.07c-.06,0,0-.06,0-.08s-.08,0-.17,0,0,.08-.05.11l.12,0c-.09.17-.2,0-.28.2v-.07c0,.09-.26.24-.25.39s-.07,0,0-.05c-.18.14-.3.43-.47.5v0s0,.09-.07.11,0,0,0,0a.26.26,0,0,1-.1.15v-.06c-.19.12-.19.3-.31.44-.06-.07-.21,0-.29.07h0a3.09,3.09,0,0,0-.42.55c-.15,0-.33.23-.51.37a.07.07,0,0,0,0,.09l-.11,0c-.12.09,0,.21-.16.3,0-.06-.07,0,0-.13s-.08.06-.06.08-.06.14-.12.14,0,.07,0,.1h0s0,.08,0,.08c-.21,0-.31.31-.49.32a2.85,2.85,0,0,1-.23.26s0,0,0,0c-.13.07,0,.15-.13.23s0-.09,0-.07-.13.14-.26.15v0c-.09,0-.11.17-.21.26s0,0,0,0a.91.91,0,0,1-.21.35c0-.06,0-.06,0-.08s.07,0,0,.14-.12,0-.17,0l.07-.08c-.09,0-.1.1-.15.13v0c-.12.12-.06.18-.19.3h0c0,.13-.09,0-.12.14l-.08-.05a2.18,2.18,0,0,1-.18.31,1,1,0,0,1,.12-.29c-.05,0-.16.15-.15.2s0-.06,0-.07a.43.43,0,0,1-.16.29c-.09-.14-.26.19-.42.16-.12.2-.34.28-.52.47.15,0,0,.05,0,.14l-.07.06h0l-.19.07s0-.07,0-.08-.08,0-.16,0,0,.08-.06.12l.12,0c-.09.18-.19,0-.28.21v-.07c0,.08-.25.24-.25.38s-.06,0,0-.05c-.18.15-.29.43-.47.51v0s0,.1-.07.11,0,0,0,0,0,.11-.09.14v-.06c-.2.12-.19.3-.32.44-.06-.07-.21,0-.28.08h0a2.51,2.51,0,0,0-.42.55c-.15,0-.33.22-.51.36a.08.08,0,0,0,0,.09l-.1,0c-.13.09,0,.21-.17.31,0-.07-.07,0,0-.14s-.07.06,0,.09-.06.13-.13.14,0,.06,0,.1,0,0,0,0,0,.08,0,.08c-.2,0-.31.31-.48.32a3,3,0,0,1-.23.26s0,0,0,0c-.13.07,0,.15-.12.23s0-.09,0-.07-.13.14-.26.16v0c-.09,0-.1.18-.21.26h0a1,1,0,0,1-.2.35c0-.07,0-.06,0-.09s.08.05,0,.14-.12,0-.17,0l.08-.08c-.1,0-.1.1-.15.13l0,0c-.11.12-.06.18-.19.3h0c0,.12-.09,0-.12.13l-.08,0a1.47,1.47,0,0,1-.18.3,1.19,1.19,0,0,1,.12-.29c-.05,0-.15.15-.15.21s0-.06,0-.07a.46.46,0,0,1-.15.28c-.1-.14-.27.19-.43.16-.12.2-.34.29-.52.47.16,0-.05.06,0,.14s0,.06-.06.06h0l-.18.07c-.06,0,0-.06,0-.08s-.07,0-.16,0,0,.08-.06.12l.12,0c-.08.18-.19,0-.28.21l0-.07c-.06.08-.26.24-.26.38s-.06,0,0,0c-.17.14-.29.43-.46.5v0s0,.1-.08.11,0,0,0,0,0,.12-.1.14V65c-.19.12-.19.3-.31.45-.07-.07-.22,0-.29.07h0a3.64,3.64,0,0,0-.42.55c-.15,0-.1,0-.28.19v.41h0v58.63L79.44,95.72V51.07l22.68-21.16V60.69Z"/><path class="cls-1" d="M63.4,63.81s0-.15-.08-.1C63.42,63.69,63.27,63.85,63.4,63.81Z"/><path class="cls-1" d="M66.88,60.44l0,0h0Z"/><path class="cls-1" d="M66.39,60.93l0,0h0Z"/><path class="cls-1" d="M66.41,60.82l.06,0S66.45,60.76,66.41,60.82Z"/><path class="cls-1" d="M64.73,62.48s.09,0,.1-.07A.08.08,0,0,0,64.73,62.48Z"/><path class="cls-1" d="M70.4,57.31s0-.14-.08-.1C70.41,57.19,70.26,57.36,70.4,57.31Z"/><path class="cls-1" d="M73.88,54s0,0,0,0h0S73.87,54,73.88,54Z"/><path class="cls-1" d="M73.38,54.44l0,0h0Z"/><path class="cls-1" d="M73.41,54.33l.06,0S73.44,54.27,73.41,54.33Z"/><path class="cls-1" d="M71.72,56s.1,0,.11-.07S71.73,55.93,71.72,56Z"/><path class="cls-1" d="M77.39,50.82s0-.15-.08-.1C77.41,50.7,77.26,50.86,77.39,50.82Z"/><path class="cls-1" d="M80.88,47.45l0,0h0Z"/><path class="cls-1" d="M80.38,47.94l0,0h0Z"/><path class="cls-1" d="M80.41,47.83l.06,0S80.44,47.77,80.41,47.83Z"/><path class="cls-1" d="M78.72,49.49s.1-.05.11-.07A.1.1,0,0,0,78.72,49.49Z"/><path class="cls-1" d="M99.94,29.53c0,.1.09.06.1.09C100.09,29.49,99.92,29.63,99.94,29.53Z"/><path class="cls-1" d="M96.46,32.84l0,0h0Z"/><path class="cls-1" d="M97,32.37l0,0h0Z"/><path class="cls-1" d="M96.85,32.42c-.06,0,0,.08,0,.06Z"/><path class="cls-1" d="M98.54,31s0-.06.08-.1A.09.09,0,0,0,98.54,31Z"/><path class="cls-1" d="M93,36.06c0,.1.09.07.1.09S93,36.16,93,36.06Z"/><path class="cls-1" d="M89.5,39.37l0,0h0Z"/><path class="cls-1" d="M90,38.9l0,0h0Z"/><path class="cls-1" d="M89.89,39c-.07,0,0,.08,0,.06Z"/><path class="cls-1" d="M91.58,37.49s0-.07.08-.11A.09.09,0,0,0,91.58,37.49Z"/><path class="cls-1" d="M86,42.6c0,.09.09.06.09.08C86.17,42.55,86,42.69,86,42.6Z"/><path class="cls-1" d="M82.54,45.9s0,0,0,0l0,0Z"/><path class="cls-1" d="M83.06,45.43l0,0h0Z"/><path class="cls-1" d="M82.92,45.48c-.06,0,0,.08,0,.06Z"/><path class="cls-1" d="M84.62,44s0-.07.08-.1A.08.08,0,0,0,84.62,44Z"/><path class="cls-2" d="M57.83,63.71c-.1-.05,0,.09-.08.1C57.88,63.85,57.73,63.69,57.83,63.71Z"/><path class="cls-2" d="M54.27,60.44v0h0S54.28,60.44,54.27,60.44Z"/><path class="cls-2" d="M54.76,60.93l0,0h0Z"/><path class="cls-2" d="M54.68,60.86l.06,0C54.7,60.76,54.66,60.82,54.68,60.86Z"/><path class="cls-2" d="M56.32,62.41s.06,0,.1.07A.08.08,0,0,0,56.32,62.41Z"/><path class="cls-2" d="M50.83,57.21c-.1,0,0,.1-.08.1C50.89,57.36,50.74,57.19,50.83,57.21Z"/><path class="cls-2" d="M47.27,54s0,0,0,0h0S47.28,54,47.27,54Z"/><path class="cls-2" d="M47.77,54.44v0h0Z"/><path class="cls-2" d="M47.68,54.36l.06,0C47.71,54.27,47.66,54.33,47.68,54.36Z"/><path class="cls-2" d="M49.32,55.91s.07,0,.11.07S49.36,55.91,49.32,55.91Z"/><path class="cls-2" d="M43.84,50.72c-.1,0-.06.09-.08.1C43.89,50.86,43.74,50.7,43.84,50.72Z"/><path class="cls-2" d="M40.27,47.45l0,0h0Z"/><path class="cls-2" d="M40.77,47.94v0h0Z"/><path class="cls-2" d="M40.68,47.87l.06,0C40.71,47.77,40.66,47.83,40.68,47.87Z"/><path class="cls-2" d="M42.32,49.42s.07,0,.11.07A.1.1,0,0,0,42.32,49.42Z"/><path class="cls-2" d="M21.21,29.53c0,.1-.15,0-.1.09C21.12,29.59,21.26,29.63,21.21,29.53Z"/><path class="cls-2" d="M24.69,32.84h0Z"/><path class="cls-2" d="M24.17,32.37v0h0Z"/><path class="cls-2" d="M24.3,32.42l0,.06S24.36,32.45,24.3,32.42Z"/><path class="cls-2" d="M22.53,30.85s.06.09.08.1A.09.09,0,0,0,22.53,30.85Z"/><path class="cls-2" d="M28.17,36.06c0,.1-.15,0-.1.09S28.22,36.16,28.17,36.06Z"/><path class="cls-2" d="M31.65,39.37h0Z"/><path class="cls-2" d="M31.13,38.9v0h0Z"/><path class="cls-2" d="M31.26,39l0,.06S31.33,39,31.26,39Z"/><path class="cls-2" d="M29.49,37.38s.06.09.08.11A.1.1,0,0,0,29.49,37.38Z"/><path class="cls-2" d="M35.13,42.6c0,.09-.15-.05-.1.08C35,42.66,35.18,42.69,35.13,42.6Z"/><path class="cls-2" d="M38.61,45.9h0l0,0S38.63,45.91,38.61,45.9Z"/><path class="cls-2" d="M38.09,45.43v0h0Z"/><path class="cls-2" d="M38.23,45.48l0,.06S38.29,45.51,38.23,45.48Z"/><path class="cls-2" d="M36.45,43.92s.06.09.08.1A.08.08,0,0,0,36.45,43.92Z"/><path class="cls-2" d="M60.57,66.27c-.18-.13-.13-.16-.28-.18a2.77,2.77,0,0,0-.42-.55h0c-.07,0-.22-.15-.28-.08-.13-.14-.12-.32-.31-.44v.06c-.06,0-.09-.12-.1-.14s0,0,0,0,0-.07-.07-.11v0c-.17-.08-.29-.36-.47-.51,0,0,0,0,0,0s-.2-.3-.25-.38v.07c-.09-.18-.19,0-.28-.21l.12,0c-.07,0-.1-.1,0-.12s-.07.05-.17,0,.05.08,0,.08l-.19-.07h0s0,0-.07-.06-.1-.11,0-.14c-.18-.19-.4-.27-.52-.47-.15,0-.32-.3-.42-.16a.48.48,0,0,1-.16-.28s0,0,0,.06-.1-.16-.14-.2a1,1,0,0,1,.11.29,2.18,2.18,0,0,1-.18-.31l-.08.05c0-.11-.1,0-.12-.14h0c-.13-.12-.07-.18-.18-.3l0,0c-.05,0-.06-.15-.15-.13l.07.08s-.12,0-.17,0,0-.1,0-.14,0,0,0,.08a.91.91,0,0,1-.21-.35s0,0,0,0-.12-.24-.21-.26v0c-.13,0-.14-.24-.25-.15s.08.07,0,.07,0-.16-.13-.23c0,0,0,0,0,0L54.78,61c-.18,0-.28-.31-.49-.32.07,0,0-.06,0-.08l0,0s0-.08,0-.11-.08-.14-.12-.14,0,0-.06-.08,0,.07,0,.13,0-.21-.16-.3l-.11,0a.08.08,0,0,0,0-.09c-.18-.14-.36-.34-.51-.37a3.09,3.09,0,0,0-.42-.55v0c-.08-.05-.23-.15-.29-.08-.12-.14-.12-.32-.31-.44v.06a.26.26,0,0,1-.1-.15s0,0,0,0,0-.08-.08-.11v0c-.17-.07-.29-.36-.47-.5,0,0,0,.05,0,.05,0-.15-.2-.3-.25-.39v.07c-.08-.17-.19,0-.28-.2l.12,0c-.06,0-.1-.09,0-.11s-.06,0-.17,0,.06.08,0,.08l-.19-.06h0s0,0-.06-.05-.11-.11.05-.14c-.19-.19-.41-.28-.53-.47-.15,0-.32-.3-.42-.17a.43.43,0,0,1-.15-.28s0,0,0,.07-.1-.16-.15-.2a.92.92,0,0,1,.11.29c-.07-.09-.14-.25-.18-.31l-.08,0c0-.11-.1,0-.11-.13h0c-.14-.12-.08-.19-.19-.31l0,0c-.05,0-.06-.14-.15-.12l.08.07c-.05,0-.13,0-.18,0s0-.1,0-.14,0,0,0,.08a.83.83,0,0,1-.2-.35s0,0,0,0-.12-.24-.21-.26l0,0c-.14,0-.15-.24-.26-.16s.09.08,0,.07,0-.15-.12-.22,0,0,0,0l-.23-.25c-.18,0-.28-.31-.49-.32.07,0,0-.07,0-.08h0s0-.07,0-.1-.08-.14-.12-.14,0,0-.06-.08,0,.07,0,.13c-.12-.09,0-.21-.17-.31h-.1s0-.07,0-.1c-.18-.13-.36-.34-.51-.36a3.64,3.64,0,0,0-.42-.55h0c-.07-.05-.22-.14-.29-.07-.12-.15-.12-.33-.31-.45v.06c-.05,0-.09-.12-.1-.14s0,0,0,0,0-.07-.08-.11v0c-.18-.07-.3-.36-.47-.5,0,0,0,0,0,0s-.2-.3-.26-.38l0,.07c-.09-.18-.2,0-.28-.21l.12,0c-.07,0-.1-.1-.06-.12s-.06,0-.16,0,0,.08,0,.08l-.18-.07h0s0,0-.06-.06-.11-.11.05-.14c-.18-.18-.4-.27-.52-.47-.16,0-.33-.3-.43-.16a.43.43,0,0,1-.15-.28s0,0,0,.07-.1-.17-.15-.21a1.19,1.19,0,0,1,.12.29,1.47,1.47,0,0,1-.18-.3l-.08,0c0-.11-.11,0-.12-.13h0c-.13-.11-.08-.18-.19-.3l0,0c-.05,0-.05-.14-.15-.13l.08.08c-.05,0-.13,0-.17,0s0-.1,0-.15,0,0,0,.09a1,1,0,0,1-.2-.35,0,0,0,0,0,0,0c-.11-.08-.12-.23-.21-.26v0c-.13,0-.15-.25-.26-.16s.09.07,0,.07,0-.16-.12-.22c0,0,0,0,0,0a3,3,0,0,1-.23-.26c-.17,0-.28-.3-.48-.31.07,0,0-.07,0-.09s0,0,0,0,0-.07,0-.1-.09-.14-.13-.14,0-.05,0-.09,0,.07,0,.14c-.12-.1,0-.22-.17-.31l-.1,0a.07.07,0,0,1,0-.05c0-.18-.19-.13-.15-.15s-.17-.17-.18-.18-.14-.26-.19-.17,0-.11-.16-.13l0,0,0-.1c-.1-.12-.21,0-.32-.15.07,0,0-.07.14,0s-.07-.07-.09,0-.14-.06-.15-.12-.06,0-.1,0v0s-.08,0-.08,0c0-.2-.32-.28-.35-.46a1.94,1.94,0,0,1-.27-.21s0,0,0,0-.14,0-.23-.11.09,0,.07,0-.15-.11-.17-.25l0,0c0-.09-.18-.1-.27-.2h0a1,1,0,0,1-.36-.18c.07,0,.06,0,.08,0s-.05.08-.14,0-.05-.12,0-.17l.08.07c0-.09-.1-.09-.13-.14l0,0c-.12-.1-.18,0-.31-.17v0c-.13,0,0-.09-.14-.11l0-.08a1.85,1.85,0,0,1-.31-.16,1.18,1.18,0,0,1,.3.1c0-.05-.17-.14-.22-.13s.06,0,.07,0a.42.42,0,0,1-.29-.14c.13-.1-.21-.25-.19-.4-.21-.11-.31-.32-.51-.49,0,.15,0,0-.13.06s-.07-.06-.06-.07h0L35,42.5c0-.06.07,0,.08,0s0-.07,0-.16-.08,0-.12,0l0,.12c-.18-.07,0-.19-.22-.26h.07c-.09,0-.26-.24-.4-.22s0-.07,0,0c-.15-.17-.45-.27-.53-.44h0s-.09,0-.11-.07,0,0,0,0-.12,0-.15-.09h.06c-.13-.19-.31-.17-.46-.28.06-.07,0-.21-.1-.29h0a2.57,2.57,0,0,0-.57-.38c0-.15-.25-.32-.4-.49a.1.1,0,0,0-.09,0l0-.1c-.1-.13-.21,0-.32-.15.07,0,0-.07.14,0s-.07-.07-.09,0-.14-.06-.15-.12-.06,0-.1,0v0s-.08,0-.08,0c0-.2-.33-.29-.35-.46l-.27-.21s0,0,0,0-.14,0-.23-.11.09,0,.07,0-.15-.12-.18-.25h0c0-.09-.18-.09-.27-.19h0A1,1,0,0,1,30,38c.06,0,.06,0,.08,0s-.05.08-.14,0-.05-.12,0-.17l.08.07c0-.1-.1-.09-.13-.14l0,0c-.12-.11-.18-.05-.31-.17v0c-.13,0,0-.09-.14-.11l0-.08a1.85,1.85,0,0,1-.31-.16,1,1,0,0,1,.29.1.46.46,0,0,0-.21-.14s.06,0,.07,0a.47.47,0,0,1-.29-.14c.13-.1-.21-.25-.19-.41-.21-.1-.31-.32-.51-.48,0,.15-.05,0-.13.05s-.07-.05-.07-.06h0L28,36c0-.06.07,0,.08,0s0-.08,0-.16-.08,0-.12,0l0,.12c-.18-.08,0-.19-.22-.27h.07c-.09,0-.26-.24-.4-.22s0-.07,0,0c-.15-.16-.45-.26-.53-.43h0s-.09,0-.11-.07,0,0,0,0-.12,0-.15-.09h.06c-.13-.18-.31-.16-.46-.28.06-.06,0-.21-.1-.28h0a3,3,0,0,0-.57-.39c0-.14-.25-.31-.4-.48,0,0-.06,0-.09,0l0-.1c-.1-.13-.22,0-.32-.15.07,0,0-.07.13,0s-.06-.07-.08,0-.14-.05-.15-.11-.06,0-.1,0a0,0,0,0,1,0,0s-.08,0-.08,0c0-.2-.33-.29-.35-.46l-.27-.21s0,0,0,0c-.07-.13-.14,0-.23-.11s.09,0,.07,0-.15-.12-.18-.25h0c0-.09-.18-.09-.27-.19a0,0,0,0,0,0,0,.94.94,0,0,1-.36-.18c.06,0,.06,0,.08,0s-.05.07-.14,0-.05-.12,0-.17l.08.07c0-.1-.1-.1-.14-.14l0,0c-.13-.11-.18-.05-.31-.17v0c-.13,0,0-.09-.15-.11l0-.08a1.85,1.85,0,0,1-.31-.16,1.4,1.4,0,0,1,.29.09s-.16-.14-.21-.13.06,0,.07.05a.47.47,0,0,1-.29-.14c.13-.1-.21-.25-.19-.41-.21-.1-.31-.32-.51-.49,0,.16,0-.05-.13.06s-.07-.05-.07-.06h0L21,29.44c0-.06.06,0,.08,0s0-.08,0-.16-.08,0-.13-.05l0,.12c-.18-.08,0-.19-.22-.27h.07c-.09,0-.26-.24-.4-.23s0-.06,0,0c-.16-.17-.45-.26-.53-.43h0s-.09,0-.11-.07,0,0,0,0a.25.25,0,0,1-.15-.08h.06c-.13-.18-.29-.14-.45-.25s-.05-.06-.31,0V4.6L0,31.3,19,60.69V29.91L41.71,51.07V95.72l18.86,29.61V66.7A3,3,0,0,0,60.57,66.27Z"/><polygon class="cls-3" points="60.58 0 60.58 35.72 98.84 0 60.58 0"/><polygon class="cls-4" points="60.58 35.72 60.58 0 22.31 0 60.58 35.72"/><polygon class="cls-5" points="60.58 35.72 60.58 7.74 22.31 0 60.58 35.72"/><polygon class="cls-6" points="60.58 35.72 60.58 7.74 98.84 0 60.58 35.72"/><polygon class="cls-7" points="41.71 51.07 60.58 125.33 41.71 95.72 41.71 51.07"/><polygon class="cls-8" points="79.44 51.07 79.44 95.72 60.58 125.33 79.44 51.07"/><polygon class="cls-9" points="0 31.3 19.03 27.93 19.03 4.6 0 31.3"/><polygon class="cls-10" points="121.15 31.3 102.12 27.93 102.12 4.6 121.15 31.3"/></g></g></svg>