<svg xmlns="http://www.w3.org/2000/svg" viewBox="0 0 128.89 185.32"><defs><style>.cls-1{fill:#b13675;}.cls-2{fill:#fff;}.cls-3{fill:#ab3473;}.cls-4{fill:#cdd430;}.cls-5{fill:#b1618d;}.cls-6{fill:#d4db62;}.cls-7{fill:#c4ca2f;}.cls-8{fill:#c1c724;}.cls-9{fill:#a13069;}.cls-10{fill:#dce329;}.cls-11{fill:#b14a80;}</style></defs><title>lg2</title><g id="Слой_2" data-name="Слой 2"><g id="Слой_1-2" data-name="Слой 1"><path class="cls-1" d="M9,170.6c.23-.09,0-.28,0-.34C8.64,170.42,9.13,170.46,9,170.6Z"/><path class="cls-1" d="M19.64,170.48s0,0-.06,0l0,0A.07.07,0,0,0,19.64,170.48Z"/><path class="cls-1" d="M18.1,170.43H18l0,0Z"/><path class="cls-1" d="M18.35,170.42l0,.18C18.45,170.65,18.43,170.45,18.35,170.42Z"/><path class="cls-1" d="M13.08,170.44a.19.19,0,0,0,.28-.06C13.3,170.36,13.19,170.42,13.08,170.44Z"/><path class="cls-1" d="M30.06,170.53c.23-.09,0-.28,0-.34C29.76,170.35,30.24,170.39,30.06,170.53Z"/><path class="cls-1" d="M40.75,170.41s0,0-.06,0a0,0,0,0,1,0,0A.06.06,0,0,0,40.75,170.41Z"/><path class="cls-1" d="M39.21,170.36h-.05s0,0,0,0Z"/><path class="cls-1" d="M39.46,170.35l0,.18C39.56,170.58,39.54,170.38,39.46,170.35Z"/><path class="cls-1" d="M34.19,170.37a.19.19,0,0,0,.28-.06C34.41,170.29,34.3,170.36,34.19,170.37Z"/><path class="cls-1" d="M51.17,170.46c.23-.09-.05-.28,0-.34C50.87,170.28,51.36,170.32,51.17,170.46Z"/><path class="cls-1" d="M61.86,170.35l-.06,0v0A.16.16,0,0,0,61.86,170.35Z"/><path class="cls-1" d="M60.32,170.3h0l0,0Z"/><path class="cls-1" d="M60.57,170.28l0,.18C60.67,170.51,60.66,170.32,60.57,170.28Z"/><path class="cls-1" d="M55.3,170.3a.18.18,0,0,0,.28-.06C55.52,170.22,55.41,170.29,55.3,170.3Z"/><path class="cls-1" d="M119.73,170.6c-.19-.14.3-.18,0-.34C119.78,170.32,119.5,170.51,119.73,170.6Z"/><path class="cls-1" d="M109.11,170.48l0,0a0,0,0,0,1-.06,0S109.07,170.5,109.11,170.48Z"/><path class="cls-1" d="M110.66,170.46l0,0h0Z"/><path class="cls-1" d="M110.37,170.6l0-.18C110.24,170.45,110.23,170.65,110.37,170.6Z"/><path class="cls-1" d="M115.32,170.38a.19.19,0,0,0,.28.06C115.49,170.42,115.37,170.36,115.32,170.38Z"/><path class="cls-1" d="M98.62,170.53c-.19-.14.3-.18,0-.34C98.67,170.25,98.39,170.44,98.62,170.53Z"/><path class="cls-1" d="M88,170.41l0,0a0,0,0,0,1-.06,0A.07.07,0,0,0,88,170.41Z"/><path class="cls-1" d="M89.55,170.39l0,0h0Z"/><path class="cls-1" d="M89.26,170.53l0-.18C89.13,170.38,89.12,170.58,89.26,170.53Z"/><path class="cls-1" d="M94.21,170.31a.19.19,0,0,0,.28.06C94.37,170.36,94.26,170.29,94.21,170.31Z"/><path class="cls-1" d="M77.51,170.46c-.19-.14.3-.18,0-.34C77.56,170.18,77.27,170.37,77.51,170.46Z"/><path class="cls-1" d="M66.89,170.35l0,0-.06,0A.21.21,0,0,0,66.89,170.35Z"/><path class="cls-1" d="M68.44,170.32l0,0h0Z"/><path class="cls-1" d="M68.15,170.46l0-.18C68,170.32,68,170.51,68.15,170.46Z"/><path class="cls-1" d="M73.1,170.24c.05.09.19.15.27.06C73.26,170.29,73.15,170.22,73.1,170.24Z"/><path class="cls-1" d="M0,168.54v2.07c.5-.06,1.1,0,1.38-.18a5.79,5.79,0,0,0,1.51.31v0c.19,0,.58-.12.58-.36.41,0,.68.39,1.17.28l-.11-.09c.13-.05.33.07.38.1s0,0,0-.09.18.05.28.07l0-.08c.39-.17,1,.17,1.52.13-.09,0,0-.12,0-.16.21.27.78.21,1,.28l-.13-.11c.41.18.36-.29.76-.11l-.23.16c.17-.05.31,0,.27.13.19-.09,0-.21.32-.23,0-.08-.22-.06-.12-.16l.4-.2h0l0,0,0,0s.06,0,.19,0c0,.35.34,0,.13.36.58,0,1.06-.2,1.56,0,.2-.33,1,0,.92-.43a.85.85,0,0,1,.68.26c-.06,0-.13,0-.18-.05s.4.13.54.13a2.11,2.11,0,0,1-.62-.35,5.78,5.78,0,0,1,.75.26l.06-.22c.22.17.18-.18.4,0l0,.07c.4,0,.4.21.76.24v-.09c.12,0,.31.17.43,0h-.24c0-.15.21-.22.29-.29.25,0,.09.25.22.27.05-.14,0-.08-.08-.22a1.88,1.88,0,0,1,.86.3.08.08,0,0,0,0,0c.29,0,.55.24.73.12l-.06,0c.24-.21.61.2.66-.16.11-.07-.26,0-.08-.17.35-.11.23.31.54.21,0,0,0,0,0,0a6.85,6.85,0,0,1,.75.08c.31-.29.92.09,1.27-.26-.11.12.08.15.08.2a.08.08,0,0,1,0-.05c.13,0,.14.1.19.15.11-.1.35.12.41,0,0,.08.11.06.22.06-.23-.09-.07-.17-.17-.29.33,0,.38.34.73.29l.19-.15a.2.2,0,0,0,.16.16c.5-.06,1.1,0,1.37-.21a6.32,6.32,0,0,0,1.51.3v0c.2,0,.58-.12.58-.36.42,0,.68.39,1.17.29l-.1-.1c.12-.05.32.07.37.1s0-.05,0-.09.19.05.28.08l0-.09c.39-.17,1,.17,1.52.13-.09,0,0-.12,0-.16.21.28.78.21,1,.28l-.13-.11c.41.18.36-.29.77-.11l-.24.16c.17,0,.31,0,.27.13.19-.09,0-.21.32-.23,0-.08-.21-.06-.12-.16l.41-.2h0s.06,0,.19,0c0,.34.34,0,.14.35.57,0,1.05-.2,1.55,0,.2-.33,1,0,.92-.43a.85.85,0,0,1,.68.26c-.06,0-.13,0-.18-.05s.4.13.54.13a2.25,2.25,0,0,1-.62-.35,5.29,5.29,0,0,1,.75.26l.06-.22c.22.17.18-.17.4,0l0,.07c.39,0,.39.21.76.24l0-.09c.12,0,.31.18.43,0h-.24c0-.16.21-.23.29-.3.25,0,.09.25.22.27.05-.14,0-.08-.08-.22a1.78,1.78,0,0,1,.86.31.11.11,0,0,0,0-.06c.29,0,.55.24.73.12l-.06,0c.24-.21.61.2.66-.16.11-.07-.25,0-.08-.17.35-.11.23.31.54.21,0,0,0,0,0,0a7.43,7.43,0,0,1,.76.09c.3-.3.91.08,1.26-.27-.11.13.09.15.09.2s0,0,0,0,.14.11.18.15.35.12.42.05c0,.08.1.06.21.06-.22-.09-.07-.16-.17-.29.33,0,.38.35.73.29l.19-.14a.2.2,0,0,0,.16.15c.5-.06,1.1,0,1.37-.21a6.32,6.32,0,0,0,1.51.3v0c.2,0,.58-.12.58-.36.42.06.68.4,1.17.29l-.1-.1c.12,0,.32.07.37.1s0-.05,0-.09.19,0,.28.08l0-.09c.39-.17,1,.17,1.52.13-.09,0,0-.12,0-.16.21.28.78.21,1,.28l-.13-.11c.41.18.36-.29.77-.1l-.24.15c.17,0,.31,0,.27.13.19-.09,0-.21.32-.23,0-.08-.21-.06-.12-.16l.41-.2h0s.06,0,.19,0c0,.34.34,0,.14.35.57,0,1.06-.2,1.55,0,.2-.33,1,0,.93-.43a.88.88,0,0,1,.67.26c-.05,0-.13,0-.18,0s.41.12.55.12a2,2,0,0,1-.63-.35,5.29,5.29,0,0,1,.75.26l.07-.22c.21.17.17-.17.39.05l0,.06c.39,0,.39.21.76.24l0-.09c.13,0,.31.18.43,0h-.23c0-.16.2-.22.28-.3.26,0,.09.25.22.27.05-.14,0-.07-.08-.22a1.85,1.85,0,0,1,.86.31.06.06,0,0,0,0-.06c.29,0,.55.24.73.12l-.06,0c.24-.21.61.2.66-.16.11-.07-.25,0-.08-.16.35-.12.23.3.54.2,0,0,0,0,0,0a7.43,7.43,0,0,1,.76.09c.3-.3.91.08,1.26-.26-.11.12.09.14.09.19s0,0,0-.05.14.11.18.16c.11-.11.35.11.42,0s.1.06.21.06c-.22-.09-.07-.16-.17-.28.33,0,.38.34.73.28l.19-.14s.08,0,.14,0c.33.27.49-.09.46,0s.52,0,.56,0,.63.24.56,0,.13.24.46,0c.06-.05.13,0,.13,0l.2.14c.35.06.39-.32.73-.28-.1.12,0,.19-.17.28.11,0,.21,0,.21-.06s.31-.15.41,0c0-.05.06-.17.19-.16a.08.08,0,0,1,0,.05c0-.05.2-.07.08-.19.35.34,1,0,1.27.26a7.12,7.12,0,0,1,.76-.09s0,.05,0,0c.3.1.18-.32.53-.2.18.17-.18.09-.07.16,0,.36.42,0,.65.16l0,0c.18.12.43-.14.72-.12a.11.11,0,0,0,0,.06,1.89,1.89,0,0,1,.86-.31c-.09.15-.13.08-.07.22.12,0,0-.23.21-.27.08.08.27.14.29.3H72c.13.2.31,0,.44,0l0,.09c.36,0,.37-.25.76-.24l0-.06c.21-.22.18.12.39-.05l.07.22a5.58,5.58,0,0,1,.74-.26,1.91,1.91,0,0,1-.62.35c.14,0,.48,0,.55-.12s-.13.07-.18,0a.87.87,0,0,1,.67-.26c0,.43.73.1.93.43.49-.16,1,.07,1.55,0-.2-.33.17,0,.13-.35.13,0,.19,0,.2,0h0l.4.2c.1.1-.12.08-.11.16.29,0,.12.14.32.23,0-.12.1-.17.26-.13l-.23-.15c.41-.19.35.28.76.1l-.13.11c.22-.07.78,0,1-.28,0,0,.09.13,0,.16.5,0,1.12-.3,1.51-.13l0,.09c.09,0,.16-.16.28-.08s0,.09,0,.09.25-.15.38-.1l-.11.1c.49.11.76-.23,1.17-.29,0,.24.39.32.58.36v0a6.24,6.24,0,0,0,1.5-.3c.28.22.88.15,1.38.21a.18.18,0,0,0,.15-.15l.2.14c.35.06.39-.32.73-.29-.1.13,0,.2-.17.29.11,0,.21,0,.21-.06.07.07.31-.15.41-.05s.06-.16.19-.15a.08.08,0,0,1,0,0s.2-.07.09-.2c.34.35,1,0,1.26.27a7.12,7.12,0,0,1,.76-.09s0,0,0,0c.3.1.18-.32.53-.21.18.18-.18.1-.07.17,0,.36.42-.05.65.16l0,0c.18.12.43-.14.73-.12a.08.08,0,0,0,0,.06,1.78,1.78,0,0,1,.86-.31c-.08.14-.12.08-.07.22.13,0,0-.23.21-.27.09.07.27.14.29.3h-.24c.13.2.31,0,.44,0l0,.09c.36,0,.37-.25.76-.24l0-.07c.21-.21.18.13.39,0l.07.22a5.58,5.58,0,0,1,.74-.26,2.11,2.11,0,0,1-.62.35c.14,0,.48,0,.55-.13s-.13.08-.18.05a.83.83,0,0,1,.67-.26c0,.43.73.1.93.43.49-.16,1,.07,1.55,0-.2-.33.17,0,.13-.35.14,0,.19,0,.2,0h0l.4.2c.1.1-.12.08-.11.16.29,0,.12.14.32.23,0-.12.1-.17.26-.13l-.23-.16c.41-.18.35.29.77.11l-.13.11c.21-.07.78,0,1-.28,0,0,.09.13,0,.16.5,0,1.12-.3,1.52-.13l0,.09c.09,0,.16-.16.28-.08s0,.09,0,.09.26-.15.38-.1l-.11.1c.5.1.76-.24,1.17-.29,0,.24.39.32.58.36v0a6.42,6.42,0,0,0,1.51-.3c.27.22.87.15,1.37.21a.18.18,0,0,0,.15-.16l.2.15c.35.05.39-.32.73-.29-.1.12,0,.2-.17.29.11,0,.21,0,.21-.06.07.07.31-.15.41,0,0-.05.07-.16.19-.15s0,.05,0,.05.2-.08.09-.2c.34.35,1,0,1.26.26a7.29,7.29,0,0,1,.76-.08s0,0,0,0c.31.1.18-.32.53-.21.18.18-.18.1-.07.17,0,.36.42-.05.66.16l-.06,0c.18.12.43-.14.73-.12,0,0,0,0,0,0a1.8,1.8,0,0,1,.85-.3c-.08.14-.12.08-.07.22.13,0,0-.23.21-.27.09.07.27.14.29.29h-.23c.12.2.3,0,.43,0l0,.09c.37,0,.37-.25.76-.24l0-.07c.21-.22.18.13.39,0l.07.22a5.58,5.58,0,0,1,.74-.26,2,2,0,0,1-.62.35c.14,0,.48,0,.55-.13s-.13.08-.18.05a.83.83,0,0,1,.67-.26c0,.42.73.1.93.43.49-.16,1,.07,1.55,0-.2-.34.17,0,.13-.36.14,0,.19,0,.2,0l0,0,0,0h0l.41.2c.09.1-.13.08-.12.16.29,0,.12.14.32.23,0-.12.1-.18.27-.13l-.24-.16c.41-.18.35.29.77.11l-.13.11c.21-.07.78,0,1-.28,0,0,.09.13,0,.16.5,0,1.12-.3,1.52-.13l0,.08c.09,0,.16-.15.28-.07s0,.08,0,.09.25-.15.37-.1l-.11.09c.5.11.76-.23,1.18-.28,0,.24.38.32.57.36v0a6,6,0,0,0,1.51-.31c.27.23.88.12,1.38.18v-2.07Z"/><path class="cls-2" d="M30.4,183h-.35l-1.59-3.77c-.22-.52-.44-1.08-.66-1.69h0c0,.88.06,1.68.06,2.41v3h-.76V176.7h1.1l1.49,3.57c.17.41.36.9.56,1.48h0c.23-.64.42-1.13.57-1.48l1.48-3.57h1.11V183h-.77v-3c0-.71,0-1.52.07-2.41h0c-.23.64-.45,1.21-.66,1.69Z"/><path class="cls-2" d="M37,182.49a3.4,3.4,0,0,0,.67-.06,4.31,4.31,0,0,0,.59-.16v.6a2.56,2.56,0,0,1-.59.19,3.7,3.7,0,0,1-.76.07A3.26,3.26,0,0,1,36,183a2,2,0,0,1-.73-.4,1.84,1.84,0,0,1-.49-.71,3.08,3.08,0,0,1-.17-1.07,2.84,2.84,0,0,1,.17-1.06,2.14,2.14,0,0,1,.45-.75,1.84,1.84,0,0,1,.65-.46,2,2,0,0,1,.77-.15,1.82,1.82,0,0,1,.7.13,1.36,1.36,0,0,1,.56.39,1.87,1.87,0,0,1,.38.7,3,3,0,0,1,.14,1v.28h-3.1a2,2,0,0,0,.13.73,1.39,1.39,0,0,0,.36.49,1.51,1.51,0,0,0,.52.27A2.69,2.69,0,0,0,37,182.49ZM36.64,179a1,1,0,0,0-.47.1,1.31,1.31,0,0,0-.38.27,1.11,1.11,0,0,0-.26.4,1.55,1.55,0,0,0-.13.48h2.29a1.57,1.57,0,0,0-.07-.49,1.16,1.16,0,0,0-.2-.4,1,1,0,0,0-.78-.36Z"/><path class="cls-2" d="M39.73,177.49v-.82h.73v.82Zm0,5.52v-4.48h.73V183Z"/><path class="cls-2" d="M42.65,179.15h0a3.71,3.71,0,0,1,.27-.29,1.69,1.69,0,0,1,.34-.23,1.59,1.59,0,0,1,.4-.16,1.86,1.86,0,0,1,.48-.06,1.79,1.79,0,0,1,.57.09,1.16,1.16,0,0,1,.47.27,1.29,1.29,0,0,1,.31.49,2.11,2.11,0,0,1,.12.75v3h-.73v-2.88a1.21,1.21,0,0,0-.23-.83A.8.8,0,0,0,44,179a1.43,1.43,0,0,0-.73.21,2,2,0,0,0-.61.58V183h-.73v-4.48h.57Z"/><path class="cls-2" d="M49,183v-6.83h.74V183Z"/><path class="cls-2" d="M51.24,177.49v-.82H52v.82Zm0,5.52v-4.48H52V183Z"/><path class="cls-2" d="M55.57,182.49a3.48,3.48,0,0,0,.67-.06,4.73,4.73,0,0,0,.59-.16v.6a2.56,2.56,0,0,1-.59.19,3.7,3.7,0,0,1-.76.07,3.26,3.26,0,0,1-.9-.12,2,2,0,0,1-.74-.4,1.94,1.94,0,0,1-.48-.71,3.08,3.08,0,0,1-.17-1.07,2.84,2.84,0,0,1,.17-1.06,2.14,2.14,0,0,1,.45-.75,1.84,1.84,0,0,1,.65-.46,2,2,0,0,1,.76-.15,1.87,1.87,0,0,1,.71.13,1.36,1.36,0,0,1,.56.39,1.87,1.87,0,0,1,.38.7,3.33,3.33,0,0,1,.14,1v.28h-3.1a2,2,0,0,0,.13.73,1.39,1.39,0,0,0,.36.49,1.51,1.51,0,0,0,.52.27A2.69,2.69,0,0,0,55.57,182.49ZM55.19,179a1,1,0,0,0-.47.1,1.31,1.31,0,0,0-.38.27,1.11,1.11,0,0,0-.26.4,1.55,1.55,0,0,0-.13.48h2.29a1.57,1.57,0,0,0-.07-.49,1.16,1.16,0,0,0-.2-.4,1,1,0,0,0-.78-.36Z"/><path class="cls-2" d="M62.27,180.7a3.22,3.22,0,0,1-.17,1.08,2.19,2.19,0,0,1-.45.76A1.75,1.75,0,0,1,61,183a1.85,1.85,0,0,1-.74.15,1.83,1.83,0,0,1-.5-.07,1.68,1.68,0,0,1-.38-.18,1.8,1.8,0,0,1-.24-.2,1.1,1.1,0,0,1-.13-.17h0l-.16.5H58.3v-6.83H59V179h0a1.85,1.85,0,0,1,.56-.4,1.91,1.91,0,0,1,.74-.14,2,2,0,0,1,.4.05,1.5,1.5,0,0,1,.44.14,1.76,1.76,0,0,1,.41.28,1.63,1.63,0,0,1,.35.42,2.35,2.35,0,0,1,.24.6A3.15,3.15,0,0,1,62.27,180.7Zm-.77.05a2.58,2.58,0,0,0-.12-.86,1.32,1.32,0,0,0-.32-.52,1,1,0,0,0-.42-.26,1.35,1.35,0,0,0-.44-.07,1.53,1.53,0,0,0-.64.14,2,2,0,0,0-.53.37v2.34a1.4,1.4,0,0,0,.17.2,1.69,1.69,0,0,0,.25.2,1.66,1.66,0,0,0,.33.15,1.24,1.24,0,0,0,.4.07,1.26,1.26,0,0,0,.57-.13,1.22,1.22,0,0,0,.42-.36,1.8,1.8,0,0,0,.25-.56A2.62,2.62,0,0,0,61.5,180.75Z"/><path class="cls-2" d="M63.47,183v-6.83h.73V183Z"/><path class="cls-2" d="M65.69,177.49v-.82h.73v.82Zm0,5.52v-4.48h.73V183Z"/><path class="cls-2" d="M68.61,179.15h0a3.83,3.83,0,0,1,.28-.29,1.61,1.61,0,0,1,.33-.23,1.59,1.59,0,0,1,.4-.16,1.86,1.86,0,0,1,.48-.06,1.75,1.75,0,0,1,.57.09,1.16,1.16,0,0,1,.47.27,1.29,1.29,0,0,1,.31.49,2.11,2.11,0,0,1,.12.75v3h-.73v-2.88a1.21,1.21,0,0,0-.22-.83A.84.84,0,0,0,70,179a1.43,1.43,0,0,0-.73.21,2,2,0,0,0-.61.58V183H67.9v-4.48h.57Z"/><path class="cls-2" d="M74.73,178.41a1.88,1.88,0,0,1,.51.08,1.28,1.28,0,0,1,.37.18,1.1,1.1,0,0,1,.25.21A.66.66,0,0,1,76,179h0l.15-.51h.56v4.74a2.31,2.31,0,0,1-.17.91,1.93,1.93,0,0,1-.48.64,2.07,2.07,0,0,1-.74.38,3.53,3.53,0,0,1-.95.12,3.87,3.87,0,0,1-.8-.08,2.12,2.12,0,0,1-.54-.18v-.62l.31.11.31.08.33,0h.37a1.82,1.82,0,0,0,1.21-.36,1.42,1.42,0,0,0,.41-1.13v-.59h0a1.67,1.67,0,0,1-.56.39,1.83,1.83,0,0,1-.73.14,3,3,0,0,1-.4,0,1.91,1.91,0,0,1-.44-.15,2.07,2.07,0,0,1-.41-.27,1.63,1.63,0,0,1-.35-.42,2.14,2.14,0,0,1-.24-.59,3.2,3.2,0,0,1-.09-.8,3,3,0,0,1,.17-1.09,2.34,2.34,0,0,1,.44-.76,1.87,1.87,0,0,1,.64-.45A1.92,1.92,0,0,1,74.73,178.41ZM73.5,180.8a2.32,2.32,0,0,0,.13.86,1.25,1.25,0,0,0,.32.52,1,1,0,0,0,.43.26,1.75,1.75,0,0,0,.44.07,1.52,1.52,0,0,0,.63-.14A1.76,1.76,0,0,0,76,182v-2.35a2,2,0,0,0-.16-.19,1.79,1.79,0,0,0-.26-.2,1.91,1.91,0,0,0-.32-.16,1.35,1.35,0,0,0-.41-.06,1.2,1.2,0,0,0-.57.13,1.29,1.29,0,0,0-.41.36,1.75,1.75,0,0,0-.26.55A3.24,3.24,0,0,0,73.5,180.8Z"/><path class="cls-2" d="M78.64,179.72a.57.57,0,0,0,.08.31.65.65,0,0,0,.21.19,1.25,1.25,0,0,0,.31.12l.35.08.48.13a1.35,1.35,0,0,1,.42.2,1,1,0,0,1,.31.37,1.35,1.35,0,0,1,.12.61,1.33,1.33,0,0,1-.14.6,1.2,1.2,0,0,1-.37.44,1.67,1.67,0,0,1-.57.27,2.89,2.89,0,0,1-.74.09,2.94,2.94,0,0,1-.44,0,2.69,2.69,0,0,1-.36-.06L78,183a.75.75,0,0,1-.18-.08v-.61a3.2,3.2,0,0,0,.55.18,2.74,2.74,0,0,0,.6.07,2.19,2.19,0,0,0,.47,0,1.18,1.18,0,0,0,.36-.14.63.63,0,0,0,.23-.23.57.57,0,0,0,.08-.32.63.63,0,0,0-.07-.32.76.76,0,0,0-.2-.2,1.11,1.11,0,0,0-.29-.13,3.37,3.37,0,0,0-.34-.09l-.48-.13a1.41,1.41,0,0,1-.45-.2,1,1,0,0,1-.32-.34,1.2,1.2,0,0,1-.12-.57,1.29,1.29,0,0,1,.47-1,1.43,1.43,0,0,1,.51-.25,2,2,0,0,1,.6-.09,3.66,3.66,0,0,1,.69.07,3.62,3.62,0,0,1,.58.18v.63a2.81,2.81,0,0,0-.56-.18,2.2,2.2,0,0,0-.58-.07,1.37,1.37,0,0,0-.43.05.83.83,0,0,0-.3.14.5.5,0,0,0-.16.22A.6.6,0,0,0,78.64,179.72Z"/><path class="cls-2" d="M86,180.72a3.46,3.46,0,0,1-.09.83,2.58,2.58,0,0,1-.24.63,1.62,1.62,0,0,1-.36.45,2,2,0,0,1-.42.29,1.79,1.79,0,0,1-.44.16,2.18,2.18,0,0,1-.43,0,1.73,1.73,0,0,1-.71-.14,1.69,1.69,0,0,1-.54-.39h0v2.6H82v-6.67h.56l.15.51h0a1.19,1.19,0,0,1,.15-.18,1.46,1.46,0,0,1,.26-.19,1.76,1.76,0,0,1,.39-.18,1.64,1.64,0,0,1,.5-.08,2.24,2.24,0,0,1,.73.13,1.68,1.68,0,0,1,.62.41,2,2,0,0,1,.43.71A3,3,0,0,1,86,180.72Zm-.76,0a2.93,2.93,0,0,0-.08-.7,1.53,1.53,0,0,0-.25-.53,1.12,1.12,0,0,0-.41-.34,1.25,1.25,0,0,0-.56-.12,1.31,1.31,0,0,0-.41.06,1.19,1.19,0,0,0-.34.16,1.37,1.37,0,0,0-.26.2c-.08.07-.13.14-.18.19V182a2,2,0,0,0,.53.37,1.53,1.53,0,0,0,.64.14,1.47,1.47,0,0,0,.44-.08,1.14,1.14,0,0,0,.43-.28,1.49,1.49,0,0,0,.32-.54A2.48,2.48,0,0,0,85.23,180.73Z"/><path class="cls-2" d="M89.61,179.13h-.06a2.92,2.92,0,0,0-.51,0,1.84,1.84,0,0,0-.47.15,1.49,1.49,0,0,0-.39.23,1.38,1.38,0,0,0-.3.34V183h-.73v-4.48h.57l.14.71h0a1.58,1.58,0,0,1,.27-.32,1.91,1.91,0,0,1,.35-.27,2.11,2.11,0,0,1,.44-.17,1.57,1.57,0,0,1,.49-.07h.19Z"/><path class="cls-2" d="M94.38,180.78a2.93,2.93,0,0,1-.15,1,2.25,2.25,0,0,1-.43.74,1.79,1.79,0,0,1-.67.48,2.21,2.21,0,0,1-.87.17,2.29,2.29,0,0,1-.9-.17,1.88,1.88,0,0,1-.67-.48,2.23,2.23,0,0,1-.42-.74,3.08,3.08,0,0,1,0-1.93,2.28,2.28,0,0,1,.42-.75,2.16,2.16,0,0,1,.67-.48,2.39,2.39,0,0,1,1.77,0,2,2,0,0,1,.67.48,2.28,2.28,0,0,1,.42.75A3,3,0,0,1,94.38,180.78Zm-.77,0a2.37,2.37,0,0,0-.1-.74,1.67,1.67,0,0,0-.28-.55,1.26,1.26,0,0,0-2,0A1.67,1.67,0,0,0,91,180a2.75,2.75,0,0,0,0,1.47,1.47,1.47,0,0,0,.29.54,1.18,1.18,0,0,0,.43.34,1.26,1.26,0,0,0,.55.12,1.22,1.22,0,0,0,.54-.12,1.18,1.18,0,0,0,.43-.34,1.62,1.62,0,0,0,.28-.54A2.39,2.39,0,0,0,93.61,180.78Z"/><path class="cls-2" d="M98.13,176.76l-.31,0-.29,0a1.46,1.46,0,0,0-.44.06.79.79,0,0,0-.33.2.81.81,0,0,0-.2.35,1.7,1.7,0,0,0-.07.53v.69h2.16v.63H96.49V183h-.74v-3.85H95v-.63h.78v-.68a2.39,2.39,0,0,1,.13-.82,1.64,1.64,0,0,1,.36-.55,1.35,1.35,0,0,1,.53-.31,2.07,2.07,0,0,1,.66-.1,2.82,2.82,0,0,1,.42,0,1.18,1.18,0,0,1,.28,0Z"/><path class="cls-2" d="M98.65,183v-4.48h.73V183Z"/><path class="cls-2" d="M100.89,183v-6.83h.73V183Z"/><path class="cls-2" d="M12.64,159.62,2.91,145.29v14.33H.22v-19H2.7l10.64,15.52L24.1,140.62h2.49v19H23.87V145.24L14,159.62Z"/><path class="cls-2" d="M52.85,143H39.57a5.41,5.41,0,0,0-2,.42,6.39,6.39,0,0,0-3.2,3,4.93,4.93,0,0,0-.57,2.2H52.67v2.28H33.75v.41a5.95,5.95,0,0,0,1.81,4.41,5.88,5.88,0,0,0,2,1.26,6.52,6.52,0,0,0,2.4.44H52.85v2.28H39.05a7.72,7.72,0,0,1-3-.59,7.82,7.82,0,0,1-2.58-1.66,8.13,8.13,0,0,1-1.81-2.57,7.89,7.89,0,0,1-.69-3.34v-2.69a7.79,7.79,0,0,1,.71-3.32,8.25,8.25,0,0,1,1.88-2.57,8.79,8.79,0,0,1,2.62-1.67,8,8,0,0,1,3-.59H52.85Z"/><path class="cls-2" d="M78.34,159.62H64.63a8.46,8.46,0,0,1-3.16-.57,7.39,7.39,0,0,1-2.5-1.62,7.53,7.53,0,0,1-1.65-2.56,9.34,9.34,0,0,1-.59-3.41V140.64h2.78v10.59a7.55,7.55,0,0,0,.41,2.56,5.21,5.21,0,0,0,1.17,1.91,5.13,5.13,0,0,0,1.8,1.22,6.11,6.11,0,0,0,2.32.42H78.34Z"/><path class="cls-2" d="M83.37,140.64v8h10a5.73,5.73,0,0,0,2-.3A2.9,2.9,0,0,0,96.85,147c.11-.19.34-.59.68-1.2s.71-1.26,1.11-2l1.11-2q.52-.91.66-1.2h3l-4.06,7.26a7.24,7.24,0,0,1-.85,1.21,2.63,2.63,0,0,1-1.25.78v0a3.13,3.13,0,0,1,1.53.64,4.24,4.24,0,0,1,1,1.34l4.18,7.74h-3l-3.63-6.75a3.74,3.74,0,0,0-.61-.9,2.91,2.91,0,0,0-.83-.59,4.14,4.14,0,0,0-1.17-.34,11,11,0,0,0-1.63-.1H83.37v8.68H80.65v-19Z"/><path class="cls-2" d="M128.89,143H115.62a5.37,5.37,0,0,0-2.05.42,6.5,6.5,0,0,0-1.84,1.18,6.33,6.33,0,0,0-1.36,1.78,4.93,4.93,0,0,0-.57,2.2h18.92v2.28H109.8v.41a6.16,6.16,0,0,0,.48,2.48,5.94,5.94,0,0,0,1.33,1.93,5.88,5.88,0,0,0,2,1.26,6.52,6.52,0,0,0,2.4.44h12.92v2.28h-13.8a7.79,7.79,0,0,1-3-.59,7.88,7.88,0,0,1-2.57-1.66,8.16,8.16,0,0,1-1.82-2.57,8,8,0,0,1-.68-3.34v-2.69a7.79,7.79,0,0,1,.71-3.32,8.23,8.23,0,0,1,1.87-2.57,8.84,8.84,0,0,1,2.63-1.67,8,8,0,0,1,3-.59h13.65Z"/><path class="cls-3" d="M124.91,31.3l-19-26.7V27.93h-.31c-.15.11-.31.07-.44.26h.06s-.13.08-.15.09,0,0,0,0-.08.05-.11.07h0c-.08.17-.38.27-.53.43,0,0,0,0,0,.05s-.31.18-.4.22h.07c-.18.08,0,.2-.22.27l0-.12c0,.07-.1.1-.12.05s.05.07,0,.16.08-.05.07,0l-.08.18h0s0,0-.06.06-.12.1-.14-.05c-.19.17-.29.38-.5.48,0,.16-.32.31-.19.41a.42.42,0,0,1-.29.14s0,0,.07-.05a.54.54,0,0,0-.22.14,1.18,1.18,0,0,1,.3-.1,1.85,1.85,0,0,1-.31.16l0,.08c-.11,0,0,.11-.14.11v0c-.13.13-.19.06-.32.17l0,0c0,.05-.15,0-.13.14l.08-.07c0,.05,0,.12,0,.17s-.09,0-.14,0,0,0,.08,0a1,1,0,0,1-.36.18,0,0,0,0,0,0,0c-.09.1-.24.11-.27.19h0c0,.14-.25.13-.17.25s.08-.08.07,0-.16,0-.24.11,0,0,0,0a2.78,2.78,0,0,1-.27.21c0,.18-.33.26-.35.46,0-.07-.07,0-.08,0a0,0,0,0,1,0,0s-.07,0-.1,0-.15.08-.15.12,0,0-.09.05.07,0,.13,0c-.1.12-.21,0-.31.15l0,.1a.1.1,0,0,0-.09,0c-.15.18-.37.34-.4.49a2.89,2.89,0,0,0-.58.38h0c-.06.07-.17.21-.1.28-.15.11-.33.09-.46.28h.06c0,.05-.13.08-.15.09s0,0,0,0-.08,0-.11.06h0c-.08.17-.38.27-.53.44,0,0,0,0,0,0s-.31.18-.4.23h.07c-.18.07,0,.19-.22.26l0-.12c0,.07-.1.1-.12,0s0,.07,0,.16.08-.05.07,0l-.08.18h0s0,0-.06.06-.12.09-.14-.06c-.19.17-.3.38-.5.49,0,.15-.32.3-.19.41a.45.45,0,0,1-.29.13s0,0,.07,0-.17.09-.22.13a.86.86,0,0,1,.3-.09,2.82,2.82,0,0,1-.31.15l0,.08c-.11,0,0,.11-.14.11v0c-.13.13-.19.07-.32.17l0,0c0,.05-.15.05-.13.14l.08-.07c0,.05,0,.13,0,.17s-.1,0-.14,0,0,0,.08,0a1,1,0,0,1-.36.18v0c-.09.09-.24.1-.27.19h0c0,.13-.25.12-.17.24s.08-.08.07,0-.16,0-.24.1h0l-.27.21c0,.18-.33.26-.35.47,0-.07-.07,0-.08,0h0s-.07,0-.1,0-.15.08-.15.12-.05,0-.09,0,.07,0,.13,0c-.1.11-.21,0-.31.14l0,.1a.08.08,0,0,0-.09,0c-.15.17-.37.33-.4.48a3,3,0,0,0-.58.38h0c-.05.07-.16.21-.09.28-.15.11-.33.1-.46.28h.06s-.13.08-.15.09,0,0,0,0-.08,0-.12.06l0,0c-.09.16-.38.26-.54.43,0,0,0,0,0,0s-.31.18-.4.23h.07c-.18.07,0,.19-.23.26l0-.11c0,.06-.1.09-.12,0s0,.07-.05.17.09,0,.08,0l-.08.19h0s0,0-.06.06-.12.1-.14-.06c-.19.17-.3.38-.5.49,0,.15-.32.3-.19.41a.45.45,0,0,1-.29.13s0,0,.07,0-.17.09-.22.13a1.14,1.14,0,0,1,.3-.09,2.14,2.14,0,0,1-.32.15l0,.09c-.11,0,0,.1-.14.11v0c-.13.13-.19.07-.32.17l0,0c0,.05-.15.05-.14.14l.09-.07c0,.05,0,.13,0,.18s-.1,0-.14,0,0,0,.08,0a1,1,0,0,1-.37.18l0,0c-.09.09-.25.1-.27.19h0c0,.13-.25.13-.17.24s.08-.08.06,0-.15,0-.23.1,0,0,0,0a2,2,0,0,1-.28.21c0,.18-.32.26-.34.47,0-.07-.07,0-.09,0h0a.1.1,0,0,1-.1,0c0,.06-.15.07-.15.11s0,0-.09,0,.07,0,.13,0c-.1.11-.21,0-.31.14l0,.1s0,0-.06,0-.14.18-.16.14-.17.16-.18.16-.28.13-.18.18-.11,0-.15.15,0,.05,0,.05l-.1,0c-.14.1,0,.22-.17.31,0-.06-.07,0,0-.13s-.08.06-.06.08-.06.14-.12.14,0,.07,0,.1h0s0,.08,0,.08c-.21,0-.31.3-.49.32a2.73,2.73,0,0,1-.23.25s0,0,0,0,0,.15-.13.22,0-.08,0-.07-.13.15-.26.16v0c-.09,0-.11.17-.21.25a0,0,0,0,0,0,0,1,1,0,0,1-.21.35c0-.07,0-.06,0-.09s.07.06,0,.15-.12,0-.17,0l.07-.07c-.09,0-.1.09-.15.12v0c-.12.12-.06.19-.19.3h0c0,.13-.09,0-.12.13l-.08,0a2.92,2.92,0,0,1-.18.31,1.11,1.11,0,0,1,.12-.3s-.16.16-.15.21,0-.06,0-.07a.41.41,0,0,1-.16.28c-.09-.13-.26.2-.42.17-.12.19-.34.28-.52.47.15,0-.05,0,0,.14s-.06.06-.07,0h0l-.19.07s0-.06,0-.08-.08,0-.16,0,0,.08-.06.11l.12,0c-.09.17-.19,0-.28.2v-.07c0,.09-.25.24-.25.39s-.06,0,0-.05c-.18.14-.29.43-.47.5v0s0,.09-.07.11,0,0,0,0a.3.3,0,0,1-.09.15v-.06c-.2.12-.19.3-.32.44-.06-.07-.21,0-.28.07h0a3.09,3.09,0,0,0-.42.55c-.15,0-.33.23-.51.37a.07.07,0,0,0,0,.09l-.1,0c-.13.09,0,.21-.17.3,0-.06-.07,0,0-.13s-.07.06,0,.08-.06.14-.13.14,0,.07,0,.1h0s0,.08,0,.08c-.2,0-.31.31-.48.32l-.23.26s0,0,0,0,0,.15-.12.23,0-.09,0-.07-.13.14-.26.15v0c-.09,0-.1.17-.21.26s0,0,0,0a.88.88,0,0,1-.2.35c0-.06,0-.06,0-.08s.08,0,0,.14-.12,0-.17,0l.08-.08c-.1,0-.1.1-.15.13l0,0c-.11.12-.06.18-.19.3h0c0,.13-.09,0-.12.14l-.08-.05a1.51,1.51,0,0,1-.18.31,1,1,0,0,1,.12-.29s-.15.15-.15.2,0-.06,0-.07a.46.46,0,0,1-.15.29c-.1-.14-.27.19-.43.16-.12.2-.34.28-.52.47.16,0-.05.05,0,.14s0,.06-.06.06h0l-.18.07c-.06,0,0-.07,0-.08s-.08,0-.17,0,0,.08-.06.12l.12,0c-.08.18-.19,0-.28.21l0-.07c-.06.08-.26.24-.26.38s-.06,0,0-.05c-.17.15-.29.43-.46.51v0s0,.1-.08.11,0,0,0,0a.37.37,0,0,1-.1.14v-.06c-.19.12-.19.3-.31.44-.07-.07-.22,0-.29.08h0a2.86,2.86,0,0,0-.42.55c-.15,0-.32.22-.5.36,0,0,0,.06,0,.09l-.1,0c-.13.09,0,.21-.17.31,0-.07-.06,0,0-.14s-.08.06-.06.09-.06.13-.12.14,0,.06,0,.1l0,0s0,.08,0,.08c-.21,0-.31.31-.49.32a3,3,0,0,1-.23.26s0,0,0,0,0,.15-.12.23,0-.09,0-.07-.12.14-.26.16l0,0c-.09,0-.11.18-.21.26h0a.9.9,0,0,1-.2.35c0-.07,0-.06,0-.09s.07.05,0,.14-.13,0-.18,0l.08-.08c-.09,0-.1.1-.15.13l0,0c-.11.12,0,.18-.19.3h0c0,.12-.09,0-.11.13l-.08,0c0,.06-.11.21-.18.3a1.15,1.15,0,0,1,.11-.29s-.15.15-.15.21,0-.06,0-.07a.46.46,0,0,1-.15.28c-.1-.14-.27.19-.42.16-.12.2-.34.29-.53.47.16,0-.05.06,0,.14s0,.06-.06.06h0l-.19.07c-.06,0,0-.06,0-.08s-.08,0-.17,0,0,.08,0,.12l.12,0c-.09.18-.2,0-.28.21v-.07c0,.08-.26.24-.25.38s-.07,0,0,0c-.18.14-.3.43-.47.5v0s0,.1-.08.11,0,0,0,0,0,.12-.1.14V65c-.19.12-.19.3-.31.45-.06-.07-.21,0-.29.07h0a3.09,3.09,0,0,0-.42.55c-.15,0-.11,0-.29.19v.41h0v58.63L83.21,95.72V51.07l22.67-21.16V60.69Z"/><path class="cls-3" d="M67.16,63.81s0-.15-.08-.1C67.18,63.69,67,63.85,67.16,63.81Z"/><path class="cls-3" d="M70.65,60.44l0,0h0Z"/><path class="cls-3" d="M70.15,60.93l0,0h0Z"/><path class="cls-3" d="M70.18,60.82l.06,0S70.21,60.76,70.18,60.82Z"/><path class="cls-3" d="M68.49,62.48l.11-.07A.1.1,0,0,0,68.49,62.48Z"/><path class="cls-3" d="M74.16,57.31s0-.14-.08-.1C74.18,57.19,74,57.36,74.16,57.31Z"/><path class="cls-3" d="M77.64,54s0,0,0,0h0S77.63,54,77.64,54Z"/><path class="cls-3" d="M77.15,54.44l0,0h0Z"/><path class="cls-3" d="M77.17,54.33l.06,0S77.21,54.27,77.17,54.33Z"/><path class="cls-3" d="M75.49,56s.09,0,.1-.07S75.49,55.93,75.49,56Z"/><path class="cls-3" d="M81.16,50.82s0-.15-.08-.1C81.17,50.7,81,50.86,81.16,50.82Z"/><path class="cls-3" d="M84.64,47.45s0,0,0,0h0A0,0,0,0,1,84.64,47.45Z"/><path class="cls-3" d="M84.14,47.94l0,0h0Z"/><path class="cls-3" d="M84.17,47.83l.06,0S84.2,47.77,84.17,47.83Z"/><path class="cls-3" d="M82.48,49.49s.1-.05.11-.07A.1.1,0,0,0,82.48,49.49Z"/><path class="cls-3" d="M103.7,29.53c0,.1.09.06.1.09C103.85,29.49,103.68,29.63,103.7,29.53Z"/><path class="cls-3" d="M100.22,32.84l0,0h0Z"/><path class="cls-3" d="M100.74,32.37l0,0h0Z"/><path class="cls-3" d="M100.61,32.42c-.06,0,0,.08,0,.06Z"/><path class="cls-3" d="M102.3,31s0-.06.08-.1S102.3,30.91,102.3,31Z"/><path class="cls-3" d="M96.74,36.06c0,.1.09.07.1.09S96.72,36.16,96.74,36.06Z"/><path class="cls-3" d="M93.26,39.37l0,0h0Z"/><path class="cls-3" d="M93.78,38.9l0,0h0Z"/><path class="cls-3" d="M93.65,39c-.06,0,0,.08,0,.06Z"/><path class="cls-3" d="M95.34,37.49s0-.07.08-.11A.11.11,0,0,0,95.34,37.49Z"/><path class="cls-3" d="M89.78,42.6c0,.09.09.06.1.08C89.93,42.55,89.76,42.69,89.78,42.6Z"/><path class="cls-3" d="M86.3,45.9l0,0,0,0Z"/><path class="cls-3" d="M86.82,45.43l0,0h0Z"/><path class="cls-3" d="M86.69,45.48c-.06,0,0,.08,0,.06Z"/><path class="cls-3" d="M88.38,44s0-.07.08-.1S88.38,44,88.38,44Z"/><path class="cls-4" d="M61.59,63.71c-.1-.05-.05.09-.08.1C61.65,63.85,61.5,63.69,61.59,63.71Z"/><path class="cls-4" d="M58,60.44v0h0A0,0,0,0,0,58,60.44Z"/><path class="cls-4" d="M58.53,60.93v0h0Z"/><path class="cls-4" d="M58.44,60.86l.06,0C58.47,60.76,58.42,60.82,58.44,60.86Z"/><path class="cls-4" d="M60.08,62.41s.07,0,.11.07A.1.1,0,0,0,60.08,62.41Z"/><path class="cls-4" d="M54.6,57.21c-.1,0-.06.1-.08.1S54.5,57.19,54.6,57.21Z"/><path class="cls-4" d="M51,54l0,0h0S51,54,51,54Z"/><path class="cls-4" d="M51.53,54.44v0h0Z"/><path class="cls-4" d="M51.44,54.36l.06,0C51.47,54.27,51.42,54.33,51.44,54.36Z"/><path class="cls-4" d="M53.08,55.91s.07,0,.11.07S53.12,55.91,53.08,55.91Z"/><path class="cls-4" d="M47.6,50.72c-.1,0-.06.09-.08.1S47.5,50.7,47.6,50.72Z"/><path class="cls-4" d="M44,47.45s0,0,0,0h0Z"/><path class="cls-4" d="M44.53,47.94l0,0h0Z"/><path class="cls-4" d="M44.45,47.87l.06,0C44.47,47.77,44.43,47.83,44.45,47.87Z"/><path class="cls-4" d="M46.08,49.42l.11.07C46.19,49.44,46.13,49.41,46.08,49.42Z"/><path class="cls-4" d="M25,29.53c0,.1-.15,0-.09.09C24.88,29.59,25,29.63,25,29.53Z"/><path class="cls-4" d="M28.45,32.84h0Z"/><path class="cls-4" d="M27.93,32.37v0h0Z"/><path class="cls-4" d="M28.07,32.42l0,.06S28.13,32.45,28.07,32.42Z"/><path class="cls-4" d="M26.3,30.85s.05.09.07.1A.08.08,0,0,0,26.3,30.85Z"/><path class="cls-4" d="M31.93,36.06c0,.1-.14,0-.09.09S32,36.16,31.93,36.06Z"/><path class="cls-4" d="M35.41,39.37h0Z"/><path class="cls-4" d="M34.89,38.9v0h0Z"/><path class="cls-4" d="M35,39,35,39S35.09,39,35,39Z"/><path class="cls-4" d="M33.26,37.38s.05.09.07.11A.09.09,0,0,0,33.26,37.38Z"/><path class="cls-4" d="M38.89,42.6c0,.09-.14-.05-.09.08C38.81,42.66,39,42.69,38.89,42.6Z"/><path class="cls-4" d="M42.37,45.9h0l0,0S42.39,45.91,42.37,45.9Z"/><path class="cls-4" d="M41.85,45.43v0h0Z"/><path class="cls-4" d="M42,45.48l0,.06S42.05,45.51,42,45.48Z"/><path class="cls-4" d="M40.22,43.92s.05.09.07.1A.08.08,0,0,0,40.22,43.92Z"/><path class="cls-4" d="M64.34,66.27c-.18-.13-.14-.16-.29-.18a2.77,2.77,0,0,0-.42-.55h0c-.08,0-.23-.15-.29-.08-.12-.14-.12-.32-.31-.44v.06c-.06,0-.09-.12-.1-.14s0,0,0,0-.05-.07-.08-.11v0c-.17-.08-.29-.36-.47-.51,0,0,0,0,0,0s-.2-.3-.25-.38v.07c-.08-.18-.19,0-.28-.21l.12,0c-.06,0-.1-.1-.05-.12s-.06.05-.17,0,.06.08,0,.08l-.19-.07h0s0,0-.06-.06-.11-.11,0-.14c-.19-.19-.41-.27-.53-.47-.15,0-.32-.3-.42-.16a.46.46,0,0,1-.15-.28s0,0,.05.06-.1-.16-.15-.2a1,1,0,0,1,.11.29c-.07-.09-.14-.25-.18-.31l-.08.05c0-.11-.1,0-.11-.14h0c-.14-.12-.08-.18-.19-.3l0,0s-.06-.15-.15-.13l.08.08s-.13,0-.18,0,0-.1,0-.14,0,0,0,.08a.78.78,0,0,1-.2-.35l0,0c-.1-.09-.12-.24-.21-.26l0,0c-.14,0-.15-.24-.26-.15s.09.07,0,.07,0-.16-.12-.23,0,0,0,0L58.54,61c-.18,0-.28-.31-.49-.32.07,0,0-.06,0-.08l0,0s0-.08,0-.11-.08-.14-.12-.14,0,0-.06-.08,0,.07,0,.13,0-.21-.17-.3l-.1,0s0-.06,0-.09c-.18-.14-.36-.34-.51-.37a3.64,3.64,0,0,0-.42-.55v0c-.07-.05-.22-.15-.29-.08-.12-.14-.12-.32-.31-.44v.06a.33.33,0,0,1-.1-.15s0,0,0,0-.05-.08-.08-.11v0c-.18-.07-.3-.36-.47-.5,0,0,0,.05,0,.05,0-.15-.2-.3-.26-.39l0,.07c-.09-.17-.2,0-.28-.2l.12,0c-.07,0-.1-.09-.06-.11s-.06,0-.16,0,0,.08,0,.08l-.18-.06h0s0,0-.06-.05-.11-.11,0-.14c-.18-.19-.4-.28-.52-.47-.16,0-.33-.3-.43-.17a.43.43,0,0,1-.15-.28s0,0,.05.07-.1-.16-.15-.2a.93.93,0,0,1,.12.29,1.51,1.51,0,0,1-.18-.31l-.08,0c0-.11-.11,0-.12-.13h0c-.13-.12-.08-.19-.19-.31l0,0s0-.14-.15-.12l.08.07s-.13,0-.17,0,0-.1,0-.14,0,0,0,.08a1,1,0,0,1-.2-.35s0,0,0,0-.12-.24-.21-.26v0c-.13,0-.15-.24-.26-.16s.09.08,0,.07,0-.15-.12-.22,0,0,0,0l-.23-.25c-.17,0-.28-.31-.48-.32.07,0,0-.07,0-.08h0s0-.07,0-.1-.09-.14-.13-.14,0,0-.05-.08,0,.07,0,.13c-.12-.09,0-.21-.17-.31h-.1a.09.09,0,0,0,0-.1c-.18-.13-.36-.34-.51-.36a3.09,3.09,0,0,0-.42-.55h0c-.07-.05-.22-.14-.28-.07-.13-.15-.12-.33-.32-.45v.06S49,52,49,52s0,0,0,0-.05-.07-.07-.11v0c-.18-.07-.29-.36-.47-.5,0,0,0,0,0,0s-.2-.3-.25-.38v.07c-.09-.18-.19,0-.28-.21l.12,0c-.07,0-.1-.1-.06-.12s-.06,0-.16,0,0,.08,0,.08l-.19-.07h0s0,0-.07-.06-.1-.11,0-.14c-.18-.18-.4-.27-.52-.47-.16,0-.33-.3-.42-.16a.45.45,0,0,1-.16-.28s0,0,.05.07-.1-.17-.14-.21a1.72,1.72,0,0,1,.11.29,2.15,2.15,0,0,1-.18-.3l-.08,0c0-.11-.1,0-.12-.13h0c-.13-.11-.07-.18-.19-.3v0s-.06-.14-.15-.13l.07.08s-.12,0-.17,0,0-.1,0-.15,0,0,0,.09a1,1,0,0,1-.21-.35,0,0,0,0,0,0,0c-.1-.08-.12-.23-.21-.26v0c-.13,0-.14-.25-.26-.16s.09.07,0,.07,0-.16-.13-.22,0,0,0,0a1.94,1.94,0,0,1-.23-.26c-.18,0-.28-.3-.49-.31.07,0,0-.07,0-.09s0,0,0,0,0-.07,0-.1-.08-.14-.12-.14,0-.05-.06-.09,0,.07,0,.14c-.12-.1,0-.22-.16-.31l-.11,0s0,0,0-.05-.19-.13-.14-.15-.18-.17-.19-.18-.14-.26-.18-.17,0-.11-.16-.13l-.06,0,0-.1c-.1-.12-.21,0-.31-.15.06,0,0-.07.13,0s-.07-.07-.09,0-.14-.06-.15-.12-.06,0-.1,0l0,0s-.09,0-.08,0c0-.2-.33-.28-.35-.46a2,2,0,0,1-.28-.21s0,0,0,0-.15,0-.23-.11.08,0,.06,0-.15-.11-.17-.25l0,0c0-.09-.18-.1-.27-.2h0a1,1,0,0,1-.37-.18c.07,0,.06,0,.08,0s0,.08-.14,0,0-.12,0-.17l.09.07c0-.09-.11-.09-.14-.14l0,0c-.13-.1-.19,0-.32-.17v0c-.13,0,0-.09-.14-.11l0-.08a2.36,2.36,0,0,1-.32-.16,1.18,1.18,0,0,1,.3.1c-.05-.05-.16-.14-.22-.13s.07,0,.08,0a.44.44,0,0,1-.3-.14c.13-.1-.21-.25-.19-.4-.2-.11-.31-.32-.5-.49,0,.15-.06,0-.14.06s-.06-.06-.06-.07h0l-.08-.18c0-.06.06,0,.08,0s0-.07,0-.16-.08,0-.12,0l0,.12c-.19-.07-.05-.19-.23-.26h.07c-.09,0-.26-.24-.4-.22s0-.07,0,0c-.16-.17-.45-.27-.54-.44h0s-.1,0-.12-.07,0,0,0,0-.12,0-.15-.09h.06c-.13-.19-.31-.17-.46-.28.07-.07,0-.21-.09-.29h0a2.63,2.63,0,0,0-.58-.38c0-.15-.25-.32-.4-.49a.1.1,0,0,0-.09,0l0-.1c-.1-.13-.21,0-.31-.15.06,0,0-.07.13,0s-.07-.07-.09,0-.14-.06-.15-.12-.06,0-.1,0v0s-.08,0-.08,0c0-.2-.32-.29-.35-.46l-.27-.21s0,0,0,0-.15,0-.23-.11.08,0,.06,0-.15-.12-.17-.25h0c0-.09-.18-.09-.27-.19h0a1,1,0,0,1-.37-.18c.07,0,.06,0,.08,0s0,.08-.14,0,0-.12,0-.17l.08.07c0-.1-.1-.09-.13-.14l0,0c-.13-.11-.19-.05-.32-.17v0c-.13,0,0-.09-.14-.11l0-.08a1.9,1.9,0,0,1-.32-.16,1.18,1.18,0,0,1,.3.1c-.05-.05-.16-.14-.22-.14s.06,0,.07,0a.47.47,0,0,1-.29-.14c.13-.1-.21-.25-.19-.41-.2-.1-.31-.32-.5-.48,0,.15-.06,0-.14.05s-.06-.05-.06-.06h0L31.76,36c0-.06.06,0,.07,0s0-.08,0-.16-.08,0-.12,0l0,.12c-.19-.08-.05-.19-.23-.27h.07c-.09,0-.26-.24-.4-.22s0-.07.05,0c-.16-.16-.45-.26-.54-.43h0s-.09,0-.11-.07,0,0,0,0-.12,0-.15-.09h.06c-.13-.18-.31-.16-.46-.28.07-.06,0-.21-.1-.28h0a3.47,3.47,0,0,0-.58-.39c0-.14-.25-.31-.4-.48,0,0-.06,0-.09,0l0-.1c-.1-.13-.21,0-.31-.15.06,0,0-.07.13,0s-.07-.07-.09,0-.14-.05-.15-.11-.06,0-.1,0a0,0,0,0,1,0,0s-.08,0-.08,0c0-.2-.32-.29-.35-.46l-.27-.21s0,0,0,0c-.08-.13-.15,0-.24-.11s.09,0,.07,0-.15-.12-.17-.25h0c0-.09-.18-.09-.27-.19a0,0,0,0,0,0,0,1,1,0,0,1-.36-.18c.07,0,.06,0,.08,0s0,.07-.14,0-.05-.12,0-.17l.08.07c0-.1-.1-.1-.13-.14l0,0c-.13-.11-.19-.05-.32-.17v0c-.13,0,0-.09-.14-.11l0-.08a1.85,1.85,0,0,1-.31-.16,1.71,1.71,0,0,1,.3.09c-.05,0-.17-.14-.22-.13s.06,0,.07.05a.47.47,0,0,1-.29-.14c.13-.1-.21-.25-.19-.41-.21-.1-.31-.32-.5-.49,0,.16-.06-.05-.14.06s-.06-.05-.06-.06h0l-.08-.18c0-.06.06,0,.07,0s0-.08,0-.16-.08,0-.12-.05l0,.12c-.18-.08,0-.19-.22-.27h.07c-.09,0-.26-.24-.4-.23s0-.06,0,0c-.15-.17-.45-.26-.53-.43h0s-.09,0-.11-.07,0,0,0,0a.25.25,0,0,1-.15-.08h.06c-.13-.18-.29-.14-.44-.25a.52.52,0,0,0-.32,0V4.6l-19,26.7,19,29.39V29.91L45.47,51.07V95.72l18.87,29.61V66.27Z"/><polygon class="cls-5" points="64.34 0 64.34 35.72 102.61 0 64.34 0"/><polygon class="cls-6" points="64.34 35.72 64.34 0 26.07 0 64.34 35.72"/><polygon class="cls-7" points="64.34 35.72 64.34 7.74 26.07 0 64.34 35.72"/><polygon class="cls-1" points="64.34 35.72 64.34 7.74 102.61 0 64.34 35.72"/><polygon class="cls-8" points="45.47 51.07 64.34 125.33 45.47 95.72 45.47 51.07"/><polygon class="cls-9" points="83.21 51.07 83.21 95.72 64.34 125.33 83.21 51.07"/><polygon class="cls-10" points="3.76 31.3 22.79 27.93 22.79 4.6 3.76 31.3"/><polygon class="cls-11" points="124.91 31.3 105.88 27.93 105.88 4.6 124.91 31.3"/></g></g></svg>