<svg xmlns="http://www.w3.org/2000/svg" viewBox="0 0 90.9 19.04"><defs><style>.cls-1{fill:#b13675;fill-rule:evenodd;}.cls-2{fill:#fff;}</style></defs><title>1</title><g id="Слой_2" data-name="Слой 2"><g id="Слой_1-2" data-name="Слой 1"><path class="cls-1" d="M80.21,12.21Z"/><path class="cls-1" d="M90.87,8.17a.29.29,0,0,1-.37,0s.09-.13,0-.11-.35-.09-.42-.28c-.11,0-.09.13-.24.17a.24.24,0,0,0-.3-.15l-.09.06c0,.2.2-.1.22,0s.08.3-.07.37,0-.09,0-.22c-.15.09-.17,0-.28,0s0,.14-.16.18a.21.21,0,0,0,0-.26.28.28,0,0,0-.13,0,.82.82,0,0,0,.09-.34c-.22.06-.3-.15-.54,0,0,.11.17.07,0,.16-.11-.15-.24.08-.33-.11-.1.11-.43.15-.48,0-.19.08-.1.24-.3.3.09-.21-.17-.15-.08-.34-.11.1-.11,0-.2,0s0,.15-.05.19-.08-.08-.1-.15-.09.19-.2.26c0-.28-.2-.13-.26-.24A1.35,1.35,0,0,1,87,7.52c-.13-.18-.48,0-.61-.15.27,0,.63-.14.83,0-.07,0-.17.07-.11.16.18-.09.13-.13.28-.15s0-.18,0-.25c-.39.16-.74.2-.76-.12,0,.12-.2.15-.16,0-.17.06,0,.21-.15.28,0-.09-.17,0-.22,0s.27,0,.22-.17-.21.15-.21,0,.06-.17-.07-.3c.17,0,.13-.15.15-.24-.19.13-.09-.17-.11-.22-.17.09,0,.26-.19.35-.07-.13-.22-.13-.35-.15,0,.11.13.1,0,.21-.13,0-.13.09-.28.14.1-.2-.15-.07-.31,0-.08-.15-.15-.2,0-.37a.44.44,0,0,0-.3.32c0-.23-.33-.08-.24-.3-.07,0-.22.18-.24.09.17-.37.6,0,.76-.33-.16,0-.35,0-.52,0,.24-.31.11-.5.26-.79-.26.18-.42-.15-.72-.24a2.7,2.7,0,0,0,.17.35c-.37.15-.71.22-.87,0-.43.28-.5-.15-.93.17,0-.13-.11,0-.15-.11l-.22.15c-.24-.28-.8,0-1,0,.06,0,.13-.08.11-.13s-.09-.21-.17,0c.12-.07,0,.13,0,.15s-.46,0-.54,0,.2.13.11.21a2,2,0,0,1-.42,0c0-.14.13-.27.13-.44-.15.28-.41.67-.63.37.13-.07.07-.13.18-.11-.11-.28-.35-.13-.55-.35-.25.24-.39-.17-.76.14,0-.14-.17,0-.19-.18s.13-.07.11-.13c-.26.18-.31-.22-.63-.09,0,.22.37.07.32.26-.24,0-.84-.19-.76.11-.19-.06-.41-.3-.74-.22s-.23.24-.36.2c-.09.17.06.18,0,.3s-.09,0-.11,0,0-.17,0-.28c-.17.09,0,.22-.1.33s0-.31-.24-.2c0,.09,0,.15-.07.22-.13-.09,0-.13-.06-.28-.11.15-.09-.11-.2,0s.13.07,0,.19-.15-.23-.22-.32c.09,0,.33-.07.27-.26-.24,0-.5.08-.68-.09,0,0,.07-.06.07-.09-.22.11,0,.29-.2.42,0-.22-.28.13-.34,0,.1-.11.28-.07.25-.33-.15.07-.19.17-.28.26L74,5.13c-.23.1-.36,0-.58.06.06.2.08-.09.11,0s-.07.11-.09.16a.51.51,0,0,0-.52-.29c-.15.07,0,.16-.16.24s-.21.07-.23-.15c-.16.07-.09.19-.15.28s-.18-.08-.27-.11c.07.18,0,.13-.17.24,0-.13-.19-.17-.17,0a4.47,4.47,0,0,0,1.1,0c-.1.09,0,.2,0,.29-.37-.09-1.11.19-1.13-.37-.13,0-.06.11-.19.21-.07-.13-.22-.1-.33-.13s-.11-.11-.06-.24.25-.1.3,0-.11.09-.11.13.15.06.26,0,.11-.27.07-.44-.05.11-.18.2C71.39,5,71,5.45,71.1,5A.1.1,0,0,1,71,5a0,0,0,0,0,0,0c-.13,0-.11.26-.2.17s0-.1,0-.15-.28,0-.42,0c.14-.12-.15-.08,0-.15.11.09.28,0,.41-.06-.23,0-.25-.11-.41-.16s0,.16-.06.22-.07,0-.09-.09,0-.21.09-.3c.09.11.28,0,.35.17.13-.08.13-.17.23-.23.22.13.2.45.53.24.08-.13-.16-.09,0-.22,0,.19.08.21.21.22s-.22-.16,0-.31c0,.18.17.13.13.39.26-.15-.11-.19.11-.37.07.22.26.09.09.31.23-.2.37-.18.3.06.05,0,.09-.06.11,0s.09-.32.22-.23a2.77,2.77,0,0,1,0,.3c.09,0,.29.13.35,0-.11.07-.17,0-.28,0,.3-.17.56.12.69-.3.09.17.29,0,.38.13-.11,0-.29.2-.33,0l-.17.13.08.17a1.23,1.23,0,0,1,.48-.15c0-.09,0-.21.09-.3.11.22.43.08.52.06,0,.18.19.2.06.39,0,0,.05,0,.07,0,.09-.2.24-.18.22-.37.11,0,.1.24,0,.35.2-.09.52.24.45-.11.07,0,.25.09.27-.09s-.16,0-.18-.07c.18-.21.22,0,.37-.06l0-.07a.07.07,0,0,0,0-.12c-.07,0-.15.13-.18.08a.11.11,0,0,1,0-.15h0c.16,0,.4-.07.37.22a.87.87,0,0,1,.63.08.39.39,0,0,0-.13.35c.16-.33.07.05.29-.06.06-.2-.18-.22,0-.39.24,0,.53-.07.68.21.32-.22.63,0,.91-.19,0-.09-.11-.07-.06-.13s.1-.31.25-.22c0,.09-.1.19-.12.28s.32.13.47.22c-.11.08-.26.15-.22.26s.24,0,.33,0c-.06-.1.11-.13.09-.21-.15.11-.28.15-.35.08.18-.08.18,0,.2-.19.19,0,.43,0,.61,0a.23.23,0,0,1,.15-.28h0l.08,0c0-.18-.21.1-.24,0,.13-.17.35-.26.44,0-.15.15-.15.11-.13.24-.18.05,0-.22-.26-.09,0,.09.11.07.13.22.32,0,.78-.11.87.15.15-.06.11-.15.26-.21s.06,0,.08.06-.1.22,0,.16.76-.14.74.15c.19,0,0-.16.1-.2s.12,0,.18-.07c0,.16.11.09.22,0s0,.1,0,.15.17,0,.3-.07a.18.18,0,0,1,0-.19.39.39,0,0,0,.15.11c-.09.06-.11,0-.2.08.09.07.2.09.22.16,0-.25.24,0,.37-.22a1,1,0,0,0,1,.06c0,.18.06.09.17,0a.53.53,0,0,0,.67,0c0,.26.48,0,.57-.07s-.18-.06-.09-.09a.2.2,0,0,1,.24.07c-.06,0-.11.07-.07.15s.24.09.37.15c-.21-.32-.08-.58-.39-.43-.1-.17-.3-.13-.41-.28-.15.06-.15.21-.28.17,0,.11.19.07.06.17-.28-.1-.63-.17-.63-.45-.17.08-.06.22-.24.3,0-.28-.39-.09-.49-.11.1,0,.13.09.17.2.17-.15.41-.05.32.11-.25.09-.36-.09-.6,0l0-.13c.09-.11.2,0,.18-.11-.09.08-.07-.13-.11-.18-.35.2-.19-.28-.46-.24,0,.14.16.14.07.2a3.27,3.27,0,0,1-.54-.13c-.14,0-.09.13-.2.18A1.43,1.43,0,0,0,82,4.11c-.11.11,0,.3,0,.43s-.15,0-.23,0c.13-.17-.09-.17-.16-.17.13-.18-.08-.14,0-.24a.06.06,0,0,0,0-.07c-.19.06,0,.2-.19.26s-.13-.41-.32-.32a.16.16,0,0,1,0,.23h0c-.32.11-.28-.36-.32-.41S80.64,4,80.6,4s.24.18.17.3c-.37.07-.2-.26-.43-.41-.09,0-.07.11-.16.17l-.1-.26c.08-.06.23.11.26-.06-.13,0-.27,0-.35-.07a10.68,10.68,0,0,1,1.13,0c-.18-.31-1,.08-.94-.33-.06-.11-.17-.09-.26-.09s0,.11,0,.14c-.21,0-.45.08-.65.06,0,0,0,.11,0,.15s-.22.05-.26-.1.15,0,.26,0c-.15-.2-.26-.19-.3-.48-.22.11,0-.15-.39,0-.07-.32-.61-.15-.9-.19,0,.06,0,.11,0,.15s-.06,0-.12,0c.1-.17,0-.32-.18-.19s0,.1-.06.15c0-.11,0-.13-.07-.16s-.06.11-.09.16,0-.13,0-.2-.58.11-.61-.11c-.17.07,0,.2-.11.27-.19-.44-.56-.27-.84-.11,0,0,.06,0,0,.08.15,0,.24.29.1.48-.12-.09,0-.2-.19-.19.06-.09.11-.18,0-.29-.15.09,0,.22-.15.31s-.15.13-.26,0c-.06-.48-.56-.39-.78-.63.06.09.09.19,0,.26s-.26,0-.2-.22c-.28.18,0-.22-.22-.11.07.13,0,.22,0,.33s-.1,0-.11,0,.09-.16,0-.26c-.13.21-.23.06-.17-.11-.63.15-1.09-.31-1.56.13-.05-.18-.18-.07-.24-.26-.22.21-.29.08-.33-.13-.24,0-.35.17-.39-.09-.19.05.07.18,0,.26s-.16-.11-.28.11c0-.17-.13-.15-.22-.11s.06.11,0,.15c-.54-.23-1.33-.15-1.74-.47.17,0,.44.11.54,0-.06,0-.13,0-.08-.06s.26-.07.17.09c.2,0,.2-.26.13-.39-.26.15-.67.36-.63,0-.13.17-.15-.09-.26,0s.18.08.09.17-.18,0-.26-.08.08-.07.06-.11A.23.23,0,0,0,68.5,2h0s0,0,0,0,.13-.13.24,0c-.2.09,0,.26-.15.35,0-.07-.13,0-.2-.07a.73.73,0,0,0-.52-.78c.11.13-.11.17-.17.13,0-.22-.33-.06-.48-.06,0,.08.09.13.06.19-.19.09-.13-.32-.26-.26,0,.24-.17,0-.22,0s-.17.17-.21.24-.09-.06-.13-.13.21,0,.15-.13c-.17.09-.33.07-.24-.13-.15.06,0,.15-.11.2-.08-.25-.09,0-.21-.05a.29.29,0,0,1,0-.26c0,.18.26,0,.37,0-.09-.08,0-.15,0-.23s-.2.06-.26-.05.13-.13.25-.21c-.28,0-.34.12-.52.32-.13-.15-.34.13-.47.17s.06.22,0,.33c-.13-.06-.29,0-.42-.06s0-.27-.12-.2.15.11,0,.26c0-.2-.06-.07-.17-.09a1.1,1.1,0,0,1,0-.26s.22,0,.18-.09-.18.11-.24,0,.21,0,.15-.13-.07-.06-.07-.11a.3.3,0,0,0-.19.27c-.07,0-.18.06-.24,0-.11.09-.19.38-.3.27s.13-.22,0-.33c-.16.09.08.22-.09.33s-.48.06-.66-.16c0,.24-.21,0-.28,0s-.13.31-.26.24a2.52,2.52,0,0,0-.22-.47c0,.08-.12.13-.23.21s.21,0,.11.2c-.14,0-.44,0-.46-.18s.2.07.24-.1c-.24-.18-.68.1-.83-.13-.35.11-.58.37-.72.08-.08.09-.1.24-.21.15s0-.13.11-.19L60.33.89c-.09.35-.37-.13-.44.13.11-.09.15.05.09.15-.09-.08-.22.15-.3,0,.1-.19-.09-.08-.18-.2-.15.05,0,.14-.09.22s-.06-.08-.1,0,.32.11.19.39c-.13-.2-.48.18-.48-.2-.08.05-.06.13-.11.18-.08-.15-.26,0-.25-.2s.13.13.23,0c-.23-.19-.39-.09-.47-.35-.09.11,0,.22-.07.33.17-.2.3.09.2.22-.13-.13-.27-.07-.4-.16a.45.45,0,0,1,.14-.25C58.2.87,58.09,1,58,.89s-.08.17-.13.26c-.19-.3-.63,0-.82-.32,0,.12,0,.23,0,.34-.2.05,0-.24-.22-.15,0,.05.06.09,0,.15S56.63,1,56.64,1a.66.66,0,0,0,.28,0c0-.08,0-.15.1-.22-.19-.08-.41,0-.62,0s0-.24,0-.37c-.21.11-.08.11-.23.29.23.3.37.15.58.24-.17.08-.13.13-.26.23s.11.18,0,.4c.08-.07.28,0,.23.1s-.35-.06-.28-.24a.15.15,0,0,1-.22,0h0a.17.17,0,0,1-.08-.13c.1-.15.13.08.21,0s0-.1.07-.15c-.43-.26-1.35.28-1.3-.35a.08.08,0,0,0,.1,0s0,0,0-.07v0s-.24,0-.16-.07.29.11.42.26c.17-.28.26,0,.41-.1-.06-.14-.15,0-.2,0a.75.75,0,0,1,0-.26C55.64.32,55.7.15,55.53.3s.24.16.08.37c-.13-.23-.3-.34-.23-.48s.25,0,.21-.15a.12.12,0,0,1-.15,0V0c-.11.26-.39.06-.35.44C55,.22,54.57,0,54.38.22a.18.18,0,0,0,0-.15s-.09.08-.11,0a.32.32,0,0,0,0,.3,1,1,0,0,1,.48,0c0,.09.08.17,0,.26-.08-.24-.43,0-.61-.26.09-.09.15,0,.11-.18C54,.11,53.61.3,53.64,0c0,.17-.13.35-.28.11-.07.06,0,.11-.11.19s.13-.1.17.07c-.22.19.09.07,0,.19s-.17,0-.24,0c.13-.21-.11-.21,0-.41-.08.15-.34.31-.37.07-.06.08-.11,0-.17.11-.09.3.35.17.19.41.42-.17.68.08,1,.13-.16.24-.29-.13-.37.15-.13-.07-.13-.11-.13-.26-.22.13-.09,0-.13.22-.11-.07-.18,0-.13-.18-.2,0,0,.29,0,.44-.13-.11-.28.11-.43,0A1.87,1.87,0,0,0,52.73,1c.06.15.13.05.21.11s.09-.31,0-.26c.07,0,.06.24,0,.15A.39.39,0,0,1,52.81.8c-.11,0-.37.13-.35,0s.18,0,.29-.08c-.07-.18-.2,0-.2-.18-.09.31-.61.28-.57,0-.15.09-.1.28-.23.19s0-.13,0-.19,0-.09-.07-.17a1.48,1.48,0,0,1-.31.15,1.06,1.06,0,0,1,.46.61c-.13,0-.09-.13-.11-.22-.13.19-.23,0-.34.11.06.09,0,.17-.11.26-.11-.22-.26,0-.29,0s-.12-.13-.08-.18.22.09.19-.08c0,0-.23-.11-.17-.15a.14.14,0,0,0,.19,0,.12.12,0,0,0,0-.13c-.13-.24-.29,0-.37-.26-.07.06,0,.13,0,.19s-.39.07-.41-.15c-.24.22-.3-.07-.5-.11,0,0-.17.18-.15,0-.11.08,0,.15-.13.22,0-.24-.33,0-.46-.13,0,.08,0,.15-.08.23s-.05-.15-.15-.11a.17.17,0,0,1,0,.18c-.06-.18-.13.11-.19,0s.06-.15,0-.22c-.2.09-.39-.17-.59-.06a.17.17,0,0,1,0,.19c-.15-.17-.26-.19-.28,0-.2-.11-.46-.26-.59,0-.1-.15-.21,0-.3,0s-.11-.1-.15-.26c0,.15-.07.18-.18.15,0,.14.14.09.24.14-.1.15,0,.3.05.45-.13.05-.26.05-.29-.15-.19.06-.36.24-.54-.05-.11.05,0,.25-.09.18s0-.07,0-.11c-.26.26-.72,0-1.06.13C45,1,45,1,45.06.83c.06.17.11-.09.19.08s-.09,0-.06.07c.3.08.41-.13.69-.07-.08-.08-.22-.08-.06-.22-.11-.12-.18-.08-.24.09C45.51.7,45.19.52,45,.63c0,.06.11.11,0,.19S44.9.74,44.82.76l.1-.11A3.26,3.26,0,0,1,44,.59c-.11.08,0,.15-.11.23L43.79.7c-.08.06,0,.13,0,.19s-.11.06-.19-.06.09-.11.06-.14-.19-.06-.26.05.11.11,0,.19c0-.1-.11,0-.18-.13a.19.19,0,0,0,0-.19c-.17.32-.34,0-.5.08s.11.14,0,.22c-.37.24-.92-.19-1.37.28,0-.06.06-.13,0-.19s0,.09-.07.19,0-.1-.09-.19c-.08.07,0,.15-.11.22-.13-.11-.26,0-.39-.07a.21.21,0,0,0,0-.19s-.08,0-.13-.07c-.21.24-.36-.06-.5.07,0,.23.2.06.29.13s0,.08,0,.11a3.47,3.47,0,0,0-.64.06.4.4,0,0,1,.37-.15c-.08-.05,0-.13,0-.18-.2.24-.15,0-.3,0a.33.33,0,0,1-.26.25c0-.18.08-.18.11-.31-.07.13-.18,0-.25.2a.13.13,0,1,0-.25,0c-.24-.2-.46-.09-.68-.05s-.13-.32-.22-.24c.07.2-.12.05-.17.31-.24-.33-.54,0-.67-.39-.07.13-.18,0-.26,0,.15.43-.57.15-.74,0,0,.24.22.13.22.24s-.16.2-.24.22c.06-.2,0-.05-.13-.05a.4.4,0,0,0-.07-.3c-.11.11.07.19,0,.3s-.26.13-.21.39a4.52,4.52,0,0,0-.18-.47c-.06.19-.26.19-.33.34,0-.15.16-.34.16-.5-.22-.06-.22.5-.52.2.3-.09.23-.33.52-.46-.11,0-.39,0-.41.11,0,0,.06,0,.1,0a.41.41,0,0,1-.35.29c.05.11.12.11,0,.3-.07,0-.13.07-.2,0s.17,0,.06-.15c-.15.06-.23.19-.34-.07-.09.26-.41.2-.37,0L34,1.33c-.07-.18-.13-.07-.24-.11-.07.15,0,.24-.15.32-.13-.13-.28-.26-.44-.13.07.11.27,0,.26.18-.12,0-.15.13-.19.13-.2-.13-.26-.09-.39-.33-.26.26-.63-.33-.87.09,0-.09-.06-.13-.13-.13s0,.34-.15.32.08-.19,0-.26-.34.13-.48-.09c-.15.09.09.13,0,.22s-.35.11-.44-.13c-.11,0-.24.15-.37,0-.06.09,0,.18-.11.27-.13-.22-.19.12-.3,0a1,1,0,0,0-.09-.28c-.09.17.16.3,0,.48-.06-.07-.1,0-.15,0s0-.18-.06-.26c-.09.11.06.23-.09.24s-.08-.24-.06-.37c-.09.23-.05-.14-.15,0s0,0-.07.13.13,0,.09.09-.18,0-.29,0c.05-.14.15.08.18-.12-.18-.23-.31,0-.35-.3,0,.18-.07.18-.07.31a.34.34,0,0,1,.13.24c-.12,0-.36.19-.39-.05.09.09.22,0,.2-.19-.18-.11-.35,0-.56-.22-.13.21-.33-.07-.29.22-.17-.11-.26-.05-.37-.16,0,.24-.24,0-.3.15.11.12.17-.08.28.07-.19.28.18.05.15.28s-.19,0-.23.11c-.16-.22-.4-.24-.59-.45,0,.11.11.21.08.34s.24,0,.22.15c-.17,0-.35-.12-.48.11-.15-.08-.32-.26-.41,0-.2,0-.3-.5-.48-.26.15,0,.13.17.18.31-.28-.16-.66.08-.78-.18.08-.21.06.15.13-.06l-.16-.16c0,.22-.17.22-.28.24-.09-.28-.24-.11-.39-.24-.11.11-.07.2-.17.2-.2-.2.28-.35,0-.44,0,.24-.31.53-.51.46a.21.21,0,0,0,0-.19c-.1.1,0,.15-.08.24-.22,0-.22-.26-.35,0-.06-.08,0-.17-.07-.26-.1.09,0,.14-.08.24-.15-.13-.29-.19-.41,0-.13-.08.06-.21-.11-.28s-.18,0-.26,0c.1.06.13.13.1.2A4.89,4.89,0,0,0,21.18,2c0-.06,0-.11,0-.15,0,.17-.13,0-.18.08a.19.19,0,0,1,0,.18c-.15,0-.26.08-.43-.07-.06.07,0,.13-.06.2-.22-.24-.33.06-.53,0a.48.48,0,0,0,0-.12c.09,0,.16,0,.24-.07a.47.47,0,0,1-.37-.28c-.15.13.18.17.11.28-.39,0-1.15-.5-1.5-.26-.08-.17-.11-.07-.23-.07,0,.26.43.13.38.39a1.76,1.76,0,0,1-.91-.15c-.11.13,0,.2,0,0,0,.12.32.17.34.36A.87.87,0,0,1,17.47,2s0,.09,0,.15C17,2,16.64,2,16.14,1.5a.38.38,0,0,0,0,.33c.05-.05,0-.14.05-.13s.11,0,.09.13-.16.1-.27.06S16,1.78,16,1.7s-.11.25-.2.19-.11-.07-.1-.13.13,0,.15-.18a.39.39,0,0,0,.26,0c-.11-.13.17-.08.06-.21s-.08,0-.15.19c-.26.09-.41-.19-.61-.19.13.19.33.37.26.59s-.37-.22-.54-.16c-.07.24-.2.11-.31.13,0-.21-.36-.37-.36-.21.1,0,.26,0,.15.21-.11-.11-.17-.06-.26-.11s-.07-.12,0-.19a3.57,3.57,0,0,1-.48-.18c-.19.38-.39-.23-.56.22-.11-.11-.16,0-.26-.19a2,2,0,0,0,.3.63c-.37,0-.76.11-1-.37a.84.84,0,0,1-1-.26c.24-.44.87.35,1.06,0-.06.08.09.28.15.2a.15.15,0,0,1,0-.18c.18.07.37.54.61.41-.17-.24-.52-.71-.78-.69,0,.11.22.17.11.28-.24-.17-.41-.2-.61-.54a2.39,2.39,0,0,1-.48.24C11.14,1,11,1.09,10.9.74c-.1.11.11.19,0,.3s-.1,0-.1.2L10.47,1a.22.22,0,0,1-.26.08l0,0c0-.17.11-.06.15-.11a.3.3,0,0,1-.17-.28c-.09,0-.2-.08-.26.13s.15.17.06.29C9.82.89,9.64.7,9.47.52c-.08.33-.34-.3-.41,0s.15.07.15.24c0-.11.17.06.24,0s0,.13,0,.2L9.19.82c0,.27-.18,0-.28.16.28.19.54,0,.73.5-.23.15-.8-.52-.8.08-.08,0-.15-.06-.24-.15s.05-.11,0-.15c-.39.17-.87-.11-1.26.09,0-.07-.06-.11-.08-.18,0,.18-.18,0-.24.09.11.15.24.06.19.22a.93.93,0,0,1-.52,0c-.1.09,0,.15-.06.24s0-.11-.13-.16,0,.18-.07.27c-.13-.11-.13,0-.22-.18,0,.15,0,.29,0,.44-.13,0-.26-.16-.35,0L6,2.17s0,.05,0,.07a.11.11,0,0,1,.1-.11c.05,0,.11,0,.11.09v0a.61.61,0,0,1-.56-.11c0,.22-.15.08-.11.26,0-.09-.11-.17-.17-.07a.36.36,0,0,1,.1.44c.11,0,.24,0,.37.08-.06.11.13.18,0,.29a.59.59,0,0,0-.58-.26c0-.15-.15-.41-.29-.24.09.08.14,0,.24.15A.32.32,0,0,1,5.1,3c0-.06-.06-.28-.17-.2C5,2.84,5,3,4.91,3s0-.22-.2-.29,0,.31-.08.27-.15-.37-.24-.33.11.13.11.21c-.13-.1,0,.24-.11.12,0-.31-.37-.38-.52-.27a.61.61,0,0,1-.05-.3c-.08.11-.17.07-.17-.07-.06.11-.15,0-.2.11A1,1,0,0,0,4,2.76s0,.08,0,.11c-.52-.2-.78,0-1.33-.33,0,.15-.1.07-.13.18.2.24.51.21.74.58l0,.09c-.37-.2-.8-.63-1-.26C2,3,1.5,2.87,1.39,3.15a.1.1,0,0,0-.11-.09h0a.07.07,0,0,0-.06,0c.1.07.15.14.08.24s-.15,0-.19.18C1,3.43,1,3.48,1,3.34c0,0,.09.09.13.05C1,3.17.85,3.28.7,3.09c0,.47-.35.49-.55.69C.24,4,.07,4.1,0,4.22a1.68,1.68,0,0,0,1.15,1C1.13,5,1,5.1,1,5c.15-.13.3.16.46,0,.19.63.93.21,1.23.48.29-.29.81-.09,1,0-.07,0-.33-.11-.25.13.24.08.42-.07.63.15.18-.09.57-.15.64.09.15,0,0-.09,0-.2s.37.31.48.13C5.19,5.71,5,5.91,5,5.74s.37-.18.35.12a1.68,1.68,0,0,1,1-.1,1.08,1.08,0,0,0,.74.54,1.76,1.76,0,0,1,0,.46A.29.29,0,0,1,7,6.65a.25.25,0,0,0-.06-.29.62.62,0,0,1-.55,0c0,.08,0,.13,0,.21-.09-.19-.13,0-.26-.1s0-.09,0-.11-.07.13-.11.13c.13.1.44.21.41.41-.26,0-.45-.28-.63-.15s.13.15,0,.26S5.41,7,5.3,7.13c.09.08.18.15.15.24s-.26-.09-.34.19c0,0,0-.09-.09-.13a.34.34,0,0,1-.44.2c-.1.28-.26.19-.37.37.74.3,1.37.06,2.13.45.18-.17.42,0,.68.13.15-.22.5-.17.67.17-.19-.08-.43-.34-.56-.19.32.15.65.41.89.24,0,.19.21.22.3.21C8.23,8.89,8,8.8,8,8.65c.24,0,.35.41.63.49,0-.08,0-.13,0-.21s.39.17.28,0c0,0,.06,0,.09,0s.17.23.19.34a.11.11,0,0,1-.11,0C9,9.19,9.06,9.1,9,9c0,.22-.17-.11-.2,0,.13.21.13.08.29.21s-.07.26-.15.22c.12.11.24.2.19.33-.2-.22-.63-.7-.69-.35a.6.6,0,0,0-.27-.06.55.55,0,0,0,0-.18c-.06.09-.13.15-.21.11A5.87,5.87,0,0,0,5.45,9,5,5,0,0,0,6,9.43a2.35,2.35,0,0,1-.53,0c-.06.06-.08.28-.15.22-.09-.26-.26.13-.45-.09,0,.17-.13,0-.26.13.1.09.15,0,.24.09s0,.24-.11.26a4.74,4.74,0,0,0,1.19.74c.26.13.87.5,1.15.41a2.27,2.27,0,0,0,1.42.45A2.43,2.43,0,0,0,9.69,12a.19.19,0,0,1,0-.15c.15.11.43,0,.43.26l.11-.26a3,3,0,0,1,1.43.85c.16-.07.33,0,.44.23a1.17,1.17,0,0,1,1.37-.3c0,.07-.13-.07-.16,0s.16.15.24.33c.07,0,.15-.09.26.06.05-.15.15-.23.24-.21s.09.24.18.34A1.46,1.46,0,0,1,15.94,13c.09-.3.31.13.46.07,0,.43.57.15.48.63.59-.61,1.67.19,2.17,0a.94.94,0,0,0,.85.28,1.69,1.69,0,0,0,1.32.22c.39.23.57.21.92.41.06,0,0-.26.11-.2.06.33.41.29.58.31,0-.05-.13-.11-.11-.16a1,1,0,0,0,1.15.14c-.1,0-.56-.37-.5,0a3.24,3.24,0,0,1-.52-.33c0-.09.07-.06.11-.13s-.32.07-.35-.17c.18.06.46,0,.59.28.35-.46,1,.24,1.41-.07.13.15.24,0,.22.22,0-.17.09-.06.15-.09s-.09-.1-.08-.13c.23.2.39,0,.6.16,0,0-.23,0-.08.17.15-.24.19,0,.26,0-.15-.11.06-.07.08-.24.22.11.35.06.51.23-.11.07,0,.31,0,.14l.11-.2a9.06,9.06,0,0,1,1,.28c-.09-.11-.24,0-.19-.21a.74.74,0,0,1,.45.15.09.09,0,0,1,0-.15c.11.17.17,0,.26.08s0,.07,0,.11c.13-.19.18.11.26.07a.15.15,0,0,1,0-.18c.35,0,.65-.11.92.09.08-.09.15-.26.25,0,.05-.07,0-.13.05-.18a.35.35,0,0,0,.48,0l.06,0,.13.13c.92-.45,2,0,2.93-.28.22.13.4,0,.61,0l.11.13a.34.34,0,0,1,.48,0c0-.24.11,0,.22.06.56-.26,1.17.09,1.74-.06l.1.11c4.26,0,8.32.67,12.39.78,0,.06,0,.11.1.13h0a.08.08,0,0,0,.07,0c0-.07-.09,0-.07-.11s.09.13.18.15l.11-.15c.56.15,1,.13,1.5.26,0-.05,0-.15,0-.11l.09.15c1-.06,2.06.26,3.1.22a2.53,2.53,0,0,0,1.39.11c.14.19.35-.05.48.17.31-.22.54.17.85,0,.59.32,1.28,0,1.87.34l.13-.15c.45.26,1.11,0,1.47.28.22-.25.37.14.51-.12l.08.15c.18-.16.33,0,.54,0,.37,0,1-.11,1.09.15.89,0,1.72.24,2.63.2,0,0,0,.08,0,.12a2.51,2.51,0,0,1,1.5.14l.21-.18a.44.44,0,0,0,.53.07c0,.06,0,.1,0,.15s.29-.2.39-.09a2.58,2.58,0,0,0,1.4.15s0,.09,0,.16a4.52,4.52,0,0,1,1.74.15c.09-.05,0-.15.18-.2,0,.24.19.07.23.31.26-.24.33,0,.55-.16.15.24.65.13.93.22.17-.32.44.15.72,0,.06.09,0,.15,0,.22s.26-.2.3.06a1,1,0,0,1,.83,0c.15-.08,0-.24.17-.32a1,1,0,0,0,.65.47c.07-.15-.07-.08-.09-.23.13-.05.05-.16.18-.22.06.19.21.32.37.2,0,0-.22,0-.13-.14.17,0,.34,0,.41.22.09-.06.08-.13.19-.19.09.11.24,0,.18.28.32-.18.41.08.63.11,0,.1-.24.13-.15.24s.15-.31.28-.24c0,.11-.09.35.09.23,0-.08,0-.15,0-.19a1.68,1.68,0,0,1,.86.17s0,0,0,0c.22,0,.71,0,.63.2.08-.07.09,0,.13,0s0-.13.08-.18c0,.2.14,0,.11.18-.06,0-.11,0-.19,0,.06.24.32-.26.37,0,.15-.15.15,0,.28,0s-.13-.07,0-.16a.6.6,0,0,1,.59.24.54.54,0,0,1,.08-.19c0,.08.13,0,.15.08s-.06.11-.08.18a.36.36,0,0,1,.32,0c-.06,0-.13.21,0,.15.09-.31.2,0,.35-.09s0-.19.06-.26c0,.24.18.11.26.2-.19.13,0,.23.11.19a.23.23,0,0,1,.09-.33s0,.24.07.18c.12-.37.54-.15.69-.11-.06,0-.09.07-.07.13.2-.15,0,0,.14,0l.23-.13c-.06-.13.07-.19.11-.28-.22,0-.26.07-.34-.11-.26.22-.14,0-.44.18.11-.11,0-.24-.07-.22s0,.15,0,.19-.17.16-.19,0,.15-.25.13-.39c-.15.09,0,.27-.24.37,0-.28-.37.13-.35-.19.09-.09.26-.17.24-.28-.19.15-.19.13-.28.32-.09-.35-.42-.22-.68-.28,0,0,0-.07,0-.11s.08.07.19,0c-.06-.18-.28.15-.35.09s.09-.22,0-.2c.07.19-.09.09-.24.24-.08-.2-.72-.11-.63-.48-.15,0-.09.13-.15.19s-.39,0-.5-.17a.17.17,0,0,1-.06.22c0-.05-.13,0-.13-.18s.15-.1.17-.15-.09-.1-.22,0c0,.11,0,.2-.15.27-.06-.33-.57.13-.52-.29-.07,0-.11,0-.17.11,0-.19-.18-.06-.07-.17s.11,0,.13-.09c-.15,0-.37.11-.54.11.06,0,0-.09.08-.15s.09,0,.16-.07c-.24-.26-.77.11-.94-.3-.19.09,0,.06-.06.13-.26.08-.4-.07-.66,0-.08-.37-.67.19-.62-.26-.18.25-.22-.12-.48.13,0-.22-.18-.13-.27-.16-.12.26-.47.13-.47-.17-.13.06-.07.13-.13.2,0-.12-.2.12-.24,0s.08-.27,0-.2.09.17,0,.24-.14-.22-.26-.24c0,.15-.07.13-.18.19,0-.23-.2-.17-.24-.39.07,0,.11,0,.11-.13s-.07.05-.09,0,.15-.13.13-.21c-.3.13-.17-.15-.48.06,0-.13-.1-.15-.21-.08s.06.13,0,.19-.07,0-.09,0,.09-.17,0-.26c-.32.15-.54-.2-.89.22,0,0-.21,0-.09-.16s.16.09.2-.11c-.19.07-.5-.21-.56.2,0,0-.07,0-.09,0s.07-.17,0-.26a3.24,3.24,0,0,1-1.26-.2,4.41,4.41,0,0,1-1.41-.06s.07,0,.06-.11c-.41.3-.89-.07-1.34,0,0-.05,0-.13,0-.18-.33.09-.57,0-.91,0,0-.05.08-.09,0-.15-.2.21-.44.25-.44,0-.39.24-.62-.21-1,0,.08-.18-.22-.13-.16.06.09-.15.22,0,.15.13s-.12.13-.23.28c-.2-.12-.05-.43,0-.52a1.34,1.34,0,0,1-.69-.15c-.07.05-.06.11-.11.17-.52-.43-1.35-.12-1.82-.39-.15.11-.16.07-.28.16s0-.09,0-.14c-1,0-1.84-.28-2.82-.23,0-.18-.3-.11-.46.06-.11-.28-.3,0-.45-.09s-.76-.17-1-.26a.17.17,0,0,1-.05.18c-.21-.31-.5.06-.59-.24a.26.26,0,0,0-.1.19c-.07,0-.11-.1-.11-.19-.15.11-.11-.13-.17.15-.16-.11-.37,0-.51-.2,0,.05,0,.09,0,.14-.13-.13-.28,0-.39-.14.05,0-.11.24-.11.14s.07-.14,0-.22a.43.43,0,0,1-.61,0v0c-.13.19-.28-.05-.5-.07s-.47.2-.48,0c-.63.28-1-.22-1.65,0,0-.05.09-.09,0-.15s0,.06-.11.15c-.28-.3-.93,0-1.37-.26a.08.08,0,0,1,0,.11c-.28-.22-.57-.11-.87-.05-.35-.21-.8-.32-1.09,0-.08-.09,0-.2,0-.29-.11.2-.2-.08-.31,0s.11,0,.07.11-.13,0-.17-.19c-.66.22-1.31-.24-2,0,0-.09-.11-.17,0-.26,4.41.17,8.75.56,13,1S66.65,15,71,15.38a2.61,2.61,0,0,0,1,.07c.11.19.33.1.46.28.06,0,.19-.2.21-.11s.29.06.39,0,.37.29.5.11c-.08,0-.11-.11-.21-.08.34-.35.49.38.86,0,.14.39.89-.05.85.37.09-.09.11,0,.2-.11,0,.19.26.24.37,0,.23.07.35.35.67.24.07-.08-.06-.19,0-.26s.13.15,0,.24c.22.18.63,0,.81.24.06-.15.24-.11.17.07.09,0,.07-.11.11-.16s.35-.06.28.22h.33c.34-.34.72.2,1.21-.06.16.41.79-.11.9.37.15-.16.1.06.23-.05-.1-.22-.43-.17-.63-.34a.7.7,0,0,1,.09-.24c.09,0,.17,0,.17.17.18-.07-.06-.24.18-.3-.09.17.26.1.06.34.2-.11.18.15.33,0-.17.16-.06.18-.13.35.26-.15.32,0,.35.13.13,0,.08-.13.17-.19a.54.54,0,0,0,.57.06c-.16,0-.2-.15-.35-.15.13-.07.11-.2.3-.28-.08.15,0,.11,0,.26.09-.28.77-.26.75,0,.15,0,0-.15.17-.18,0,0,0,0,.06,0-.06.17,0,.26-.24.37.11,0,.16,0,.24,0-.11.13-.24,0-.26.15.18-.15.13.15.33,0,0-.19-.07-.17,0-.32s.15.11.3.06.16-.17.15-.28-.19-.18,0-.3,0,.25.13.21.28-.11.2-.26c.11,0,.24.13,0,.28.06-.23-.07,0-.18.11s0-.08-.06-.06,0,.13,0,.19.13-.17.3-.22c0,0,.07,0,.07.14s-.16,0-.18.12c.22,0,.31.16.59.05-.17-.15-.17-.28-.35-.43,0,0,0-.05.07-.09.19.09.32.3.54.35s.07-.11.13-.16,0,0,.06,0-.08.08-.08.13.22.15.34,0c.11.13.18.56.42.36,0,0-.09-.23-.24-.45.2,0,.22.33.5.21-.18.07-.09.24-.2.33.07,0,0,.09.15,0-.08-.09,0-.28.14-.39,0,.24.13.13.3,0,.15.37.44.18.67.39.13-.24-.24-.17-.1-.43.25,0,.25.33.63.06.08.18.26.16.41.22,0,.09-.07.17,0,.28s.13-.08.15,0-.15.15-.07.17.07-.21.07-.34c.17.06,0-.13.19-.18-.06.18,0,.28.15.09-.1-.11-.06-.26-.23-.24.06,0,.06-.06.1-.09s.13.18.24,0c-.13-.15-.41,0-.52-.23s.18-.09.18-.18c-.15.09-.11-.07-.27.05,0,.06,0,.12,0,.15s-.26-.2-.13-.33c-.13.11-.15,0-.28.11s.22,0,.2.15c-.24.05-.22,0-.51.18a.11.11,0,0,0-.06-.09c.09-.11.06,0,.19-.09a.22.22,0,0,1,.05-.17c0-.15-.15-.07-.17-.22.15-.15.24.07.23-.13-.15,0-.43-.11-.54,0,.09-.05.11.06.11.17-.3.13-.43-.19-.63-.06,0-.07,0-.13.13-.15,0-.18-.09-.18-.17-.22-.33.21-.52,0-.76-.2,0,.09.15.09,0,.2s-.13-.18-.26-.16,0,.16-.11.2l0-.17c-.3.17-.22-.31-.39-.37-.28.21-.48-.05-.33-.26,0,0,.09.24.15.06-.15,0,.13-.11.07-.19s-.24.08-.37.13c0,.22,0,.19.09.32-.31.05-.57-.06-.57-.26,0,.09-.22.13-.28.11.11-.26-.26,0-.31-.13s0-.33-.06-.3a.49.49,0,0,1-.19.3c0-.24-.27.15-.31-.17.11,0,.09-.07.11-.16-.15,0-.37-.13-.33.11a.51.51,0,0,0-.6-.28l0-.17c-.19,0,0,.19-.1.24-.18-.11-.18-.29-.46-.31.13-.11.11.05.24-.06-.15,0-.33-.26-.46-.09,0,0,.2.06.13.11s-.3,0-.33-.17c.07,0,.16.06.16-.11-.11,0-.18-.11-.22.1.07-.24-.09-.13-.15-.24a1.33,1.33,0,0,0,.32-.15c0,.11.09,0,.09.18.43-.41.52.28,1,0,.08.21.39-.05.43.21a1.77,1.77,0,0,1,.87.16c0-.07.15-.15.15-.24s.18-.05.2.06c.17-.08.19-.21.3-.32a.5.5,0,0,1,0,.32.48.48,0,0,0,.37-.13c0,.13,0,.18.07.18.08-.18-.11-.22,0-.35,0,.08.17.24.3,0,0,.11.09.09.12.15a.32.32,0,0,0-.09.33c.15-.09,0-.11.17-.22.07.18.28,0,.46.11,0-.19-.09-.19,0-.35-.09.05-.06-.13-.07-.19a.39.39,0,0,1-.32-.05c0,.13.17.09,0,.2,0-.2-.35.11-.23-.18a1.36,1.36,0,0,1-.66.11.21.21,0,0,1,0-.19c-.06,0-.11.06-.11,0-.17,0,0,.15-.12.21s-.18-.08-.09-.22c-.13,0-.11.13-.22.16s-.13-.26-.46-.05c0-.08.11-.13,0-.23s-.22,0-.07-.09c-.06,0-.23.08-.3,0-.18-.3-.59-.06-.81-.11,0-.17-.13-.35.05-.47,0,.12-.05.19,0,.21s0-.15.16-.19a4,4,0,0,0,1.34.13c0-.18-.15-.07-.19-.16s.19-.1.15-.24a.4.4,0,0,0-.13.13c-.11-.15-.07-.26-.2-.3.15.11-.06.15,0,.3.08,0,.17-.12.19-.08s0,.2-.15.28c.15-.28-.13,0-.19-.2.15-.08,0-.25,0-.28-.27,0-.76-.43-1-.21,0-.09.16-.14.09-.24-.3.24-.32.19-.52.17.11.07,0,.24.15.2a.15.15,0,0,1,.07-.15c0,.08.13.17.08.3-.06-.11-.52,0-.35-.44-.13,0-.19-.08-.32,0s.19.18,0,.31-.09-.25-.24-.18c.22-.32-.32-.19-.26-.41-.09.13,0,.09-.06.19s-.26,0-.18-.13c-.19.15-.13-.08-.28.13-.09-.08-.19-.17-.09-.34-.11-.07-.11.24-.23.15.08-.13.06-.24-.14-.18s0,.13-.06.18,0-.09,0-.18-.11,0-.18.07.18,0,0,.2-.3-.14-.15-.35c-.16.17-.42.28-.29,0-.11,0-.08.08-.17.15-.3-.2-.54-.09-.8-.35-.15.05-.11.15-.18.22-.17-.11-.15-.39-.35-.15-.06-.18-.23-.07-.21-.2,0,0,0,.09-.11.13,0-.13-.35-.48-.46-.17-.08-.18-.24-.31-.26-.48-.32.3-.74-.22-.71.15-.16.05,0-.24-.24-.09s.21,0,.06.16-.43,0-.28-.26c0,.06.24.08.24,0-.22,0-.46-.09-.65.06-.09-.09.13-.13,0-.22-.2.13-.13,0-.26,0a.63.63,0,0,0,.22-.26c.08.09.17.16.36,0-.08-.11-.24.07-.3-.09-.19.07-.28.37-.39.24s.06-.19,0-.3L74,9.62s0,0-.06,0A.36.36,0,0,1,74,10c-.15-.09-.09.07-.13.2-.19,0-.07-.16-.19-.26-.22.13-.57.08-.46-.27-.18.13,0,.29-.15.42a2.56,2.56,0,0,1,0-.39c-.15.06-.28.08-.36-.09-.14.09.06.26-.18.35l-.11-.29c-.1.24-.21.09-.39.2,0-.05,0-.09,0-.15-.21.1-.48.06-.46-.26-.1.19-.32.13-.28,0-.28.31-.3-.1-.5,0,0-.15,0,0-.1-.09a.32.32,0,0,0,.1-.13c-.08-.07-.13-.2-.26-.11,0,.11.24.06.09.24-.19-.13-.5.19-.69.09s-.09-.16,0-.31c.26-.15,0,.28.22.18-.08-.16.07-.29.09-.44-.13.22-.26.13-.41.17s0,.25-.11.35c-.05-.06.06-.26-.07-.21a.62.62,0,0,1,0,.19,1.71,1.71,0,0,0-.33-.17c-.19.26-.47-.05-.71.06.06-.06,0-.13,0-.19s-.17.1-.18,0c-.23.31-.28,0-.45-.06,0,.15-.13,0-.13.17s.09.18.19.16c-.15.28-.39.15-.52,0,.09,0,.15.1.28-.07-.23-.13-.51-.09-.71-.31,0-.06,0-.1.09-.13L67,8.56c-.15.09,0,.22-.17.32s-.14-.23-.37,0a.23.23,0,0,1,.32-.23c0-.22-.3.06-.24-.18-.19.16,0,.37-.28.52-.09-.17-.59-.06-.41-.54a.5.5,0,0,0,.35.18c0-.18-.16,0,0-.24-.24.1-.56-.14-.71,0,0,0,.08,0,.12,0-.12.13-.23,0-.12.22s0-.22.12-.09-.08.07-.06.22c.17,0,0,.22.26.22-.13.13-.2.06-.3,0s0-.3-.15-.21,0,.19,0,.26-.19-.07-.11-.24c.11.08.13-.22.24-.17-.06-.22-.21,0-.32,0s-.07-.12,0-.18.16,0,.25,0c0-.22-.09,0-.14-.2.14,0,.27,0,.42,0,0-.06,0-.11,0-.15s.17,0,.1.18c.18,0,.33-.07.39,0,0-.13.11-.11.11,0a1,1,0,0,0,.09-.13.25.25,0,0,1,.13.17c.2-.24.31-.08.43,0,0-.08.11-.13.11-.21.15.3.63-.13.65.28.13-.17.16,0,.24.07s.11-.16.2-.24c0,.32.43,0,.59,0s0,.13,0,.19a1.21,1.21,0,0,1,.38,0c.05-.13-.15-.12,0-.26.11.5.64.24.9.27,0,.08-.09.17,0,.26.13-.09.2,0,.31,0a.54.54,0,0,1,0-.31c.54,0,1.1.42,1.63.14-.07,0-.14,0-.18-.07.13-.05.07-.15.18-.2.06.29.25,0,.32,0s0,.16.06.27c.14-.18.18-.11.29-.18s0,.13,0,.18.3.23.38,0c-.06,0-.17.06-.21-.11.26,0,.13-.15.3-.33.09.11,0,.18,0,.26a1.58,1.58,0,0,0,.68.05c-.05.17.08.2.11.33.15-.07,0-.2.17-.27A.55.55,0,0,0,74,9c-.07.07-.13,0-.13.09s.15.11.08.2c.11,0,.16.1.29,0s-.09-.06-.14-.1c.14-.07,0-.13,0-.14a.36.36,0,0,0,.33-.13c-.07,0-.13-.1-.06-.13.25-.08.34.24.52.27,0-.11-.13-.22.06-.29,0,.22.13.52.31.33,0,.06-.18,0-.09-.09s.3,0,.41.13a.41.41,0,0,0,.18-.19c.1.1,0,.1.08.24.07-.05.11,0,.18-.07s0-.09.06-.15c.37-.07.48.24.74.35A1.43,1.43,0,0,1,77,8.91c.1.06.23,0,.26.17S77,8.89,77,9.14c.09.07.28,0,.48-.13.1.2-.15.11-.16.27.4-.09.63.19.87.3,0-.13-.11,0-.13-.11.15-.06,0-.17.18-.22.17.44.67.14,1,.31-.06-.09,0-.17.09-.2,0,.16.09.29.18.31a.26.26,0,0,1,.06-.15c.2.21.54.06.7.34a.18.18,0,0,1,.06-.19c.37.21.35.1.74.06a.18.18,0,0,1,0-.22c0,.22.15-.1.22.05a.34.34,0,0,1,0,.24c.09-.05.15-.07.2,0s-.11.09-.11.16c.24,0,.17-.09.39,0-.07,0-.24.09-.15.18.35-.22.76.09.78-.33.19-.06.24.15.39.15,0-.06,0-.11,0-.15.11.15.24-.13.35,0s-.19.3-.2.46c.16-.18.52-.26.42,0a7.21,7.21,0,0,1,1.39.15c.45.09.89.18,1.35.24,0-.19-.18,0-.22-.11s-.09-.09.06-.22c0,.05.09,0,.11,0s-.06.11,0,.21.09-.13.17-.19a.62.62,0,0,1,.2,0,.36.36,0,0,1-.07.18,1.42,1.42,0,0,0-.41.32c.11-.06.11.09.26,0,0-.07-.09-.19,0-.22.15.15.58-.15.65.16.13-.13.17-.11.11,0,.15-.13.21-.05.3-.07s-.2-.1-.26-.24c.33-.21.37.09.59.11.1-.21.23,0,.36-.1s-.08-.31.07-.4c0,.22.2.13.3.22s0,.13-.06.31a1.59,1.59,0,0,1,.37-.18c0-.13,0-.15.09-.33s-.24,0-.24-.17c-.39.15-.52-.06-.89,0,0-.35-.33-.09-.46-.22.06,0,.11-.07.08-.13-.15.09-.13-.07-.3.06s0,.22-.15.27-.06,0-.06-.05.17-.24.08-.43c-.17.09-.19.08-.22-.11a.24.24,0,0,0-.13.13c-.06-.06-.06-.2-.15-.2-.19.26.17.18.26.27-.09.08,0,.19-.17.23,0-.15-.24-.11-.31-.26-.15,0-.19.18-.23,0-.11,0-.09.13-.22.17,0-.15-.07-.13-.09-.25-.09,0-.2.25-.28.15.11-.11.24-.22.17-.39-.22.3-.17,0-.41.28,0-.22,0-.15-.11-.28.11-.05.26.15.35-.05-.15-.09-.37,0-.54-.08.15-.26-.37-.16-.48-.29.22-.1.71-.06.74-.37.08,0,.11,0,.13.11a.18.18,0,0,0-.11.16c.3-.05,0,.3.22.3,0-.09,0-.2,0-.26a.25.25,0,0,1,.17,0l0,.17c.13-.08.21,0,.34-.09,0-.21-.13-.12-.17-.24s.17-.06.21,0l0,.26c-.07,0-.13,0-.13.13a1.42,1.42,0,0,1,.59,0c-.09.71.89.06,1,.46a.4.4,0,0,1,0-.35c-.26.1-.65.24-.59,0a.25.25,0,0,1-.37,0h0c.11-.15.19,0,.28-.19,0,.34.41-.13.26.24.28-.2.35,0,.55,0,0-.11-.11-.1,0-.21,0,.1.17-.07.19-.09-.1.17.11,0,.09.24-.07,0-.13,0-.13.11.17,0,.22.13.46,0,0-.08,0-.15,0-.19s.06.19.17.3c.24-.24.31,0,.57-.26.08.11.32,0,.43,0s0-.17.05-.19.43-.13.23.08c.18,0,.09-.1.22-.21,0,.13.18,0,.22,0s-.09.07-.24.11,0,.06,0,.22c.13-.09.18-.07.16.06.1-.15.28,0,.28-.22,0,0-.24.22-.28-.06.26,0,.19-.15.38-.28,0,.24.33-.05.38.1C91,8.26,90.85,8.32,90.87,8.17Z"/><path class="cls-1" d="M84.2,5.87h0c.16,0,0,.3-.09.21s.11-.11.09-.21Z"/><path class="cls-1" d="M84.88,4.37h0c-.07.1.06.23.08.06a.25.25,0,0,1,.07.26c-.22,0-.15-.09-.29-.09C84.77,4.52,84.77,4.43,84.88,4.37Z"/><path class="cls-1" d="M83,4.28h0a.56.56,0,0,1-.44,0c.11-.17.33,0,.44,0Z"/><path class="cls-1" d="M82.38,4.19c0,.15-.24.11-.33.15,0-.12.29-.21.33-.15Z"/><path class="cls-1" d="M80,4.37h0c-.13,0-.19-.09-.26-.24.18-.11.2.09.26.24Z"/><path class="cls-1" d="M80,3.74h0c-.16.1-.2,0-.33.17,0-.17.06-.32-.09-.41.24-.26.24.17.42.24Z"/><path class="cls-1" d="M79.51,3.43c0,.13-.09.24-.09.37s-.17,0-.21-.13c.17-.08.15-.19.3-.24Z"/><path class="cls-1" d="M79.36,3.89c0,.21-.17,0-.29.09s.07.17.09.26a.23.23,0,0,1-.26-.13C79,4.08,79,4,79,4a.29.29,0,0,1,.37-.06Z"/><path class="cls-1" d="M79.18,3.71h0a.51.51,0,0,1-.32,0c0-.09.33-.28.32,0Z"/><path class="cls-1" d="M78.1,3.93c-.11.15-.2.18-.31.17,0-.19.14-.12.18-.23s-.18,0-.33,0,0-.16-.06-.13c.19-.22.47-.05.52.19Z"/><path class="cls-1" d="M77.14,3.85h0a.17.17,0,0,0,0-.14c.11-.08.18-.06.24,0a.48.48,0,0,1-.24.09Z"/><path class="cls-1" d="M77.53,3h0c-.15,0-.34,0-.47,0a.33.33,0,0,1,.47,0Z"/><path class="cls-1" d="M76.82,4h0c-.11.08-.26.22-.26,0,.11,0,.24-.17.26,0Z"/><path class="cls-1" d="M76.21,3.34h0c.11-.08-.13-.21.06-.26,0,.24.16.2.15.37-.17,0-.36,0-.45-.17.15-.15.15.09.24.06Z"/><path class="cls-1" d="M75.77,3.85c.11-.05.09.17.09.21-.15.05-.09-.13-.09-.21Z"/><path class="cls-1" d="M74.08,3.61c-.07-.09.06-.14,0-.22.15,0,.05.08.17.15-.06,0-.12,0-.19.07Z"/><path class="cls-1" d="M75.38,3.28h0c.11,0,.07.3-.11.39a.35.35,0,0,1,.11-.39Z"/><path class="cls-1" d="M74.88,3.15c.07.17.28,0,.35.19-.17.11-.2-.1-.33.13,0-.26-.1-.12-.21-.23a.34.34,0,0,0,.19-.09Z"/><path class="cls-1" d="M74.53,4.26h0c0-.09-.06-.18,0-.26l.09.21s-.07,0-.14,0Z"/><path class="cls-1" d="M74.6,3.28c-.19.22-.41-.15-.69.07.13-.39.52-.11.69-.07Z"/><path class="cls-1" d="M73.08,3.11c0,.06,0,.11,0,.17s-.17,0-.22-.11c.13-.13.15.05.24-.06Z"/><path class="cls-1" d="M71.56,3.06l.11.24a.57.57,0,0,1-.41-.19c.15-.16.17.13.3,0Z"/><path class="cls-1" d="M71.1,3.24c-.13.11-.19-.05-.26-.18.16-.11.2.11.26.18Z"/><path class="cls-1" d="M2,4.63c.06-.13.24.08.26.17A.25.25,0,0,1,2,4.63Z"/><path class="cls-1" d="M6.52,2.39c0,.11.06.11.11,0a.32.32,0,0,0,.1.13C6.69,2.63,6.41,2.52,6.52,2.39Z"/><path class="cls-1" d="M6.67,3.11c-.17.17-.46-.29-.61,0C5.89,3,5.8,2.59,6,2.48c0,.15-.07.32.1.45a.86.86,0,0,1,.09-.39c.09.09.17.17.2,0,.19.2.22.24.41.3s-.13.14-.24.09C6.56,3,6.74,2.93,6.67,3.11Z"/><path class="cls-1" d="M6.73,3.09c0-.09.13-.11.22,0s-.13.09-.22,0Z"/><path class="cls-1" d="M7.24,6.71c.1-.17.1,0,.23.07C7.41,6.91,7.26,6.82,7.24,6.71Z"/><path class="cls-1" d="M7.62,6.69c0-.26-.12-.2-.25-.22s0-.08.08-.06-.09-.13,0-.22c0,.07.17.31.22.26S7.69,6.67,7.62,6.69Z"/><path class="cls-1" d="M7.26,2.91h0c.11-.15.3,0,.45,0C7.6,3.09,7.43,3,7.26,2.91Z"/><path class="cls-1" d="M8,2.76c0-.13.11-.22.19-.07S8.08,2.65,8,2.76Z"/><path class="cls-1" d="M7.26,9.89c0-.09-.13-.18-.07-.29.09.13.15.07.24.15S7.32,9.84,7.26,9.89Z"/><path class="cls-1" d="M9.89,9.6c-.18-.28-.38-.32-.66-.48.28-.19.57.26.74.31Z"/><path class="cls-1" d="M10.1,9.56h0a.28.28,0,0,1,0-.22c.2.11.37.15.57.26C10.51,9.67,10.3,9.56,10.1,9.56Z"/><path class="cls-1" d="M11.06,1.19a.26.26,0,0,1,.17.07c-.13.22,0,.46.15.43-.08.18-.21,0-.32,0C11.23,1.52,11,1.39,11.06,1.19Z"/><path class="cls-1" d="M11.56,9.75h0c-.24-.13-.42-.08-.57-.15s-.21-.22-.13-.35a1.86,1.86,0,0,1,.72.35S11.58,9.69,11.56,9.75Z"/><path class="cls-1" d="M13.43,2.08a.39.39,0,0,1,.37.16C13.71,2.32,13.47,2.21,13.43,2.08Z"/><path class="cls-1" d="M19.72,2.09h0c-.1.12-.25-.11-.32,0,0-.2.19-.2.32,0Z"/><path class="cls-1" d="M19.34,2c-.11.13-.27.08-.4.11.11-.22.24-.22.4-.11Z"/><path class="cls-1" d="M18.9,2h0l-.07.13L18.68,2c.09,0,.13-.14.22,0Z"/><path class="cls-1" d="M21.49,14.14h0s-.09,0-.13-.11.1-.11.17,0a.19.19,0,0,0,0,.15Z"/><path class="cls-1" d="M21.61,14.3h0c0-.11-.08-.22,0-.35.11.19.11.17.22.34s-.13-.06-.2,0Z"/><path class="cls-1" d="M22.09,14.34c-.34-.33.2-.22-.08-.44.11-.13.19.13.24.22-.13,0-.11.06-.16.22Z"/><path class="cls-1" d="M22.44,14.21h0s-.07.06-.09.09a.39.39,0,0,1-.1-.38c.15,0,.19.31.34.31-.06.09,0,.17,0,.26s-.12-.2-.17-.28Z"/><path class="cls-1" d="M24.85,1.91s0,0,0,.05h0c-.11-.05-.18.13-.31,0a.18.18,0,0,1,.26-.07Z"/><path class="cls-1" d="M28.15,2c-.11.11-.11-.13-.24,0-.06-.26.25-.06.24,0Z"/><path class="cls-1" d="M28.48,2c-.11-.15-.22-.11-.24-.22s.17-.11.26,0,.07.13,0,.22Z"/><path class="cls-1" d="M31.37,1.74h0c-.06-.18.19-.13.24-.22.06.31-.15,0-.24.22Z"/><path class="cls-1" d="M32.45,1.82a.52.52,0,0,1-.38-.19c.06-.15.15-.11.23-.17.09.21.05.17.22.24Z"/><path class="cls-1" d="M33.72,1.67c-.11-.24.11-.11.19-.3v0c.05.15-.15.13-.19.28Z"/><path class="cls-1" d="M40.67,1.06h0a.13.13,0,0,1-.24.11c.08-.21.17-.08.24-.11Z"/><path class="cls-1" d="M40.93,13.36h0c-.07.07-.17,0-.24.07,0-.11,0-.22-.15-.31.11-.08.26.13.37,0,.1.13-.15,0,0,.28Z"/><path class="cls-1" d="M41.23,13.3c.05-.11.11-.07.18,0s-.13.06-.18,0Z"/><path class="cls-1" d="M41.54,13.34h0c-.07-.07,0-.15-.09-.24.11-.13.15.13.09.24Z"/><path class="cls-1" d="M42,13.47h0a.34.34,0,0,1,0-.2c-.07-.08-.13,0-.07.11-.12.09,0-.13-.1-.19s.13-.07.19-.13c.13.1,0,.23.15.32-.08.13-.13,0-.17.09Z"/><path class="cls-1" d="M43.14,13.56c-.13-.11,0-.31.11-.14Z"/><path class="cls-1" d="M74.71,17.9c.13-.07.24-.11.26.09C74.82,18.1,74.66,18.07,74.71,17.9Z"/><path class="cls-1" d="M72.15,17.64c.11-.15.1.07.13.15S72.08,17.73,72.15,17.64Z"/><path class="cls-1" d="M72.06,16.32c0-.07,0-.13.08-.2s.29,0,0,.19c0,.14.28,0,.19.14s-.15-.09-.3.1c0-.21-.17,0-.19-.19S72,16.38,72.06,16.32Z"/><path class="cls-1" d="M71.67,16.36c-.11.09-.15,0-.16-.11S71.67,16.23,71.67,16.36Z"/><path class="cls-1" d="M70.54,16.31c-.09.09-.13,0-.17-.06C70.5,16.1,70.58,16.18,70.54,16.31Z"/><path class="cls-1" d="M69.37,15.88c.08-.06.1,0,.17-.09,0,.11-.09.22,0,.35.13-.06,0-.19.06-.26s.27.19.33.33a.82.82,0,0,0-.52.3C69.43,16.25,69.36,16.16,69.37,15.88Z"/><path class="cls-1" d="M69,15.77c0,.05-.07.09-.05.15s.11-.06.16-.1c0,.25,0,.15.06.32-.17.05-.34.09-.45,0,.21-.2,0-.09,0-.28C68.89,15.6,68.93,15.81,69,15.77Z"/><path class="cls-1" d="M68,15.88h0c-.07,0-.17.11-.2,0s.18-.11.2,0Z"/><path class="cls-1" d="M66.84,15.84h0a.23.23,0,0,1-.34,0C66.58,15.64,66.76,15.73,66.84,15.84Z"/><path class="cls-1" d="M64.5,15.38h0c0,.13-.13.26-.15.09S64.43,15.42,64.5,15.38Z"/><path class="cls-1" d="M56.09,14.49h0c.07,0,.13.13.11.22a.15.15,0,0,0-.11.08c-.06-.11-.11-.21,0-.3Z"/><path class="cls-1" d="M54.68,14.42h0c-.11.16-.17-.06-.26,0C54.44,14.23,54.62,14.34,54.68,14.42Z"/><path class="cls-1" d="M47.84,13.79a.31.31,0,0,1-.09.18c0-.09-.07-.24-.15-.15,0-.16.17-.09.24,0Z"/><path class="cls-1" d="M47.42,13.75c0,.2-.17.15-.23,0a.62.62,0,0,1-.09.41c-.07-.11,0-.41-.15-.3.06-.27.34-.15.47-.07Z"/><path class="cls-1" d="M46.82,13.73c-.07.07-.13,0-.2,0-.09-.17.22-.24.2,0Z"/><path class="cls-1" d="M44.38.89h0c0-.06,0,.09.09,0,0,.11-.15.24-.2.13S44.45,1,44.38.89Z"/><path class="cls-1" d="M43.69,13.42h0c-.07-.08,0-.13-.07-.21s.17-.05.26.06c-.08.07-.13,0-.19.15Z"/><path class="cls-1" d="M44.53,13.29c0-.28.27,0,.39-.06,0,.28-.28,0-.39.06Z"/><path class="cls-1" d="M48.92,1.11c0,.22-.21.19-.3,0C48.71,1.13,48.83,1,48.92,1.11Z"/><path class="cls-1" d="M48.27.83a.19.19,0,0,1-.06.15s0-.07,0-.11S48.08,1,48,.8c.09-.08.17,0,.26,0Z"/><path class="cls-1" d="M47.88,1c-.11.15-.2,0-.3.07C47.57,1,47.81,1,47.88,1Z"/><path class="cls-1" d="M47.55,1.15c0,.05.05.05.09,0s0,.09,0,.14-.09,0-.15,0A.17.17,0,0,1,47.55,1.15Z"/><path class="cls-1" d="M47.44,1.32h0a.35.35,0,0,1-.47,0h0C47.12,1.32,47.27,1.15,47.44,1.32Z"/><path class="cls-1" d="M47.25,1h0c-.15,0-.33.09-.39-.17C47,.74,47.14.85,47.25,1Z"/><path class="cls-1" d="M46,1.54a.28.28,0,0,0,.09-.19c0,.1.15.19.3.21C46.29,1.74,46.16,1.67,46,1.54Z"/><path class="cls-1" d="M57.55,4.47c.1.29.08,0,.26,0,0,.06,0,.13,0,.19-.13.15-.46,0-.26-.22Z"/><path class="cls-1" d="M57.26,4.19h0c0,.28.11.13.18.37s-.09,0-.15,0c-.07-.13-.2-.28,0-.41Z"/><path class="cls-1" d="M56.68,5.06h0c-.09.11-.18,0-.24,0,.09-.09.17-.09.24,0Z"/><path class="cls-1" d="M55.64,1.39a.2.2,0,0,1-.27,0h0l0,0C55.46,1.32,55.55,1.22,55.64,1.39Z"/><path class="cls-1" d="M55.13.91A.66.66,0,0,1,54.68.8C54.85.67,55,.8,55.13.91Z"/><path class="cls-1" d="M54.16.63c.09.07.26.09.15.3,0-.19-.09-.23-.26-.11C54,.76,54.11.7,54.16.63Z"/><path class="cls-1" d="M53.9.37h0s-.09,0-.13.07,0-.14.08-.22L54,.41S53.94.39,53.9.37Z"/><path class="cls-1" d="M53.55,1h0c.07.15-.15.18-.22.11C53.42,1,53.48,1.19,53.55,1Z"/><path class="cls-1" d="M52.31.89h0c0,.06,0,.13,0,.18s.16,0,.16-.11.1.11.19.19a2.06,2.06,0,0,1-.48.07C52.09,1.06,52.14.85,52.31.89Z"/><path class="cls-1" d="M51.66,1.09s0,0,0,0a.06.06,0,0,0,0,.08c-.1.05-.19.09-.26,0a.15.15,0,0,1,.22-.06Z"/><path class="cls-1" d="M50.81.76a1.83,1.83,0,0,1-.15.52c0-.15-.11-.19-.19-.26s.1,0,.15-.11-.16-.09-.26,0c0-.18.32-.05.45-.11Z"/><path class="cls-1" d="M49.92.83h0s0-.07,0-.11.14.08.33.11a.51.51,0,0,1-.48,0c0-.07.07,0,.11,0Z"/><path class="cls-1" d="M50.2,1.35a.17.17,0,0,0-.13.08A.45.45,0,0,1,50.18,1c.15.12,0,.25,0,.4Z"/><path class="cls-1" d="M49.38.85h0s-.07,0-.13.08-.15-.17,0-.26,0,.07,0,.11,0-.13.09-.19c0,.19,0,.13.17.3L49.42,1c0-.05-.08-.11,0-.15Z"/><path class="cls-1" d="M49.51,1.17c0-.06.07-.13,0-.19.13-.07.24,0,.37-.07s0,.2.11.29a.38.38,0,0,1-.52,0Z"/><path class="cls-1" d="M54.22,1.24c0-.09.15-.22.2-.22s.06.13.08.18c.16-.16-.15-.33,0-.48h0c0,.11.19.24.08.45.09,0,.18-.3.24,0a.3.3,0,0,1,.41-.08h0a.19.19,0,0,1,.07.08c-.06.24-.3.07-.43.07.08.56-.48-.13-.66,0Z"/><path class="cls-1" d="M54.94,4.39c.15,0,.11.28.24.19h0c0,.31-.43,0-.24-.19Z"/><path class="cls-1" d="M58.28,5.17c-.06,0-.12,0-.12-.09h0c.1-.15.15,0,.21,0h0a.14.14,0,0,1-.09.13Z"/><path class="cls-1" d="M58.33,4.63l-.11-.18c0,.07,0,.15-.09.22,0-.24-.1-.24-.28-.17,0-.15-.06,0-.11-.18l.13-.15c0,.26.2.07.29.2.08-.2.32-.13.45-.09-.22,0-.09.17-.28.35Z"/><path class="cls-1" d="M59.31,4.52c.11-.17.26,0,.24.13S59.39,4.67,59.31,4.52Z"/><path class="cls-1" d="M60.29,4.48c0,.21-.16.15-.25.13s0-.13-.1-.26c.23-.14.17.32.35.13Z"/><path class="cls-1" d="M60.26,5.26c-.08,0-.17.06-.22-.09.11-.07.25,0,.22.09Z"/><path class="cls-1" d="M59.81,4.8c.19-.11.32.15.54-.15.09.08,0,.15.07.22-.18,0-.55.15-.61-.07Z"/><path class="cls-1" d="M63.15,4.21c-.15,0-.24.09-.24.27l-.08.08a.38.38,0,0,0,0-.19c.18-.16.26-.35.37-.16Z"/><path class="cls-1" d="M62.09,1.67A.13.13,0,0,1,62,1.8h0a.2.2,0,0,1-.13-.08C61.94,1.54,62,1.74,62.09,1.67Z"/><path class="cls-1" d="M62,2c-.1,0-.23.12-.28-.09.11-.09.18,0,.28.09Z"/><path class="cls-1" d="M61.52,1.67c.07-.15,0-.28,0-.34.32-.14,0,.45.22.65-.16.13-.27-.11-.42-.2.09-.11.18-.2.24-.11Z"/><path class="cls-1" d="M61.31,2.09c.17,0,0,.19.12.26-.1.11-.15.06-.21-.05s.13-.13.09-.21Z"/><path class="cls-1" d="M60.94,1.85c.1-.11.15-.05.21.06-.1.09-.17.05-.21-.06Z"/><path class="cls-1" d="M61.41,4.82c-.1,0-.15,0-.23-.09a.12.12,0,0,1,.17,0h0a.16.16,0,0,1,.06.13Z"/><path class="cls-1" d="M61.22,4.32c.13-.21.43,0,.65-.13-.06.37-.44,0-.65.13Z"/><path class="cls-1" d="M62,8.32h0c-.19.15-.15-.13-.21-.28.12-.11.23-.13.3,0-.18,0-.15.18-.09.33Z"/><path class="cls-1" d="M62.17,4.21c.18-.17.27.18.46,0,0,.34-.33,0-.46,0Z"/><path class="cls-1" d="M62.67,5.39c.07-.26.29,0,.42-.11-.05.2-.31.11-.42.11Z"/><path class="cls-1" d="M62.61,4.8c.19-.11.3,0,.48-.11,0,0,0,.16.08.11-.1.11-.43.18-.56,0Z"/><path class="cls-1" d="M87.09,16.49c-.21.19-.08-.17-.3,0,0-.06.08-.15,0-.13C86.85,16.27,87.11,16.29,87.09,16.49Z"/><path class="cls-1" d="M83,16.14c-.13.11-.15,0-.21-.06s.19-.14.21.06Z"/><path class="cls-1" d="M80.57,14.12c-.15.09-.17-.06-.26-.07C80.38,13.86,80.55,14,80.57,14.12Z"/><path class="cls-1" d="M81.86,11.84c.08-.07.19.11.1.19s-.12-.13-.1-.19Z"/><path class="cls-1" d="M81.59,11.88c.09.11-.13.11-.06.22s-.11,0-.13-.11Z"/><path class="cls-1" d="M78.71,16.19c.11,0,.24-.09.24.08S78.66,16.34,78.71,16.19Z"/><path class="cls-1" d="M81.18,12.3h0s.09,0,.13.11c-.15.1,0,.15-.1.3s0-.26,0-.41Z"/><path class="cls-1" d="M80.21,12.19c.26-.29.3.1.54,0-.09.19.09.19.11.32.13-.1.24-.15.24,0a.29.29,0,0,1-.29,0c-.1,0,0,.11.07.09-.13.17-.31-.07-.43-.15-.18.23,0-.09-.25.17-.17-.22,0-.44-.25-.56.15-.09.34,0,.26.15Z"/><path class="cls-1" d="M79.44,11.36c-.06.13-.25,0-.34,0,.08-.15.26,0,.34,0Z"/><path class="cls-1" d="M79,12.3c.07,0,.24-.09.33-.07s-.07,0,0-.07c-.16,0-.39-.08-.33-.32s.18.11.28.15l.22-.15c.13.15.5.11.33.5a.1.1,0,0,0,.08-.13h0c.2-.07,0,.2-.08.3,0-.24,0,0-.18.07-.09-.22-.41,0-.5-.24-.06.09-.09.11-.17.11s0-.29-.13-.11c0-.11.09-.26-.13-.3.21-.14.26,0,.3.26Z"/><path class="cls-1" d="M78.73,11.93l-.13.1c0-.17-.07-.19-.2-.06l0-.17c.13,0,.3,0,.37.13Z"/><path class="cls-1" d="M78.34,16h0c-.07.17-.33.17-.37.06.21-.15.24,0,.37-.06Z"/><path class="cls-1" d="M78.12,11.86c-.15.13-.26.13-.3,0C77.93,11.84,78.06,11.75,78.12,11.86Z"/><path class="cls-1" d="M77.29,11.54h0c.14.17.26,0,.37.24l.2-.14c0,.07.06.09.11.07-.09.15-.26,0-.35.15s.13.09.17.24a.94.94,0,0,1-.32.11.38.38,0,0,1,.09-.37c-.07-.09-.14-.18-.31-.07C77.19,11.67,77.3,11.62,77.29,11.54Z"/><path class="cls-1" d="M77.14,11.75h0c-.19.07-.08-.15-.22-.09,0-.21.22-.08.22.09Z"/><path class="cls-1" d="M76.9,16.07h0c-.13.05-.26.11-.3,0s.26-.13.3,0Z"/><path class="cls-1" d="M76.14,15.84c-.1,0-.26,0-.19-.16s.24,0,.19.16Z"/><path class="cls-1" d="M76.32,11.53h0c0,.27-.35.16-.4,0a.68.68,0,0,1,.4,0Z"/><path class="cls-1" d="M76,10.58h0c-.15.11-.13-.17-.28-.06C75.77,10.34,76,10.43,76,10.58Z"/><path class="cls-1" d="M75.69,11.4a.77.77,0,0,1,.21.14c-.15.06-.23,0-.21-.14Z"/><path class="cls-1" d="M75.29,11.58c0-.15,0-.09.14-.17l0,.13c-.09.12-.09,0-.18,0Z"/><path class="cls-1" d="M75.34,11.25s0,0,0-.08.07.08.09.13-.2,0-.24-.13.11,0,.13.08Z"/><path class="cls-1" d="M74.54,15.56c.12,0-.27.25-.24,0s.15,0,.24,0Z"/><path class="cls-1" d="M74.49,10.3a2.2,2.2,0,0,1-.58-.07A.49.49,0,0,1,74.49,10.3Z"/><path class="cls-1" d="M73.14,11.27h0c.09,0,0,.05,0,.16C73,11.58,73,11.36,73.14,11.27Z"/><path class="cls-1" d="M73.36,15.58c-.11-.07-.3,0-.39-.07.15-.06.43-.17.39.07Z"/><path class="cls-1" d="M72.75,9.88c0,.14.14,0,.16.18-.11-.05-.22.13-.31.13S72.6,10,72.75,9.88Z"/><path class="cls-1" d="M70.69,9.6h0a.24.24,0,0,1-.33-.06h0A.24.24,0,0,1,70.69,9.6Z"/><path class="cls-1" d="M69.62,10.91s0,0-.06,0l-.07.06c.05-.17-.1-.11-.12-.28.15-.09.26,0,.25.22Z"/><path class="cls-1" d="M65.8,8.49h0c.09.09,0,.14,0,.22C65.74,8.82,65.65,8.58,65.8,8.49Z"/><path class="cls-1" d="M70.84,3.11h0c-.11.21-.34.08-.47,0a.76.76,0,0,1,.47,0Z"/><path class="cls-1" d="M70.12,3h0c.09,0,.18,0,.22.11A.13.13,0,0,1,70.12,3Z"/><path class="cls-1" d="M70.15,4.34,70,4.43,70,4.26s.15-.07.18.08Z"/><path class="cls-1" d="M69.87,4.58h0c.1.09,0,.18,0,.26S69.69,4.65,69.87,4.58Z"/><path class="cls-1" d="M69,3.21h0c-.09.09-.17,0-.21-.08s.15,0,.21.08Z"/><path class="cls-1" d="M67.91,1.61c.09,0,.11.39.32.26a.2.2,0,0,1-.12.21C68.08,2,68,1.83,68,2c0-.2-.24-.2,0-.37Z"/><path class="cls-1" d="M68.15,4.21h0c0,.2-.2,0-.28,0,.11-.1.19,0,.28,0Z"/><path class="cls-1" d="M67.74,1.85c0,.21-.27.11-.37.15,0-.15,0-.09.13-.17s-.13-.05-.16-.2C67.56,1.52,67.63,1.74,67.74,1.85Z"/><path class="cls-1" d="M67.3,1.89h0C67.3,2,67.08,2,67,2a.66.66,0,0,0,0-.15C67.1,1.74,67.15,2,67.3,1.89Z"/><path class="cls-1" d="M67.15,2.54C67,2.63,67,2.43,67,2.33s.1.15.17.21Z"/><path class="cls-1" d="M66.82,1.83l.05.12c-.18,0-.39.05-.53-.06C66.5,1.82,66.63,1.91,66.82,1.83Z"/><path class="cls-1" d="M65.93,1.37a.38.38,0,0,1-.11.33c-.1-.09,0-.18,0-.25s0,.22-.19.27,0-.26-.18-.31C65.63,1.2,65.76,1.39,65.93,1.37Z"/><path class="cls-1" d="M65.87,3.22c-.11-.05-.24,0-.33-.11S65.89,3.13,65.87,3.22Z"/><path class="cls-1" d="M65.52,1.85c.11-.07.19.06.28.11A.19.19,0,0,1,65.52,1.85Z"/><path class="cls-1" d="M65.09,1.8c.17,0,.19.16.3,0l0,.08c-.11.13-.15-.06-.28.11a.38.38,0,0,1-.06-.22Z"/><path class="cls-1" d="M65.39,4.11h0c.07.21-.2.15-.17.21A.34.34,0,0,1,65,4.19,2.48,2.48,0,0,0,65.39,4.11Z"/><path class="cls-1" d="M64.61,4.41h0c0,.24-.15.15-.22.09C64.39,4.28,64.52,4.58,64.61,4.41Z"/><path class="cls-1" d="M63.41,4.22c.31-.12.57.25.87-.14-.09.26,0,.26,0,.42-.2.13-.24-.11-.33.19-.07-.09,0-.17.09-.26a2.6,2.6,0,0,1-.68-.21Z"/><path class="cls-1" d="M63.52,8.52c0-.18-.19-.14-.17-.31s.19.09.26.22Z"/><path class="cls-1" d="M63.74,8.52c.08-.2-.09-.09-.09-.26s.22.17.09.26Z"/><path class="cls-1" d="M65,8.32c-.06.11,0,.22,0,.33s-.13.1-.19.06.09-.17,0-.26-.06.17-.17.2c0-.14-.09-.05-.13-.16.11-.15.17-.1.26-.13-.07-.23-.26.05-.33-.15-.15.09-.13.26-.26.24s0-.09.13-.17c-.08-.22-.26.17-.32-.11a2.4,2.4,0,0,1,1.19,0c-.09,0-.17.15-.22.11Z"/><path class="cls-1" d="M65.8,5.21c-.06-.08.13-.37-.06-.23,0,0,0-.05,0-.07l0-.07a.25.25,0,0,0,.17-.1c.07.13,0,.26.15.39C65.93,5.24,65.87,5.17,65.8,5.21Z"/><path class="cls-1" d="M65.35,4.56c0,.09,0,.22-.16.2,0-.22-.06-.13-.28-.09,0-.17-.19-.15-.15-.28s.28,0,.17.09c.11,0,.15-.11.16.1,0-.06,0-.13.08-.19s.13,0,.11.21a.48.48,0,0,0,.13-.28.57.57,0,0,0,.68.15.47.47,0,0,1-.64.16l-.1-.07Z"/><path class="cls-1" d="M66,2c0-.05.11-.11.07-.18s.13,0,.19.13c-.11.13-.17,0-.26.05Z"/><path class="cls-1" d="M66.52,4.69h0c-.15,0-.11-.11-.18-.24a1.54,1.54,0,0,0,.24,0c0,.07-.1.13-.06.22Z"/><path class="cls-1" d="M66.26,4.28c0-.07.08-.11.13-.17.06.17.17,0,.3.15-.19.19-.28,0-.43,0Z"/><path class="cls-1" d="M66.8,4.26h0c.07-.11.24,0,.2-.13a.21.21,0,0,1,.17.21c-.13,0-.28.07-.37-.08Z"/><path class="cls-1" d="M67.91,5.86l-.07-.17c.09-.09.14-.06.18,0Z"/><path class="cls-1" d="M68.43,5a.59.59,0,0,1-.07-.39.65.65,0,0,0-.71,0l-.11-.2c-.13,0-.35.48-.52.28.08-.06.11-.06.15,0,.15-.26-.2-.19-.32-.19,0-.11.47-.22.41,0,.19-.17,0-.46-.15-.39.08-.22.28,0,.41-.07,0,.09-.07.07-.11.09s.19.11.28.22c.09-.06-.06-.15-.06-.24.22.07.47.46.74.17a1.66,1.66,0,0,0,.3.61c-.15.18-.13-.21-.24.07Z"/><path class="cls-1" d="M68.61,5.21h0l.15-.13s0,.24.08.16c0,.17-.19.1-.23,0Z"/><path class="cls-1" d="M68.67,4.26c.09,0,.17.06.26,0h0c0,.19-.2.11-.26,0Z"/><path class="cls-1" d="M68.89,5.06l0,0h0c.17,0,.24-.31.34-.11a.25.25,0,0,1-.32.13Z"/><path class="cls-1" d="M69.32,4.74h0c-.06-.13-.17-.09-.24-.14s0,.2-.15.27,0-.18-.06-.35c.17-.09.26.09.45-.09.11.11.15.22,0,.31Z"/><path class="cls-1" d="M69.26,4.22h0c0-.09.21-.24.21,0S69.34,4.19,69.26,4.22Z"/><path class="cls-1" d="M69.73,5.08c0-.15.22.07.35-.08,0,.32-.26.11-.35.08Z"/><path class="cls-1" d="M69.86,4.91c0-.09.13-.18.14-.28s0,.21.08.28c-.09,0-.19.11-.22,0Z"/><path class="cls-1" d="M71.49,8.58h0c-.08-.11-.19-.07-.24-.22.18-.19.24.05.37,0s0,.14-.13.2Z"/><path class="cls-1" d="M72.28,6.26c0-.22.32-.52.43-.27A.67.67,0,0,0,72.28,6.26Z"/><path class="cls-1" d="M73.45,5.32c.17-.11.3-.22.45-.11,0,.09-.08,0-.13.09s.14,0,.18.18-.09.23-.18.19c0-.2,0-.22-.12-.41-.07.08,0,.17-.16.24s0-.13,0-.18Z"/><path class="cls-1" d="M73.64,5.76h0a.63.63,0,0,1-.56-.16c.24-.1.65-.17.56.16Z"/><path class="cls-1" d="M73.12,5.15c-.17.09-.19.3-.28.11S73.08,5,73.12,5.15Z"/><path class="cls-1" d="M72.93,5.73l-.09-.21c.13-.18.09.17.18.08s0,.07-.09.13Z"/><path class="cls-1" d="M73,8.28h0c.15,0,.31,0,.39.19-.17,0-.32,0-.39-.19Z"/><path class="cls-1" d="M73.6,6.08a.53.53,0,0,1-.15.15c0-.23-.09,0-.15-.23.17-.11.26-.09.3.08.18-.19.2.11.37,0C73.91,6.23,73.64,6.28,73.6,6.08Z"/><path class="cls-1" d="M74.12,5.74c-.08,0-.19,0-.21-.11.13-.13.26,0,.21.11Z"/><path class="cls-1" d="M74.36,5.56h0c.11,0,.18,0,.24.15C74.45,5.82,74.45,5.58,74.36,5.56Z"/><path class="cls-1" d="M74.75,5.71h0A.38.38,0,0,1,75,5.6c0,.11-.22.29-.24.11Z"/><path class="cls-1" d="M75.49,6.37h0c-.06-.18-.11-.13-.22,0-.06-.14,0-.14-.1-.24.1,0,.15,0,.28-.09.06.07.15,0,.19.19a.66.66,0,0,1-.15.14Z"/><path class="cls-1" d="M76.1,8.86c-.11,0-.15-.28-.33-.11a.26.26,0,0,1,.35-.13.15.15,0,0,1,.11.11C76.19,8.88,76.1,8.76,76.1,8.86Z"/><path class="cls-1" d="M76,6.86h0c.11-.1.18-.12.22,0C76.08,6.93,76,7,76,6.86Z"/><path class="cls-1" d="M76.42,6.39c-.12.08-.06,0-.08,0-.2-.06-.42,0-.42-.28.18,0,.25.2.46.09a.35.35,0,0,1,0,.24Z"/><path class="cls-1" d="M76.23,5.6c0-.12.24-.15.26,0-.15.09-.17,0-.26,0Z"/><path class="cls-1" d="M76.56,5.65c-.11,0-.07-.22.08-.26.07.11-.13.17-.08.26Z"/><path class="cls-1" d="M76.77,8.67h0c.13-.09.2-.11.22,0S76.79,8.78,76.77,8.67Z"/><path class="cls-1" d="M77.36,5.69h0c.13,0,.26,0,.32.11-.17.09-.25,0-.32-.11Z"/><path class="cls-1" d="M78.53,9c0,.15.11.07.11.22s-.33-.11-.11-.22Z"/><path class="cls-1" d="M78.6,6.15h0c0-.28-.18-.09-.24-.24.15-.09.2,0,.37-.15a.62.62,0,0,0,.09.3c-.11.09-.13,0-.22.09Z"/><path class="cls-1" d="M79.08,6h0c.23-.17.26.12.49,0,0,.24-.54.16-.49,0Z"/><path class="cls-1" d="M80.44,9.51a.33.33,0,0,1,.16-.15c0,.18.19,0,.21.2C80.6,9.69,80.53,9.58,80.44,9.51Z"/><path class="cls-1" d="M80.7,8.56c0-.11.33-.17.35,0-.17.09-.24,0-.35,0Z"/><path class="cls-1" d="M87.74,9.82h0c-.06.2-.15,0-.24.07,0-.22.13-.07.24-.07Z"/><path class="cls-1" d="M87.09,9.78c.13,0,.09.13.24,0,0,.07,0,.13,0,.18l-.15.08c0-.19-.07,0-.22-.08C87,9.88,87.09,9.86,87.09,9.78Z"/><path class="cls-1" d="M87.14,10.51h0a.39.39,0,0,1-.53-.13s0,0,0,0c.22,0,.35.13.55.17Z"/><path class="cls-1" d="M86.85,10.1h0c-.17.11-.19,0-.28-.09.17-.1.28-.12.28.09Z"/><path class="cls-1" d="M85.94,9.75h0l-.13.07c0-.05,0-.11,0-.17s.19-.07.17.1Z"/><path class="cls-1" d="M84.35,7.41h0l0,.17c-.11.07-.2.09-.22,0s.11-.11.19-.15Z"/><path class="cls-1" d="M84.23,7h0c.08.13-.18.14-.18.26s.17,0,.22,0-.15.06-.22.13L84,7.17c.17,0,.12-.22.24-.18Z"/><path class="cls-1" d="M81.42,7.65h0c-.08.06-.09,0-.15,0l-.11-.32a.2.2,0,0,1,.26.12A.22.22,0,0,1,81.42,7.65Z"/><path class="cls-1" d="M81.7,7.73h0c-.3,0-.06-.34-.19-.6-.11-.07-.3.06-.39,0,.15-.21.3.07.28-.17.17,0,.26.15.41,0,0,.07.16,0,.11.18C81.59,7.1,81.59,7.56,81.7,7.73Z"/><path class="cls-1" d="M81.86,8.08c.11,0,.26-.08.28.11C82,8.21,82,8.13,81.86,8.08Z"/><path class="cls-1" d="M81.92,9.69c.17,0,.3-.07.35.08-.18.12-.3.11-.35-.08Z"/><path class="cls-1" d="M82.42,8.21h0c0-.09.11-.15.18-.22l0,.16c-.11.13-.09-.05-.22.06Z"/><path class="cls-1" d="M83,6.3h0c0,.09-.09.17-.2.22,0-.13.15-.24.2-.22Z"/><path class="cls-1" d="M83,9.41h0c-.06-.09.06-.15,0-.24a.14.14,0,0,0-.07.15c-.09.06-.13-.06-.15-.15s.07-.11.06-.18L83,8.88c0,.09-.09.14-.09.24S83,9,83.12,9C83.1,9.14,83.22,9.32,83,9.41Z"/><path class="cls-1" d="M82.94,6.67c-.19,0,0-.2.09-.26s.2,0,.39-.13c0-.11-.19.08-.19-.09s.19,0,.13-.13a1,1,0,0,1,.34,0c0-.06,0,0,0-.13a.22.22,0,0,1,.26-.06c-.13.17,0,.08.06.23a.33.33,0,0,1-.17.14c0,.06.15,0,.17,0s0-.13.11-.16c0,.31,0,.5-.3.63,0-.08.13-.09.11-.17s-.22,0-.39.13c-.07-.13-.29.07-.31-.17-.13.15-.26,0-.26.17Z"/><path class="cls-1" d="M83.72,7.6c0,.05-.1.07-.08.15-.22.11-.26-.19-.42-.21.22-.09.27.13.5.06Z"/><path class="cls-1" d="M83.22,8.47h0c.2,0,0,.2.16.24C83.16,8.76,83.16,8.67,83.22,8.47Z"/><path class="cls-1" d="M83.77,9c-.17,0-.18-.23-.35,0,0-.3.43-.36.35,0Z"/><path class="cls-1" d="M83.9,7.84h0c.17,0,0-.15.17-.19s.11.17.05.26-.2,0-.22-.07Z"/><path class="cls-1" d="M85,9.71c-.16.11-.16,0-.2-.17.13-.11.09.13.2.17Z"/><path class="cls-1" d="M84.55,9.19h0c.15-.15.07.11.22,0,0,.09-.13.13-.11.21l0,.13-.15.07c-.07-.13,0-.24,0-.39Z"/><path class="cls-1" d="M84.44,8.93a1.35,1.35,0,0,1-.33.09l-.06-.2c.09,0,.15-.09.11-.17a.69.69,0,0,0,.28.28Z"/><path class="cls-1" d="M84.35,7.13c.24,0,.33,0,.59-.2h0c.11.07.3,0,.3.32a.7.7,0,0,1,.13-.32.3.3,0,0,1,.22.06.39.39,0,0,1,0,.26c.15,0,0,.12.22,0a.54.54,0,0,1-.74,0c0,.13,0,.19-.24.13a.21.21,0,0,1,.11-.16c-.2,0-.57.09-.55-.12Z"/><path class="cls-1" d="M84.94,7.58h0c0,.18-.24.18-.26,0s.15,0,.26,0Z"/><path class="cls-1" d="M84.44,8.06c0-.17.3-.17.31,0-.16.1-.22,0-.31,0Z"/><path class="cls-1" d="M85.07,8.08c-.19,0-.26,0-.32-.2.1.12.36,0,.45.09-.09,0-.15,0-.13.11Z"/><path class="cls-1" d="M85.22,8.08h0c0-.2.4,0,.31-.28.11-.09.11,0,.21,0a.59.59,0,0,0-.13.32L85.7,8c-.19.28-.32,0-.48,0Z"/><path class="cls-1" d="M85.66,8.36l0-.17c.19-.13.1.07.17.06a.21.21,0,0,1-.13.11Z"/><path class="cls-1" d="M86.59,8.58h0c0-.15,0-.3-.13-.13a.21.21,0,0,1,0-.28c.2-.09.35.24.15.41Z"/><path class="cls-1" d="M87.72,8.21h0c0-.22-.24,0-.24-.13.18,0,.44-.39.52-.08-.17,0-.15.15-.28.21Z"/><path class="cls-1" d="M88.92,8.1h0c-.16.05-.09-.22-.26,0-.11-.24.39-.21.26,0Z"/><path class="cls-1" d="M89.44,8.26h0c-.15.1-.17,0-.18-.14s.11,0,.2-.06,0,.15,0,.2Z"/><path class="cls-2" d="M19.55,10.29H17.7a1.48,1.48,0,0,1-1.12-.45,1.79,1.79,0,0,1-.42-1.29V6.17a1.75,1.75,0,0,1,.45-1.29,1.46,1.46,0,0,1,1.1-.46h1.84c.22,0,.33.12.33.35s-.11.35-.33.35H17.78a.85.85,0,0,0-.67.28,1.1,1.1,0,0,0-.24.74V8.57a1.13,1.13,0,0,0,.23.74.82.82,0,0,0,.65.28h1.8c.22,0,.33.11.33.34S19.77,10.29,19.55,10.29Z"/><path class="cls-2" d="M22.76,10.29H20.92c-.24,0-.35-.12-.35-.36V6.58a.41.41,0,0,1,.07-.28.38.38,0,0,1,.28-.08h1.85a1.19,1.19,0,0,1,.84.29,1,1,0,0,1,.33.79,1.06,1.06,0,0,1-.11.45.82.82,0,0,1-.35.34.91.91,0,0,1,.61.93,1.16,1.16,0,0,1-.39.94A1.4,1.4,0,0,1,22.76,10.29Zm-.12-3.4H21.28V7.8h1.45a.49.49,0,0,0,.34-.14.42.42,0,0,0,.14-.33A.37.37,0,0,0,23.06,7,.6.6,0,0,0,22.64,6.89Zm.06,1.55H21.28V9.59h1.44a.74.74,0,0,0,.48-.15A.54.54,0,0,0,23.38,9a.51.51,0,0,0-.18-.38A.67.67,0,0,0,22.7,8.44Z"/><path class="cls-2" d="M27.57,8.74H26.5l-1,1.43a.34.34,0,0,1-.29.17.4.4,0,0,1-.27-.09.28.28,0,0,1-.11-.22.45.45,0,0,1,.08-.22l.82-1.12a1.07,1.07,0,0,1-.91-1.15,1.21,1.21,0,0,1,.4-1,1.46,1.46,0,0,1,1.05-.37h1.67a.3.3,0,0,1,.35.35V10c0,.23-.11.34-.35.34a.31.31,0,0,1-.35-.34Zm0-1.85H26.2a.72.72,0,0,0-.51.18.59.59,0,0,0-.21.47.57.57,0,0,0,.17.41.63.63,0,0,0,.5.17h1.42Z"/><path class="cls-2" d="M30.9,6.92H29.49a.29.29,0,0,1-.22-.09.37.37,0,0,1-.09-.26.36.36,0,0,1,.09-.26.32.32,0,0,1,.23-.09H31a1.12,1.12,0,0,1,.85.32,1.09,1.09,0,0,1,.3.78.85.85,0,0,1-.42.84,1,1,0,0,1,.45.89,1.21,1.21,0,0,1-.33.91,1.08,1.08,0,0,1-.82.33H29.31c-.21,0-.31-.11-.31-.34s.1-.35.31-.35h1.56a.51.51,0,0,0,.42-.16A.66.66,0,0,0,31.42,9a.55.55,0,0,0-.15-.4.51.51,0,0,0-.37-.15H29.59c-.2,0-.3-.11-.3-.32s.1-.33.3-.33H30.9a.46.46,0,0,0,.51-.47A.42.42,0,0,0,31.27,7,.62.62,0,0,0,30.9,6.92Z"/><path class="cls-2" d="M36.51,7.74V9.9a.44.44,0,0,1-.09.27.3.3,0,0,1-.25.12H34a1,1,0,0,1-.78-.33,1.18,1.18,0,0,1-.32-.88V9a1.13,1.13,0,0,1,.31-.8A1.11,1.11,0,0,1,34,7.83h1.77V7.68a.73.73,0,0,0-.22-.56A.84.84,0,0,0,35,6.91H33.78a.29.29,0,0,1-.28-.32.36.36,0,0,1,.09-.26.24.24,0,0,1,.19-.1H35a1.54,1.54,0,0,1,1.13.39A1.51,1.51,0,0,1,36.51,7.74Zm-.72.75H34.2a.78.78,0,0,0-.44.12.44.44,0,0,0-.19.39v.06a.48.48,0,0,0,.18.4.69.69,0,0,0,.45.13h1.59Z"/><path class="cls-2" d="M40.17,6.92H39.11V10c0,.24-.12.35-.36.35a.38.38,0,0,1-.27-.07A.43.43,0,0,1,38.4,10V6.92H37.34A.3.3,0,0,1,37,6.58q0-.36.33-.36h2.83q.33,0,.33.36A.3.3,0,0,1,40.17,6.92Z"/><path class="cls-2" d="M41.72,7.78H43a1.58,1.58,0,0,1,1.06.32,1.17,1.17,0,0,1,.37.93,1.17,1.17,0,0,1-.38.93,1.61,1.61,0,0,1-1.09.33H41.36c-.24,0-.35-.12-.35-.36V6.54a.34.34,0,0,1,.08-.26.51.51,0,0,1,.55,0,.37.37,0,0,1,.08.26Zm0,1.81h1.35c.46,0,.69-.19.69-.56a.53.53,0,0,0-.17-.4.65.65,0,0,0-.48-.16H41.72Z"/><path class="cls-2" d="M47.9,10.29H46.7a1.64,1.64,0,0,1-1.15-.39,1.44,1.44,0,0,1-.43-1.13v-1a1.48,1.48,0,0,1,.43-1.14,1.6,1.6,0,0,1,1.13-.41h1.18a.3.3,0,0,1,.19.1.37.37,0,0,1,.09.27.33.33,0,0,1-.09.25.23.23,0,0,1-.19.1H46.71a.88.88,0,0,0-.63.22.83.83,0,0,0-.24.64v.94a.82.82,0,0,0,.24.63.93.93,0,0,0,.63.22H47.9a.27.27,0,0,1,.2.09.36.36,0,0,1,.09.26.32.32,0,0,1-.1.25A.24.24,0,0,1,47.9,10.29Z"/><path class="cls-2" d="M51.48,8.74H50.4l-1,1.43a.34.34,0,0,1-.3.17.44.44,0,0,1-.27-.09.31.31,0,0,1-.11-.22.83.83,0,0,1,.08-.22l.83-1.12a1.07,1.07,0,0,1-.91-1.15,1.21,1.21,0,0,1,.4-1,1.45,1.45,0,0,1,1-.37h1.67a.31.31,0,0,1,.35.35V10a.31.31,0,0,1-.35.34c-.24,0-.35-.11-.35-.34Zm0-1.85H50.1a.76.76,0,0,0-.51.18.62.62,0,0,0-.2.47.6.6,0,0,0,.16.41.66.66,0,0,0,.51.17h1.42Z"/></g></g></svg>