<svg xmlns="http://www.w3.org/2000/svg" style="display: none;">
  <symbol id="nav-icon-window" viewBox="0 0 24 24" xmlns="http://www.w3.org/2000/svg">
    <path d="M20.2587 21.3652h-13.75a.625.625 0 01-.6249-.6249v-8.1251a.3124.3124 0 01.625 0v8.1251h13.7499V3.2402h-13.75v3.5344a.3125.3125 0 11-.6249 0V3.2402a.625.625 0 01.625-.625h13.7499a.625.625 0 01.625.625v17.5001a.625.625 0 01-.625.6249zm-.9375-1.2499H7.4462a.3126.3126 0 01-.3125-.3126v-4.0625c0-.1725.14-.3124.3125-.3124h11.875a.3124.3124 0 01.3124.3124v4.0625a.3125.3125 0 01-.3124.3126zm-11.5625-.6251h11.25v-3.4374h-11.25v3.4374zm11.5625-4.6875H7.4462a.3124.3124 0 01-.3125-.3125v-1.875a.3125.3125 0 01.625 0v1.5626h11.25V4.4902H7.4462a.3125.3125 0 010-.625h11.875c.1726 0 .3124.14.3124.3126v10.3124a.3123.3123 0 01-.3124.3125z" fill="#fff"/><path d="M19.3216 14.8028H7.4466a.3125.3125 0 01-.3125-.3125v-1.875a.3126.3126 0 01.625 0v1.5625H19.009V4.4903H7.4465a.3125.3125 0 010-.625h11.8751c.1726 0 .3124.1399.3124.3126v10.3124a.3123.3123 0 01-.3124.3125zM19.3216 20.1154H7.4466a.3126.3126 0 01-.3125-.3127v-4.0624c0-.1726.14-.3124.3124-.3124h11.8751a.3123.3123 0 01.3124.3124v4.0624a.3125.3125 0 01-.3124.3127zm-11.5625-.6251H19.009v-3.4375H7.759v3.4375z" fill="#fff"/><path d="M19.3216 14.8028H7.4466a.3125.3125 0 01-.3125-.3125v-1.875a.3126.3126 0 01.625 0v1.5625H19.009V4.4903H7.4465a.3125.3125 0 010-.625h11.8751c.1726 0 .3124.1399.3124.3126v10.3124a.3123.3123 0 01-.3124.3125z" fill="#fff"/><path d="M15.2589 12.9278H3.3839a.3127.3127 0 01-.2814-.4481l4.0626-8.4374a.3127.3127 0 01.2812-.177h11.875a.3126.3126 0 01.2813.4482l-4.0625 8.4374a.3127.3127 0 01-.2812.1769zm-11.378-.625h11.1817l3.7615-7.8125H7.6425L3.881 12.3028z" fill="#fff"/><path d="M14.4736 11.6777H5.3732a.3126.3126 0 01-.2813-.448L7.951 5.2922a.3124.3124 0 01.2812-.177h9.1003a.3123.3123 0 01.2644.1465.3122.3122 0 01.0169.3017l-2.8591 5.9375a.312.312 0 01-.2811.1768zm-8.6029-.6249h8.4063l2.5577-5.3126H8.4284l-2.5577 5.3126zM19.3216 20.1154H7.4466a.3126.3126 0 01-.3125-.3127v-4.0624c0-.1726.14-.3124.3124-.3124h11.8751a.3123.3123 0 01.3124.3124v4.0624a.3125.3125 0 01-.3124.3127zm-11.5625-.6251H19.009v-3.4375H7.759v3.4375zM19.3216 10.4277a.3121.3121 0 01-.2209-.0916l-1.875-1.875a.3124.3124 0 01.4419-.4419l1.8749 1.875a.3125.3125 0 01-.2209.5335zM11.5088 14.8028a.3123.3123 0 01-.2208-.0916l-1.875-1.875a.3126.3126 0 01.4418-.4418l1.875 1.875a.312.312 0 01.0676.3404.3121.3121 0 01-.2886.193z" fill="#fff"/>
  </symbol>

  <symbol id="nav-icon-tech" viewBox="0 0 24 24">
    <path d="M11.9999 11c-1.378 0-2.5-1.122-2.5-2.5s1.122-2.5 2.5-2.5 2.5 1.122 2.5 2.5-1.122 2.5-2.5 2.5zm0-4c-.827 0-1.5.673-1.5 1.5s.673 1.5 1.5 1.5 1.5-.673 1.5-1.5-.673-1.5-1.5-1.5z" fill="#fff"/><path d="M12.775 15h-1.55c-.51 0-.932-.388-.98-.903l-.124-1.273c-.29-.134-.567-.299-.829-.495l-1.121.521c-.468.217-1.014.04-1.268-.416l-.774-1.38c-.248-.443-.129-1.003.276-1.303l1-.74c-.019-.156-.033-.33-.033-.511s.014-.355.033-.511l-1-.74c-.405-.3-.524-.86-.277-1.303l.775-1.381c.254-.453.799-.633 1.268-.415l1.121.521c.261-.196.539-.361.829-.495l.124-1.274c.048-.514.47-.902.98-.902h1.55c.51 0 .932.388.98.903l.124 1.273c.291.134.568.299.829.495l1.121-.521c.47-.215 1.015-.039 1.268.416l.774 1.38c.248.443.129 1.003-.276 1.303l-1 .74c.019.156.033.33.033.511s-.014.355-.033.511l1 .74c.405.299.524.859.276 1.302l-.775 1.381c-.253.453-.798.631-1.267.415l-1.121-.521c-.261.196-.539.361-.829.495l-.124 1.274c-.048.515-.47.903-.98.903zm-3.412-3.755c.118 0 .234.042.326.121.328.283.69.5 1.076.645a.499.499 0 01.322.419l.153 1.571L12.775 14l.138-1.57c.019-.19.143-.353.322-.419.386-.146.748-.362 1.076-.645a.5017.5017 0 01.537-.075l1.402.652.749-1.378-1.24-.928a.5011.5011 0 01-.196-.485c.036-.212.065-.428.065-.651 0-.223-.029-.439-.065-.651a.4983.4983 0 01.196-.485L17 6.445l-.776-1.391-1.376.655a.5015.5015 0 01-.538-.075c-.327-.282-.689-.499-1.076-.645a.499.499 0 01-.322-.419l-.152-1.571L11.225 3l-.138 1.57a.4978.4978 0 01-.322.419c-.386.146-.748.362-1.076.645a.502.502 0 01-.537.075L7.75 5.057l-.749 1.378 1.24.928c.151.112.227.299.196.485-.037.213-.065.428-.065.652 0 .224.029.439.065.651a.4983.4983 0 01-.196.485L7 10.555l.776 1.391 1.376-.655a.505.505 0 01.211-.046zM21 22H3c-1.654 0-3-1.346-3-3s1.346-3 3-3h18c1.654 0 3 1.346 3 3s-1.346 3-3 3zM3 17c-1.103 0-2 .897-2 2s.897 2 2 2h18c1.103 0 2-.897 2-2s-.897-2-2-2H3z" fill="#fff"/><path d="M3.0002 20c-.551 0-1-.449-1-1 0-.551.449-1 1-1 .551 0 1 .449 1 1 0 .551-.449 1-1 1zm0-1.001c0 .001 0 .001 0 0l.5.001-.5-.001zM8.9999 20c-.551 0-1-.449-1-1 0-.551.449-1 1-1 .551 0 1 .449 1 1 0 .551-.449 1-1 1zm0-1.001c0 .001 0 .001 0 0l.5.001-.5-.001zM14.9999 20c-.551 0-1-.449-1-1 0-.551.449-1 1-1 .551 0 1 .449 1 1 0 .551-.449 1-1 1zm0-1.001c0 .001 0 .001 0 0l.5.001-.5-.001zM20.9999 20c-.551 0-1-.449-1-1 0-.551.449-1 1-1 .551 0 1 .449 1 1 0 .551-.449 1-1 1zm0-1.001c0 .001 0 .001 0 0l.5.001-.5-.001z" fill="#fff"/>
  </symbol>

  <symbol id="nav-icon-product" viewBox="0 0 24 24">
    <path d="M21.9999 11.9987a.5859.5859 0 00-.2784-.4975l-2.0326-1.253 2.0347-1.2664a.5859.5859 0 00.0015-.994l-9.414-5.8984a.586.586 0 00-.6222 0l-9.414 5.8984a.586.586 0 00.0014.994l2.0208 1.2577-2.0217 1.2637a.586.586 0 00.001.9943l2.0207 1.2577-2.0217 1.2636a.5859.5859 0 00-.0005.9934l9.414 5.8984a.5854.5854 0 00.6222 0l9.414-5.8984a.586.586 0 00-.0036-.9953l-2.0326-1.253 2.0347-1.2664a.586.586 0 00.2763-.4988zM3.6922 8.4827L12 3.2776l8.3078 5.2053L12 13.6536 3.6922 8.4828zm16.6118 7.037L12 20.7226l-8.3095-5.2063 1.7144-1.0715 6.2855 3.9121a.586.586 0 00.6192 0l6.2681-3.9014 1.7263 1.0642zM12 17.1692L3.6931 11.999l1.7118-1.0699 6.2855 3.9121a.5852.5852 0 00.6192 0l6.2681-3.9013 1.7236 1.0625L12 17.1692z" fill="#fff"/>
  </symbol>

  <symbol id="nav-icon-dilers" viewBox="0 0 24 24">
    <path d="M15.3389 15.2143c2.1282-3.3396 1.8607-2.923 1.922-3.01.7749-1.0929 1.1844-2.3792 1.1844-3.72C18.4453 4.929 15.5601 2 12 2 8.4515 2 5.5547 4.9231 5.5547 8.4844a6.4306 6.4306 0 001.2183 3.7674l1.888 2.9625c-2.0185.3102-5.45 1.2346-5.45 3.2701 0 .742.4842 1.7994 2.7914 2.6234C7.6134 21.6831 9.7434 22 12 22c4.2197 0 8.7891-1.1903 8.7891-3.5156 0-2.0358-3.4275-2.9593-5.4502-3.2701zm-7.587-3.6071a.6005.6005 0 00-.0202-.0296 5.2575 5.2575 0 01-1.0051-3.0932c0-2.9304 2.3596-5.3125 5.2734-5.3125 2.9078 0 5.2734 2.3831 5.2734 5.3125 0 1.0932-.3328 2.142-.9627 3.034-.0564.0745.238-.383-4.3107 6.7546l-4.248-6.6658zM12 20.8281c-4.6091 0-7.6172-1.3548-7.6172-2.3437 0-.6647 1.5456-1.7576 4.9706-2.1837l2.1525 3.3775a.5858.5858 0 00.9882 0l2.1523-3.3775c3.4251.4261 4.9708 1.519 4.9708 2.1837 0 .9805-2.981 2.3437-7.6172 2.3437z" fill="#fff"/><path d="M12 5.5547c-1.6154 0-2.9297 1.3142-2.9297 2.9297 0 1.6154 1.3143 2.9297 2.9297 2.9297s2.9297-1.3143 2.9297-2.9297c0-1.6155-1.3143-2.9297-2.9297-2.9297zm0 4.6875c-.9693 0-1.7578-.7886-1.7578-1.7578 0-.9693.7885-1.7578 1.7578-1.7578s1.7578.7885 1.7578 1.7578c0 .9692-.7885 1.7578-1.7578 1.7578z" fill="#fff"/>
  </symbol>

  <symbol id="nav-icon-cart" viewBox="0 0 24 24">
    <path d="M15.1654 18.4373a.5863.5863 0 00.6743-.4816l.5859-3.5156a.5866.5866 0 00-.0969-.4423.5846.5846 0 00-.3832-.2412.5864.5864 0 00-.4407.1039.5856.5856 0 00-.2351.3869l-.5859 3.5157a.586.586 0 00.4816.6742zm-6.966-.4816a.5859.5859 0 001.156-.1927l-.586-3.5156a.586.586 0 00-1.156.1926l.586 3.5157z" fill="#fff"/><path d="M21.4141 9.0703h-2.0622l-4.5115-5.6395a.586.586 0 00-.9151.7321l3.9259 4.9074H6.1488l3.9259-4.9074a.5858.5858 0 00-.5217-.9513.586.586 0 00-.3933.2193L4.648 9.0702H2.5859A.5861.5861 0 002 9.6563V12a.586.586 0 00.586.5859h.7299l2.2223 7.7782a.5857.5857 0 00.5634.425h11.7968a.5862.5862 0 00.5634-.425l2.2223-7.7782h.73A.5858.5858 0 0022 12V9.6562a.5861.5861 0 00-.5859-.5859zm-3.9576 10.5469H6.5435l-2.0089-7.0313h14.9308l-2.0089 7.0313zm3.3716-8.2031H3.1719v-1.1719H20.828v1.1719h.0001z" fill="#fff"/><path d="M12 18.4453a.5863.5863 0 00.5859-.5859v-3.5156a.5887.5887 0 00-.0414-.2276.587.587 0 00-.5445-.3693.5862.5862 0 00-.5859.5969v3.5156c0 .3236.2623.5859.5859.5859z" fill="#fff"/>
  </symbol>

  <symbol id="nav-icon-about" viewBox="0 0 24 24">
    <path d="M16.3523 7.0427h-4.3525a.605.605 0 00-.6048.6048.6048.6048 0 00.6048.6048h3.7477V12a.605.605 0 101.2096 0V7.6475a.6048.6048 0 00-.6048-.6048zM12 15.7476H8.2523V12a.6046.6046 0 00-1.0325-.4276.6046.6046 0 00-.1771.4276v4.3525c0 .334.2707.6048.6048.6048H12a.605.605 0 100-1.2097z" fill="#fff"/><path d="M12 2C6.486 2 2 6.486 2 12c0 5.5141 4.486 10.0001 10 10.0001 5.5141 0 10.0001-4.486 10.0001-10.0001C22.0001 6.486 17.514 2 12 2zm0 18.7904c-4.847 0-8.7904-3.9433-8.7904-8.7904 0-4.847 3.9434-8.7904 8.7904-8.7904 4.8471 0 8.7904 3.9434 8.7904 8.7904 0 4.8471-3.9433 8.7904-8.7904 8.7904z" fill="#fff"/>
  </symbol>

</svg>