<svg xmlns="http://www.w3.org/2000/svg" style="display: none;">
  <symbol id="nav-icon-window" viewBox="0 0 24 24" xmlns="http://www.w3.org/2000/svg">
    <path d="M20.2587 21.3652h-13.75a.625.625 0 01-.6249-.6249v-8.1251a.3124.3124 0 01.625 0v8.1251h13.7499V3.2402h-13.75v3.5344a.3125.3125 0 11-.6249 0V3.2402a.625.625 0 01.625-.625h13.7499a.625.625 0 01.625.625v17.5001a.625.625 0 01-.625.6249zm-.9375-1.2499H7.4462a.3126.3126 0 01-.3125-.3126v-4.0625c0-.1725.14-.3124.3125-.3124h11.875a.3124.3124 0 01.3124.3124v4.0625a.3125.3125 0 01-.3124.3126zm-11.5625-.6251h11.25v-3.4374h-11.25v3.4374zm11.5625-4.6875H7.4462a.3124.3124 0 01-.3125-.3125v-1.875a.3125.3125 0 01.625 0v1.5626h11.25V4.4902H7.4462a.3125.3125 0 010-.625h11.875c.1726 0 .3124.14.3124.3126v10.3124a.3123.3123 0 01-.3124.3125z" fill="#fff"/><path d="M19.3216 14.8028H7.4466a.3125.3125 0 01-.3125-.3125v-1.875a.3126.3126 0 01.625 0v1.5625H19.009V4.4903H7.4465a.3125.3125 0 010-.625h11.8751c.1726 0 .3124.1399.3124.3126v10.3124a.3123.3123 0 01-.3124.3125zM19.3216 20.1154H7.4466a.3126.3126 0 01-.3125-.3127v-4.0624c0-.1726.14-.3124.3124-.3124h11.8751a.3123.3123 0 01.3124.3124v4.0624a.3125.3125 0 01-.3124.3127zm-11.5625-.6251H19.009v-3.4375H7.759v3.4375z" fill="#fff"/><path d="M19.3216 14.8028H7.4466a.3125.3125 0 01-.3125-.3125v-1.875a.3126.3126 0 01.625 0v1.5625H19.009V4.4903H7.4465a.3125.3125 0 010-.625h11.8751c.1726 0 .3124.1399.3124.3126v10.3124a.3123.3123 0 01-.3124.3125z" fill="#fff"/><path d="M15.2589 12.9278H3.3839a.3127.3127 0 01-.2814-.4481l4.0626-8.4374a.3127.3127 0 01.2812-.177h11.875a.3126.3126 0 01.2813.4482l-4.0625 8.4374a.3127.3127 0 01-.2812.1769zm-11.378-.625h11.1817l3.7615-7.8125H7.6425L3.881 12.3028z" fill="#fff"/><path d="M14.4736 11.6777H5.3732a.3126.3126 0 01-.2813-.448L7.951 5.2922a.3124.3124 0 01.2812-.177h9.1003a.3123.3123 0 01.2644.1465.3122.3122 0 01.0169.3017l-2.8591 5.9375a.312.312 0 01-.2811.1768zm-8.6029-.6249h8.4063l2.5577-5.3126H8.4284l-2.5577 5.3126zM19.3216 20.1154H7.4466a.3126.3126 0 01-.3125-.3127v-4.0624c0-.1726.14-.3124.3124-.3124h11.8751a.3123.3123 0 01.3124.3124v4.0624a.3125.3125 0 01-.3124.3127zm-11.5625-.6251H19.009v-3.4375H7.759v3.4375zM19.3216 10.4277a.3121.3121 0 01-.2209-.0916l-1.875-1.875a.3124.3124 0 01.4419-.4419l1.8749 1.875a.3125.3125 0 01-.2209.5335zM11.5088 14.8028a.3123.3123 0 01-.2208-.0916l-1.875-1.875a.3126.3126 0 01.4418-.4418l1.875 1.875a.312.312 0 01.0676.3404.3121.3121 0 01-.2886.193z" fill="#fff"/>
  </symbol>

  <symbol id="nav-icon-tech" viewBox="0 0 24 24">
    <path d="M11.9999 11c-1.378 0-2.5-1.122-2.5-2.5s1.122-2.5 2.5-2.5 2.5 1.122 2.5 2.5-1.122 2.5-2.5 2.5zm0-4c-.827 0-1.5.673-1.5 1.5s.673 1.5 1.5 1.5 1.5-.673 1.5-1.5-.673-1.5-1.5-1.5z" fill="#fff"/><path d="M12.775 15h-1.55c-.51 0-.932-.388-.98-.903l-.124-1.273c-.29-.134-.567-.299-.829-.495l-1.121.521c-.468.217-1.014.04-1.268-.416l-.774-1.38c-.248-.443-.129-1.003.276-1.303l1-.74c-.019-.156-.033-.33-.033-.511s.014-.355.033-.511l-1-.74c-.405-.3-.524-.86-.277-1.303l.775-1.381c.254-.453.799-.633 1.268-.415l1.121.521c.261-.196.539-.361.829-.495l.124-1.274c.048-.514.47-.902.98-.902h1.55c.51 0 .932.388.98.903l.124 1.273c.291.134.568.299.829.495l1.121-.521c.47-.215 1.015-.039 1.268.416l.774 1.38c.248.443.129 1.003-.276 1.303l-1 .74c.019.156.033.33.033.511s-.014.355-.033.511l1 .74c.405.299.524.859.276 1.302l-.775 1.381c-.253.453-.798.631-1.267.415l-1.121-.521c-.261.196-.539.361-.829.495l-.124 1.274c-.048.515-.47.903-.98.903zm-3.412-3.755c.118 0 .234.042.326.121.328.283.69.5 1.076.645a.499.499 0 01.322.419l.153 1.571L12.775 14l.138-1.57c.019-.19.143-.353.322-.419.386-.146.748-.362 1.076-.645a.5017.5017 0 01.537-.075l1.402.652.749-1.378-1.24-.928a.5011.5011 0 01-.196-.485c.036-.212.065-.428.065-.651 0-.223-.029-.439-.065-.651a.4983.4983 0 01.196-.485L17 6.445l-.776-1.391-1.376.655a.5015.5015 0 01-.538-.075c-.327-.282-.689-.499-1.076-.645a.499.499 0 01-.322-.419l-.152-1.571L11.225 3l-.138 1.57a.4978.4978 0 01-.322.419c-.386.146-.748.362-1.076.645a.502.502 0 01-.537.075L7.75 5.057l-.749 1.378 1.24.928c.151.112.227.299.196.485-.037.213-.065.428-.065.652 0 .224.029.439.065.651a.4983.4983 0 01-.196.485L7 10.555l.776 1.391 1.376-.655a.505.505 0 01.211-.046zM21 22H3c-1.654 0-3-1.346-3-3s1.346-3 3-3h18c1.654 0 3 1.346 3 3s-1.346 3-3 3zM3 17c-1.103 0-2 .897-2 2s.897 2 2 2h18c1.103 0 2-.897 2-2s-.897-2-2-2H3z" fill="#fff"/><path d="M3.0002 20c-.551 0-1-.449-1-1 0-.551.449-1 1-1 .551 0 1 .449 1 1 0 .551-.449 1-1 1zm0-1.001c0 .001 0 .001 0 0l.5.001-.5-.001zM8.9999 20c-.551 0-1-.449-1-1 0-.551.449-1 1-1 .551 0 1 .449 1 1 0 .551-.449 1-1 1zm0-1.001c0 .001 0 .001 0 0l.5.001-.5-.001zM14.9999 20c-.551 0-1-.449-1-1 0-.551.449-1 1-1 .551 0 1 .449 1 1 0 .551-.449 1-1 1zm0-1.001c0 .001 0 .001 0 0l.5.001-.5-.001zM20.9999 20c-.551 0-1-.449-1-1 0-.551.449-1 1-1 .551 0 1 .449 1 1 0 .551-.449 1-1 1zm0-1.001c0 .001 0 .001 0 0l.5.001-.5-.001z" fill="#fff"/>
  </symbol>

  <symbol id="nav-icon-product" viewBox="0 0 24 24">
    <path d="M21.9999 11.9987a.5859.5859 0 00-.2784-.4975l-2.0326-1.253 2.0347-1.2664a.5859.5859 0 00.0015-.994l-9.414-5.8984a.586.586 0 00-.6222 0l-9.414 5.8984a.586.586 0 00.0014.994l2.0208 1.2577-2.0217 1.2637a.586.586 0 00.001.9943l2.0207 1.2577-2.0217 1.2636a.5859.5859 0 00-.0005.9934l9.414 5.8984a.5854.5854 0 00.6222 0l9.414-5.8984a.586.586 0 00-.0036-.9953l-2.0326-1.253 2.0347-1.2664a.586.586 0 00.2763-.4988zM3.6922 8.4827L12 3.2776l8.3078 5.2053L12 13.6536 3.6922 8.4828zm16.6118 7.037L12 20.7226l-8.3095-5.2063 1.7144-1.0715 6.2855 3.9121a.586.586 0 00.6192 0l6.2681-3.9014 1.7263 1.0642zM12 17.1692L3.6931 11.999l1.7118-1.0699 6.2855 3.9121a.5852.5852 0 00.6192 0l6.2681-3.9013 1.7236 1.0625L12 17.1692z" fill="#fff"/>
  </symbol>

  <symbol id="nav-icon-dilers" viewBox="0 0 24 24">
    <path d="M15.3389 15.2143c2.1282-3.3396 1.8607-2.923 1.922-3.01.7749-1.0929 1.1844-2.3792 1.1844-3.72C18.4453 4.929 15.5601 2 12 2 8.4515 2 5.5547 4.9231 5.5547 8.4844a6.4306 6.4306 0 001.2183 3.7674l1.888 2.9625c-2.0185.3102-5.45 1.2346-5.45 3.2701 0 .742.4842 1.7994 2.7914 2.6234C7.6134 21.6831 9.7434 22 12 22c4.2197 0 8.7891-1.1903 8.7891-3.5156 0-2.0358-3.4275-2.9593-5.4502-3.2701zm-7.587-3.6071a.6005.6005 0 00-.0202-.0296 5.2575 5.2575 0 01-1.0051-3.0932c0-2.9304 2.3596-5.3125 5.2734-5.3125 2.9078 0 5.2734 2.3831 5.2734 5.3125 0 1.0932-.3328 2.142-.9627 3.034-.0564.0745.238-.383-4.3107 6.7546l-4.248-6.6658zM12 20.8281c-4.6091 0-7.6172-1.3548-7.6172-2.3437 0-.6647 1.5456-1.7576 4.9706-2.1837l2.1525 3.3775a.5858.5858 0 00.9882 0l2.1523-3.3775c3.4251.4261 4.9708 1.519 4.9708 2.1837 0 .9805-2.981 2.3437-7.6172 2.3437z" fill="#fff"/><path d="M12 5.5547c-1.6154 0-2.9297 1.3142-2.9297 2.9297 0 1.6154 1.3143 2.9297 2.9297 2.9297s2.9297-1.3143 2.9297-2.9297c0-1.6155-1.3143-2.9297-2.9297-2.9297zm0 4.6875c-.9693 0-1.7578-.7886-1.7578-1.7578 0-.9693.7885-1.7578 1.7578-1.7578s1.7578.7885 1.7578 1.7578c0 .9692-.7885 1.7578-1.7578 1.7578z" fill="#fff"/>
  </symbol>

  <symbol id="nav-icon-cart" viewBox="0 0 24 24">
    <path d="M15.1654 18.4373a.5863.5863 0 00.6743-.4816l.5859-3.5156a.5866.5866 0 00-.0969-.4423.5846.5846 0 00-.3832-.2412.5864.5864 0 00-.4407.1039.5856.5856 0 00-.2351.3869l-.5859 3.5157a.586.586 0 00.4816.6742zm-6.966-.4816a.5859.5859 0 001.156-.1927l-.586-3.5156a.586.586 0 00-1.156.1926l.586 3.5157z" fill="#fff"/><path d="M21.4141 9.0703h-2.0622l-4.5115-5.6395a.586.586 0 00-.9151.7321l3.9259 4.9074H6.1488l3.9259-4.9074a.5858.5858 0 00-.5217-.9513.586.586 0 00-.3933.2193L4.648 9.0702H2.5859A.5861.5861 0 002 9.6563V12a.586.586 0 00.586.5859h.7299l2.2223 7.7782a.5857.5857 0 00.5634.425h11.7968a.5862.5862 0 00.5634-.425l2.2223-7.7782h.73A.5858.5858 0 0022 12V9.6562a.5861.5861 0 00-.5859-.5859zm-3.9576 10.5469H6.5435l-2.0089-7.0313h14.9308l-2.0089 7.0313zm3.3716-8.2031H3.1719v-1.1719H20.828v1.1719h.0001z" fill="#fff"/><path d="M12 18.4453a.5863.5863 0 00.5859-.5859v-3.5156a.5887.5887 0 00-.0414-.2276.587.587 0 00-.5445-.3693.5862.5862 0 00-.5859.5969v3.5156c0 .3236.2623.5859.5859.5859z" fill="#fff"/>
  </symbol>

  <symbol id="nav-icon-about" viewBox="0 0 24 24">
    <path d="M16.3523 7.0427h-4.3525a.605.605 0 00-.6048.6048.6048.6048 0 00.6048.6048h3.7477V12a.605.605 0 101.2096 0V7.6475a.6048.6048 0 00-.6048-.6048zM12 15.7476H8.2523V12a.6046.6046 0 00-1.0325-.4276.6046.6046 0 00-.1771.4276v4.3525c0 .334.2707.6048.6048.6048H12a.605.605 0 100-1.2097z" fill="#fff"/><path d="M12 2C6.486 2 2 6.486 2 12c0 5.5141 4.486 10.0001 10 10.0001 5.5141 0 10.0001-4.486 10.0001-10.0001C22.0001 6.486 17.514 2 12 2zm0 18.7904c-4.847 0-8.7904-3.9433-8.7904-8.7904 0-4.847 3.9434-8.7904 8.7904-8.7904 4.8471 0 8.7904 3.9434 8.7904 8.7904 0 4.8471-3.9433 8.7904-8.7904 8.7904z" fill="#fff"/>
  </symbol>

  <symbol id="nav-icon-service" viewBox="0 0 24 24">
    <path d="M7.625 9.8125H7v.625h.625v-.625zM10.75 9.8125h-.625v.625h.625v-.625z" fill="#fff"/><path d="M21.1069 13.2531l-1.2209-.1743a4.3673 4.3673 0 00-.2054-.5l.7388-.985a.313.313 0 00-.0291-.4085l-1.3259-1.326a.309.309 0 00-.1894-.0884V6.763a2.5 2.5 0 00.9375-1.9504 2.474 2.474 0 00-1.429-2.2575.3129.3129 0 00-.4073.1319.3134.3134 0 00-.0387.1506v1.75l-.625.2084-.625-.2084v-1.75a.312.312 0 00-.1458-.263.312.312 0 00-.3001-.0182 2.4742 2.4742 0 00-1.4291 2.2562 2.4997 2.4997 0 00.9375 1.9503V8.875h-.9375a.3124.3124 0 00-.3094.2681l-.2021 1.4153.6187.0885.1638-1.1469h1.3331l.1637 1.1469a.3125.3125 0 00.2219.2556c.2605.0753.512.1787.75.3084a.3121.3121 0 00.3378-.024l.9253-.6938.9425.9425-.6953.9253a.3126.3126 0 00-.024.3379c.1297.238.2331.4895.3084.75a.3118.3118 0 00.2556.2218l1.1469.1638v1.3331l-1.1469.1638a.3118.3118 0 00-.2556.2218 3.7346 3.7346 0 01-.3084.75.3123.3123 0 00.024.3378l.6938.9254-.9425.9425-.9247-.6963a.3136.3136 0 00-.1654-.0618.3135.3135 0 00-.1724.0377 3.734 3.734 0 01-.75.3085.3121.3121 0 00-.2219.2556L16.4166 19.5H15.125v-1.3216a3.47 3.47 0 00-.1406-.9753 2.8464 2.8464 0 003.212-1.2202 2.8466 2.8466 0 00-.3018-3.4227 2.8465 2.8465 0 00-3.376-.6393 2.8469 2.8469 0 00-1.5323 3.0754c-.0075-.0032-.0147-.0069-.0222-.0097l-2.5266-1.0107v-.4803a3.4641 3.4641 0 001.0872-.8706h.7878a.9374.9374 0 00.9375-.9375v-.6825a.9376.9376 0 00.625-.88v-.9375a.938.938 0 00-.625-.88v-.37a4.3749 4.3749 0 10-8.75 0v.37a.9375.9375 0 00-.625.88v.9375a.9375.9375 0 00.9375.9375h.625c.02 0 .0394-.0031.059-.0044a3.4445 3.4445 0 001.816 2.4375v.4803L4.786 14.9866a3.4212 3.4212 0 00-2.161 3.1918v2.8841a.3125.3125 0 00.3125.3125h11.875a.3125.3125 0 00.3125-.3125v-.9375h1.5625a.3127.3127 0 00.3094-.2681l.1744-1.221a4.3635 4.3635 0 00.5-.2053l.985.7388a.3126.3126 0 00.4084-.0291l1.3259-1.3259a.313.313 0 00.0291-.4085l-.7387-.985a4.3848 4.3848 0 00.2053-.5l1.2209-.1743a.3128.3128 0 00.2678-.3091v-1.875a.3127.3127 0 00-.2681-.3094zm-3.4375-2.6837c-.0147-.0072-.0313-.0119-.0459-.0188v-3.863H17v2.478l-.0031-.0225a.3123.3123 0 00-.3094-.268h-.3125V6.6062a.313.313 0 00-.134-.2566 1.8752 1.8752 0 01-.1785-2.9366v1.3994a.3124.3124 0 00.2138.2966l.9375.3125a.3125.3125 0 00.1975 0l.9375-.3125a.3123.3123 0 00.2137-.2966V3.4131a1.875 1.875 0 01-.1784 2.9375.3124.3124 0 00-.1341.2556v3.5291l-.5806.4341zM13.5625 14.5a2.2034 2.2034 0 013.0614-2.0446 2.2035 2.2035 0 011.3207 2.3541 2.2033 2.2033 0 01-3.3405 1.5471 3.4117 3.4117 0 00-.816-.8991 2.1372 2.1372 0 01-.2256-.9575zm-1.25-2.5h-.3794a3.4058 3.4058 0 00.3204-.9419c.0196 0 .039.0044.059.0044h.3125v.625a.3125.3125 0 01-.3125.3125zm-.625-3.4375a.9421.9421 0 01-.75-.375l-.5625-.75a.3122.3122 0 00-.3346-.113.3159.3159 0 00-.1107.0564l-1.0488.8379a1.5681 1.5681 0 01-.9746.3437H6.0625V8.25a2.8125 2.8125 0 115.625 0v.3125zM13.25 10.125a.3125.3125 0 01-.3125.3125h-.625V8.875h.625a.3125.3125 0 01.3125.3125v.9375zM8.875 4.1875a3.754 3.754 0 013.75 3.75V8.25h-.3125A3.4373 3.4373 0 008.875 4.8125 3.4375 3.4375 0 005.4375 8.25H5.125v-.3125a3.754 3.754 0 013.75-3.75zm-4.0625 6.25A.3125.3125 0 014.5 10.125v-.9375a.3125.3125 0 01.3125-.3125h.625v1.5625h-.625zm1.25 0v-1.25h1.8438a2.195 2.195 0 001.3662-.4794l.7972-.6378.3678.4922a1.5705 1.5705 0 001.25.625v1.25A2.7961 2.7961 0 0111.2119 12H8.875v.625h1.7638a2.8092 2.8092 0 01-2.9783.3501 2.8097 2.8097 0 01-1.598-2.5376zM8.875 13.875a3.4294 3.4294 0 00.9375-.1331v.4456a.9375.9375 0 01-1.875 0v-.4456c.3049.0875.6204.1323.9375.1331zM14.5 20.75h-1.875v-3.4375H12V20.75H5.75v-3.4375h-.625V20.75H3.25v-2.5716a2.7992 2.7992 0 011.7681-2.6115l2.3635-.9453a1.5524 1.5524 0 002.9869 0l2.3634.9453A2.7988 2.7988 0 0114.5 18.1784V20.75z" fill="#fff"/><path d="M16.0625 10.125h-.625v.625h.625v-.625zM16.0625 18.25h-.625v.625h.625v-.625zM18.6222 16.9307l-.4419.442.4419.4419.442-.4419-.442-.442zM20.125 14.1875H19.5v.625h.625v-.625zM18.6224 11.1856l-.4419.442.4419.4419.442-.4419-.442-.442z" fill="#fff"/>
  </symbol>

  <symbol id="nav-icon-backcall" viewBox="0 0 24 24">
    <path d="M17.5011 12.6699l-2.1627-2.753a4.6462 4.6462 0 001.3087-2.9188h3.3489v.3665a1.6687 1.6687 0 00-1.3328 1.6326c.0003.92.7463 1.6658 1.6663 1.6656.9201-.0001 1.6658-.7462 1.6656-1.6662a1.6659 1.6659 0 00-1.3327-1.632v-.6997a.3332.3332 0 00-.3332-.3332h-3.6821a4.6344 4.6344 0 00-.9762-2.5339l.4648-.4648h3.9216c.184.5205.7551.7933 1.2756.6092.5204-.184.7932-.7551.6092-1.2755-.1841-.5205-.7551-.7933-1.2756-.6093a.9998.9998 0 00-.6092.6092h-4.0595a.3333.3333 0 00-.2356.0976l-.5381.5381c-1.8516-1.7832-4.7982-1.7277-6.5815.1239A4.6546 4.6546 0 007.352 6.3317H4.5531L3.464 3.8818c.4869-.2563.6739-.8587.4177-1.3456-.2562-.4869-.8587-.6739-1.3456-.4176-.4869.2562-.6739.8586-.4177 1.3455a.996.996 0 00.6556.5063l1.2577 2.83a.3332.3332 0 00.3046.1977h3.0157a4.6442 4.6442 0 001.285 2.8914l-2.8127 2.8127c-1.8188-.2725-3.514.981-3.7866 2.7997-.2725 1.8188.981 3.5141 2.7997 3.7866.055.0082.11.015.1653.0205v1.6829c0 .184.1491.3332.3331.3332h3.06c.184.5205.7552.7933 1.2756.6092.5204-.184.7932-.7551.6092-1.2756-.1841-.5204-.7551-.7932-1.2756-.6092a.9998.9998 0 00-.6092.6092H5.669V19.309c1.83-.1824 3.1656-1.8138 2.9832-3.6438a3.33 3.33 0 00-2.0836-2.7641l2.5656-2.5655c1.6707 1.3155 4.0225 1.325 5.7038.023l1.8485 2.353c-2.5524.356-4.3329 2.7138-3.9768 5.2661.356 2.5525 2.7138 4.333 5.2662 3.9769 2.5524-.356 4.3329-2.7138 3.9768-5.2662-.3127-2.2419-2.1894-3.936-4.4515-4.0185zm3.8276-3.6727c0 .552-.4475.9996-.9995.9996-.5521 0-.9996-.4475-.9996-.9996 0-.552.4475-.9995.9996-.9995.552 0 .9995.4475.9995.9995zm-.3331-6.3305a.3331.3331 0 110 .6662.3331.3331 0 010-.6662zM3.0034 3.333a.3332.3332 0 110-.6664.3332.3332 0 010 .6664zM9.334 20.6588a.3332.3332 0 110 .6664.3332.3332 0 010-.6664zm-2.6655-2.3597a2.6427 2.6427 0 01-2.6655 0v-.639c0-.7361.5967-1.3328 1.3327-1.3328s1.3328.5967 1.3328 1.3328v.639zm-1.9991-3.3045a.6663.6663 0 111.3327 0 .6664.6664 0 11-1.3327 0zm2.6655-.7693a2.6655 2.6655 0 01.6663 1.7689 2.6516 2.6516 0 01-.6663 1.7572v-.0913a1.999 1.999 0 00-1.0353-1.7502c.5083-.5325.4886-1.3761-.0438-1.8843s-1.376-.4886-1.8843.0438c-.4916.515-.4916 1.3254 0 1.8404a1.9992 1.9992 0 00-1.0349 1.7503v.0912c-.9737-1.1041-.868-2.7884.236-3.7621 1.1042-.9737 2.7886-.868 3.7623.2361zm6.9969-4.3205c-1.3909 1.0098-3.2737 1.0098-4.6646 0v-.8076c0-.6073.4923-1.0995 1.0995-1.0995h.7397l-.4835 1.2088a.3332.3332 0 00.074.3595l.6664.6663a.3331.3331 0 00.4711 0l.6664-.6663a.3332.3332 0 00.0739-.3595l-.4831-1.2088h.7407c.6072 0 1.0995.4922 1.0995 1.0995v.8076zm-2.2846-5.4106a.3278.3278 0 00-.0303.066c-.1686.5054-1.0789.697-1.6649.7526.0893-1.1166.6148-1.6466 1.6475-1.6466.9456 0 1.4661.4471 1.615 1.38L12.5043 4.38a.3332.3332 0 00-.4571.1143zm.4118.636l1.1908.7147c-.1336.8157-1.1389 1.4864-1.6503 1.4864a2.0991 2.0991 0 01-1.6196-1.35c.5704-.047 1.6003-.22 2.0791-.851zm-.1843 4.12l-.2752.2755-.2752-.2756.2752-.6887.2752.6887zm1.1785-1.9036a2.313 2.313 0 00.8786-1.6812c0-2.203-1.2684-2.6656-2.3323-2.6656s-2.3323.4625-2.3323 2.6656a2.313 2.313 0 00.8786 1.6822c-.8832.1088-1.5463.8597-1.545 1.7496v.2026c-1.4606-1.6561-1.302-4.1827.3541-5.6433 1.6561-1.4606 4.1827-1.302 5.6433.354 1.3327 1.5112 1.3327 3.778 0 5.2892v-.2026c.0018-.8902-.6614-1.6417-1.545-1.7505zm6.2096 13.2202c-1.3909 1.0098-3.2737 1.0098-4.6646 0v-.8076c0-.6073.4923-1.0995 1.0995-1.0995h.7397l-.4835 1.2088a.3332.3332 0 00.074.3595l.6664.6663a.3331.3331 0 00.4711 0l.6664-.6663a.3332.3332 0 00.0739-.3595l-.4831-1.2088h.7407c.6072 0 1.0995.4922 1.0995 1.0995v.8076zM17.79 15.7922v-.0003l1.1908.7147c-.1336.816-1.1389 1.4867-1.6503 1.4867a2.0992 2.0992 0 01-1.6196-1.3501c.5704-.047 1.6003-.2199 2.0791-.851zm-2.1071.1826c.0893-1.1165.6147-1.6466 1.6476-1.6466.9456 0 1.466.4472 1.615 1.3801l-1.1102-.6664a.3332.3332 0 00-.4875.1803c-.1686.5054-1.0788.697-1.6649.7526zm1.9228 3.9373l-.2752.2756-.2752-.2756.2752-.6887.2752.6887zm2.7235.0506v-.2036c.0018-.8902-.6614-1.6417-1.545-1.7505a2.313 2.313 0 00.8786-1.6813c0-2.203-1.2684-2.6655-2.3323-2.6655s-2.3323.4625-2.3323 2.6655a2.3132 2.3132 0 00.8786 1.6823c-.8832.1088-1.5463.8596-1.545 1.7495v.2026c-1.4572-1.6574-1.2948-4.1823.3626-5.6394 1.6574-1.4572 4.1823-1.2948 5.6394.3626a3.9952 3.9952 0 01.9949 2.6419 3.9773 3.9773 0 01-.9995 2.6359z" fill="#fff"/>
  </symbol>

  <symbol id="nav-icon-phone" viewBox="0 0 24 24">
    <g clip-path="url(#clip0)" fill="#fff"><path d="M21.4751 17.4293l-4.0481-2.6996a1.1814 1.1814 0 00-1.5821.2569l-1.1792 1.5161a.504.504 0 01-.6462.136l-.2243-.1236c-.7436-.4053-1.6688-.9099-3.5328-2.7746-1.864-1.8648-2.3697-2.7906-2.775-3.5328l-.123-.2243a.5046.5046 0 01.1334-.6486l1.515-1.1788a1.1822 1.1822 0 00.2573-1.5821l-2.6995-4.048c-.348-.5234-1.0459-.6805-1.5844-.3567L3.2934 3.186a2.3878 2.3878 0 00-1.0888 1.4131c-.6096 2.221-.151 6.0541 5.4955 11.7013 4.4917 4.4913 7.8355 5.6992 10.1339 5.6992a5.9057 5.9057 0 001.5664-.2047 2.3856 2.3856 0 001.4131-1.0888l1.0179-1.6917c.3242-.5387.1672-1.2371-.3563-1.5851zm-.218 1.2431l-1.0155 1.6927a1.722 1.722 0 01-1.0166.7879c-2.0503.563-5.6324.0967-11.0533-5.3242C2.7508 10.408 2.2846 6.8261 2.8475 4.7755a1.7252 1.7252 0 01.7889-1.0179L5.329 2.7421a.51.51 0 01.6876.1546l1.4665 2.2017 1.2308 1.846a.513.513 0 01-.1113.6866L7.0872 8.8098a1.1665 1.1665 0 00-.3089 1.4972l.1203.2186c.426.7812.9555 1.7531 2.889 3.6861 1.9333 1.9331 2.9049 2.4627 3.6857 2.8886l.219.1206a1.1665 1.1665 0 001.4971-.3089l1.1788-1.5155a.5134.5134 0 01.6866-.1113l4.0477 2.6996a.5097.5097 0 01.1546.6876zM13.3328 5.335c3.1277.0035 5.6623 2.5382 5.6658 5.6659a.3333.3333 0 10.6666 0c-.0039-3.4957-2.8367-6.3285-6.3324-6.3324a.3333.3333 0 100 .6666z"/><path d="M13.3328 7.3347c2.0237.0024 3.6637 1.6424 3.6661 3.6662a.3333.3333 0 00.6666 0c-.0028-2.3918-1.941-4.33-4.3327-4.3327a.3333.3333 0 100 .6665z"/><path d="M13.3328 9.3345c.9198.001 1.6653.7465 1.6664 1.6664a.3333.3333 0 00.6666 0c-.0015-1.2879-1.0452-2.3316-2.333-2.333a.3333.3333 0 100 .6666z"/></g><defs><clipPath id="clip0"><path fill="#fff" transform="translate(2 2)" d="M0 0h20v20H0z"/></clipPath></defs>
  </symbol>

  <symbol id="nav-icon-finddiler" viewBox="0 0 24 24">
    <path d="M7.0006 16.0628c-1.5512 0-2.8131 1.2619-2.8131 2.8131v2.1863c0 .3447.2803.625.625.625H19.5a.3122.3122 0 00.3125-.3125v-.9381c0-.0022-.0013-.0041-.0013-.0063v-5.6178a.3122.3122 0 00-.3125-.3125h-4.0581a.3122.3122 0 00-.3125.3125v1.2503H13.875v-1.3022c1.4916-.8662 2.4994-2.4775 2.4994-4.3231V7.6247c0-.8181-.1913-1.591-.5235-2.2838a.3109.3109 0 00-.0331-.0693c-.8697-1.7504-2.6719-2.9588-4.7553-2.9588-2.929 0-5.3119 2.3828-5.3119 5.3119v.625c0 .0134.0063.0247.0075.0375a.2949.2949 0 00.0122.0603.316.316 0 00.025.054.296.296 0 00.0325.0482.2929.2929 0 00.0444.0412.3253.3253 0 00.0475.0322c.019.01.0387.0163.0594.0222.0122.0034.0218.0106.0347.0128.1234.0197.2409.0344.36.0503v1.8291c0 1.8459 1.0084 3.4575 2.5006 4.3237v1.3016H7.0006zm3.6885.9306a.2911.2911 0 00.0612.0063c.0444 0 .0856-.0122.1247-.0297.005-.0019.01-.0009.0147-.0034l.4853-.2425.4853.2425c.0047.0025.0097.0015.0147.0034.0391.0175.0806.0297.1247.0297.02 0 .0409-.0019.0612-.0063l.9113-.1818-1.5972 2.9662-1.5972-2.9659.9113.1815zm-3.0641-.3056h1.3756l2.0619 3.8284v.546H7.625v-4.3744zm-.625 0v4.3744H4.8125v-2.1863c0-1.2062.9813-2.1878 2.1875-2.1881zm8.7531 4.3744v-.3131h3.4344v.3131h-3.4344zm0-5.9372h3.4331v4.9991h-3.4331V15.125zm-.625 5.3116v.6256h-3.4406v-.546l2.0619-3.8284h1.3787v3.7488zm.6213-12.812v.3988c-.4603-.4843-.876-.7637-1.2785-.905l.9882-1.1015c.1843.5022.2903 1.0422.2903 1.6078zm-4.6869-4.6868c1.7756 0 3.3241.9928 4.1191 2.4525L13.7372 7.001c-.5238.0078-1.0581.187-1.6756.3972-1.1719.3981-2.7497.9328-5.3682.6228-.0025 0-.0043-.0012-.0065-.0012-.0006 0-.0013.0003-.0022.0003-.1003-.0119-.2053-.0275-.309-.0419v-.3534c0-2.5844 2.1024-4.6869 4.6868-4.6869zm-4.0631 7.4997V8.6809c2.531.236 4.0906-.2925 5.2631-.6912 1.4622-.4978 2.1431-.7238 3.4869.9947v1.4531c0 2.4125-1.9625 4.375-4.375 4.375s-4.375-1.9625-4.375-4.375zm4.375 5a4.9709 4.9709 0 001.8756-.3684v1.05l-1.2059.2406-.5291-.2647c-.0069-.0034-.0147-.0031-.0219-.0059a.3062.3062 0 00-.06-.0163c-.02-.0034-.0384-.0072-.0581-.0072-.0197 0-.0381.0041-.0578.0075-.0206.0041-.0406.0078-.06.0163-.0072.0028-.015.0025-.0219.0059l-.529.2647L9.5 16.1194v-1.0497a4.9702 4.9702 0 001.8744.3678z" fill="#fff"/><path d="M11.3844 17.9378a.3124.3124 0 100-.625h-.0032a.3108.3108 0 00-.3106.3125c0 .1728.1413.3125.3138.3125zM17.6902 16.6231a.3122.3122 0 00-.4419 0l-.7812.7813a.3122.3122 0 000 .4419l.7812.7812a.312.312 0 00.4419 0l.7812-.7812a.3122.3122 0 000-.4419l-.7812-.7813zm-.2209 1.3416l-.3394-.3394.3394-.3394.3393.3394-.3393.3394z" fill="#fff"/>
  </symbol>

</svg>