<svg width="30" height="30" viewBox="0 0 30 30" fill="none" xmlns="http://www.w3.org/2000/svg">
<path d="M21.4655 13.4441L17.0848 10.9063L12.7344 8.39875C12.3114 8.15706 11.828 8.09664 11.4051 8.21748C10.9821 8.33833 10.5893 8.61023 10.3476 9.03319C10.257 9.15404 10.2268 9.30509 10.1664 9.45615C10.1362 9.54679 10.1362 9.66763 10.106 9.78848C10.106 9.81869 10.106 9.87911 10.106 9.90932V15.0453V20.1812C10.106 20.6646 10.3174 21.1178 10.6196 21.4199C10.9519 21.7522 11.3748 21.9335 11.8582 21.9335C12.1301 21.9335 12.7041 21.6918 12.8552 21.6012L17.1452 19.1238H17.1755L17.2057 19.0936L21.6468 16.5256C22.0697 16.2839 22.3416 15.8912 22.4625 15.438C22.4927 15.3474 22.4927 15.2265 22.4927 15.1057C22.4927 14.1087 21.4655 13.4441 21.4655 13.4441ZM20.8613 15.2265L16.4806 17.7643C16.4504 17.7643 16.4202 17.7945 16.4202 17.7945L12.1301 20.2719C12.0999 20.3021 11.9489 20.3625 11.8884 20.3625C11.828 20.3625 11.7676 20.3323 11.7072 20.3021C11.677 20.2719 11.6467 20.1812 11.6467 20.1208V15.0151V9.90932V9.87911C11.6467 9.8489 11.6467 9.8489 11.6467 9.81869C11.6467 9.81869 11.6467 9.78848 11.677 9.78848C11.677 9.78848 11.7072 9.75827 11.7072 9.72806C11.7374 9.69784 11.7978 9.66763 11.828 9.63742C11.8884 9.63742 11.9489 9.63742 11.9791 9.63742C12.0093 9.66763 12.0395 9.66763 12.0697 9.69784L16.3597 12.1752C16.39 12.2054 16.4202 12.2054 16.4202 12.2054H16.4504L20.831 14.7432C20.8915 14.7734 21.0123 14.864 21.0123 14.9546C21.0123 15.0755 20.9217 15.1963 20.8613 15.2265Z" fill="white"/>
<path d="M25.6043 4.41088C22.704 1.48036 18.8671 0 15.0302 0C11.1934 0 7.35653 1.45015 4.42601 4.38066C1.4955 7.34139 0.0151367 11.1782 0.0151367 15.0151C0.0151367 18.852 1.46529 22.6888 4.3958 25.6193C7.32632 28.5498 11.1632 30 15 30C18.8369 30 22.6737 28.5498 25.6043 25.6193C28.5348 22.6888 29.9849 18.852 29.9849 15.0151C29.9849 11.1782 28.5348 7.34139 25.6043 4.41088ZM24.5469 24.5317C21.9185 27.1601 18.4744 28.4894 15.0302 28.4894C11.5861 28.4894 8.14202 27.1601 5.51363 24.5317C2.85502 21.9033 1.55592 18.4592 1.55592 15.0151C1.55592 11.571 2.88523 8.12689 5.51363 5.49849C8.14202 2.87009 11.5861 1.54079 15.0302 1.54079C18.4744 1.54079 21.9185 2.87009 24.5469 5.49849C27.1753 8.12689 28.5046 11.571 28.5046 15.0151C28.5046 18.4592 27.2055 21.9033 24.5469 24.5317Z" fill="white"/>
</svg>
