<svg width="14" height="28" viewBox="0 0 14 28" fill="none" xmlns="http://www.w3.org/2000/svg">
<path d="M0.804106 28C0.909321 28.0006 1.01362 27.9792 1.11103 27.937C1.20843 27.8948 1.29703 27.8326 1.37173 27.754L13.7635 14.6041C13.8385 14.5252 13.8979 14.4314 13.9385 14.328C13.9791 14.2246 14 14.1137 14 14.0017C14 13.8897 13.9791 13.7788 13.9385 13.6755C13.8979 13.5721 13.8385 13.4782 13.7635 13.3994L1.37173 0.249501C1.22119 0.0897483 1.01701 0 0.804106 0C0.591205 0 0.387026 0.0897483 0.236483 0.249501C0.0859394 0.409254 0.00136471 0.625926 0.00136471 0.851851C0.00136471 1.07778 0.0859394 1.29445 0.236483 1.4542L12.0686 14.0017L0.236483 26.5493C0.16155 26.6281 0.102072 26.722 0.0614834 26.8253C0.020896 26.9287 -9.53674e-07 27.0396 -9.53674e-07 27.1516C-9.53674e-07 27.2636 0.020896 27.3745 0.0614834 27.4779C0.102072 27.5813 0.16155 27.6751 0.236483 27.754C0.311185 27.8326 0.399777 27.8948 0.497183 27.937C0.594588 27.9792 0.69889 28.0006 0.804106 28Z" fill="#1D0B14"/>
</svg>
