<svg width="18" height="33" viewBox="0 0 18 33" fill="none" xmlns="http://www.w3.org/2000/svg">
<g clip-path="url(#clip0)">
<path d="M1 33.0002C1.13161 33.0009 1.26207 32.9757 1.38391 32.926C1.50574 32.8762 1.61656 32.8029 1.71 32.7102L17.21 17.2102C17.3037 17.1172 17.3781 17.0066 17.4289 16.8848C17.4797 16.7629 17.5058 16.6322 17.5058 16.5002C17.5058 16.3682 17.4797 16.2375 17.4289 16.1156C17.3781 15.9937 17.3037 15.8831 17.21 15.7902L1.71 0.290185C1.5217 0.101882 1.2663 -0.00390625 1 -0.00390625C0.733698 -0.00390625 0.478304 0.101882 0.290001 0.290185C0.101698 0.478489 -0.00409126 0.733884 -0.00409126 1.00019C-0.00409126 1.26649 0.101698 1.52188 0.290001 1.71019L15.09 16.5002L0.290001 31.2902C0.196272 31.3831 0.121876 31.4937 0.0711079 31.6156C0.02034 31.7375 -0.00579834 31.8682 -0.00579834 32.0002C-0.00579834 32.1322 0.02034 32.2629 0.0711079 32.3848C0.121876 32.5066 0.196272 32.6172 0.290001 32.7102C0.383442 32.8029 0.494255 32.8762 0.616093 32.926C0.73793 32.9757 0.868393 33.0009 1 33.0002Z" fill="white"/>
</g>
<defs>
<clipPath id="clip0">
<rect width="17.5" height="33" transform="matrix(-1 0 0 1 17.5 0)" fill="white"/>
</clipPath>
</defs>
</svg>
