<?xml version="1.0" encoding="utf-8"?>
<!-- Generator: Adobe Illustrator 24.0.1, SVG Export Plug-In . SVG Version: 6.00 Build 0)  -->
<svg version="1.1" id="Слой_1" xmlns="http://www.w3.org/2000/svg" xmlns:xlink="http://www.w3.org/1999/xlink" x="0px" y="0px"
	 viewBox="0 0 587.9 102.8" style="enable-background:new 0 0 587.9 102.8;" xml:space="preserve">
<style type="text/css">
	.st0{fill:#FFFFFF;}
</style>
<title>plash</title>
<g id="Слой_2_1_">
	<g id="Слой_1-2">
		<path class="st0" d="M494.2,32.9C494.2,32.9,494.2,32.9,494.2,32.9L494.2,32.9z"/>
		<path class="st0" d="M299.7,48.2v0.3c0,1.5,1.1,2.2,2.5,2.2h6.5v-4.5h-6.4C300.9,46.1,299.7,46.7,299.7,48.2z"/>
		<path class="st0" d="M323.8,45.9H318v4.7h5.9c1.5,0,2.7-0.8,2.7-2.4C326.4,46.8,325.2,45.8,323.8,45.9
			C323.8,45.9,323.8,45.9,323.8,45.9z"/>
		<path class="st0" d="M529.9,66.1C529.9,66.1,529.9,66,529.9,66.1L529.9,66.1L529.9,66.1z"/>
		<path class="st0" d="M449.7,24.8C449.7,24.8,449.7,24.8,449.7,24.8L449.7,24.8L449.7,24.8z"/>
		<path class="st0" d="M325.9,41.4c0-1-0.9-1.8-2.3-1.8H318v3.7h5.9C325,43.3,325.8,42.5,325.9,41.4z"/>
		<path class="st0" d="M447.4,45.1L447.4,45.1z"/>
		<path class="st0" d="M503.6,60.9L503.6,60.9z"/>
		<path class="st0" d="M381.3,47.4c0,1.2-0.4,2.3-1,3.3h7.7V39.6H382L381.3,47.4z"/>
		<path class="st0" d="M181.1,32.4h-6.6v8.7h6.6c2.8,0,3.7-2.3,3.7-4.4C184.9,33.7,183.1,32.4,181.1,32.4z"/>
		<path class="st0" d="M397.4,48.2v0.3c0,1.5,1.1,2.2,2.5,2.2h6.5v-4.5h-6.4C398.6,46.1,397.4,46.7,397.4,48.2z"/>
		<path class="st0" d="M191.6,48.2v0.3c0,1.5,1.1,2.2,2.5,2.2h6.5v-4.5h-6.4C192.8,46.1,191.6,46.7,191.6,48.2z"/>
		<path class="st0" d="M354.9,39.8h-1.3c-1.8-0.1-3.4,1.2-3.5,3c0,0.1,0,0.3,0,0.4v0.9h8.3v-0.9C358.4,40.8,356.9,39.8,354.9,39.8z"
			/>
		<path class="st0" d="M587.4,44.3c-0.6,0.5-1.4,0.5-2,0c0.3-0.2,0.5-0.7,0.2-0.6c-0.8,0.7-1.9-0.5-2.3-1.5
			c-0.6,0.2-0.5,0.7-1.3,0.9c-0.2-0.7-1-1-1.6-0.8c-0.2,0.1-0.3,0.2-0.5,0.3c-0.2,1.1,1.1-0.5,1.2,0.2c-0.5,0.6,0.4,1.6-0.4,2
			c-0.6-0.2,0.1-0.5-0.2-1.2c-0.8,0.5-0.9-0.3-1.5-0.3c-0.9,0.2,0,0.8-0.9,1c0.3-0.4,0.2-1.1-0.2-1.4c-0.2-0.1-0.4-0.2-0.7-0.2
			c0.3-0.5,0.5-1.2,0.5-1.8c-1.2,0.3-1.6-0.8-2.9-0.3c-0.1,0.6,0.9,0.4,0.2,0.9c-0.6-0.8-1.3,0.4-1.8-0.6c-0.5,0.6-2.3,0.8-2.6,0
			c-1,0.4-0.5,1.3-1.6,1.6c0.5-1.1-0.9-0.8-0.4-1.8c-0.6,0.5-0.6-0.2-1.1,0.1c0.1,0.4,0.2,0.8-0.3,1c0-0.5-0.4-0.4-0.5-0.8
			c-0.8,0.3-0.5,1-1.1,1.4c0.1-1.5-1.1-0.7-1.4-1.3c0.7-0.2,1.4-0.3,2.2-0.3c-0.7-1-2.6,0.2-3.3-0.8c1.5-0.1,3.4-0.8,4.5-0.1
			c-0.4,0.2-0.9,0.4-0.6,0.9c1-0.5,0.7-0.7,1.5-0.8c0.2-0.5,0.1-1,0.2-1.4c-2.1,0.9-4,1.1-4.1-0.6c0,0.6-1.1,0.8-0.9,0
			c-0.9,0.3-0.2,1.1-0.8,1.5c-0.2-0.5-0.9-0.1-1.2-0.3c0.4-0.3,1.5,0,1.2-0.9c0-0.7-1.1,0.8-1.1,0.1c0.2-1.1,0.3-0.9-0.4-1.6
			c0.9-0.3,0.7-0.8,0.8-1.3c-1,0.7-0.5-0.9-0.6-1.2c-0.9,0.5-0.1,1.4-1,1.9c-0.4-0.7-1.2-0.7-1.9-0.8c0.2,0.6,0.7,0.5,0,1.1
			c-0.7-0.2-0.7,0.5-1.5,0.8c0.5-1.1-0.8-0.4-1.7,0.2c-0.4-0.8-0.8-1.1-0.2-2c-0.8,0.2-1.4,0.9-1.6,1.7c-0.1-1.2-1.8-0.4-1.3-1.6
			c-0.4,0.1-1.2,1-1.3,0.5c0.9-2,3.2-0.2,4.1-1.8c-0.9,0-1.9,0.3-2.8,0.3c1.3-1.7,0.6-2.7,1.4-4.3c-1.4,1-2.3-0.8-3.9-1.3
			c0.4,0.6,0.3,1.1,0.9,1.9c-2,0.8-3.8,1.2-4.7-0.2c-2.3,1.5-2.7-0.8-5,0.9c0-0.7-0.6-0.2-0.8-0.6l-1.2,0.8
			c-1.3-1.5-4.3,0.3-5.5-0.1c0.3-0.2,0.7-0.4,0.6-0.7c-0.3-0.1-0.5-1.1-0.9-0.2c0.6-0.4,0.1,0.7-0.3,0.8c-0.3-0.4-2.5,0-2.9-0.2
			c0.2,0.5,1.1,0.7,0.6,1.1c-0.8,0.1-1.5,0.2-2.3,0.1c0.1-0.8,0.7-1.5,0.7-2.4c-0.8,1.5-2.2,3.6-3.4,2c0.7-0.4,0.4-0.7,1-0.6
			c-0.6-1.5-1.9-0.7-3-1.9c-1.3,1.3-2.1-0.9-4.1,0.8c-0.1-0.8-0.9,0-1-1c0.3-0.2,0.7-0.4,0.6-0.7c-1.4,1-1.7-1.2-3.4-0.5
			c0.1,1.2,2,0.4,1.7,1.4c-1.3,0.3-4.5-1-4.1,0.6c-1-0.3-2.2-1.6-4-1.2c-1.1,0.7-1.2,1.3-1.9,1.1c-0.5,0.9,0.3,1,0,1.6
			c-0.2,0.1-0.5,0.1-0.6-0.1c-0.2-0.5,0.1-0.9-0.3-1.5c-0.9,0.5,0,1.2-0.5,1.8c-1.1,0.6-0.1-1.7-1.3-1.1c0.2,0.5,0.1,0.8-0.4,1.2
			c-0.7-0.5-0.2-0.7-0.3-1.5c-0.6,0.8-0.5-0.6-1.1,0.2c-0.5,0.7,0.7,0.4,0.1,1c-0.9,0.8-0.8-1.2-1.2-1.7c0.5,0.2,1.8-0.4,1.5-1.4
			c-1.3,0-2.7,0.4-3.7-0.5c0.1-0.2,0.4-0.3,0.4-0.5c-1.2,0.6-0.1,1.6-1.1,2.3c-0.2-1.2-1.5,0.7-1.8-0.1c0.5-0.6,1.5-0.4,1.3-1.8
			c-0.8,0.4-1,0.9-1.5,1.4l-0.6-1.6c-1.2,0.5-1.9-0.3-3.1,0.3c0.3,1.1,0.4-0.5,0.6,0.1c0.1,0.4-0.4,0.6-0.5,0.9
			c-0.5-1.1-1.6-1.7-2.8-1.6c-0.8,0.4-0.2,0.9-0.9,1.3c-0.8,0-1.1,0.4-1.2-0.8c-0.9,0.4-0.5,1-0.8,1.5c-0.5-0.1-1-0.4-1.5-0.6
			c0.4,1-0.2,0.7-0.9,1.3c0-0.7-1-0.9-0.9-0.1c1.8,0.5,3.9,0.1,5.9,0.1c-0.5,0.5,0.1,1.1-0.2,1.6c-2-0.5-6,1-6.1-2
			c-0.7-0.1-0.3,0.6-1,1.1c-0.4-0.7-1.2-0.5-1.8-0.7c0.1-0.9-0.6-0.6-0.3-1.3c0.6-0.1,1.3-0.5,1.6,0.3c-0.2,0.2-0.6,0.5-0.6,0.7
			c0.6-0.5,0.8,0.3,1.4-0.2c-0.2-0.9,0.6-1.5,0.4-2.4c-0.8-0.1-0.3,0.6-1,1.1c-0.4-1.6-2.8,1.1-2-1.4c-0.2,0.1-0.5,0.1-0.7-0.2
			c0,0,0-0.1-0.1-0.1c-0.7,0.1-0.6,1.4-1.1,0.9c-0.1-0.3,0.3-0.5,0.2-0.8c-0.8,0.1-1.5-0.2-2.3,0.1c0.8-0.6-0.8-0.4-0.1-0.8
			c0.6,0.5,1.5-0.1,2.2-0.3c-1.2,0.1-1.3-0.6-2.2-0.9c-0.1,0.4,0.3,0.9-0.3,1.2c-0.1-0.3-0.4-0.1-0.5-0.5c0.3-0.5,0.1-1.1,0.5-1.6
			c0.5,0.6,1.5-0.1,1.9,0.9c0.7-0.4,0.7-0.9,1.2-1.2c1.2,0.7,1.1,2.4,2.9,1.3c0.4-0.7-0.9-0.5,0-1.2c0.2,1,0.4,1.1,1.1,1.2
			c0.5-0.6-1.2-0.9-0.1-1.7c0.1,1,0.9,0.7,0.7,2.1c1.4-0.8-0.6-1,0.6-2c0.4,1.2,1.4,0.5,0.5,1.7c1.2-1.1,2-1,1.6,0.3
			c0.3-0.2,0.5-0.3,0.6,0.1c0.5-0.3,0.5-1.7,1.2-1.2c0,0.5-0.1,1.1-0.2,1.6c0.5,0.1,1.6,0.7,1.9-0.3c-0.6,0.4-0.9-0.2-1.5,0
			c1.6-0.9,3,0.7,3.7-1.6c0.5,0.9,1.6-0.2,2.1,0.7c-0.6-0.1-1.6,1.1-1.8-0.1l-0.9,0.7l0.4,0.9c0.7-0.5,1.5-0.5,2.6-0.8
			c0.1-0.5-0.2-1.1,0.5-1.6c0.6,1.2,2.3,0.4,2.8,0.3c-0.1,1,1,1.1,0.3,2.1c0.2-0.1,0.3,0,0.4,0.3c0.5-1.1,1.3-1,1.2-2
			c0.6,0.1,0.5,1.3,0.2,1.9c1.1-0.5,2.8,1.3,2.4-0.6c0.4-0.2,1.4,0.5,1.5-0.5c-0.3-0.2-0.9,0.2-1-0.4c1-1.1,1.2,0.1,2-0.3l-0.2-0.4
			c0.2-0.2,0.2-0.4,0-0.6c-0.4,0.2-0.8,0.7-1,0.4c-0.2-0.2-0.2-0.6,0-0.8c0,0,0,0,0,0c0.9,0,2.2-0.4,2,1.2c1.1-0.3,2.4-0.2,3.4,0.4
			c-0.5,0.5-0.8,1.2-0.7,1.9c0.9-1.8,0.4,0.3,1.6-0.3c0.3-1.1-1-1.2-0.2-2.1c1.3,0.2,2.9-0.4,3.7,1.1c1.7-1.2,3.4,0.1,4.9-1
			c0-0.5-0.6-0.4-0.3-0.7c0.9-0.2,0.5-1.7,1.3-1.2c0,0.5-0.5,1-0.6,1.5c0.5,1.1,1.7,0.7,2.5,1.2c-0.6,0.4-1.4,0.8-1.2,1.4
			c0.5,0.2,1.3-0.2,1.8,0.2c-0.3-0.5,0.6-0.7,0.5-1.1c-0.8,0.6-1.5,0.8-1.9,0.4c1-0.4,1,0.1,1.1-1c1,0.2,2.3-0.1,3.3,0.1
			c-0.2-0.6,0.1-1.3,0.8-1.5c0,0,0,0,0,0c0.1,0,0.3-0.1,0.4-0.1c-0.1-1-1.1,0.5-1.3-0.3c0.7-0.9,1.9-1.4,2.4,0.1
			c-0.8,0.8-0.8,0.6-0.7,1.3c-1,0.3-0.2-1.2-1.4-0.5c0.2,0.5,0.6,0.4,0.7,1.2c1.7,0,4.2-0.6,4.7,0.8c0.8-0.3,0.6-0.8,1.4-1.1
			c0.1,0.2,0.3,0.1,0.4,0.3c0.4,0.3-0.5,1.2,0.3,0.9c1-0.9,4.1-0.8,4,0.8c1-0.2-0.1-0.9,0.5-1.1c0.2,0.3,0.7-0.1,1-0.4
			c0,0.9,0.6,0.5,1.2,0.1c0.1,0.3-0.2,0.5,0,0.8c0.7-0.5,0.9,0.1,1.6-0.4c-0.1-0.4,0-0.8,0.3-1c0.2,0.3,0.5,0.4,0.8,0.6
			c-0.5,0.3-0.6,0.1-1.1,0.4c0.5,0.4,1.1,0.5,1.2,0.9c0.1-1.4,1.3,0.1,2-1.2c1.4,1,3.2,1.1,5.4,0.3c0.2,1,0.3,0.5,0.9,0
			c0.8,0.7,2.6,1.3,3.6,0.3c0.2,1.4,2.6,0.1,3.1-0.4c-0.2,0.1-1-0.3-0.5-0.5c0.5-0.2,1,0,1.3,0.4c-0.3,0.2-0.6,0.4-0.4,0.8
			c0.9-0.2,1.3,0.5,2,0.8c-1.1-1.7-0.4-3.1-2.1-2.3c-0.5-0.9-1.6-0.7-2.2-1.5c-0.8,0.3-0.8,1.1-1.5,0.9c-0.1,0.6,1,0.4,0.3,0.9
			c-1.5-0.5-3.4-0.9-3.4-2.4c-0.9,0.4-0.3,1.2-1.3,1.6c-0.2-1.5-2.1-0.5-2.6-0.6c0.5,0.1,0.7,0.5,0.9,1.1c0.9-0.8,2.2-0.3,1.7,0.6
			c-1.3,0.5-1.9-0.5-3.2,0l-0.2-0.7c0.5-0.6,1.1,0,1-0.6c-0.5,0.4-0.4-0.7-0.6-1c-1.9,1.1-1-1.5-2.5-1.3c-0.1,0.8,0.9,0.8,0.4,1.1
			c-1-0.1-2-0.4-2.9-0.7c-0.8,0.2-0.5,0.7-1.1,1c-0.3-0.5-0.6-0.9-1-1.3c-0.6,0.6,0.2,1.6-0.1,2.3c-0.6,0.4-0.8-0.2-1.2-0.1
			c0.7-0.9-0.5-0.9-0.9-0.9c0.7-1-0.4-0.8-0.1-1.3c0.1-0.1,0.3-0.2,0.2-0.4c-1,0.3-0.1,1.1-1,1.4c-1.2,0.3-0.7-2.2-1.7-1.7
			c0.3,0.4,0.2,0.9-0.2,1.2l0,0c-1.7,0.6-1.5-1.9-1.7-2.2c0.1,0.5-0.5,0.9-0.7,1.3c0.2,0.6,1.3,1,0.9,1.6c-2,0.4-1.1-1.4-2.3-2.2
			c-0.5,0.3-0.4,0.6-0.9,0.9l-0.5-1.4c0.4-0.3,1.2,0.6,1.4-0.3c-0.7-0.1-1.5,0.2-1.9-0.4c2.1-0.1,4,0.2,6.1,0.3
			c-1-1.7-5.5,0.4-5.1-1.8c-0.3-0.6-0.9-0.5-1.4-0.5c0.1,0.3,0.3,0.6,0,0.8c-1.1-0.1-2.4,0.4-3.5,0.3c0.1,0.3,0.3,0.6,0,0.8
			c-0.3-0.6-1.2,0.3-1.4-0.5c0.5-0.2,0.8,0.1,1.4-0.3c-0.8-1.1-1.4-1-1.6-2.6c-1.2,0.6-0.2-0.8-2.1,0c-0.4-1.7-3.3-0.8-4.9-1
			c0.1,0.3,0.3,0.6,0,0.8c-0.1-0.1-0.3-0.1-0.6,0.1c0.5-0.9,0-1.7-1-1c-0.3,0.2-0.1,0.5-0.3,0.8c-0.3-0.6,0.2-0.7-0.4-0.9
			c-0.5,0.3-0.3,0.6-0.5,0.9c-0.2-0.4,0.1-0.7-0.1-1.1c-1-0.3-3.1,0.6-3.3-0.6c-0.9,0.4,0.2,1.1-0.6,1.5c-1-2.4-3-1.5-4.5-0.6
			c0.2-0.2,0.3,0.1-0.1,0.4c0.8,0.1,1.3,1.6,0.5,2.6c-0.6-0.5-0.2-1.1-1-1c0.3-0.5,0.6-1,0.2-1.6c-0.8,0.5-0.1,1.2-0.8,1.7
			c-0.6,0.1-0.8,0.7-1.4,0.1c-0.3-2.6-3-2.1-4.2-3.4c0.3,0.5,0.5,1,0,1.4c-0.9-0.2-1.4,0.2-1.1-1.2c-1.5,1,0-1.2-1.2-0.6
			c0.4,0.7,0,1.2-0.1,1.8c-0.2,0.1-0.5,0.1-0.6-0.1c0.1-0.5,0.5-0.9,0-1.4c-0.7,1.1-1.2,0.3-0.9-0.6c-3.4,0.8-5.9-1.7-8.4,0.7
			c-0.3-1-1-0.4-1.3-1.4c-1.2,1.1-1.6,0.4-1.8-0.7c-1.3,0.2-1.9,0.9-2.1-0.5c-1,0.3,0.4,1-0.2,1.4c-0.8,0.5-0.9-0.6-1.5,0.6
			c-0.2-0.9-0.7-0.8-1.2-0.6c0.1,0.3,0.3,0.6,0.1,0.8c-2.9-1.2-7.2-0.8-9.4-2.5c0.9-0.2,2.4,0.6,2.9-0.2c-0.3,0.1-0.7,0.1-0.4-0.3
			c0.6-0.2,1.4-0.4,0.9,0.5c1.1,0.1,1.1-1.4,0.7-2.1c-1.4,0.8-3.6,1.9-3.4,0c-0.7,0.9-0.8-0.5-1.4,0.2c0,0.7,1,0.4,0.5,0.9
			s-1,0-1.4-0.4c0.1-0.2,0.4-0.4,0.3-0.6c-0.6,0.4-0.8,1.1-0.4,1.7c0,0,0,0,0,0c0.1,0.1,0.1,0.2,0.2,0.3c0.6-0.2,0.7-0.7,1.3,0.2
			c-1.1,0.5,0,1.4-0.8,1.9c-0.3-0.4-0.7-0.2-1.1-0.4c0.2-1.9-1-3.7-2.8-4.2c0.6,0.7-0.6,0.9-0.9,0.7c0-1.2-1.8-0.3-2.6-0.3
			c0.1,0.4,0.5,0.7,0.3,1c-1,0.5-0.7-1.7-1.4-1.4c-0.1,1.3-0.9,0-1.2,0.1c0.2,0.5-0.9,0.9-1.1,1.3c-0.2-0.4-0.5-0.3-0.7-0.7
			c0.4,0.2,1.1,0.1,0.8-0.7c-0.9,0.5-1.8,0.4-1.3-0.7c-0.8,0.3,0.2,0.8-0.6,1.1c-0.4-1.4-0.5-0.1-1.1-0.3c-0.2-0.5-0.2-1,0.1-1.4
			c-0.1,1,1.4,0,2,0.2c-0.5-0.4,0.2-0.8,0-1.2c-0.5,0-1.1,0.3-1.4-0.3c0.2-0.8,0.7-0.7,1.3-1.1c-1.5,0-1.8,0.6-2.8,1.7
			c-0.7-0.8-1.8,0.7-2.5,0.9c-0.1,0.6,0.3,1.2,0.1,1.8c-0.7-0.3-1.6,0.2-2.3-0.3c-0.1-0.5,0.2-1.5-0.6-1.1c-0.1,0.7,0.8,0.6-0.1,1.4
			c-0.1-1.1-0.3-0.4-0.9-0.5c0-0.5,0-0.9,0.1-1.4c0.2,0.1,1.2,0,1-0.5c-0.5,0-1,0.6-1.3-0.1c0.3-0.7,1.1-0.2,0.8-0.7
			c-0.4,0.2-0.4-0.3-0.4-0.6c-0.6,0.3-1,0.9-1,1.5c-0.4-0.2-1,0.3-1.3-0.1c-0.6,0.5-1,2.1-1.6,1.5s0.7-1.2-0.1-1.8
			c-0.9,0.5,0.4,1.2-0.5,1.8c-1.3,0.1-2.6,0.3-3.6-0.9c-0.1,1.3-1.1,0-1.5,0.1c-0.6,0.3-0.7,1.7-1.4,1.3c-0.3-0.9-0.7-1.7-1.2-2.5
			c-0.1,0.4-0.6,0.7-1.2,1.1c-0.4,1,1.1,0.1,0.6,1.1c-0.8,0-2.4,0.1-2.5-1c0.5-0.3,1.1,0.4,1.3-0.5c-1.3-1-3.7,0.5-4.5-0.7
			c-1.9,0.6-3.1,2-3.9,0.4c-0.4,0.5-0.5,1.3-1.1,0.8c0.2-0.3,0.2-0.7,0.6-1L422.6,5c-0.5,1.9-2-0.7-2.4,0.7c0.6-0.5,0.8,0.3,0.5,0.8
			c-0.5-0.4-1.2,0.8-1.6-0.1c0.5-1-0.5-0.4-1-1.1c-0.8,0.3,0.3,0.8-0.5,1.2c-0.1-0.1-0.3-0.4-0.5-0.2c-0.1,0.9,1.7,0.6,1,2.1
			c-0.7-1.1-2.6,1-2.6-1.1c-0.4,0.3-0.3,0.7-0.6,1c-0.4-0.8-1.4-0.1-1.3-1.1c0.5-0.6,0.7,0.7,1.2-0.1c-1.2-1-2.1-0.5-2.5-1.9
			c-0.5,0.6,0,1.2-0.4,1.8c0.9-1.1,1.6,0.5,1.1,1.2c-0.7-0.7-1.5-0.4-2.2-0.9c0.1-0.5,0.4-0.9,0.8-1.3c-0.5-1.1-1.1-0.6-1.7-1
			c-0.7,0.4-0.4,0.9-0.7,1.4c-1-1.6-3.4-0.2-4.4-1.7c-0.2,0.6,0.1,1.2,0,1.8c-1.1,0.3-0.2-1.3-1.2-0.8c0.1,0.3,0.3,0.5-0.1,0.8
			c-0.3-0.3-0.9-0.7-0.8-1.2c0.5,0,1,0,1.5-0.2c-0.2-0.4,0-0.8,0.5-1.2c-1-0.4-2.2,0-3.3-0.1c-0.9-0.7-0.2-1.3-0.1-2
			c-1.1,0.6-0.4,0.6-1.2,1.6c1.2,1.6,2,0.8,3.1,1.3c-0.9,0.4-0.7,0.7-1.4,1.2c0,1,0.6,1,0.2,2.2c0.4-0.4,1.5,0.2,1.2,0.5
			c-0.7,1-1.9-0.3-1.5-1.3c-0.3,0.4-0.8,0.5-1.2,0.2c0,0,0,0,0,0c-0.2-0.2-0.4-0.4-0.4-0.7c0.5-0.8,0.7,0.4,1.1-0.2
			c-0.1-0.3,0.1-0.5,0.4-0.8c-2.3-1.4-7.3,1.5-7-1.9c0.1,0.2,0.3,0.3,0.5,0.2c0.2-0.1,0.3-0.2,0.2-0.4V3.5c-0.2-0.1-1.3,0.1-0.9-0.4
			c0.8-0.1,1.6,0.6,2.3,1.4c0.9-1.5,1.4,0.3,2.2-0.5c-0.3-0.8-0.8,0.1-1.1-0.2c0.1-0.5,0-0.9,0.3-1.4c-0.8-0.5-0.5-1.4-1.4-0.6
			c-0.1,0.8,1.3,0.9,0.4,2c-0.7-1.2-1.6-1.8-1.2-2.6c0.3-0.6,1.3,0.3,1.1-0.8c-0.2,0.2-0.6,0.1-0.8-0.1c0,0,0-0.1,0-0.1
			c-0.6,1.4-2.1,0.3-1.9,2.4c-0.4-1.2-2.8-2.4-3.8-1.2c0.1-0.2,0.2-0.5,0.1-0.8c-0.2,0.2-0.5,0.4-0.6,0c-0.3,0.5-0.4,1.1-0.1,1.6
			c0.9-0.2,1.7-0.2,2.6,0c-0.3,0.5,0.4,0.9-0.3,1.4c-0.4-1.3-2.3-0.1-3.3-1.4c0.5-0.5,0.8-0.2,0.6-1c-1-0.4-3.2,0.6-3-1
			c-0.3,0.9-0.7,1.9-1.5,0.6c-0.4,0.3-0.2,0.6-0.6,1c0.3,0.9,0.7-0.5,0.9,0.4c-1.2,1,0.5,0.4,0.1,1s-0.9-0.1-1.3,0
			c0.7-1.1-0.6-1.1,0-2.2c-0.4,0.8-1.8,1.7-2,0.4c-0.3,0.4-0.6,0.2-0.9,0.6c-0.5,1.6,1.9,0.9,1,2.2c2.3-0.9,3.7,0.4,5.6,0.7
			c-0.9,1.3-1.6-0.7-2,0.8c-0.7-0.4-0.7-0.6-0.7-1.4c-1.2,0.7-0.5,0-0.7,1.2c-0.6-0.4-1,0.1-0.7-1c-1.1,0.1,0,1.6-0.2,2.4
			c-0.7-0.6-1.5,0.6-2.3,0c0.2-0.4,0.2-0.8,0.4-1.2c0.3,0.8,0.7,0.3,1.1,0.6c0.5-0.3,0.5-1.7-0.1-1.4c0.4,0.2,0.3,1.3-0.1,0.8
			c-0.3-0.3-0.5-0.8-0.5-1.2c-0.6,0-2,0.7-1.9,0c0.6-0.7,1,0.3,1.6-0.4c-0.4-1-1.1,0-1.1-1c-0.5,1.7-3.3,1.5-3.1-0.2
			c-0.8,0.5-0.5,1.5-1.2,1c-0.2-0.3,0-0.7-0.1-1C376,3.2,376,2.4,375.8,2c-0.5,0.3-1.1,0.6-1.7,0.8c1.2,0.7,2.1,1.9,2.5,3.3
			c-0.7,0-0.5-0.7-0.6-1.2c-0.7,1-1.2-0.1-1.8,0.6c0.3,0.5-0.1,0.9-0.6,1.4c-0.6-1.2-1.4,0.1-1.6,0c-0.2-0.3-0.6-0.7-0.4-1
			c0.2-0.2,1.2,0.5,1-0.4c-0.2,0.1-1.2-0.6-0.9-0.8c0.2,0.3,0.7,0.3,1,0.1c0.2-0.2,0.3-0.4,0.2-0.7c-0.7-1.3-1.6-0.1-2-1.4
			c-0.4,0.3-0.1,0.7-0.2,1c-0.7-0.2-2.1,0.4-2.2-0.8c-1.3,1.2-1.6-0.4-2.7-0.6c0,0-0.9,1-0.8-0.2c-0.6,0.4-0.2,0.8-0.7,1.2
			c-0.2-1.3-1.8-0.2-2.5-0.7c0.2,0.4,0.1,0.8-0.4,1.2c-0.9,0.5-0.3-0.8-0.8-0.6c0.1,0.3,0.1,0.7-0.2,1c-0.3-1-0.7,0.6-1,0
			c-0.4-0.4,0.3-0.8,0-1.2c-1.1,0.5-2.1-0.9-3.2-0.3c0.3,0.3,0.3,0.7,0.1,1c-0.8-0.9-1.4-1-1.5,0.3c-1.1-0.6-2.5-1.4-3.2,0.1
			c-0.5-0.8-1.1,0-1.6-0.3c-0.1-0.7-0.6-0.5-0.8-1.4c-0.3,0.8-0.4,1-1,0.8c0,0.8,0.8,0.5,1.3,0.8c-0.5,0.8,0.1,1.6,0.3,2.4
			c-0.7,0.3-1.4,0.3-1.6-0.8c-1,0.3-1.9,1.3-2.9-0.3c-0.6,0.3,0.1,1.4-0.5,1c-0.2-0.2-0.1-0.4-0.2-0.6c-1.4,1.4-3.9-0.2-5.7,0.7
			c0.8-0.9,0.8-0.7,1.3-1.7c0.3,0.9,0.6-0.5,1,0.4c-0.2,0.3-0.5,0-0.3,0.4c1.6,0.4,2.2-0.7,3.7-0.4c-0.4-0.4-1.2-0.4-0.3-1.2
			c-0.6-0.6-1-0.4-1.3,0.5c-0.4-0.4-2.1-1.4-3-0.8c0.2,0.3,0.6,0.6,0.2,1c-0.4,0.5-0.9-0.4-1.3-0.3l0.5-0.6c-1.6,0.1-3.1,0-4.7-0.3
			c-0.6,0.4-0.2,0.8-0.6,1.2L333.3,4c-0.4,0.3-0.1,0.7-0.1,1c-0.3-0.4-0.6,0.3-1-0.3c0.1-0.3,0.5-0.6,0.3-0.8
			c-0.5,0.3-1-0.3-1.4,0.3c0.2,0.3,0.6,0.6,0.2,1c-0.3-0.5-0.6,0-1-0.7c0.2-0.3,0.3-0.7,0.1-1c-0.9,1.7-1.8-0.1-2.7,0.4
			c-0.1,0.4,0.6,0.8,0.3,1.2c-2,1.3-5-1-7.4,1.5c-0.3-0.3,0.3-0.7-0.2-1c-0.8,0.1,0.1,0.5-0.4,1c-0.8,0.1,0.1-0.5-0.5-1
			c-0.4,0.4,0,0.8-0.6,1.2c-0.7-0.6-1.4,0.2-2.1-0.4c0.2-0.3,0.3-0.7,0.1-1c-0.2,0.2-0.4-0.1-0.7-0.4c-1.1,1.3-1.9-0.3-2.7,0.4
			c0.1,1.2,1.1,0.3,1.6,0.7c-0.1,0.2,0,0.4-0.1,0.6c-1.2,0-2.3,0.1-3.5,0.3c0.5-0.6,1.2-0.9,2-0.8c-0.4-0.3-0.1-0.7-0.2-1
			c-1.1,1.3-0.8-0.1-1.6,0.1c-0.1,0.6-0.8,1.4-1.4,1.4c0.2-1,0.4-1,0.6-1.7c-0.4,0.7-1,0-1.4,1.1c-0.1-0.8-1.2-1-1.3,0.1
			c-1.3-1.1-2.5-0.5-3.7-0.3c-0.7-0.3-0.7-1.7-1.2-1.3c0.4,1.1-0.6,0.3-0.9,1.7c-1.3-1.8-2.9-0.2-3.6-2.1c-0.4,0.7-1-0.2-1.4-0.1
			c0.8,2.3-3.1,0.8-4,0.2c-0.2,1.3,1.2,0.7,1.2,1.3c-0.4,0.5-0.9,1.1-1.3,1.2c0.3-1.1-0.3-0.3-0.7-0.3c0.1-0.6-0.1-1.1-0.4-1.6
			c-0.6,0.6,0.4,1,0.1,1.6c-0.6,0.7-1.4,0.7-1.1,2.1c-0.4-0.8-0.5-1.7-1-2.5c-0.3,1-1.4,1-1.8,1.8c-0.2-0.8,0.9-1.8,0.9-2.7
			c-1.2-0.3-1.2,2.7-2.8,1.1c1.6-0.5,1.2-1.8,2.8-2.5c-0.6,0.1-2.1-0.1-2.2,0.6c0.1-0.1,0.3-0.1,0.5,0.2c-0.6,1.3-1.2,1.5-1.9,1.6
			c0.3,0.6,0.7,0.6,0.1,1.6c-0.4-0.1-0.7,0.4-1.1-0.1c0.2-0.6,0.9-0.2,0.3-0.8c-0.8,0.3-1.2,1-1.8-0.4c-0.5,1.4-2.2,1.1-2,0
			l-0.6,0.9c-0.4-1-0.7-0.4-1.3-0.6c-0.4,0.8,0,1.3-0.8,1.7c-0.7-0.7-1.5-1.4-2.4-0.7c0.4,0.6,1.5,0,1.4,1c-0.6-0.1-0.8,0.7-1,0.7
			c-1.1-0.7-1.4-0.5-2.1-1.8c-1.4,1.4-3.4-1.8-4.7,0.5c-0.1-0.5-0.3-0.7-0.7-0.7c-0.7,0.5,0.2,1.8-0.8,1.7c-0.5-0.4,0.4-1-0.3-1.4
			c-1,0-1.8,0.7-2.6-0.5c-0.8,0.5,0.5,0.7,0.1,1.2c-0.8,0.1-1.9,0.6-2.4-0.7c-0.6,0.2-1.3,0.8-2,0.1c-0.3,0.5-0.1,1-0.6,1.5
			c-0.7-1.2-1,0.6-1.6-0.2c-0.1-0.5-0.2-1-0.5-1.5c-0.5,0.9,0.9,1.6,0.2,2.6c-0.3-0.4-0.5-0.1-0.8-0.1c0-0.5,0.1-1-0.3-1.4
			c-0.5,0.6,0.3,1.2-0.5,1.3c-0.6-0.6-0.4-1.3-0.3-2c-0.5,1.2-0.3-0.8-0.8-0.1c0.2,0.4-0.2,0.2-0.4,0.7c0.3,0.4,0.7,0.1,0.5,0.5
			c-0.4,0.9-1,0.2-1.6,0.2c0.3-0.8,0.8,0.4,1-0.7c-1-1.2-1.7,0.2-1.9-1.6c0.1,1-0.4,1-0.4,1.7c0.4,0.3,0.7,0.8,0.7,1.3
			c-0.6,0.1-1.9,1-2.1-0.3c0.5,0.5,1.2-0.1,1.1-1c-1-0.6-1.9-0.1-3-1.2c-0.7,1.1-1.8-0.4-1.6,1.2c-0.9-0.6-1.4-0.3-2-0.9
			c0.2,1.3-1.3-0.2-1.6,0.8c0.6,0.7,0.9-0.4,1.5,0.4c-1,1.5,1,0.3,0.8,1.5c-0.6,0.5-1,0.2-1.2,0.6c-0.9-1.2-2.2-1.3-3.2-2.4
			c-0.2,0.6,0.6,1.1,0.4,1.8c0.4,0.6,1.3-0.1,1.2,0.8c-0.9-0.2-1.9-0.6-2.6,0.6c-0.8-0.4-1.7-1.4-2.2-0.1c-1.1-0.1-1.6-2.7-2.6-1.4
			c0.8,0.2,0.7,0.9,1,1.7c-1.5-0.9-3.6,0.4-4.2-1c0.4-1.1,0.3,0.8,0.7-0.3l-0.9-0.9c-0.1,1.2-0.9,1.2-1.5,1.3
			c-0.5-1.5-1.3-0.6-2.1-1.3c-0.6,0.6-0.4,1.1-0.9,1.1c-1.1-1.1,1.5-1.9-0.1-2.4c0.2,1.3-1.7,2.9-2.8,2.5c0.2-0.3,0.2-0.7,0-1
			c-0.5,0.5-0.1,0.8-0.4,1.3c-1.2-0.1-1.2-1.4-1.9-0.1c-0.3-0.4,0-0.9-0.4-1.4c-0.5,0.5,0,0.8-0.4,1.3c-0.8-0.7-1.6-1-2.2-0.1
			c-0.7-0.4,0.3-1.1-0.6-1.5c-0.4,0.3-1-0.1-1.4,0c0.5,0.3,0.7,0.7,0.5,1.1c-2.6-0.3-5.1-0.2-7.7,0.3c0.1-0.3,0.2-0.6-0.1-0.8
			c-0.2,0.9-0.7,0-1,0.4c0.2,0.3,0.2,0.7,0,1c-0.8-0.3-1.4,0.4-2.3-0.4c-0.3,0.4,0,0.7-0.3,1.1c-1.2-1.3-1.8,0.3-2.9-0.3
			c0.1-0.2,0-0.4,0-0.6c0.5,0.2,0.9-0.2,1.3-0.4c-0.9-0.1-1.6-0.7-2-1.5c-0.8,0.7,1,0.9,0.6,1.5c-2.1-0.1-6.2-2.7-8.1-1.4
			c-0.4-0.9-0.6-0.4-1.2-0.4c0.2,1.4,2.3,0.7,2,2.1c-1.7,0.2-3.4-0.1-4.9-0.8c-0.6,0.7-0.1,1.1,0.2,0.2c0,0.6,1.7,0.9,1.8,1.9
			c-1.2-0.1-2.3-0.6-3.1-1.5c0.2,0.2,0,0.5-0.2,0.8c-2.3-1.2-4.3-0.8-7-3.7c-0.2,0.6-0.1,1.3,0.2,1.8c0.3-0.3,0-0.8,0.3-0.7
			c0.4,0,0.6,0.2,0.5,0.7c-0.5,0-0.9,0.5-1.5,0.3c0.1-0.4-0.3-0.6-0.3-1c-0.4-0.2-0.6,1.3-1.1,1c-0.2-0.2-0.6-0.4-0.5-0.7
			c0.8,0,0.7,0.1,0.8-1c0.4,0.2,1,0.2,1.4,0c-0.6-0.7,0.9-0.4,0.3-1.1c-0.7,0-0.4,0.1-0.8,1c-1.4,0.5-2.2-1-3.3-1
			c0.7,1,1.8,2,1.4,3.2c-0.7,0.8-2-1.2-2.9-0.9c-0.4,1.3-1.1,0.6-1.7,0.7C177,9.5,175,8.6,175,9.5c0.5-0.1,1.4,0.2,0.8,1.1
			c-0.6-0.6-0.9-0.3-1.4-0.6c0.2-0.4-0.4-0.6,0-1c-0.9-0.2-1.7-0.6-2.6-1c-1,2.1-2.1-1.2-3,1.2c-0.6-0.6-0.9-0.2-1.4-1
			c0.3,1.2,0.9,2.4,1.6,3.4c-2,0-4.1,0.6-5.6-2c-1.4,0.4-3.8,0.7-5.3-1.4c1.3-2.4,4.7,1.9,5.7,0.1c-0.3,0.4,0.5,1.5,0.8,1.1
			c-0.2-0.3-0.2-0.7,0-1c1,0.4,2,2.9,3.3,2.2c-0.9-1.3-2.8-3.8-4.2-3.7c-0.1,0.6,1.2,0.9,0.6,1.5c-1.3-0.9-2.2-1.1-3.3-2.9
			c-0.8,0.5-1.7,1-2.6,1.3c-1.3-1.4-2-0.7-2.6-2.6c-0.5,0.6,0.6,1,0,1.6c-1,0.3-0.5-0.1-0.5,1.1l-1.8-1.4c-0.3,0.5-0.9,0.6-1.4,0.4
			l-0.1-0.1c0.1-0.9,0.6-0.3,0.8-0.6c-0.6-0.3-0.9-0.8-0.9-1.5c-0.5,0.3-1.1-0.4-1.4,0.7c0.4,0.5,0.8,0.9,0.3,1.6
			c-0.8-1-1.8-2-2.7-3c-0.4,1.8-1.8-1.6-2.2,0c0.3,0.9,0.8,0.4,0.8,1.3c0.3-0.6,0.9,0.3,1.3,0.2c-0.1,0.4,0.1,0.7-0.2,1.1l-1.2-1
			c0.1,1.5-1,0.2-1.5,0.9c1.5,1,2.9,0,3.9,2.7c-1.2,0.8-4.3-2.8-4.3,0.4c-0.4,0.1-0.8-0.3-1.3-0.8c0.1-0.3,0.3-0.6,0.1-0.8
			c-2.1,0.9-4.7-0.6-6.8,0.5c0.1-0.4-0.3-0.6-0.4-1c-0.3,1-1-0.2-1.3,0.5c0.6,0.8,1.3,0.3,1,1.2c-0.9,0.3-1.9,0.3-2.8,0.1
			c-0.5,0.5,0,0.8-0.3,1.3c-0.2-0.3-0.2-0.6-0.7-0.9c-0.3,0.5,0,1-0.4,1.5c-0.7-0.6-0.7-0.2-1.2-1c-0.1,0.8,0.3,1.6,0.2,2.4
			c-0.7-0.2-1.4-0.9-1.9,0l0.4,0.3c0,0.1-0.1,0.3,0.1,0.4c0-0.3,0.2-0.6,0.5-0.6s0.6,0.2,0.6,0.5c0,0,0,0.1,0,0.1
			c-1.2,0.1-1.9,0.3-3-0.6c0.1,1.2-0.8,0.4-0.6,1.4c-0.1-0.5-0.6-0.9-0.9-0.4c0.7,0.6,0.9,1.5,0.5,2.4c0.6,0.2,1.3,0.2,2,0.4
			c-0.3,0.6,0.7,1,0,1.6c-0.7-1.1-1.9-1.6-3.1-1.4c-0.1-0.8-0.8-2.2-1.6-1.3c0.5,0.4,0.8,0.1,1.3,0.8c0,0.5-0.2,1-0.6,1.3
			c-0.2-0.3-0.3-1.5-0.9-1.1c0.3,0.1,0.4,1.2-0.1,0.9c-0.5-0.4-0.2-1.2-1.1-1.6c-0.3,0.4,0,1.7-0.4,1.5c0.1-0.6-0.8-2-1.3-1.8
			c-0.1,0.8,0.6,0.7,0.6,1.1c-0.7-0.5-0.1,1.3-0.6,0.7c0.1-1.7-2-2.1-2.8-1.5c-0.2-0.5-0.4-1-0.3-1.6c-0.4,0.6-0.9,0.4-0.9-0.4
			c-0.3,0.6-0.8,0-1.1,0.6c0.8,1,2,1.6,3.2,1.8c-0.1,0.2,0,0.4,0,0.6c-2.8-1.1-4.2,0-7.2-1.8c-0.1,0.8-0.5,0.4-0.7,1
			c1.1,1.3,2.8,1.1,4,3.1l-0.2,0.5c-2-1.1-4.3-3.4-5.6-1.4c-1.6-0.5-4-1.4-4.6,0.1c0-0.3-0.3-0.5-0.6-0.5c0,0,0,0,0,0
			c-0.1,0-0.2,0-0.3,0.1c0.5,0.4,0.8,0.8,0.4,1.3c-0.4-0.1-0.8,0.2-1,1c-0.5-0.4-0.8-0.1-0.7-0.9c0.2,0.2,0.5,0.5,0.7,0.3
			c-0.4-1.2-1.4-0.6-2.2-1.6c0.2,2.5-1.9,2.6-3,3.7c0.5,1-0.4,1.7-0.8,2.4c0.7,2.7,3.5,4.3,6.2,5.3c-0.1-0.9-0.6-0.6-0.8-1.3
			c0.8-0.7,1.6,0.9,2.5,0.3c1,3.4,5,1.1,6.6,2.6c1.6-1.6,4.4-0.5,5.6,0.1c-0.4,0.2-1.8-0.6-1.4,0.7c1.3,0.4,2.3-0.4,3.4,0.8
			c1-0.5,3.1-0.8,3.5,0.5c0.8-0.2-0.2-0.5,0.2-1.1c0.9,0.1,2,1.7,2.6,0.7c-0.4-0.6-1.2,0.5-1.2-0.4c0.7-0.3,2-1,1.9,0.6
			c1.7-1,3.7-0.7,5.6-0.5c0.8,1.5,2.3,2.6,4,2.9c0.1,0.8,0,1.7-0.1,2.5c-0.4,0-0.8-0.3-1.1-0.6c0.3-0.5,0.1-1.2-0.3-1.6
			c-0.9,0.5-2,0.6-3,0.2c-0.2,0.4,0,0.7-0.2,1.1c-0.5-1-0.7-0.2-1.4-0.5c0-0.2,0.2-0.5,0-0.6c-0.2,0.4-0.4,0.7-0.6,0.7
			c0.7,0.5,2.4,1.1,2.2,2.2c-1.4-0.1-2.4-1.5-3.4-0.8c-0.3,0.5,0.7,0.8,0.2,1.4c-0.7,0.4-1.8-0.5-2.4,0.5c0.5,0.4,1,0.8,0.8,1.3
			c-0.5,0.7-1.4-0.5-1.8,1c-0.2-0.2-0.1-0.5-0.5-0.7c-0.4,1-1.4,1.4-2.4,1.1c-0.5,1.5-1.4,1-2,2c4,1.6,7.4,0.3,11.5,2.4
			c1-0.9,2.3-0.2,3.7,0.7c0.8-1.2,2.7-0.9,3.6,0.9c-1-0.4-2.3-1.8-3-1c1.7,0.8,3.5,2.2,4.8,1.3c-0.1,1,1.1,1.2,1.6,1.1
			c-0.5-0.6-1.8-1.1-1.8-1.9c1.3,0.2,1.9,2.2,3.4,2.6c0.2-0.4,0-0.7,0.2-1.1c0.6,0.1,2.1,0.9,1.5-0.3c0.2,0.2,0.3,0,0.5,0.1
			c0.1,0.7,0.9,1.2,1,1.8c-0.2,0.2-0.4,0.2-0.6,0.1c-0.5-0.3-0.2-0.8-0.8-1.1c-0.1,1.2-0.9-0.6-1.1,0c0.7,1.1,0.7,0.4,1.6,1.1
			c0.2,0.7-0.4,1.4-0.8,1.2c0.6,0.6,1.3,1.1,1,1.8c-1.1-1.2-3.4-3.8-3.7-1.9c-0.5-0.2-0.9-0.3-1.5-0.3c0-0.3,0-0.7-0.1-1
			c-0.3,0.5-0.7,0.8-1.1,0.6c-4.6-2-9.5-1.7-13.2-1.7c0.9,0.8,1.9,1.6,3,2.3c-1,0.1-2,0.1-2.9,0c-0.3,0.3-0.4,1.5-0.8,1.2
			c-0.5-1.4-1.4,0.7-2.4-0.5c-0.3,0.9-0.7,0.2-1.4,0.7c0.5,0.5,0.8,0,1.3,0.5c-0.2,0.6,0,1.3-0.6,1.4c1.9,1.6,4.1,3,6.4,4
			c1.4,0.7,4.7,2.7,6.2,2.2c2.3,2,5.4,2.3,7.7,2.4c2.1,1.5,4.1,1.5,6.4,1.8c-0.2-0.2-0.2-0.5-0.2-0.8c0.8,0.6,2.3,0.1,2.3,1.4
			l0.6-1.4c3,0.8,5.7,2.4,7.7,4.6c0.9-0.4,1.8-0.2,2.4,1.2c1.8-2.1,4.9-2.8,7.4-1.6c-0.2,0.4-0.7-0.4-0.9,0.2c0.5,1,0.9,0.8,1.3,1.8
			c0.4,0,0.8-0.5,1.4,0.3c0.3-0.8,0.8-1.2,1.3-1.1c-0.1,0.7,0.5,1.3,1,1.8c2.7-2.3,5.8-2.6,9.4-0.8c0.5-1.6,1.7,0.7,2.5,0.4
			c0.2,2.3,3.1,0.8,2.6,3.4c3.2-3.3,9,1,11.7-0.1c1.2,1.2,2.9,1.8,4.6,1.5c2.6,1.7,4.8,1.5,7.1,1.2c2.1,1.2,3.1,1.1,5,2.2
			c0.3-0.3-0.1-1.4,0.6-1.1c0.3,1.8,2.2,1.6,3.1,1.7c-0.2-0.3-0.7-0.6-0.6-0.9c1.8,1.6,4.7,2,6.2,0.8c-0.5-0.2-3-2-2.7,0
			c-0.9-0.3-1.9-1.3-2.8-1.8c0.2-0.5,0.4-0.3,0.6-0.7c-0.6-0.7-1.7,0.4-1.9-0.9c1,0.3,2.5-0.2,3.2,1.5c1.9-2.5,5.3,1.3,7.6-0.4
			c0.7,0.8,1.3,0.1,1.2,1.2c0.1-0.9,0.5-0.3,0.8-0.5c-0.2-0.2-0.5-0.5-0.4-0.7c1.2,1.1,2.1,0,3.2,0.9c-0.2,0.2-1.2,0.2-0.4,0.9
			c0.8-1.3,1,0.1,1.4-0.2c-0.8-0.6,0.3-0.4,0.4-1.3c1.2,0.6,1.9,0.3,2.8,1.2c-0.6,0.4,0.1,1.7-0.2,0.8l0.6-1.1
			c1.9,0.4,3.7,0.9,5.5,1.5c-0.5-0.6-1.3,0-1-1.1c0.9,0,1.8,0.3,2.4,0.8c-0.2-0.2-0.4-0.5-0.1-0.8c0.6,0.9,0.9,0.1,1.4,0.4
			c0,0.2-0.2,0.4,0,0.6c0.7-1,1,0.6,1.4,0.4c-0.2-0.3-0.2-0.7,0-1c1.9-0.2,3.5-0.6,5,0.5c0.4-0.5,0.8-1.4,1.3,0
			c0.3-0.4,0.1-0.7,0.3-1c0.6,0.8,1.8,0.9,2.6,0.3c0.1-0.1,0.2-0.2,0.3-0.3l0.7,0.7c5-2.4,10.7-0.2,15.8-1.5
			c1.2,0.7,2.2,0.3,3.3,0.2l0.6,0.7c0.7-0.7,1.9-0.6,2.6,0.1c0-1.3,0.6,0,1.2,0.3c3-1.4,6.3,0.5,9.4-0.3l0.5,0.6
			c23,0.2,44.9,3.6,66.9,4.2c-0.1,0.3,0.2,0.6,0.5,0.7c0,0,0,0,0,0c0.2,0,0.3,0,0.4-0.1c-0.1-0.4-0.5-0.2-0.4-0.6
			c0.9-0.7,0.5,0.7,1,0.8l0.6-0.8c3,0.8,5.2,0.7,8.1,1.4c-0.1-0.3,0-0.8,0.2-0.6l0.5,0.8c5.6-0.3,11.1,1.4,16.7,1.2
			c2.5,0.7,4.9,1.3,7.5,0.6c0.8,1,1.9-0.3,2.6,0.9c1.7-1.2,2.9,0.9,4.6-0.2c3.2,1.7,6.9,0.2,10.1,1.8l0.7-0.8c2.4,1.4,6,0,7.9,1.5
			c1.2-1.3,2,0.8,2.8-0.6l0.4,0.8c1-0.9,1.8-0.1,2.9,0c2,0.2,5.5-0.6,5.9,0.8c4.8-0.1,9.3,1.3,14.2,1.1c0.1,0.2-0.1,0.4,0,0.6
			c2.8-0.2,5.8-0.6,8.1,0.8l1.1-1c0.8,1,2,0.7,2.9,0.4c0.1,0.3-0.3,0.5-0.3,0.8c0.6,0.3,1.6-1.1,2.1-0.5c2.2,1.2,4.8,1,7.6,0.8
			c-0.3,0.1-0.2,0.5-0.2,0.9c3.5-0.7,6.4,0.3,9.4,0.8c0.5-0.3,0.3-0.8,1-1.1c0.1,1.3,1,0.4,1.2,1.7c1.4-1.3,1.8,0,3-0.9
			c0.8,1.3,3.5,0.7,5,1.2c0.9-1.7,2.4,0.8,3.9-0.2c0.3,0.5-0.3,0.8-0.2,1.2c0.5-0.1,1.4-1.1,1.6,0.3c1.9-0.8,3.2-0.3,4.5,0.1
			c0.8-0.4-0.1-1.3,0.9-1.7c0.7,1.3,2,2.2,3.5,2.5c0.4-0.8-0.4-0.4-0.5-1.2c0.7-0.3,0.3-0.9,1-1.2c0.3,1,1.1,1.7,2,1.1
			c-0.2-0.1-1.2-0.1-0.7-0.8c0.9,0.2,1.8,0.2,2.2,1.2c0.5-0.3,0.4-0.7,1-1c0.5,0.6,1.3,0.1,1,1.5c1.7-1,2.2,0.4,3.4,0.6
			c0.2,0.5-1.3,0.7-0.8,1.3c1-0.2,0.8-1.7,1.5-1.3c-0.3,0.6-0.5,1.9,0.5,1.2c0-0.4-0.2-0.8,0.1-1c1.6-0.1,3.2,0.2,4.6,0.9
			c0-0.1,0.1-0.2,0.2-0.2c1.2-0.1,3.8-0.2,3.4,1.1c0.4-0.4,0.5,0,0.7,0c0-0.4-0.1-0.7,0.4-1c-0.2,1.1,0.8,0,0.6,1
			c-0.3,0.1-0.6,0-1,0.2c0.3,1.3,1.7-1.4,2-0.1c0.8-0.8,0.8,0.2,1.5-0.2c0.2-0.7-0.7-0.4-0.1-0.9c1.2-0.2,2.4,0.3,3.2,1.3
			c0.1-0.4,0.2-0.7,0.4-1c0.1,0.4,0.7,0,0.8,0.4s-0.3,0.6-0.4,1c0.5-0.3,1.2-0.4,1.7-0.1c-0.3,0.1-0.7,1.1-0.1,0.8
			c0.5-1.7,1.1,0.1,1.9-0.5c0.4-0.4-0.2-1,0.3-1.4c0,1.3,1,0.6,1.4,1.1c-1,0.7,0.2,1.2,0.6,1c-0.3-0.4-0.3-1.2,0.5-1.8
			c0.2,0.2-0.1,1.3,0.4,1c0.6-2,2.9-0.8,3.7-0.6c-0.3,0.2-0.5,0.4-0.4,0.7c1.1-0.8,0.3,0.1,0.8,0.2l1.2-0.7c-0.3-0.7,0.4-1,0.6-1.5
			c-1.2,0.2-1.4,0.4-1.8-0.6c-1.4,1.2-0.8,0-2.4,1c0.6-0.6,0.2-1.3-0.4-1.2c0,0.4,0.2,0.8-0.1,1c-0.1-0.4-0.9,0.9-1,0.1
			c0.2-0.7,0.8-1.3,0.7-2.1c-0.8,0.5-0.1,1.5-1.3,2c0-1.5-2,0.7-1.9-1c0.5-0.5,1.4-0.9,1.3-1.5c-1,0.8-1,0.7-1.5,1.7
			c-0.5-1.9-2.3-1.2-3.7-1.5c0.2-0.1,0.2-0.4,0.2-0.6c0.5-0.3,0.4,0.4,1-0.2c-0.3-1-1.5,0.8-1.9,0.5c0.3-0.6,0.5-1.2-0.2-1.1
			c0.4,1-0.5,0.5-1.3,1.3c-0.4-1.1-3.9-0.6-3.4-2.6c-0.8,0.2-0.5,0.7-0.8,1c-0.9-0.4-2.1,0-2.7-0.9c0.2,0.4,0.1,0.9-0.3,1.2
			c-0.3-0.3-0.7-0.1-0.7-1c0.3-0.3,0.8-0.5,0.9-0.8c-0.5,0.3-0.5-0.5-1.2,0.1c0.2,0.6,0,1.1-0.8,1.5c-0.3-1.8-3.1,0.7-2.8-1.6
			c-0.4,0-0.6,0.1-0.9,0.6c0.2-1-1-0.3-0.4-0.9c0.3-0.2,0.6,0,0.7-0.5c-0.8-0.1-2,0.6-2.9,0.6c0.3-0.2,0.1-0.5,0.4-0.8
			c0.4-0.3,0.5-0.1,0.9-0.4c-1.3-1.4-4.2,0.6-5.1-1.6c-1,0.5,0.3,0.3-0.3,0.7c-1.4,0.4-2.2-0.4-3.6-0.2c-0.4-2-3.6,1-3.3-1.4
			c-1,1.3-1.2-0.7-2.6,0.7c-0.1-1.2-1-0.7-1.5-0.9c-0.6,1.4-2.5,0.7-2.5-0.9c-0.7,0.3-0.4,0.7-0.7,1.1c-0.2-0.7-1.1,0.6-1.3,0
			c0.4-0.5,0.4-1.5-0.3-1.1c0,0.4,0.5,0.9,0.1,1.3c-0.8,0.5-0.8-1.2-1.4-1.3c-0.2,0.8-0.4,0.7-1,1c-0.2-1.2-1.1-0.9-1.3-2.1
			c0.4,0,0.6-0.2,0.6-0.7c-0.2,0.1-0.4,0.3-0.5,0.1c0-0.4,0.8-0.7,0.7-1.1c-1.6,0.7-0.9-0.8-2.6,0.3c-0.1-0.7-0.5-0.8-1.1-0.4
			c0,0.3,0.3,0.7,0,1c-0.1-0.3-0.4,0.1-0.5-0.1c-0.4-0.5,0.5-0.9,0.1-1.4c-1.7,0.8-2.9-1.1-4.8,1.2c-0.1-0.2-1.1-0.1-0.5-0.9
			c0.4-0.6,0.9,0.5,1.1-0.6c-1,0.4-2.7-1.1-3,1.1c-0.2,0.2-0.4,0-0.5-0.1c-0.4-0.5,0.4-0.9,0.1-1.4c-2.2-0.3-5.3,0-6.8-1.1
			c-2.8,0.8-5-0.3-7.6-0.3c0.1-0.2,0.4-0.3,0.3-0.6c-2.2,1.6-4.8-0.4-7.2,0c-0.1-0.3,0.2-0.7,0.1-1c-1.8,0.5-3.1-0.2-4.9,0.2
			c0.2-0.3,0.4-0.5,0.2-0.8c-1.1,1.1-2.4,1.3-2.4-0.1c-2.1,1.3-3.3-1.1-5.4,0.2c0.4-1-1.2-0.7-0.9,0.3c0.5-0.8,1.2,0.1,0.8,0.7
			c-0.8,0.2-0.6,0.7-1.2,1.5c-1.1-0.6-0.3-2.3-0.1-2.8c-1.4,0.3-2.5-0.4-3.7-0.8c-0.4,0.3-0.3,0.6-0.6,0.9c-2.8-2.3-7.3-0.6-9.8-2.1
			c-0.8,0.6-0.9,0.4-1.5,0.9c-0.1-0.3,0.1-0.5-0.1-0.8c-5.5,0.2-9.9-1.5-15.2-1.2c-0.1-1-1.6-0.6-2.5,0.3c-0.6-1.5-1.6-0.2-2.4-0.5
			c-0.2-1-4.1-0.9-5.6-1.4c0.1,0.4,0,0.7-0.3,1c-1.1-1.7-2.7,0.3-3.2-1.3c-0.3,0.3-0.5,0.6-0.5,1c-0.4,0-0.6-0.5-0.6-1
			c-0.8,0.6-0.6-0.7-0.9,0.8c-0.9-0.6-2,0-2.8-1.1c0.1,0.3,0.2,0.5-0.1,0.8c-0.7-0.7-1.5,0.2-2.1-0.8c0.3,0.2-0.6,1.3-0.6,0.8
			c-0.6-0.4,0.4-0.8-0.1-1.2c-0.9,0.9-2.4,0.9-3.3,0l0-0.1c-0.7,1-1.5-0.3-2.7-0.4c-0.8,0-2.5,1.1-2.6-0.2c-3.4,1.5-5.6-1.2-8.9,0
			c0.2-0.3,0.5-0.5,0.3-0.8c-0.5,0.1-0.2,0.3-0.6,0.8c-1.5-1.6-5-0.2-7.4-1.4c0.1,0.2,0,0.5-0.2,0.6c-1.5-1.2-3.1-0.6-4.7-0.3
			c-1.9-1.1-4.3-1.7-5.9,0.2c-0.4-0.5,0.2-1.1-0.2-1.6c-0.6,1.1-1.1-0.4-1.7,0.1c0.2,0.4,0.6,0.2,0.4,0.6c-0.5-0.2-0.7-0.1-0.9-1
			c-3.6,1.2-7.1-1.3-10.7,0.1c-0.2-0.5-0.6-0.9-0.1-1.4c23.8,0.9,47.2,3,70.3,5.3s46.1,4.5,69.8,6.4c1.8,0.2,4.1,0.9,5.5,0.4
			c0.6,1,1.8,0.5,2.5,1.5c0.3-0.1,1-1.1,1.1-0.6c-0.4,1.2,1.6,0.3,2.1,0.2c1.2-0.2,2,1.6,2.7,0.6c-0.4-0.2-0.6-0.6-1.1-0.4
			c1.8-1.9,2.6,2,4.6,0.1c0.8,2.1,4.8-0.3,4.6,2c0.5-0.5,0.6,0,1.1-0.6c-0.1,1,1.4,1.3,2-0.2c1.2,0.4,1.9,1.9,3.6,1.3
			c0.4-0.4-0.3-1,0.2-1.4c0.1,0.3,0.7,0.8,0,1.3c1.2,1,3.4-0.2,4.4,1.3c0.3-0.8,1.3-0.6,0.9,0.4c0.5-0.2,0.4-0.6,0.6-0.9
			c0.5,0.5,1.9-0.3,1.5,1.2c0.6,0,1.2,0,1.8,0c1.8-1.8,3.9,1.1,6.5-0.3c0.9,2.2,4.3-0.6,4.9,2c0.8-0.9,0.5,0.3,1.2-0.3
			c-0.5-1.2-2.3-0.9-3.4-1.8c0.1-0.5,0.3-0.9,0.5-1.3c0.5-0.1,0.9,0,0.9,0.9c1-0.4-0.3-1.3,1-1.6c-0.5,0.9,1.4,0.5,0.3,1.8
			c1.1-0.6,1,0.8,1.8,0.1c-0.9,0.9-0.3,1-0.7,1.9c1.4-0.8,1.7,0,1.9,0.7c0.7-0.2,0.4-0.7,0.9-1c0.9,0.7,2.1,0.8,3.1,0.3
			c-0.9,0.2-1.1-0.8-1.9-0.8c0.7-0.4,0.6-1.1,1.6-1.5c-0.4,0.8,0.2,0.6,0.2,1.4c0.5-1.5,4.2-1.4,4.1,0c0.8-0.2,0.1-0.8,0.9-1
			c0,0.2,0.2,0.2,0.3,0.3c-0.3,0.9-0.2,1.4-1.3,2c0.6-0.2,0.9,0.1,1.3,0.2c-0.6,0.7-1.3,0.1-1.4,0.8c1-0.8,0.7,0.8,1.8-0.1
			c0.2-1-0.4-0.9,0-1.7c0.8-0.4,0.8,0.6,1.6,0.3c0-0.6,0.9-0.9,0.8-1.5c-0.3-0.2-1-1-0.2-1.6c0.5-0.1,0.1,1.3,0.7,1.1
			c0-1,1.5-0.6,1.1-1.4c0.6,0,1.3,0.7,0,1.5c0.3-1.2-0.4,0.2-1,0.6c-0.1-0.2-0.1-0.4-0.3-0.3c0.1,0.4-0.2,0.7-0.1,1
			c0.6,0.2,0.7-0.9,1.6-1.2c0.1,0.3,0.4,0.2,0.4,0.8c-0.4,0.5-0.9-0.2-1,0.6c1.2-0.2,1.7,0.9,3.2,0.3c-0.9-0.8-0.9-1.5-1.9-2.3
			c0.2-0.1,0.3-0.3,0.4-0.5c1,0.5,1.7,1.6,2.9,1.9c0.5-0.2,0.4-0.6,0.7-0.9c0,0.2,0.2,0.2,0.3,0.3c0.1,0.1-0.4,0.4-0.4,0.7
			c0.4,0.3,1.2,0.8,1.8-0.1c0.6,0.7,1,3,2.3,1.9c-0.2-0.2-0.5-1.2-1.3-2.4c1.1,0.1,1.2,1.8,2.7,1.1c-1,0.4-0.5,1.3-1.1,1.8
			c0.4-0.2,0.2,0.5,0.8,0c-0.4-0.5,0-1.5,0.8-2.1c0,1.3,0.7,0.7,1.6,0.1c0.8,2,2.4,1,3.6,2.1c0.7-1.3-1.3-0.9-0.5-2.3
			c1.3-0.2,1.3,1.8,3.4,0.3c0.4,1,1.4,0.9,2.2,1.2c0,0.5-0.4,0.9-0.1,1.5c0.3-0.1,0.7-0.4,0.8-0.2c-0.7,0.3-0.8,0.8-0.4,0.9
			c1.2-0.6,0.4-1.1,0.4-1.8c0.9,0.3,0-0.7,1-1c-0.3,1,0.1,1.5,0.8,0.5c-0.5-0.6-0.3-1.4-1.2-1.3c0.3-0.1,0.3-0.3,0.5-0.5
			c0.7-0.4,0.7,1,1.3,0c-0.7-0.8-2.2-0.2-2.8-1.2c0.1-0.4,1-0.5,1-1c-0.8,0.5-0.6-0.4-1.5,0.3c0,0.3,0.1,0.6-0.2,0.8
			c-0.6-0.1-1.4-1.1-0.7-1.8c-0.7,0.6-0.8,0-1.5,0.6c-0.1,1,1.2-0.2,1.1,0.8c-1.3,0.3-1.2-0.1-2.8,1c0-0.2-0.1-0.4-0.3-0.5
			c0.5-0.6,0.3-0.2,1-0.5c0-0.4,0.1-0.7,0.3-0.9c0-0.8-0.8-0.4-0.9-1.2c0.8-0.8,1.3,0.4,1.2-0.7c-0.8-0.2-2.3-0.6-2.9-0.1
			c0.5-0.3,0.6,0.3,0.6,0.9c-1.6,0.7-2.3-1-3.4-0.3c-0.1-0.4,0.2-0.7,0.7-0.8c0-1-0.5-1-0.9-1.2c-1.8,1.1-2.8-0.2-4.1-1.1
			c-0.1,0.5,0.8,0.5,0.2,1.1c-1,0.6-0.7-1-1.4-0.9c-0.2,0.4,0,0.9-0.6,1.1l-0.1-0.9c-1.6,0.9-1.2-1.7-2.1-2
			c-1.5,1.1-2.6-0.3-1.8-1.4c0.2,0,0.5,1.3,0.8,0.3c-0.8,0.2,0.7-0.6,0.4-1c-0.7,0.3-1.3,0.4-2,0.7c0,1.2,0,1,0.5,1.7
			c-1.7,0.3-3.1-0.3-3.1-1.4c0,0.5-1.2,0.7-1.5,0.6c0.6-1.4-1.4-0.1-1.7-0.7c0.2-0.3,0.3-1.8-0.3-1.6c-0.1,0.6-0.5,1.2-1,1.6
			c-0.2-1.3-1.5,0.8-1.7-0.9c0.6,0.2,0.5-0.4,0.6-0.9c-0.8,0-2-0.7-1.8,0.6c-0.6-1.2-1.9-1.8-3.2-1.5l-0.2-0.9c-1,0.2,0.1,1-0.5,1.3
			c-1-0.6-1-1.6-2.5-1.7c0.7-0.6,0.6,0.3,1.3-0.3c-0.8,0-1.8-1.4-2.5-0.5c0.3-0.2,1.1,0.3,0.7,0.6c-0.7-0.2-1.6,0.2-1.8-0.9
			c0.4-0.1,0.9,0.3,0.9-0.6c-0.6,0.1-1-0.6-1.2,0.5c0.4-1.3-0.5-0.7-0.8-1.3c0.6-0.2,1.2-0.4,1.7-0.8c0,0.6,0.5,0.2,0.5,1
			c2.3-2.2,2.8,1.5,5.3,0c0.4,1.1,2.1-0.3,2.3,1.1c1.6-0.1,3.2,0.2,4.7,0.9c0.2-0.4,0.8-0.8,0.8-1.3c0.3,0.2,1-0.3,1.1,0.3
			c0.9-0.4,1-1.1,1.6-1.7c0.1,0.6,0.3,1.3,0,1.7c0.7,0.1,1.4-0.2,2-0.7c0,0.7-0.2,1,0.4,1c0.4-1-0.6-1.2,0.2-1.9
			c0.3,0.4,0.9,1.3,1.6,0.1c0.1,0.6,0.5,0.5,0.7,0.8c-0.5,0.4-0.7,1.1-0.5,1.8c0.8-0.5-0.1-0.6,0.9-1.2c0.4,1,1.5,0,2.5,0.6
			c-0.3-1-0.5-1,0.2-1.9c-0.5,0.3-0.3-0.7-0.4-1c-0.6,0.2-1.2,0-1.7-0.3c-0.2,0.7,0.9,0.5,0.2,1.1c-0.1-1.1-1.9,0.6-1.2-1
			c-1.1,0.5-2.4,0.7-3.6,0.6c-0.1-0.3-0.1-0.7,0.1-1c-0.3,0.2-0.6,0.3-0.6-0.2c-0.9,0.1,0,0.8-0.6,1.1c-0.8,0.2-1-0.4-0.5-1.2
			c-0.7,0.2-0.6,0.7-1.2,0.9c-1-0.2-0.7-1.4-2.5-0.3c-0.1-0.4,0.6-0.7,0.3-1.2c-1,0.1-1.2,0.2-0.4-0.5c-0.3-0.3-1.2,0.4-1.6,0.2
			c-1-1.6-3.2-0.3-4.4-0.6c-0.1-0.9-0.7-1.9,0.3-2.5c0.1,0.6-0.3,1,0.2,1.1c0.8-0.2,0-0.8,0.9-1c2.3,0.6,4.8,0.9,7.2,0.7
			c0-1-0.8-0.4-1-0.9c0.3-0.9,1-0.5,0.8-1.3c-0.3,0.2-0.5,0.4-0.7,0.7c-0.6-0.8-0.4-1.4-1.1-1.6c0.8,0.6-0.3,0.8-0.2,1.6
			c0.4-0.2,0.9-0.6,1-0.4c-0.3,0.5-0.1,1.1-0.8,1.5c0.8-1.5-0.7-0.1-1-1.1c0.8-0.4,0.1-1.3,0-1.5c-1.5,0.1-4.1-2.3-5.7-1.1
			c0-0.5,0.9-0.8,0.5-1.3c-1.6,1.3-1.7,1-2.8,0.9c0.6,0.4-0.1,1.3,0.8,1.1c0-0.3,0-0.6,0.4-0.8c0.1,0.4,0.7,0.9,0.4,1.6
			c-0.3-0.6-2.8,0-1.9-2.4c-0.7,0.2-1-0.4-1.7-0.2c0,1,1,1,0.1,1.7c-0.8,0.4-0.5-1.4-1.3-1c1.2-1.7-1.7-1-1.4-2.2
			c-0.5,0.7,0,0.5-0.3,1c-0.6,0.3-1.4,0.2-1-0.7c-1,0.8-0.7-0.4-1.5,0.7c-0.5-0.4-1-0.9-0.5-1.8c-0.6-0.4-0.6,1.3-1.2,0.8
			c0.4-0.7,0.3-1.3-0.8-1c-0.4,0.3,0,0.7-0.3,1c-0.6-0.2,0-0.5,0-1c-0.4,0.3-0.6,0.1-1,0.4c-0.6,0.9,1,0.2,0.3,1.1
			c-1,0.3-1.6-0.8-0.8-1.9c-0.9,0.9-2.3,1.5-1.6,0c-0.6-0.1-0.4,0.4-0.9,0.8c-1.6-1.1-2.9-0.5-4.3-1.9c-0.8,0.3-0.6,0.8-1,1.2
			c-0.9-0.6-0.8-2.1-1.9-0.8c-0.3-1-1.2-0.4-1.1-1.1c0,0.3-0.3,0.5-0.6,0.7c-0.1-0.7-1.9-2.6-2.5-0.9c-0.4-1-1.3-1.7-1.4-2.6
			c-1.7,1.6-4-1.2-3.8,0.8c-0.9,0.3-0.1-1.3-1.3-0.5c-0.7,0.6,1.1,0.1,0.3,0.9c-0.8,0.2-2.3,0.1-1.5-1.4c0.2,0.3,1.3,0.4,1.3-0.1
			c-1.2,0-2.5-0.5-3.5,0.3c-0.5-0.5,0.7-0.7,0.1-1.2c-1.1,0.7-0.7-0.1-1.4,0c0.5-0.3,0.9-0.8,1.2-1.4c0.4,0.5,0.9,0.9,1.9-0.1
			c-0.4-0.6-1.3,0.4-1.6-0.5c-1,0.4-1.5,2-2.1,1.3c-0.3-0.6,0.3-1,0-1.6l-0.4,0.3c-0.1-0.1-0.1-0.2-0.3-0.1c0.3,0.6,0.4,1.3,0.1,1.9
			c-0.8-0.5-0.5,0.4-0.7,1.1c-1,0.2-0.4-0.9-1-1.4c-1.2,0.7-3.1,0.4-2.5-1.5c-1,0.7-0.1,1.6-0.8,2.3c0-0.7-0.3-1.4-0.2-2.1
			c-0.8,0.3-1.5,0.4-1.9-0.5c-0.8,0.5,0.3,1.4-1,1.9l-0.6-1.6c-0.5,1.3-1.1,0.5-2.1,1.1c-0.1-0.3,0.2-0.5,0-0.8
			c-1.1,0.5-2.6,0.3-2.5-1.4c-0.5,1-1.7,0.7-1.5-0.2c-1.5,1.7-1.6-0.5-2.7,0.2c0.2-0.8-0.1-0.2-0.5-0.5c0.2-0.2,0.4-0.4,0.5-0.7
			c-0.4-0.4-0.7-1.1-1.4-0.6c0.2,0.6,1.3,0.3,0.5,1.3c-1-0.7-2.7,1-3.7,0.5c-0.5-0.4-0.5-0.9-0.1-1.7c1.4-0.8,0.1,1.5,1.2,1
			c-0.4-0.9,0.4-1.6,0.5-2.4c-0.7,1.2-1.4,0.7-2.2,0.9c0,0.7,0.2,1.4-0.6,1.9c-0.3-0.3,0.3-1.4-0.4-1.1c0,0.3,0,0.7-0.1,1
			c-0.6-0.3-1.1-0.7-1.8-0.9c-1,1.4-2.5-0.3-3.8,0.3c0.3-0.3,0-0.7,0.1-1c-0.4,0.1-0.9,0.5-1-0.3c-1.2,1.7-1.5,0-2.4-0.3
			c0.1,0.8-0.7,0.2-0.7,0.9c0.2,0.8,0.5,1,1,0.9c-0.8,1.5-2.1,0.8-2.8,0c0.5-0.3,0.8,0.5,1.5-0.4c-1.2-0.7-2.7-0.5-3.8-1.7
			c-0.1-0.3,0.2-0.5,0.5-0.7l-0.5-1c-0.8,0.5-0.1,1.2-0.9,1.7c-1.4,0.7-0.8-1.2-2,0c-0.1-1.2,1.3-1.5,1.7-1.2
			c-0.2-1.2-1.6,0.3-1.3-1c-1,0.9-0.2,2-1.5,2.8c-0.5-0.9-3.2-0.3-2.2-2.9c0.5,0.6,1.2,0.9,1.9,1c0.2-1-0.9-0.2-0.3-1.3
			c-1.3,0.5-3-0.8-3.8-0.2c0.2-0.2,0.4,0,0.6,0.1c-0.6,0.7-1.2,0.2-0.6,1.2c0.4,0.7,0.2-1.2,0.6-0.5c0.8,0.9-0.4,0.4-0.3,1.2
			c0.9-0.2,0.2,1.2,1.4,1.2c-0.7,0.7-1.1,0.3-1.6,0.2c-0.1-0.5-0.1-1.6-0.8-1.1c-0.1,0.5,0.2,1-0.2,1.4c-0.5-0.3-1-0.4-0.6-1.3
			c0.6,0.4,0.7-1.2,1.3-0.9c-0.3-1.2-1.1,0.1-1.7,0c-0.1-0.3-0.4-0.7-0.2-1c0.4,0.3,0.9,0.1,1.4-0.1c0-1.2-0.5-0.1-0.8-1.1
			c0.8-0.2,1.5,0.3,2.3,0c-0.1-0.3-0.3-0.6-0.1-0.8c0.5,0.1,0.9,0.2,0.5,1c1-0.3,1.8-0.4,2.1,0.2c-0.2-0.7,0.6-0.6,0.6,0.1
			c0.2-0.2,0.4-0.5,0.5-0.7c0.4,0.2,0.6,0.5,0.7,0.9c1.1-1.3,1.7-0.4,2.3,0.1c-0.1-0.4,0.6-0.7,0.6-1.1c0.8,1.6,3.4-0.7,3.5,1.5
			c0.7-0.9,0.9,0.1,1.3,0.4c0.7-0.4,0.6-0.9,1.1-1.3c0,1.7,2.3-0.3,3.2,0.2c0.1,0.3-0.2,0.7-0.1,1c0.7-0.1,1.3-0.1,2,0
			c0.3-0.7-0.8-0.6,0-1.4c0.6,2.7,3.5,1.3,4.9,1.5c-0.2,0.4-0.5,0.9-0.3,1.4c0.7-0.5,1.1,0.2,1.7,0.1c-0.2-0.5-0.3-1.1-0.1-1.7
			c2.9-0.1,5.9,2.3,8.8,0.8c-0.4,0.1-0.8,0.2-1-0.4c0.7-0.3,0.4-0.8,1-1.1c0.3,1.6,1.3-0.1,1.7,0.1c0.4,0.5-0.1,0.9,0.3,1.5
			c0.8-1,1-0.6,1.6-1c0.2,0.4-0.1,0.7-0.2,1c0.7-0.3,1.6,1.2,2,0.2c-0.3-0.2-0.9,0.3-1.1-0.6c1.4,0,0.7-0.8,1.6-1.8
			c0.5,0.6,0.1,1,0,1.4c0.7,0.5,2.4,0.3,3.7,0.3c-0.3,0.9,0.4,1.1,0.6,1.8c0.8-0.4,0-1.1,0.9-1.5c0.1,0.8,0.6,1.5,1.2,1.9
			c-0.4,0.4-0.7,0.1-0.7,0.5c0.7-0.4,0.8,0.6,0.4,1.1c0.6-0.3,0.9,0.5,1.6-0.1c0-0.9-0.5-0.3-0.8-0.5c0.8-0.4,0.2-0.7,0-0.8
			c0.7,0.1,1.3-0.1,1.8-0.7c-0.4,0.3-0.7-0.5-0.3-0.7c1.3-0.4,1.8,1.3,2.8,1.5c-0.2-0.6-0.7-1.2,0.3-1.6c0,1.2,0.7,2.8,1.7,1.8
			c-0.3,0.3-1-0.1-0.5-0.5c0.7,0.2,1.6,0.1,2.2,0.7c0.4-0.2,0.8-0.6,1-1c0.5,0.5,0.2,0.5,0.4,1.3c0.4-0.3,0.6-0.1,1-0.4
			s0.1-0.5,0.3-0.8c2-0.4,2.6,1.3,4,1.9c0.1-0.7,0.2-1.4,0.5-2c0.5,0.3,1.2,0,1.4,0.9c-0.6,0.4-1.2-1-1.3,0.3
			c0.5,0.4,1.5-0.1,2.6-0.7c0.5,1.1-0.8,0.6-0.9,1.5c2.2-0.5,3.4,1,4.7,1.6c0-0.7-0.6-0.1-0.7-0.6c0.8-0.3,0.3-0.9,1-1.2
			c0.9,2.4,3.6,0.8,5.2,1.7c-0.3-0.5-0.1-0.9,0.5-1.1c0.2,0.9,0.5,1.6,1,1.7c0-0.3,0.1-0.5,0.3-0.8c1.1,1.1,2.9,0.3,3.8,1.8
			c-0.1-0.4,0-0.8,0.3-1c2,1.1,1.9,0.5,4,0.3c-0.2-0.4-0.1-0.9,0.2-1.2c0.3,1.2,0.8-0.5,1.2,0.3c0.2,0.4,0.2,0.9,0.1,1.3
			c0.5-0.3,0.8-0.4,1.1-0.2c0.1,0.4-0.6,0.5-0.6,0.9c1.3-0.2,0.9-0.5,2.1-0.3c-0.4,0.3-1.3,0.5-0.8,1c1.9-1.2,4.1,0.5,4.2-1.8
			c1-0.3,1.3,0.8,2.1,0.8c0-0.3-0.2-0.6,0.1-0.8c0.6,0.8,1.3-0.7,1.9-0.1c-0.1,0.9-1,1.6-1.1,2.5c0.9-1,2.8-1.4,2.3,0.2
			c2.5,0,5,0.3,7.5,0.8c2.4,0.5,4.8,1,7.3,1.3c0-1-1,0-1.2-0.6c0.4-0.7-0.5-0.5,0.3-1.2c0.1,0.3,0.5,0,0.6,0.2s-0.3,0.6-0.1,1.1
			c0.8-0.2,0.5-0.7,0.9-1c0.4,0,0.8,0,1.1,0.1c0,0.4-0.2,0.7-0.4,1c-0.8,0.4-1.6,1-2.2,1.7c0.6-0.3,0.6,0.5,1.4,0
			c0-0.4-0.5-1,0.3-1.2c0.8,0.8,3.1-0.8,3.5,0.9c0.7-0.7,0.9-0.6,0.6,0.2c0.8-0.7,1.1-0.3,1.6-0.4c-0.3-0.7-1.1-0.5-1.4-1.3
			c1.8-1.1,2,0.5,3.2,0.6c0.5-1.1,1.2-0.1,1.9-0.5c0.3-0.7-0.4-1.7,0.4-2.2c0.1,1.2,1.1,0.7,1.6,1.2c0.1,1-0.1,0.7-0.3,1.7
			c0.6-0.4,1.3-0.8,2-1c-0.1-0.7,0.2-0.8,0.5-1.8c-0.4-0.3-1.3,0.2-1.3-0.9c-2.1,0.8-2.8-0.3-4.8-0.2c0-1.9-1.8-0.5-2.5-1.2
			c0.3-0.2,0.6-0.4,0.4-0.7c-0.8,0.5-0.7-0.4-1.6,0.3c-0.2,0.5,0,1.2-0.8,1.5c0-0.2-0.3-0.2-0.3-0.3c-0.5-0.9,0.9-1.3,0.4-2.3
			c-0.9,0.5-1,0.4-1.2-0.6c-0.3,0.1-0.5,0.4-0.7,0.7c-0.3-0.3-0.3-1.1-0.8-1.1c-1,1.4,0.9,1,1.4,1.5c-0.5,0.4,0,1-0.9,1.2
			c-0.3-0.8-1.3-0.6-1.7-1.4c-0.8,0-1,1-1.2-0.1c-0.6,0.2-0.5,0.7-1.2,0.9c0-0.8-0.4-0.7-0.5-1.3c-0.5,0.2-1.1,1.3-1.5,0.8
			c0.6-0.6,1.3-1.2,0.9-2.1c-1.2,1.6-0.9,0-2.2,1.5c0-1.2-0.2-0.8-0.6-1.5c0.6-0.3,1.4,0.8,1.9-0.3c-0.8-0.5-2-0.1-2.9-0.4
			c0.8-1.4-2-0.9-2.6-1.6c1.2-0.5,3.8-0.3,4-2c0.4,0,0.6,0.2,0.7,0.6c-0.4,0.2-0.6,0.5-0.6,0.9c1.6-0.3-0.1,1.6,1.2,1.6
			c-0.2-0.5-0.3-1.1,0.2-1.4c0.3-0.1,0.6-0.1,0.9,0l0.2,0.9c0.7-0.4,1.1-0.2,1.8-0.5c0.1-1.1-0.7-0.6-0.9-1.3
			c0.5-0.2,0.9-0.3,1.1-0.1l0.3,1.4c-0.4-0.1-0.7,0.1-0.7,0.7c1.3-0.3,2.1,0.2,3.2,0.3c-0.5,3.8,4.8,0.3,5.3,2.5
			c-0.2-0.6-0.2-1.3,0.2-1.9c-1.4,0.5-3.5,1.3-3.2-0.3c-0.5,0.6-1.4,0.6-2,0c0,0,0,0,0,0c0.6-0.8,1,0.2,1.5-1
			c-0.2,1.8,2.2-0.7,1.4,1.3c1.5-1.1,1.9,0.1,3-0.3c-0.1-0.6-0.6-0.5,0.1-1.1c0.2,0.5,0.9-0.4,1-0.5c-0.5,0.9,0.6,0.2,0.5,1.3
			c-0.4-0.1-0.7,0.1-0.7,0.6c0.9-0.3,1.2,0.7,2.5-0.3c0-0.4-0.3-0.8,0.1-1c0.9,0.2,0.3,1,0.9,1.6c1.3-1.3,1.7,0,3.1-1.4
			c0.4,0.6,1.7,0,2.3,0c-0.2-0.2,0.2-0.9,0.3-1c0.5,0.2,2.3-0.7,1.2,0.4c1,0,0.5-0.5,1.2-1.1c0,0.7,1-0.3,1.2,0.2
			c-0.4,1-0.5,0.4-1.3,0.6c-0.4,0.7,0.2,0.3,0.2,1.2c0.7-0.5,1-0.4,0.9,0.3c0.5-0.8,1.5-0.1,1.5-1.2c-0.3,0-1.3,1.2-1.5-0.3
			c1.4-0.2,1-0.8,2-1.5c0,1.3,1.8-0.3,2.1,0.5C588,44.8,587.3,45.1,587.4,44.3z M551.4,31.9L551.4,31.9c0.9-0.1,0.1,1.6-0.5,1.1
			C550.6,32.5,551.5,32.4,551.4,31.9L551.4,31.9z M555.1,23.8L555.1,23.8c-0.4,0.5,0.3,1.2,0.4,0.3c0.4,0.2,0.5,0.8,0.4,1.4
			c-1.2,0-0.8-0.5-1.6-0.5C554.5,24.6,554.5,24.1,555.1,23.8z M544.9,23.3L544.9,23.3c-0.7,0.3-1.6,0.3-2.4,0
			C543.1,22.4,544.3,23.2,544.9,23.3L544.9,23.3z M541.6,22.8c-0.1,0.8-1.3,0.6-1.8,0.8C539.9,23,541.4,22.5,541.6,22.8L541.6,22.8z
			 M528.9,23.8L528.9,23.8c-0.7,0.1-1-0.5-1.4-1.3C528.5,21.9,528.6,23,528.9,23.8L528.9,23.8z M528.6,20.4L528.6,20.4
			c-0.9,0.5-1.1,0-1.8,0.9c-0.1-0.9,0.3-1.7-0.5-2.2C527.6,17.7,527.6,20,528.6,20.4L528.6,20.4z M526.1,18.7c0.2,0.7-0.5,1.3-0.5,2
			c-0.4-0.1-0.9-0.1-1.1-0.7C525.4,19.6,525.3,19,526.1,18.7L526.1,18.7z M525.3,21.2c-0.2,1.1-0.9-0.2-1.6,0.5
			c-0.6,0.7,0.4,0.9,0.5,1.4c-0.6,0.1-1.2-0.2-1.4-0.7c0.5-0.2,0.7-0.5,0.5-0.9C523.8,20.9,524.7,20.8,525.3,21.2L525.3,21.2z
			 M524.3,20.2L524.3,20.2c-0.5,0.3-1.1,0.4-1.7,0.3C522.6,20,524.4,19,524.3,20.2L524.3,20.2z M518.5,21.4c-0.6,0.8-1.1,1-1.7,0.9
			c-0.1-1,0.8-0.6,1-1.2c-0.5-1.1-1,0-1.8,0c-0.2-0.4,0.2-0.9-0.3-0.7C516.7,19.2,518.2,20.1,518.5,21.4L518.5,21.4z M513.3,21
			L513.3,21c0.1-0.3,0.1-0.6,0-0.8c0.6-0.4,1-0.3,1.3,0.3C514.3,20.7,513.9,20.9,513.3,21L513.3,21z M515.4,16.4L515.4,16.4
			c-0.8-0.1-1.8,0.2-2.5-0.3C513.7,15.5,514.8,15.6,515.4,16.4L515.4,16.4z M511.6,21.9L511.6,21.9c-0.6,0.4-1.4,1.2-1.4,0.1
			C510.8,21.9,511.5,21.1,511.6,21.9L511.6,21.9z M508.3,18.2L508.3,18.2c0.6-0.4-0.7-1.1,0.3-1.4c-0.1,1.3,0.9,1.1,0.8,2
			c-0.9,0-1.9,0.2-2.4-0.9C507.8,17.1,507.8,18.4,508.3,18.2L508.3,18.2z M505.9,21c0.6-0.3,0.5,0.9,0.5,1.1
			C505.6,22.4,505.9,21.4,505.9,21L505.9,21z M496.8,19.7c-0.4-0.5,0.3-0.8,0.1-1.2c0.8-0.2,0.3,0.4,0.9,0.8
			C497.5,19.6,497.2,19.5,496.8,19.7L496.8,19.7z M503.8,17.9L503.8,17.9c0.6,0.2,0.4,1.6-0.6,2.1C502.9,19.3,503.2,18.4,503.8,17.9
			L503.8,17.9z M501.1,17.2c0.4,0.9,1.5,0.1,1.9,1c-0.9,0.6-1.1-0.5-1.8,0.7c0-1.4-0.5-0.6-1.1-1.2
			C500.5,17.6,500.8,17.5,501.1,17.2L501.1,17.2z M499.2,23.2L499.2,23.2c-0.1-0.5-0.3-1,0.3-1.4l0.5,1.1
			C499.7,23.2,499.6,23,499.2,23.2L499.2,23.2z M499.6,17.9c-1,1.2-2.2-0.8-3.7,0.4C496.6,16.2,498.7,17.7,499.6,17.9L499.6,17.9z
			 M491.4,17c0,0.3-0.2,0.6-0.1,0.9c-0.5,0.2-0.9-0.1-1.2-0.6C490.8,16.6,490.9,17.6,491.4,17L491.4,17z M483.2,16.7l0.6,1.3
			c-0.9,0-1.7-0.4-2.2-1C482.4,16.1,482.5,17.7,483.2,16.7L483.2,16.7z M480.7,17.7c-0.7,0.6-1-0.3-1.4-1
			C480.2,16.1,480.4,17.3,480.7,17.7L480.7,17.7z M107.7,25.2c0.3-0.7,1.3,0.4,1.4,0.9C108.5,26.2,107.9,25.8,107.7,25.2L107.7,25.2
			z M132.2,13.1c0.2,0.6,0.3,0.6,0.6-0.1c0.1,0.3,0.3,0.5,0.5,0.7C133.1,14.4,131.6,13.8,132.2,13.1z M133,17
			c-0.9,0.9-2.5-1.6-3.3,0c-0.9-0.9-1.4-2.8-0.3-3.4c0,0.8-0.4,1.7,0.5,2.4c0-0.7,0.2-1.5,0.5-2.1c0.5,0.5,0.9,0.9,1.1,0
			c1,1.1,1.2,1.3,2.2,1.6c0.2,0.8-0.7,0.8-1.3,0.5C132.4,16.6,133.4,16,133,17z M133.3,16.9c0.3-0.5,0.7-0.6,1.2-0.2
			C134.3,17.6,133.8,17.2,133.3,16.9L133.3,16.9z M136.1,36.4c0.5-0.9,0.5-0.1,1.2,0.4C137,37.5,136.2,37,136.1,36.4z M138.1,36.3
			c0-1.4-0.6-1.1-1.3-1.2c0.1-0.3,0.2-0.4,0.4-0.3c0.1-0.4-0.5-0.7,0-1.2c0.3,0.4,0.9,1.7,1.2,1.4C138.6,35.5,138.5,36.2,138.1,36.3
			z M136.2,15.9L136.2,15.9c0.6-0.8,1.6,0.2,2.4,0.2C138,16.9,137.1,16.4,136.2,15.9z M140.4,15.1c-0.3-0.7,0.6-1.2,1-0.4
			C141.2,15.6,140.6,14.5,140.4,15.1z M136.2,53.6c-0.1-0.5-0.7-1-0.4-1.6c0.5,0.7,0.8,0.4,1.3,0.8C137,53.7,136.5,53.3,136.2,53.6z
			 M150.4,52c-1-1.5-2.1-1.7-3.6-2.6c1.5-1,3.1,1.4,4,1.7L150.4,52z M151.5,51.8L151.5,51.8c-0.1-0.4-0.1-0.8,0.1-1.2
			c1.1,0.6,2,0.8,3.1,1.4C153.7,52.4,152.6,51.8,151.5,51.8z M156.7,6.6c0.3,0,0.7,0.2,0.9,0.4c-0.7,1.2-0.2,2.5,0.8,2.3
			c-0.4,1-1.1,0.2-1.7,0.1C157.6,8.4,156.1,7.7,156.7,6.6z M159.4,52.8L159.4,52.8c-1.3-0.7-2.3-0.4-3.1-0.8
			c-0.6-0.6-1.1-1.2-0.7-1.9c1.4,0.4,2.8,1,3.9,1.9C159.7,52.1,159.5,52.5,159.4,52.8z M169.5,11.4c0.6,0.1,1.2-0.1,2,0.9
			C171,12.7,169.7,12.1,169.5,11.4z M180.9,44h-6.4v8.2c0,1.1-0.4,1.4-1.4,1.4s-1.5-0.4-1.5-1.4V31c0-1,0.4-1.4,1.5-1.4h7.6
			c4.4,0,7,2.7,7,7.1S185.5,44,180.9,44z M203.4,11.5L203.4,11.5c-0.5,0.6-1.3-0.6-1.7,0.1C201.5,10.5,202.7,10.5,203.4,11.5
			L203.4,11.5z M201.4,11c-0.6,0.7-1.5,0.4-2.2,0.6C199.8,10.4,200.5,10.4,201.4,11L201.4,11z M199,10.8L199,10.8l-0.4,0.7l-0.8-0.7
			C198.3,10.6,198.5,10,199,10.8L199,10.8z M203.5,51.9c0,0.8-0.6,1.5-1.3,1.5h-9c-2.5,0-4.5-1.9-4.5-4.9v-0.4
			c-0.1-2.5,1.9-4.6,4.4-4.6c0.1,0,0.2,0,0.3,0h7.2v-0.6c0.1-1.7-1.2-3.1-2.8-3.2c-0.2,0-0.4,0-0.5,0h-4.8c-0.6,0-1.1-0.5-1.1-1.1
			c0,0,0-0.1,0-0.1c0-1,0.6-1.5,1.1-1.5h4.9c4,0,6.2,2.2,6.2,6.1L203.5,51.9z M213,76.5L213,76.5c-0.3,0.2-0.5-0.1-0.7-0.6
			c0.2-0.5,0.5-0.6,0.9-0.2C213,76,212.9,76.3,213,76.5L213,76.5z M213.6,77.4L213.6,77.4c0-0.6-0.4-1.2-0.1-1.9
			c0.6,1,0.6,0.9,1.2,1.8C214.6,78.1,214,77,213.6,77.4L213.6,77.4z M216.2,77.6c-1.8-1.8,1.1-1.2-0.4-2.4c0.6-0.7,1,0.7,1.3,1.2
			C216.4,76.6,216.5,76.7,216.2,77.6L216.2,77.6z M218.1,76.9L218.1,76.9c-0.2-0.2-0.4,0.3-0.5,0.5c-0.7-0.6-0.6-1.4-0.5-2.1
			c0.8,0,1,1.7,1.8,1.7c-0.3,0.5,0.1,0.9,0.1,1.4C218.4,78.7,218.4,77.3,218.1,76.9L218.1,76.9z M214.6,53.4h-6.9
			c-0.8,0-1.3-0.4-1.3-1.4c-0.1-0.7,0.4-1.3,1.1-1.4c0.1,0,0.2,0,0.2,0h6.3c1.3,0,2.3-1,2.4-2.3c0-1.3-1-2.3-2.3-2.4h-5.3
			c-0.6,0-1.2-0.4-1.2-1.1c0-0.1,0-0.1,0-0.2c0-1,0.5-1.4,1.2-1.4h5.3c1,0.1,1.9-0.6,2-1.7c0-0.1,0-0.2,0-0.2c0-1-0.9-1.8-1.9-1.8
			c0,0-0.1,0-0.1,0h-5.8c-0.8-0.1-1.3-0.8-1.2-1.6c0.1-0.7,0.6-1.2,1.2-1.2h6c2.4-0.2,4.5,1.5,4.7,3.8c0,0.2,0,0.4,0,0.6
			c0.1,1.4-0.6,2.7-1.7,3.4c1.2,0.8,1.8,2.2,1.8,3.6C219.2,51.7,217.2,53.4,214.6,53.4z M223.8,53.5c-1,0-1.9-0.8-1.9-1.9
			c0-1,0.8-1.9,1.9-1.9s1.9,0.8,1.9,1.9c0,0,0,0,0,0C225.6,52.6,224.8,53.5,223.8,53.5C223.8,53.5,223.8,53.5,223.8,53.5z
			 M231.1,10.5c0.1,0.1,0.3,0.2,0.3,0.3l0,0c-0.6-0.3-1,0.7-1.7,0.1C230,10.4,230.6,10.2,231.1,10.5
			C231.1,10.5,231.1,10.5,231.1,10.5L231.1,10.5z M229.9,53.5c-1,0-1.8-0.8-1.8-1.9c-0.1-1,0.7-1.9,1.7-2c1-0.1,1.9,0.7,2,1.7
			c0,0.1,0,0.2,0,0.3C231.8,52.6,231,53.5,229.9,53.5C230,53.5,230,53.5,229.9,53.5z M236.1,53.5c-1,0-1.9-0.8-1.9-1.9
			c-0.1-1,0.7-1.9,1.7-2c1-0.1,1.9,0.7,2,1.7c0,0.1,0,0.2,0,0.3C238,52.6,237.1,53.5,236.1,53.5C236.1,53.5,236.1,53.5,236.1,53.5
			L236.1,53.5z M248.9,10.9c-0.6,0.6-0.6-0.7-1.3-0.2C247.3,9.3,249,10.4,248.9,10.9L248.9,10.9z M250.7,10.9
			c-0.6-0.8-1.2-0.6-1.3-1.2c0.4-0.2,0.9-0.6,1.4,0C250.6,10.1,251.2,10.4,250.7,10.9L250.7,10.9z M265.5,52.1c0,1-0.3,1.5-1.4,1.5
			s-1.4-0.4-1.4-1.5V41.8l-8.1,11c-0.4,0.5-1,0.8-1.6,0.7c-1,0-1.4-0.2-1.4-1.2v-14c0-1.1,0.4-1.5,1.4-1.5s1.4,0.4,1.4,1.5V49
			l8.2-11.5c0.3-0.5,0.9-0.8,1.5-0.7c0.9,0,1.3,0.2,1.3,1.1V52.1z M266.3,9.6L266.3,9.6c-0.3-1,1-0.7,1.3-1.2
			C267.9,10.1,266.8,8.5,266.3,9.6L266.3,9.6z M272.1,10c-0.8,0-1.5-0.4-2-1c0.3-0.8,0.8-0.6,1.2-0.9c0.5,1.1,0.3,0.9,1.2,1.3
			L272.1,10z M279,9.2c-0.6-1.3,0.6-0.6,1-1.6v0.1C280.3,8.5,279.2,8.4,279,9.2L279,9.2z M293.6,52.2c0,1-0.5,1.4-1.5,1.4
			s-1.4-0.4-1.4-1.4v-6h-8.1v6c0,1.1-0.5,1.4-1.5,1.4s-1.5-0.4-1.5-1.4V38.2c0-1,0.4-1.4,1.5-1.4c1,0,1.5,0.4,1.5,1.4v5.1h8.1v-5.1
			c0-1,0.4-1.4,1.4-1.4c1,0,1.5,0.5,1.5,1.4V52.2z M311.6,51.9c0,0.8-0.6,1.5-1.4,1.6h-9c-2.5,0-4.5-1.9-4.5-4.9v-0.4
			c-0.1-2.5,1.9-4.6,4.5-4.6c0.1,0,0.2,0,0.3,0h7.2v-0.6c0-1.8-1.1-3.2-3.4-3.2h-4.8c-0.6,0-1.1-0.5-1.1-1.1c0,0,0-0.1,0-0.1
			c0-1,0.6-1.5,1.1-1.5h4.9c4,0,6.2,2.2,6.2,6.1L311.6,51.9z M316.5,5.9L316.5,5.9c0.2,0.9-0.9,1.2-1.3,0.6
			C315.6,5.4,316.1,6.1,316.5,5.9L316.5,5.9z M317.9,72.3L317.9,72.3c-0.4,0.4-0.9-0.2-1.3,0.4c0.2-0.6-0.2-1.2-0.8-1.7
			c0.6-0.4,1.4,0.7,2-0.2C318.3,71.5,317,71,317.9,72.3L317.9,72.3z M319.5,72c0.3-0.6,0.6-0.4,1,0.2
			C320.1,72.7,319.8,72.5,319.5,72L319.5,72z M321.2,72.2L321.2,72.2c-0.4-0.4-0.2-0.8-0.5-1.3C321.3,70.2,321.5,71.6,321.2,72.2
			L321.2,72.2z M323.5,72.9L323.5,72.9c-0.1-0.3-0.1-0.7,0-1.1c-0.4-0.4-0.7,0.1-0.4,0.6c-0.6,0.5-0.2-0.7-0.5-1
			c0.3-0.6,0.7-0.4,1-0.7c0.7,0.5,0,1.2,0.8,1.7C324,73.1,323.7,72.4,323.5,72.9L323.5,72.9z M324,53.4h-7.5c-1,0-1.4-0.5-1.4-1.5
			V38.3c0-1,0.4-1.5,1.4-1.5h7.5c2.7,0,4.8,1.6,4.8,4.4c0,1.3-0.7,2.6-1.9,3.2c1.6,0.6,2.6,2.1,2.5,3.8
			C329.4,51.8,326.8,53.4,324,53.4L324,53.4z M329.8,73.4c-0.7-0.6,0.1-1.7,0.6-0.8L329.8,73.4z M500.2,96.8
			c0.7-0.4,1.3-0.6,1.4,0.5C500.8,97.9,499.9,97.7,500.2,96.8z M486.4,95.4c0.6-0.8,0.5,0.4,0.7,0.8C486.5,96.9,486,95.9,486.4,95.4
			z M485.9,88.3c-0.3-0.4,0.2-0.7,0.4-1.1c0.3,0.4,1.6,0,0.3,1c0,0.8,1.5-0.1,1,0.8c-0.5,0.1-0.8-0.5-1.6,0.5c0-1.1-0.9-0.1-1-1
			C485.4,87.9,485.5,88.6,485.9,88.3z M483.8,88.5c-0.6,0.5-0.8,0-0.9-0.6C483.3,87.8,483.8,87.8,483.8,88.5z M477.7,88.2
			c-0.5,0.5-0.7,0-0.9-0.3C477.5,87.1,477.9,87.5,477.7,88.2z M471.4,85.9c0.4-0.3,0.5-0.1,0.9-0.5c0.1,0.6-0.5,1.2,0.1,1.9
			c0.7-0.3,0.1-1,0.3-1.4c1,0,1.5,1,1.8,1.8c-1.1,0.2-2.1,0.7-2.8,1.6C471.7,87.9,471.3,87.4,471.4,85.9z M469.6,85.3
			c0,0.3-0.4,0.5-0.3,0.8s0.6-0.3,0.9-0.5c-0.1,1.3,0.2,0.8,0.3,1.7c-0.9,0.3-1.8,0.5-2.4-0.1c1.1-1.1-0.1-0.5-0.2-1.5
			C468.8,84.4,469,85.5,469.6,85.3z M464.1,85.9L464.1,85.9c-0.4,0-0.9,0.6-1.1-0.2C463.6,85.1,464,85.1,464.1,85.9L464.1,85.9z
			 M457.7,85.7L457.7,85.7c-0.5,0.5-1.3,0.5-1.8,0C456.3,84.6,457.3,85.1,457.7,85.7z M445.1,83.2L445.1,83.2
			c0.2,0.7-0.7,1.4-0.8,0.5C444.5,82.9,444.7,83.4,445.1,83.2z M399.7,78.4L399.7,78.4c0.4,0,0.7,0.7,0.6,1.2
			c-0.2,0-0.5,0.2-0.6,0.4C399.4,79.4,399.1,78.9,399.7,78.4L399.7,78.4z M392.1,78L392.1,78c-0.6,0.9-0.9-0.3-1.4,0
			C390.8,77,391.8,77.6,392.1,78z M355.2,74.6c-0.1,0.4-0.2,0.7-0.5,1c0-0.5-0.4-1.3-0.8-0.8C353.8,73.9,354.8,74.3,355.2,74.6
			L355.2,74.6z M352.9,74.4c-0.1,1.1-0.9,0.8-1.2-0.2c-0.1,0.7,0.1,1.5-0.5,2.2c-0.4-0.6,0.2-2.2-0.8-1.6
			C350.7,73.3,352.2,74,352.9,74.4L352.9,74.4z M349.7,74.3c-0.4,0.4-0.7-0.1-1.1,0C348.1,73.4,349.8,73,349.7,74.3L349.7,74.3z
			 M336.5,5L336.5,5c0.3-0.3,0.1,0.5,0.5,0.2c0.2,0.6-0.8,1.3-1.1,0.7C336,5.1,336.9,5.5,336.5,5z M332.8,72.6L332.8,72.6
			c-0.4-0.4-0.3-0.7-0.4-1.1c0.5-0.7,0.9-0.3,1.4,0.3C333.4,72.2,333.1,71.8,332.8,72.6L332.8,72.6z M337.3,71.9
			c0.1-1.5,1.5,0.2,2.1-0.3C339.2,73.1,337.9,71.8,337.3,71.9L337.3,71.9z M343.8,53.4h-4.9c-3.8,0-6.4-2.1-6.4-6.2v-4
			c0-4.1,2.8-6.3,6.4-6.3h4.8c0.7,0.1,1.2,0.7,1.1,1.5c0,1-0.6,1.4-1.1,1.4h-4.7c-1.8-0.1-3.4,1.2-3.5,3c0,0.2,0,0.3,0,0.5v3.8
			c-0.1,1.8,1.2,3.3,3,3.4c0.2,0,0.4,0,0.5,0h4.9c0.5,0,1.1,0.4,1.1,1.4C345,52.7,344.5,53.3,343.8,53.4L343.8,53.4z M361,6.2
			c-0.1,1.2-1.1,1-1.6,0C359.9,6.3,360.5,5.7,361,6.2z M357.5,4.7c0,0.3-0.1,0.6-0.3,0.8c-0.1-0.2,0.1-0.4,0.2-0.6
			c-0.4-0.2-0.9,0.6-1.3-0.4C356.6,4.1,357,4.6,357.5,4.7L357.5,4.7z M355.4,5.8c-0.6,0.8-1.1,0-1.6,0.4
			C353.7,5.3,355,5.3,355.4,5.8z M353.6,6.4c0.1,0.3,0.3,0.3,0.5,0.2c0.1,0.3-0.2,0.5,0,0.8c-0.3,0.2-0.5,0-0.8,0.2
			C353.1,7.3,353.2,6.8,353.6,6.4z M353,7.3L353,7.3c-0.8,0.6-1.9,0.5-2.5-0.2c0,0,0,0,0,0l0,0C351.3,7.3,352.1,6.4,353,7.3z
			 M352,5.7L352,5.7c-0.8,0.2-1.8,0.5-2.1-0.9C350.7,4.2,351.4,4.8,352,5.7z M345.4,8.5c0.4-0.3,0.4-0.6,0.5-1c0,0.5,0.8,1,1.6,1.1
			C346.8,9.6,346.1,9.2,345.4,8.5z M361.4,45c0,0.8-0.6,1.5-1.4,1.6c-0.1,0-0.1,0-0.2,0h-9.7v0.8c0,1.8,1.4,3.3,3.2,3.3
			c0.1,0,0.2,0,0.4,0h5c0.6,0,1.2,0.5,1.2,1.1c0,0.1,0,0.2,0,0.2c0.1,0.7-0.4,1.3-1.1,1.4c0,0,0,0-0.1,0h-5.2
			c-3.6,0-6.3-2.2-6.3-6.1v-4c0-4,2.9-6.3,6.6-6.3h1.3c3.3-0.2,6.2,2.3,6.4,5.6c0,0.2,0,0.5,0,0.7V45z M414.8,29.6
			c1,0,1.4,0.6,1.4,1.6v14.3c0,1-0.4,1.6-1.4,1.6s-1.5-0.6-1.5-1.6V31.2C413.3,30.2,413.8,29.6,414.8,29.6L414.8,29.6z M407.6,24.3
			c0.5,1.6,0.4,0.1,1.4,0.2c0.1,0.3-0.1,0.7,0,1C408.3,26.3,406.5,25.4,407.6,24.3L407.6,24.3z M406,22.8L406,22.8
			c0.2,1.5,0.6,0.7,1,2c-0.3,0.5-0.5-0.1-0.8,0.2C405.8,24.3,405.1,23.5,406,22.8L406,22.8z M402.9,27.5L402.9,27.5
			c-0.5,0.6-1,0.1-1.3-0.2C402.1,26.8,402.5,26.8,402.9,27.5L402.9,27.5z M397.3,7.7c-0.4,0.4-1.1,0.5-1.5,0.1c0,0,0,0,0,0l-0.1-0.1
			C396.3,7.3,396.8,6.8,397.3,7.7z M394.5,5.1c-0.8,0.1-1.7-0.1-2.4-0.6C393,3.8,393.7,4.5,394.5,5.1z M389.3,3.6
			c0.5,0.4,1.4,0.5,0.8,1.6c-0.2-1-0.5-1.2-1.4-0.6C388.5,4.3,389,4,389.3,3.6z M387.9,2.2L387.9,2.2c-0.2-0.2-0.5,0.2-0.7,0.4
			c-0.2-0.4,0-0.8,0.4-1.2l0.7,1C388.2,2.6,388.1,2.3,387.9,2.2z M386,5.8L386,5.8c0.4,0.8-0.8,1-1.2,0.6
			C385.3,5.3,385.6,6.6,386,5.8z M379.3,5L379.3,5c0.1,0.3-0.1,0.7,0.1,1c0.1-0.2,0.9-0.2,0.9-0.6c0.3,0,0.5,0.6,1,1
			c-0.9,0.4-1.7,0.2-2.6,0.4C378.1,5.9,378.4,4.8,379.3,5z M375.8,6.1c0.1,0,0.1,0.1,0.2,0.1c-0.1,0.1-0.1,0.3,0,0.4
			c-0.5,0.3-1,0.5-1.4-0.2C374.8,6,375.3,5.8,375.8,6.1C375.8,6,375.8,6,375.8,6.1L375.8,6.1z M371.2,4.3c-0.1,1-0.4,1.9-0.8,2.8
			c0.1-0.8-0.6-1-1-1.4c0.3-0.4,0.5-0.2,0.8-0.6c-0.5,0-0.9-0.5-1.4-0.2C369,3.9,370.5,4.6,371.2,4.3L371.2,4.3z M366.4,4.7
			L366.4,4.7c0.2-0.1,0.3-0.4,0.2-0.6c0.7,0,0.8,0.4,1.8,0.6c-0.8,0.4-1.8,0.4-2.6,0C366,4.3,366.2,4.5,366.4,4.7L366.4,4.7z
			 M367.9,7.5c-0.3,0-0.5,0.2-0.7,0.4c-0.3-0.9-0.1-1.9,0.6-2.6C368.6,6,367.6,6.7,367.9,7.5L367.9,7.5z M363.5,4.8L363.5,4.8
			c-0.2-0.2-0.4,0.2-0.7,0.4c-0.5-0.4-0.8-0.9-0.1-1.4c0.1,0.2,0,0.4,0.1,0.6c0.3-0.3,0.2-0.7,0.5-1c0.2,1,0.1,0.7,0.9,1.6l-0.5,0.6
			C363.5,5.3,363.3,5,363.5,4.8L363.5,4.8z M364.2,6.5c0-0.3,0.4-0.7,0.2-1c0.7-0.4,1.3-0.1,2-0.4c0.5,0.5,0.1,1.1,0.6,1.6
			C366.1,7.3,365,7.3,364.2,6.5L364.2,6.5z M367.4,52.1c0,1.1-0.4,1.4-1.4,1.4s-1.5-0.4-1.5-1.4V38.3c0-1,0.5-1.5,1.5-1.5h9.8
			c0.9,0,1.4,0.5,1.4,1.5c0.1,0.7-0.4,1.3-1.1,1.4c-0.1,0-0.2,0-0.3,0h-8.4L367.4,52.1z M392.1,52.1l-0.3,4.3c0,0.6-0.5,1.2-1.1,1.2
			c-0.1,0-0.1,0-0.2,0c-0.9,0-1.2-0.3-1.3-1.1l-0.2-3h-10.6l-0.2,3c0,0.6-0.5,1.1-1.1,1.2c-0.1,0-0.1,0-0.2,0c-0.9,0-1.3-0.4-1.3-1
			l-0.3-4.4c-0.1-1,0.5-1.3,1.3-1.5c1.1-0.5,1.7-1.4,1.9-3.7l0.9-8.8c0.1-0.8,0.4-1.2,1.4-1.2h8.4c0.9,0,1.3,0.4,1.3,1.3v12.4
			C391.9,50.7,392.2,51.2,392.1,52.1L392.1,52.1z M389.6,6.9c-0.2-0.5,0.8-1.2,1.1-1.2c0.4,0.3,0.3,0.7,0.4,1
			c0.9-0.9-0.8-1.8,0.1-2.6l0,0c0.2,0.6,1,1.3,0.4,2.4c0.5,0,1-1.6,1.3,0c0.5-0.7,1.5-0.9,2.2-0.4c0,0,0,0,0,0
			c0.2,0.1,0.3,0.2,0.4,0.4c-0.3,1.3-1.6,0.4-2.3,0.4C393.6,9.9,390.6,6.2,389.6,6.9L389.6,6.9z M393.5,23.9c0.8,0.1,0.6,1.5,1.3,1
			l0,0C394.7,26.6,392.5,25,393.5,23.9L393.5,23.9z M409.3,51.8c0,0.8-0.6,1.5-1.4,1.6h-9c-2.5,0-4.5-1.9-4.5-4.9v-0.4
			c-0.1-2.5,1.9-4.6,4.4-4.6c0.1,0,0.2,0,0.3,0h7.2v-0.6c0.1-1.7-1.2-3.1-2.8-3.2c-0.2,0-0.4,0-0.5,0h-4.8c-0.6,0-1.1-0.5-1.1-1.2
			c0,0,0-0.1,0-0.1c-0.1-0.7,0.4-1.4,1.1-1.5c0,0,0,0,0,0h4.9c4,0,6.2,2.2,6.2,6.1L409.3,51.8z M411.5,28.1c-0.3,0-0.6-0.2-0.6-0.5
			c0,0,0,0,0,0c0.5-0.8,0.8,0.1,1.1-0.2l0,0C412,27.7,411.8,28,411.5,28.1C411.5,28.1,411.5,28.1,411.5,28.1L411.5,28.1z
			 M411.8,25.2l-0.6-1c-0.2,0.4,0.2,0.8-0.5,1.2c0-1.3-0.5-1.3-1.5-0.9c0.1-0.8-0.3-0.3-0.6-1l0.7-0.8c-0.1,1.4,1.1,0.4,1.6,1.1
			c0.4-1.1,1.7-0.7,2.4-0.5C412.1,23.5,412.8,24.2,411.8,25.2L411.8,25.2z M414.8,53.4c-0.9,0-1.7-0.7-1.7-1.7
			c0-0.9,0.7-1.7,1.7-1.7s1.7,0.7,1.7,1.7c0,0,0,0,0,0C416.5,52.7,415.7,53.4,414.8,53.4L414.8,53.4z M417.1,24.6
			c0.6-0.9,1.4,0,1.3,0.7C417.9,25.4,417.5,25.4,417.1,24.6z M422.4,24.4c0.2,1.1-0.9,0.8-1.4,0.7c-0.2-0.9,0.2-0.7-0.5-1.4
			C421.7,22.9,421.4,25.4,422.4,24.4L422.4,24.4z M422.2,28.6c-0.4,0.1-0.9,0.3-1.2-0.5C421.6,27.7,422.4,28,422.2,28.6L422.2,28.6z
			 M419.8,26.1c1-0.6,1.7,0.8,2.9-0.8c0.5,0.4,0,0.8,0.4,1.2C422.1,26.4,420.1,27.3,419.8,26.1L419.8,26.1z M437.8,22.9
			c-0.8,0.2-1.3,0.5-1.3,1.5l-0.4,0.4c0-0.4-0.1-0.7-0.3-1C436.8,22.9,437.2,21.9,437.8,22.9L437.8,22.9z M432.1,9.2
			c0,0.4-0.3,0.7-0.7,0.7c0,0,0,0,0,0c-0.3,0-0.5-0.2-0.7-0.4C431.3,8.5,431.6,9.6,432.1,9.2z M431.8,10.8c-0.5,0-1.2,0.6-1.5-0.5
			C430.9,9.8,431.3,10.5,431.8,10.8L431.8,10.8z M429,9.2c0.4-0.8-0.2-1.5-0.2-1.8c1.7-0.8,0.1,2.4,1.2,3.5
			c-0.9,0.7-1.5-0.6-2.3-1.1C428.2,9.2,428.7,8.7,429,9.2L429,9.2z M427.9,11.5c0.9-0.3,0.1,1,0.6,1.4c-0.5,0.6-0.8,0.3-1.1-0.3
			C427.3,12.3,428.1,11.9,427.9,11.5L427.9,11.5z M425.9,10.2c0.5-0.6,0.8-0.3,1.1,0.3C426.5,11,426.1,10.8,425.9,10.2L425.9,10.2z
			 M428.4,26.2c-0.5,0.2-0.8-0.1-1.2-0.5c0.2-0.3,0.6-0.4,0.9-0.2c0,0,0,0,0,0C428.3,25.7,428.4,25.9,428.4,26.2L428.4,26.2z
			 M427.4,23.5c0.7-1.1,2.3,0.2,3.5-0.7C430.6,24.8,428.5,23.1,427.4,23.5L427.4,23.5z M431.7,45.1L431.7,45.1
			c-1,0.8-0.8-0.7-1.1-1.5c0.6-0.6,1.2-0.7,1.6-0.3C431.2,43.6,431.4,44.3,431.7,45.1L431.7,45.1z M432.5,22.9c1-0.9,1.5,1,2.5,0.2
			C434.9,24.9,433.2,22.9,432.5,22.9L432.5,22.9z M435.2,29.3c0.4-1.4,1.6-0.2,2.3-0.6C437.2,29.8,435.8,29.3,435.2,29.3L435.2,29.3
			z M434.9,26.1c1-0.6,1.6,0.2,2.6-0.6c0,0.3,0,0.9,0.4,0.6C437.4,26.7,435.6,27.1,434.9,26.1L434.9,26.1z M567,89.2
			c-1.1,1-0.4-0.9-1.6,0.1c-0.1-0.3,0.4-0.8-0.1-0.7C565.7,88,567.1,88.1,567,89.2z M544.7,87.3c-0.7,0.6-0.8-0.2-1.1-0.3
			C543.7,86.9,544.6,86.2,544.7,87.3L544.7,87.3z M531.8,76.4c-0.8,0.5-0.9-0.3-1.4-0.4C530.8,75,531.7,75.7,531.8,76.4z
			 M538.8,64.1c0.4-0.4,1,0.6,0.5,1C538.5,65.8,538.7,64.4,538.8,64.1L538.8,64.1z M537.3,64.3c0.5,0.6-0.7,0.6-0.3,1.2
			c-0.4,0.2-0.6,0-0.7-0.6L537.3,64.3z M521.8,87.6c0.6-0.2,1.3-0.5,1.3,0.4C522.4,88.6,521.5,88.4,521.8,87.6z M535.1,66.6
			L535.1,66.6c0.3,0,0.5,0.2,0.7,0.6c-0.8,0.5,0.2,0.8-0.5,1.6C534.1,69.1,535.4,67.4,535.1,66.6L535.1,66.6z M529.9,66
			c1.4-1.6,1.6,0.5,2.9,0c-0.5,1,0.5,1,0.6,1.7c0.7-0.5,1.3-0.8,1.3-0.1c-0.7,0.3-1.2,0.3-1.6,0c-0.5,0.2,0.2,0.6,0.4,0.5
			c-0.7,0.9-1.7-0.4-2.3-0.8c-1,1.2-0.1-0.5-1.4,0.9c-0.9-1.2,0-2.4-1.3-3C529.3,64.7,530.3,65,529.9,66L529.9,66z M525.7,61.5
			c-0.3,0.7-1.3,0.1-1.8,0.1C524.3,60.8,525.3,61.4,525.7,61.5L525.7,61.5z M523.5,66.6c0.4,0.2,1.3-0.5,1.8-0.4
			c-0.2-0.1-0.4-0.2-0.1-0.4c-0.9,0.1-2.1-0.4-1.8-1.7c1-0.7,1,0.6,1.5,0.8l1.2-0.8c0.7,0.8,2.7,0.6,1.8,2.7
			c0.3-0.1,0.5-0.4,0.4-0.7c0,0,0,0,0,0c1.1-0.4,0.3,1.1-0.4,1.6c-0.2-1.3-0.3,0-1,0.4c-0.5-1.2-2.2-0.1-2.7-1.3
			c-0.3,0.5-0.5,0.6-0.9,0.6c0-0.8-0.2-1.6-0.7-0.6c-0.2-0.6,0.5-1.4-0.7-1.6C523,64.4,523.3,65.4,523.5,66.6L523.5,66.6z
			 M521.9,64.6l-0.7,0.5c0-0.9-0.4-1-1.1-0.3l-0.2-0.9C520.6,64,521.5,63.7,521.9,64.6L521.9,64.6z M519.8,86.4L519.8,86.4
			c-0.4,0.9-1.8,0.9-2,0.3C518.9,85.9,519.1,86.8,519.8,86.4L519.8,86.4z M518.6,64.2c-0.8,0.7-1.4,0.7-1.6,0
			C517.6,64.1,518.3,63.6,518.6,64.2z M514.1,62.5L514.1,62.5c0.8,0.9,1.4,0.2,2,1.3l1.1-0.8c0.1,0.4,0.3,0.5,0.6,0.4
			c-0.5,0.8-1.4,0.1-1.9,0.8c0.1,0.9,0.7,0.5,0.9,1.3c-0.5,0.3-1.1,0.5-1.7,0.6c-0.2-0.7,0-1.5,0.5-2c-0.4-0.5-0.8-1-1.7-0.4
			C513.6,63.2,514.2,62.9,514.1,62.5z M513.3,63.6L513.3,63.6c-1,0.4-0.4-0.8-1.2-0.5C512.4,62,513.3,62.7,513.3,63.6L513.3,63.6z
			 M512,86.9L512,86.9c-0.7,0.3-1.4,0.6-1.6-0.2C510.9,86.6,511.8,86,512,86.9L512,86.9z M507.9,85.7c-0.5,0-1.4,0.1-1-0.9
			C507.5,84.5,508.2,84.9,507.9,85.7L507.9,85.7z M508.9,62.4L508.9,62.4c-0.3,1.5-1.9,0.9-2.2,0C507.4,62.2,508.2,62.2,508.9,62.4
			L508.9,62.4z M507.1,57.3L507.1,57.3c-0.8,0.6-0.7-0.9-1.5-0.3C505.9,56,506.9,56.5,507.1,57.3z M505.5,61.7
			c0.4,0.2,0.8,0.5,1.1,0.8C505.8,62.8,505.4,62.5,505.5,61.7L505.5,61.7z M503.3,62.7c0-0.8,0.3-0.5,0.8-0.9l0.2,0.7
			C503.8,63.1,503.8,62.4,503.3,62.7L503.3,62.7z M503.6,60.9c0.1-0.1,0.2-0.2,0.1-0.4c0.3-0.2,0.4,0.4,0.5,0.7
			c-0.6,0.3-1.1,0-1.3-0.7C503.2,60.4,503.5,60.5,503.6,60.9C503.6,60.8,503.6,60.8,503.6,60.9L503.6,60.9z M499.3,84.2
			c0.6-0.1-1.5,1.3-1.3-0.1C498.7,83.5,498.8,84.3,499.3,84.2L499.3,84.2z M499,55.8c-1.1,0-2.1-0.1-3.1-0.4
			C497.1,54.9,498.2,54.9,499,55.8z M491.7,61L491.7,61c0.5,0.2,0.1,0.3,0.3,0.9C491.2,62.7,490.8,61.5,491.7,61z M492.9,84.3
			c-0.6-0.4-1.6,0.2-2.1-0.4C491.6,83.6,493.1,83,492.9,84.3L492.9,84.3z M489.6,53.5c0.1,0.8,0.8,0,0.9,1c-0.6-0.3-1.2,0.7-1.7,0.7
			C488.4,54.5,488.8,53.9,489.6,53.5z M478.5,52L478.5,52c-0.6,0.4-1.3,0.3-1.8-0.3l0,0C477.3,51.3,478.1,51.4,478.5,52z
			 M472.7,59.1c-0.2,0.2-0.2,0.1-0.3,0l-0.4,0.3c0.3-0.9-0.5-0.6-0.6-1.5C472.2,57.4,472.8,58.1,472.7,59.1L472.7,59.1z M452.1,46
			L452.1,46c0.5,0.5,0,0.8,0.3,1.2C451.8,47.8,451.3,46.5,452.1,46z M479.3,17L479.3,17c-0.6,1.1-1.8,0.4-2.5-0.1
			C477.6,16.6,478.5,16.7,479.3,17L479.3,17z M475.4,16.5L475.4,16.5c0.5-0.1,1-0.2,1.2,0.6C476,17.7,475.3,17.1,475.4,16.5
			L475.4,16.5z M475.6,23.6l-0.6,0.5l-0.4-0.9C474.9,23.2,475.4,22.8,475.6,23.6L475.6,23.6z M474.1,24.9L474.1,24.9
			c0.5,0.5,0.2,1,0.1,1.4C473.4,26.8,473.1,25.3,474.1,24.9z M469.1,17.5L469.1,17.5c-0.5,0.5-0.9,0.3-1.1-0.4
			C468.5,16.6,468.8,16.9,469.1,17.5L469.1,17.5z M463.5,8.9c0.5,0.2,0.6,2.1,1.7,1.4c0.1,0.4-0.1,0.8-0.6,1.1
			c-0.2-0.3-0.4-1.3-0.9-0.5C463.5,9.8,462.4,9.8,463.5,8.9L463.5,8.9z M464.8,22.9L464.8,22.9c-0.1,1.1-1.1,0.3-1.5,0
			C463.9,22.4,464.3,23,464.8,22.9L464.8,22.9z M462.6,10.2c-0.2,1.1-1.5,0.6-2,0.8c-0.1-0.8,0.2-0.5,0.7-0.9
			c-0.2-0.8-0.7-0.3-0.9-1.1C461.6,8.4,462,9.6,462.6,10.2z M460.2,10.4L460.2,10.4c0,0.8-1.2,0.5-1.7,0.8c0-0.3,0-0.6-0.1-0.8
			C459.1,9.6,459.4,10.9,460.2,10.4z M459.4,13.9c-0.6,0.5-1-0.6-0.9-1.1C458.9,12.4,459,13.6,459.4,13.9L459.4,13.9z M457.6,10.1
			l0.3,0.6c-1-0.1-2.1,0.3-2.9-0.3C455.9,10,456.6,10.5,457.6,10.1z M452.8,7.6c0.1,0.6-0.1,1.3-0.6,1.8c-0.5-0.5,0-1-0.2-1.4
			c-0.6-0.3,0,1.2-1,1.5c-0.7-0.2-0.1-1.4-1-1.7C451.2,6.7,451.9,7.7,452.8,7.6z M452.5,17.6c-0.6-0.3-1.3-0.2-1.8-0.6
			C450.9,16,452.6,17.1,452.5,17.6z M450.6,10.2c0.6-0.4,1,0.3,1.5,0.6C451.5,11,450.9,11,450.6,10.2z M448.3,9.9
			c0.9-0.1,1,0.9,1.6,0.2l0.2,0.4c-0.6,0.7-0.8-0.3-1.5,0.6C448.4,10.8,448.3,10.4,448.3,9.9L448.3,9.9z M449.9,22.4L449.9,22.4
			c0.4,1.1-1.1,0.8-0.9,1.1c-0.5,0-1-0.3-1.3-0.7C448.5,22.7,449.2,22.6,449.9,22.4z M445.7,24L445.7,24c0.2,1.3-0.8,0.8-1.2,0.5
			C444.5,23.3,445.2,24.9,445.7,24z M439.2,23c1.7-0.7,3.1,1.3,4.7-0.8c-0.5,1.4-0.1,1.4,0.3,2.3c-1.1,0.7-1.3-0.6-1.8,1
			c-0.4-0.5,0.1-0.9,0.5-1.4C441.6,23.7,440,23.6,439.2,23L439.2,23z M439.8,46.2c-0.2-1-1-0.8-0.9-1.7c0.7-0.5,1,0.5,1.4,1.2
			L439.8,46.2z M441,46.2c0.4-1.1-0.5-0.5-0.5-1.4C441,44.3,441.7,45.7,441,46.2L441,46.2z M447.5,45.1c-0.3,0.6,0.1,1.2,0,1.8
			c-0.4,0.3-0.7,0.5-1,0.3c-0.5-0.5,0.5-0.9,0.2-1.4c-0.6-0.4-0.3,0.9-0.9,1.1c-0.1-0.8-0.5-0.3-0.7-0.9c0.6-0.8,0.9-0.5,1.4-0.7
			c-0.4-1.2-1.4,0.3-1.8-0.8c-0.8,0.5-0.7,1.4-1.4,1.3c-0.1-0.8,0.2-0.5,0.7-0.9c-0.4-1.2-1.4,0.9-1.7-0.6c2.1-0.5,4.3-0.4,6.4,0.2
			C448.2,44.8,447.8,45.3,447.5,45.1L447.5,45.1z M452.1,28.3c-0.3-0.4,0.7-2-0.3-1.2c-0.1-0.1,0-0.3,0.1-0.4l-0.2-0.4
			c0.4-0.1,0.7-0.2,0.9-0.5c0.4,0.7,0.2,1.4,0.8,2.1C452.8,28.5,452.5,28.1,452.1,28.3z M449.7,24.8c0,0.5-0.3,1.2-0.9,1.1
			c-0.1-1.2-0.3-0.7-1.5-0.5c-0.2-0.9-1-0.8-0.8-1.5c0.6-0.6,1.5-0.3,0.9,0.5c0.6,0.1,0.8-0.6,0.9,0.5c0.1-0.3,0-0.7,0.4-1
			c0.7,0.1,0.7,0.2,0.6,1.1c0.4-0.4,0.7-1,0.7-1.5c0.9,1.1,2.4,1.4,3.7,0.8c-0.7,1.2-2.3,1.6-3.5,0.9C450,25,449.8,24.9,449.7,24.8
			L449.7,24.8z M453.4,10.8c-0.1-0.3,0.6-0.6,0.4-1c0.5-0.4,0.7,0.1,1,0.7C454.2,11.2,453.9,10.6,453.4,10.8L453.4,10.8z M456,25.5
			L456,25.5c-0.8,0.2-0.6-0.6-1-1.3c0.4,0,0.8,0.2,1.3,0.1C456.6,24.7,455.8,25,456,25.5L456,25.5z M454.6,23.3
			c-0.1-0.4,0.4-0.6,0.7-0.9c0.3,0.9,0.9,0.1,1.6,0.8C455.9,24.2,455.4,23,454.6,23.3L454.6,23.3z M457.5,23.2L457.5,23.2
			c0.4-0.6,1.3,0,1.1-0.7c0.4,0,1,0.7,0.9,1.1C458.8,23.7,458,24,457.5,23.2L457.5,23.2z M463.5,31.8l-0.4-0.9
			c0.5-0.5,0.8-0.3,1,0.3L463.5,31.8z M466.3,27.3c-0.4-0.6-0.5-1.4-0.4-2.1c-1.2-0.7-2.7-0.7-3.8,0.1l-0.6-1.1
			c-0.7,0.2-1.9,2.6-2.8,1.5c0.4-0.3,0.6-0.3,0.8-0.1c0.8-1.4-1.1-1-1.7-1c0.2-0.6,2.5-1.2,2.2,0.2c1-0.9,0.1-2.5-0.8-2.1
			c0.4-1.2,1.5,0.2,2.2-0.4c0,0.5-0.4,0.4-0.6,0.5c0.4,0.7,1,0.6,1.5,1.2c0.5-0.3-0.3-0.8-0.3-1.3c1.2,0.4,2.5,2.5,4,0.9
			c0.3,1.2,0.8,2.3,1.6,3.3C466.8,27.9,466.9,25.8,466.3,27.3L466.3,27.3z M467.3,28.3L467.3,28.3l0.8-0.7c0,0.2-0.1,1.3,0.4,0.9
			C468.6,29.4,467.5,29,467.3,28.3L467.3,28.3z M467.6,23.2c0.5-0.2,0.9,0.3,1.4,0l0,0C469,24.2,467.9,23.8,467.6,23.2L467.6,23.2z
			 M468.8,27.5l-0.1-0.1l0,0c0.9,0,1.3-1.7,1.8-0.6C470.2,27.5,469.5,27.7,468.8,27.5L468.8,27.5z M471.1,25.8L471.1,25.8
			c-0.3-0.7-0.9-0.5-1.3-0.8c-0.3,0.5,0.1,1.1-0.8,1.5c-0.8-0.4-0.1-1-0.3-1.9c0.9-0.5,1.4,0.5,2.4-0.5
			C471.7,24.7,471.9,25.3,471.1,25.8L471.1,25.8z M470.8,23L470.8,23c-0.1-0.5,1.1-1.3,1.1-0.3C471.3,23.5,471.2,22.8,470.8,23z
			 M473.3,27.6c0.2-0.8,1.2,0.4,1.9-0.4C475.1,28.9,473.8,27.8,473.3,27.6L473.3,27.6z M474,26.7c0.2-0.5,0.7-1,0.8-1.5
			c0.5-0.2,0.1,1.1,0.4,1.5C474.7,26.9,474.2,27.3,474,26.7L474,26.7z M482.8,46.5L482.8,46.5c-0.4-0.6-1-0.4-1.3-1.2
			c1-1,1.3,0.3,2,0.1C483.6,45.9,483.3,46.2,482.8,46.5L482.8,46.5z M487.1,34c0-1.2,1.7-2.8,2.3-1.5
			C488.5,32.7,487.7,33.2,487.1,34z M493.4,28.9c0.9-0.6,1.6-1.2,2.4-0.6c0,0.5-0.4,0.3-0.7,0.5c0.3,0.4,0.8,0.2,1,1
			c-0.4,0.5-0.5,1.2-1,1c0.3-1.1-0.1-1.2-0.6-2.2c-0.4,0.4-0.1,0.9-0.9,1.3C493.3,29.5,493.5,29.2,493.4,28.9L493.4,28.9z
			 M494.4,31.3L494.4,31.3c-1.1,0.2-2.2-0.1-3-0.9C492.7,29.9,494.9,29.5,494.4,31.3L494.4,31.3z M491.6,28c-0.9,0.5-1,1.6-1.5,0.6
			C490.3,28,491.4,27,491.6,28z M490.6,31.1l-0.5-1.1c0.7-1,0.5,0.9,1,0.4C491.2,30.6,490.8,30.8,490.6,31.1L490.6,31.1z
			 M490.9,44.9L490.9,44.9c0.8,0,1.7,0,2.1,1C492.1,45.8,491.3,45.8,490.9,44.9L490.9,44.9z M494.2,33c-0.2,0.3-0.4,0.6-0.8,0.8
			c0.1-1.2-0.5-0.1-0.8-1.2C493.5,32,494,32.1,494.2,33c1-1,1.1,0.6,2,0C495.9,33.8,494.4,34.1,494.2,33z M497,31.2
			c-0.4-0.2-1,0.2-1.1-0.6C496.6,29.9,497.3,30.3,497,31.2L497,31.2z M498.3,30.2L498.3,30.2c0.6-0.1,1,0.2,1.3,0.8
			C498.8,31.6,498.8,30.3,498.3,30.2z M500.4,31L500.4,31c0.4-0.3,0.8-0.6,1.3-0.6C501.8,31,500.5,32,500.4,31L500.4,31z
			 M504.4,34.6L504.4,34.6c-0.3-1-0.6-0.7-1.2,0c-0.3-0.8,0-0.8-0.5-1.3c0.5-0.1,0.8,0.2,1.5-0.5c0.3,0.4,0.8,0.2,1,1
			C505,34.1,504.7,34.4,504.4,34.6L504.4,34.6z M507.7,48c-0.6-0.2-0.8-1.5-1.8-0.6c0.3-0.7,1.2-1,1.9-0.7c0.3,0.1,0.5,0.3,0.6,0.6
			C508.2,48.1,507.7,47.5,507.7,48z M507.1,37.2L507.1,37.2c0.6-0.5,1-0.6,1.2,0C507.6,37.6,507.2,37.8,507.1,37.2z M509.4,34.7
			c-0.6,0.4-0.3,0-0.4-0.3c-1.1-0.3-2.3,0-2.3-1.5c1-0.1,1.4,1.1,2.5,0.5C509.5,33.8,509.5,34.3,509.4,34.7L509.4,34.7z M508.4,30.4
			c0-0.6,1.3-0.8,1.4-0.1C509,30.8,508.9,30.2,508.4,30.4L508.4,30.4z M510.2,30.7c-0.6,0-0.4-1.2,0.4-1.4
			C511,29.9,509.9,30.2,510.2,30.7L510.2,30.7z M511.3,47L511.3,47c0.7-0.5,1.1-0.6,1.2,0C511.8,47.5,511.4,47.6,511.3,47z
			 M514.5,30.9L514.5,30.9c0.7,0.1,1.4-0.1,1.7,0.6C515.3,32,514.9,31.6,514.5,30.9L514.5,30.9z M520.8,48.7c0,0.8,0.6,0.4,0.6,1.2
			C520.7,50.2,519.6,49.3,520.8,48.7L520.8,48.7z M521.2,33.4L521.2,33.4c0-1.5-1-0.5-1.3-1.3c0.8-0.5,1.1,0,2-0.8
			c0,0.6,0.2,1.1,0.5,1.6C521.8,33.4,521.7,32.9,521.2,33.4L521.2,33.4z M523.8,32.5L523.8,32.5c1.2-0.9,1.4,0.7,2.6-0.1
			C526.3,33.7,523.5,33.3,523.8,32.5L523.8,32.5z M531.1,51.5c0.2-0.3,0.5-0.6,0.9-0.8c0.1,1,1,0.1,1.1,1.1
			C532,52.5,531.6,51.9,531.1,51.5z M532.5,46.4c0.3-0.6,1.8-0.9,1.9-0.1C533.5,46.8,533.1,46.3,532.5,46.4L532.5,46.4z M570.5,53.2
			L570.5,53.2c-0.3,1.1-0.8,0-1.3,0.4C569.3,52.4,569.9,53.2,570.5,53.2L570.5,53.2z M567,53c0.7-0.1,0.5,0.7,1.3-0.2
			c0.2,0.4,0,0.7-0.1,1l-0.8,0.4c-0.2-1-0.4-0.2-1.2-0.4C566.4,53.5,567,53.4,567,53z M567.3,56.9L567.3,56.9
			c-1,0.6-2.3,0.3-2.9-0.7c0-0.1-0.1-0.1-0.1-0.2C565.5,55.8,566.2,56.7,567.3,56.9L567.3,56.9z M565.7,54.7L565.7,54.7
			c-0.9,0.6-1-0.2-1.5-0.5C565.1,53.7,565.7,53.6,565.7,54.7L565.7,54.7z M560.8,52.8L560.8,52.8l-0.7,0.4c-0.1-0.3-0.1-0.6-0.2-0.9
			C560.3,52.2,560.9,51.9,560.8,52.8L560.8,52.8z M552.2,40.2L552.2,40.2l0.2,0.9c-0.6,0.4-1.1,0.5-1.2-0.1
			C551.8,40.8,551.8,40.4,552.2,40.2L552.2,40.2z M551.6,37.9L551.6,37.9c0.4,0.7-1,0.8-1,1.4c0.3,0.2,0.9-0.2,1.2,0.1
			c0,0.8-0.8,0.3-1.2,0.7l-0.3-1.2C551.2,38.7,550.9,37.7,551.6,37.9L551.6,37.9z M536.4,41.5L536.4,41.5c-0.4,0.3-0.5,0-0.8,0.2
			L535,40c0.6-0.2,1.2,0,1.4,0.6C536.5,40.9,536.5,41.2,536.4,41.5z M537.9,41.9L537.9,41.9c-1.6,0.3-0.3-1.8-1-3.2
			c-0.6-0.4-1.6,0.3-2.1-0.3c0.8-1.1,1.6,0.4,1.5-0.9c0.9-0.3,1.4,0.8,2.2-0.3c0.3,0.4,0.9,0.3,0.6,1
			C537.3,38.5,537.3,41,537.9,41.9z M538.8,43.8c0.6,0,1.4-0.4,1.5,0.6C539.6,44.5,539.3,44.1,538.8,43.8z M539.1,52.5
			c0.9-0.3,1.6-0.4,1.9,0.4C540,53.6,539.4,53.5,539.1,52.5L539.1,52.5z M541.8,44.5L541.8,44.5c0.1-0.5,0.6-0.8,1-1.2l0.2,0.9
			C542.4,44.9,542.5,43.9,541.8,44.5L541.8,44.5z M544.8,34.2L544.8,34.2c0,0.5-0.5,0.9-1.1,1.2C543.5,34.7,544.5,34.1,544.8,34.2
			L544.8,34.2z M545.1,51L545.1,51c-0.3-0.5,0.3-0.8-0.1-1.3c-0.4,0.2-0.4,0.5-0.4,0.8c-0.5,0.3-0.7-0.3-0.8-0.8
			c0.5-0.2,0.4-0.6,0.3-1l1-0.6c0,0.5-0.5,0.8-0.5,1.3c0.2,0.6,0.3-0.6,1-0.6C545.5,49.5,546.1,50.5,545.1,51z M544.6,36.2
			c-1,0.1,0.2-1.1,0.5-1.4c0.8-0.4,1.1,0.2,2.1-0.7c-0.1-0.6-1,0.4-1-0.5c0.5-0.5,1,0.2,0.7-0.7c0.6-0.1,1.2-0.1,1.8,0
			c0.3-0.3-0.2-0.2-0.2-0.7c0.3-0.4,0.9-0.6,1.4-0.3c-0.7,0.9,0,0.4,0.3,1.2c-0.2,0.4-0.5,0.6-0.9,0.8c0.2,0.3,0.8-0.3,0.9,0
			c0.2-0.3,0.1-0.7,0.6-0.9c-0.2,1.7,0.2,2.7-1.6,3.4c0-0.4,0.7-0.5,0.6-0.9c-0.8-0.2-1.2-0.1-2.1,0.7c-0.4-0.7-1.6,0.4-1.7-0.9
			C545.3,36.1,544.6,35.4,544.6,36.2L544.6,36.2z M548.8,41.2c0,0.3-0.5,0.4-0.4,0.8c-1.2,0.6-1.4-1-2.3-1.1
			C547.3,40.4,547.6,41.6,548.8,41.2L548.8,41.2z M546.1,45.9L546.1,45.9c1.1,0.1-0.1,1.1,0.9,1.3C545.8,47.5,545.8,47,546.1,45.9z
			 M549.1,48.7c-0.9,0.3-1-1.2-1.9,0.1C547.4,47.2,549.5,46.9,549.1,48.7L549.1,48.7z M549.8,42.5L549.8,42.5c0.9-0.2,0-0.8,0.9-1
			c0.4,0.1,0.6,0.9,0.3,1.4C550.3,43.2,549.9,43.1,549.8,42.5L549.8,42.5z M555.7,52.6c-0.9,0.6-0.9-0.2-1.1-0.9
			C555.3,51.1,555.1,52.4,555.7,52.6L555.7,52.6z M553.3,49.8L553.3,49.8c0.8-0.8,0.4,0.6,1.2-0.1c0.2,0.5-0.7,0.7-0.6,1.1l0.2,0.7
			l-0.8,0.4C552.9,51.2,553.3,50.6,553.3,49.8L553.3,49.8z M552.7,48.4c-0.6,0.2-1.2,0.4-1.8,0.5l-0.3-1.1c0.5-0.2,0.8-0.5,0.6-0.9
			C551.6,47.4,552,48.1,552.7,48.4L552.7,48.4z M552.2,38.7c1.3-0.3,1.8,0.1,3.2-1.1l0,0c0.6,0.4,1.6,0.2,1.6,1.7
			c0.1-0.6,0.4-1.2,0.7-1.7c0.4-0.1,0.9,0.1,1.2,0.3c0.1,0.5,0,1-0.2,1.4c0.8,0,0.2,0.7,1.2,0.3c-1.6,1.6-3.4,0.3-4-0.1
			c0.1,0.7-0.3,1-1.3,0.7c0-0.4,0.3-0.7,0.6-0.9C554.1,39.6,552.1,39.8,552.2,38.7L552.2,38.7z M555.4,41.1L555.4,41.1
			c-0.1,1-1.3,1-1.4,0.3C554.5,41,554.8,41.3,555.4,41.1L555.4,41.1z M552.7,43.7c0.3-0.9,1.6-0.9,1.7-0.2
			C553.5,44,553.2,43.4,552.7,43.7L552.7,43.7z M556.1,43.8c-1-0.2-1.4-0.2-1.7-1.1c0.5,0.7,1.9-0.2,2.4,0.5
			C556.3,43.4,556,43.5,556.1,43.8L556.1,43.8z M556.9,43.8L556.9,43.8c0.2-1.1,2.2,0.2,1.7-1.5c0.6-0.5,0.6,0.2,1.1-0.1
			c-0.4,0.5-0.6,1.1-0.7,1.7l0.5-0.3C558.5,45.1,557.8,43.5,556.9,43.8L556.9,43.8z M559.3,45.3l-0.2-0.9c1-0.7,0.5,0.4,0.9,0.3
			C559.9,45,559.6,45.2,559.3,45.3L559.3,45.3z M564.3,46.5L564.3,46.5c0.1-0.8-0.2-1.6-0.7-0.7c-0.4-0.4-0.4-1.1-0.1-1.5
			C564.6,43.8,565.4,45.6,564.3,46.5L564.3,46.5z M570.4,44.5L570.4,44.5c0.1-1.2-1.3,0.3-1.3-0.7c1,0.1,2.4-2.1,2.8-0.4
			C571,43.2,571.1,44.2,570.4,44.5L570.4,44.5z M576.9,43.9L576.9,43.9c-0.9,0.3-0.5-1.2-1.4,0C574.9,42.6,577.6,42.8,576.9,43.9
			L576.9,43.9z M579.7,44.8L579.7,44.8c-0.8,0.5-0.9-0.1-1-0.8c0.5-0.3,0.6,0,1.1-0.3C579.8,44.2,579.6,44.5,579.7,44.8L579.7,44.8z
			"/>
	</g>
</g>
</svg>
