<svg width="10" height="18" viewBox="0 0 10 18" fill="none" xmlns="http://www.w3.org/2000/svg">
<path d="M5 17.5C3.6744 17.4986 2.40353 17.0083 1.46619 16.1369C0.528841 15.2655 0.00155679 14.084 0 12.8516L0 4.64844C0 3.4156 0.526784 2.23325 1.46447 1.3615C2.40215 0.489745 3.67392 0 5 0C6.32608 0 7.59785 0.489745 8.53553 1.3615C9.47322 2.23325 10 3.4156 10 4.64844V12.8516C9.99844 14.084 9.47116 15.2655 8.53381 16.1369C7.59647 17.0083 6.3256 17.4986 5 17.5ZM5 1.09375C3.98641 1.0952 3.01479 1.47017 2.29807 2.13649C1.58136 2.80281 1.17803 3.70612 1.17647 4.64844V12.8516C1.17647 13.7943 1.57931 14.6985 2.29636 15.3651C3.01341 16.0317 3.98594 16.4062 5 16.4062C6.01406 16.4062 6.98659 16.0317 7.70364 15.3651C8.4207 14.6985 8.82353 13.7943 8.82353 12.8516V4.64844C8.82197 3.70612 8.41864 2.80281 7.70193 2.13649C6.98521 1.47017 6.01359 1.0952 5 1.09375Z" fill="white"/>
<path d="M6.42965 4.86727C6.42965 4.13032 5.78836 3.5329 4.99729 3.5329C4.20623 3.5329 3.56494 4.13032 3.56494 4.86727V7.21337C3.56494 7.95032 4.20623 8.54774 4.99729 8.54774C5.78836 8.54774 6.42965 7.95032 6.42965 7.21337V4.86727Z" fill="white"/>
</svg>
