<svg xmlns="http://www.w3.org/2000/svg" viewBox="0 0 74.56 9.26"><defs><style>.cls-1{fill:#fff;}</style></defs><title>Ресурс 22</title><g id="Слой_2" data-name="Слой 2"><g id="Слой_1-2" data-name="Слой 1"><path class="cls-1" d="M3.34,7H3L1.4,3.18C1.18,2.66,1,2.1.74,1.49h0c.05.87.07,1.68.07,2.4V7H0V.64H1.11L2.59,4.21c.17.4.36.9.56,1.47h0c.22-.64.41-1.13.56-1.47L5.22.64H6.33V7H5.56V3.89c0-.71,0-1.51.07-2.4h0c-.23.64-.45,1.2-.66,1.69Z"/><path class="cls-1" d="M10,6.43a3.37,3.37,0,0,0,.66-.06,4.5,4.5,0,0,0,.6-.17v.61a2.13,2.13,0,0,1-.6.18,3.64,3.64,0,0,1-.76.07A3.26,3.26,0,0,1,9,6.94a1.8,1.8,0,0,1-.73-.4,1.72,1.72,0,0,1-.48-.71,2.8,2.8,0,0,1-.18-1.06A3.12,3.12,0,0,1,7.75,3.7,2.14,2.14,0,0,1,8.2,3a1.9,1.9,0,0,1,.65-.45,2.07,2.07,0,0,1,1.47,0,1.51,1.51,0,0,1,.57.4,2.06,2.06,0,0,1,.38.69,3.35,3.35,0,0,1,.14,1v.09s0,.09,0,.19H8.31a1.72,1.72,0,0,0,.13.72,1.19,1.19,0,0,0,.35.49,1.4,1.4,0,0,0,.53.27A2.22,2.22,0,0,0,10,6.43ZM9.58,3a1.23,1.23,0,0,0-.47.09,1.46,1.46,0,0,0-.38.27,1.53,1.53,0,0,0-.26.4,1.36,1.36,0,0,0-.12.49h2.29a1.87,1.87,0,0,0-.07-.49,1.36,1.36,0,0,0-.2-.4A1.09,1.09,0,0,0,10,3.07,1.14,1.14,0,0,0,9.58,3Z"/><path class="cls-1" d="M12.67,1.42V.61h.73v.81Zm0,5.53V2.47h.73V7Z"/><path class="cls-1" d="M15.59,3.09h0a1.86,1.86,0,0,1,.27-.29,2,2,0,0,1,.33-.24,2.38,2.38,0,0,1,.4-.16,2.44,2.44,0,0,1,.48,0,2.14,2.14,0,0,1,.58.08,1.14,1.14,0,0,1,.46.28,1.23,1.23,0,0,1,.32.49,2.28,2.28,0,0,1,.11.75V7h-.73V4.06a1.25,1.25,0,0,0-.22-.83A.82.82,0,0,0,17,3a1.43,1.43,0,0,0-.74.21,1.91,1.91,0,0,0-.6.57V7h-.73V2.47h.56Z"/><path class="cls-1" d="M22,7V.12h.73V7Z"/><path class="cls-1" d="M24.18,1.42V.61h.73v.81ZM24.2,7V2.47h.73V7Z"/><path class="cls-1" d="M28.52,6.43a3.37,3.37,0,0,0,.66-.06,4.5,4.5,0,0,0,.6-.17v.61a2.13,2.13,0,0,1-.6.18,3.64,3.64,0,0,1-.76.07,3.26,3.26,0,0,1-.9-.12,1.79,1.79,0,0,1-1.21-1.11,2.8,2.8,0,0,1-.18-1.06A3.12,3.12,0,0,1,26.3,3.7,2.14,2.14,0,0,1,26.75,3a1.9,1.9,0,0,1,.65-.45,2.07,2.07,0,0,1,1.47,0,1.51,1.51,0,0,1,.57.4,2.06,2.06,0,0,1,.38.69,3.37,3.37,0,0,1,.13,1v.28H26.86a1.72,1.72,0,0,0,.13.72,1.19,1.19,0,0,0,.35.49,1.33,1.33,0,0,0,.53.27A2.22,2.22,0,0,0,28.52,6.43ZM28.13,3a1.23,1.23,0,0,0-.47.09,1.46,1.46,0,0,0-.38.27,1.53,1.53,0,0,0-.26.4,1.61,1.61,0,0,0-.13.49h2.3a1.87,1.87,0,0,0-.07-.49,1.17,1.17,0,0,0-.21-.4,1,1,0,0,0-.33-.27A1.06,1.06,0,0,0,28.13,3Z"/><path class="cls-1" d="M35.21,4.63A2.92,2.92,0,0,1,35,5.71a2.1,2.1,0,0,1-.45.76,1.74,1.74,0,0,1-.63.45,2.11,2.11,0,0,1-.74.14A1.61,1.61,0,0,1,32.71,7a1.84,1.84,0,0,1-.37-.17,1.38,1.38,0,0,1-.25-.21L32,6.45h0l-.16.5h-.55V.12H32V2.89h0a1.6,1.6,0,0,1,.56-.4,1.86,1.86,0,0,1,.73-.14,2.1,2.1,0,0,1,.41,0,1.84,1.84,0,0,1,.43.15,2.07,2.07,0,0,1,.41.27,1.45,1.45,0,0,1,.35.42,2.35,2.35,0,0,1,.24.6A3.2,3.2,0,0,1,35.21,4.63Zm-.76.06a2.35,2.35,0,0,0-.13-.87A1.4,1.4,0,0,0,34,3.3a1.06,1.06,0,0,0-.41-.25,1.51,1.51,0,0,0-1.09.07,1.91,1.91,0,0,0-.53.36V5.83l.17.19a1.79,1.79,0,0,0,.26.2,1.91,1.91,0,0,0,.32.16,1.34,1.34,0,0,0,.4.06,1.21,1.21,0,0,0,.58-.13A1.08,1.08,0,0,0,34.11,6a1.54,1.54,0,0,0,.25-.55A2.71,2.71,0,0,0,34.45,4.69Z"/><path class="cls-1" d="M36.41,7V.12h.74V7Z"/><path class="cls-1" d="M38.64,1.42V.61h.73v.81Zm0,5.53V2.47h.73V7Z"/><path class="cls-1" d="M41.55,3.09h0a1.86,1.86,0,0,1,.27-.29,2,2,0,0,1,.33-.24,2.38,2.38,0,0,1,.4-.16,2.44,2.44,0,0,1,.48,0,2.14,2.14,0,0,1,.58.08,1.25,1.25,0,0,1,.47.28,1.33,1.33,0,0,1,.31.49,2,2,0,0,1,.11.75V7h-.73V4.06a1.25,1.25,0,0,0-.22-.83A.82.82,0,0,0,42.92,3a1.37,1.37,0,0,0-.73.21,1.84,1.84,0,0,0-.61.57V7h-.73V2.47h.56Z"/><path class="cls-1" d="M47.67,2.35a1.85,1.85,0,0,1,.51.07,1.68,1.68,0,0,1,.38.18,1.29,1.29,0,0,1,.24.21.77.77,0,0,1,.13.17h0l.15-.51h.55V7.21a2.22,2.22,0,0,1-.17.9,1.62,1.62,0,0,1-.48.64,2,2,0,0,1-.73.38,3.59,3.59,0,0,1-1,.13,3.77,3.77,0,0,1-.79-.08A2.17,2.17,0,0,1,46,9V8.37a2.33,2.33,0,0,0,.31.11l.31.08a1.86,1.86,0,0,0,.33,0l.37,0a1.75,1.75,0,0,0,1.21-.37,1.41,1.41,0,0,0,.42-1.12v-.6h0a1.53,1.53,0,0,1-.55.4,1.9,1.9,0,0,1-.73.13,2,2,0,0,1-.41,0,2.39,2.39,0,0,1-.43-.14,2.13,2.13,0,0,1-.42-.27A1.63,1.63,0,0,1,46,6.19a2.35,2.35,0,0,1-.24-.6,3.12,3.12,0,0,1-.09-.79,3.2,3.2,0,0,1,.17-1.09A2.1,2.1,0,0,1,46.3,3a1.74,1.74,0,0,1,.63-.45A1.92,1.92,0,0,1,47.67,2.35ZM46.44,4.73a2.62,2.62,0,0,0,.13.87,1.54,1.54,0,0,0,.32.52,1.05,1.05,0,0,0,.43.25A1.48,1.48,0,0,0,48.4,6.3a1.71,1.71,0,0,0,.52-.37V3.59a2.3,2.3,0,0,0-.17-.2,2.73,2.73,0,0,0-.25-.2A1.66,1.66,0,0,0,48.17,3a1.29,1.29,0,0,0-.4-.06,1.26,1.26,0,0,0-.57.12,1.15,1.15,0,0,0-.42.37,1.47,1.47,0,0,0-.25.55A2.6,2.6,0,0,0,46.44,4.73Z"/><path class="cls-1" d="M51.59,3.66a.48.48,0,0,0,.08.3.55.55,0,0,0,.21.19,1,1,0,0,0,.3.12l.36.09c.17,0,.33.08.48.12a1.44,1.44,0,0,1,.41.21,1,1,0,0,1,.31.37,1.28,1.28,0,0,1,.12.6,1.26,1.26,0,0,1-.13.6,1.21,1.21,0,0,1-.37.44,1.72,1.72,0,0,1-.58.27,2.83,2.83,0,0,1-.74.09L51.6,7,51.25,7,51,6.89l-.18-.08V6.2a4,4,0,0,0,.56.17,2.25,2.25,0,0,0,.6.07,1.74,1.74,0,0,0,.47-.05,1,1,0,0,0,.35-.14.6.6,0,0,0,.32-.55A.57.57,0,0,0,53,5.39a.55.55,0,0,0-.2-.2,1.12,1.12,0,0,0-.29-.14L52.19,5l-.48-.12a2,2,0,0,1-.44-.2A1,1,0,0,1,51,4.29a1,1,0,0,1-.13-.56A1.41,1.41,0,0,1,51,3.12a1.23,1.23,0,0,1,.34-.43,1.54,1.54,0,0,1,.51-.26,2.37,2.37,0,0,1,.61-.08,3,3,0,0,1,.69.07,4.39,4.39,0,0,1,.58.18v.62c-.19-.07-.37-.13-.56-.18A2.87,2.87,0,0,0,52.54,3a1.84,1.84,0,0,0-.44,0,.8.8,0,0,0-.29.15.56.56,0,0,0-.17.21A.66.66,0,0,0,51.59,3.66Z"/><path class="cls-1" d="M58.94,4.65a3.46,3.46,0,0,1-.09.83,3.06,3.06,0,0,1-.25.63,1.8,1.8,0,0,1-.35.45,2.11,2.11,0,0,1-.42.29,1.62,1.62,0,0,1-.45.16,1.6,1.6,0,0,1-.42,0,1.78,1.78,0,0,1-.72-.13,1.58,1.58,0,0,1-.54-.4h0V9.14H55V2.47h.55l.16.51h0a.7.7,0,0,1,.16-.19,1.6,1.6,0,0,1,.26-.19,1.76,1.76,0,0,1,.39-.18,1.59,1.59,0,0,1,.5-.07,2,2,0,0,1,.72.13,1.58,1.58,0,0,1,.62.4,2,2,0,0,1,.44.72A3.22,3.22,0,0,1,58.94,4.65Zm-.77,0a2.54,2.54,0,0,0-.08-.7,1.45,1.45,0,0,0-.25-.53,1,1,0,0,0-.41-.34A1.2,1.2,0,0,0,56.88,3a1.33,1.33,0,0,0-.42.06,1.75,1.75,0,0,0-.34.15,1.37,1.37,0,0,0-.26.2l-.18.2V5.93a1.88,1.88,0,0,0,.53.37,1.39,1.39,0,0,0,.64.14,1.41,1.41,0,0,0,.44-.08,1,1,0,0,0,.43-.28,1.55,1.55,0,0,0,.33-.54A2.71,2.71,0,0,0,58.17,4.66Z"/><path class="cls-1" d="M62.55,3.06h-.06a2.94,2.94,0,0,0-.51,0,2.54,2.54,0,0,0-.47.14,2,2,0,0,0-.39.24,1.34,1.34,0,0,0-.3.33V7h-.73V2.47h.57l.14.71h0a2.16,2.16,0,0,1,.27-.33,1.83,1.83,0,0,1,.36-.26,1.5,1.5,0,0,1,.43-.18,2,2,0,0,1,.5-.06h.18Z"/><path class="cls-1" d="M67.32,4.71a2.93,2.93,0,0,1-.15,1,2,2,0,0,1-.43.74,1.76,1.76,0,0,1-.66.48,2.39,2.39,0,0,1-1.77,0,1.72,1.72,0,0,1-.67-.48,2,2,0,0,1-.43-.74,3.22,3.22,0,0,1-.14-1,3,3,0,0,1,.15-1A2.09,2.09,0,0,1,63.65,3a1.72,1.72,0,0,1,.67-.48,2,2,0,0,1,.87-.17,2.19,2.19,0,0,1,.9.17,1.88,1.88,0,0,1,.67.48,2.23,2.23,0,0,1,.42.74A3.29,3.29,0,0,1,67.32,4.71Zm-.76,0a2.76,2.76,0,0,0-.1-.74,1.63,1.63,0,0,0-.29-.54,1.09,1.09,0,0,0-.43-.34A1.23,1.23,0,0,0,65.19,3a1.22,1.22,0,0,0-.54.12,1.09,1.09,0,0,0-.43.34,1.63,1.63,0,0,0-.29.54,2.76,2.76,0,0,0-.1.74,2.68,2.68,0,0,0,.1.73,1.69,1.69,0,0,0,.29.55,1.27,1.27,0,0,0,.43.34,1.42,1.42,0,0,0,.55.11,1.33,1.33,0,0,0,.54-.11A1.18,1.18,0,0,0,66.17,6a1.69,1.69,0,0,0,.29-.55A2.68,2.68,0,0,0,66.56,4.71Z"/><path class="cls-1" d="M71.07.69l-.31,0h-.29A1.51,1.51,0,0,0,70,.7a.78.78,0,0,0-.33.19.89.89,0,0,0-.2.36,1.62,1.62,0,0,0-.07.53v.69h2.16v.62H69.43V7H68.7V3.09h-.79V2.47h.79V1.78A2.24,2.24,0,0,1,68.83,1a1.37,1.37,0,0,1,.35-.54A1.34,1.34,0,0,1,69.72.1a2,2,0,0,1,.66-.1l.41,0,.28.06Z"/><path class="cls-1" d="M71.59,7V2.47h.73V7Z"/><path class="cls-1" d="M73.83,7V.12h.73V7Z"/></g></g></svg>