<svg width="30" height="30" viewBox="0 0 30 30" fill="none" xmlns="http://www.w3.org/2000/svg">
<path d="M5.81819 18.4921C5.81777 18.4256 5.83167 18.3597 5.85908 18.2982C5.8865 18.2367 5.92689 18.1807 5.97795 18.1335L14.5168 10.3062C14.568 10.2589 14.629 10.2213 14.6961 10.1957C14.7632 10.1701 14.8352 10.1569 14.908 10.1569C14.9807 10.1569 15.0527 10.1701 15.1198 10.1957C15.187 10.2213 15.2479 10.2589 15.2991 10.3062L23.838 18.1335C23.9417 18.2286 24 18.3576 24 18.4921C24 18.6266 23.9417 18.7555 23.838 18.8506C23.7343 18.9457 23.5936 18.9991 23.4469 18.9991C23.3001 18.9991 23.1595 18.9457 23.0557 18.8506L14.908 11.3768L6.76022 18.8506C6.70901 18.898 6.64808 18.9355 6.58095 18.9612C6.51382 18.9868 6.44181 19 6.36909 19C6.29636 19 6.22436 18.9868 6.15723 18.9612C6.09009 18.9355 6.02916 18.898 5.97795 18.8506C5.92689 18.8034 5.8865 18.7475 5.85908 18.686C5.83167 18.6244 5.81777 18.5585 5.81819 18.4921Z" fill="white"/>
</svg>
