<svg width="27" height="15" viewBox="0 0 27 15" fill="none" xmlns="http://www.w3.org/2000/svg">
<g clip-path="url(#clip0)">
<path fill-rule="evenodd" clip-rule="evenodd" d="M12.904 14.9999H14.4697C14.7236 14.9748 14.9627 14.8685 15.1515 14.6969C15.2823 14.4841 15.3522 14.2395 15.3535 13.9898C15.3535 13.9898 15.3535 11.8686 16.3131 11.4645C17.2727 11.0605 18.5101 13.51 19.8232 14.4191C20.3244 14.8125 20.9559 15.002 21.5909 14.9494H25.101C25.101 14.9494 26.9444 14.9494 26.0606 13.3837C25.3978 12.2371 24.5437 11.2122 23.5354 10.3534C21.2879 8.35848 21.5909 8.68676 24.2424 5.07565C25.8838 2.90394 26.5152 1.5908 26.3131 1.03525C26.1111 0.479693 24.9242 0.706965 24.9242 0.706965H20.9596C20.7922 0.681697 20.6219 0.681697 20.4545 0.706965C20.3253 0.868164 20.2385 1.05916 20.202 1.26252C19.791 2.3244 19.3014 3.35418 18.7374 4.34333C16.8687 7.34838 16.1616 7.57565 15.8838 7.32313C15.5187 6.47947 15.3462 5.56506 15.3788 4.64636C15.3788 1.74232 15.8333 0.530198 14.5202 0.201915C13.8991 0.0596785 13.2634 -0.00813854 12.6263 -0.000105407C11.5198 -0.0733334 10.409 0.0462915 9.34343 0.35343C8.88889 0.580703 8.53535 1.08575 8.73737 1.11101C8.99249 1.10818 9.24541 1.15835 9.48014 1.25832C9.71486 1.3583 9.92628 1.50591 10.101 1.69181C10.3751 2.24841 10.5054 2.86484 10.4798 3.48474C10.4798 3.48474 10.7323 6.89384 9.9495 7.32313C9.16667 7.75242 8.68687 7.0201 7.09596 4.31808C6.51803 3.37693 6.00342 2.39833 5.55556 1.38878C5.49382 1.20796 5.37951 1.04969 5.22727 0.934238C5.03904 0.820181 4.83474 0.735055 4.62121 0.681713H0.858586C0.548394 0.693902 0.249123 0.799527 0 0.984743L0 1.64131C1.61152 5.38869 3.75477 8.88423 6.36364 12.0201C7.19024 12.9399 8.19772 13.6793 9.3231 14.192C10.4485 14.7048 11.6675 14.9798 12.904 14.9999Z" fill="white"/>
</g>
<defs>
<clipPath id="clip0">
<rect width="26.3384" height="15" fill="white"/>
</clipPath>
</defs>
</svg>
