<svg width="30" height="40" viewBox="0 0 30 40" fill="none" xmlns="http://www.w3.org/2000/svg">
<g clip-path="url(#clip0)">
<path d="M14.9999 0C6.6999 0 0 6.69573 0 14.9905C0 26.0839 13.8 39.177 14.4 39.7753C14.5468 39.9194 14.7443 40.0002 14.95 40.0002C15.1557 40.0002 15.3532 39.9194 15.5 39.7753C16.2001 39.1756 30 26.0839 30 14.9905C30 6.69573 23.2998 0 14.9999 0ZM14.9999 26.7829C8.50018 26.7829 3.20014 21.4867 3.20014 14.9905C3.20014 8.49434 8.50018 3.19815 14.9999 3.19815C21.4995 3.19815 26.7996 8.4949 26.7996 14.9905C26.7996 21.4862 21.5001 26.7829 14.9999 26.7829Z" fill="#666666"/>
<path d="M23.5521 11.5559L20.8656 7.78934V11.0809L20.8218 11.0823C20.8004 11.0978 20.7778 11.0919 20.7589 11.1179H20.7673C20.7634 11.1255 20.7496 11.1294 20.7462 11.1303C20.7428 11.1311 20.7476 11.1331 20.7493 11.1342C20.7467 11.1427 20.7385 11.1405 20.7332 11.1436L20.7383 11.1452C20.7261 11.169 20.6846 11.1828 20.6626 11.2062C20.6679 11.2031 20.6691 11.209 20.6688 11.2121C20.6487 11.2104 20.6247 11.2375 20.6123 11.2443L20.6225 11.2429C20.5965 11.2536 20.6165 11.2711 20.5906 11.2804L20.5956 11.2638C20.5897 11.2731 20.5812 11.277 20.5784 11.2706C20.5728 11.2824 20.5852 11.2799 20.5725 11.2934C20.5748 11.2971 20.5844 11.2864 20.5835 11.2934L20.5719 11.3191C20.5719 11.3205 20.5699 11.3228 20.5632 11.3276C20.5519 11.3126 20.5468 11.3414 20.5437 11.3194C20.5154 11.3434 20.5016 11.3733 20.4728 11.3882C20.4756 11.4103 20.4273 11.4311 20.4446 11.4461C20.4337 11.4574 20.419 11.4641 20.4033 11.465C20.4047 11.4613 20.4098 11.4605 20.4135 11.4588C20.4059 11.4588 20.3895 11.4715 20.383 11.4774C20.3963 11.4711 20.4105 11.4667 20.4251 11.4644C20.4108 11.473 20.3959 11.4803 20.3805 11.4865L20.3858 11.498C20.3697 11.5008 20.3838 11.513 20.3658 11.5135V11.509C20.348 11.5268 20.3398 11.5181 20.3217 11.5327L20.3257 11.5356C20.3209 11.5423 20.3048 11.5421 20.3062 11.5553L20.3178 11.5454C20.3223 11.5525 20.3178 11.5632 20.3155 11.57C20.302 11.579 20.302 11.5635 20.2952 11.5683C20.298 11.5762 20.2974 11.572 20.3068 11.5739C20.2917 11.586 20.2741 11.5946 20.2554 11.5991C20.2554 11.6005 20.2576 11.6013 20.2576 11.6013C20.2449 11.6149 20.2232 11.6154 20.2192 11.6281H20.2226C20.2195 11.6468 20.1867 11.6462 20.198 11.6628C20.1952 11.6702 20.2093 11.6513 20.2074 11.6662C20.1952 11.6857 20.1853 11.664 20.1749 11.6812C20.1763 11.6789 20.1766 11.6812 20.1785 11.6812C20.1678 11.6902 20.1526 11.7015 20.1399 11.7108C20.1365 11.7354 20.0938 11.7475 20.0904 11.776C20.0904 11.7664 20.0811 11.774 20.0791 11.7721C20.0772 11.7701 20.0808 11.7721 20.0811 11.774C20.0755 11.78 20.0707 11.776 20.0664 11.776C20.0664 11.7848 20.0461 11.7865 20.0455 11.7921C20.0427 11.789 20.0385 11.7941 20.0334 11.7992C20.0472 11.7929 20.0427 11.8025 20.052 11.8031C20.0376 11.8189 20.0215 11.8059 20.0074 11.8234L20.0035 11.8375C20.0016 11.8362 19.9994 11.8355 19.9971 11.8355C19.9948 11.8355 19.9926 11.8362 19.9908 11.8375C19.9696 11.8615 19.9388 11.8847 19.9343 11.9056C19.9051 11.9205 19.8776 11.9385 19.8524 11.9595H19.8541C19.8464 11.9693 19.8315 11.9894 19.8408 11.999C19.8193 12.0148 19.7942 12.0128 19.7753 12.0385H19.7838C19.7798 12.0458 19.766 12.0498 19.7626 12.0509C19.7592 12.052 19.7626 12.0534 19.7657 12.0546C19.7631 12.063 19.7549 12.0608 19.7496 12.0642H19.7547C19.7425 12.0882 19.701 12.1017 19.679 12.1254C19.6843 12.1223 19.6855 12.1282 19.6852 12.1313C19.6651 12.1294 19.6411 12.1567 19.6287 12.1632H19.6389C19.6129 12.174 19.633 12.19 19.607 12.2005L19.6121 12.1841C19.6061 12.1931 19.5977 12.1971 19.5948 12.1906C19.5892 12.2027 19.6016 12.1999 19.5889 12.2137C19.5912 12.2174 19.6005 12.2067 19.5999 12.2137L19.5883 12.2394C19.5883 12.2394 19.5864 12.2434 19.5796 12.2482C19.5683 12.2329 19.5629 12.262 19.5601 12.24C19.5319 12.2637 19.518 12.2939 19.4892 12.3089C19.492 12.3309 19.4437 12.3518 19.461 12.3653C19.4501 12.3766 19.4354 12.3835 19.4197 12.3845C19.4197 12.3808 19.4262 12.3797 19.4299 12.3783C19.4223 12.3783 19.4059 12.3907 19.3994 12.3969C19.4127 12.3905 19.4269 12.386 19.4415 12.3836C19.4272 12.3923 19.4123 12.3997 19.3969 12.4059L19.4022 12.4175C19.3861 12.4203 19.4003 12.4325 19.3822 12.433V12.4285C19.3644 12.446 19.3562 12.4375 19.3381 12.4522L19.3421 12.4548C19.3373 12.4618 19.3212 12.4615 19.3226 12.4748L19.3342 12.4649C19.3387 12.472 19.3328 12.4827 19.3319 12.4892C19.3184 12.4985 19.3184 12.483 19.3116 12.4875C19.3144 12.4957 19.3138 12.4912 19.3232 12.4931C19.3081 12.5053 19.2906 12.514 19.2718 12.5185C19.2718 12.5185 19.274 12.5205 19.274 12.5205C19.2613 12.5344 19.2396 12.5349 19.2356 12.5487L19.239 12.547C19.2359 12.5657 19.2031 12.5651 19.2144 12.5818C19.2116 12.5894 19.2257 12.5705 19.2238 12.5851C19.2119 12.6049 19.2017 12.5829 19.1913 12.6004C19.1913 12.5981 19.193 12.6004 19.195 12.6004C19.1842 12.6097 19.169 12.621 19.1563 12.63C19.1529 12.6549 19.1102 12.6667 19.1068 12.6955C19.1068 12.6859 19.0975 12.6935 19.0955 12.6913C19.0965 12.6917 19.0972 12.6925 19.0975 12.6935C19.0919 12.6992 19.0871 12.6952 19.0828 12.6955C19.0828 12.704 19.0625 12.7059 19.0619 12.7113C19.0588 12.7085 19.0549 12.7136 19.0498 12.7184C19.0636 12.7121 19.0591 12.722 19.0684 12.7223C19.054 12.7384 19.0379 12.7254 19.0238 12.7429L19.0199 12.757C19.018 12.7557 19.0158 12.7549 19.0135 12.7549C19.0112 12.7549 19.009 12.7557 19.0072 12.757C18.986 12.781 18.9552 12.8042 18.9507 12.825C18.9216 12.8399 18.8943 12.8579 18.8691 12.8787H18.8708C18.8634 12.8888 18.8482 12.9086 18.8575 12.9185C18.8357 12.9343 18.8109 12.9323 18.792 12.958H18.8004C18.7965 12.9653 18.7827 12.9693 18.7793 12.9704C18.7759 12.9715 18.7807 12.9729 18.7824 12.9741C18.7798 12.9825 18.7716 12.9803 18.7663 12.9834L18.7714 12.9851C18.7592 13.0088 18.7177 13.0226 18.6957 13.046C18.701 13.0429 18.7022 13.0488 18.7019 13.0522C18.6818 13.0503 18.6578 13.0776 18.6454 13.0841L18.6556 13.0827C18.6296 13.0934 18.6496 13.1109 18.6237 13.1202L18.6287 13.1039C18.6228 13.1129 18.6141 13.1169 18.6115 13.1104C18.6059 13.1222 18.6183 13.1197 18.6056 13.1335C18.6078 13.1369 18.6172 13.1265 18.6166 13.1335L18.605 13.1592C18.605 13.1606 18.603 13.1629 18.596 13.1677C18.585 13.1527 18.5796 13.1815 18.5768 13.1595C18.5485 13.1835 18.5347 13.2134 18.5059 13.2283C18.5087 13.2506 18.4604 13.2712 18.4777 13.2862C18.4667 13.2974 18.4521 13.3042 18.4364 13.3054C18.4364 13.3014 18.4429 13.3006 18.4466 13.2989C18.439 13.2989 18.4226 13.3116 18.4161 13.3178C18.4294 13.3113 18.4436 13.3068 18.4582 13.3045C18.4439 13.3131 18.429 13.3204 18.4136 13.3265L18.4189 13.3384C18.4028 13.3409 18.4169 13.3531 18.3989 13.3536V13.3494C18.3811 13.3669 18.3729 13.3582 18.3548 13.3728L18.3588 13.3757C18.354 13.3824 18.3376 13.3821 18.3393 13.3954L18.3509 13.3855C18.3554 13.3929 18.3509 13.4033 18.3486 13.4101C18.3351 13.4194 18.3351 13.4039 18.3283 13.4084C18.3311 13.4166 18.3305 13.4121 18.3399 13.414C18.3249 13.4262 18.3073 13.4348 18.2885 13.4392C18.2885 13.4406 18.2907 13.4414 18.2907 13.4414C18.278 13.455 18.2563 13.4558 18.2523 13.4682H18.2557C18.2526 13.4869 18.2198 13.4863 18.2311 13.5029C18.2283 13.5106 18.2424 13.4914 18.2404 13.5063C18.2283 13.5258 18.2184 13.5041 18.208 13.5213C18.208 13.519 18.2097 13.5213 18.2116 13.5213C18.2009 13.5306 18.1857 13.5419 18.173 13.5509C18.1696 13.5758 18.1269 13.5876 18.1235 13.6161C18.1235 13.6065 18.1142 13.6144 18.1122 13.6122C18.1103 13.6099 18.1139 13.6122 18.1142 13.6141C18.1086 13.6201 18.1035 13.6161 18.0995 13.6161C18.0995 13.6249 18.0792 13.6266 18.0786 13.6322C18.0755 13.6291 18.0716 13.6345 18.0665 13.6393C18.08 13.633 18.0758 13.6426 18.0851 13.6432C18.0707 13.659 18.0546 13.6463 18.0405 13.6635L18.0366 13.6776C18.0366 13.6776 18.0334 13.6813 18.0286 13.6819C18.0032 13.6855 18.0089 13.707 18.0061 13.7008C18.0001 13.6875 17.9815 13.7234 17.9795 13.7245C17.9775 13.7256 17.9414 13.7425 17.9541 13.7493C17.96 13.7527 17.9388 13.7454 17.9335 13.7705C17.9335 13.7753 17.9284 13.7773 17.929 13.7781L17.9146 13.7809C17.8962 13.7939 17.9081 13.8108 17.8911 13.8241C17.8911 13.8151 17.8812 13.8185 17.8883 13.8052C17.8832 13.8103 17.8778 13.8137 17.8807 13.8168C17.875 13.8168 17.8719 13.8362 17.8632 13.8368C17.8632 13.8408 17.8663 13.8461 17.8601 13.8512L17.8581 13.8489C17.8581 13.8489 17.8519 13.8605 17.8615 13.8605C17.8332 13.8619 17.8177 13.9037 17.7928 13.9054C17.783 13.9175 17.7705 13.9316 17.7607 13.9418C17.7607 13.9398 17.7587 13.9395 17.7607 13.9381C17.7426 13.9474 17.7638 13.959 17.7434 13.9697C17.7285 13.9697 17.7482 13.9579 17.7406 13.9599C17.7248 13.9477 17.7231 13.9805 17.7042 13.9822L17.7062 13.9788C17.6932 13.9819 17.6909 14.0036 17.6765 14.0152C17.6762 14.0142 17.6755 14.0134 17.6745 14.0129C17.669 14.0314 17.6593 14.0484 17.6463 14.0626C17.6463 14.053 17.6494 14.0538 17.6415 14.0505C17.6364 14.0569 17.6519 14.0581 17.6415 14.0708C17.6347 14.0708 17.6237 14.0764 17.6169 14.0708L17.6276 14.06C17.6147 14.0575 17.6135 14.0739 17.6065 14.0778L17.6039 14.0739C17.5881 14.0908 17.596 14.0998 17.5774 14.1162H17.5816C17.5799 14.1343 17.5689 14.1193 17.565 14.1351L17.5537 14.1292C17.5464 14.144 17.538 14.1583 17.5285 14.1718C17.5319 14.1575 17.5373 14.1437 17.5446 14.1309C17.5381 14.1371 17.5232 14.1523 17.5237 14.1591C17.5257 14.1557 17.5268 14.1506 17.5308 14.1495C17.5288 14.165 17.521 14.1791 17.509 14.189C17.4952 14.1698 17.4712 14.2172 17.4495 14.2122C17.4325 14.2404 17.4014 14.2522 17.3757 14.2782C17.3975 14.2827 17.3684 14.2861 17.3825 14.2982C17.3774 14.3047 17.3749 14.3067 17.3735 14.3064L17.3472 14.316C17.339 14.316 17.3503 14.3076 17.3472 14.305C17.3325 14.3166 17.3359 14.305 17.3235 14.3092C17.33 14.3126 17.3255 14.3208 17.3159 14.3262L17.3325 14.3222C17.3204 14.3473 17.3057 14.3262 17.293 14.3505L17.2953 14.3406C17.2876 14.3524 17.2588 14.3747 17.2594 14.3945C17.256 14.3945 17.2504 14.3931 17.2537 14.388C17.2286 14.4083 17.2122 14.4487 17.1877 14.4591V14.454C17.1843 14.4591 17.186 14.4676 17.1772 14.4693C17.1772 14.4693 17.1772 14.4645 17.1738 14.4662C17.1704 14.4679 17.1673 14.4828 17.1597 14.4865L17.1614 14.478C17.1332 14.495 17.1332 14.5201 17.1174 14.5404C17.1083 14.5305 17.0874 14.5443 17.0767 14.5511V14.5494C17.054 14.573 17.0341 14.599 17.0174 14.627C16.9962 14.6301 16.9711 14.6592 16.9457 14.6784C16.944 14.6801 16.943 14.6823 16.9427 14.6846C16.9424 14.6869 16.9428 14.6893 16.944 14.6914L16.9296 14.6939C16.9112 14.7069 16.9231 14.7238 16.9061 14.7371C16.9061 14.7281 16.8962 14.7315 16.9033 14.7185C16.8982 14.7233 16.8928 14.7269 16.8954 14.73C16.89 14.73 16.8866 14.7495 16.8782 14.7498C16.8782 14.7538 16.8813 14.7591 16.8751 14.7642L16.8731 14.7619C16.8731 14.7619 16.8669 14.7735 16.8765 14.7735C16.8482 14.7752 16.8327 14.817 16.8078 14.8184C16.7977 14.8305 16.7855 14.8449 16.7756 14.8548C16.7756 14.8528 16.7734 14.8525 16.7756 14.8511C16.7576 14.8604 16.7788 14.872 16.7584 14.8827C16.7435 14.8827 16.7632 14.8709 16.7556 14.8731C16.7398 14.8607 16.7381 14.8935 16.7192 14.8951L16.7211 14.892C16.7082 14.8949 16.7059 14.9166 16.6915 14.9282C16.6915 14.9282 16.6915 14.9265 16.6895 14.9262C16.6838 14.9445 16.6742 14.9614 16.6613 14.9756C16.6613 14.966 16.6644 14.9668 16.6565 14.9634C16.6514 14.9699 16.6669 14.9711 16.6565 14.9838C16.6497 14.9838 16.6387 14.9894 16.6319 14.9838L16.6426 14.9733C16.6294 14.9705 16.6285 14.9869 16.6215 14.9911L16.6189 14.9869C16.6031 15.0038 16.611 15.0128 16.5924 15.0292H16.5966C16.5949 15.0473 16.5839 15.0323 16.5799 15.0481L16.5687 15.0422C16.5614 15.0571 16.553 15.0714 16.5435 15.0851C16.5468 15.0707 16.5522 15.0569 16.5596 15.0442C16.5531 15.0501 16.5382 15.0653 16.5387 15.0724C16.5407 15.069 16.5418 15.0639 16.5458 15.0628C16.5437 15.0783 16.536 15.0925 16.524 15.1026C16.5102 15.0834 16.4862 15.1308 16.4644 15.1254C16.4475 15.1537 16.4164 15.1655 16.3907 15.1918C16.4125 15.196 16.3834 15.1994 16.3975 15.2115C16.3924 15.218 16.3899 15.22 16.3885 15.2197L16.3622 15.2293C16.354 15.2293 16.3653 15.2208 16.3622 15.2183C16.3478 15.2301 16.3512 15.2183 16.3388 15.2228C16.3453 15.2259 16.3408 15.2341 16.3312 15.2395L16.3478 15.2355C16.3357 15.2606 16.3196 15.2395 16.3083 15.2637L16.3105 15.2536C16.3029 15.2654 16.2741 15.2877 16.2747 15.3078C16.2713 15.3078 16.2656 15.3061 16.269 15.301C16.2439 15.3216 16.2275 15.3619 16.2029 15.3721L16.2015 15.3673C16.1981 15.3724 16.1998 15.3806 16.1911 15.3825C16.1911 15.3808 16.1911 15.3775 16.1874 15.3792C16.1837 15.3808 16.1812 15.3958 16.1736 15.3995L16.1753 15.391C16.147 15.4082 16.147 15.4331 16.1312 15.4534C16.1222 15.4435 16.1013 15.4573 16.0906 15.4641V15.4624C16.068 15.486 16.0481 15.512 16.0312 15.54C16.0101 15.5431 15.9849 15.5722 15.9595 15.5914C15.9579 15.5931 15.9568 15.5953 15.9565 15.5976C15.9562 15.5999 15.9567 15.6023 15.9578 15.6044L15.9434 15.6072C15.9251 15.6199 15.9366 15.6368 15.9197 15.6501C15.9197 15.6411 15.9101 15.6447 15.9172 15.6315C15.9121 15.6363 15.9064 15.6399 15.9093 15.643C15.9036 15.643 15.9005 15.6625 15.8917 15.6628C15.8917 15.6667 15.8951 15.6721 15.8889 15.6772L15.8869 15.6752C15.8869 15.6752 15.8807 15.6868 15.8903 15.6868C15.8621 15.6868 15.8466 15.73 15.8217 15.7314C15.8115 15.7435 15.7994 15.7579 15.7895 15.7678C15.7895 15.7658 15.7873 15.7655 15.7895 15.7644C15.7714 15.7737 15.7926 15.785 15.7723 15.7957C15.7573 15.7957 15.7771 15.7839 15.7695 15.7861C15.7536 15.7737 15.752 15.8064 15.733 15.8084L15.735 15.805C15.722 15.8079 15.7198 15.8296 15.7054 15.8414C15.7054 15.8414 15.7054 15.8395 15.7034 15.8392C15.6977 15.8575 15.6881 15.8744 15.6751 15.8886C15.6751 15.8793 15.6783 15.8801 15.6703 15.8767C15.6653 15.8829 15.6808 15.8843 15.6703 15.8968C15.6636 15.8968 15.6526 15.9027 15.6458 15.8968L15.6565 15.886C15.6432 15.8835 15.6424 15.8996 15.6353 15.9038L15.6328 15.8996C15.617 15.9168 15.6249 15.9255 15.6062 15.9422H15.6105C15.6088 15.96 15.5978 15.945 15.5938 15.9608L15.5825 15.9549C15.5753 15.9698 15.5669 15.9842 15.5574 15.9978C15.5607 15.9834 15.5661 15.9696 15.5735 15.9569C15.567 15.9628 15.552 15.9783 15.5526 15.9851C15.5546 15.982 15.5557 15.9766 15.5596 15.9755C15.5576 15.9911 15.5497 16.0053 15.5376 16.0153C15.5241 15.9961 15.5001 16.0435 15.4783 16.0384C15.4614 16.0667 15.4303 16.0782 15.4046 16.1045C15.4264 16.1087 15.397 16.1121 15.4114 16.1242C15.406 16.1307 15.4038 16.1327 15.4023 16.1324L15.3758 16.1417C15.3679 16.1417 15.3789 16.1333 15.3758 16.1307C15.3614 16.1426 15.3648 16.1307 15.3524 16.1352C15.3589 16.1383 15.3541 16.1465 15.3447 16.1522L15.3614 16.1479C15.3493 16.173 15.3332 16.1522 15.3219 16.1762L15.3241 16.1663C15.3165 16.1778 15.2877 16.2001 15.288 16.2202C15.2849 16.2202 15.2792 16.2185 15.2826 16.2137C15.2575 16.234 15.2411 16.2744 15.2162 16.2848V16.2797C15.2126 16.2848 15.2143 16.293 15.2058 16.295C15.2058 16.2933 15.2058 16.2899 15.2021 16.2916C15.1985 16.2933 15.1959 16.3085 15.1883 16.3119L15.1897 16.3034C15.1615 16.3207 15.1632 16.3458 15.1459 16.3661C15.1369 16.3562 15.1157 16.3698 15.1053 16.3765V16.3748C15.0827 16.3985 15.0628 16.4246 15.046 16.4527C15.0248 16.4556 15.0313 16.4595 15.0059 16.479V16.5377V24.8237L17.6694 20.6452V14.3454L20.8656 11.36V15.7029L23.5521 11.5559Z" fill="#AB3473"/>
<path d="M15.3996 16.1439C15.3956 16.1425 15.4023 16.122 15.3872 16.1288C15.402 16.1256 15.3794 16.1496 15.3996 16.1439Z" fill="#AB3473"/>
<path d="M15.8924 15.6673C15.8912 15.6677 15.8901 15.6683 15.8893 15.6691C15.8884 15.67 15.8877 15.671 15.8872 15.6721V15.6721C15.8872 15.6715 15.8873 15.6708 15.8876 15.6702C15.8879 15.6696 15.8883 15.669 15.8887 15.6686C15.8892 15.6681 15.8898 15.6678 15.8904 15.6676C15.891 15.6673 15.8917 15.6673 15.8924 15.6673V15.6673Z" fill="#AB3473"/>
<path d="M15.8223 15.7365L15.8159 15.7403H15.8193L15.8223 15.7365Z" fill="#AB3473"/>
<path d="M15.8242 15.7202L15.8338 15.7262C15.837 15.7202 15.8293 15.712 15.8242 15.7202Z" fill="#AB3473"/>
<path d="M15.5864 15.9554C15.5921 15.9507 15.5997 15.9483 15.6017 15.9447C15.5983 15.9441 15.5949 15.9449 15.592 15.9469C15.5892 15.9488 15.5872 15.9519 15.5864 15.9554V15.9554Z" fill="#AB3473"/>
<path d="M16.3874 15.2273C16.3834 15.2273 16.3901 15.2053 16.375 15.2122C16.3898 15.2095 16.3672 15.2335 16.3874 15.2273Z" fill="#AB3473"/>
<path d="M16.8801 14.7512C16.879 14.7516 16.8779 14.7522 16.8771 14.7531C16.8762 14.7539 16.8755 14.7549 16.875 14.756H16.877C16.877 14.755 16.8773 14.754 16.8779 14.7532C16.8785 14.7523 16.8792 14.7517 16.8801 14.7512V14.7512Z" fill="#AB3473"/>
<path d="M16.8096 14.8204L16.8032 14.8242H16.8066L16.8096 14.8204Z" fill="#AB3473"/>
<path d="M16.812 14.805L16.8216 14.811C16.8248 14.8053 16.8171 14.7958 16.812 14.805Z" fill="#AB3473"/>
<path d="M16.5742 15.039C16.5799 15.0346 16.5878 15.0322 16.5895 15.0286C16.5861 15.028 16.5827 15.0287 16.5799 15.0307C16.5771 15.0326 16.575 15.0356 16.5742 15.039V15.039Z" fill="#AB3473"/>
<path d="M17.3751 14.3112C17.3712 14.3097 17.3779 14.289 17.3628 14.2961C17.3776 14.2934 17.355 14.3174 17.3751 14.3112Z" fill="#AB3473"/>
<path d="M17.8679 13.8348C17.8657 13.8357 17.8639 13.8375 17.8628 13.8396H17.8648C17.8652 13.8377 17.8664 13.836 17.8679 13.8348V13.8348Z" fill="#AB3473"/>
<path d="M17.7979 13.9043L17.7915 13.9077H17.7949L17.7979 13.9043Z" fill="#AB3473"/>
<path d="M17.7998 13.8889L17.8094 13.8949C17.8126 13.8892 17.8049 13.8797 17.7998 13.8889Z" fill="#AB3473"/>
<path d="M17.562 14.1229C17.5677 14.1185 17.5756 14.1161 17.5773 14.1126C17.5739 14.1119 17.5705 14.1126 17.5677 14.1146C17.5648 14.1165 17.5628 14.1195 17.562 14.1229V14.1229Z" fill="#AB3473"/>
<path d="M20.5584 11.3064C20.5507 11.3207 20.5708 11.3156 20.5719 11.3195C20.5784 11.2999 20.5538 11.3207 20.5584 11.3064Z" fill="#AB3473"/>
<path d="M20.0677 11.7729C20.0655 11.774 20.0637 11.7757 20.0625 11.7777C20.0631 11.777 20.0639 11.7763 20.0648 11.7759C20.0657 11.7755 20.0667 11.7753 20.0677 11.7753C20.0677 11.7753 20.068 11.7737 20.0677 11.7729Z" fill="#AB3473"/>
<path d="M20.1397 11.7066L20.1367 11.7113L20.1394 11.7093C20.1397 11.7084 20.1398 11.7075 20.1397 11.7066Z" fill="#AB3473"/>
<path d="M20.1214 11.7137C20.1115 11.7181 20.1214 11.7264 20.1269 11.7235L20.1214 11.7137Z" fill="#AB3473"/>
<path d="M20.3609 11.5078C20.3646 11.506 20.3673 11.4983 20.3724 11.4927C20.3689 11.4933 20.3657 11.4952 20.3636 11.498C20.3615 11.5008 20.3605 11.5043 20.3609 11.5078Z" fill="#AB3473"/>
<path d="M19.575 12.2279C19.5673 12.2424 19.5874 12.2371 19.5885 12.2409C19.5959 12.2217 19.5702 12.2424 19.575 12.2279Z" fill="#AB3473"/>
<path d="M19.0847 12.6946C19.0825 12.6956 19.0807 12.6973 19.0796 12.6994C19.0802 12.6986 19.0809 12.6979 19.0818 12.6974C19.0827 12.6969 19.0837 12.6967 19.0847 12.6966C19.0847 12.6966 19.0851 12.6954 19.0847 12.6946Z" fill="#AB3473"/>
<path d="M19.1571 12.6281L19.1538 12.6331L19.1568 12.631C19.1571 12.6301 19.1572 12.6291 19.1571 12.6281V12.6281Z" fill="#AB3473"/>
<path d="M19.1385 12.6354C19.1286 12.6398 19.1385 12.6478 19.1439 12.6452L19.1385 12.6354Z" fill="#AB3473"/>
<path d="M19.3775 12.4292C19.3812 12.4278 19.3839 12.4198 19.389 12.4141C19.3855 12.4147 19.3823 12.4166 19.3802 12.4194C19.3781 12.4222 19.3771 12.4258 19.3775 12.4292V12.4292Z" fill="#AB3473"/>
<path d="M18.5925 13.1496C18.5849 13.1639 18.605 13.1588 18.6061 13.1627C18.6134 13.1434 18.5889 13.1639 18.5925 13.1496Z" fill="#AB3473"/>
<path d="M18.1033 13.6161C18.1012 13.6172 18.0994 13.6189 18.0981 13.6209C18.0987 13.6201 18.0995 13.6195 18.1004 13.6191C18.1013 13.6187 18.1023 13.6185 18.1033 13.6185V13.6161Z" fill="#AB3473"/>
<path d="M18.1747 13.5498L18.1714 13.5546L18.1744 13.5525C18.1746 13.5516 18.1747 13.5507 18.1747 13.5498V13.5498Z" fill="#AB3473"/>
<path d="M18.1561 13.5571C18.1462 13.5616 18.1561 13.5695 18.1615 13.5667L18.1561 13.5571Z" fill="#AB3473"/>
<path d="M18.3946 13.3499C18.3983 13.3481 18.401 13.3404 18.4061 13.3347C18.4026 13.3353 18.3994 13.3372 18.3973 13.34C18.3951 13.3429 18.3942 13.3464 18.3946 13.3499Z" fill="#AB3473"/>
<path d="M14.6134 16.1282C14.5984 16.1214 14.605 16.1419 14.6011 16.1433C14.6213 16.1496 14.5999 16.1256 14.6134 16.1282Z" fill="#CDD430"/>
<path d="M14.1094 15.6673C14.1103 15.6678 14.1111 15.6684 14.1116 15.6693C14.1122 15.6701 14.1125 15.6711 14.1125 15.6721H14.1145C14.1141 15.671 14.1134 15.67 14.1125 15.6692C14.1116 15.6683 14.1105 15.6677 14.1094 15.6673Z" fill="#CDD430"/>
<path d="M14.1797 15.7365L14.1827 15.7403H14.1861L14.1797 15.7365Z" fill="#CDD430"/>
<path d="M14.1673 15.7272L14.1769 15.7211C14.1717 15.7119 14.1641 15.7202 14.1673 15.7272Z" fill="#CDD430"/>
<path d="M14.3989 15.9456C14.4006 15.9492 14.4085 15.9515 14.4142 15.9563C14.4134 15.9528 14.4114 15.9497 14.4086 15.9477C14.4057 15.9458 14.4023 15.945 14.3989 15.9456V15.9456Z" fill="#CDD430"/>
<path d="M13.6256 15.2119C13.6106 15.2051 13.6172 15.2255 13.6133 15.227C13.6335 15.2335 13.6115 15.2095 13.6256 15.2119Z" fill="#CDD430"/>
<path d="M13.1216 14.7509C13.1233 14.7522 13.1244 14.7541 13.1248 14.7561C13.1242 14.7541 13.1231 14.7523 13.1216 14.7509Z" fill="#CDD430"/>
<path d="M13.1914 14.8204L13.194 14.8238H13.1978L13.1914 14.8204Z" fill="#CDD430"/>
<path d="M13.1795 14.811L13.1891 14.805C13.1836 14.7958 13.1763 14.8053 13.1795 14.811Z" fill="#CDD430"/>
<path d="M13.4106 15.0286C13.4123 15.0322 13.4202 15.0346 13.4259 15.039C13.4251 15.0356 13.4231 15.0326 13.4202 15.0307C13.4174 15.0287 13.414 15.028 13.4106 15.0286V15.0286Z" fill="#CDD430"/>
<path d="M12.6378 14.2961C12.6225 14.289 12.6294 14.3097 12.6255 14.3112C12.6457 14.3174 12.6231 14.2934 12.6378 14.2961Z" fill="#CDD430"/>
<path d="M12.1333 13.8348C12.1341 13.8354 12.1348 13.8361 12.1353 13.8369C12.1358 13.8377 12.136 13.8387 12.1361 13.8396H12.1384C12.1374 13.8375 12.1355 13.8357 12.1333 13.8348Z" fill="#CDD430"/>
<path d="M12.2041 13.9043L12.2067 13.9077H12.2105L12.2041 13.9043Z" fill="#CDD430"/>
<path d="M12.1917 13.8949L12.201 13.8889C12.1959 13.8797 12.1885 13.8892 12.1917 13.8949Z" fill="#CDD430"/>
<path d="M12.4229 14.1126C12.4246 14.1163 12.4328 14.1188 12.4383 14.1235C12.4375 14.1199 12.4355 14.1168 12.4326 14.1147C12.4297 14.1127 12.4262 14.1119 12.4229 14.1126V14.1126Z" fill="#CDD430"/>
<path d="M9.44219 11.3064C9.44558 11.3207 9.42129 11.2999 9.42864 11.3195C9.42977 11.3156 9.44953 11.3207 9.44219 11.3064Z" fill="#CDD430"/>
<path d="M9.93373 11.7729C9.93355 11.7737 9.93355 11.7745 9.93373 11.7753C9.93467 11.7753 9.9356 11.7754 9.93644 11.7759C9.93728 11.7763 9.93798 11.7769 9.93849 11.7777C9.93805 11.7767 9.9374 11.7757 9.93659 11.7748C9.93577 11.774 9.9348 11.7734 9.93373 11.7729V11.7729Z" fill="#CDD430"/>
<path d="M9.85998 11.7066C9.85983 11.7075 9.85983 11.7084 9.85998 11.7093L9.86299 11.7113L9.85998 11.7066Z" fill="#CDD430"/>
<path d="M9.87995 11.7137L9.87451 11.7235C9.88059 11.7264 9.88955 11.7181 9.87995 11.7137Z" fill="#CDD430"/>
<path d="M9.62988 11.4927C9.6347 11.4983 9.63771 11.506 9.64133 11.5078C9.64177 11.5043 9.64082 11.5008 9.63869 11.498C9.63656 11.4952 9.6334 11.4933 9.62988 11.4927V11.4927Z" fill="#CDD430"/>
<path d="M10.4251 12.2279C10.4285 12.2424 10.4042 12.2217 10.4115 12.2409C10.4127 12.2371 10.4324 12.2424 10.4251 12.2279Z" fill="#CDD430"/>
<path d="M10.9162 12.6946C10.916 12.6953 10.916 12.696 10.9162 12.6966C10.9171 12.6967 10.9181 12.6969 10.9189 12.6974C10.9197 12.6979 10.9204 12.6986 10.9209 12.6994C10.9205 12.6974 10.9197 12.6962 10.9162 12.6946Z" fill="#CDD430"/>
<path d="M10.844 12.6281C10.8437 12.629 10.8437 12.6301 10.844 12.631L10.8467 12.6331L10.844 12.6281Z" fill="#CDD430"/>
<path d="M10.8624 12.6354L10.8569 12.6452C10.863 12.6478 10.872 12.6398 10.8624 12.6354Z" fill="#CDD430"/>
<path d="M10.6118 12.4141C10.6166 12.4198 10.6196 12.4278 10.6233 12.4292C10.6237 12.4258 10.6228 12.4222 10.6206 12.4194C10.6185 12.4166 10.6153 12.4147 10.6118 12.4141Z" fill="#CDD430"/>
<path d="M11.409 13.1496C11.4124 13.1639 11.3881 13.1434 11.3954 13.1627C11.3954 13.1588 11.4155 13.1639 11.409 13.1496Z" fill="#CDD430"/>
<path d="M11.8992 13.6161C11.899 13.6165 11.8989 13.6169 11.8989 13.6173C11.8989 13.6178 11.899 13.6182 11.8992 13.6185C11.9002 13.6185 11.9011 13.6187 11.902 13.6191C11.9028 13.6195 11.9035 13.6201 11.904 13.6209C11.9031 13.6188 11.9014 13.6171 11.8992 13.6161V13.6161Z" fill="#CDD430"/>
<path d="M11.8259 13.5498C11.8256 13.5507 11.8256 13.5516 11.8259 13.5525L11.8286 13.5546L11.8259 13.5498Z" fill="#CDD430"/>
<path d="M11.8453 13.5571L11.8398 13.5667C11.8459 13.5695 11.8549 13.5616 11.8453 13.5571Z" fill="#CDD430"/>
<path d="M11.5947 13.3359C11.5995 13.3415 11.6026 13.3492 11.6062 13.351C11.6066 13.3475 11.6057 13.344 11.6035 13.3412C11.6014 13.3384 11.5982 13.3365 11.5947 13.3359V13.3359Z" fill="#CDD430"/>
<path d="M14.9999 16.4903C14.9745 16.4711 14.9809 16.4671 14.9598 16.464C14.943 16.436 14.9231 16.4099 14.9005 16.3864V16.3881C14.89 16.3813 14.8688 16.3675 14.8598 16.3774C14.8429 16.3571 14.8429 16.3319 14.816 16.315V16.3235C14.8084 16.3198 14.8033 16.3065 14.8022 16.3032C14.8011 16.2998 14.7996 16.3048 14.7985 16.3063C14.79 16.3046 14.7917 16.2961 14.7881 16.291V16.2961C14.7635 16.2857 14.7468 16.2453 14.7217 16.225C14.7251 16.2301 14.7194 16.2318 14.7163 16.2315C14.7163 16.2117 14.6881 16.1894 14.6805 16.1776L14.6825 16.1874C14.67 16.1623 14.6542 16.1835 14.6429 16.1592L14.6596 16.1632C14.6503 16.1578 14.6455 16.1496 14.652 16.1462C14.6395 16.1414 14.6429 16.1536 14.6285 16.142C14.6251 16.1445 14.6364 16.1533 14.6285 16.153L14.6 16.1431C14.6 16.1431 14.5963 16.1414 14.591 16.1347C14.6054 16.1228 14.576 16.1194 14.5977 16.1149C14.572 16.0889 14.5413 16.0768 14.524 16.0489C14.5023 16.0534 14.4783 16.0065 14.4647 16.0257C14.4526 16.0159 14.4447 16.0017 14.4427 15.9862C14.4466 15.9862 14.4478 15.9924 14.4498 15.9958C14.4498 15.9882 14.4356 15.973 14.4289 15.9676C14.4363 15.9803 14.4417 15.9941 14.445 16.0085C14.4355 15.995 14.4271 15.9807 14.4198 15.9659L14.4085 15.9718C14.4049 15.956 14.3936 15.9718 14.3919 15.9529H14.3961C14.3775 15.9365 14.3854 15.9275 14.3696 15.9106L14.367 15.9145C14.36 15.9106 14.3591 15.8942 14.3458 15.8968L14.3566 15.9075C14.3498 15.9126 14.3388 15.9075 14.332 15.9075C14.3218 15.8948 14.3374 15.8936 14.332 15.8872C14.3241 15.8905 14.3286 15.8897 14.3272 15.8993C14.3144 15.8849 14.3047 15.868 14.299 15.8496C14.298 15.8501 14.2973 15.8509 14.297 15.8519C14.2826 15.8403 14.2803 15.8186 14.2687 15.8155L14.2704 15.8189C14.2515 15.8169 14.2498 15.7844 14.234 15.7966C14.2264 15.7946 14.2461 15.807 14.2315 15.8064C14.2108 15.7957 14.2315 15.7841 14.214 15.7748C14.2165 15.7748 14.214 15.7765 14.214 15.7785C14.2038 15.7683 14.1916 15.7542 14.1818 15.7421C14.1566 15.7404 14.1419 15.6986 14.1129 15.6972C14.1225 15.6972 14.1143 15.6879 14.1162 15.6856C14.1182 15.6834 14.1162 15.6876 14.1143 15.6879C14.1081 15.6828 14.1117 15.6775 14.1114 15.6735C14.1027 15.6735 14.0996 15.6538 14.0939 15.6535C14.0968 15.6504 14.0914 15.647 14.086 15.6419C14.0931 15.6552 14.0832 15.6518 14.0835 15.6608C14.0665 15.6475 14.0781 15.6306 14.0598 15.6176L14.0456 15.6148C14.0466 15.6127 14.047 15.6104 14.0466 15.6082C14.0463 15.6059 14.0453 15.6038 14.0437 15.6021C14.0183 15.5826 13.9931 15.5539 13.9719 15.5507C13.9552 15.5227 13.9353 15.4967 13.9126 15.4731V15.4748C13.9022 15.4681 13.881 15.4542 13.872 15.4641C13.8547 15.4438 13.855 15.4187 13.8282 15.4017L13.8296 15.4099C13.822 15.4065 13.8169 15.393 13.8158 15.3899C13.8146 15.3868 13.8132 15.3899 13.8121 15.393C13.8036 15.3913 13.8053 15.3828 13.8017 15.3777V15.3828C13.7771 15.3724 13.7604 15.332 13.7353 15.3117C13.7387 15.3168 13.733 15.3182 13.7299 15.3182C13.7299 15.2982 13.7017 15.2761 13.6941 15.2643L13.696 15.2742C13.6836 15.2491 13.6678 15.2702 13.6565 15.2459L13.6732 15.2499C13.6638 15.2445 13.659 15.2361 13.6655 15.233C13.6531 15.2282 13.6565 15.2403 13.6421 15.2287C13.6387 15.231 13.6497 15.24 13.6421 15.2397L13.6156 15.2301C13.6141 15.2301 13.6116 15.2284 13.6065 15.222C13.6209 15.2098 13.5915 15.2067 13.6133 15.2022C13.5876 15.1762 13.5568 15.1641 13.5396 15.1362C13.5178 15.1407 13.4938 15.0938 13.4803 15.113C13.4681 15.1031 13.4602 15.0888 13.4583 15.0732C13.4622 15.0732 13.4633 15.0797 13.4653 15.0831C13.4653 15.0755 13.4509 15.0602 13.4444 15.0549C13.4517 15.0677 13.4572 15.0815 13.4605 15.0958C13.451 15.0822 13.4426 15.0679 13.4354 15.0529L13.4241 15.0588C13.4201 15.0433 13.4091 15.0588 13.4074 15.0402H13.4117C13.393 15.0238 13.4009 15.0148 13.3851 14.9976L13.3826 15.0018C13.3755 14.9979 13.3747 14.9815 13.3614 14.984L13.3721 14.9948C13.3653 14.9998 13.3543 14.9948 13.3476 14.9948C13.3374 14.9821 13.3529 14.9807 13.3476 14.9744C13.3397 14.9778 13.3442 14.977 13.3428 14.9863C13.3299 14.9721 13.3202 14.9552 13.3145 14.9369C13.3131 14.9369 13.3125 14.9392 13.3125 14.9392C13.2981 14.9273 13.2959 14.9059 13.2829 14.9028L13.2849 14.9061C13.2659 14.9042 13.2643 14.8717 13.2484 14.8839C13.2408 14.8816 13.2606 14.8943 13.2456 14.8937C13.2253 14.883 13.2456 14.8714 13.2284 14.8621C13.2309 14.8635 13.2284 14.8638 13.2284 14.8658C13.2182 14.8556 13.2061 14.8412 13.1959 14.8291C13.1711 14.8277 13.1561 14.7859 13.1273 14.7845C13.1369 14.7845 13.1287 14.7752 13.1307 14.7729C13.1327 14.7707 13.1307 14.7749 13.1287 14.7752C13.1225 14.7698 13.1262 14.7648 13.1259 14.7608C13.1171 14.7608 13.114 14.741 13.1084 14.7408C13.1112 14.7377 13.1055 14.734 13.1005 14.7292C13.1075 14.7425 13.0976 14.7388 13.0979 14.7481C13.081 14.7348 13.0926 14.7179 13.0742 14.7049L13.0598 14.7021C13.0609 14.7001 13.0614 14.6978 13.0611 14.6955C13.0607 14.6932 13.0597 14.6911 13.0581 14.6894C13.0327 14.6699 13.0075 14.6411 12.9864 14.638C12.9696 14.61 12.9497 14.584 12.9271 14.5604V14.5621C12.9166 14.5551 12.8954 14.5415 12.8864 14.5514C12.8692 14.5311 12.8695 14.506 12.8423 14.4887L12.844 14.4972C12.8364 14.4938 12.8313 14.4803 12.8302 14.4769C12.8291 14.4735 12.8277 14.4786 12.8265 14.4803C12.8181 14.4786 12.8195 14.4701 12.8161 14.465L12.8147 14.4701C12.7901 14.4597 12.7737 14.4193 12.7486 14.399C12.752 14.4041 12.7463 14.4055 12.7429 14.4055C12.7429 14.3854 12.7147 14.3632 12.7071 14.3516L12.7093 14.3615C12.6969 14.3363 12.6811 14.3575 12.6698 14.3332L12.6865 14.3372C12.6769 14.3315 12.6723 14.3234 12.6788 14.3203C12.6664 14.3155 12.6698 14.3276 12.6554 14.3157C12.6517 14.3183 12.663 14.327 12.6554 14.327L12.6291 14.3174C12.6277 14.3174 12.6252 14.3157 12.6201 14.3092C12.6345 14.2971 12.6051 14.2937 12.6269 14.2895C12.6012 14.2635 12.5704 14.2511 12.5532 14.2235C12.5314 14.2277 12.5074 14.1811 12.4936 14.2003C12.4816 14.1902 12.4739 14.176 12.4718 14.1605C12.4758 14.1605 12.4769 14.167 12.4789 14.1701C12.4789 14.1628 12.4645 14.1473 12.458 14.1419C12.4653 14.1547 12.4707 14.1685 12.4741 14.1828C12.4645 14.1692 12.4561 14.1549 12.449 14.1399L12.4377 14.1458C12.4337 14.13 12.4227 14.1458 12.421 14.1272H12.4252C12.4066 14.1106 12.4145 14.1018 12.3987 14.0846L12.3962 14.0888C12.3891 14.0849 12.3883 14.0685 12.375 14.0711L12.3857 14.0818C12.3789 14.0869 12.3679 14.0818 12.3611 14.0818C12.351 14.0694 12.3665 14.0679 12.3611 14.0617C12.3532 14.0651 12.3575 14.0643 12.3563 14.0736C12.3434 14.0594 12.3338 14.0425 12.3281 14.0242C12.3281 14.0242 12.3261 14.0265 12.3261 14.0265C12.3117 14.0146 12.3095 13.9929 12.2965 13.9901L12.2984 13.9934C12.2795 13.9915 12.2778 13.9587 12.262 13.9711C12.2544 13.9689 12.2742 13.9816 12.2592 13.9807C12.2389 13.97 12.2592 13.9587 12.242 13.9494C12.2445 13.9508 12.242 13.9511 12.242 13.9531C12.2321 13.9429 12.2199 13.9285 12.2098 13.9164C12.1849 13.915 12.17 13.8732 12.1412 13.8718C12.1508 13.8718 12.1412 13.8622 12.1445 13.8602C12.1479 13.8583 12.1445 13.8619 12.1426 13.8622C12.1364 13.8571 12.14 13.852 12.1395 13.8478C12.131 13.8478 12.1279 13.8281 12.1222 13.8281C12.1251 13.825 12.1194 13.8213 12.1143 13.8165C12.1214 13.8298 12.1115 13.8261 12.1115 13.8354C12.0948 13.8221 12.1064 13.8052 12.0881 13.7922L12.0737 13.7894C12.0737 13.7894 12.07 13.7863 12.0691 13.7815C12.0638 13.7567 12.0426 13.7637 12.0485 13.7606C12.0612 13.7536 12.0242 13.7375 12.0231 13.7358C12.022 13.7341 12.0025 13.6988 11.9966 13.7121C11.9937 13.718 11.9994 13.6965 11.974 13.6932C11.9692 13.6932 11.9669 13.6884 11.9661 13.6889L11.9624 13.6748C11.948 13.6573 11.9319 13.6703 11.9175 13.6542C11.9268 13.6542 11.9226 13.6441 11.9361 13.6503C11.9311 13.6455 11.9271 13.6404 11.924 13.6435C11.924 13.6378 11.9039 13.6359 11.9031 13.6274C11.8991 13.6274 11.8941 13.6314 11.8884 13.6254C11.8884 13.624 11.8907 13.6232 11.8907 13.6232C11.8907 13.6232 11.8785 13.6178 11.8791 13.6274C11.8757 13.5992 11.8331 13.5868 11.83 13.5619C11.817 13.5529 11.8017 13.5416 11.7913 13.5323C11.793 13.5323 11.7932 13.5303 11.7947 13.5323C11.7842 13.5148 11.7743 13.5368 11.7622 13.5173C11.7605 13.5024 11.7743 13.5213 11.7715 13.5139C11.7828 13.4973 11.75 13.4976 11.7469 13.4789L11.7503 13.4806C11.7466 13.4679 11.7249 13.4674 11.7119 13.4524C11.7119 13.4524 11.7139 13.4524 11.7142 13.4504C11.6953 13.446 11.6777 13.4373 11.6628 13.425C11.6721 13.4234 11.6715 13.4276 11.6743 13.4197C11.6676 13.4149 11.6676 13.4304 11.6543 13.4211C11.6543 13.4146 11.6472 13.4039 11.6518 13.3968L11.6633 13.4067C11.665 13.3934 11.6487 13.3937 11.6441 13.3869L11.6481 13.3841C11.6297 13.3694 11.6215 13.3779 11.6038 13.3604V13.3649C11.5857 13.3649 11.5998 13.3522 11.584 13.3494L11.5891 13.3378C11.5737 13.3316 11.5588 13.3242 11.5444 13.3158C11.5591 13.3179 11.5733 13.3223 11.5865 13.3288C11.58 13.3229 11.5637 13.3091 11.5563 13.3102C11.5597 13.3119 11.5651 13.3127 11.5662 13.3164C11.5507 13.3154 11.5361 13.3087 11.5252 13.2975C11.5433 13.2825 11.495 13.2616 11.497 13.2396C11.4688 13.2247 11.4535 13.1945 11.4258 13.1708C11.423 13.1928 11.4177 13.1637 11.4066 13.1789C11.3996 13.1741 11.3976 13.1719 11.3976 13.1705L11.3863 13.1448C11.3863 13.1366 11.3951 13.1473 11.3973 13.1448C11.3846 13.131 11.3973 13.1338 11.3911 13.1217C11.3886 13.1284 11.3798 13.1242 11.3739 13.1152L11.379 13.1315C11.353 13.1211 11.373 13.105 11.3471 13.0943L11.3572 13.0957C11.3448 13.0889 11.3208 13.0615 11.3007 13.0635C11.3007 13.0604 11.3007 13.0545 11.307 13.0576C11.2849 13.0339 11.2434 13.0203 11.2313 12.9966L11.2364 12.9949C11.231 12.9918 11.2228 12.9949 11.2203 12.9856C11.2219 12.9856 11.2253 12.9839 11.2234 12.9817C11.2214 12.9794 11.2061 12.9766 11.2022 12.9693H11.2107C11.1917 12.9436 11.1669 12.9455 11.1454 12.9297C11.1545 12.9201 11.1395 12.9001 11.1319 12.8902H11.1336C11.1084 12.8694 11.0811 12.8514 11.0519 12.8366C11.0474 12.8157 11.0166 12.7923 10.9955 12.7683C10.9935 12.767 10.9913 12.7663 10.989 12.7663C10.9867 12.7663 10.9844 12.767 10.9825 12.7683L10.9788 12.7539C10.9644 12.7367 10.9483 12.7494 10.9339 12.7336C10.9432 12.7336 10.939 12.7234 10.9525 12.7296C10.9475 12.7248 10.9435 12.7195 10.9404 12.7226C10.9404 12.7169 10.9203 12.7153 10.9195 12.7065C10.9155 12.7065 10.9105 12.7105 10.9048 12.7048C10.9049 12.7043 10.9052 12.7038 10.9055 12.7034C10.9059 12.703 10.9063 12.7027 10.9068 12.7026C10.9048 12.7048 10.8949 12.6969 10.8955 12.7068C10.8921 12.6786 10.8495 12.6661 10.8464 12.6413C10.8329 12.6321 10.82 12.6223 10.8077 12.6117C10.8094 12.6117 10.8096 12.6094 10.8111 12.6117C10.8006 12.5945 10.7907 12.6162 10.7786 12.5967C10.7769 12.5818 10.7907 12.601 10.7879 12.5933C10.7992 12.5767 10.7664 12.5772 10.7633 12.5586L10.7667 12.56C10.7631 12.5476 10.7413 12.5468 10.7283 12.5332C10.7283 12.5332 10.7303 12.5332 10.7306 12.531C10.7117 12.5266 10.6942 12.518 10.6792 12.5058C10.6885 12.5039 10.6879 12.5084 10.6908 12.5002C10.684 12.4957 10.684 12.5112 10.6707 12.5019C10.6707 12.4951 10.6636 12.4847 10.6682 12.4773L10.6797 12.4872C10.6814 12.474 10.6651 12.4742 10.6605 12.4675L10.6645 12.4646C10.6461 12.45 10.638 12.4587 10.6202 12.4412V12.4454C10.6021 12.4454 10.6162 12.4327 10.6004 12.4302L10.6055 12.4184C10.59 12.4122 10.5751 12.4049 10.5609 12.3963C10.5755 12.3986 10.5897 12.403 10.6029 12.4096C10.5964 12.4034 10.5801 12.3896 10.5727 12.3907C10.5761 12.3924 10.5815 12.3932 10.5826 12.3972C10.567 12.3961 10.5524 12.3893 10.5417 12.378C10.5597 12.363 10.5114 12.3424 10.5134 12.3201C10.4852 12.3052 10.4699 12.2753 10.4422 12.2513C10.4394 12.2733 10.4341 12.2445 10.423 12.2595C10.416 12.2547 10.414 12.2524 10.414 12.251L10.4027 12.2253C10.4027 12.2174 10.4115 12.2279 10.4137 12.2253C10.4007 12.2115 10.4137 12.214 10.4075 12.2022C10.405 12.2087 10.3962 12.2047 10.3903 12.1957L10.3954 12.2121C10.3694 12.2016 10.3894 12.1852 10.3635 12.1745H10.3736C10.3612 12.168 10.3372 12.1406 10.3171 12.1426C10.3171 12.1392 10.3171 12.1336 10.3234 12.1364C10.3013 12.113 10.2598 12.0992 10.2477 12.0755L10.2528 12.0738C10.2474 12.0707 10.2392 12.0738 10.2367 12.0644C10.2384 12.0644 10.2417 12.0628 10.2398 12.0608C10.2378 12.0588 10.2225 12.0557 10.2186 12.0484H10.2271C10.2081 12.0227 10.1833 12.0247 10.1618 12.0089C10.1709 11.9993 10.1559 11.9792 10.1483 11.9691H10.15C10.1248 11.9483 10.0974 11.9303 10.0684 11.9154C10.0638 11.8946 10.0331 11.8714 10.0119 11.8474C10.01 11.846 10.0077 11.8453 10.0054 11.8453C10.003 11.8453 10.0008 11.846 9.99888 11.8474L9.99521 11.8333C9.98081 11.8158 9.96471 11.8288 9.95031 11.8127C9.95963 11.8127 9.95539 11.8025 9.96895 11.8088C9.96387 11.804 9.95991 11.7989 9.95681 11.8017C9.95681 11.7963 9.93676 11.7944 9.93591 11.7859C9.93196 11.7859 9.92687 11.7896 9.92122 11.7839C9.92156 11.7829 9.92227 11.7821 9.9232 11.7817C9.92122 11.7839 9.91134 11.7763 9.9119 11.7859C9.90852 11.7577 9.86587 11.7453 9.86248 11.7204C9.84978 11.7114 9.83425 11.7001 9.82408 11.6908C9.82577 11.6908 9.82606 11.6888 9.82747 11.6908C9.81702 11.6733 9.80714 11.6953 9.79499 11.6755C9.79302 11.6609 9.80714 11.6798 9.80431 11.6722C9.81561 11.6555 9.78285 11.6561 9.77974 11.6374L9.78313 11.6391C9.77946 11.6264 9.75772 11.6259 9.74473 11.6109C9.74473 11.6109 9.7467 11.6109 9.74698 11.6089C9.72818 11.6044 9.71063 11.5957 9.69559 11.5835C9.70491 11.5816 9.70434 11.5861 9.70717 11.5779C9.70039 11.5734 9.70039 11.5889 9.68712 11.5796C9.68712 11.5731 9.68006 11.5624 9.68457 11.5553L9.69615 11.5652C9.69785 11.5519 9.68147 11.5522 9.67667 11.5452L9.6809 11.5426C9.66255 11.5279 9.65436 11.5364 9.63657 11.5189V11.5234C9.61849 11.5234 9.63261 11.5107 9.6168 11.5079L9.62188 11.4963C9.60644 11.4901 9.59151 11.4827 9.57726 11.474C9.59186 11.4764 9.60604 11.4809 9.61934 11.4873C9.61285 11.4811 9.59647 11.4675 9.58912 11.4687C9.59251 11.4701 9.59788 11.4712 9.59901 11.4749C9.58342 11.4739 9.56878 11.4671 9.55806 11.4557C9.57613 11.441 9.52784 11.4201 9.52982 11.3992C9.50158 11.3843 9.48661 11.3541 9.45894 11.3304C9.45612 11.3524 9.45075 11.3233 9.43974 11.3386C9.43268 11.3338 9.4307 11.3312 9.4307 11.3298L9.41912 11.3041C9.41912 11.296 9.42788 11.3067 9.43042 11.3041C9.41743 11.2903 9.43042 11.2931 9.4242 11.281C9.42166 11.2875 9.41291 11.2835 9.40698 11.2745L9.41206 11.2909C9.38608 11.2804 9.40613 11.2643 9.38015 11.2536L9.39032 11.255C9.37789 11.2483 9.35389 11.2209 9.33384 11.2229C9.33384 11.2198 9.33384 11.2138 9.34005 11.2169C9.31802 11.1932 9.27651 11.1797 9.26437 11.1557L9.26945 11.1543C9.26408 11.1509 9.2559 11.1543 9.25335 11.1447C9.25505 11.1447 9.25844 11.143 9.25646 11.141C9.25448 11.139 9.23923 11.1359 9.23528 11.1286H9.24375C9.22483 11.1029 9.20224 11.1088 9.18078 11.093C9.16649 11.0876 9.15073 11.0876 9.13644 11.093V7.78934L6.44971 11.557L9.13446 15.7029V11.36L12.336 14.3454V20.6452L14.9999 24.8237V16.5501C15.0001 16.5309 15.0001 16.5199 14.9999 16.4903Z" fill="#CDD430"/>
<path d="M15 7.13968V12.1788L20.4028 7.13968H15Z" fill="#B1618D"/>
<path d="M15 12.1788V7.13968H9.59717L15 12.1788Z" fill="#D4DB62"/>
<path d="M15 12.1788V8.23216L9.59717 7.13968L15 12.1788Z" fill="#C4CA2F"/>
<path d="M15 12.1788V8.23216L20.4028 7.13968L15 12.1788Z" fill="#B13675"/>
<path d="M12.3359 14.3454L15.0001 24.8237L12.3359 20.6451V14.3454Z" fill="#C1C724"/>
<path d="M17.6639 14.3454V20.6451L15 24.8237L17.6639 14.3454Z" fill="#A13069"/>
<path d="M6.44775 11.5559L9.13449 11.0809V7.78824L6.44775 11.5559Z" fill="#DCE329"/>
<path d="M23.5522 11.5559L20.8657 11.0809V7.78824L23.5522 11.5559Z" fill="#B14A80"/>
</g>
<defs>
<clipPath id="clip0">
<rect width="30" height="40" fill="white"/>
</clipPath>
</defs>
</svg>
