<?xml version="1.0" encoding="utf-8"?>
<!-- Generator: Adobe Illustrator 23.1.0, SVG Export Plug-In . SVG Version: 6.00 Build 0)  -->
<svg version="1.1" id="Слой_1" xmlns="http://www.w3.org/2000/svg" xmlns:xlink="http://www.w3.org/1999/xlink" x="0px" y="0px"
	 viewBox="0 0 40 40" style="enable-background:new 0 0 40 40;" xml:space="preserve">
<style type="text/css">
	.st0{fill:#B13675;}
</style>
<title>pin</title>
<g>
	<path class="st0" d="M25.6,10.5l-5.1-5.2c-0.1-0.1-0.3-0.2-0.5-0.2c-0.2,0-0.4,0.1-0.5,0.2l-5.1,5.1l5.6,4.2L25.6,10.5z"/>
	<path class="st0" d="M29.4,14.3L26,10.9v3.6L20,19l-5.9-4.5v-3.7l5.9,4.5l6-4.5l-0.2-0.2L20,14.9l-5.7-4.3l-3.7,3.7
		c-0.2,0.3-0.2,0.7,0,1l3.5,3.5v-3.9l2.7,2v4.6l2.7,2.8c0.1,0.1,0.3,0.2,0.5,0.2c0.2,0,0.3-0.1,0.4-0.2l2.9-2.9v-4.4l2.7-2v3.7
		l3.3-3.4C29.6,15,29.6,14.6,29.4,14.3z"/>
	<path class="st0" d="M20,0C11.7,0,5,6.7,5,15c0,11.1,13.8,24.2,14.4,24.8c0.3,0.3,0.8,0.3,1.1,0C21.2,39.2,35,26.1,35,15
		C35,6.7,28.3,0,20,0z M20,26.8c-6.5,0-11.8-5.3-11.8-11.8S13.5,3.2,20,3.2c6.5,0,11.8,5.3,11.8,11.8C31.8,21.5,26.5,26.8,20,26.8z"
		/>
</g>
</svg>
